<svg xmlns="http://www.w3.org/2000/svg" width="22" height="22" viewBox="0 0 22 22"><path fill="#424242" d="M20.953 10.077c-.008-.089-.02-.179-.03-.269a10.162 10.162 0 0 0-.097-.633c-.021-.109-.041-.218-.064-.327a10.825 10.825 0 0 0-.148-.577c-.029-.104-.055-.209-.088-.313l-.014-.049a10.177 10.177 0 0 0-.285-.768c-.031-.075-.069-.146-.103-.22a9.92 9.92 0 0 0-.287-.597c-.048-.09-.101-.178-.151-.267-.1-.176-.204-.35-.314-.519-.055-.083-.109-.165-.166-.246a9.835 9.835 0 0 0-.388-.518c-.051-.063-.1-.128-.151-.19a9.628 9.628 0 0 0-.593-.652l-.003-.003a10.39 10.39 0 0 0-.659-.6c-.067-.056-.137-.107-.205-.162a10.442 10.442 0 0 0-.773-.556 9.99 9.99 0 0 0-.467-.283c-.103-.059-.205-.119-.311-.175a9.348 9.348 0 0 0-.543-.261c-.094-.042-.186-.089-.28-.128a10.038 10.038 0 0 0-.768-.281c-.112-.036-.228-.065-.341-.098-.178-.05-.357-.098-.539-.139a10.13 10.13 0 0 0-.948-.162c-.104-.013-.207-.028-.312-.038C11.62 1.019 11.313 1 11 1s-.62.019-.925.047c-.105.009-.208.024-.312.037a9.708 9.708 0 0 0-.949.163c-.18.04-.359.087-.536.138-.115.032-.23.062-.343.099a9.182 9.182 0 0 0-.75.274c-.105.043-.206.092-.307.138-.18.081-.357.164-.53.255-.108.057-.214.119-.32.18a10.97 10.97 0 0 0-.749.473c-.161.112-.317.23-.471.352-.075.06-.151.116-.224.177a9.805 9.805 0 0 0-.649.59l-.045.049a9.8 9.8 0 0 0-.549.604c-.06.072-.116.146-.174.22a9.446 9.446 0 0 0-.838 1.235c-.058.102-.118.202-.173.307-.09.171-.172.347-.252.523-.044.098-.093.192-.134.291a10.204 10.204 0 0 0-.291.795c-.038.119-.067.24-.102.36a9.535 9.535 0 0 0-.136.529 8.836 8.836 0 0 0-.069.354 9.22 9.22 0 0 0-.092.603 7.251 7.251 0 0 0-.034.292c-.026.293-.044.589-.045.889L1 11v.004c0 .315.019.625.047.933.009.094.022.187.034.28a10.209 10.209 0 0 0 .164.963c.04.177.087.352.136.525.032.117.062.235.099.351.084.262.179.52.283.772.045.108.098.212.146.318.075.165.151.328.235.488.057.109.118.215.179.322a12.724 12.724 0 0 0 .468.744c.121.174.249.342.38.508.051.064.099.13.15.193.191.229.392.451.602.662.02.02.041.037.061.056.189.187.388.366.592.537.08.068.165.131.248.196.101.079.196.162.3.237.051.037.104.068.155.104a10.36 10.36 0 0 0 .76.48c.108.063.218.125.328.183.163.085.331.164.499.24.104.047.205.098.31.141a10 10 0 0 0 .794.291c.1.031.201.055.302.084.188.053.379.104.572.147.114.025.229.046.345.067.196.036.394.066.594.09.102.013.203.026.306.036.299.029.602.048.911.048s.613-.019.915-.046c.101-.009.202-.023.303-.035.201-.024.4-.055.598-.091.113-.021.228-.042.34-.066.197-.043.392-.095.584-.15.097-.027.194-.05.29-.081.272-.086.539-.184.801-.292.099-.041.194-.089.291-.133.176-.08.35-.161.52-.25.105-.056.209-.115.313-.175a9.81 9.81 0 0 0 .76-.479c.055-.038.111-.071.165-.11.11-.08.212-.167.318-.251.073-.058.149-.114.222-.175a9.958 9.958 0 0 0 1.269-1.271c.04-.048.077-.1.116-.148.145-.181.284-.366.416-.556.056-.081.109-.164.163-.246a10.28 10.28 0 0 0 .467-.794c.093-.177.178-.358.261-.541.04-.09.086-.178.123-.27.108-.258.204-.522.29-.791.033-.104.059-.208.089-.313a9.95 9.95 0 0 0 .212-.898c.039-.21.071-.422.097-.636.011-.085.023-.17.031-.255.027-.314.046-.628.046-.947 0-.312-.019-.619-.047-.923zM4.342 13.345l-.003-.002-.003-.004a.195.195 0 0 1-.055-.137V8.796c0-.109.087-.197.196-.197h.709c.11 0 .197.088.197.197v3.5h1.928c.109 0 .197.088.197.196v.709c0 .11-.088.198-.197.198H4.478a.191.191 0 0 1-.136-.054zm8.656-4.549c0-.109.088-.197.196-.197h.711c.108 0 .196.088.196.197v4.406c0 .11-.088.198-.196.198h-.711a.173.173 0 0 1-.049-.008h-.002l-.014-.004a.043.043 0 0 1-.005-.001c-.004-.003-.008-.004-.011-.005l-.009-.005-.007-.003-.012-.007-.002-.001a.235.235 0 0 1-.051-.049l-2.021-2.73v2.616c0 .11-.089.198-.197.198h-.71a.197.197 0 0 1-.196-.198V8.796c0-.109.088-.197.196-.197h.718c.002 0 .005 0 .009.002h.011a.02.02 0 0 0 .007.001l.013.004.007.001c.004 0 .009.001.012.003l.006.002c.004.003.008.003.011.005.004 0 .005.002.007.003l.012.005.005.004a.07.07 0 0 1 .009.007c.004.001.005.003.007.004l.011.009.004.003.012.011.001.001c.004.008.011.013.016.021l2.019 2.727V8.796zm-3.779 0v4.406c0 .11-.088.198-.196.198h-.71a.195.195 0 0 1-.196-.198V8.796c0-.109.086-.197.196-.197h.71a.198.198 0 0 1 .196.197zm5.634 4.549l-.003-.003-.003-.003a.192.192 0 0 1-.056-.137V8.797c0-.052.021-.1.055-.135l.004-.003.002-.002a.191.191 0 0 1 .136-.057h2.834c.108 0 .195.088.195.197v.709a.196.196 0 0 1-.195.197h-1.927v.745h1.927c.108 0 .195.088.195.196v.711a.195.195 0 0 1-.195.196h-1.927v.745h1.927c.108 0 .195.088.195.196v.709c0 .11-.087.198-.195.198h-2.834a.19.19 0 0 1-.135-.054z"/></svg>