<?xml version="1.0" encoding="utf-8"?>
<!-- Generator: Adobe Illustrator 19.2.1, SVG Export Plug-In . SVG Version: 6.00 Build 0)  -->
<svg version="1.1" id="圖層_1" xmlns="http://www.w3.org/2000/svg" xmlns:xlink="http://www.w3.org/1999/xlink" x="0px" y="0px"
	 viewBox="0 0 240 180" style="enable-background:new 0 0 240 180;" xml:space="preserve">
<style type="text/css">
	.st0{fill:none;}
	.st1{fill:#675346;}
	.st2{fill:#F4EDD7;}
</style>
<title>杏鮑菇</title>
<rect class="st0" width="240" height="180"/>
<path class="st1" d="M108.8,38.1c1.9-2.2,4-2.4,3.2-3.6c-1-1.5-7-4.5-25-4.5s-24,3-25,4.5s3,1.5,5,2.5c0.4,0.2,0.7,0.4,1,0.8
	C82.1,37.3,95.7,37.4,108.8,38.1z"/>
<path class="st2" d="M108.8,38.1c-0.8,0.9-1.4,1.9-1.8,2.9c-2,5-2,15,0,26s6,23,7,39s-1,36-5,46s-10,10-22,10s-18,0-22-10
	s-6-30-5-50s5-40,7-51c1.6-8.8,1.9-11.8,1-13.2C82.1,37.3,95.7,37.4,108.8,38.1z"/>
<path class="st2" d="M169.8,71c-0.2,1.5,0.6,3.6,1.7,7.5c1.5,5.5,3.5,14.5,4,29s-0.5,34.5-4,44.5s-9.5,10-21.5,10s-18,0-21-9
	s-3-27-2-40s3-21,4-27.5s1-11.5-1-14.5l-0.1-0.2C143.7,70.4,157,70.4,169.8,71z"/>
<path class="st1" d="M169.8,71c0.1-0.6,0.3-1.1,0.7-1.5C172,68,176,67,175,65s-7-5-25-5s-24,3-25,5s2.8,3,4.9,5.8
	C143.7,70.4,157,70.4,169.8,71z"/>
</svg>
