<?xml version="1.0" encoding="utf-8"?>
<!-- Generator: Adobe Illustrator 19.2.1, SVG Export Plug-In . SVG Version: 6.00 Build 0)  -->
<svg version="1.1" id="圖層_1" xmlns="http://www.w3.org/2000/svg" xmlns:xlink="http://www.w3.org/1999/xlink" x="0px" y="0px"
	 viewBox="0 0 240 180" style="enable-background:new 0 0 240 180;" xml:space="preserve">
<style type="text/css">
	.st0{fill:none;}
	.st1{clip-path:url(#SVGID_2_);}
	.st2{fill:#F4D864;}
	.st3{fill:#E2C164;}
	.st4{clip-path:url(#SVGID_4_);}
	.st5{clip-path:url(#SVGID_6_);}
</style>
<title>玉米筍</title>
<rect class="st0" width="240" height="180"/>
<g>
	<defs>
		<path id="SVGID_1_" d="M96,162H66c0-72,0-90,12-138c0-6,6-6,6,0C96,72,96,90,96,162z"/>
	</defs>
	<clipPath id="SVGID_2_">
		<use xlink:href="#SVGID_1_"  style="overflow:visible;"/>
	</clipPath>
	<g class="st1">
		<path class="st2" d="M96,30v-6c0-6-6-6-6,0c0-6-6-6-6,0c0-6-6-6-6,0c0-6-6-6-6,0c0-6-6-6-6,0v6c0-6,6-6,6,0c0-6,6-6,6,0
			c0-6,6-6,6,0c0-6,6-6,6,0C90,24,96,24,96,30z"/>
		<path class="st2" d="M96,42v-6c0-6-6-6-6,0c0-6-6-6-6,0c0-6-6-6-6,0c0-6-6-6-6,0c0-6-6-6-6,0v6c0-6,6-6,6,0c0-6,6-6,6,0
			c0-6,6-6,6,0c0-6,6-6,6,0C90,36,96,36,96,42z"/>
		<path class="st2" d="M96,54v-6c0-6-6-6-6,0c0-6-6-6-6,0c0-6-6-6-6,0c0-6-6-6-6,0c0-6-6-6-6,0v6c0-6,6-6,6,0c0-6,6-6,6,0
			c0-6,6-6,6,0c0-6,6-6,6,0C90,48,96,48,96,54z"/>
		<path class="st2" d="M96,66v-6c0-6-6-6-6,0c0-6-6-6-6,0c0-6-6-6-6,0c0-6-6-6-6,0c0-6-6-6-6,0v6c0-6,6-6,6,0c0-6,6-6,6,0
			c0-6,6-6,6,0c0-6,6-6,6,0C90,60,96,60,96,66z"/>
		<path class="st2" d="M96,78v-6c0-6-6-6-6,0c0-6-6-6-6,0c0-6-6-6-6,0c0-6-6-6-6,0c0-6-6-6-6,0v6c0-6,6-6,6,0c0-6,6-6,6,0
			c0-6,6-6,6,0c0-6,6-6,6,0C90,72,96,72,96,78z"/>
		<path class="st2" d="M96,90v-6c0-6-6-6-6,0c0-6-6-6-6,0c0-6-6-6-6,0c0-6-6-6-6,0c0-6-6-6-6,0v6c0-6,6-6,6,0c0-6,6-6,6,0
			c0-6,6-6,6,0c0-6,6-6,6,0C90,84,96,84,96,90z"/>
		<path class="st2" d="M96,102v-6c0-6-6-6-6,0c0-6-6-6-6,0c0-6-6-6-6,0c0-6-6-6-6,0c0-6-6-6-6,0v6c0-6,6-6,6,0c0-6,6-6,6,0
			c0-6,6-6,6,0c0-6,6-6,6,0C90,96,96,96,96,102z"/>
		<path class="st2" d="M96,114v-6c0-6-6-6-6,0c0-6-6-6-6,0c0-6-6-6-6,0c0-6-6-6-6,0c0-6-6-6-6,0v6c0-6,6-6,6,0c0-6,6-6,6,0
			c0-6,6-6,6,0c0-6,6-6,6,0C90,108,96,108,96,114z"/>
		<path class="st2" d="M96,126v-6c0-6-6-6-6,0c0-6-6-6-6,0c0-6-6-6-6,0c0-6-6-6-6,0c0-6-6-6-6,0v6c0-6,6-6,6,0c0-6,6-6,6,0
			c0-6,6-6,6,0c0-6,6-6,6,0C90,120,96,120,96,126z"/>
		<path class="st2" d="M96,138v-6c0-6-6-6-6,0c0-6-6-6-6,0c0-6-6-6-6,0c0-6-6-6-6,0c0-6-6-6-6,0v6c0-6,6-6,6,0c0-6,6-6,6,0
			c0-6,6-6,6,0c0-6,6-6,6,0C90,132,96,132,96,138z"/>
		<path class="st2" d="M96,150v-6c0-6-6-6-6,0c0-6-6-6-6,0c0-6-6-6-6,0c0-6-6-6-6,0c0-6-6-6-6,0v6c0-6,6-6,6,0c0-6,6-6,6,0
			c0-6,6-6,6,0c0-6,6-6,6,0C90,144,96,144,96,150z"/>
		<path class="st2" d="M96,162v-6c0-6-6-6-6,0c0-6-6-6-6,0c0-6-6-6-6,0c0-6-6-6-6,0c0-6-6-6-6,0v6c0-6,6-6,6,0c0-6,6-6,6,0
			c0-6,6-6,6,0c0-6,6-6,6,0C90,156,96,156,96,162z"/>
		<path class="st3" d="M96,36v-6c0-6-6-6-6,0c0-6-6-6-6,0c0-6-6-6-6,0c0-6-6-6-6,0c0-6-6-6-6,0v6c0-6,6-6,6,0c0-6,6-6,6,0
			c0-6,6-6,6,0c0-6,6-6,6,0C90,30,96,30,96,36z"/>
		<path class="st3" d="M96,48v-6c0-6-6-6-6,0c0-6-6-6-6,0c0-6-6-6-6,0c0-6-6-6-6,0c0-6-6-6-6,0v6c0-6,6-6,6,0c0-6,6-6,6,0
			c0-6,6-6,6,0c0-6,6-6,6,0C90,42,96,42,96,48z"/>
		<path class="st3" d="M96,60v-6c0-6-6-6-6,0c0-6-6-6-6,0c0-6-6-6-6,0c0-6-6-6-6,0c0-6-6-6-6,0v6c0-6,6-6,6,0c0-6,6-6,6,0
			c0-6,6-6,6,0c0-6,6-6,6,0C90,54,96,54,96,60z"/>
		<path class="st3" d="M96,72v-6c0-6-6-6-6,0c0-6-6-6-6,0c0-6-6-6-6,0c0-6-6-6-6,0c0-6-6-6-6,0v6c0-6,6-6,6,0c0-6,6-6,6,0
			c0-6,6-6,6,0c0-6,6-6,6,0C90,66,96,66,96,72z"/>
		<path class="st3" d="M96,84v-6c0-6-6-6-6,0c0-6-6-6-6,0c0-6-6-6-6,0c0-6-6-6-6,0c0-6-6-6-6,0v6c0-6,6-6,6,0c0-6,6-6,6,0
			c0-6,6-6,6,0c0-6,6-6,6,0C90,78,96,78,96,84z"/>
		<path class="st3" d="M96,96v-6c0-6-6-6-6,0c0-6-6-6-6,0c0-6-6-6-6,0c0-6-6-6-6,0c0-6-6-6-6,0v6c0-6,6-6,6,0c0-6,6-6,6,0
			c0-6,6-6,6,0c0-6,6-6,6,0C90,90,96,90,96,96z"/>
		<path class="st3" d="M96,108v-6c0-6-6-6-6,0c0-6-6-6-6,0c0-6-6-6-6,0c0-6-6-6-6,0c0-6-6-6-6,0v6c0-6,6-6,6,0c0-6,6-6,6,0
			c0-6,6-6,6,0c0-6,6-6,6,0C90,102,96,102,96,108z"/>
		<path class="st3" d="M96,120v-6c0-6-6-6-6,0c0-6-6-6-6,0c0-6-6-6-6,0c0-6-6-6-6,0c0-6-6-6-6,0v6c0-6,6-6,6,0c0-6,6-6,6,0
			c0-6,6-6,6,0c0-6,6-6,6,0C90,114,96,114,96,120z"/>
		<path class="st3" d="M96,132v-6c0-6-6-6-6,0c0-6-6-6-6,0c0-6-6-6-6,0c0-6-6-6-6,0c0-6-6-6-6,0v6c0-6,6-6,6,0c0-6,6-6,6,0
			c0-6,6-6,6,0c0-6,6-6,6,0C90,126,96,126,96,132z"/>
		<path class="st3" d="M96,144v-6c0-6-6-6-6,0c0-6-6-6-6,0c0-6-6-6-6,0c0-6-6-6-6,0c0-6-6-6-6,0v6c0-6,6-6,6,0c0-6,6-6,6,0
			c0-6,6-6,6,0c0-6,6-6,6,0C90,138,96,138,96,144z"/>
		<path class="st3" d="M96,156v-6c0-6-6-6-6,0c0-6-6-6-6,0c0-6-6-6-6,0c0-6-6-6-6,0c0-6-6-6-6,0v6c0-6,6-6,6,0c0-6,6-6,6,0
			c0-6,6-6,6,0c0-6,6-6,6,0C90,150,96,150,96,156z"/>
		<path class="st3" d="M90,162c0-6,6-6,6,0H66c0-6,6-6,6,0c0-6,6-6,6,0c0-6,6-6,6,0C84,156,90,156,90,162z"/>
	</g>
</g>
<g>
	<defs>
		<path id="SVGID_3_" d="M135,162h-30c0-72,0-90,12-138c0-6,6-6,6,0C135,72,135,90,135,162z"/>
	</defs>
	<clipPath id="SVGID_4_">
		<use xlink:href="#SVGID_3_"  style="overflow:visible;"/>
	</clipPath>
	<g class="st4">
		<path class="st3" d="M135,30v-6c0-6-6-6-6,0c0-6-6-6-6,0c0-6-6-6-6,0c0-6-6-6-6,0c0-6-6-6-6,0v6c0-6,6-6,6,0c0-6,6-6,6,0
			c0-6,6-6,6,0c0-6,6-6,6,0C129,24,135,24,135,30z"/>
		<path class="st3" d="M135,42v-6c0-6-6-6-6,0c0-6-6-6-6,0c0-6-6-6-6,0c0-6-6-6-6,0c0-6-6-6-6,0v6c0-6,6-6,6,0c0-6,6-6,6,0
			c0-6,6-6,6,0c0-6,6-6,6,0C129,36,135,36,135,42z"/>
		<path class="st3" d="M135,54v-6c0-6-6-6-6,0c0-6-6-6-6,0c0-6-6-6-6,0c0-6-6-6-6,0c0-6-6-6-6,0v6c0-6,6-6,6,0c0-6,6-6,6,0
			c0-6,6-6,6,0c0-6,6-6,6,0C129,48,135,48,135,54z"/>
		<path class="st3" d="M135,66v-6c0-6-6-6-6,0c0-6-6-6-6,0c0-6-6-6-6,0c0-6-6-6-6,0c0-6-6-6-6,0v6c0-6,6-6,6,0c0-6,6-6,6,0
			c0-6,6-6,6,0c0-6,6-6,6,0C129,60,135,60,135,66z"/>
		<path class="st3" d="M135,78v-6c0-6-6-6-6,0c0-6-6-6-6,0c0-6-6-6-6,0c0-6-6-6-6,0c0-6-6-6-6,0v6c0-6,6-6,6,0c0-6,6-6,6,0
			c0-6,6-6,6,0c0-6,6-6,6,0C129,72,135,72,135,78z"/>
		<path class="st3" d="M135,90v-6c0-6-6-6-6,0c0-6-6-6-6,0c0-6-6-6-6,0c0-6-6-6-6,0c0-6-6-6-6,0v6c0-6,6-6,6,0c0-6,6-6,6,0
			c0-6,6-6,6,0c0-6,6-6,6,0C129,84,135,84,135,90z"/>
		<path class="st3" d="M135,102v-6c0-6-6-6-6,0c0-6-6-6-6,0c0-6-6-6-6,0c0-6-6-6-6,0c0-6-6-6-6,0v6c0-6,6-6,6,0c0-6,6-6,6,0
			c0-6,6-6,6,0c0-6,6-6,6,0C129,96,135,96,135,102z"/>
		<path class="st3" d="M135,114v-6c0-6-6-6-6,0c0-6-6-6-6,0c0-6-6-6-6,0c0-6-6-6-6,0c0-6-6-6-6,0v6c0-6,6-6,6,0c0-6,6-6,6,0
			c0-6,6-6,6,0c0-6,6-6,6,0C129,108,135,108,135,114z"/>
		<path class="st3" d="M135,126v-6c0-6-6-6-6,0c0-6-6-6-6,0c0-6-6-6-6,0c0-6-6-6-6,0c0-6-6-6-6,0v6c0-6,6-6,6,0c0-6,6-6,6,0
			c0-6,6-6,6,0c0-6,6-6,6,0C129,120,135,120,135,126z"/>
		<path class="st3" d="M135,138v-6c0-6-6-6-6,0c0-6-6-6-6,0c0-6-6-6-6,0c0-6-6-6-6,0c0-6-6-6-6,0v6c0-6,6-6,6,0c0-6,6-6,6,0
			c0-6,6-6,6,0c0-6,6-6,6,0C129,132,135,132,135,138z"/>
		<path class="st3" d="M135,150v-6c0-6-6-6-6,0c0-6-6-6-6,0c0-6-6-6-6,0c0-6-6-6-6,0c0-6-6-6-6,0v6c0-6,6-6,6,0c0-6,6-6,6,0
			c0-6,6-6,6,0c0-6,6-6,6,0C129,144,135,144,135,150z"/>
		<path class="st3" d="M135,162v-6c0-6-6-6-6,0c0-6-6-6-6,0c0-6-6-6-6,0c0-6-6-6-6,0c0-6-6-6-6,0v6c0-6,6-6,6,0c0-6,6-6,6,0
			c0-6,6-6,6,0c0-6,6-6,6,0C129,156,135,156,135,162z"/>
		<path class="st2" d="M135,36v-6c0-6-6-6-6,0c0-6-6-6-6,0c0-6-6-6-6,0c0-6-6-6-6,0c0-6-6-6-6,0v6c0-6,6-6,6,0c0-6,6-6,6,0
			c0-6,6-6,6,0c0-6,6-6,6,0C129,30,135,30,135,36z"/>
		<path class="st2" d="M135,48v-6c0-6-6-6-6,0c0-6-6-6-6,0c0-6-6-6-6,0c0-6-6-6-6,0c0-6-6-6-6,0v6c0-6,6-6,6,0c0-6,6-6,6,0
			c0-6,6-6,6,0c0-6,6-6,6,0C129,42,135,42,135,48z"/>
		<path class="st2" d="M135,60v-6c0-6-6-6-6,0c0-6-6-6-6,0c0-6-6-6-6,0c0-6-6-6-6,0c0-6-6-6-6,0v6c0-6,6-6,6,0c0-6,6-6,6,0
			c0-6,6-6,6,0c0-6,6-6,6,0C129,54,135,54,135,60z"/>
		<path class="st2" d="M135,72v-6c0-6-6-6-6,0c0-6-6-6-6,0c0-6-6-6-6,0c0-6-6-6-6,0c0-6-6-6-6,0v6c0-6,6-6,6,0c0-6,6-6,6,0
			c0-6,6-6,6,0c0-6,6-6,6,0C129,66,135,66,135,72z"/>
		<path class="st2" d="M135,84v-6c0-6-6-6-6,0c0-6-6-6-6,0c0-6-6-6-6,0c0-6-6-6-6,0c0-6-6-6-6,0v6c0-6,6-6,6,0c0-6,6-6,6,0
			c0-6,6-6,6,0c0-6,6-6,6,0C129,78,135,78,135,84z"/>
		<path class="st2" d="M135,96v-6c0-6-6-6-6,0c0-6-6-6-6,0c0-6-6-6-6,0c0-6-6-6-6,0c0-6-6-6-6,0v6c0-6,6-6,6,0c0-6,6-6,6,0
			c0-6,6-6,6,0c0-6,6-6,6,0C129,90,135,90,135,96z"/>
		<path class="st2" d="M135,108v-6c0-6-6-6-6,0c0-6-6-6-6,0c0-6-6-6-6,0c0-6-6-6-6,0c0-6-6-6-6,0v6c0-6,6-6,6,0c0-6,6-6,6,0
			c0-6,6-6,6,0c0-6,6-6,6,0C129,102,135,102,135,108z"/>
		<path class="st2" d="M135,120v-6c0-6-6-6-6,0c0-6-6-6-6,0c0-6-6-6-6,0c0-6-6-6-6,0c0-6-6-6-6,0v6c0-6,6-6,6,0c0-6,6-6,6,0
			c0-6,6-6,6,0c0-6,6-6,6,0C129,114,135,114,135,120z"/>
		<path class="st2" d="M135,132v-6c0-6-6-6-6,0c0-6-6-6-6,0c0-6-6-6-6,0c0-6-6-6-6,0c0-6-6-6-6,0v6c0-6,6-6,6,0c0-6,6-6,6,0
			c0-6,6-6,6,0c0-6,6-6,6,0C129,126,135,126,135,132z"/>
		<path class="st2" d="M135,144v-6c0-6-6-6-6,0c0-6-6-6-6,0c0-6-6-6-6,0c0-6-6-6-6,0c0-6-6-6-6,0v6c0-6,6-6,6,0c0-6,6-6,6,0
			c0-6,6-6,6,0c0-6,6-6,6,0C129,138,135,138,135,144z"/>
		<path class="st2" d="M135,156v-6c0-6-6-6-6,0c0-6-6-6-6,0c0-6-6-6-6,0c0-6-6-6-6,0c0-6-6-6-6,0v6c0-6,6-6,6,0c0-6,6-6,6,0
			c0-6,6-6,6,0c0-6,6-6,6,0C129,150,135,150,135,156z"/>
		<path class="st2" d="M129,162c0-6,6-6,6,0h-30c0-6,6-6,6,0c0-6,6-6,6,0c0-6,6-6,6,0C123,156,129,156,129,162z"/>
	</g>
</g>
<g>
	<defs>
		<path id="SVGID_5_" d="M174,162h-30c0-72,0-90,12-138c0-6,6-6,6,0C174,72,174,90,174,162z"/>
	</defs>
	<clipPath id="SVGID_6_">
		<use xlink:href="#SVGID_5_"  style="overflow:visible;"/>
	</clipPath>
	<g class="st5">
		<path class="st2" d="M174,30v-6c0-6-6-6-6,0c0-6-6-6-6,0c0-6-6-6-6,0c0-6-6-6-6,0c0-6-6-6-6,0v6c0-6,6-6,6,0c0-6,6-6,6,0
			c0-6,6-6,6,0c0-6,6-6,6,0C168,24,174,24,174,30z"/>
		<path class="st2" d="M174,42v-6c0-6-6-6-6,0c0-6-6-6-6,0c0-6-6-6-6,0c0-6-6-6-6,0c0-6-6-6-6,0v6c0-6,6-6,6,0c0-6,6-6,6,0
			c0-6,6-6,6,0c0-6,6-6,6,0C168,36,174,36,174,42z"/>
		<path class="st2" d="M174,54v-6c0-6-6-6-6,0c0-6-6-6-6,0c0-6-6-6-6,0c0-6-6-6-6,0c0-6-6-6-6,0v6c0-6,6-6,6,0c0-6,6-6,6,0
			c0-6,6-6,6,0c0-6,6-6,6,0C168,48,174,48,174,54z"/>
		<path class="st2" d="M174,66v-6c0-6-6-6-6,0c0-6-6-6-6,0c0-6-6-6-6,0c0-6-6-6-6,0c0-6-6-6-6,0v6c0-6,6-6,6,0c0-6,6-6,6,0
			c0-6,6-6,6,0c0-6,6-6,6,0C168,60,174,60,174,66z"/>
		<path class="st2" d="M174,78v-6c0-6-6-6-6,0c0-6-6-6-6,0c0-6-6-6-6,0c0-6-6-6-6,0c0-6-6-6-6,0v6c0-6,6-6,6,0c0-6,6-6,6,0
			c0-6,6-6,6,0c0-6,6-6,6,0C168,72,174,72,174,78z"/>
		<path class="st2" d="M174,90v-6c0-6-6-6-6,0c0-6-6-6-6,0c0-6-6-6-6,0c0-6-6-6-6,0c0-6-6-6-6,0v6c0-6,6-6,6,0c0-6,6-6,6,0
			c0-6,6-6,6,0c0-6,6-6,6,0C168,84,174,84,174,90z"/>
		<path class="st2" d="M174,102v-6c0-6-6-6-6,0c0-6-6-6-6,0c0-6-6-6-6,0c0-6-6-6-6,0c0-6-6-6-6,0v6c0-6,6-6,6,0c0-6,6-6,6,0
			c0-6,6-6,6,0c0-6,6-6,6,0C168,96,174,96,174,102z"/>
		<path class="st2" d="M174,114v-6c0-6-6-6-6,0c0-6-6-6-6,0c0-6-6-6-6,0c0-6-6-6-6,0c0-6-6-6-6,0v6c0-6,6-6,6,0c0-6,6-6,6,0
			c0-6,6-6,6,0c0-6,6-6,6,0C168,108,174,108,174,114z"/>
		<path class="st2" d="M174,126v-6c0-6-6-6-6,0c0-6-6-6-6,0c0-6-6-6-6,0c0-6-6-6-6,0c0-6-6-6-6,0v6c0-6,6-6,6,0c0-6,6-6,6,0
			c0-6,6-6,6,0c0-6,6-6,6,0C168,120,174,120,174,126z"/>
		<path class="st2" d="M174,138v-6c0-6-6-6-6,0c0-6-6-6-6,0c0-6-6-6-6,0c0-6-6-6-6,0c0-6-6-6-6,0v6c0-6,6-6,6,0c0-6,6-6,6,0
			c0-6,6-6,6,0c0-6,6-6,6,0C168,132,174,132,174,138z"/>
		<path class="st2" d="M174,150v-6c0-6-6-6-6,0c0-6-6-6-6,0c0-6-6-6-6,0c0-6-6-6-6,0c0-6-6-6-6,0v6c0-6,6-6,6,0c0-6,6-6,6,0
			c0-6,6-6,6,0c0-6,6-6,6,0C168,144,174,144,174,150z"/>
		<path class="st2" d="M174,162v-6c0-6-6-6-6,0c0-6-6-6-6,0c0-6-6-6-6,0c0-6-6-6-6,0c0-6-6-6-6,0v6c0-6,6-6,6,0c0-6,6-6,6,0
			c0-6,6-6,6,0c0-6,6-6,6,0C168,156,174,156,174,162z"/>
		<path class="st3" d="M174,36v-6c0-6-6-6-6,0c0-6-6-6-6,0c0-6-6-6-6,0c0-6-6-6-6,0c0-6-6-6-6,0v6c0-6,6-6,6,0c0-6,6-6,6,0
			c0-6,6-6,6,0c0-6,6-6,6,0C168,30,174,30,174,36z"/>
		<path class="st3" d="M174,48v-6c0-6-6-6-6,0c0-6-6-6-6,0c0-6-6-6-6,0c0-6-6-6-6,0c0-6-6-6-6,0v6c0-6,6-6,6,0c0-6,6-6,6,0
			c0-6,6-6,6,0c0-6,6-6,6,0C168,42,174,42,174,48z"/>
		<path class="st3" d="M174,60v-6c0-6-6-6-6,0c0-6-6-6-6,0c0-6-6-6-6,0c0-6-6-6-6,0c0-6-6-6-6,0v6c0-6,6-6,6,0c0-6,6-6,6,0
			c0-6,6-6,6,0c0-6,6-6,6,0C168,54,174,54,174,60z"/>
		<path class="st3" d="M174,72v-6c0-6-6-6-6,0c0-6-6-6-6,0c0-6-6-6-6,0c0-6-6-6-6,0c0-6-6-6-6,0v6c0-6,6-6,6,0c0-6,6-6,6,0
			c0-6,6-6,6,0c0-6,6-6,6,0C168,66,174,66,174,72z"/>
		<path class="st3" d="M174,84v-6c0-6-6-6-6,0c0-6-6-6-6,0c0-6-6-6-6,0c0-6-6-6-6,0c0-6-6-6-6,0v6c0-6,6-6,6,0c0-6,6-6,6,0
			c0-6,6-6,6,0c0-6,6-6,6,0C168,78,174,78,174,84z"/>
		<path class="st3" d="M174,96v-6c0-6-6-6-6,0c0-6-6-6-6,0c0-6-6-6-6,0c0-6-6-6-6,0c0-6-6-6-6,0v6c0-6,6-6,6,0c0-6,6-6,6,0
			c0-6,6-6,6,0c0-6,6-6,6,0C168,90,174,90,174,96z"/>
		<path class="st3" d="M174,108v-6c0-6-6-6-6,0c0-6-6-6-6,0c0-6-6-6-6,0c0-6-6-6-6,0c0-6-6-6-6,0v6c0-6,6-6,6,0c0-6,6-6,6,0
			c0-6,6-6,6,0c0-6,6-6,6,0C168,102,174,102,174,108z"/>
		<path class="st3" d="M174,120v-6c0-6-6-6-6,0c0-6-6-6-6,0c0-6-6-6-6,0c0-6-6-6-6,0c0-6-6-6-6,0v6c0-6,6-6,6,0c0-6,6-6,6,0
			c0-6,6-6,6,0c0-6,6-6,6,0C168,114,174,114,174,120z"/>
		<path class="st3" d="M174,132v-6c0-6-6-6-6,0c0-6-6-6-6,0c0-6-6-6-6,0c0-6-6-6-6,0c0-6-6-6-6,0v6c0-6,6-6,6,0c0-6,6-6,6,0
			c0-6,6-6,6,0c0-6,6-6,6,0C168,126,174,126,174,132z"/>
		<path class="st3" d="M174,144v-6c0-6-6-6-6,0c0-6-6-6-6,0c0-6-6-6-6,0c0-6-6-6-6,0c0-6-6-6-6,0v6c0-6,6-6,6,0c0-6,6-6,6,0
			c0-6,6-6,6,0c0-6,6-6,6,0C168,138,174,138,174,144z"/>
		<path class="st3" d="M174,156v-6c0-6-6-6-6,0c0-6-6-6-6,0c0-6-6-6-6,0c0-6-6-6-6,0c0-6-6-6-6,0v6c0-6,6-6,6,0c0-6,6-6,6,0
			c0-6,6-6,6,0c0-6,6-6,6,0C168,150,174,150,174,156z"/>
		<path class="st3" d="M168,162c0-6,6-6,6,0h-30c0-6,6-6,6,0c0-6,6-6,6,0c0-6,6-6,6,0C162,156,168,156,168,162z"/>
	</g>
</g>
</svg>
