<svg id="圖層_1" data-name="圖層 1" xmlns="http://www.w3.org/2000/svg" xmlns:xlink="http://www.w3.org/1999/xlink" viewBox="0 0 239.99 180"><defs><clipPath id="clip-path" transform="translate(-601 -316)"><path d="M671,370c4-20,12-28,26-32s34-4,48,0,22,12,26,32,4,52,0,72-12,28-26,32-34,4-48,0-22-12-26-32S667,390,671,370Z" style="fill:none"/></clipPath></defs><title>肉片吐司</title><rect width="239.99" height="180" style="fill:none"/><g style="clip-path:url(#clip-path)"><path d="M671,370c4-20,12-28,26-32s34-4,48,0,22,12,26,32,4,52,0,72-12,28-26,32-34,4-48,0-22-12-26-32S667,390,671,370Z" transform="translate(-601 -316)" style="fill:#ab835a"/><path d="M782,402.43C756.12,409,757.79,427.05,752,439.69c-5.66,12.41-18.48,19.6-16.85,44.53l6-.39a53.76,53.76,0,0,1,0-7.4,40.37,40.37,0,0,1,.88-6,35.77,35.77,0,0,1,1.55-5,38,38,0,0,1,2.07-4.37c0.76-1.39,1.61-2.73,2.48-4.05,1.29-1.93,2.65-3.81,4-5.71,1-1.44,2-2.88,2.89-4.38a45.4,45.4,0,0,0,2.62-5,53.17,53.17,0,0,0,2-5.35c0.72-2.22,1.34-4.47,2-6.7,0.48-1.6,1-3.19,1.6-4.75a34.46,34.46,0,0,1,1.94-4.28,23,23,0,0,1,2.55-3.77,21.66,21.66,0,0,1,3.54-3.34,27.22,27.22,0,0,1,5-3,41.58,41.58,0,0,1,7.12-2.45Z" transform="translate(-601 -316)" style="fill:#c8b091"/><path d="M715.12,458.36a54.61,54.61,0,0,0-20.59-.7l-1.5-5.82A61.44,61.44,0,0,1,718.51,453Z" transform="translate(-601 -316)" style="fill:#c8b091"/><path d="M668.25,417.28c13.25-2.78,20.4-13.23,22.65-25.43,2.46-13.28-.86-28.64,30-61.6l4.38,4.1A169.69,169.69,0,0,0,712,350.18a91.9,91.9,0,0,0-7.87,12.64,59.16,59.16,0,0,0-4,10.05,60.66,60.66,0,0,0-1.79,8.4c-0.46,3.16-.7,6.34-1.18,9.49a54.79,54.79,0,0,1-1.14,5.67,43.65,43.65,0,0,1-2.58,7.26,37.28,37.28,0,0,1-3.89,6.64,33.19,33.19,0,0,1-5.31,5.68,32.81,32.81,0,0,1-6.74,4.39,34.59,34.59,0,0,1-8,2.75Z" transform="translate(-601 -316)" style="fill:#c8b091"/><path d="M668.61,423.33c19.85,8,29.62,27.51,16.39,54.67l5.39,2.63a74,74,0,0,0,4.25-10.7,55.47,55.47,0,0,0,2.13-10.15,44.66,44.66,0,0,0,0-9.53,38.3,38.3,0,0,0-1.94-8.76,37.68,37.68,0,0,0-9.3-14.37,45.72,45.72,0,0,0-14.71-9.36Z" transform="translate(-601 -316)" style="fill:#c8b091"/><path d="M770.54,367.83q-3.83,1.74-7.52,3.77a79.47,79.47,0,0,0-12,8,59.55,59.55,0,0,0-8.65,8.68,53,53,0,0,0-5.84,9,58.25,58.25,0,0,0-3.62,8.84c-0.86,2.72-1.55,5.49-2.14,8.27-0.67,3.15-1.23,6.32-1.91,9.47a42.11,42.11,0,0,1-1.53,5.61,29,29,0,0,1-2.19,4.61,47.07,47.07,0,0,1-3,4.43c-1.58,2.11-3.26,4.15-4.9,6.22-1.4,1.77-2.77,3.56-4.06,5.41a62.14,62.14,0,0,0-3.91,6.38,52.22,52.22,0,0,0-3.29,7.63,55.39,55.39,0,0,0-2.21,9.1c-0.12.75-.22,1.51-0.31,2.27L709,484c0-30,18-36,24-52.5s0-43.5,48-61.5Z" transform="translate(-601 -316)" style="fill:#c8b091"/></g><path d="M726,344c-12,0-22-2-31-3a194.2,194.2,0,0,0-22-1c-5,0-7,0-8,1s-1,3-1,6,0,7,1,10,3,5,3,7-2,4-3,20-1,46-1,63,0,21,1,23,3,2,10,1,19-3,30-4a171.06,171.06,0,0,1,32,0c11,1,23,3,30,4s9,1,10-1,1-6,0-22-3-44-4-59-1-17,0-22,3-13,4-18,1-7-1-8-6-1-15,0S738,344,726,344Z" transform="translate(-601 -316)" style="fill:#c89950"/><path d="M726,345.5a131.3,131.3,0,0,1-15.14-.93c-5.33-.62-10.64-1.51-16-2.09a204.17,204.17,0,0,0-21.89-1c-1.32,0-2.63,0-3.95,0-0.5,0-1,0-1.49.09a6.48,6.48,0,0,0-1,.18,1.23,1.23,0,0,0-.43.19,1.06,1.06,0,0,0-.3.45,2.92,2.92,0,0,0-.18.67,8.21,8.21,0,0,0-.1,1.07c-0.1,1.73-.07,3.47,0,5.2,0,1.34.09,2.68,0.25,4a15,15,0,0,0,.72,3.33,23.59,23.59,0,0,0,1.69,3.41,12.18,12.18,0,0,1,1.05,2.22,5.66,5.66,0,0,1,.24,1.17,4.7,4.7,0,0,1,0,.86,6.92,6.92,0,0,1-.23,1.19c-0.19.74-.41,1.48-0.61,2.22-0.28,1.06-.5,2.13-0.7,3.21-0.51,2.76-.84,5.56-1.09,8.36s-0.4,5.38-.54,8.08c-0.29,5.82-.44,11.66-0.54,17.49q-0.18,9.85-.23,19.7c0,7.45,0,14.91,0,22.36,0,4.93,0,9.85.06,14.77,0,1.13,0,2.27.11,3.4,0,0.75.1,1.5,0.2,2.24a8.48,8.48,0,0,0,.26,1.34,3.78,3.78,0,0,0,.26.66,1.28,1.28,0,0,0,.14.22,1,1,0,0,0,.29.25,1.8,1.8,0,0,0,.6.19c0.19,0,.38.05,0.57,0.07a11.41,11.41,0,0,0,1.55,0c1.75-.11,3.49-0.35,5.23-0.6,5.45-.78,10.9-1.64,16.35-2.39,3.58-.5,7.16-1,10.75-1.32a185.11,185.11,0,0,1,20.94-1c3.48,0,6.95.19,10.42,0.44s7.16,0.61,10.72,1,7.25,0.92,10.86,1.45c4.52,0.66,9,1.38,13.56,2,0.91,0.12,1.82.24,2.72,0.33,0.66,0.07,1.33.12,2,.14a8.29,8.29,0,0,0,1.19,0l0.46-.07a1.56,1.56,0,0,0,.52-0.2,1.06,1.06,0,0,0,.28-0.28,1.75,1.75,0,0,0,.16-0.28,4.73,4.73,0,0,0,.28-0.9,11,11,0,0,0,.2-1.56c0.06-.84.08-1.67,0.08-2.51,0-1.23,0-2.45-.07-3.68-0.1-2.57-.24-5.14-0.38-7.71-0.52-9-1.14-18-1.76-26.95q-0.71-10.43-1.43-20.85c-0.57-8.2-1.17-16.39-1.62-24.59-0.08-1.38-.15-2.77-0.2-4.15a44.59,44.59,0,0,1,.12-5.64,50.9,50.9,0,0,1,.89-5.32c0.81-3.87,1.75-7.71,2.63-11.56,0.41-1.83.82-3.66,1.18-5.5,0.13-.69.27-1.38,0.37-2.07,0.08-.53.13-1.05,0.17-1.58a6.81,6.81,0,0,0,0-1.07,3.06,3.06,0,0,0-.06-0.37,1.48,1.48,0,0,0-.18-0.46,1.18,1.18,0,0,0-.28-0.29l-0.24-.15a4.25,4.25,0,0,0-.74-0.27,8.29,8.29,0,0,0-1.24-.22c-0.59-.07-1.19-0.09-1.78-0.1a53.81,53.81,0,0,0-5.38.24q-1.85.16-3.71,0.35c-4.16.43-8.31,1-12.47,1.45-4,.46-8,0.87-12,1.18S730,345.5,726,345.5Z" transform="translate(-601 -316)" style="fill:#e8e1d1"/></svg>