<?xml version="1.0" encoding="utf-8"?>
<!-- Generator: Adobe Illustrator 19.2.1, SVG Export Plug-In . SVG Version: 6.00 Build 0)  -->
<svg version="1.1" id="圖層_1" xmlns="http://www.w3.org/2000/svg" xmlns:xlink="http://www.w3.org/1999/xlink" x="0px" y="0px"
	 viewBox="0 0 240 180" style="enable-background:new 0 0 240 180;" xml:space="preserve">
<style type="text/css">
	.st0{fill:none;}
	.st1{fill:#DFE0B0;}
	.st2{fill:#F1F2D1;}
	.st3{fill:#9EB877;}
</style>
<title>茭白筍</title>
<rect class="st0" width="240" height="180"/>
<path class="st1" d="M89.1,85.4c1.1,9.3,2.1,16.1,2.9,22.6c1.4,11.5,2.4,21.8,3,36H55c0.6-14.2,1.5-24.5,3-36
	c0.6-5.1,1.4-10.3,2.2-16.8l29.1-5.8"/>
<path class="st1" d="M182.5,126h-29.1c0.5-3.7,1.2-7.5,1.8-12c0.9-6.1,1.6-13.5,2.4-23.1l20.3-4.1c0.9,11.7,1.7,20.2,2.7,27.2
	C181.4,118.5,182.1,122.3,182.5,126z"/>
<path class="st1" d="M140.3,138h-34.6c-0.1-8.5,2.1-19.3,3.8-29.6c0.9-5.6,1.7-11,2.4-17.4l21.8-4.4c0.7,8.4,1.6,15,2.8,21.8
	C138.2,118.7,140.5,129.5,140.3,138z"/>
<path class="st2" d="M53.9,144h42.2c-0.6,6.1-1.6,12.1-3.1,18H57C55.5,156.1,54.5,150.1,53.9,144z"/>
<path class="st2" d="M152.1,126h31.8c1.1,9.5,1.3,18.5-0.9,36h-30C150.8,144.5,151,135.5,152.1,126z"/>
<path class="st2" d="M108,162h30c2.5-10.4,3.5-17.7,3.5-24h-36.9C104.5,144.3,105.5,151.6,108,162z"/>
<path class="st3" d="M89.1,85.4C87.5,72.1,85.8,53.7,84,24H66c-2,34.2-4.1,53.4-5.8,67.2"/>
<path class="st3" d="M174,24c1.7,28.2,2.9,48,4,62.8l-20.3,4.1c1.2-15.2,2.5-36,4.3-66.9H174L174,24z"/>
<path class="st3" d="M114,24c0,34.6-0.7,53.1-2.1,67l21.8-4.4C132.6,73.1,132,55.1,132,24L114,24L114,24z"/>
</svg>
