<svg xmlns="http://www.w3.org/2000/svg" viewBox="0 0 239.99 180"><title>蝦子</title><g style="isolation:isolate"><g id="圖層_1" data-name="圖層 1"><rect width="239.99" height="180" style="fill:none"/><rect width="239.99" height="180" style="fill:none"/><polyline points="136.37 71.09 131.6 81.44 132.01 94.18 132.9 82.04 137.67 71.69" style="fill:#cbc8db"/><polyline points="138.52 71.36 136.59 82.59 138.88 94.56 135.19 82.35 137.12 71.12" style="fill:#cbc8db"/><polyline points="150.93 74.65 145.44 84.64 143.71 96.69 144.19 83.96 149.68 73.97" style="fill:#cbc8db"/><polyline points="148.99 73.69 141.1 81.93 137.33 94.1 142.13 82.91 150.02 74.68" style="fill:#cbc8db"/><polyline points="160.38 81.3 152.03 89.06 146.58 99.94 151.06 88.01 159.41 80.26" style="fill:#cbc8db"/><polyline points="158.84 79.78 148.76 85.11 141.35 95.48 149.42 86.37 159.5 81.04" style="fill:#cbc8db"/><polyline points="166.26 90.01 155.98 94.96 147.56 103.75 155.37 93.67 165.64 88.73" style="fill:#cbc8db"/><polyline points="165.23 88.11 154.03 90.22 143.88 97.94 154.29 91.62 165.5 89.51" style="fill:#cbc8db"/><polyline points="167.75 97.24 156.41 96.09 144.5 100.62 156.27 97.51 167.61 98.65" style="fill:#cbc8db"/><polyline points="168.2 99.36 156.94 101.19 146.38 107.24 156.71 99.78 167.97 97.95" style="fill:#cbc8db"/><g style="opacity:0.75;mix-blend-mode:soft-light"><path d="M1049.81,11664.24c-15.19,18.72-19.62,20.09-32.77,20,4.29-8.61,11.12-17.17,22.45-28.85Z" transform="translate(-880.01 -11532)"/></g><path d="M1048.75,11663.18c-15.19,18.72-19.62,20.09-32.77,20,4.29-8.61,11.12-17.17,22.45-28.85Z" transform="translate(-880.01 -11532)" style="fill:#cacdd8"/><g style="opacity:0.75;mix-blend-mode:soft-light"><path d="M1067.13,11643a56,56,0,0,1-17,21.52l-10.87-9.34a82.32,82.32,0,0,1,7.21-19.31Z" transform="translate(-880.01 -11532)"/></g><path d="M1066.08,11641.9a56,56,0,0,1-17,21.52l-10.87-9.34a82.38,82.38,0,0,1,7.21-19.31Z" transform="translate(-880.01 -11532)" style="fill:#cfd2e1"/><g style="opacity:0.75;mix-blend-mode:soft-light"><path d="M1046.43,11635.83a13.27,13.27,0,0,1,1-8.56l23.85-2.07a37.7,37.7,0,0,1-2.18,18.44Z" transform="translate(-880.01 -11532)"/></g><path d="M1045.37,11634.77a13.27,13.27,0,0,1,1-8.56l23.84-2.07a37.7,37.7,0,0,1-2.18,18.44Z" transform="translate(-880.01 -11532)" style="fill:#cfd2e1"/><g style="opacity:0.75;mix-blend-mode:soft-light"><path d="M1046.27,11627.37a14.76,14.76,0,0,1-2.74-9.15l22.15-11.75a39.69,39.69,0,0,1,5.61,18.72Z" transform="translate(-880.01 -11532)"/></g><path d="M1045.21,11626.31a14.75,14.75,0,0,1-2.75-9.15l22.15-11.75a39.67,39.67,0,0,1,5.61,18.72Z" transform="translate(-880.01 -11532)" style="fill:#cfd2e1"/><g style="opacity:0.75;mix-blend-mode:soft-light"><path d="M1065.67,11606.47a41.79,41.79,0,0,0-12.92-16l-17,20.13a16.3,16.3,0,0,0,6.64,8.24Z" transform="translate(-880.01 -11532)"/></g><path d="M1064.61,11605.41a41.79,41.79,0,0,0-12.92-16l-17,20.13a16.32,16.32,0,0,0,6.64,8.24Z" transform="translate(-880.01 -11532)" style="fill:#cfd2e1"/><g style="opacity:0.75;mix-blend-mode:soft-light"><path d="M1034,11579.7a44,44,0,0,1,18.8,10.75l-17.77,21a18.09,18.09,0,0,1-10.28-5.64Z" transform="translate(-880.01 -11532)"/></g><path d="M1032.89,11578.64a44,44,0,0,1,18.8,10.75l-17.77,21a18.09,18.09,0,0,1-10.28-5.64Z" transform="translate(-880.01 -11532)" style="fill:#cfd2e1"/><g style="opacity:0.75;mix-blend-mode:soft-light"><path d="M1011.48,11575.84a46.32,46.32,0,0,1,22.47,3.86l-9.66,27.32a20,20,0,0,1-12.81-2.2v-29Z" transform="translate(-880.01 -11532)"/></g><path d="M1010.42,11574.79a46.32,46.32,0,0,1,22.47,3.86l-9.66,27.32a20,20,0,0,1-12.81-2.2v-29Z" transform="translate(-880.01 -11532)" style="fill:#cfd2e1"/><g style="opacity:0.75;mix-blend-mode:soft-light"><path d="M1011.48,11575.84c-6.3-2.77-30.17-3.72-34.75-3.44a88.93,88.93,0,0,1-17.28,0c-9.27-.8-21.47-2.46-28.74-3.88-6.88-1.35-8.12-1.61-8.12-1.61s8.6,3.1,13.18,5.16c4.16,1.87,11.34,5.69,14.51,7.54s13.9,9.4,18.85,12.1a125,125,0,0,0,25.73,9.8c8,1.89,16.52,1.53,16.61,1.34" transform="translate(-880.01 -11532)"/></g><path d="M1010.42,11574.79c-6.3-2.77-30.17-3.72-34.75-3.44a88.77,88.77,0,0,1-17.28,0c-9.27-.8-21.47-2.46-28.74-3.88-6.88-1.35-8.12-1.61-8.12-1.61s8.6,3.1,13.18,5.16c4.16,1.87,11.34,5.69,14.51,7.54s13.9,9.4,18.85,12.1a124.94,124.94,0,0,0,25.73,9.8c8,1.89,16.52,1.53,16.61,1.34" transform="translate(-880.01 -11532)" style="fill:#cfd2e1"/><ellipse cx="954.49" cy="11571.61" rx="2.29" ry="3.55" transform="translate(-11495.94 -929.16) rotate(-80.5)" style="fill:#323458"/><polyline points="130.42 69.93 92.26 70.46 65.82 62.97 92.05 71.82 130.43 71.29" style="fill:#bbb5cb"/><polyline points="130.42 69.93 92.42 73.38 65.47 67.94 92.31 74.75 130.53 71.28" style="fill:#bbb5cb"/><polyline points="130.42 69.93 97.84 75.36 92.41 86.22 97.84 107.93 93.93 86.22 98.74 76.59 130.64 71.27" style="fill:#bbb5cb"/><polyline points="130.42 69.93 97.84 75.36 86.98 86.22 92.41 107.93 88.48 86.64 98.49 76.63 130.64 71.27" style="fill:#bbb5cb"/></g></g></svg>