<svg id="圖層_1" data-name="圖層 1" xmlns="http://www.w3.org/2000/svg" viewBox="0 0 239.99 180"><title>五花</title><rect width="239.99" height="180" style="fill:none"/><path d="M710,440c4-8,6-18,5-25s-5-11-7-17-2-14,1.75-22.5S721,358,718,334c-12.35,0-20.91,0-26.95.12C703,358,697,364,693,372s-6,18-5,25,5,11,7,17,2,14-1.75,22.5-11.18,17.43-8.28,41.2c5.18,0.25,13.42.29,27,.3C700,454,706,448,710,440Z" transform="translate(-601 -316)" style="fill:#f7f0df"/><path d="M693.24,436.5C697,428,697,420,695,414s-6-10-7-17,1-17,5-25,10-14-1.95-37.88c-10.25.19-13.22,0.66-15.05,1.88-3,2-3,6-3,28v84c0,22,0,26,3,28,1.41,0.94,3.47,1.43,9,1.7C682.06,453.93,689.51,445,693.24,436.5Z" transform="translate(-601 -316)" style="fill:#e8837c"/><path d="M732.24,436.5C736,428,736,420,734,414s-6-10-7-17,1-17,5-25,10-14-2-38H718c3,24-4.5,33-8.25,41.5S706,392,708,398s6,10,7,17-1,17-5,25-10,14,2,38h12C721,454,728.49,445,732.24,436.5Z" transform="translate(-601 -316)" style="fill:#e8837c"/><path d="M766,336c-1.4-.94-3.47-1.44-9-1.7,2.9,23.77-4.55,32.74-8.28,41.2S745,392,747,398s6,10,7,17-1,17-5,25-10,14,1.94,37.88c10.25-.18,13.22-0.66,15.05-1.88,3-2,3-6,3-28V364C769,342,769,338,766,336Z" transform="translate(-601 -316)" style="fill:#e8837c"/><path d="M749,440c4-8,6-18,5-25s-5-11-7-17-2-14,1.75-22.5,11.18-17.43,8.28-41.2c-5.18-.25-13.42-0.29-27-0.3,12,24,6,30,2,38s-6,18-5,25,5,11,7,17,2,14-1.75,22.5S721,454,724,478c12.35,0,20.91,0,26.95-.12C739,454,745,448,749,440Z" transform="translate(-601 -316)" style="fill:#f7f0df"/></svg>