<svg id="圖層_1" data-name="圖層 1" xmlns="http://www.w3.org/2000/svg" xmlns:xlink="http://www.w3.org/1999/xlink" viewBox="0 0 240 180"><defs><radialGradient id="radial-gradient" cx="724.4" cy="11606.4" r="42.88" gradientUnits="userSpaceOnUse"><stop offset="0.73" stop-color="#f0f2f2"/><stop offset="0.83" stop-color="#e7dbdf"/><stop offset="1" stop-color="#d5aab6"/></radialGradient><linearGradient id="linear-gradient" x1="671.33" y1="11553.33" x2="719.7" y2="11601.7" gradientUnits="userSpaceOnUse"><stop offset="0" stop-color="#d5aab6"/><stop offset="0.27" stop-color="#d6adb8"/><stop offset="0.47" stop-color="#dab6c0"/><stop offset="0.65" stop-color="#e1c6ce"/><stop offset="0.81" stop-color="#ebdde1"/><stop offset="0.9" stop-color="#f2edee"/></linearGradient></defs><title>主視覺8</title><rect width="240" height="180" style="fill:none"/><rect width="240" height="180" style="fill:none"/><path d="M763.55,11652.34l14.43,14.43c5.94,5.94,12.72,12.73,12.72,19.52,3.39-10.18-3.39-17-9.33-22.91l-14.43-14.42" transform="translate(-620 -11532)" style="fill:#ece5e6"/><path d="M766.95,11648.95l14.43,14.42c5.94,5.94,12.72,12.73,22.91,9.33-6.79,0-13.58-6.79-19.51-12.73l-14.43-14.42" transform="translate(-620 -11532)" style="fill:#ece5e6"/><path d="M753.37,11648.95c6.79,6.79,0,13.58-5.09,18.67s-8.49,8.49-16.12,4.24-19.52-16.12-26.31-9.33c6.79,0,18.67,11.88,26.87,15.56s12.73-.85,19.23-7.35,15-15,8.2-21.78" transform="translate(-620 -11532)" style="fill:#ece5e6"/><path d="M766.95,11642.16c6.79,6.79,15.28-1.7,21.78-8.2s11-11,7.35-19.23-15.56-20.08-15.56-26.87c-6.79,6.79,5.09,18.67,9.33,26.3s0.85,11-4.24,16.12-11.88,11.88-18.67,5.09" transform="translate(-620 -11532)" style="fill:#ece5e6"/><path d="M738.1,11633.68c0,6.79,3.39,10.18,6.22,11.88a16,16,0,0,0,6.51,2,2.43,2.43,0,0,1,2.26,2.26,11.8,11.8,0,0,1-.28,5.38c-0.57,1.7-1.7,2.83.56,6.22s7.92,9.05,14.14,15.27,13,13,13,19.8c3.39-10.18-3.39-17-10.18-23.76s-13.58-13.58-10.18-17c-3.39,3.39,3.39,10.18,10.18,17s13.58,13.58,13.58,20.37c3.39-10.18-3.39-17-8.48-22.06s-8.49-8.48-9.33-11,0.85-4.24-2.55-7.64c3.39,3.39,1.7,5.09,2.55,7.64s4.24,5.94,9.33,11,11.88,11.88,11.88,18.67c3.39-10.18-3.39-17-8.48-22.06s-8.49-8.48-9.33-11,0.85-4.24-2.55-7.63c3.39,3.39,5.09,1.7,7.64,2.54s5.94,4.24,11,9.33,11.88,11.88,22.06,8.48c-6.79,0-13.58-6.79-18.66-11.88s-8.49-8.48-11-9.33-4.25.85-7.64-2.54c3.39,3.39,5.09,1.7,7.64,2.54s5.94,4.24,11,9.33,11.88,11.88,22.06,8.48c-6.79,0-13.58-6.79-20.36-13.58s-13.58-13.58-17-10.18c3.39-3.39,10.18,3.39,17,10.18s13.58,13.58,23.76,10.18c-6.79,0-13.58-6.79-19.8-13s-11.88-11.88-15.27-14.14-4.53-1.13-6.22-.56a11.77,11.77,0,0,1-5.37.28,2.44,2.44,0,0,1-2.27-2.26,15.88,15.88,0,0,0-2-6.51c-1.69-2.83-5.09-6.22-11.88-6.22" transform="translate(-620 -11532)" style="fill:#f2f2f4"/><path d="M780.21,11698.42v-2c0-6.66-6.86-13.52-12.91-19.57s-11.9-11.89-14.18-15.32c-2-3-1.43-4.4-.88-5.76,0.1-.24.2-0.49,0.29-0.74a11.51,11.51,0,0,0,.27-5.21,2.12,2.12,0,0,0-2-2c-0.28-.06-0.59-0.1-0.93-0.15a13.91,13.91,0,0,1-5.68-1.87c-2.91-1.75-6.37-5.27-6.37-12.15h0.64c0,6.58,3.3,9.95,6.06,11.61a13.38,13.38,0,0,0,5.44,1.79c0.36,0.05.68,0.1,1,.15a2.73,2.73,0,0,1,2.51,2.51,12,12,0,0,1-.29,5.54c-0.09.27-.2,0.53-0.3,0.78-0.53,1.31-1,2.44.82,5.16,2.25,3.37,8,9.13,14.11,15.22,5.62,5.62,11.92,11.93,13,18.26,2.11-9-4-15.22-10.53-21.72h0a89,89,0,0,1-8.94-9.8c-1.49-2.09-2.23-3.82-2.23-5.22a3.26,3.26,0,0,1,1-2.4l0.45,0.45a2.67,2.67,0,0,0-.82,2c0,1.25.7,2.84,2.13,4.83a88.87,88.87,0,0,0,8.87,9.72l0,0,0,0c6.13,6.14,12.45,12.46,13.49,18.78,2.1-9.08-4.18-15.37-8.85-20l0,0c-5.14-5.14-8.54-8.54-9.41-11.15a7.14,7.14,0,0,1-.3-2.4v-0.11c0-1.46,0-2.86-2.17-5l0.45-.45c2.32,2.33,2.35,3.92,2.35,5.45v0.11a6.55,6.55,0,0,0,.27,2.2c0.82,2.47,4.18,5.83,9.26,10.91l0,0h0c4.62,4.62,10.78,10.79,11.81,17.09,2.09-9.09-4.21-15.39-8.88-20.06-5.14-5.14-8.54-8.54-9.41-11.15a7.32,7.32,0,0,1-.3-2.46c0-1.48,0-2.88-2.17-5.06l0.45-.45c3.29,3.29,4.87,1.59,7.51,2.47s6,4.27,11.15,9.41c4.67,4.67,11,11,20.06,8.88-6.3-1-12.46-7.17-17.08-11.79h0l0,0c-5.08-5.08-8.43-8.43-10.91-9.26s-4.26.88-7.76-2.62l0.45-.45c3.29,3.29,4.87,1.59,7.51,2.47s6,4.27,11.15,9.41c4.67,4.67,11,11,20.07,8.88-6.32-1-12.64-7.35-18.78-13.48h0l0,0a89.14,89.14,0,0,0-9.72-8.87c-3.23-2.31-5.4-2.72-6.8-1.31l-0.45-.45c1.65-1.65,4.15-1.24,7.62,1.24a89.69,89.69,0,0,1,9.8,8.94h0l0,0.05h0c6.5,6.49,12.65,12.6,21.69,10.5-6.33-1-12.63-7.33-18.25-13-6.1-6.1-11.86-11.86-15.23-14.11-2.72-1.81-3.85-1.36-5.16-.83-0.26.1-.51,0.21-0.78,0.3a12.05,12.05,0,0,1-5.54.29,2.74,2.74,0,0,1-2.51-2.51c-0.06-.29-0.1-0.61-0.16-1a13.29,13.29,0,0,0-1.79-5.44c-1.66-2.77-5-6.07-11.6-6.07v-0.63c6.88,0,10.41,3.47,12.15,6.38a13.94,13.94,0,0,1,1.87,5.68c0,0.34.09,0.65,0.15,0.93a2.13,2.13,0,0,0,2,2,11.39,11.39,0,0,0,5.21-.27c0.26-.09.5-0.19,0.74-0.28,1.35-.55,2.74-1.12,5.75.88,3.42,2.28,9.2,8.06,15.32,14.18s12.92,12.92,19.58,12.92h2l-1.86.62a15.81,15.81,0,0,1-13.17-1.18c3.24,2.37,6.48,4,9.67,4h2l-1.86.62a16,16,0,0,1-12.95-1c3,2.17,6.26,3.74,9.45,3.74h2l-1.86.62c-10.38,3.46-17.32-3.49-22.39-8.56s-8.43-8.43-10.91-9.26c-1.91-.64-3.43.25-5.68-1a6.33,6.33,0,0,1,.72,3.43,6.64,6.64,0,0,0,.27,2.26c0.82,2.47,4.18,5.83,9.26,10.91s12,12,8.56,22.39l-0.62,1.86v-2c0-3.19-1.56-6.41-3.73-9.45a16,16,0,0,1,1,12.95l-0.62,1.86v-2c0-3.19-1.58-6.43-3.95-9.67a15.8,15.8,0,0,1,1.17,13.16Z" transform="translate(-620 -11532)" style="fill:#e0d3d7"/><path d="M681.52,11586.42c0,15.27,15.27,34.37,24.82,45.82s13.37,15.27,15.91,16.54,3.82,0,8.27-3.18,12.09-8.27,18.46-14.64,11.46-14,14.64-18.46,4.45-5.73,3.18-8.27-5.09-6.36-16.54-15.91-30.55-24.82-45.82-24.82" transform="translate(-620 -11532)" style="fill:url(#radial-gradient)"/><path d="M712.07,11609.33c-22.91-7.64-28.64-9.54-32.14-12.41s-4.77-6.68-6-13-2.54-15.27-3.18-21-0.64-8.27.64-9.55,3.82-1.27,9.55-.63,14.63,1.91,21,3.18,10.18,2.55,13,6,4.78,9.23,12.41,32.14" transform="translate(-620 -11532)" style="fill:url(#linear-gradient)"/></svg>