<svg id="圖層_1" data-name="圖層 1" xmlns="http://www.w3.org/2000/svg" viewBox="0 0 240 180"><title>2</title><rect width="240" height="180" style="fill:none"/><path d="M670,370c4-20,12-28,26-32s34-4,48,0,22,12,26,32,4,52,0,72-12,28-26,32-34,4-48,0-22-12-26-32S666,390,670,370Z" transform="translate(-600 -316)" style="fill:#eaceca"/><path d="M708,413.5c6-.5,12,0.5,18-1.5s12-7,14-12.5,0-11.5,2-15.5,8-6,12-8,6-4,6-8-2-10-8-15-16-9-26-10a63.59,63.59,0,0,0-28,4c-8,3-14,7-18,18s-6,29-6,44,2,27,3.5,32,2.5,3,4.5-2,5-13,9.5-18S702,414,708,413.5Z" transform="translate(-600 -316)" style="fill:#ba4147"/><path d="M719,426c-1,4-3,10-2,15s5,9,6,13.5a12.86,12.86,0,0,1-4,12c-3,2.5-7,2.5-13.5,1.5s-15.5-3-18.5-9.5,0-17.5,4.5-25A31.9,31.9,0,0,1,707,420c5-2,9-2,11-1S720,422,719,426Z" transform="translate(-600 -316)" style="fill:#ba4147"/><path d="M756,384c-4,2-8,6-9,10s1,8-3.5,13.5-15.5,12.5-18,21,3.5,18.5,5,25.5-1.5,11,1,12.5,10.5,0.5,16.5-4S758,450,760,438s2-28,3-38,3-14,2-16S760,382,756,384Z" transform="translate(-600 -316)" style="fill:#ba4147"/></svg>