<svg id="圖層_1" data-name="圖層 1" xmlns="http://www.w3.org/2000/svg" xmlns:xlink="http://www.w3.org/1999/xlink" viewBox="0 0 239.99 180"><defs><clipPath id="clip-path" transform="translate(-600.01 -316)"><path d="M667,378c4-17,12-29,27-35s37-6,52,0,23,18,27,35,4,39,0,56-12,29-27,35-37,6-52,0-23-18-27-35S663,395,667,378Z" style="fill:none"/></clipPath></defs><title>3</title><rect width="239.99" height="180" style="fill:none"/><g style="clip-path:url(#clip-path)"><path d="M667,378c4-17,12-29,27-35s37-6,52,0,23,18,27,35,4,39,0,56-12,29-27,35-37,6-52,0-23-18-27-35S663,395,667,378Z" transform="translate(-600.01 -316)" style="fill:#dd4f45"/><path d="M779.75,410.94c-10.79-5-23.37-5.9-33.28-1.35a28.39,28.39,0,0,0-16.67,27.25c0.51,12.63,8.78,27.82,33.47,24.78l0.73,6a53.16,53.16,0,0,1-9.59.36,39,39,0,0,1-8.34-1.35,31.8,31.8,0,0,1-7.07-2.93,28.79,28.79,0,0,1-5.7-4.22,30.17,30.17,0,0,1-7.13-10.79,35.34,35.34,0,0,1-2.38-11.57,35.84,35.84,0,0,1,1.2-10.76,34.13,34.13,0,0,1,4.17-9.37,34.55,34.55,0,0,1,6.51-7.5,35.21,35.21,0,0,1,8.28-5.31,37.77,37.77,0,0,1,9.34-2.87,44.4,44.4,0,0,1,9.78-.56,52.4,52.4,0,0,1,19.17,4.78Z" transform="translate(-600.01 -316)" style="fill:#ffcab1"/><path d="M654,436c24-12,30,0,39,6s21,6,28.57,3.73,10.71-6.79,16.71-11.29,14.86-9,25.28-7.46S786,436,786,454h-6a26.82,26.82,0,0,0-1.06-7.79,18.78,18.78,0,0,0-2.67-5.52,18.32,18.32,0,0,0-6-5.26,22.17,22.17,0,0,0-9.85-2.71,24.94,24.94,0,0,0-9,1.37,33.25,33.25,0,0,0-7.71,3.92c-1.1.74-2.16,1.52-3.19,2.35-1.28,1-2.51,2.15-3.76,3.23-1.05.91-2.12,1.81-3.24,2.65a35.32,35.32,0,0,1-3.92,2.6,30.57,30.57,0,0,1-4.79,2.18,35.58,35.58,0,0,1-5.7,1.48,44.3,44.3,0,0,1-13.32.3,37.6,37.6,0,0,1-14.1-4.57,55.76,55.76,0,0,1-7.68-5.63,37.94,37.94,0,0,0-4.81-3.63,14.77,14.77,0,0,0-4.8-1.87,14.33,14.33,0,0,0-3-.21,21.74,21.74,0,0,0-3.82.46,34.77,34.77,0,0,0-4.86,1.41,57,57,0,0,0-6,2.63Z" transform="translate(-600.01 -316)" style="fill:#ffcab1"/><path d="M664.3,415.15A130.76,130.76,0,0,1,667,378c4-17,12-29,27-35,11.07-4.43,26-5.59,39-3.48C688.32,342.61,665.77,371,664.3,415.15Z" transform="translate(-600.01 -316)" style="fill:#ffcab1"/></g></svg>