<?xml version="1.0" encoding="utf-8"?>
<!-- Generator: Adobe Illustrator 19.2.1, SVG Export Plug-In . SVG Version: 6.00 Build 0)  -->
<svg version="1.1" id="圖層_1" xmlns="http://www.w3.org/2000/svg" xmlns:xlink="http://www.w3.org/1999/xlink" x="0px" y="0px"
	 viewBox="0 0 240 180" style="enable-background:new 0 0 240 180;" xml:space="preserve">
<style type="text/css">
	.st0{fill:none;}
	.st1{clip-path:url(#SVGID_2_);}
	.st2{fill:#464043;}
	.st3{fill:#393A3C;}
	.st4{fill:#3B3433;}
	.st5{fill:#505051;}
</style>
<title>米血</title>
<rect class="st0" width="240" height="180"/>
<g>
	<defs>
		<rect id="SVGID_1_" x="72" y="18" width="96" height="144"/>
	</defs>
	<clipPath id="SVGID_2_">
		<use xlink:href="#SVGID_1_"  style="overflow:visible;"/>
	</clipPath>
	<g class="st1">
		<polygon class="st2" points="164.9,174 168.7,171.8 166.8,164.1 161.2,158.6 157.4,160.8 159.3,168.5 		"/>
		<polygon class="st2" points="153.9,21.9 157.7,19.6 155.8,11.9 150.2,6.5 146.4,8.7 148.3,16.4 		"/>
		<polygon class="st2" points="148.3,51.7 152,49.5 150.2,41.8 144.5,36.3 140.8,38.5 142.6,46.2 		"/>
		<polygon class="st2" points="120.1,42 123.9,39.8 122,32.1 116.4,26.6 112.6,28.8 114.5,36.5 		"/>
		<polygon class="st2" points="131.4,35.3 135.1,33.1 133.3,25.4 127.6,19.9 123.9,22.1 125.8,29.8 		"/>
		<polygon class="st2" points="150.2,41.8 153.9,39.5 152.1,31.8 146.4,26.4 142.7,28.6 144.5,36.3 		"/>
		<polygon class="st2" points="168.9,48.2 172.7,46 170.8,38.3 165.2,32.8 161.4,35 163.3,42.8 		"/>
		<polygon class="st2" points="103.2,25.6 107,23.4 105.1,15.7 99.5,10.2 95.7,12.4 97.6,20.1 		"/>
		<polygon class="st2" points="84.4,19.1 88.2,16.9 86.3,9.2 80.7,3.7 77,6 78.8,13.7 		"/>
		<polygon class="st2" points="153.9,74.8 157.6,72.6 155.7,64.9 150.1,59.4 146.4,61.7 148.2,69.4 		"/>
		<polygon class="st2" points="137,58.4 140.7,56.2 138.9,48.5 133.2,43 129.5,45.3 131.4,53 		"/>
		<polygon class="st2" points="165.1,68.1 168.9,65.9 167,58.2 161.4,52.7 157.6,54.9 159.5,62.6 		"/>
		<polygon class="st2" points="118.2,52 122,49.7 120.1,42 114.5,36.5 110.7,38.8 112.6,46.5 		"/>
		<polygon class="st2" points="108.8,48.7 112.6,46.5 110.7,38.8 105.1,33.3 101.3,35.6 103.2,43.3 		"/>
		<polygon class="st2" points="90,42.3 93.8,40 91.9,32.3 86.3,26.9 82.6,29.1 84.4,36.8 		"/>
		<polygon class="st2" points="71.3,35.8 75,33.6 73.2,25.9 67.5,20.4 63.8,22.6 65.6,30.3 		"/>
		<polygon class="st2" points="131.2,141.2 134.9,139 133.1,131.3 127.5,125.8 123.7,128 125.6,135.7 		"/>
		<polygon class="st2" points="168.8,154.1 172.5,151.9 170.6,144.2 165,138.7 161.3,140.9 163.1,148.6 		"/>
		<polygon class="st2" points="148.1,157.6 151.8,155.4 150,147.7 144.3,142.2 140.6,144.4 142.4,152.1 		"/>
		<polygon class="st2" points="110.5,144.7 114.3,142.4 112.4,134.7 106.8,129.3 103,131.5 104.9,139.2 		"/>
		<polygon class="st2" points="91.8,138.2 95.5,136 93.6,128.3 88,122.8 84.3,125.1 86.1,132.8 		"/>
		<polygon class="st2" points="135,121.3 138.8,119.1 136.9,111.4 131.3,105.9 127.5,108.1 129.4,115.8 		"/>
		<polygon class="st2" points="153.8,127.8 157.5,125.5 155.6,117.8 150,112.4 146.3,114.6 148.1,122.3 		"/>
		<polygon class="st2" points="151.9,137.7 155.6,135.5 153.8,127.8 148.1,122.3 144.4,124.5 146.2,132.3 		"/>
		<polygon class="st2" points="114.3,124.8 118.1,122.6 116.2,114.8 110.6,109.4 106.8,111.6 108.7,119.3 		"/>
		<polygon class="st2" points="95.6,118.3 99.3,116.1 97.4,108.4 91.8,102.9 88.1,105.2 89.9,112.9 		"/>
		<polygon class="st2" points="76.8,111.9 80.5,109.6 78.7,101.9 73,96.5 69.3,98.7 71.1,106.4 		"/>
		<polygon class="st2" points="110.6,91.7 114.4,89.5 112.5,81.8 106.9,76.3 103.1,78.6 105,86.3 		"/>
		<polygon class="st2" points="129.4,98.2 133.1,96 131.3,88.3 125.7,82.8 121.9,85 123.8,92.7 		"/>
		<polygon class="st2" points="157.6,107.9 161.3,105.7 159.4,97.9 153.8,92.5 150.1,94.7 151.9,102.4 		"/>
		<polygon class="st2" points="148.2,104.7 151.9,102.4 150.1,94.7 144.4,89.2 140.7,91.5 142.5,99.2 		"/>
		<polygon class="st2" points="127.5,108.1 131.3,105.9 129.4,98.2 123.8,92.7 120,95 121.9,102.7 		"/>
		<polygon class="st2" points="99.3,98.4 103.1,96.2 101.2,88.5 95.6,83 91.8,85.3 93.7,93 		"/>
		<polygon class="st2" points="71.2,88.8 74.9,86.5 73.1,78.8 67.4,73.3 63.7,75.6 65.6,83.3 		"/>
		<polygon class="st2" points="84.4,72.1 88.1,69.9 86.3,62.2 80.6,56.7 76.9,58.9 78.7,66.6 		"/>
		<polygon class="st2" points="142.6,81.5 146.3,79.3 144.5,71.6 138.8,66.1 135.1,68.4 136.9,76.1 		"/>
		<polygon class="st2" points="170.7,91.2 174.5,89 172.6,81.3 167,75.8 163.2,78.1 165.1,85.8 		"/>
		<polygon class="st2" points="123.8,75.1 127.6,72.8 125.7,65.1 120.1,59.7 116.3,61.9 118.2,69.6 		"/>
		<polygon class="st2" points="105,68.6 108.8,66.4 106.9,58.7 101.3,53.2 97.5,55.4 99.4,63.2 		"/>
		<polygon class="st2" points="86.3,62.2 90,59.9 88.2,52.2 82.5,46.8 78.8,49 80.6,56.7 		"/>
		<polygon class="st2" points="76.7,164.8 80.4,162.6 78.6,154.9 72.9,149.4 69.2,151.6 71.1,159.4 		"/>
		<polygon class="st2" points="97.3,161.3 101.1,159.1 99.2,151.4 93.6,145.9 89.8,148.2 91.7,155.9 		"/>
		<polygon class="st2" points="136.8,164.3 140.6,162.1 138.7,154.4 133.1,148.9 129.3,151.1 131.2,158.9 		"/>
		<polygon class="st2" points="118,157.9 121.8,155.6 119.9,147.9 114.3,142.4 110.5,144.7 112.4,152.4 		"/>
		<polygon class="st2" points="80.5,144.9 84.2,142.7 82.4,135 76.7,129.5 73,131.8 74.8,139.5 		"/>
		<polygon class="st2" points="108.7,101.7 112.5,99.4 110.6,91.7 105,86.3 101.2,88.5 103.1,96.2 		"/>
		<polygon class="st3" points="170.8,38.3 174.6,36 172.7,28.3 167.1,22.9 163.3,25.1 165.2,32.8 		"/>
		<polygon class="st3" points="152.1,31.8 155.8,29.6 153.9,21.9 148.3,16.4 144.6,18.6 146.4,26.4 		"/>
		<polygon class="st3" points="133.3,25.4 137,23.1 135.2,15.4 129.6,9.9 125.8,12.2 127.6,19.9 		"/>
		<polygon class="st3" points="114.5,18.9 118.3,16.7 116.4,9 110.8,3.5 107,5.7 108.9,13.4 		"/>
		<polygon class="st3" points="163.3,25.1 167.1,22.9 165.2,15.2 159.6,9.7 155.8,11.9 157.7,19.6 		"/>
		<polygon class="st3" points="172.7,28.3 176.5,26.1 174.6,18.4 169,12.9 165.2,15.2 167.1,22.9 		"/>
		<polygon class="st3" points="73.2,25.9 76.9,23.6 75.1,15.9 69.4,10.5 65.7,12.7 67.5,20.4 		"/>
		<polygon class="st3" points="91.9,32.3 95.7,30.1 93.8,22.4 88.2,16.9 84.4,19.1 86.3,26.9 		"/>
		<polygon class="st3" points="110.7,38.8 114.5,36.5 112.6,28.8 107,23.4 103.2,25.6 105.1,33.3 		"/>
		<polygon class="st3" points="157.6,54.9 161.4,52.7 159.5,45 153.9,39.5 150.2,41.8 152,49.5 		"/>
		<polygon class="st3" points="129.5,45.3 133.2,43 131.4,35.3 125.8,29.8 122,32.1 123.9,39.8 		"/>
		<polygon class="st3" points="88.2,52.2 91.9,50 90,42.3 84.4,36.8 80.7,39 82.5,46.8 		"/>
		<polygon class="st3" points="106.9,58.7 110.7,56.4 108.8,48.7 103.2,43.3 99.4,45.5 101.3,53.2 		"/>
		<polygon class="st3" points="172.6,81.3 176.4,79.1 174.5,71.3 168.9,65.9 165.1,68.1 167,75.8 		"/>
		<polygon class="st3" points="174.5,71.3 178.3,69.1 176.4,61.4 170.8,55.9 167,58.2 168.9,65.9 		"/>
		<polygon class="st3" points="125.7,65.1 129.5,62.9 127.6,55.2 122,49.7 118.2,52 120.1,59.7 		"/>
		<polygon class="st3" points="146.4,61.7 150.1,59.4 148.3,51.7 142.6,46.2 138.9,48.5 140.7,56.2 		"/>
		<polygon class="st3" points="84.3,125.1 88,122.8 86.2,115.1 80.5,109.6 76.8,111.9 78.6,119.6 		"/>
		<polygon class="st3" points="140.6,144.4 144.3,142.2 142.5,134.5 136.9,129 133.1,131.3 134.9,139 		"/>
		<polygon class="st3" points="157.4,160.8 161.2,158.6 159.4,150.9 153.7,145.4 150,147.7 151.8,155.4 		"/>
		<polygon class="st3" points="119.9,147.9 123.7,145.7 121.8,138 116.2,132.5 112.4,134.7 114.3,142.4 		"/>
		<polygon class="st3" points="101.1,141.4 104.9,139.2 103,131.5 97.4,126 93.6,128.3 95.5,136 		"/>
		<polygon class="st3" points="73,131.8 76.7,129.5 74.9,121.8 69.3,116.3 65.5,118.6 67.3,126.3 		"/>
		<polygon class="st3" points="78.7,101.9 82.4,99.7 80.6,92 74.9,86.5 71.2,88.8 73,96.5 		"/>
		<polygon class="st3" points="172.5,134.2 176.3,132 174.4,124.3 168.8,118.8 165,121.1 166.9,128.8 		"/>
		<polygon class="st3" points="163.1,131 166.9,128.8 165,121.1 159.4,115.6 155.6,117.8 157.5,125.5 		"/>
		<polygon class="st3" points="144.4,124.5 148.1,122.3 146.3,114.6 140.6,109.1 136.9,111.4 138.8,119.1 		"/>
		<polygon class="st3" points="123.7,128 127.5,125.8 125.6,118.1 120,112.6 116.2,114.8 118.1,122.6 		"/>
		<polygon class="st3" points="104.9,121.6 108.7,119.3 106.8,111.6 101.2,106.2 97.4,108.4 99.3,116.1 		"/>
		<polygon class="st3" points="73.1,78.8 76.8,76.6 75,68.9 69.3,63.4 65.6,65.6 67.4,73.3 		"/>
		<polygon class="st3" points="101.2,88.5 105,86.3 103.1,78.6 97.5,73.1 93.8,75.3 95.6,83 		"/>
		<polygon class="st3" points="166.9,111.1 170.7,108.9 168.8,101.2 163.2,95.7 159.4,97.9 161.3,105.7 		"/>
		<polygon class="st3" points="138.8,101.4 142.5,99.2 140.7,91.5 135,86 131.3,88.3 133.1,96 		"/>
		<polygon class="st3" points="118.1,104.9 121.9,102.7 120,95 114.4,89.5 110.6,91.7 112.5,99.4 		"/>
		<polygon class="st3" points="89.9,95.2 93.7,93 91.8,85.3 86.2,79.8 82.4,82 84.3,89.8 		"/>
		<polygon class="st3" points="103.1,78.6 106.9,76.3 105,68.6 99.4,63.2 95.6,65.4 97.5,73.1 		"/>
		<polygon class="st3" points="121.9,85 125.7,82.8 123.8,75.1 118.2,69.6 114.4,71.8 116.3,79.6 		"/>
		<polygon class="st3" points="168.8,101.2 172.6,98.9 170.7,91.2 165.1,85.8 161.4,88 163.2,95.7 		"/>
		<polygon class="st3" points="133.2,78.3 136.9,76.1 135.1,68.4 129.5,62.9 125.7,65.1 127.6,72.8 		"/>
		<polygon class="st3" points="152,84.8 155.7,82.5 153.9,74.8 148.2,69.4 144.5,71.6 146.3,79.3 		"/>
		<polygon class="st3" points="95.4,171.3 99.2,169 97.3,161.3 91.7,155.9 88,158.1 89.8,165.8 		"/>
		<polygon class="st3" points="78.6,154.9 82.3,152.6 80.5,144.9 74.8,139.5 71.1,141.7 72.9,149.4 		"/>
		<polygon class="st3" points="106.7,164.6 110.5,162.3 108.6,154.6 103,149.1 99.2,151.4 101.1,159.1 		"/>
		<polygon class="st3" points="125.5,171 129.3,168.8 127.4,161.1 121.8,155.6 118,157.9 119.9,165.6 		"/>
		<polygon class="st3" points="146.2,167.5 149.9,165.3 148.1,157.6 142.4,152.1 138.7,154.4 140.6,162.1 		"/>
		<polygon class="st3" points="71.1,141.7 74.8,139.5 73,131.8 67.3,126.3 63.6,128.5 65.5,136.2 		"/>
		<polygon class="st4" points="142.7,28.6 146.4,26.4 144.6,18.6 138.9,13.2 135.2,15.4 137,23.1 		"/>
		<polygon class="st4" points="82.6,29.1 86.3,26.9 84.4,19.1 78.8,13.7 75.1,15.9 76.9,23.6 		"/>
		<polygon class="st4" points="101.3,35.6 105.1,33.3 103.2,25.6 97.6,20.1 93.8,22.4 95.7,30.1 		"/>
		<polygon class="st4" points="138.9,48.5 142.6,46.2 140.8,38.5 135.1,33.1 131.4,35.3 133.2,43 		"/>
		<polygon class="st4" points="122,32.1 125.8,29.8 123.9,22.1 118.3,16.7 114.5,18.9 116.4,26.6 		"/>
		<polygon class="st4" points="159.5,45 163.3,42.8 161.4,35 155.8,29.6 152.1,31.8 153.9,39.5 		"/>
		<polygon class="st4" points="78.8,49 82.5,46.8 80.7,39 75,33.6 71.3,35.8 73.1,43.5 		"/>
		<polygon class="st4" points="97.5,55.4 101.3,53.2 99.4,45.5 93.8,40 90,42.3 91.9,50 		"/>
		<polygon class="st4" points="144.5,71.6 148.2,69.4 146.4,61.7 140.7,56.2 137,58.4 138.8,66.1 		"/>
		<polygon class="st4" points="127.6,55.2 131.4,53 129.5,45.3 123.9,39.8 120.1,42 122,49.7 		"/>
		<polygon class="st4" points="155.7,64.9 159.5,62.6 157.6,54.9 152,49.5 148.3,51.7 150.1,59.4 		"/>
		<polygon class="st4" points="74.9,121.8 78.6,119.6 76.8,111.9 71.1,106.4 67.4,108.6 69.3,116.3 		"/>
		<polygon class="st4" points="93.6,128.3 97.4,126 95.6,118.3 89.9,112.9 86.2,115.1 88,122.8 		"/>
		<polygon class="st4" points="112.4,134.7 116.2,132.5 114.3,124.8 108.7,119.3 104.9,121.6 106.8,129.3 		"/>
		<polygon class="st4" points="150,147.7 153.7,145.4 151.9,137.7 146.2,132.3 142.5,134.5 144.3,142.2 		"/>
		<polygon class="st4" points="166.8,164.1 170.6,161.8 168.8,154.1 163.1,148.6 159.4,150.9 161.2,158.6 		"/>
		<polygon class="st4" points="129.3,151.1 133.1,148.9 131.2,141.2 125.6,135.7 121.8,138 123.7,145.7 		"/>
		<polygon class="st4" points="88.1,105.2 91.8,102.9 89.9,95.2 84.3,89.8 80.6,92 82.4,99.7 		"/>
		<polygon class="st4" points="106.8,111.6 110.6,109.4 108.7,101.7 103.1,96.2 99.3,98.4 101.2,106.2 		"/>
		<polygon class="st4" points="125.6,118.1 129.4,115.8 127.5,108.1 121.9,102.7 118.1,104.9 120,112.6 		"/>
		<polygon class="st4" points="161.3,140.9 165,138.7 163.1,131 157.5,125.5 153.8,127.8 155.6,135.5 		"/>
		<polygon class="st4" points="133.1,131.3 136.9,129 135,121.3 129.4,115.8 125.6,118.1 127.5,125.8 		"/>
		<polygon class="st4" points="82.4,82 86.2,79.8 84.4,72.1 78.7,66.6 75,68.9 76.8,76.6 		"/>
		<polygon class="st4" points="120,95 123.8,92.7 121.9,85 116.3,79.6 112.5,81.8 114.4,89.5 		"/>
		<polygon class="st4" points="146.3,114.6 150,112.4 148.2,104.7 142.5,99.2 138.8,101.4 140.6,109.1 		"/>
		<polygon class="st4" points="165,121.1 168.8,118.8 166.9,111.1 161.3,105.7 157.6,107.9 159.4,115.6 		"/>
		<polygon class="st4" points="75,68.9 78.7,66.6 76.9,58.9 71.2,53.5 67.5,55.7 69.3,63.4 		"/>
		<polygon class="st4" points="93.8,75.3 97.5,73.1 95.6,65.4 90,59.9 86.3,62.2 88.1,69.9 		"/>
		<polygon class="st4" points="159.4,97.9 163.2,95.7 161.4,88 155.7,82.5 152,84.8 153.8,92.5 		"/>
		<polygon class="st4" points="140.7,91.5 144.4,89.2 142.6,81.5 136.9,76.1 133.2,78.3 135,86 		"/>
		<polygon class="st4" points="161.4,88 165.1,85.8 163.2,78.1 157.6,72.6 153.9,74.8 155.7,82.5 		"/>
		<polygon class="st4" points="114.4,71.8 118.2,69.6 116.3,61.9 110.7,56.4 106.9,58.7 108.8,66.4 		"/>
		<polygon class="st4" points="86.1,168.1 89.8,165.8 88,158.1 82.3,152.6 78.6,154.9 80.4,162.6 		"/>
		<polygon class="st4" points="134.9,174.3 138.7,172 136.8,164.3 131.2,158.9 127.4,161.1 129.3,168.8 		"/>
		<polygon class="st4" points="108.6,154.6 112.4,152.4 110.5,144.7 104.9,139.2 101.1,141.4 103,149.1 		"/>
		<polygon class="st4" points="89.8,148.2 93.6,145.9 91.8,138.2 86.1,132.8 82.4,135 84.2,142.7 		"/>
		<polygon class="st4" points="116.1,167.8 119.9,165.6 118,157.9 112.4,152.4 108.6,154.6 110.5,162.3 		"/>
		<polygon class="st5" points="69.4,45.8 73.1,43.5 71.3,35.8 65.6,30.3 61.9,32.6 63.7,40.3 		"/>
		<polygon class="st5" points="69.3,98.7 73,96.5 71.2,88.8 65.6,83.3 61.8,85.5 63.7,93.2 		"/>
		<polygon class="st5" points="69.2,151.6 72.9,149.4 71.1,141.7 65.5,136.2 61.7,138.5 63.6,146.2 		"/>
		<polygon class="st5" points="161.4,35 165.2,32.8 163.3,25.1 157.7,19.6 153.9,21.9 155.8,29.6 		"/>
		<polygon class="st5" points="123.9,22.1 127.6,19.9 125.8,12.2 120.2,6.7 116.4,9 118.3,16.7 		"/>
		<polygon class="st5" points="167,58.2 170.8,55.9 168.9,48.2 163.3,42.8 159.5,45 161.4,52.7 		"/>
		<polygon class="st5" points="140.8,38.5 144.5,36.3 142.7,28.6 137,23.1 133.3,25.4 135.1,33.1 		"/>
		<polygon class="st5" points="144.6,18.6 148.3,16.4 146.4,8.7 140.8,3.2 137.1,5.5 138.9,13.2 		"/>
		<polygon class="st5" points="112.6,28.8 116.4,26.6 114.5,18.9 108.9,13.4 105.1,15.7 107,23.4 		"/>
		<polygon class="st5" points="93.8,22.4 97.6,20.1 95.7,12.4 90.1,7 86.3,9.2 88.2,16.9 		"/>
		<polygon class="st5" points="116.3,61.9 120.1,59.7 118.2,52 112.6,46.5 108.8,48.7 110.7,56.4 		"/>
		<polygon class="st5" points="163.2,78.1 167,75.8 165.1,68.1 159.5,62.6 155.7,64.9 157.6,72.6 		"/>
		<polygon class="st5" points="135.1,68.4 138.8,66.1 137,58.4 131.4,53 127.6,55.2 129.5,62.9 		"/>
		<polygon class="st5" points="99.4,45.5 103.2,43.3 101.3,35.6 95.7,30.1 91.9,32.3 93.8,40 		"/>
		<polygon class="st5" points="80.7,39 84.4,36.8 82.6,29.1 76.9,23.6 73.2,25.9 75,33.6 		"/>
		<polygon class="st5" points="103,131.5 106.8,129.3 104.9,121.6 99.3,116.1 95.6,118.3 97.4,126 		"/>
		<polygon class="st5" points="121.8,138 125.6,135.7 123.7,128 118.1,122.6 114.3,124.8 116.2,132.5 		"/>
		<polygon class="st5" points="159.4,150.9 163.1,148.6 161.3,140.9 155.6,135.5 151.9,137.7 153.7,145.4 		"/>
		<polygon class="st5" points="138.7,154.4 142.4,152.1 140.6,144.4 134.9,139 131.2,141.2 133.1,148.9 		"/>
		<polygon class="st5" points="82.4,135 86.1,132.8 84.3,125.1 78.6,119.6 74.9,121.8 76.7,129.5 		"/>
		<polygon class="st5" points="97.4,108.4 101.2,106.2 99.3,98.4 93.7,93 89.9,95.2 91.8,102.9 		"/>
		<polygon class="st5" points="116.2,114.8 120,112.6 118.1,104.9 112.5,99.4 108.7,101.7 110.6,109.4 		"/>
		<polygon class="st5" points="142.5,134.5 146.2,132.3 144.4,124.5 138.8,119.1 135,121.3 136.9,129 		"/>
		<polygon class="st5" points="170.6,144.2 174.4,141.9 172.5,134.2 166.9,128.8 163.1,131 165,138.7 		"/>
		<polygon class="st5" points="86.2,115.1 89.9,112.9 88.1,105.2 82.4,99.7 78.7,101.9 80.5,109.6 		"/>
		<polygon class="st5" points="91.8,85.3 95.6,83 93.8,75.3 88.1,69.9 84.4,72.1 86.2,79.8 		"/>
		<polygon class="st5" points="136.9,111.4 140.6,109.1 138.8,101.4 133.1,96 129.4,98.2 131.3,105.9 		"/>
		<polygon class="st5" points="155.6,117.8 159.4,115.6 157.6,107.9 151.9,102.4 148.2,104.7 150,112.4 		"/>
		<polygon class="st5" points="80.6,92 84.3,89.8 82.4,82 76.8,76.6 73.1,78.8 74.9,86.5 		"/>
		<polygon class="st5" points="112.5,81.8 116.3,79.6 114.4,71.8 108.8,66.4 105,68.6 106.9,76.3 		"/>
		<polygon class="st5" points="150.1,94.7 153.8,92.5 152,84.8 146.3,79.3 142.6,81.5 144.4,89.2 		"/>
		<polygon class="st5" points="131.3,88.3 135,86 133.2,78.3 127.6,72.8 123.8,75.1 125.7,82.8 		"/>
		<polygon class="st5" points="95.6,65.4 99.4,63.2 97.5,55.4 91.9,50 88.2,52.2 90,59.9 		"/>
		<polygon class="st5" points="76.9,58.9 80.6,56.7 78.8,49 73.1,43.5 69.4,45.8 71.2,53.5 		"/>
		<polygon class="st5" points="104.8,174.5 108.6,172.3 106.7,164.6 101.1,159.1 97.3,161.3 99.2,169 		"/>
		<polygon class="st5" points="88,158.1 91.7,155.9 89.8,148.2 84.2,142.7 80.5,144.9 82.3,152.6 		"/>
		<polygon class="st5" points="155.6,170.8 159.3,168.5 157.4,160.8 151.8,155.4 148.1,157.6 149.9,165.3 		"/>
		<polygon class="st5" points="127.4,161.1 131.2,158.9 129.3,151.1 123.7,145.7 119.9,147.9 121.8,155.6 		"/>
		<polygon class="st5" points="99.2,151.4 103,149.1 101.1,141.4 95.5,136 91.8,138.2 93.6,145.9 		"/>
		<polygon class="st5" points="174.4,124.3 178.2,122.1 176.3,114.3 170.7,108.9 166.9,111.1 168.8,118.8 		"/>
	</g>
</g>
</svg>
