<svg id="圖層_1" data-name="圖層 1" xmlns="http://www.w3.org/2000/svg" viewBox="0 0 239.99 180"><title>軟體類</title><rect width="239.99" height="180" style="fill:none"/><path d="M1260,11673a30.8,30.8,0,0,1,2.25,6.5c0.75,3.5.75,7.5,4.75,9.5,2.34,1.17,6,1.65,9.5,1.46a17.4,17.4,0,0,1-6.5-1.46c-4-2-4-6-5.5-9.5A24.18,24.18,0,0,0,1260,11673Z" transform="translate(-1140.01 -11532)" style="fill:#b5b5b5"/><path d="M1260,11673c3,0,6,3,7.5,6.5s1.5,7.5,6,9.5a20.67,20.67,0,0,0,6.62,1.41c-3.64.29-7.65-.18-10.12-1.41-4-2-4-6-5.5-9.5A24.18,24.18,0,0,0,1260,11673Z" transform="translate(-1140.01 -11532)" style="fill:#bfbfbf"/><path d="M1285.43,11690.37a23.33,23.33,0,0,1-6.43-1.37c-5-2-6-6-8-9.5s-5-6.5-11-6.5c3,0,6,3,7.5,6.5s1.5,7.5,6,9.5C1276.41,11690.29,1281.2,11690.75,1285.43,11690.37Z" transform="translate(-1140.01 -11532)" style="fill:#c8c7c9"/><path d="M1278,11619c6,6,6,15,5,20.5s-3,7.5-3.5,10,0.5,5.5,1.5,9a42.55,42.55,0,0,1,2,11c0,3.5-1,6.5-1,9a5.41,5.41,0,0,0,3.5,5.5c2.5,1,6.5,1,8.5,0s2-3,3-4,3-1,4,1,1,6-4,8-15,2-20,0-5-6-6.5-9.5-4.5-6.5-10.5-6.5-9,3-11,6.5-3,7.5-8,9.5-14,2-18.5,0-4.5-6-3.5-8,3-2,4-1,1,3,3,4,6,1,8.5,0a5.41,5.41,0,0,0,3.5-5.5c0-2.5-1-5.5-1-9a42.54,42.54,0,0,1,2-11c1-3.5,2-6.5,1.5-9s-2.5-4.5-3.5-10-1-14.5,5-20.5" transform="translate(-1140.01 -11532)" style="fill:#dbdcdd"/><path d="M1234.57,11690.37a23.33,23.33,0,0,0,6.43-1.37c5-2,6-6,8-9.5s5-6.5,11-6.5c-3,0-6,3-7.5,6.5s-1.5,7.5-6,9.5C1243.59,11690.29,1238.8,11690.75,1234.57,11690.37Z" transform="translate(-1140.01 -11532)" style="fill:#c8c7c9"/><path d="M1260,11673c-3,0-6,3-7.5,6.5s-1.5,7.5-6,9.5a20.74,20.74,0,0,1-6.62,1.41c3.64,0.29,7.64-.18,10.12-1.41,4-2,4-6,5.5-9.5A24.2,24.2,0,0,1,1260,11673Z" transform="translate(-1140.01 -11532)" style="fill:#bfbfbf"/><path d="M1260,11673a30.73,30.73,0,0,0-2.25,6.5c-0.75,3.5-.75,7.5-4.75,9.5-2.34,1.17-6,1.65-9.5,1.46a17.38,17.38,0,0,0,6.5-1.46c4-2,4-6,5.5-9.5A24.2,24.2,0,0,1,1260,11673Z" transform="translate(-1140.01 -11532)" style="fill:#b5b5b5"/><path d="M1243,11661c-9,0-11,0-14-2s-7-6-11-15-8-23-5-39,13-34,26-43a36,36,0,0,1,42,0c13,9,23,27,26,43s-1,30-5,39-8,13-11,15-5,2-14,2h-34Z" transform="translate(-1140.01 -11532)" style="fill:#ededed"/></svg>