<?xml version="1.0" encoding="utf-8"?>
<!-- Generator: Adobe Illustrator 19.2.1, SVG Export Plug-In . SVG Version: 6.00 Build 0)  -->
<svg version="1.1" id="圖層_1" xmlns="http://www.w3.org/2000/svg" xmlns:xlink="http://www.w3.org/1999/xlink" x="0px" y="0px"
	 viewBox="0 0 240 180" style="enable-background:new 0 0 240 180;" xml:space="preserve">
<style type="text/css">
	.st0{fill:none;}
	.st1{fill:#DDD5C3;}
	.st2{fill:#EDE9DD;}
	.st3{fill:#E5E0CA;}
</style>
<title>金針菇</title>
<rect class="st0" width="240" height="180"/>
<path class="st1" d="M78,162c0-102,0-115.4,6-133.4c-6,0-3-3-0.5-4.5c2.1-1.5,4.9-1.5,7,0c2.5,1.5,5.5,4.5-0.5,4.5
	c-6,18-6,31.4-6,133.4"/>
<path class="st2" d="M96,162c0-102,0-115.4,6-133.4c-6,0-3-3-0.5-4.5c2.1-1.5,4.9-1.5,7,0c2.5,1.5,5.5,4.5-0.5,4.5
	c-6,18-6,31.4-6,133.4"/>
<path class="st1" d="M108,162c0-102,0-115.4,6-133.4c-6,0-3-3-0.5-4.5c2.1-1.5,4.9-1.5,7,0c2.5,1.5,5.5,4.5-0.5,4.5
	c-6,18-6,31.4-6,133.4"/>
<path class="st3" d="M108,162c0-105.5,0-119.6-6-138.2c6,0,3-3.1,0.5-4.7c-2.1-1.6-4.9-1.6-7,0C93,20.7,90,23.8,96,23.8
	c6,18.6,6,32.6,6,138.2"/>
<path class="st3" d="M96,162c0-105.5,0-119.6-6-138.2c6,0,3-3.1,0.5-4.7c-2.1-1.5-4.9-1.5-7,0C81,20.7,78,23.8,84,23.8
	c6,18.6,6,32.6,6,138.2"/>
<path class="st2" d="M78,162c0-102,0-115.4-6-133.4c6,0,3-3,0.5-4.5c-2.1-1.5-4.9-1.5-7,0C63,25.6,60,28.6,66,28.6
	c6,18,6,31.4,6,133.4"/>
<path class="st2" d="M114,162c0-102,0-115.4,6-133.4c-6,0-3-3-0.5-4.5c2.1-1.5,4.9-1.5,7,0c2.5,1.5,5.5,4.5-0.5,4.5
	c-6,18-6,31.4-6,133.4"/>
<path class="st2" d="M126,162c0-102,0-115.4,6-133.4c-6,0-3-3-0.5-4.5c2.1-1.5,4.9-1.5,7,0c2.5,1.5,5.5,4.5-0.5,4.5
	c-6,18-6,31.4-6,133.4"/>
<path class="st3" d="M138,162c0-102,0-115.4,6-133.4c-6,0-3-3-0.5-4.5c2.1-1.5,4.9-1.5,7,0c2.5,1.5,5.5,4.5-0.5,4.5
	c-6,18-6,31.4-6,133.4"/>
<path class="st1" d="M138,162c0-102,0-115.4-6-133.4c6,0,3-3,0.5-4.5c-2.1-1.5-4.9-1.5-7,0c-2.5,1.5-5.5,4.5,0.5,4.5
	c6,18,6,31.4,6,133.4"/>
<path class="st3" d="M126,162c0-105.5,0-119.6-6-138.2c6,0,3-3.1,0.5-4.7c-2.1-1.6-4.9-1.6-7,0c-2.5,1.5-5.5,4.7,0.5,4.7
	c6,18.6,6,32.6,6,138.2"/>
<path class="st3" d="M156,162c0-105.5,0-119.6-6-138.2c6,0,3-3.1,0.5-4.7c-2.1-1.6-4.9-1.6-7,0c-2.5,1.5-5.5,4.7,0.5,4.7
	c6,18.6,6,32.6,6,138.2"/>
<path class="st2" d="M156,162c0-102,0-115.4,6-133.4c-6,0-3-3-0.5-4.5c2.1-1.5,4.9-1.5,7,0c2.5,1.5,5.5,4.5-0.5,4.5
	c-6,18-6,31.4-6,133.4"/>
<path class="st1" d="M162,162c0-102,0-115.4,6-133.4c-6,0-3-3-0.5-4.5c2.1-1.5,4.9-1.5,7,0c2.5,1.5,5.5,4.5-0.5,4.5
	c-6,18-6,31.4-6,133.4"/>
<path class="st2" d="M84,162c0-102,0-115.4,6-133.4c-6,0-3-3-0.5-4.5c2.1-1.5,4.9-1.5,7,0c2.5,1.5,5.5,4.5-0.5,4.5
	c-6,18-6,31.4-6,133.4"/>
<path class="st2" d="M150,162c0-105.5,0-119.6-6-138.2c6,0,3-3.1,0.5-4.7c-2.1-1.5-4.9-1.5-7,0c-2.5,1.5-5.5,4.7,0.5,4.7
	c6,18.6,6,32.6,6,138.2"/>
</svg>
