<svg id="圖層_1" data-name="圖層 1" xmlns="http://www.w3.org/2000/svg" viewBox="0 0 239.99 180"><title>雞肉</title><rect width="239.99" height="180" style="fill:none"/><path d="M675.21,472c2.15,4.31,5.87,5.51,12.6,5.86-9.6-26.22-15.61-29.51-15.61-41.72C672.2,454.06,672.21,466,675.21,472Z" transform="translate(-601 -316)" style="fill:#dba892"/><path d="M768.79,376q-1.5-27-6-36c-2.55-5.1-5.84-5.86-14.11-6,7.51,32.11,9.05,42.5,8.11,51-1.06,9.58-6.21,15.77-5.71,34,0.45,16.12,3.57,40.77-1.84,59,7.87-.14,11.06-1,13.55-6q4.5-9,6-36A524.18,524.18,0,0,0,768.79,376Z" transform="translate(-601 -316)" style="fill:#dba892"/><path d="M672.2,436v0.14h0V436Z" transform="translate(-601 -316)" style="fill:none"/><path d="M749.5,419c4.55-18.62,4.64-24.42,5.71-34,0.94-8.48-1-17.44-8.11-51-1.47,0-3.08,0-4.89,0h-45c-13,0-19,0-22,6-1.5,3-2.25,7.51-2.63,13.52S672.2,367,672.2,376v60.14c0,12.21,6,15.5,15.61,41.72h0.05c2.63,0.13,5.7.14,9.34,0.14h45c2,0,3.84,0,5.45,0C756.77,459.84,746.67,430.6,749.5,419Z" transform="translate(-601 -316)" style="fill:#f0dfda"/><path d="M742.21,479.59h-45c-3.89,0-6.85,0-9.42-.14a1.66,1.66,0,0,1-1.46-1,222.68,222.68,0,0,0-10-23.25c-3.54-7.24-5.68-11.61-5.68-19V376c0-8.87,0-16.54.38-22.58,0.42-6.74,1.28-11.1,2.79-14.13,3.44-6.88,10.12-6.88,23.42-6.88H739c1.82,0,3.43,0,4.91,0,0.61,0,4.23-.05,4.58.92,12.61,34.74,8.11,59.47,6.9,64.17-1.91,7.46-5,12.14-4.35,21.43,1.19,18.19,9,27.19-2,59.72a1.45,1.45,0,0,1-1.39.88C746.06,479.58,744.26,479.59,742.21,479.59Zm-53.27-3.27c2.3,0.09,4.94.09,8.27,0.09h45c1.63,0,3.11,0,4.46,0-1.84-29.89,1.7-41.19,1.25-57.34-0.25-9.05,5.35-16.08,4.41-20.92s0.79-8.66,1.31-13.3c0.14-1.26.37-2.57,0.62-4,1.39-7.78-.65-14.32-8.19-45.23H697.21c-12.74,0-18,0-20.58,5.12-1.29,2.59-2.08,6.69-2.46,12.9-0.38,5.95-.38,13.57-0.38,22.39v60c0,6.8,1.91,10.69,5.36,17.75A225.44,225.44,0,0,1,688.93,476.32Z" transform="translate(-601 -316)" style="fill:#f0dfda"/><path d="M675.21,472c-3-6-3-17.94-3-35.86h0c0,18,0,30,3,36,2.16,4.32,5.89,5.52,12.66,5.86l-0.05-.14C681.08,477.51,677.36,476.31,675.21,472Z" transform="translate(-601 -316)" style="fill:#dba892"/></svg>