<svg id="圖層_1" data-name="圖層 1" xmlns="http://www.w3.org/2000/svg" xmlns:xlink="http://www.w3.org/1999/xlink" viewBox="0 0 239.99 180"><defs><clipPath id="clip-path" transform="translate(-600 -316)"><path d="M753.89,337.49L765,356.65q-85.16,49.17-109.48,66.05L653,418.44C663.33,406.81,668.73,386.66,753.89,337.49Z" style="fill:none"/></clipPath><clipPath id="clip-path-2" transform="translate(-600 -316)"><path d="M655.47,422.7Q679.79,405.82,765,356.65l13.52,23.42C693.32,429.24,673.16,423.84,657.93,427Z" style="fill:none"/></clipPath><linearGradient id="linear-gradient" x1="657.93" y1="395" x2="768.65" y2="395" gradientUnits="userSpaceOnUse"><stop offset="0" stop-color="#4a5260" stop-opacity="0"/><stop offset="1" stop-color="#4a5260"/></linearGradient><clipPath id="clip-path-3" transform="translate(-600 -316)"><path d="M762.4,385l11.06,19.16q-85.16,49.17-109.48,66L661.52,466C671.84,454.36,677.24,434.21,762.4,385Z" style="fill:none"/></clipPath><clipPath id="clip-path-4" transform="translate(-600 -316)"><path d="M664,470.26q24.32-16.88,109.48-66L787,427.63c-85.16,49.17-105.32,43.77-120.55,46.88Z" style="fill:none"/></clipPath><linearGradient id="linear-gradient-2" x1="666.44" y1="442.55" x2="777.15" y2="442.55" xlink:href="#linear-gradient"/></defs><title>鯖魚</title><rect width="239.99" height="180" style="fill:none"/><g style="clip-path:url(#clip-path)"><path d="M753.89,337.49L765,356.65q-85.16,49.17-109.48,66.05L653,418.44C663.33,406.81,668.73,386.66,753.89,337.49Z" transform="translate(-600 -316)" style="fill:#798b99"/><path d="M657.6,421.47q-10.45-18.09-14.42-20.06l2.13-1.23q4,2,14.42,20.06Z" transform="translate(-600 -316)" style="fill:#4a5260"/><path d="M694.28,371.9q4,2,14.42,20.06l2.13-1.23q-10.45-18.1-14.42-20.06Z" transform="translate(-600 -316)" style="fill:#4a5260"/><path d="M704.44,394.43Q694,376.33,690,374.36l-2.13,1.23q4,2,14.42,20.06Z" transform="translate(-600 -316)" style="fill:#4a5260"/><path d="M695.93,399.34q-10.45-18.09-14.42-20.06l2.13-1.23q4,2,14.42,20.06Z" transform="translate(-600 -316)" style="fill:#4a5260"/><path d="M691.67,401.8q-10.45-18.1-14.42-20.06L675.12,383q4,2,14.42,20.06Z" transform="translate(-600 -316)" style="fill:#4a5260"/><path d="M664,417.78q-10.44-18.1-14.42-20.06l2.13-1.23q4,2,14.42,20.06Z" transform="translate(-600 -316)" style="fill:#4a5260"/><path d="M672.51,412.86q-10.45-18.09-14.42-20.06L656,394q4,2,14.42,20.06Z" transform="translate(-600 -316)" style="fill:#4a5260"/><path d="M676.77,410.41q-10.45-18.09-14.42-20.06l2.13-1.23q4,2,14.42,20.06Z" transform="translate(-600 -316)" style="fill:#4a5260"/><path d="M685.28,405.49q-10.45-18.1-14.42-20.06l-2.13,1.23q4,2,14.42,20.06Z" transform="translate(-600 -316)" style="fill:#4a5260"/><path d="M719.83,357.15q4,2,14.42,20.06l2.13-1.23Q725.93,357.89,722,355.92Z" transform="translate(-600 -316)" style="fill:#4a5260"/><path d="M715.57,359.61q4,2,14.42,20.06l-2.13,1.23q-10.45-18.1-14.42-20.07Z" transform="translate(-600 -316)" style="fill:#4a5260"/><path d="M707.05,364.53q4,2,14.42,20.06l2.13-1.23q-10.45-18.1-14.42-20.06Z" transform="translate(-600 -316)" style="fill:#4a5260"/><path d="M717.22,387.05Q706.77,369,702.79,367l-2.13,1.23q4,2,14.42,20.06Z" transform="translate(-600 -316)" style="fill:#4a5260"/><path d="M726.22,353.47q4,2,14.42,20.06l2.13-1.23q-10.45-18.09-14.42-20.06Z" transform="translate(-600 -316)" style="fill:#4a5260"/><path d="M734.73,348.55q4,2,14.42,20.06L747,369.84q-10.45-18.1-14.42-20.06Z" transform="translate(-600 -316)" style="fill:#4a5260"/><path d="M739,346.09q4,2,14.42,20.06l2.13-1.23q-10.45-18.09-14.43-20.06Z" transform="translate(-600 -316)" style="fill:#4a5260"/><path d="M747.51,341.17q4,2,14.42,20.06l-2.13,1.23q-10.44-18.1-14.42-20.06Z" transform="translate(-600 -316)" style="fill:#4a5260"/></g><g style="clip-path:url(#clip-path-2)"><path d="M655.47,422.7Q679.79,405.82,765,356.65l13.52,23.42C693.32,429.24,673.16,423.84,657.93,427Z" transform="translate(-600 -316)" style="fill:#e2e2e2"/><path d="M657.93,427q24.32-16.88,109.48-66l1.23,2.13q-85.17,49.17-109.48,66Z" transform="translate(-600 -316)" style="opacity:0.8;fill:url(#linear-gradient)"/></g><g style="clip-path:url(#clip-path-3)"><path d="M762.4,385l11.06,19.16q-85.16,49.17-109.48,66L661.52,466C671.84,454.36,677.24,434.21,762.4,385Z" transform="translate(-600 -316)" style="fill:#798b99"/><path d="M666.11,469Q655.66,450.93,651.69,449l2.13-1.23q4,2,14.42,20.06Z" transform="translate(-600 -316)" style="fill:#4a5260"/><path d="M702.79,419.46q4,2,14.42,20.06l2.13-1.23q-10.45-18.1-14.42-20.06Z" transform="translate(-600 -316)" style="fill:#4a5260"/><path d="M712.95,442q-10.45-18.09-14.42-20.06l-2.13,1.23q4,2,14.42,20.06Z" transform="translate(-600 -316)" style="fill:#4a5260"/><path d="M704.43,446.9Q694,428.81,690,426.84l2.13-1.23q4,2,14.42,20.06Z" transform="translate(-600 -316)" style="fill:#4a5260"/><path d="M700.17,449.36q-10.45-18.09-14.42-20.06l-2.13,1.23q4,2,14.42,20.06Z" transform="translate(-600 -316)" style="fill:#4a5260"/><path d="M672.49,465.34q-10.44-18.1-14.42-20.06L660.2,444q4,2,14.42,20.06Z" transform="translate(-600 -316)" style="fill:#4a5260"/><path d="M681,460.42q-10.45-18.09-14.42-20.06l-2.13,1.23q4,2,14.42,20.06Z" transform="translate(-600 -316)" style="fill:#4a5260"/><path d="M685.27,458q-10.45-18.09-14.42-20.06l2.13-1.23q4,2,14.42,20.06Z" transform="translate(-600 -316)" style="fill:#4a5260"/><path d="M693.79,453Q683.34,435,679.36,433l-2.13,1.23q4,2,14.42,20.06Z" transform="translate(-600 -316)" style="fill:#4a5260"/><path d="M728.33,404.71q4,2,14.42,20.06l2.13-1.23q-10.44-18.1-14.42-20.07Z" transform="translate(-600 -316)" style="fill:#4a5260"/><path d="M724.08,407.17q4,2,14.42,20.06l-2.13,1.23q-10.45-18.1-14.42-20.07Z" transform="translate(-600 -316)" style="fill:#4a5260"/><path d="M715.56,412.09q4,2,14.42,20.06l2.13-1.23q-10.45-18.1-14.42-20.06Z" transform="translate(-600 -316)" style="fill:#4a5260"/><path d="M725.72,434.61q-10.45-18.09-14.42-20.06l-2.13,1.23q4,2,14.42,20.06Z" transform="translate(-600 -316)" style="fill:#4a5260"/><path d="M734.72,401q4,2,14.42,20.06l2.13-1.23q-10.46-18.1-14.42-20.06Z" transform="translate(-600 -316)" style="fill:#4a5260"/><path d="M743.24,396.11q4,2,14.42,20.07l-2.13,1.23q-10.45-18.1-14.42-20.06Z" transform="translate(-600 -316)" style="fill:#4a5260"/><path d="M747.49,393.65q4,2,14.42,20.06l2.13-1.23q-10.45-18.09-14.43-20.06Z" transform="translate(-600 -316)" style="fill:#4a5260"/><path d="M756,388.73q4,2,14.42,20.07L768.3,410q-10.44-18.1-14.42-20.06Z" transform="translate(-600 -316)" style="fill:#4a5260"/></g><g style="clip-path:url(#clip-path-4)"><path d="M664,470.26q24.32-16.88,109.48-66L787,427.63c-85.16,49.17-105.32,43.77-120.55,46.88Z" transform="translate(-600 -316)" style="fill:#e2e2e2"/><path d="M666.44,474.51q24.32-16.88,109.48-66l1.23,2.13q-85.17,49.17-109.48,66Z" transform="translate(-600 -316)" style="opacity:0.8;fill:url(#linear-gradient-2)"/></g></svg>