<svg xmlns="http://www.w3.org/2000/svg" viewBox="0 0 480 120"><g style="isolation:isolate"><g><rect width="480" height="120" style="fill:#fffbf5"/><rect width="3" height="120" style="fill:#e2695b"/><g id="保鮮膜_t"><text transform="translate(24 74.44)" style="font-size:48px;fill:#963b3b;font-family:HanWangHeiHeavy;letter-spacing:2px;opacity: 0;">保鮮膜</text><path d="M35,39.89q0.47-1.5,1.73-1.12L39,39.42a1.41,1.41,0,0,1,1.13,2,58.63,58.63,0,0,1-2.77,7.17,5.16,5.16,0,0,0-.52,2.16v29.3a1.26,1.26,0,0,1-1.41,1.45H33a1.26,1.26,0,0,1-1.45-1.41V60.75q0-1.27-1.08.28-1,1.31-1.73-.14L27.38,58.5a2.61,2.61,0,0,1,0-2.81A62.06,62.06,0,0,0,35,39.89Zm6.8,1.45a1.26,1.26,0,0,1,1.41-1.45H64.88a1.26,1.26,0,0,1,1.45,1.41V54.89a1.26,1.26,0,0,1-1.41,1.45H58.08q-1.17,0-1.17,1.5T58,59.44h9.8a1.26,1.26,0,0,1,1.45,1.41v2.48a1.26,1.26,0,0,1-1.41,1.45H60.66q-1.22,0-.14,1.17a26.67,26.67,0,0,0,8.34,6.52,1.39,1.39,0,0,1,.66,2.11L68,77.39a1.43,1.43,0,0,1-2.2.61,34.94,34.94,0,0,1-7.87-7.08q-1-1-1,.09v9.23A1.26,1.26,0,0,1,55.5,81.7H52.78a1.26,1.26,0,0,1-1.45-1.41V70.83q0-1.22-1.08.28a39,39,0,0,1-8.16,7.31,1.45,1.45,0,0,1-2.25-.56l-1.17-2q-0.8-1.45.94-2.53a33.87,33.87,0,0,0,8-7.17q1-1.36-.14-1.36H40a1.26,1.26,0,0,1-1.45-1.41V60.89A1.26,1.26,0,0,1,40,59.44H50.16q1.17,0,1.17-1.5T50.2,56.34h-7a1.24,1.24,0,0,1-1.41-1.41V41.34ZM60.7,46.41a1,1,0,0,0-1-1.27H48.61a1,1,0,0,0-1.17,1.13V50a1,1,0,0,0,1.13,1.17h11a1,1,0,0,0,1.17-1.12V46.41Z" style="fill:#963b3b"/><path d="M78.29,71.25q0.14-1.69,1.45-1.36a6.73,6.73,0,0,1,1.31.33,1.68,1.68,0,0,1,1.55,1.92,51.68,51.68,0,0,1-1.36,7.73q-0.42,1.45-1.83.7l-1.31-.66A1.81,1.81,0,0,1,77,77.72,45.44,45.44,0,0,0,78.29,71.25Zm3.38-31.78a1.34,1.34,0,0,1,1.88-1L85.46,39q1.55,0.56,1.31,1.36a0.68,0.68,0,0,0,.75,1h5.91a1.26,1.26,0,0,1,1.45,1.41v2a4.22,4.22,0,0,1-.61,2.34q-1,1.5.09,1.5h1.45a1.26,1.26,0,0,1,1.45,1.41V67.45a1.26,1.26,0,0,1-1.41,1.45h-16a1.26,1.26,0,0,1-1.45-1.41V51.84A2.31,2.31,0,0,0,77.49,50q-0.89-.7.09-2.11A39.52,39.52,0,0,0,81.67,39.47Zm3.8,31.22a1.57,1.57,0,0,1,2.06,1.13,32.22,32.22,0,0,1,.8,6.23,1.46,1.46,0,0,1-1.41,1.69l-1.41.14q-1.64.14-1.64-1.27a28.29,28.29,0,0,0-.52-6.14,1.22,1.22,0,0,1,1.13-1.64A3.75,3.75,0,0,0,85.46,70.69Zm0-15.75q0-1.55-1-1.55T83.4,54.84q0,1.55,1,1.55T85.51,54.94Zm0,7.83q0-1.69-1-1.69A1,1,0,0,0,83.4,62.2v0.89a1,1,0,0,0,1,1.17Q85.51,64.27,85.51,62.77ZM88.7,47.39Q89.54,46,88.37,46H85.65a2,2,0,0,0-1.78,1.31q-0.75,1.36.38,1.36h2.44A2.49,2.49,0,0,0,88.7,47.39Zm1.78,23.16q2-.66,2.53.89A48,48,0,0,1,94.27,77a1.6,1.6,0,0,1-1.36,1.83L92,79.08q-1.69.56-1.92-.94-0.47-2.62-1.17-5.25a1.51,1.51,0,0,1,1-2.16Zm1.83-15.61q0-1.55-1-1.55T90.2,54.84q0,1.55,1,1.55T92.31,54.94Zm0,7.83q0-1.69-1-1.69A1,1,0,0,0,90.2,62.2v0.89a1,1,0,0,0,1,1.17Q92.31,64.27,92.31,62.77ZM95,70.36l1.59-.42a1.48,1.48,0,0,1,1.92,1.13,31.5,31.5,0,0,1,1.5,4.88,1.43,1.43,0,0,1-1.08,1.92l-1.83.56a1.16,1.16,0,0,1-1.69-1,34.6,34.6,0,0,0-1.31-5.16A1.29,1.29,0,0,1,95,70.36Zm17.34-30.28a1.24,1.24,0,0,1,1.83-1,23.07,23.07,0,0,1,2.34.8A1.51,1.51,0,0,1,117.67,42l-1.27,3.42q-0.56,1.27.52,1.27h1.69A1.26,1.26,0,0,1,120.06,48v2.39a1.26,1.26,0,0,1-1.41,1.45h-5.3A1,1,0,0,0,112.18,53v2.39a1,1,0,0,0,1.13,1.17h4.64A1.26,1.26,0,0,1,119.4,58v2.39A1.26,1.26,0,0,1,118,61.83h-4.64A1,1,0,0,0,112.18,63v2.39a1,1,0,0,0,1.13,1.17h5.63a1.26,1.26,0,0,1,1.45,1.41v2.39A1.26,1.26,0,0,1,119,71.77h-5.62a1,1,0,0,0-1.17,1.13v7.17a1.26,1.26,0,0,1-1.41,1.45H108.2a1.26,1.26,0,0,1-1.45-1.41V72.94a1,1,0,0,0-1.12-1.17h-5a1.26,1.26,0,0,1-1.45-1.41V68a1.26,1.26,0,0,1,1.41-1.45h5a1,1,0,0,0,1.17-1.12V63a1,1,0,0,0-1.12-1.17h-4.17A1.26,1.26,0,0,1,100,60.42V58a1.26,1.26,0,0,1,1.41-1.45h4.17a1,1,0,0,0,1.17-1.12V53.06a1,1,0,0,0-1.12-1.17h-5.16A1.26,1.26,0,0,1,99,50.49V48.09a1.26,1.26,0,0,1,1.41-1.45h1.13q1.13,0,.7-1.41a19.19,19.19,0,0,0-1-2.34,1.59,1.59,0,0,1,.7-2.44l1.55-.7a1.77,1.77,0,0,1,2.58.7q0.89,1.69,1.59,3.38a1.48,1.48,0,0,1-.84,2.11q-1.64.7-.09,0.7h2a2,2,0,0,0,1.78-1.41Q111.52,42.66,112.32,40.08Z" style="fill:#963b3b"/><path d="M129,40.88a1.25,1.25,0,0,1,1.31-1.5h10.73a1.26,1.26,0,0,1,1.45,1.41v35.3q-0.52,6.33-7,5.39a1.86,1.86,0,0,1-1.83-1.78,8.55,8.55,0,0,1-.33-1.5q-0.33-1.55-.75,0l-0.37,1.59q-0.52,1.69-2,1.08l-1.55-.61q-1.73-.66-1.36-2.11A63.53,63.53,0,0,0,129,64.88v-24Zm8.58,26.44a1,1,0,0,0-1.12-1.17H135a1.19,1.19,0,0,0-1.22,1.41,58.56,58.56,0,0,1-.61,7.5Q133,76.13,134.5,76.5l1.5,0.14q1.45-.14,1.59-2.34v-7Zm0-22a1,1,0,0,0-1.12-1.17H135a1,1,0,0,0-1.17,1.13v3.94a1,1,0,0,0,1.13,1.17h1.5a1,1,0,0,0,1.17-1.12V45.33Zm0,11.16a1,1,0,0,0-1.08-1.22H135a1,1,0,0,0-1.17,1.13v3.75a1,1,0,0,0,1.13,1.17h1.5a1,1,0,0,0,1.17-1.12v-3.7Zm10.73-16.55a1.22,1.22,0,0,1,1.41-1.36h2.34a1.23,1.23,0,0,1,1.45,1.31,1.11,1.11,0,0,0,1.13,1.36h3.19A1.1,1.1,0,0,0,159,39.94a1.22,1.22,0,0,1,1.41-1.36h2.39a1.23,1.23,0,0,1,1.45,1.31,1.11,1.11,0,0,0,1.13,1.36h3.75a1.26,1.26,0,0,1,1.45,1.41v2.11a1.26,1.26,0,0,1-1.41,1.45h-3.75a1,1,0,0,0-1.17,1.17,1.18,1.18,0,0,1-1.41,1.27h-2.39q-1.45,0-1.45-1.17a1.06,1.06,0,0,0-1.12-1.27h-3.19a1,1,0,0,0-1.17,1.17,1.18,1.18,0,0,1-1.41,1.27h-2.34q-1.45,0-1.45-1.17a1.06,1.06,0,0,0-1.12-1.27h-2.53a1.26,1.26,0,0,1-1.45-1.41V42.7a1.26,1.26,0,0,1,1.41-1.45h2.53A1.1,1.1,0,0,0,148.33,39.94Zm-3.75,11A1.26,1.26,0,0,1,146,49.5h21.14a1.26,1.26,0,0,1,1.45,1.41V64.83a1.26,1.26,0,0,1-1.41,1.45h-7.31a1.15,1.15,0,0,0-1.31.7q-0.14.7,1,.7h9.28a1.26,1.26,0,0,1,1.45,1.41V71a1.26,1.26,0,0,1-1.41,1.45H163q-1.12,0,.19,1.13A17.8,17.8,0,0,0,169,75.94a1,1,0,0,1,.75,1.69q-0.66,1.13-1.17,2.25-1,1.83-2.39,1.36a19.62,19.62,0,0,1-9-6.37q-0.94-1.27-1.73,0a17.39,17.39,0,0,1-9.09,6.38,1.6,1.6,0,0,1-2.16-1.17l-0.66-1.87q-0.61-1.73.89-2.16a14.82,14.82,0,0,0,4.31-2.2q1.41-1.36.28-1.36h-4.31a1.26,1.26,0,0,1-1.45-1.41V69.14a1.26,1.26,0,0,1,1.41-1.45h7a1.15,1.15,0,0,0,1.31-.75q0.09-.66-1-0.66h-6a1.24,1.24,0,0,1-1.41-1.41V51Zm18.75,4.13a0.82,0.82,0,0,0-1-.8H150.91q-1.17,0-1.17.66t1.13,0.75h11.3Q163.28,55.69,163.33,55.08Zm0,5.81q0-.75-1-0.75H150.91q-1.17,0-1.17.66t1.13,0.7h11.3Q163.33,61.5,163.33,60.89Z" style="fill:#963b3b"/></g><rect x="336" width="120" height="120" style="fill:#fffbf5"/><g id="保鮮膜"><g style="opacity:0.6000000000000001;mix-blend-mode:hard-light"><path d="M444,108.5a576.71,576.71,0,0,1,0-96,576.71,576.71,0,0,1-96,0,577.36,577.36,0,0,1,0,96A577.14,577.14,0,0,1,444,108.5Z" style="opacity:0.30000000000000004"/><path d="M356,76.5a361.7,361.7,0,0,1,76,0" style="opacity:0.7000000000000001"/><path d="M359,68.5a307.19,307.19,0,0,1,70,0" style="opacity:0.7000000000000001"/><path d="M359,62.5a307.19,307.19,0,0,1,70,0" style="opacity:0.7000000000000001"/><path d="M354,56.5a401,401,0,0,1,80,0" style="opacity:0.8"/><path d="M359,48.5l3.22-.1c2.05,0,5-.14,8.5-0.18s7.62-.13,12-0.15L396.5,48l13.77,0.07c4.39,0,8.5.11,12,.15s6.45,0.14,8.5.18L434,48.5l-3.22.1c-2.05,0-5,.14-8.5.18s-7.62.14-12,.15L396.5,49l-13.77-.07c-4.39,0-8.5-.11-12-0.15s-6.45-.14-8.5-0.18Z"/><path d="M360,40.5a325.08,325.08,0,0,0,72,0" style="opacity:0.8"/><path d="M356,92.5q44-4,76,0" style="opacity:0.5"/><path d="M356,100.5a268.09,268.09,0,0,1,80,0" style="opacity:0.30000000000000004"/><path d="M354,32.5q45,6,85,0" style="opacity:0.6000000000000001"/><path d="M354,20.5q45,6,80,0" style="opacity:0.30000000000000004"/><path d="M354,26.5q45,6,80,0" style="opacity:0.5"/><path d="M360,84.5q44-4,72,0" style="opacity:0.6000000000000001"/></g><path d="M444,108a576.71,576.71,0,0,1,0-96,576.71,576.71,0,0,1-96,0,577.36,577.36,0,0,1,0,96A577.14,577.14,0,0,1,444,108Z" style="fill:#eff4f3;opacity:0.30000000000000004"/><path d="M356,76a361.7,361.7,0,0,1,76,0" style="fill:#f2f7f6;opacity:0.7000000000000001"/><path d="M359,68a307.19,307.19,0,0,1,70,0" style="fill:#f2f7f6;opacity:0.7000000000000001"/><path d="M359,62a307.19,307.19,0,0,1,70,0" style="fill:#f2f7f6;opacity:0.7000000000000001"/><path d="M354,56a401,401,0,0,1,80,0" style="fill:#f2f7f6;opacity:0.8"/><g style="opacity:0.7000000000000001"><path d="M359,48l3.22-.1c2.05,0,5-.14,8.5-0.18s7.62-.13,12-0.15l13.77-.07,13.77,0.07c4.39,0,8.5.11,12,.15s6.45,0.14,8.5.18L434,48l-3.22.1c-2.05,0-5,.14-8.5.18s-7.62.14-12,.15l-13.77.07-13.77-.07c-4.39,0-8.5-.11-12-0.15s-6.45-.14-8.5-0.18Z" style="fill:#f2f7f6"/></g><path d="M360,40a325.08,325.08,0,0,0,72,0" style="fill:#f2f7f6;opacity:0.8"/><path d="M356,92q44-4,76,0" style="fill:#f2f7f6;opacity:0.5"/><path d="M356,100a268.09,268.09,0,0,1,80,0" style="fill:#f2f7f6;opacity:0.30000000000000004"/><path d="M354,32q45,6,85,0" style="fill:#f2f7f6;opacity:0.6000000000000001"/><path d="M354,20q45,6,80,0" style="fill:#f2f7f6;opacity:0.30000000000000004"/><path d="M354,26q45,6,80,0" style="fill:#f2f7f6;opacity:0.5"/><path d="M360,84q44-4,72,0" style="fill:#f2f7f6;opacity:0.6000000000000001"/></g></g></g></svg>