<svg xmlns="http://www.w3.org/2000/svg" xmlns:xlink="http://www.w3.org/1999/xlink" viewBox="0 0 528 120"><defs><linearGradient id="linear-gradient" x1="316.03" y1="106.18" x2="316.03" y2="80" gradientUnits="userSpaceOnUse"><stop offset="0" stop-color="#eec56e"/><stop offset="1" stop-color="#f4d88c"/></linearGradient><linearGradient id="linear-gradient-2" x1="315.98" y1="13.81" x2="315.98" y2="40" xlink:href="#linear-gradient"/></defs><rect width="528" height="120" style="fill:#fffbf5"/><g id="甜不辣花枝丸_t"><text transform="translate(24 45.44)" style="font-size:48px;fill:#963b3b;font-family:HanWangHeiHeavy;letter-spacing:2px;opacity: 0">甜不辣、<tspan x="0" y="58">花枝丸</tspan></text><path d="M48,11.64a1.26,1.26,0,0,1,1.41-1.45H52a1.26,1.26,0,0,1,1.45,1.41v4a1,1,0,0,0,1.13,1.17h6a1,1,0,0,0,1.17-1.12v-4a1.26,1.26,0,0,1,1.41-1.45h2.58a1.26,1.26,0,0,1,1.45,1.41v4q0,1.17,1.45,1.17a1.31,1.31,0,0,1,1.55,1.41v2.3a1.28,1.28,0,0,1-1.45,1.45q-1.55,0-1.55,1.13v28a1.26,1.26,0,0,1-1.41,1.45H63.14q-1.45,0-1.45-1.08a1,1,0,0,0-1.12-1.17h-6a1,1,0,0,0-1.17,1.08A1.15,1.15,0,0,1,52,52.52H49.45A1.26,1.26,0,0,1,48,51.11v-28a1.25,1.25,0,0,0-2.48,0v2.16a1.26,1.26,0,0,1-1.41,1.45H39.89a1,1,0,0,0-1.17,1.13v3.38a1,1,0,0,0,1.13,1.17h3.89a1.26,1.26,0,0,1,1.45,1.41V50.45a1.26,1.26,0,0,1-1.41,1.45H41.2q-1.45,0-1.45-.8t-1.12-.84H33.7q-1.17,0-1.17.89t-1.41,1H28.64a1.26,1.26,0,0,1-1.45-1.41v-17a1.26,1.26,0,0,1,1.41-1.45H32.2a1,1,0,0,0,1.17-1.12V27.81a1,1,0,0,0-1.12-1.17H27.66a1.26,1.26,0,0,1-1.45-1.41V22.84a1.26,1.26,0,0,1,1.41-1.45H32.2a1,1,0,0,0,1.17-1.12V16.52a1,1,0,0,0-1.12-1.17h-3a1.26,1.26,0,0,1-1.45-1.41V11.78a1.24,1.24,0,0,1,1.41-1.41H42.94a1.26,1.26,0,0,1,1.45,1.41v2.11A1.26,1.26,0,0,1,43,15.34H39.89a1,1,0,0,0-1.17,1.13v3.75a1,1,0,0,0,1.13,1.17h3.56a1,1,0,0,0,1.17-1.12V18.2A1.26,1.26,0,0,1,46,16.75h0.84A1,1,0,0,0,48,15.63v-4ZM39.75,38.73a1,1,0,0,0-1-1.27h-5a1,1,0,0,0-1.17,1.13v5.48a1,1,0,0,0,1.13,1.17h4.92a1,1,0,0,0,1.17-1.12V38.73ZM61.69,23.08a1,1,0,0,0-1.12-1.17h-6A1,1,0,0,0,53.44,23v6.61a1,1,0,0,0,1.13,1.17h6a1,1,0,0,0,1.17-1.12V23.08Zm0,13.88a1,1,0,0,0-1.12-1.17h-6a1,1,0,0,0-1.17,1.13v7.17a1,1,0,0,0,1.13,1.17h6a1,1,0,0,0,1.17-1.12V37Z" style="fill:#963b3b"/><path d="M78.62,13.28A1.26,1.26,0,0,1,80,11.83h38a1.26,1.26,0,0,1,1.45,1.41v2.53a1.26,1.26,0,0,1-1.41,1.45H104.45a2.27,2.27,0,0,0-1.92,1.41q-1.64,2.25-1.41,3.42v29a1.26,1.26,0,0,1-1.41,1.45h-3a1.26,1.26,0,0,1-1.45-1.41V30.34q0-1.17-1,.19A86.28,86.28,0,0,1,83.07,41.78a2,2,0,0,1-3,0l-1.41-1.45q-1.36-1.41,0-2.48A76.49,76.49,0,0,0,96.24,18.44q0.7-1.22-.37-1.22H80a1.24,1.24,0,0,1-1.41-1.41V13.28Zm27.61,11.11q1.55-1.12,2.63,0a105.18,105.18,0,0,1,10.59,12.84,2,2,0,0,1-.14,2.81l-2.25,2.25q-1.36,1.36-2.34-.14a139.84,139.84,0,0,0-10.31-13.5q-1.59-1.78-.14-2.86Z" style="fill:#963b3b"/><path d="M134.88,10.89a1.25,1.25,0,0,1,1.31-1.5h2.67a1.26,1.26,0,0,1,1.45,1.41v1.55a1,1,0,0,0,1.13,1.17h3a1.26,1.26,0,0,1,1.45,1.41v2.39a1.19,1.19,0,0,1-1.22,1.45q-1.69,0-.37.42,1.08,0.33.56,2-0.75,2.39-1.69,4.92-0.37,1.13.75,1.13h0.7A1.26,1.26,0,0,1,146,28.61V31a1.26,1.26,0,0,1-1.41,1.45h-4.55a1.22,1.22,0,0,0-1.22,1.41v1.55q0,1.13,1.36,1l3.33-.52A1.27,1.27,0,0,1,145.24,37l0.38,1.88a1.42,1.42,0,0,1-1.17,1.78l-5.2,1a2,2,0,0,0-1.41,1.73,20,20,0,0,1-4.41,7.78q-1.55,1.45-2.86.14l-0.84-.94q-1.64-1.73-.19-3.14A14,14,0,0,0,131.78,44q0.56-1.17-.89-0.89a1.91,1.91,0,0,1-2.25-1.31l-0.84-2.44q-0.47-1.5.89-1.59l3.75-.42q1.08-.14,1.13-1.69l0.09-2.06a1,1,0,0,0-1.12-1.12h-3.19A1.26,1.26,0,0,1,127.89,31V28.66a1.28,1.28,0,0,1,1.45-1.45,1,1,0,0,0,1.08-1.41q-0.66-2.11-1.5-4.22a1.36,1.36,0,0,1,.61-2q1.55-.8,0-0.8a1.17,1.17,0,0,1-1.22-1.41V15a1.26,1.26,0,0,1,1.41-1.45h4a1,1,0,0,0,1.17-1.12v-1.5ZM139.75,20q0.28-1.22-.8-1.22h-4.59q-1.17,0-.52,1.45Q134.6,22,135.3,24a1.51,1.51,0,0,1-.94,2.06,4.54,4.54,0,0,0-1.08.47q-1.5.66,0.14,0.66h3.09a1.69,1.69,0,0,0,1.59-1.41Q139,22.89,139.75,20Zm15.89-9.09A1.25,1.25,0,0,1,157,9.39h2.16a1.26,1.26,0,0,1,1.45,1.41v1.92a1,1,0,0,0,1.13,1.17h6.7a1.26,1.26,0,0,1,1.45,1.41v2.2A1.26,1.26,0,0,1,168.44,19h-6.7a1.13,1.13,0,0,0-1.17,1.36q0,1.45,1.13,1.45h6.52a1.26,1.26,0,0,1,1.45,1.41V34.33a1.26,1.26,0,0,1-1.41,1.45h-4.92q-1.17,0-.14,1.45a37.77,37.77,0,0,0,6.89,7,1.51,1.51,0,0,1,.33,2.48q-0.84.94-1.55,1.88a1.56,1.56,0,0,1-2.62,0,52.37,52.37,0,0,1-4.59-5.44q-1.08-1.55-1.08-.33v8.16a1.26,1.26,0,0,1-1.41,1.45H157.1a1.26,1.26,0,0,1-1.45-1.41V42.48q0-1.27-1.08.28A33.13,33.13,0,0,1,148.33,49a1.75,1.75,0,0,1-2.62-.37,15.51,15.51,0,0,1-1.17-1.41q-1.22-1.45.14-2.48a30.1,30.1,0,0,0,7.88-7.69q0.89-1.31-.14-1.31h-4.08a1.26,1.26,0,0,1-1.45-1.41V23.22a1.26,1.26,0,0,1,1.41-1.45h6.19a1.13,1.13,0,0,0,1.17-1.36q0-1.45-1.12-1.45h-6.37a1.26,1.26,0,0,1-1.45-1.41v-2.2a1.26,1.26,0,0,1,1.41-1.45h6.38a1,1,0,0,0,1.17-1.12V10.89Zm0,16.92a1,1,0,0,0-1.12-1.17h-1.31A1,1,0,0,0,152,27.77v2A1,1,0,0,0,153.16,31h1.31a1,1,0,0,0,1.17-1.12v-2Zm8.86,0a1,1,0,0,0-1.12-1.17h-1.64a1,1,0,0,0-1.17,1.13v2A1,1,0,0,0,161.69,31h1.64a1,1,0,0,0,1.17-1.12v-2Z" style="fill:#963b3b"/><path d="M194.93,26.17q1.78-1.5,3.09-.52a39.39,39.39,0,0,1,7.59,7.59,1.81,1.81,0,0,1-.33,2.67l-0.94.84q-1.69,1.45-2.62,0a33,33,0,0,0-7.27-7.87q-1.41-1.08,0-2.3Z" style="fill:#963b3b"/><path d="M37.31,68.89a1.25,1.25,0,0,1,1.31-1.5H41.2a1.26,1.26,0,0,1,1.45,1.41v0.66a1,1,0,0,0,1.13,1.17h8.48a1,1,0,0,0,1.17-1.12V68.84a1.26,1.26,0,0,1,1.41-1.45h2.48a1.26,1.26,0,0,1,1.45,1.41v0.66a1,1,0,0,0,1.13,1.17h8A1.26,1.26,0,0,1,69.38,72v2.3A1.26,1.26,0,0,1,68,75.78H60a1.15,1.15,0,0,0-1.17,1.41,1.26,1.26,0,0,1-1.41,1.45H54.89a1.26,1.26,0,0,1-1.45-1.41q0-1.45-1.12-1.45H43.83a1.15,1.15,0,0,0-1.17,1.41,1.26,1.26,0,0,1-1.41,1.45H38.77a1.26,1.26,0,0,1-1.45-1.41q0-1.45-1.12-1.45H28a1.26,1.26,0,0,1-1.45-1.41v-2.3A1.26,1.26,0,0,1,28,70.63h8.16a1,1,0,0,0,1.17-1.12V68.89ZM35.63,80.66a1.63,1.63,0,0,1,2.11-1l2.91,0.84q1.5,0.42.7,2.11-1.27,2.34-2.77,4.69a4,4,0,0,0-.75,2.11v19.87a1.26,1.26,0,0,1-1.41,1.45H33.84a1.26,1.26,0,0,1-1.45-1.41V96.22q0-1.12-1.41.14t-2.3,0l-1.22-2.25A2.36,2.36,0,0,1,28,91,36,36,0,0,0,35.63,80.66Zm11.2,0.23a1.25,1.25,0,0,1,1.31-1.5H51a1.26,1.26,0,0,1,1.45,1.41V88.2q0,1.13,1.41.75a88.12,88.12,0,0,0,9.42-3.56,1.83,1.83,0,0,1,2.48.61l1.36,1.92q1.08,1.5-.19,2.11a107.51,107.51,0,0,1-13.31,4.45,1.41,1.41,0,0,0-1.17,1.45v6q-0.33,2.63,2.39,2.67a40.31,40.31,0,0,0,7.17-.09,1.37,1.37,0,0,0,1.17-.52q0.89-1,1-4.12,0.09-1.55,1.73-.61l1.88,1a2.48,2.48,0,0,1,1.55,2.44,12.87,12.87,0,0,1-1.45,5.3q-1.73,1.83-7.17,1.83H55.31a18.94,18.94,0,0,1-5.62-.75,4.4,4.4,0,0,1-2.86-3.8V80.89Z" style="fill:#963b3b"/><path d="M83.21,68.89a1.25,1.25,0,0,1,1.31-1.5H87a1.26,1.26,0,0,1,1.45,1.41v5.11a1,1,0,0,0,1.13,1.17h2.25a1.26,1.26,0,0,1,1.45,1.41v2.2a1.26,1.26,0,0,1-1.41,1.45H89.63a1,1,0,0,0-1.17,1.13,3.47,3.47,0,0,0,1.41,2.44q2.06,1.83,4.27,4a2.07,2.07,0,0,1,0,2.81l-1.31,1.88q-0.89,1.31-2-.19a22.37,22.37,0,0,1-1.36-1.78q-1-1.27-1-.19v19a1.26,1.26,0,0,1-1.41,1.45H84.67a1.26,1.26,0,0,1-1.45-1.41V94.2q0-1.59-.66,0a23,23,0,0,1-1.87,3.89q-0.8,1.45-2,.09l-0.8-1a2.36,2.36,0,0,1-.47-2.81,70.56,70.56,0,0,0,5.44-13.12A0.8,0.8,0,0,0,82,80.14H79a1.26,1.26,0,0,1-1.45-1.41v-2.2A1.26,1.26,0,0,1,79,75.08h3A1,1,0,0,0,83.21,74V68.89Zm21,0a1.25,1.25,0,0,1,1.31-1.5h2.58a1.26,1.26,0,0,1,1.45,1.41V72a1,1,0,0,0,1.13,1.17h8.34a1.26,1.26,0,0,1,1.45,1.41V77a1.26,1.26,0,0,1-1.41,1.45h-8.34a1,1,0,0,0-1.17,1.13v3.75a1,1,0,0,0,1.13,1.17h6.47a1.26,1.26,0,0,1,1.45,1.41,6.56,6.56,0,0,1-.37,3.47,41.18,41.18,0,0,1-5.77,10.13q-0.89,1.12.52,2.16a26.61,26.61,0,0,0,6,3.09,1.28,1.28,0,0,1,.7,2l-1.31,2.44a1.56,1.56,0,0,1-2.11,1,30.23,30.23,0,0,1-7.73-4.83,1.84,1.84,0,0,0-2.53,0,39.32,39.32,0,0,1-9.75,4.88,1.75,1.75,0,0,1-2.2-1,18.07,18.07,0,0,1-1-1.87q-0.89-1.73.61-2.16a30.56,30.56,0,0,0,8.81-4q1.13-.8.09-2.2a51.12,51.12,0,0,1-4.5-8.44,1.57,1.57,0,0,0-1.5-1.12q-1.08,0-1.08-1.41V86A1.26,1.26,0,0,1,97,84.5h6.09a1,1,0,0,0,1.17-1.12V79.63a1,1,0,0,0-1.12-1.17H95.4A1.26,1.26,0,0,1,93.95,77V74.66a1.26,1.26,0,0,1,1.41-1.45h7.73a1,1,0,0,0,1.17-1.12V68.89ZM112,90.69q0.66-1.22-.47-1.22H104.4q-1.12,0-.56,1.41a33,33,0,0,0,3,4.88q0.94,1.13,2.2-.33A19.05,19.05,0,0,0,112,90.69Z" style="fill:#963b3b"/><path d="M141.39,68.89a1.29,1.29,0,0,1,1.36-1.5h2.81A1.29,1.29,0,0,1,147,68.8l0,3.61a1,1,0,0,0,1.13,1.17h11.2A1.26,1.26,0,0,1,160.75,75v26.67q-0.14,2.72,3,2.25a2.37,2.37,0,0,0,1.69-1.31,21.33,21.33,0,0,0,.7-6q0-1.41,1.5-.84,1.22,0.42,2.44,1a1.78,1.78,0,0,1,1.27,2,26.46,26.46,0,0,1-1.69,7.5,4.09,4.09,0,0,1-3.19,2.63,16,16,0,0,1-9.52-.75,3.47,3.47,0,0,1-1.78-2.53V80A1,1,0,0,0,154,78.83h-6.14a1.27,1.27,0,0,0-1.27,1.41A80.27,80.27,0,0,1,145.47,89a2,2,0,0,0,1,2.11q2.53,1.64,5.06,3.66,1.64,1.36.56,2.86l-1.45,2.11a1.45,1.45,0,0,1-2.39.33l-3.8-2.91q-1-.75-1.83.84a33.29,33.29,0,0,1-10.22,11.3q-1.69,1.22-2.67-.33L128.46,107a1.7,1.7,0,0,1,.42-2.48,31.05,31.05,0,0,0,8.91-10.12q0.56-1.12-.84-2-3-1.64-6-3.09a1.39,1.39,0,0,1-.84-2.06L131.13,85a1.5,1.5,0,0,1,2.11-.84q2.77,1.22,5.53,2.63,1.17,0.66,1.45-.8,0.47-3,.7-5.91a1,1,0,0,0-1-1.22h-8.48A1.26,1.26,0,0,1,130,77.42V75a1.26,1.26,0,0,1,1.41-1.45h8.72a1.22,1.22,0,0,0,1.22-1.41Z" style="fill:#963b3b"/></g><rect width="3" height="120" style="fill:#e2695b"/><rect x="384" width="120" height="120" style="fill:#fffbf5"/><rect x="256" width="120" height="120" style="fill:#fffbf5"/><g id="甜不辣"><path d="M276,47.33c0-8.67,0-18,4-24s12-8.67,18-9.33,10,0.67,14,.67,8-1.33,15.33-.67,18,3.33,23.33,9.33,5.33,15.33,5.33,24V72.67c0,8.67,0,18-2.67,24s-8,8.67-13.33,9.33-10.67-.67-16-0.67-10.67,1.33-18.67.67-18.67-3.33-24-9.33S276,81.33,276,72.67V47.33Z" style="fill:#f4d88c"/><path d="M345.66,83.08a34.19,34.19,0,0,1-.58,4,14.94,14.94,0,0,1-.85,2.81,7.31,7.31,0,0,1-.86,1.52,6,6,0,0,1-1.16,1.16,7.45,7.45,0,0,1-1.47.86,9.87,9.87,0,0,1-1.82.61,13.51,13.51,0,0,1-2.11.31,22.6,22.6,0,0,1-2.51,0c-1,0-2-.12-3-0.21-1.62-.15-3.24-0.33-4.86-0.43-1.35-.08-2.71-0.11-4.06-0.08s-2.58.12-3.87,0.23c-1.63.14-3.26,0.31-4.9,0.41-1.22.08-2.45,0.12-3.67,0.11a47.19,47.19,0,0,1-8.79-.9,36.51,36.51,0,0,1-6.93-2,19,19,0,0,1-3.47-1.82,10.75,10.75,0,0,1-1.2-.95,7.6,7.6,0,0,1-.86-0.92,9,9,0,0,1-1.3-2.4,17.89,17.89,0,0,1-.91-3.58q-0.13-.88-0.22-1.77H276.12c0.3,6.29,1.37,12.34,5.21,16.67,5.33,6,16,8.67,24,9.33s13.33-.67,18.67-0.67,10.67,1.33,16,.67,10.67-3.33,13.33-9.33c1.92-4.32,2.45-10.38,2.6-16.67H345.87C345.82,81,345.76,82.05,345.66,83.08Z" style="fill:url(#linear-gradient)"/><path d="M286.5,37.14a20.6,20.6,0,0,1,.91-3.94,10.54,10.54,0,0,1,.6-1.42,7.46,7.46,0,0,1,.66-1,8.68,8.68,0,0,1,2-1.82A15.55,15.55,0,0,1,294,27.18a24.61,24.61,0,0,1,6.76-1.5,23.24,23.24,0,0,1,2.8,0c0.92,0,1.84.15,2.76,0.26,1.31,0.16,2.63.33,3.95,0.42q1.47,0.1,2.95,0c0.61,0,1.23-.06,1.84-0.12,1.22-.11,2.43-0.27,3.65-0.39,1-.1,1.94-0.18,2.92-0.22a33.86,33.86,0,0,1,3.63.06q1.1,0.08,2.2.22t2.43,0.37A42.72,42.72,0,0,1,335,27.53a26.62,26.62,0,0,1,4.85,2,15.76,15.76,0,0,1,1.7,1.05,9.21,9.21,0,0,1,1.24,1A8.45,8.45,0,0,1,344.33,34a15.05,15.05,0,0,1,1.07,3.67c0.14,0.77.24,1.54,0.32,2.32h10.16c-0.3-6.29-1.37-12.34-5.21-16.67-5.33-6-16-8.67-23.33-9.33S316,14.67,312,14.67s-8-1.33-14-.67-14,3.33-18,9.33c-2.88,4.32-3.69,10.38-3.91,16.67H286.2C286.27,39,286.36,38.09,286.5,37.14Z" style="fill:url(#linear-gradient-2)"/><circle cx="304" cy="32" r="2" style="fill:#f2cd79"/><circle cx="292" cy="36" r="2" style="fill:#f2cd79"/><circle cx="300" cy="48" r="3" style="fill:#f2cd79"/><circle cx="296" cy="72" r="2" style="fill:#f2cd79"/><circle cx="344" cy="68" r="2" style="fill:#f2cd79"/><circle cx="308" cy="84" r="4" style="fill:#f2cd79"/></g><g id="花枝丸"><path d="M423.19,11.08A9.88,9.88,0,0,0,421.56,9a5.12,5.12,0,0,0-5.33,0,10,10,0,0,0-1.63,2.08,23.33,23.33,0,0,0-15,36.1,9.93,9.93,0,0,0-.31,2.62,5.11,5.11,0,0,0,3.77,3.77,9.83,9.83,0,0,0,2.62-.32A23.32,23.32,0,1,0,423.19,11.08Z" style="fill:#f4f0e8"/><path d="M449.82,90.29a23.33,23.33,0,0,1-18.63,18.63,9.88,9.88,0,0,1-1.63,2.08,5.11,5.11,0,0,1-5.33,0,9.94,9.94,0,0,1-1.63-2.08,23.32,23.32,0,0,1-15-36.1,10,10,0,0,1-.32-2.62,5.12,5.12,0,0,1,3.77-3.77,10,10,0,0,1,2.62.32,23.33,23.33,0,0,1,36.1,15,9.89,9.89,0,0,1,2.07,1.63,5.12,5.12,0,0,1,0,5.33A9.87,9.87,0,0,1,449.82,90.29Z" style="fill:#f4f0e8"/><path d="M448,47.7a23.32,23.32,0,0,1,36.1-15,10,10,0,0,1,2.62-.32,5.12,5.12,0,0,1,3.77,3.77,9.93,9.93,0,0,1-.32,2.62,23.32,23.32,0,0,1,0,26.35,9.94,9.94,0,0,1,.32,2.62,5.11,5.11,0,0,1-3.77,3.77,9.87,9.87,0,0,1-2.62-.32,23.32,23.32,0,0,1-36.1-15,10,10,0,0,1-2.08-1.63,5.12,5.12,0,0,1,0-5.33A9.94,9.94,0,0,1,448,47.7Z" style="fill:#f4f0e8"/><g style="opacity:0.5"><path d="M405.72,53.25l0.56,0.36a23.32,23.32,0,0,1,15.31-35.54A9.86,9.86,0,0,1,423.22,16a5.12,5.12,0,0,1,5.33,0,9.83,9.83,0,0,1,1.63,2.08,23.28,23.28,0,0,1,8.3,3.29,23.17,23.17,0,0,0-15.29-10.28A9.88,9.88,0,0,0,421.56,9a5.12,5.12,0,0,0-5.33,0,10,10,0,0,0-1.63,2.08,23.33,23.33,0,0,0-15,36.1,9.93,9.93,0,0,0-.31,2.62,5.11,5.11,0,0,0,3.77,3.77A9.83,9.83,0,0,0,405.72,53.25Z" style="fill:#f8f8f5"/><path d="M432.48,63.36a23.09,23.09,0,0,0-12.23.27,23.46,23.46,0,0,0-6.52,3.12,10,10,0,0,0-2.62-.32,5.12,5.12,0,0,0-3.77,3.77,10,10,0,0,0,.32,2.62,23.35,23.35,0,0,0,6.65,32.83,23.24,23.24,0,0,1,.34-25.84,9.94,9.94,0,0,1-.32-2.62,5.12,5.12,0,0,1,3.77-3.77,9.9,9.9,0,0,1,2.62.32,23.24,23.24,0,0,1,25.84-.34A23.4,23.4,0,0,0,432.48,63.36Z" style="fill:#f8f8f5"/><path d="M490.14,38.83a9.93,9.93,0,0,0,.32-2.62,5.12,5.12,0,0,0-3.77-3.77,10,10,0,0,0-2.62.32,23.33,23.33,0,0,0-35,11.13,23.43,23.43,0,0,1-3.6,9.84,3.45,3.45,0,0,0,.47.94A10,10,0,0,0,448,56.3a23.07,23.07,0,0,0,10.26,15.3A23.34,23.34,0,0,1,455,63.29a10,10,0,0,1-2.08-1.63,5.13,5.13,0,0,1,0-5.33A10,10,0,0,1,455,54.69a23.32,23.32,0,0,1,35.53-15.31C490.37,39.2,490.26,39,490.14,38.83Z" style="fill:#f8f8f5"/></g><g style="opacity:0.5"><path d="M425.49,56.37a23.23,23.23,0,0,0,12.95-9.64,23.6,23.6,0,0,0,2-3.81,23.32,23.32,0,0,0-8.95-28.56,23.31,23.31,0,0,1-32.2,32.26c0.12,0.18.23,0.37,0.35,0.55a9.93,9.93,0,0,0-.31,2.62,5.11,5.11,0,0,0,3.77,3.77,9.83,9.83,0,0,0,2.62-.32A23.25,23.25,0,0,0,425.49,56.37Z" style="fill:#e4dcd8"/><path d="M449.82,81.71a23.07,23.07,0,0,0-10.26-15.3,23.32,23.32,0,0,1,3.27,8.31,9.79,9.79,0,0,1,2.07,1.63,5.11,5.11,0,0,1,0,5.33,9.79,9.79,0,0,1-2.07,1.63,23.32,23.32,0,0,1-18.63,18.63,9.94,9.94,0,0,1-1.63,2.07,5.11,5.11,0,0,1-5.33,0,9.88,9.88,0,0,1-1.63-2.07,23.32,23.32,0,0,1-8.3-3.27,23.07,23.07,0,0,0,15.29,10.26,9.94,9.94,0,0,0,1.63,2.08,5.11,5.11,0,0,0,5.33,0,9.88,9.88,0,0,0,1.63-2.08,23.33,23.33,0,0,0,18.63-18.63,9.87,9.87,0,0,0,2.07-1.63,5.12,5.12,0,0,0,0-5.33A9.89,9.89,0,0,0,449.82,81.71Z" style="fill:#e4dcd8"/><path d="M490.14,38.83a9.93,9.93,0,0,0,.32-2.62,5.12,5.12,0,0,0-3.77-3.77,10,10,0,0,0-2.62.32l-0.57-.36a23.32,23.32,0,0,1-.35,25.79,9.94,9.94,0,0,1,.32,2.62,5.12,5.12,0,0,1-3.77,3.77,9.85,9.85,0,0,1-2.62-.31,23.24,23.24,0,0,1-25.84.34,23.35,23.35,0,0,0,32.83,6.65,9.87,9.87,0,0,0,2.62.32,5.11,5.11,0,0,0,3.77-3.77,9.94,9.94,0,0,0-.32-2.62A23.32,23.32,0,0,0,490.14,38.83Z" style="fill:#e4dcd8"/></g><path d="M426.89,52l-0.71.12a8.14,8.14,0,0,0-.81.13c-0.3.09-.65,0.12-1,0.25a5,5,0,0,0-1.09.46c-0.35.19-.7,0.52-1.18,0.78l-0.4.2-0.36.12a5.14,5.14,0,0,1-.8.19,10,10,0,0,1-3.25,0,4.83,4.83,0,0,1-1.56-.49c-0.49-.26-0.86-0.6-1.2-0.78a5,5,0,0,0-1.09-.46c-0.35-.13-0.71-0.17-1-0.25s-0.58-.09-0.81-0.13L410.89,52l0.72-.07a8.35,8.35,0,0,1,.84,0,6.38,6.38,0,0,1,1.1.06,4.48,4.48,0,0,1,1.3.35c0.47,0.2.84,0.47,1.23,0.65a4.67,4.67,0,0,0,1.33.34,11.54,11.54,0,0,0,1.48.09,11.33,11.33,0,0,0,1.48-.09,6.86,6.86,0,0,0,.69-0.12l0.36-.09,0.27-.11c0.39-.18.78-0.46,1.24-0.66a4.48,4.48,0,0,1,1.3-.35,6.48,6.48,0,0,1,1.11-.06c0.33,0,.6,0,0.83,0Z" style="fill:#be8490"/><path d="M426,15.62s0.22,0.15.59,0.42c0.19,0.13.4,0.32,0.67,0.48s0.55,0.38.89,0.54a5,5,0,0,0,1.09.45c0.38,0.11.86,0.13,1.39,0.29L431,17.93l0.34,0.17a5.22,5.22,0,0,1,.7.44,10,10,0,0,1,2.3,2.3,4.85,4.85,0,0,1,.75,1.45c0.16,0.52.18,1,.29,1.4a5,5,0,0,0,.45,1.09c0.16,0.34.38,0.62,0.54,0.89s0.35,0.48.48,0.67c0.27,0.37.42,0.59,0.42,0.59s-0.21-.16-0.56-0.46c-0.17-.16-0.4-0.32-0.62-0.56a6.36,6.36,0,0,1-.74-0.82,4.47,4.47,0,0,1-.67-1.17c-0.19-.48-0.26-0.93-0.41-1.33a4.68,4.68,0,0,0-.7-1.18,12.46,12.46,0,0,0-2.09-2.09c-0.2-.13-0.34-0.27-0.58-0.4l-0.32-.19-0.27-.11c-0.4-.15-0.88-0.23-1.34-0.42a4.5,4.5,0,0,1-1.17-.67,6.41,6.41,0,0,1-.82-0.74,8.14,8.14,0,0,1-.56-0.62C426.13,15.83,426,15.62,426,15.62Z" style="fill:#be8490"/><path d="M478.89,70l-0.71.12a8.14,8.14,0,0,0-.81.13c-0.3.08-.65,0.12-1,0.25a5,5,0,0,0-1.09.46c-0.35.19-.7,0.52-1.18,0.78l-0.4.2-0.36.12a5.2,5.2,0,0,1-.8.19,9.94,9.94,0,0,1-3.25,0,4.82,4.82,0,0,1-1.56-.5c-0.49-.26-0.86-0.6-1.2-0.78a5,5,0,0,0-1.09-.46c-0.35-.13-0.71-0.17-1-0.25s-0.58-.09-0.81-0.13L462.89,70l0.72-.07a8.35,8.35,0,0,1,.84,0,6.38,6.38,0,0,1,1.1.06,4.49,4.49,0,0,1,1.3.35c0.47,0.2.84,0.47,1.23,0.65a4.66,4.66,0,0,0,1.33.34,12.53,12.53,0,0,0,3,0c0.23-.05.43,0,0.69-0.12l0.36-.09,0.27-.11c0.39-.18.78-0.46,1.24-0.66a4.47,4.47,0,0,1,1.3-.35,6.48,6.48,0,0,1,1.11-.06c0.33,0,.6,0,0.83,0Z" style="fill:#be8490"/><path d="M452.51,44.93s0.15-.22.42-0.59c0.13-.19.32-0.4,0.48-0.67s0.38-.55.53-0.89a4.92,4.92,0,0,0,.45-1.09c0.11-.38.13-0.86,0.29-1.39,0-.14.07-0.24,0.15-0.42l0.17-.34a5.25,5.25,0,0,1,.44-0.7,12.41,12.41,0,0,1,1.06-1.25,12.29,12.29,0,0,1,1.24-1.05,4.84,4.84,0,0,1,1.45-.75c0.52-.16,1-0.18,1.4-0.29a5,5,0,0,0,1.09-.45c0.34-.16.62-0.38,0.89-0.54s0.48-.35.67-0.48c0.37-.27.59-0.42,0.59-0.42s-0.16.21-.46,0.56c-0.16.17-.32,0.4-0.56,0.62a6.42,6.42,0,0,1-.82.73,4.47,4.47,0,0,1-1.17.67c-0.48.19-.93,0.26-1.33,0.41a4.7,4.7,0,0,0-1.18.7,12.49,12.49,0,0,0-2.09,2.09,6.78,6.78,0,0,0-.4.58l-0.19.32-0.11.27c-0.15.4-.23,0.88-0.41,1.34a4.48,4.48,0,0,1-.67,1.17,6.37,6.37,0,0,1-.74.83c-0.22.24-.45,0.4-0.62,0.56C452.72,44.77,452.51,44.93,452.51,44.93Z" style="fill:#be8490"/><path d="M434,67.62s0.22,0.15.59,0.42a8.14,8.14,0,0,0,.67.48c0.27,0.15.55,0.37,0.89,0.53a4.92,4.92,0,0,0,1.09.45c0.38,0.11.86,0.13,1.39,0.29L439,69.93l0.34,0.17a5.23,5.23,0,0,1,.7.44,12.39,12.39,0,0,1,1.25,1.06,12.17,12.17,0,0,1,1.05,1.24,4.82,4.82,0,0,1,.75,1.45c0.16,0.52.18,1,.29,1.4a5,5,0,0,0,.45,1.09c0.16,0.34.38,0.62,0.54,0.89s0.35,0.48.48,0.67c0.27,0.37.42,0.59,0.42,0.59s-0.21-.16-0.56-0.46c-0.17-.16-0.4-0.32-0.62-0.56a6.36,6.36,0,0,1-.73-0.82,4.45,4.45,0,0,1-.67-1.17c-0.19-.48-0.26-0.93-0.41-1.33a4.66,4.66,0,0,0-.7-1.18,12.51,12.51,0,0,0-2.09-2.09c-0.2-.13-0.34-0.27-0.58-0.4l-0.32-.19-0.27-.11c-0.4-.15-0.88-0.23-1.34-0.42a4.51,4.51,0,0,1-1.17-.67,6.45,6.45,0,0,1-.83-0.74c-0.24-.22-0.4-0.45-0.56-0.62C434.13,67.83,434,67.62,434,67.62Z" style="fill:#be8490"/><path d="M408.89,94s-0.05-.26-0.12-0.71a8.11,8.11,0,0,0-.13-0.81c-0.08-.3-0.12-0.65-0.25-1a5,5,0,0,0-.46-1.09c-0.19-.35-0.52-0.7-0.78-1.18-0.07-.14-0.12-0.22-0.2-0.4l-0.12-.36a5.22,5.22,0,0,1-.19-0.81,12.37,12.37,0,0,1-.13-1.63,12.22,12.22,0,0,1,.13-1.62,4.79,4.79,0,0,1,.5-1.56c0.26-.49.6-0.86,0.79-1.2a5,5,0,0,0,.46-1.09c0.13-.35.17-0.71,0.25-1a8.15,8.15,0,0,0,.13-0.81c0.07-.45.12-0.71,0.12-0.71s0,0.26.07,0.72a8.26,8.26,0,0,1,0,.84,6.42,6.42,0,0,1-.06,1.1,4.51,4.51,0,0,1-.35,1.3c-0.2.47-.47,0.84-0.65,1.23a4.64,4.64,0,0,0-.34,1.33,12.43,12.43,0,0,0,0,3,7,7,0,0,0,.12.69l0.09,0.36,0.11,0.27c0.18,0.39.46,0.78,0.66,1.24a4.49,4.49,0,0,1,.35,1.3,6.5,6.5,0,0,1,.06,1.11c0,0.33,0,.6,0,0.83C408.93,93.74,408.89,94,408.89,94Z" style="fill:#be8490"/><path d="M445.28,93.07s-0.15.22-.42,0.59c-0.13.19-.32,0.4-0.48,0.67s-0.37.55-.53,0.89a4.88,4.88,0,0,0-.45,1.09c-0.11.38-.13,0.86-0.29,1.39,0,0.14-.07.24-0.15,0.42l-0.17.34a5.26,5.26,0,0,1-.44.7,10,10,0,0,1-2.3,2.3,4.83,4.83,0,0,1-1.45.75c-0.52.16-1,.18-1.4,0.29a5,5,0,0,0-1.09.45c-0.34.16-.62,0.38-0.89,0.54s-0.48.35-.67,0.48c-0.37.27-.59,0.42-0.59,0.42s0.16-.21.46-0.56c0.16-.17.32-0.4,0.56-0.62a6.35,6.35,0,0,1,.82-0.73,4.46,4.46,0,0,1,1.17-.67c0.48-.19.93-0.26,1.33-0.41a4.69,4.69,0,0,0,1.18-.7,11.63,11.63,0,0,0,1.11-1,11.42,11.42,0,0,0,1-1.11A7,7,0,0,0,442,98l0.19-.32,0.11-.27c0.15-.4.23-0.88,0.42-1.34a4.47,4.47,0,0,1,.67-1.17,6.4,6.4,0,0,1,.74-0.83c0.22-.24.45-0.4,0.62-0.56C445.07,93.23,445.28,93.07,445.28,93.07Z" style="fill:#be8490"/></g></svg>