<svg xmlns="http://www.w3.org/2000/svg" viewBox="0 0 528 120"><rect width="528" height="120" style="fill:#fffbf5"/><g id="米血_t"><text transform="translate(24 74.44)" style="font-size:48px;fill:#963b3b;font-family:HanWangHeiHeavy;letter-spacing:2px;opacity: 0;">米血</text><path d="M502.33,329.89a1.25,1.25,0,0,1,1.31-1.5h3.19a1.26,1.26,0,0,1,1.45,1.41v13a1,1,0,0,0,1.13,1.17h15.42a1.26,1.26,0,0,1,1.45,1.41v2.58a1.26,1.26,0,0,1-1.41,1.45h-11.2q-1.17,0-.19,1.45a34.79,34.79,0,0,0,11.34,10.22,1.43,1.43,0,0,1,.7,2.16q-0.8,1.41-1.45,2.81-0.89,1.73-2.34.84a43.75,43.75,0,0,1-12.52-12.42q-0.94-1.45-.94-0.28v15.89a1.26,1.26,0,0,1-1.41,1.45h-3.09a1.26,1.26,0,0,1-1.45-1.41V354.83q0-1.45-.94-0.23A44.82,44.82,0,0,1,488.73,367q-1.5.94-2.3-.37l-1.31-2.25a1.71,1.71,0,0,1,.52-2.62,43.15,43.15,0,0,0,11.67-11q0.89-1.36-.23-1.36H486.2a1.26,1.26,0,0,1-1.45-1.41v-2.58a1.26,1.26,0,0,1,1.41-1.45h15a1,1,0,0,0,1.17-1.12V329.89ZM491.83,332a1.75,1.75,0,0,1,2.53.42,41.5,41.5,0,0,1,3.47,5.67,1.58,1.58,0,0,1-.47,2.34q-1.36.7-2.72,1.55a1.26,1.26,0,0,1-2.06-.56,37.77,37.77,0,0,0-3.23-5.72q-1.08-1.5.23-2.3Zm24.47,0.14q0.7-1.64,2.11-1l3,1.36q1.45,0.7.61,2.44-1.41,3-3.19,6.09a1.64,1.64,0,0,1-2.3.75q-1.41-.75-2.81-1.36a1.33,1.33,0,0,1-.47-2.16A54.45,54.45,0,0,0,516.3,332.09Z" transform="translate(-457 -290)" style="fill:#963b3b"/><path d="M549.31,330.08q0.42-1.69,1.73-1.31l3.19,0.84a1.34,1.34,0,0,1,1,2l-0.89,2q-0.52,1.13.61,1.13h17.16a1.26,1.26,0,0,1,1.45,1.41v27.42a1,1,0,0,0,1.13,1.17h0.94a1.26,1.26,0,0,1,1.45,1.41v2.39A1.26,1.26,0,0,1,575.7,370H535.24a1.26,1.26,0,0,1-1.45-1.41v-2.39a1.26,1.26,0,0,1,1.41-1.45H536a1,1,0,0,0,1.17-1.12V336.22a1.26,1.26,0,0,1,1.41-1.45h8a1.84,1.84,0,0,0,1.69-1.41A33.22,33.22,0,0,0,549.31,330.08Zm-1.64,11.11a1,1,0,0,0-1.12-1.17h-2.72a1,1,0,0,0-1.17,1.13v22.45a1,1,0,0,0,1.13,1.17h2.72a1,1,0,0,0,1.17-1.12V341.19Zm10.13,0a1,1,0,0,0-1.12-1.17h-2.39a1,1,0,0,0-1.17,1.13v22.45a1,1,0,0,0,1.13,1.17h2.39a1,1,0,0,0,1.17-1.12V341.19Zm10.31,0A1,1,0,0,0,567,340H564.4a1,1,0,0,0-1.17,1.13v22.45a1,1,0,0,0,1.13,1.17h2.58a1,1,0,0,0,1.17-1.12V341.19Z" transform="translate(-457 -290)" style="fill:#963b3b"/></g><rect width="3" height="120" style="fill:#e2695b"/><rect x="384" width="120" height="120" style="fill:#fffbf5"/><g id="米血"><polygon points="473.97 116 476.48 114.51 475.23 109.38 471.48 105.73 468.97 107.22 470.22 112.36 473.97 116" style="fill:#464043"/><polygon points="466.64 14.59 469.14 13.1 467.9 7.96 464.15 4.31 461.64 5.8 462.88 10.94 466.64 14.59" style="fill:#464043"/><polygon points="462.84 34.47 465.35 32.98 464.11 27.84 460.36 24.2 457.85 25.69 459.09 30.83 462.84 34.47" style="fill:#464043"/><polygon points="444.07 28.01 446.58 26.52 445.33 21.38 441.58 17.74 439.08 19.23 440.32 24.37 444.07 28.01" style="fill:#464043"/><polygon points="451.59 23.54 454.1 22.05 452.85 16.91 449.1 13.26 446.6 14.75 447.84 19.89 451.59 23.54" style="fill:#464043"/><polygon points="464.11 27.84 466.62 26.35 465.37 21.22 461.62 17.57 459.11 19.06 460.36 24.2 464.11 27.84" style="fill:#464043"/><polygon points="476.62 32.15 479.13 30.66 477.89 25.52 474.14 21.88 471.63 23.37 472.87 28.51 476.62 32.15" style="fill:#464043"/><polygon points="432.82 17.08 435.32 15.58 434.08 10.45 430.33 6.8 427.82 8.29 429.06 13.43 432.82 17.08" style="fill:#464043"/><polygon points="420.3 12.77 422.81 11.28 421.57 6.14 417.81 2.49 415.31 3.99 416.55 9.12 420.3 12.77" style="fill:#464043"/><polygon points="466.57 49.88 469.08 48.39 467.83 43.26 464.09 39.61 461.58 41.1 462.82 46.24 466.57 49.88" style="fill:#464043"/><polygon points="455.32 38.95 457.83 37.46 456.58 32.32 452.83 28.67 450.33 30.16 451.57 35.3 455.32 38.95" style="fill:#464043"/><polygon points="474.1 45.41 476.6 43.92 475.36 38.78 471.61 35.13 469.1 36.63 470.34 41.76 474.1 45.41" style="fill:#464043"/><polygon points="442.8 34.64 445.31 33.15 444.07 28.01 440.32 24.37 437.81 25.86 439.05 30.99 442.8 34.64" style="fill:#464043"/><polygon points="436.55 32.49 439.05 30.99 437.81 25.86 434.06 22.21 431.55 23.7 432.8 28.84 436.55 32.49" style="fill:#464043"/><polygon points="424.03 28.18 426.54 26.69 425.29 21.55 421.54 17.91 419.04 19.4 420.28 24.53 424.03 28.18" style="fill:#464043"/><polygon points="411.51 23.87 414.02 22.38 412.78 17.24 409.03 13.6 406.52 15.09 407.76 20.23 411.51 23.87" style="fill:#464043"/><polygon points="451.46 94.13 453.97 92.64 452.73 87.5 448.98 83.86 446.47 85.35 447.71 90.48 451.46 94.13" style="fill:#464043"/><polygon points="476.5 102.75 479 101.25 477.76 96.12 474.01 92.47 471.5 93.96 472.75 99.1 476.5 102.75" style="fill:#464043"/><polygon points="462.72 105.07 465.23 103.58 463.98 98.44 460.23 94.79 457.72 96.28 458.97 101.42 462.72 105.07" style="fill:#464043"/><polygon points="437.69 96.45 440.19 94.96 438.95 89.82 435.2 86.18 432.69 87.67 433.94 92.81 437.69 96.45" style="fill:#464043"/><polygon points="425.17 92.15 427.67 90.65 426.43 85.52 422.68 81.87 420.17 83.36 421.42 88.5 425.17 92.15" style="fill:#464043"/><polygon points="453.99 80.87 456.5 79.38 455.26 74.25 451.51 70.6 449 72.09 450.24 77.23 453.99 80.87" style="fill:#464043"/><polygon points="466.51 85.18 469.02 83.69 467.77 78.55 464.02 74.91 461.52 76.4 462.76 81.53 466.51 85.18" style="fill:#464043"/><polygon points="465.25 91.81 467.75 90.32 466.51 85.18 462.76 81.53 460.25 83.03 461.49 88.16 465.25 91.81" style="fill:#464043"/><polygon points="440.21 83.19 442.72 81.7 441.48 76.56 437.73 72.92 435.22 74.41 436.46 79.55 440.21 83.19" style="fill:#464043"/><polygon points="427.7 78.89 430.2 77.39 428.96 72.26 425.21 68.61 422.7 70.11 423.95 75.24 427.7 78.89" style="fill:#464043"/><polygon points="415.18 74.58 417.69 73.09 416.44 67.95 412.69 64.31 410.19 65.8 411.43 70.94 415.18 74.58" style="fill:#464043"/><polygon points="437.75 61.16 440.26 59.66 439.01 54.53 435.26 50.88 432.75 52.37 434 57.51 437.75 61.16" style="fill:#464043"/><polygon points="450.26 65.46 452.77 63.97 451.53 58.83 447.78 55.19 445.27 56.68 446.51 61.82 450.26 65.46" style="fill:#464043"/><polygon points="469.04 71.92 471.54 70.43 470.3 65.29 466.55 61.65 464.04 63.14 465.29 68.28 469.04 71.92" style="fill:#464043"/><polygon points="462.78 69.77 465.29 68.28 464.04 63.14 460.29 59.49 457.79 60.99 459.03 66.13 462.78 69.77" style="fill:#464043"/><polygon points="449 72.09 451.51 70.6 450.26 65.46 446.51 61.82 444 63.31 445.25 68.45 449 72.09" style="fill:#464043"/><polygon points="430.23 65.63 432.73 64.14 431.49 59 427.74 55.35 425.23 56.85 426.48 61.98 430.23 65.63" style="fill:#464043"/><polygon points="411.45 59.17 413.96 57.68 412.72 52.54 408.96 48.9 406.46 50.39 407.7 55.52 411.45 59.17" style="fill:#464043"/><polygon points="420.24 48.07 422.74 46.57 421.5 41.44 417.75 37.79 415.24 39.28 416.49 44.42 420.24 48.07" style="fill:#464043"/><polygon points="459.05 54.36 461.56 52.87 460.31 47.73 456.56 44.09 454.06 45.58 455.3 50.71 459.05 54.36" style="fill:#464043"/><polygon points="477.82 60.82 480.33 59.33 479.09 54.19 475.34 50.55 472.83 52.04 474.07 57.17 477.82 60.82" style="fill:#464043"/><polygon points="446.54 50.05 449.04 48.56 447.8 43.42 444.05 39.78 441.54 41.27 442.78 46.41 446.54 50.05" style="fill:#464043"/><polygon points="434.02 45.74 436.52 44.25 435.28 39.12 431.53 35.47 429.02 36.96 430.27 42.1 434.02 45.74" style="fill:#464043"/><polygon points="421.5 41.44 424.01 39.95 422.77 34.81 419.02 31.16 416.51 32.65 417.75 37.79 421.5 41.44" style="fill:#464043"/><polygon points="415.12 109.88 417.63 108.39 416.38 103.25 412.63 99.6 410.12 101.1 411.37 106.23 415.12 109.88" style="fill:#464043"/><polygon points="428.9 107.56 431.41 106.06 430.16 100.93 426.41 97.28 423.9 98.78 425.15 103.91 428.9 107.56" style="fill:#464043"/><polygon points="455.19 109.54 457.7 108.05 456.46 102.92 452.71 99.27 450.2 100.76 451.44 105.9 455.19 109.54" style="fill:#464043"/><polygon points="442.68 105.23 445.19 103.74 443.94 98.61 440.19 94.96 437.69 96.45 438.93 101.59 442.68 105.23" style="fill:#464043"/><polygon points="417.65 96.62 420.15 95.13 418.91 89.99 415.16 86.35 412.65 87.84 413.89 92.98 417.65 96.62" style="fill:#464043"/><polygon points="436.48 67.78 438.99 66.29 437.75 61.16 434 57.51 431.49 59 432.73 64.14 436.48 67.78" style="fill:#464043"/><polygon points="477.89 25.52 480.39 24.03 479.15 18.89 475.4 15.25 472.89 16.74 474.14 21.88 477.89 25.52" style="fill:#393a3c"/><polygon points="465.37 21.22 467.88 19.72 466.64 14.59 462.88 10.94 460.37 12.43 461.62 17.57 465.37 21.22" style="fill:#393a3c"/><polygon points="452.85 16.91 455.36 15.42 454.12 10.28 450.37 6.63 447.86 8.13 449.1 13.26 452.85 16.91" style="fill:#393a3c"/><polygon points="440.34 12.6 442.84 11.11 441.6 5.97 437.85 2.33 435.34 3.82 436.59 8.95 440.34 12.6" style="fill:#393a3c"/><polygon points="472.89 16.74 475.4 15.25 474.16 10.11 470.41 6.47 467.9 7.96 469.14 13.1 472.89 16.74" style="fill:#393a3c"/><polygon points="479.15 18.89 481.66 17.4 480.42 12.26 476.66 8.62 474.16 10.11 475.4 15.25 479.15 18.89" style="fill:#393a3c"/><polygon points="412.78 17.24 415.29 15.75 414.04 10.62 410.29 6.97 407.79 8.46 409.03 13.6 412.78 17.24" style="fill:#393a3c"/><polygon points="425.29 21.55 427.8 20.06 426.56 14.92 422.81 11.28 420.3 12.77 421.54 17.91 425.29 21.55" style="fill:#393a3c"/><polygon points="437.81 25.86 440.32 24.37 439.08 19.23 435.32 15.58 432.82 17.08 434.06 22.21 437.81 25.86" style="fill:#393a3c"/><polygon points="469.1 36.63 471.61 35.13 470.36 30 466.62 26.35 464.11 27.84 465.35 32.98 469.1 36.63" style="fill:#393a3c"/><polygon points="450.33 30.16 452.83 28.67 451.59 23.54 447.84 19.89 445.33 21.38 446.58 26.52 450.33 30.16" style="fill:#393a3c"/><polygon points="422.77 34.81 425.27 33.32 424.03 28.18 420.28 24.53 417.77 26.02 419.02 31.16 422.77 34.81" style="fill:#393a3c"/><polygon points="435.28 39.12 437.79 37.62 436.55 32.49 432.8 28.84 430.29 30.33 431.53 35.47 435.28 39.12" style="fill:#393a3c"/><polygon points="479.09 54.19 481.6 52.7 480.35 47.56 476.6 43.92 474.1 45.41 475.34 50.55 479.09 54.19" style="fill:#393a3c"/><polygon points="480.35 47.56 482.86 46.07 481.62 40.94 477.87 37.29 475.36 38.78 476.6 43.92 480.35 47.56" style="fill:#393a3c"/><polygon points="447.8 43.42 450.31 41.93 449.06 36.79 445.31 33.15 442.8 34.64 444.05 39.78 447.8 43.42" style="fill:#393a3c"/><polygon points="461.58 41.1 464.09 39.61 462.84 34.47 459.09 30.83 456.58 32.32 457.83 37.46 461.58 41.1" style="fill:#393a3c"/><polygon points="420.17 83.36 422.68 81.87 421.44 76.73 417.69 73.09 415.18 74.58 416.42 79.72 420.17 83.36" style="fill:#393a3c"/><polygon points="457.72 96.28 460.23 94.79 458.99 89.66 455.24 86.01 452.73 87.5 453.97 92.64 457.72 96.28" style="fill:#393a3c"/><polygon points="468.97 107.22 471.48 105.73 470.24 100.59 466.49 96.95 463.98 98.44 465.23 103.58 468.97 107.22" style="fill:#393a3c"/><polygon points="443.94 98.61 446.45 97.11 445.21 91.98 441.46 88.33 438.95 89.82 440.19 94.96 443.94 98.61" style="fill:#393a3c"/><polygon points="431.43 94.3 433.94 92.81 432.69 87.67 428.94 84.02 426.43 85.52 427.67 90.65 431.43 94.3" style="fill:#393a3c"/><polygon points="412.65 87.84 415.16 86.35 413.92 81.21 410.17 77.56 407.66 79.06 408.9 84.19 412.65 87.84" style="fill:#393a3c"/><polygon points="416.44 67.95 418.95 66.46 417.71 61.32 413.96 57.68 411.45 59.17 412.69 64.31 416.44 67.95" style="fill:#393a3c"/><polygon points="479.03 89.49 481.53 88 480.29 82.86 476.54 79.22 474.03 80.7 475.27 85.84 479.03 89.49" style="fill:#393a3c"/><polygon points="472.77 87.33 475.27 85.84 474.03 80.7 470.28 77.06 467.77 78.55 469.02 83.69 472.77 87.33" style="fill:#393a3c"/><polygon points="460.25 83.03 462.76 81.53 461.52 76.4 457.77 72.75 455.26 74.25 456.5 79.38 460.25 83.03" style="fill:#393a3c"/><polygon points="446.47 85.35 448.98 83.86 447.73 78.72 443.98 75.08 441.48 76.56 442.72 81.7 446.47 85.35" style="fill:#393a3c"/><polygon points="433.96 81.04 436.46 79.55 435.22 74.41 431.47 70.77 428.96 72.26 430.2 77.39 433.96 81.04" style="fill:#393a3c"/><polygon points="412.72 52.54 415.22 51.05 413.98 45.91 410.23 42.27 407.72 43.76 408.96 48.9 412.72 52.54" style="fill:#393a3c"/><polygon points="431.49 59 434 57.51 432.75 52.37 429 48.73 426.5 50.22 427.74 55.35 431.49 59" style="fill:#393a3c"/><polygon points="475.29 74.08 477.8 72.59 476.56 67.45 472.81 63.8 470.3 65.29 471.54 70.43 475.29 74.08" style="fill:#393a3c"/><polygon points="456.52 67.62 459.03 66.13 457.79 60.99 454.03 57.34 451.53 58.83 452.77 63.97 456.52 67.62" style="fill:#393a3c"/><polygon points="442.74 69.94 445.25 68.45 444 63.31 440.26 59.66 437.75 61.16 438.99 66.29 442.74 69.94" style="fill:#393a3c"/><polygon points="423.97 63.48 426.48 61.98 425.23 56.85 421.48 53.2 418.97 54.69 420.21 59.83 423.97 63.48" style="fill:#393a3c"/><polygon points="432.75 52.37 435.26 50.88 434.02 45.74 430.27 42.1 427.76 43.59 429 48.73 432.75 52.37" style="fill:#393a3c"/><polygon points="445.27 56.68 447.78 55.19 446.54 50.05 442.78 46.41 440.28 47.9 441.52 53.03 445.27 56.68" style="fill:#393a3c"/><polygon points="476.56 67.45 479.07 65.96 477.82 60.82 474.07 57.17 471.57 58.66 472.81 63.8 476.56 67.45" style="fill:#393a3c"/><polygon points="452.79 52.2 455.3 50.71 454.06 45.58 450.31 41.93 447.8 43.42 449.04 48.56 452.79 52.2" style="fill:#393a3c"/><polygon points="465.31 56.51 467.81 55.02 466.57 49.88 462.82 46.24 460.31 47.73 461.56 52.87 465.31 56.51" style="fill:#393a3c"/><polygon points="427.63 114.19 430.14 112.69 428.9 107.56 425.15 103.91 422.64 105.4 423.88 110.54 427.63 114.19" style="fill:#393a3c"/><polygon points="416.38 103.25 418.89 101.76 417.65 96.62 413.89 92.98 411.39 94.47 412.63 99.6 416.38 103.25" style="fill:#393a3c"/><polygon points="435.15 109.71 437.66 108.22 436.42 103.08 432.67 99.44 430.16 100.93 431.41 106.06 435.15 109.71" style="fill:#393a3c"/><polygon points="447.67 114.02 450.18 112.53 448.94 107.39 445.19 103.74 442.68 105.23 443.92 110.37 447.67 114.02" style="fill:#393a3c"/><polygon points="461.45 111.69 463.96 110.2 462.72 105.07 458.97 101.42 456.46 102.92 457.7 108.05 461.45 111.69" style="fill:#393a3c"/><polygon points="411.39 94.47 413.89 92.98 412.65 87.84 408.9 84.19 406.4 85.69 407.64 90.82 411.39 94.47" style="fill:#393a3c"/><polygon points="459.11 19.06 461.62 17.57 460.37 12.43 456.63 8.79 454.12 10.28 455.36 15.42 459.11 19.06" style="fill:#3b3433"/><polygon points="419.04 19.4 421.54 17.91 420.3 12.77 416.55 9.12 414.04 10.62 415.29 15.75 419.04 19.4" style="fill:#3b3433"/><polygon points="431.55 23.7 434.06 22.21 432.82 17.08 429.06 13.43 426.56 14.92 427.8 20.06 431.55 23.7" style="fill:#3b3433"/><polygon points="456.58 32.32 459.09 30.83 457.85 25.69 454.1 22.05 451.59 23.54 452.83 28.67 456.58 32.32" style="fill:#3b3433"/><polygon points="445.33 21.38 447.84 19.89 446.6 14.75 442.85 11.11 440.34 12.6 441.58 17.74 445.33 21.38" style="fill:#3b3433"/><polygon points="470.36 30 472.87 28.51 471.63 23.37 467.88 19.72 465.37 21.22 466.62 26.35 470.36 30" style="fill:#3b3433"/><polygon points="416.51 32.65 419.02 31.16 417.77 26.02 414.02 22.38 411.51 23.87 412.76 29.01 416.51 32.65" style="fill:#3b3433"/><polygon points="429.02 36.96 431.53 35.47 430.29 30.33 426.54 26.69 424.03 28.18 425.27 33.32 429.02 36.96" style="fill:#3b3433"/><polygon points="460.31 47.73 462.82 46.24 461.58 41.1 457.83 37.46 455.32 38.95 456.56 44.09 460.31 47.73" style="fill:#3b3433"/><polygon points="449.06 36.79 451.57 35.3 450.33 30.16 446.58 26.52 444.07 28.01 445.31 33.15 449.06 36.79" style="fill:#3b3433"/><polygon points="467.83 43.26 470.34 41.76 469.1 36.63 465.35 32.98 462.84 34.47 464.09 39.61 467.83 43.26" style="fill:#3b3433"/><polygon points="413.92 81.21 416.42 79.72 415.18 74.58 411.43 70.94 408.92 72.43 410.17 77.56 413.92 81.21" style="fill:#3b3433"/><polygon points="426.43 85.52 428.94 84.02 427.7 78.89 423.95 75.24 421.44 76.73 422.68 81.87 426.43 85.52" style="fill:#3b3433"/><polygon points="438.95 89.82 441.46 88.33 440.21 83.19 436.46 79.55 433.96 81.04 435.2 86.18 438.95 89.82" style="fill:#3b3433"/><polygon points="463.98 98.44 466.49 96.95 465.25 91.81 461.49 88.16 458.99 89.66 460.23 94.79 463.98 98.44" style="fill:#3b3433"/><polygon points="475.23 109.38 477.74 107.88 476.5 102.75 472.75 99.1 470.24 100.59 471.48 105.73 475.23 109.38" style="fill:#3b3433"/><polygon points="450.2 100.76 452.71 99.27 451.46 94.13 447.71 90.48 445.21 91.98 446.45 97.11 450.2 100.76" style="fill:#3b3433"/><polygon points="422.7 70.11 425.21 68.61 423.97 63.48 420.21 59.83 417.71 61.32 418.95 66.46 422.7 70.11" style="fill:#3b3433"/><polygon points="435.22 74.41 437.73 72.92 436.48 67.78 432.73 64.14 430.23 65.63 431.47 70.77 435.22 74.41" style="fill:#3b3433"/><polygon points="447.73 78.72 450.24 77.23 449 72.09 445.25 68.45 442.74 69.94 443.98 75.08 447.73 78.72" style="fill:#3b3433"/><polygon points="471.5 93.96 474.01 92.47 472.77 87.33 469.02 83.69 466.51 85.18 467.75 90.32 471.5 93.96" style="fill:#3b3433"/><polygon points="452.73 87.5 455.24 86.01 453.99 80.87 450.24 77.23 447.73 78.72 448.98 83.86 452.73 87.5" style="fill:#3b3433"/><polygon points="418.97 54.69 421.48 53.2 420.24 48.07 416.49 44.42 413.98 45.91 415.22 51.05 418.97 54.69" style="fill:#3b3433"/><polygon points="444 63.31 446.51 61.82 445.27 56.68 441.52 53.03 439.01 54.53 440.26 59.66 444 63.31" style="fill:#3b3433"/><polygon points="461.52 76.4 464.02 74.91 462.78 69.77 459.03 66.13 456.52 67.62 457.77 72.75 461.52 76.4" style="fill:#3b3433"/><polygon points="474.03 80.7 476.54 79.22 475.29 74.08 471.54 70.43 469.04 71.92 470.28 77.06 474.03 80.7" style="fill:#3b3433"/><polygon points="413.98 45.91 416.49 44.42 415.24 39.28 411.49 35.64 408.98 37.13 410.23 42.27 413.98 45.91" style="fill:#3b3433"/><polygon points="426.5 50.22 429 48.73 427.76 43.59 424.01 39.95 421.5 41.44 422.74 46.57 426.5 50.22" style="fill:#3b3433"/><polygon points="470.3 65.29 472.81 63.8 471.57 58.66 467.81 55.02 465.31 56.51 466.55 61.65 470.3 65.29" style="fill:#3b3433"/><polygon points="457.79 60.99 460.29 59.49 459.05 54.36 455.3 50.71 452.79 52.2 454.03 57.34 457.79 60.99" style="fill:#3b3433"/><polygon points="471.57 58.66 474.07 57.17 472.83 52.04 469.08 48.39 466.57 49.88 467.81 55.02 471.57 58.66" style="fill:#3b3433"/><polygon points="440.28 47.9 442.78 46.41 441.54 41.27 437.79 37.62 435.28 39.12 436.52 44.25 440.28 47.9" style="fill:#3b3433"/><polygon points="421.38 112.03 423.88 110.54 422.64 105.4 418.89 101.76 416.38 103.25 417.63 108.39 421.38 112.03" style="fill:#3b3433"/><polygon points="453.93 116.17 456.44 114.68 455.19 109.54 451.44 105.9 448.94 107.39 450.18 112.53 453.93 116.17" style="fill:#3b3433"/><polygon points="436.42 103.08 438.93 101.59 437.69 96.45 433.94 92.81 431.43 94.3 432.67 99.44 436.42 103.08" style="fill:#3b3433"/><polygon points="423.9 98.78 426.41 97.28 425.17 92.15 421.42 88.5 418.91 89.99 420.15 95.13 423.9 98.78" style="fill:#3b3433"/><polygon points="441.41 111.86 443.92 110.37 442.68 105.23 438.93 101.59 436.42 103.08 437.66 108.22 441.41 111.86" style="fill:#3b3433"/><polygon points="410.25 30.5 412.76 29.01 411.51 23.87 407.76 20.23 405.26 21.72 406.5 26.85 410.25 30.5" style="fill:#505051"/><polygon points="410.19 65.8 412.69 64.31 411.45 59.17 407.7 55.52 405.19 57.02 406.44 62.15 410.19 65.8" style="fill:#505051"/><polygon points="410.12 101.1 412.63 99.6 411.39 94.47 407.64 90.82 405.13 92.31 406.37 97.45 410.12 101.1" style="fill:#505051"/><polygon points="471.63 23.37 474.14 21.88 472.89 16.74 469.14 13.1 466.64 14.59 467.88 19.72 471.63 23.37" style="fill:#505051"/><polygon points="446.6 14.75 449.1 13.26 447.86 8.13 444.11 4.48 441.6 5.97 442.85 11.11 446.6 14.75" style="fill:#505051"/><polygon points="475.36 38.78 477.87 37.29 476.62 32.15 472.87 28.51 470.36 30 471.61 35.13 475.36 38.78" style="fill:#505051"/><polygon points="457.85 25.69 460.36 24.2 459.11 19.06 455.36 15.42 452.85 16.91 454.1 22.05 457.85 25.69" style="fill:#505051"/><polygon points="460.37 12.43 462.88 10.94 461.64 5.8 457.89 2.16 455.38 3.65 456.62 8.79 460.37 12.43" style="fill:#505051"/><polygon points="439.08 19.23 441.58 17.74 440.34 12.6 436.59 8.96 434.08 10.45 435.32 15.58 439.08 19.23" style="fill:#505051"/><polygon points="426.56 14.92 429.06 13.43 427.82 8.29 424.07 4.65 421.57 6.14 422.81 11.28 426.56 14.92" style="fill:#505051"/><polygon points="441.54 41.27 444.05 39.78 442.8 34.64 439.05 30.99 436.55 32.49 437.79 37.62 441.54 41.27" style="fill:#505051"/><polygon points="472.83 52.04 475.34 50.55 474.1 45.41 470.34 41.76 467.83 43.26 469.08 48.39 472.83 52.04" style="fill:#505051"/><polygon points="454.06 45.58 456.56 44.09 455.32 38.95 451.57 35.3 449.06 36.79 450.31 41.93 454.06 45.58" style="fill:#505051"/><polygon points="430.29 30.33 432.8 28.84 431.55 23.7 427.8 20.06 425.29 21.55 426.54 26.69 430.29 30.33" style="fill:#505051"/><polygon points="417.77 26.02 420.28 24.53 419.04 19.4 415.29 15.75 412.78 17.24 414.02 22.38 417.77 26.02" style="fill:#505051"/><polygon points="432.69 87.67 435.2 86.18 433.96 81.04 430.2 77.39 427.7 78.89 428.94 84.02 432.69 87.67" style="fill:#505051"/><polygon points="445.21 91.98 447.71 90.48 446.47 85.35 442.72 81.7 440.21 83.19 441.46 88.33 445.21 91.98" style="fill:#505051"/><polygon points="470.24 100.59 472.75 99.1 471.5 93.96 467.75 90.32 465.25 91.81 466.49 96.95 470.24 100.59" style="fill:#505051"/><polygon points="456.46 102.92 458.97 101.42 457.72 96.28 453.97 92.64 451.46 94.13 452.71 99.27 456.46 102.92" style="fill:#505051"/><polygon points="418.91 89.99 421.42 88.5 420.17 83.36 416.42 79.72 413.92 81.21 415.16 86.35 418.91 89.99" style="fill:#505051"/><polygon points="428.96 72.26 431.47 70.77 430.23 65.63 426.48 61.98 423.97 63.48 425.21 68.61 428.96 72.26" style="fill:#505051"/><polygon points="441.48 76.56 443.98 75.08 442.74 69.94 438.99 66.29 436.48 67.78 437.73 72.92 441.48 76.56" style="fill:#505051"/><polygon points="458.99 89.66 461.49 88.16 460.25 83.03 456.5 79.38 453.99 80.87 455.24 86.01 458.99 89.66" style="fill:#505051"/><polygon points="477.76 96.12 480.27 94.63 479.03 89.49 475.27 85.84 472.77 87.33 474.01 92.47 477.76 96.12" style="fill:#505051"/><polygon points="421.44 76.73 423.95 75.24 422.7 70.11 418.95 66.46 416.44 67.95 417.69 73.09 421.44 76.73" style="fill:#505051"/><polygon points="425.23 56.85 427.74 55.35 426.5 50.22 422.74 46.57 420.24 48.07 421.48 53.2 425.23 56.85" style="fill:#505051"/><polygon points="455.26 74.25 457.77 72.75 456.52 67.62 452.77 63.97 450.26 65.46 451.51 70.6 455.26 74.25" style="fill:#505051"/><polygon points="467.77 78.55 470.28 77.06 469.04 71.92 465.29 68.28 462.78 69.77 464.02 74.91 467.77 78.55" style="fill:#505051"/><polygon points="417.71 61.32 420.21 59.83 418.97 54.69 415.22 51.05 412.72 52.54 413.96 57.68 417.71 61.32" style="fill:#505051"/><polygon points="439.01 54.53 441.52 53.03 440.28 47.9 436.52 44.25 434.02 45.74 435.26 50.88 439.01 54.53" style="fill:#505051"/><polygon points="464.04 63.14 466.55 61.65 465.31 56.51 461.56 52.87 459.05 54.36 460.29 59.49 464.04 63.14" style="fill:#505051"/><polygon points="451.53 58.83 454.03 57.34 452.79 52.2 449.04 48.56 446.54 50.05 447.78 55.19 451.53 58.83" style="fill:#505051"/><polygon points="427.76 43.59 430.27 42.1 429.02 36.96 425.27 33.32 422.77 34.81 424.01 39.95 427.76 43.59" style="fill:#505051"/><polygon points="415.24 39.28 417.75 37.79 416.51 32.65 412.76 29.01 410.25 30.5 411.49 35.64 415.24 39.28" style="fill:#505051"/><polygon points="433.89 116.34 436.4 114.85 435.15 109.71 431.41 106.06 428.9 107.56 430.14 112.69 433.89 116.34" style="fill:#505051"/><polygon points="422.64 105.4 425.15 103.91 423.9 98.78 420.15 95.13 417.65 96.62 418.89 101.76 422.64 105.4" style="fill:#505051"/><polygon points="467.71 113.85 470.22 112.36 468.97 107.22 465.23 103.58 462.72 105.07 463.96 110.2 467.71 113.85" style="fill:#505051"/><polygon points="448.94 107.39 451.44 105.9 450.2 100.76 446.45 97.11 443.94 98.61 445.19 103.74 448.94 107.39" style="fill:#505051"/><polygon points="430.16 100.93 432.67 99.44 431.43 94.3 427.67 90.65 425.17 92.15 426.41 97.28 430.16 100.93" style="fill:#505051"/><polygon points="480.29 82.86 482.8 81.37 481.55 76.23 477.8 72.59 475.29 74.08 476.54 79.22 480.29 82.86" style="fill:#505051"/><rect x="475.92" y="6.81" width="10.91" height="106.38" style="fill:#fffbf5"/><rect x="401.67" y="2.16" width="85.17" height="8.78" style="fill:#fffbf5"/><rect x="401.67" y="2.16" width="10.97" height="111.03" style="fill:#fffbf5"/><rect x="401.67" y="107.39" width="76.07" height="8.95" style="fill:#fffbf5"/></g></svg>