 <svg xmlns="http://www.w3.org/2000/svg" viewBox="0 0 528 120"><rect width="528" height="120" style="fill:#fffbf5"/><g id="肝臟_t"><text transform="translate(24 74.44)" style="font-size:48px;fill:#963b3b;font-family:HanWangHeiHeavy;letter-spacing:2px;opacity: 0">肝臟</text><path d="M485.83,330.64a1.26,1.26,0,0,1,1.41-1.45h13.22a1.26,1.26,0,0,1,1.45,1.41v34.59q-0.84,6.66-7.45,5.63a2,2,0,0,1-1.73-1.69l-0.61-2.86q-0.28-1.5,1.41-.89,2.72,1.08,3-2.53v-5.39a1,1,0,0,0-1.12-1.17h-3a1.22,1.22,0,0,0-1.22,1.41,52.62,52.62,0,0,1-1.64,11.39,1.43,1.43,0,0,1-2.06,1.08l-2.48-.94a1.62,1.62,0,0,1-.89-2.3,51.07,51.07,0,0,0,1.69-13.12V330.64Zm10.73,4.88a1,1,0,0,0-1.12-1.17h-3a1,1,0,0,0-1.17,1.13V339a1,1,0,0,0,1.13,1.17h3a1,1,0,0,0,1.17-1.12v-3.56Zm0,11.2a1,1,0,0,0-1-1.27h-3.09a1,1,0,0,0-1.17,1.13V350a1,1,0,0,0,1.13,1.17h3a1,1,0,0,0,1.17-1.12v-3.28Zm7.64-15.84a1.25,1.25,0,0,1,1.31-1.5h18.84a1.26,1.26,0,0,1,1.45,1.41v2.48a1.26,1.26,0,0,1-1.41,1.45h-5.53a1,1,0,0,0-1.17,1.13v8.67a1,1,0,0,0,1.13,1.17h6.8a1.26,1.26,0,0,1,1.45,1.41v2.53a1.26,1.26,0,0,1-1.41,1.45h-6.8a1,1,0,0,0-1.17,1.13v17.86a1.26,1.26,0,0,1-1.41,1.45h-2.77a1.26,1.26,0,0,1-1.45-1.41V352.25a1,1,0,0,0-1.12-1.17h-6.37a1.26,1.26,0,0,1-1.45-1.41v-2.53a1.26,1.26,0,0,1,1.41-1.45h6.38a1,1,0,0,0,1.17-1.12v-8.67a1,1,0,0,0-1.12-1.17h-5.3a1.26,1.26,0,0,1-1.45-1.41v-2.44Z" transform="translate(-457 -290)" style="fill:#963b3b"/><path d="M553.76,329.47a1.07,1.07,0,0,1,1.31-1.08h2.48q1.45,0,1.45,1a1,1,0,0,0,1.13,1.08h3.7a1,1,0,0,0,1.17-1q0-1.08,1.41-1.08h2.3q1.45,0,1.45,1a1,1,0,0,0,1.13,1.08h4.59a1.26,1.26,0,0,1,1.45,1.41v1.83q0,1.41-.42,1.45t0.23,1.08q0.56,1.13-.09,1.55-1.08.52-.89,0.66a1.3,1.3,0,0,0,.56.09q0.42,0,.42,1.41v1.41a1.26,1.26,0,0,1-1.41,1.45h-2.39a1,1,0,0,0-1.17,1.13l0.19,6.66q0,1.45.47,0.28l0.47-2.11q0.33-1.55,1.64-1.12l1.31,0.47a1.66,1.66,0,0,1,1.36,2.06,69.26,69.26,0,0,1-3.42,10.92q-1.12,1.31,0,4.69,0.56,1.45.56,0.56v-1.73a1,1,0,0,1,1.41-1,0.9,0.9,0,0,0,.47.14q1.78,0.56,1.69,2a13.13,13.13,0,0,1-.7,3.42,2.79,2.79,0,0,1-3,2.44,2.59,2.59,0,0,1-1.83-1.22,8.79,8.79,0,0,1-1.17-2.3q-0.47-1.12-1.5.14L568.71,370q-1.64,1.69-2.77.19a2.2,2.2,0,0,0-.42-0.56q-0.94-1.27-.28-2t-0.42-.84h-2.44q-1.17,0-1.17.8t-1.41.89h-1.22a1.26,1.26,0,0,1-1.45-1.41v-21.8a1.26,1.26,0,0,1,1.41-1.45h7.41a1.26,1.26,0,0,1,1.45,1.41v1q0,1.45-.61,1.45t-0.7,1.36q0,1.45.84,1.45t0.89,1.41v6.52q0,1.45-.84,1.45t-0.89,1.45q0,1.55.7,1.55a0.64,0.64,0,0,1,.8.52q0.09,0.75,1-.61l0.7-1.31q0.56-.75,0-2.81A107.91,107.91,0,0,1,568,343.91a1.09,1.09,0,0,0-1.22-1.12h-9.33a1,1,0,0,0-1.17,1.13v12.84a37.12,37.12,0,0,1-2.86,13.64,1.18,1.18,0,0,1-2,.66l-1-.66a2,2,0,0,1-.94-2.58,33.83,33.83,0,0,0,2.39-10.69q0-1.12-.19-1.17t-0.47,1.36a25.45,25.45,0,0,1-1.69,6.94q-0.8,1.83-2.16,1.13t-1.41.7q-0.75,5.91-6.19,4.92a1.31,1.31,0,0,1-.8-1q-0.24-1.08-.56.09t-1.69.56l-1.83-.66a1.55,1.55,0,0,1-1.08-2,77.49,77.49,0,0,0,1.36-12.56v-24.8a1.26,1.26,0,0,1,1.41-1.45h8a1.26,1.26,0,0,1,1.45,1.41v30.33q0,1.73.56,0.09a21.2,21.2,0,0,0,.8-4q0-1-.42-1t-0.37-1.45v-1.36a1.26,1.26,0,0,1,1.41-1.45h2.86a1.15,1.15,0,0,0,0-2.3h-2.25A1.26,1.26,0,0,1,547.2,348v-8.2a1.26,1.26,0,0,1,1.41-1.45h1.08a1.26,1.26,0,0,1,1.45,1.41V344q0,1.13.42,1.17T552,344v-4a1.26,1.26,0,0,1,1.41-1.45h13.22q1.17,0,1.17-.52t-1.36-.61q-1.45,0-1.45-1.08a1,1,0,0,0-1.12-1.17h-3.7a1,1,0,0,0-1.17,1q0,1.08-1.41,1.08h-2.39q-1.45,0-1.45-1a1,1,0,0,0-1.12-1.08h-3.42a1.26,1.26,0,0,1-1.45-1.41v-1.83a1.26,1.26,0,0,1,1.41-1.45h3.42A1,1,0,0,0,553.76,329.47ZM541.38,356.8q0-1.22-.7-1.22T539.79,357q-0.09,4.41-.56,8.25-0.09,1.08.56,1.17a1.14,1.14,0,0,0,1.31-.84,6.34,6.34,0,0,0,.28-1.5V356.8Zm0-21.75q0-1.22-.7-1.22T539.84,335v3.94q0,1.17.75,1.17t0.8-1.12V335Zm0,10.78q0-1.17-.75-1.17t-0.8,1.13v3.94q0,1.17.75,1.17t0.8-1.12v-3.94Zm21,3.33q0-1.45-.52-1.45t-0.61,1.36q0,1.45.52,1.45T562.34,349.16Zm1.55,6.09q0-.84-1.27-0.84t-1.41.75q0,0.8,1.31.8T563.88,355.25Zm-1.55,6.19q0-1.55-.52-1.55t-0.61,1.45q0,1.55.52,1.55T562.34,361.44Zm10.08-25.87q0.42-.42-1-0.42t-1.27.8a0.81,0.81,0,0,0,.94.89,0.9,0.9,0,0,1,1,.84,0.68,0.68,0,0,0,.66.84q0.7,0,0-1.36Q572,335.94,572.42,335.56Z" transform="translate(-457 -290)" style="fill:#963b3b"/></g><rect width="3" height="120" style="fill:#e2695b"/><rect x="384" width="120" height="120" style="fill:#fffbf5"/><g id="肝臟"><path d="M858.33,340c-0.67-8-2-12-.67-14s5.33-2,9.33-2h16.34c8.33,0,21,0,31.33,3.67A44.1,44.1,0,0,1,938,347.33c5,8.67,7,18.67,8,24.33s1,7,.33,8-2,1.67-9.67,1a296,296,0,0,1-29.33-4.33c-7.67-1.67-9-3-10.34-3.33s-2.67.33-7.67,0.67a186.45,186.45,0,0,1-19.33,0c-5.67-.33-8.34-1-9.67-7.33S859,348,858.33,340Z" transform="translate(-457 -290)" style="fill:#bf5264"/><path d="M865.66,335.33c-1.33-1.33-2.06-2.93-1-4s3.67-1.33,6.67-1.33h13.33c7,0,17.67,0,26.33,3s15.33,9,19.33,13.33,5.33,7,5.33,8.67c0,1.14-1.24,1.06-4.94-2.53a57.06,57.06,0,0,0-21.39-12.93C899,336.2,885,336.67,877,336.67S867,336.67,865.66,335.33Z" transform="translate(-457 -290)" style="fill:#d3cbd1;opacity:0.7"/></g></svg>