<svg xmlns="http://www.w3.org/2000/svg" viewBox="0 0 480 120"><rect width="480" height="120" style="fill:#fffbf5"/><rect x="336" width="120" height="120" style="fill:#fffbf5"/><rect width="3" height="120" style="fill:#e2695b"/><g id="蔬果_t"><text transform="translate(24 74.44)" style="font-size:48px;fill:#963b3b;font-family:HanWangHeiHeavy;letter-spacing:2px;opacity: 0">蔬果</text><path d="M36.89,39.56a1.1,1.1,0,0,1,1.31-1.17h2.67q1.45,0,1.45,1.08a1,1,0,0,0,1.13,1.17h9.19a1,1,0,0,0,1.17-1.08,1.15,1.15,0,0,1,1.41-1.17H57.8q1.45,0,1.45,1.08a1,1,0,0,0,1.13,1.17h7.88A1.26,1.26,0,0,1,69.7,42v2.2A1.26,1.26,0,0,1,68.3,45.7H60.42q-1.12,0-1.17.33t-1.45.38H55.27q-1.41,0-1.45-.33t-1.17-.37H43.5q-1.17,0-1.17.52t-1.41.56H38.34q-1.45,0-1.45-.52t-1.12-.56H28a1.26,1.26,0,0,1-1.45-1.41v-2.2A1.26,1.26,0,0,1,28,40.64h7.73A1,1,0,0,0,36.89,39.56Zm-9,10a1.24,1.24,0,0,1,1.36-1.45H42.23a1.26,1.26,0,0,1,1.45,1.41Q44,52,43.17,53A37.19,37.19,0,0,1,40,57.7a4.26,4.26,0,0,0-1.31,2.44,0.94,0.94,0,0,0,1.13,1h2.72A1.26,1.26,0,0,1,44,62.53v2.3a1.26,1.26,0,0,1-1.41,1.45H39.89a1,1,0,0,0-1.17,1.13V71.3q0,1.13,1.41.84l2.25-.52a1.15,1.15,0,0,1,1.64,1,15.08,15.08,0,0,0,.33,1.83q0.19,1.31,1.13-.09Q47,71.81,47,66.09a1.26,1.26,0,0,1,1.41-1.45h2.2A1.26,1.26,0,0,1,52.08,66a36.89,36.89,0,0,1-.84,8A13.2,13.2,0,0,1,46.78,81a1.85,1.85,0,0,1-2.72-.37,8.16,8.16,0,0,1-.89-0.94q-1.31-1.41-.56-2.11,0.94-.89.61-0.89-7.13,2-14,3.19-1.83.33-2.11-1.08l-0.42-2.44q-0.28-1.83.28-1.87a1,1,0,0,0,.8-1.12V61.27a1.26,1.26,0,0,1,1.41-1.45h2a1.26,1.26,0,0,1,1.45,1.41V72.56q0,1.13.56,1a1,1,0,0,0,.61-1.17V57.84q0-1.45.89-1.45A2.62,2.62,0,0,0,36.52,55a2.58,2.58,0,0,0,.42-0.66q0.66-1.12-.47-1.12H29.39a1.26,1.26,0,0,1-1.45-1.41v-2.2Zm26.25-1.12a1.17,1.17,0,0,1,1.41-1.22h2.58q1.45,0,1.45,1.17a1.06,1.06,0,0,0,1.13,1.27h6.42a1.26,1.26,0,0,1,1.45,1.41V53a1.26,1.26,0,0,1-1.41,1.45h-9a2.69,2.69,0,0,0-2.11,1.41l-0.8,1.27q-0.75,1.17.66,1.13l4.13-.37q1.36-.19.94-0.84t1.17-1.12a13.86,13.86,0,0,1,2.11-.61,1.75,1.75,0,0,1,2.25.94,28.53,28.53,0,0,1,1.83,4.13q0.47,1.73-1,2.11L65,63.24q-1.41.47-1.73-.66t-1.92-.7A100.82,100.82,0,0,1,48,63.61,1.69,1.69,0,0,1,46,62.34l-0.66-2.16a1,1,0,0,1,1-1.41,1.83,1.83,0,0,0,.7,0,2.8,2.8,0,0,0,2.3-1.36l1.17-1.73q0.75-1.17-.37-1.17H46.59a1.26,1.26,0,0,1-1.45-1.41V51.14a1.26,1.26,0,0,1,1.41-1.45H53A1.06,1.06,0,0,0,54.19,48.47ZM53.25,66.14a1.27,1.27,0,0,1,1.36-1.5h2.25A1.26,1.26,0,0,1,58.31,66V78.19a1.26,1.26,0,0,1-1.41,1.45H54.66a1.24,1.24,0,0,1-1.41-1.41V66.14ZM60,65.72a1.24,1.24,0,0,1,1.36-1.45h2.16A1.26,1.26,0,0,1,65,65.67v9.09a3.31,3.31,0,0,0,.66,1.64Q66,76.55,66.14,75a1.08,1.08,0,0,1,1.59-1.17,5.1,5.1,0,0,1,1.13.33A1.77,1.77,0,0,1,70.22,76l-0.14,1.41q0.14,3.47-3.23,3.75a13.46,13.46,0,0,1-4.64-.61,4.18,4.18,0,0,1-2.2-3.8v-11Z" style="fill:#963b3b"/><path d="M80.92,41.06a1.25,1.25,0,0,1,1.31-1.5h32.53A1.26,1.26,0,0,1,116.21,41V59a1.26,1.26,0,0,1-1.41,1.45H102.48a1.06,1.06,0,1,0,0,2.11h16.08A1.26,1.26,0,0,1,120,64v2.39a1.26,1.26,0,0,1-1.41,1.45H106.84q-1.22,0,.28,1.08a36.34,36.34,0,0,0,11.58,5.63q1.41,0.42.66,1.92L118,78.89a1.56,1.56,0,0,1-2.11,1,47.41,47.41,0,0,1-13.5-8.72q-1.12-1.08-1.12,0v9A1.26,1.26,0,0,1,99.9,81.7H97.18a1.26,1.26,0,0,1-1.45-1.41V71.72q0-1.12-1.41.14a48.14,48.14,0,0,1-12.66,7.88,1.79,1.79,0,0,1-2.53-.89l-1.12-2q-0.84-1.41.56-2a50.37,50.37,0,0,0,11.72-6.09q1.36-.94.23-0.94H79a1.26,1.26,0,0,1-1.45-1.41V64a1.26,1.26,0,0,1,1.41-1.45H94.56a1.06,1.06,0,1,0,0-2.11H82.37a1.26,1.26,0,0,1-1.45-1.41v-18Zm14.81,5.06q0-1.59-1.08-1.59H87.71q-1.17,0-1.17,1.5t1.13,1.59h6.89Q95.73,47.63,95.73,46.13Zm0,7.92q0-1.64-1-1.64h-7q-1.17,0-1.17,1.5t1.13,1.59h6.89Q95.73,55.5,95.73,54Zm14.86-7.92q0-1.59-1.08-1.59h-7q-1.17,0-1.17,1.5t1.13,1.59h7Q110.59,47.63,110.59,46.13Zm0,7.92q0-1.64-1-1.64h-7.08q-1.17,0-1.17,1.5t1.13,1.59h7Q110.59,55.5,110.59,54Z" style="fill:#963b3b"/></g><g id="蔬果"><path d="M396,32c8,0,10-4,14.33-6s11-2,17,.67,11.33,8,11.33,22-5.33,36.67-12,48S412,108,407,106s-7-6-11-6-6,4-11,6-13,2-19.67-9.33-12-34-12-48,5.33-19.33,11.33-22,12.67-2.67,17-.67S388,32,396,32Z" style="fill:#7eb830"/><path d="M396,42a25.38,25.38,0,0,0,4.3-.35,20.6,20.6,0,0,0,3.69-1,5.68,5.68,0,0,0,3-2.25c0.8-1.14,1.57-2.9,2.32-4a7,7,0,0,1,2.16-2.13,10.36,10.36,0,0,1,1.16-.7,8.81,8.81,0,0,1,2.36-.74,15,15,0,0,1,3.73-.19,18.45,18.45,0,0,1,4.23.81,17.21,17.21,0,0,1,3,1.25,12.3,12.3,0,0,1,1.74,1.13,10.12,10.12,0,0,1,1.48,1.43,10.94,10.94,0,0,1,1.29,1.94,15.31,15.31,0,0,1,1.1,2.74,23.78,23.78,0,0,1,.79,3.82,39.16,39.16,0,0,1,.29,5.24c0,2.16-.16,4.31-0.37,6.46-0.25,2.47-.59,4.94-1,7.39q-1.06,6.3-2.73,12.48c-0.67,2.48-1.42,4.95-2.26,7.38-0.76,2.2-1.6,4.38-2.54,6.51a42.13,42.13,0,0,1-2.62,5,22.63,22.63,0,0,1-2.49,3.35,13.17,13.17,0,0,1-2.23,2,8.64,8.64,0,0,1-1.91,1,6.76,6.76,0,0,1-3.24.38,7.74,7.74,0,0,1-1.5-.33,9.63,9.63,0,0,1-2.13-1c-0.45-.29-0.88-0.6-1.31-0.93-0.66-.5-1.31-1-2-1.52a21.21,21.21,0,0,0-2.06-1.38,13.48,13.48,0,0,0-2.8-1.23,11.59,11.59,0,0,0-7,0,13.43,13.43,0,0,0-2.8,1.23,20.81,20.81,0,0,0-2.06,1.38c-0.67.5-1.31,1-2,1.52-0.43.32-.86,0.64-1.32,0.93a9.59,9.59,0,0,1-2.13,1,7.78,7.78,0,0,1-1.5.33,6.73,6.73,0,0,1-3.24-.38,8.8,8.8,0,0,1-1.91-1,13.19,13.19,0,0,1-2.23-2,22.78,22.78,0,0,1-2.49-3.35,42,42,0,0,1-2.62-5c-0.95-2.13-1.79-4.3-2.54-6.51-0.84-2.43-1.59-4.9-2.26-7.38q-1.67-6.17-2.73-12.48c-0.41-2.45-.76-4.92-1-7.39-0.22-2.15-.36-4.3-0.37-6.46a38.82,38.82,0,0,1,.29-5.24,23.78,23.78,0,0,1,.79-3.82,15.17,15.17,0,0,1,1.11-2.74,11.05,11.05,0,0,1,1.29-1.94,10.21,10.21,0,0,1,1.48-1.43A12.29,12.29,0,0,1,366,32.67a17,17,0,0,1,3-1.25,18.3,18.3,0,0,1,4.23-.81,14.93,14.93,0,0,1,3.74.19,10.33,10.33,0,0,1,1.46.37,7.59,7.59,0,0,1,.9.37,10.13,10.13,0,0,1,1.16.7,7,7,0,0,1,2.16,2.13c0.75,1.15,1.52,2.91,2.32,4a5.68,5.68,0,0,0,3,2.25,20.59,20.59,0,0,0,3.69,1A25.39,25.39,0,0,0,396,42Z" style="fill:#558827"/><path d="M396,34c8,0,14,5,15,12.5S408,64,396,64s-16-10-15-17.5S388,34,396,34Z" style="fill:#dbe5c6"/><path d="M400,34.45a18.19,18.19,0,0,0-8,0c0-15,.53-22.45,16-22.45v8C400.35,20,400,23.65,400,34.45Z" style="fill:#a3c97a"/><path d="M384.38,59.05C386.81,62,390.59,64,396,64s9.19-2,11.62-4.95c5.1,9.46,2.89,20.66-7.37,35.75l-0.77-.26a11.59,11.59,0,0,0-7,0l-0.77.26C381.49,79.71,379.27,68.51,384.38,59.05Z" style="fill:#527229"/></g></svg>