<svg xmlns="http://www.w3.org/2000/svg" viewBox="0 0 480 120"><g style="isolation:isolate"><g><rect width="480" height="120" style="fill:#fffbf5"/><rect x="336" width="120" height="120" style="fill:#fffbf5"/><g id="豆乾"><path d="M373.34,20c-12,0-14.67,0-16,1.33s-1.33,4-1.33,16V82.67c0,12,0,14.67,1.33,16s4,1.33,16,1.33h45.33c12,0,14.67,0,16-1.33s1.33-4,1.33-16V37.33c0-12,0-14.67-1.33-16s-4-1.33-16-1.33H373.34Z" style="fill:#eac57d"/><path d="M358.81,97a4.69,4.69,0,0,1-.15-0.65,17.33,17.33,0,0,1-.21-1.81c-0.06-.91-0.09-1.83-0.11-2.75-0.05-2.62-.05-5.25,0-7.87V36.13c0-2.62,0-5.25,0-7.87,0-.92,0-1.84.11-2.75a16.64,16.64,0,0,1,.21-1.81,4.78,4.78,0,0,1,.15-0.65l1.35,0.42a3.91,3.91,0,0,0-.11.47,15.61,15.61,0,0,0-.19,1.66c-0.06.9-.08,1.79-0.1,2.68-0.05,2.61-.05,5.23,0,7.84V83.88c0,2.61,0,5.23,0,7.84,0,0.89,0,1.79.1,2.68a16.06,16.06,0,0,0,.19,1.66,3.88,3.88,0,0,0,.11.48Z" style="fill:#e0af5f"/><polygon points="409.68 46.32 409.68 46.32 409.68 73.68 382.32 73.68 380.68 75.32 411.32 75.32 411.32 44.68 409.68 46.32" style="fill:#e0af5f"/><path d="M432.54,24.16a3.75,3.75,0,0,0-.47-0.11,15.56,15.56,0,0,0-1.67-.19c-0.89-.06-1.79-0.09-2.68-0.11-2.61-.05-5.23,0-7.84,0H372.13c-2.61,0-5.23,0-7.84,0-0.89,0-1.79,0-2.68.11a16,16,0,0,0-1.67.19,3.71,3.71,0,0,0-.47.11L359,22.81a5.43,5.43,0,0,1,.65-0.15,17.25,17.25,0,0,1,1.81-.21c0.91-.07,1.83-0.09,2.75-0.11,2.62-.05,5.25,0,7.87,0h47.75c2.62,0,5.25,0,7.87,0,0.92,0,1.84,0,2.75.11a16.33,16.33,0,0,1,1.81.21,5.39,5.39,0,0,1,.65.15Z" style="fill:#e0af5f"/><g style="opacity:0.8"><polygon points="382.31 73.68 382.31 46.32 409.68 46.32 411.32 44.68 380.68 44.68 380.68 75.32 382.32 73.68 382.31 73.68" style="fill:#b5aa9c;mix-blend-mode:multiply"/><g style="mix-blend-mode:multiply"><path d="M433.19,97l-1.35-.42a3.86,3.86,0,0,0,.11-0.47,15.15,15.15,0,0,0,.19-1.66c0.06-.9.09-1.79,0.1-2.68,0.05-2.61.05-5.22,0-7.84V36.13c0-2.61,0-5.23,0-7.84,0-.89,0-1.79-0.1-2.68a15.78,15.78,0,0,0-.19-1.67,3.93,3.93,0,0,0-.11-0.48l1.35-.42a4.77,4.77,0,0,1,.15.65,17.41,17.41,0,0,1,.21,1.81c0.06,0.91.09,1.83,0.11,2.75,0.05,2.62.05,5.25,0,7.87V83.88c0,2.62,0,5.25,0,7.87,0,0.92,0,1.84-.11,2.75a16.72,16.72,0,0,1-.21,1.81A4.74,4.74,0,0,1,433.19,97Z" style="fill:#b5aa9c"/></g><g style="mix-blend-mode:multiply"><path d="M370.92,97.71c-2.22,0-4.45,0-6.67-.05-0.92,0-1.84,0-2.75-.11a16.57,16.57,0,0,1-1.81-.21,5.55,5.55,0,0,1-.64-0.15l0.42-1.35a3.55,3.55,0,0,0,.47.11,15.06,15.06,0,0,0,1.66.19c0.89,0.06,1.79.09,2.68,0.11,2.61,0.05,5.23.05,7.84,0.05h47.75c2.61,0,5.23,0,7.84-.05,0.89,0,1.79,0,2.68-.11a15.83,15.83,0,0,0,1.67-.19,3.58,3.58,0,0,0,.47-0.11L433,97.19a5.52,5.52,0,0,1-.65.15,17.41,17.41,0,0,1-1.81.21c-0.91.07-1.83,0.09-2.75,0.11-2.62.05-5.26,0.05-7.87,0.05h-49Z" style="fill:#b5aa9c"/></g></g></g><rect width="3" height="120" style="fill:#e2695b"/><g id="豆乾_t"><text transform="translate(24 74.44)" style="font-size:48px;fill:#963b3b;font-family:HanWangHeiHeavy;letter-spacing:2px;opacity: 0">豆乾</text><path d="M30.52,49.78a1.26,1.26,0,0,1,1.41-1.45H63a1.26,1.26,0,0,1,1.45,1.41V64.83A1.26,1.26,0,0,1,63,66.28H58.92q-1.59,0-.09.52L59.44,67q1.69,0.52,1.13,2-1,2.63-2.25,5.25-0.61,1.31.38,1.31h9A1.26,1.26,0,0,1,69.19,77v2.3a1.26,1.26,0,0,1-1.41,1.45H28.41A1.26,1.26,0,0,1,27,79.31V77a1.26,1.26,0,0,1,1.41-1.45h8q1.13,0,.61-1.41a39.8,39.8,0,0,0-2.34-4.69,1.33,1.33,0,0,1,.61-2.11l0.89-.42q1.31-.66-0.19-0.66h-4a1.24,1.24,0,0,1-1.41-1.41V49.78Zm-2.44-8.91a1.25,1.25,0,0,1,1.31-1.5h37a1.26,1.26,0,0,1,1.45,1.41v2.48a1.26,1.26,0,0,1-1.41,1.45H29.53a1.26,1.26,0,0,1-1.45-1.41V40.88ZM58.83,54.94a1,1,0,0,0-1.12-1.17H37.31a1,1,0,0,0-1.17,1.13v4.83a1,1,0,0,0,1.13,1.17H57.66a1,1,0,0,0,1.17-1.12V54.94ZM54.7,67.5q0.42-1.22-.66-1.22H40.31q-1.17,0-.19,1.45,1.5,2.48,2.77,5.11,0.75,1.73-.19,2.11-1,.61.42,0.61h7.22a2,2,0,0,0,1.78-1.41A57.84,57.84,0,0,0,54.7,67.5Z" style="fill:#963b3b"/><path d="M102.76,39.8q0.47-1.59,1.73-1.17l2.39,0.84q1.83,0.61,1.31,2a1.17,1.17,0,0,1-.14.52q-0.47,1.31.52,1.31h9.89a1.26,1.26,0,0,1,1.45,1.41V47a1.26,1.26,0,0,1-1.41,1.45h-12a2,2,0,0,0-1.78,1.41q-0.52,1-1.22,2.2t0.42,1.17H115.6a1.26,1.26,0,0,1,1.45,1.41q0.38,2.67-.7,3.66l-5.53,7.5a69.52,69.52,0,0,0-5.16,7.5q-1.17,1.88.7,2.11l1.5,0.14h5.39q1.78-.14,1.55-2.11l0.14-3.28q0.14-1.36,1.55-.8a25,25,0,0,1,2.34,1,2.09,2.09,0,0,1,1.55,2.2,21.72,21.72,0,0,1-1.12,5.3,4.25,4.25,0,0,1-1.64,1.69,8.78,8.78,0,0,1-3.8,1h-7.27q-1.87-.09-3.75-0.37A4.13,4.13,0,0,1,100.46,79a6.11,6.11,0,0,1-1.36-4.55,12.89,12.89,0,0,1,1.73-3.75q3.8-5.53,7.92-11.11,0.89-1.22-.19-1.22h-5.77A1.26,1.26,0,0,1,101.35,57q0-1.41-.28-1.22t-1.55-.56l-0.75-.52q-1.12-.8-1.12.33V66a1.26,1.26,0,0,1-1.41,1.45H91.7a1.15,1.15,0,1,0,0,2.3H96.9a1.26,1.26,0,0,1,1.45,1.41v2.11a1.26,1.26,0,0,1-1.41,1.45H91.7a1,1,0,0,0-1.17,1.13v4.22a1.26,1.26,0,0,1-1.41,1.45H86.49A1.26,1.26,0,0,1,85,80.11V75.89a1,1,0,0,0-1.12-1.17H78.43A1.26,1.26,0,0,1,77,73.31V71.2a1.26,1.26,0,0,1,1.41-1.45h5.48a1.15,1.15,0,0,0,0-2.3H79.23A1.26,1.26,0,0,1,77.77,66V50.58a1.26,1.26,0,0,1,1.41-1.45h4.69A1,1,0,0,0,85,48a1,1,0,0,0-1.12-1.22h-5.3a1.26,1.26,0,0,1-1.45-1.41V43.27a1.26,1.26,0,0,1,1.41-1.45h5.3A1,1,0,0,0,85,40.69V39.8a1.24,1.24,0,0,1,1.41-1.41h2.63a1.26,1.26,0,0,1,1.45,1.41v0.84a1,1,0,0,0,1.13,1.17h5.06a1.26,1.26,0,0,1,1.45,1.41v2.11a1.26,1.26,0,0,1-1.41,1.45H91.7a1,1,0,0,0-1.17,1.13,1,1,0,0,0,1.13,1.22H96.2q1.41,0,1.45.56,0,1,.84-0.28A54.17,54.17,0,0,0,102.76,39.8ZM92.4,54.94a1,1,0,0,0-1-1.17H84.1a1.06,1.06,0,1,0,0,2.11h7.17A1,1,0,0,0,92.4,54.94Zm0,6.84a1,1,0,0,0-1.08-1.12H84.1a1.06,1.06,0,1,0,0,2.11h7.17A1,1,0,0,0,92.4,61.78Z" style="fill:#963b3b"/></g></g></g></svg>