<svg xmlns="http://www.w3.org/2000/svg" viewBox="0 0 480 120"><rect width="480" height="120" style="fill:#fffbf5"/><rect width="3" height="120" style="fill:#e2695b"/><g id="鋁箔紙盒_t"><text transform="translate(24 74.44)" style="font-size:48px;fill:#963b3b;font-family:HanWangHeiHeavy;letter-spacing:2px;opacity: 0;">鋁箔紙/盒</text><path d="M35.48,40.08q1-1.69,2.3-1.27L40,39.47q1.41,0.42,1.17,1.13-0.42.75,1,1.59A46.38,46.38,0,0,1,46.36,45q1.69,1.31.42,2.81l-1.27,1.5q-1.08,1.22-2.62-.14a37.85,37.85,0,0,0-3.56-2.67q-1.12-.8-2.25.52A29.51,29.51,0,0,1,35,49.41q-1.17,1.17,0,1.17H42A1.26,1.26,0,0,1,43.5,52v1.83a1.26,1.26,0,0,1-1.41,1.45H40.55a1,1,0,0,0-1.17,1.13v0.89a1,1,0,0,0,1.13,1.17h3.23a1.26,1.26,0,0,1,1.45,1.41v1.83a1.26,1.26,0,0,1-1.41,1.45H40.55a1,1,0,0,0-1.17,1.13v8.67q0,1.13,1.41.89l3.28-.61q1.78-.37,2,1.08a8.52,8.52,0,0,0,.28,1.64,1.52,1.52,0,0,1-1.22,1.83Q38,79.59,30.56,80.86a1.81,1.81,0,0,1-2.2-1.27,19.86,19.86,0,0,1-.8-2.3,1,1,0,0,1,.94-1.59q2.39-.23,4.78-0.66a1.26,1.26,0,0,0,1.13-1.36V64.31a1,1,0,0,0-1.12-1.17h-3.8A1.26,1.26,0,0,1,28,61.73V59.91a1.26,1.26,0,0,1,1.41-1.45h3.8a1,1,0,0,0,1.17-1.12V56.44a1,1,0,0,0-1.12-1.17H32.44Q31,55.27,31,54.09t-0.37-1q-0.33.28-1.73-1.12L28,51.09q-1.41-1.41,0-2.53A31.45,31.45,0,0,0,35.48,40.08ZM30,66q1.5-.75,2,0.61l1.17,4.17a1.87,1.87,0,0,1-1.08,2.39,10.05,10.05,0,0,0-1.5.61q-1.45.61-1.73-.8-0.47-2.06-1.12-4.17a1.59,1.59,0,0,1,.89-2.16Zm11.44,0a1.17,1.17,0,0,1,1.59-1.12,16.68,16.68,0,0,1,1.83.42A1.36,1.36,0,0,1,46,67q-0.47,2-1.12,4.08a1.42,1.42,0,0,1-2,1A3.72,3.72,0,0,1,42,71.72q-1.78-.52-1.41-1.92Zm7-25a1.25,1.25,0,0,1,1.31-1.5H67.27a1.26,1.26,0,0,1,1.45,1.41V55.45a1.26,1.26,0,0,1-1.41,1.45H61.69A1.76,1.76,0,0,0,60,58.31a5.54,5.54,0,0,1-.47,1.31q-0.47,1.27.56,1.27h8.44A1.26,1.26,0,0,1,70,62.3V79.45a1.26,1.26,0,0,1-1.41,1.45H66.23q-1.45,0-1.45-.89a0.92,0.92,0,0,0-1.12-.94H53.72a1,1,0,0,0-1.17,1.17,1.18,1.18,0,0,1-1.41,1.27H48.75a1.26,1.26,0,0,1-1.45-1.41V62.34a1.26,1.26,0,0,1,1.41-1.45h3.61A1.84,1.84,0,0,0,54,59.48a5.54,5.54,0,0,0,.47-1.31q0.42-1.27-.66-1.27H49.92a1.26,1.26,0,0,1-1.45-1.41V40.88ZM64.78,67.13A1,1,0,0,0,63.66,66H53.72a1,1,0,0,0-1.17,1.13V72.7a1,1,0,0,0,1.13,1.17h9.94a1,1,0,0,0,1.17-1.12V67.13ZM63.42,45.52a1,1,0,0,0-1.12-1.17H54.89a1,1,0,0,0-1.17,1.13v5.25a1,1,0,0,0,1.13,1.17h7.41a1,1,0,0,0,1.17-1.12V45.52Z" style="fill:#963b3b"/><path d="M82.09,39.66q0.61-1.69,2-1.27l2.3,0.7q1.5,0.52,1.22,1.5t0.84,1h8.91q1.45,0,1.45.75,0,1.17.8,0l1.36-3a1.36,1.36,0,0,1,1.92-.94q1.13,0.28,2.39.7t1,1.45q-0.33,1,.8,1h12A1.26,1.26,0,0,1,120.52,43v2.11a1.26,1.26,0,0,1-1.41,1.45H114q-1.17,0-.19,1.45a1.4,1.4,0,0,1-.47,2.25q-1.08.56-2.2,1.27a1.39,1.39,0,0,1-2.2-.7L107.35,48a2.6,2.6,0,0,0-2.25-1.45A2.44,2.44,0,0,0,102.9,48q-1,1.59.38,2t2.72,0.8a1.14,1.14,0,0,1,.8,1.73q-0.56,1.31.56,1.31h9.84a1.26,1.26,0,0,1,1.45,1.41v25a1.26,1.26,0,0,1-1.41,1.45h-2.53q-1.45,0-1.45-1a1,1,0,0,0-1.12-1.08H98.45a1,1,0,0,0-1.17,1q0,1.08-1.41,1.08H93.29a1.26,1.26,0,0,1-1.45-1.41v-25a1.26,1.26,0,0,1,1.41-1.45H99.1a1.76,1.76,0,0,0,1.64-1.41q0.42-1.64-.14-1t-2.11-.56l-1.55-1.17q-1.55-1.17-.8-2,0.75-1.08-.28-1.08H93.62q-1.12,0-.33,1.27a1.29,1.29,0,0,1-.56,2.06l-2.2,1.31a1.35,1.35,0,0,1-2.16-.56l-1.55-3a1.82,1.82,0,0,0-1.17-1.12q-0.56,0-1.36,1.41l-1.22,2q-1.17,1.59-2.48.56l-1.87-1.41a1.57,1.57,0,0,1-.37-2.53A32.59,32.59,0,0,0,82.09,39.66ZM80,59a2.07,2.07,0,0,1,2.77-.56A25.65,25.65,0,0,1,86,60.66a1.93,1.93,0,0,1,.38,3l-1.22,1.55q-1.31,1.45-2.44.33A40.93,40.93,0,0,0,79,62.39q-1.36-.89,0-2.34A10.78,10.78,0,0,1,80,59Zm5.25,9.14a1.31,1.31,0,0,1,2.2-.37l1.41,1.08q1.69,1.36.94,2.81a43.15,43.15,0,0,1-5.3,8.11q-1.41,1.78-2.81.38L80,78.47a1.87,1.87,0,0,1-.23-2.81A57.23,57.23,0,0,0,85.23,68.11Zm-2-15.94q1.73-1.78,3-1L89,53.25A1.83,1.83,0,0,1,89.17,56l-1.08,1.41Q86.77,59,85.6,57.8a26,26,0,0,0-2.81-2.3q-1.59-1.17-.47-2.39A8.24,8.24,0,0,0,83.21,52.17Zm30,8.06A1,1,0,0,0,112.18,59H98.45a1,1,0,0,0-1.17,1.13v2.58a1,1,0,0,0,1.13,1.17h13.69a1,1,0,0,0,1.17-1.12V60.23Zm0,10.13a1,1,0,0,0-1.08-1.22H98.45a1,1,0,0,0-1.17,1.13v3a1,1,0,0,0,1.13,1.17h13.69a1,1,0,0,0,1.17-1.12V70.36Z" style="fill:#963b3b"/><path d="M128.92,67.31a1.13,1.13,0,0,1,1.55-1.17l1.83,0.38a1.41,1.41,0,0,1,1.27,1.73Q133,72,132.11,75.84a1.41,1.41,0,0,1-2,1.08l-1.5-.37a1.37,1.37,0,0,1-1.17-1.78Q128.27,71.06,128.92,67.31Zm5.81-27.66q0.75-1.64,2.2-1,0.89,0.42,1.92.8,1.55,0.7.61,2.3-1.78,3-3.8,6.23a1.1,1.1,0,0,0,.33,1.73q0.94,0.7,2.11-.75l2.3-3.37a1.75,1.75,0,0,1,2.39-.7l1.88,0.75a1.13,1.13,0,0,1,.52,2q-2.67,3.52-7.55,9.14-1,1.13.52,1l1.36-.19a1,1,0,0,0,.94-1.41q-0.47-1.27,1-1.69A9,9,0,0,1,143,54,1.57,1.57,0,0,1,145,55a45.38,45.38,0,0,1,1.83,6.14,1.67,1.67,0,0,1-1.36,2.06l-1.78.56q-1.41.42-1.59-.61a1.19,1.19,0,0,0-1.31-1,1.32,1.32,0,0,0-1.08,1.41V80.25a1.26,1.26,0,0,1-1.41,1.45h-2.11a1.26,1.26,0,0,1-1.45-1.41V64.55q0-1.12-1.41-1L130.1,64a1.55,1.55,0,0,1-2-1.31l-0.42-2.44a1.17,1.17,0,0,1,1.13-1.59,3.12,3.12,0,0,0,1.92-.8L133,55.36q0.89-1-.61-2.25L129,50.58q-1.73-1.27-.61-2.72a2.2,2.2,0,0,0,.42-0.56q1.27-1.5,1.83-1.17T132.07,45Q133.52,42.33,134.74,39.66Zm14.16,1.5a63,63,0,0,0,15-2.39,2.5,2.5,0,0,1,2.81.84l1.78,1.78q1.41,1.41,0,2.06a26.32,26.32,0,0,1-3.94,1,1.4,1.4,0,0,0-1.12,1.45q0,3.75.14,7.64a1.09,1.09,0,0,0,1.22,1.13H169a1.26,1.26,0,0,1,1.45,1.41v2.2A1.26,1.26,0,0,1,169,59.77h-3.84q-1.12,0-1.08,1.41a66.35,66.35,0,0,0,2,13.22q0.7,1.08.84-.52L167,71.77q0-1.41,1.41-1l1.41,0.47a1.86,1.86,0,0,1,1.41,2q-0.42,5.11-1.92,7.41a3,3,0,0,1-2.81,1.08q-2-.09-3.52-2.44-2.86-6.28-3.84-18.37a1.15,1.15,0,0,0-1.27-1.12h-4a1,1,0,0,0-1.17,1.13V73.55q0,1.13,1.41.94l3.89-.7q1.5-.28,1.73,1.45L160,76.17a1.72,1.72,0,0,1-1.12,2.25q-4.5,1.36-9.94,2.53a1.68,1.68,0,0,1-2.25-1.12l-0.84-2.44q-0.52-1.45.56-1.64a1.22,1.22,0,0,0,1.13-1.27q0-1.08-1.41-.7l-1.41.42q-1.64.52-1.92-1a29.63,29.63,0,0,0-1.41-5.3,1.31,1.31,0,0,1,.84-2,8,8,0,0,1,1.41-.42,1.54,1.54,0,0,1,2.11.89l1.36,3.8q0.42,0.94.42-.09V42.7A1.39,1.39,0,0,1,148.89,41.16ZM157,45.75l-3.19.28a1.15,1.15,0,0,0-1.12,1.27v6.23a1,1,0,0,0,1.13,1.17h3.66a1,1,0,0,0,1.17-1.12q-0.19-3.37-.23-6.8Q158.46,45.66,157,45.75Z" style="fill:#963b3b"/><path d="M194.14,38.63a2.09,2.09,0,0,1,2-1.55h2.3q1.41,0,.89,1.41L182.56,81.14a2.17,2.17,0,0,1-2.06,1.55h-2.3q-1.41,0-.84-1.41Z" style="fill:#963b3b"/><path d="M225.74,39q1.83-1.36,3.09-.37l0.94,0.75q1.55,1.17,1.27,1.45A2.84,2.84,0,0,0,232.49,42a84.73,84.73,0,0,0,16,6.7q1.45,0.42.61,1.83l-1.36,2.3a1.76,1.76,0,0,1-2.25,1,81.56,81.56,0,0,1-8-3.37q-1.12-.52-1.12.33t-1.41.94H219.65q-1.45,0-1.45-.8t-1.45-.09A58.43,58.43,0,0,1,210.08,54q-1.41.66-2.44-1.17L206.52,51q-0.89-1.45.52-2A81,81,0,0,0,225.74,39Zm-16,28.36A1.24,1.24,0,0,1,211.12,66H243.6a1.26,1.26,0,0,1,1.45,1.41V75a1,1,0,0,0,1.13,1.17h0.89a1.26,1.26,0,0,1,1.45,1.41v2.16a1.26,1.26,0,0,1-1.41,1.45H207.83a1.26,1.26,0,0,1-1.45-1.41V77.58a1.26,1.26,0,0,1,1.41-1.45h0.8A1,1,0,0,0,209.76,75V67.41ZM212,54.94a1.25,1.25,0,0,1,1.31-1.5h28a1.26,1.26,0,0,1,1.45,1.41V63a1.26,1.26,0,0,1-1.41,1.45H213.46A1.26,1.26,0,0,1,212,63V54.94Zm7.55,17.3A1,1,0,0,0,218.48,71h-2.11a1,1,0,0,0-1.17,1.13V75a1,1,0,0,0,1.13,1.17h2.06A1,1,0,0,0,219.55,75V72.23Zm18-13.22a1,1,0,0,0-1.12-.94h-18q-1.17,0-1.17.84a0.91,0.91,0,0,0,1.13.89h18Q237.55,59.81,237.55,59Zm-9.47-13.92a2.13,2.13,0,0,0-2.53.19l-1,.75q-1.22.8,0,.8h4.64q1.45,0,.28-0.84Zm1.59,27.14A1,1,0,0,0,228.6,71h-2.44A1,1,0,0,0,225,72.14V75a1,1,0,0,0,1.13,1.17h2.39A1,1,0,0,0,229.68,75V72.23Zm9.94,0A1,1,0,0,0,238.54,71h-2.25a1,1,0,0,0-1.17,1.13V75a1,1,0,0,0,1.13,1.17h2.2A1,1,0,0,0,239.62,75V72.23Z" style="fill:#963b3b"/></g><rect x="336" width="120" height="120" style="fill:#fffbf5"/><g id="鋁箔紙盒"><polygon points="349.05 88.13 349.05 88.13 349.05 88.13 349.05 88.13" style="fill:#c5cbc9"/><polygon points="349.05 88.12 349.05 88.13 349.05 88.13 349.05 88.12" style="fill:#c5cbc9"/><polygon points="415.77 12.94 415.77 12.94 415.77 12.94 415.77 12.94" style="fill:#c5cbc9"/><polygon points="355.56 108.25 355.56 108.25 355.56 108.25 355.56 108.25" style="fill:#c5cbc9"/><polygon points="365.16 108.57 365.16 108.57 365.16 108.57 365.16 108.57" style="fill:#c5cbc9"/><polygon points="424 44 424.08 44.55 424.08 44.55 428 12 415.77 12.94 423.96 44.12 424 44" style="fill:#ededed"/><polygon points="388 14 384 48 396 50 388 14" style="fill:#ededed"/><polygon points="384 48 387.23 64 396 50 384 48" style="fill:#e8e8e8"/><polygon points="348 108 355.56 108.25 349.05 88.13 348 108" style="fill:#d8d8d8"/><polygon points="396 50 404 64 412 46.44 396 50" style="fill:#e5e5e5"/><polygon points="403.94 13.84 396 50 412 46.44 403.94 13.84" style="fill:#e2e2e2"/><polygon points="368 44 376 60 384 48 368 44" style="fill:#ededed"/><polygon points="377.02 13.45 368 44 384 48 377.02 13.45" style="fill:#e2e2e2"/><polygon points="444 12 428 12 424.08 44.55 444 12" style="fill:#e2e2e2"/><polygon points="381.23 109.11 393.48 94.96 387.23 64 381.23 109.11" style="fill:#e8e8e8"/><polygon points="423.96 44.12 424.08 44.55 424 44 423.96 44.12" style="fill:#c5cbc9"/><polygon points="440 60 444 12 424.08 44.55 440 60" style="fill:#dbdbdb"/><polygon points="424.08 44.55 428 72 440 60 424.08 44.55 424.08 44.55" style="fill:#e8e8e8"/><polygon points="426 109 444 108 440 60 426 109" style="fill:#dbdbdb"/><polygon points="355.56 108.25 365.16 108.57 360 76 355.56 108.25" style="fill:#e8e8e8"/><polygon points="349.05 88.13 349.05 88.13 355.56 108.25 355.56 108.25 360 76 349.05 88.13" style="fill:#e2e2e2"/><polygon points="424.08 44.55 423.96 44.12 416 72 428 72 424.08 44.55" style="fill:#e2e2e2"/><polygon points="416 72 426 109 428 72 416 72" style="fill:#e8e8e8"/><polygon points="428 72 426 109 440 60 428 72" style="fill:#e2e2e2"/><polygon points="360 76 356 64 349.05 88.12 349.05 88.13 360 76" style="fill:#ededed"/><polygon points="376 60 365.16 108.57 381.23 109.11 381.23 109.11 376 60" style="fill:#d8d8d8"/><polygon points="393.48 94.96 381.23 109.11 403.64 109.85 403.64 109.85 393.48 94.96" style="fill:#e2e2e2"/><polygon points="426 109 416 72 403.64 109.85 403.64 109.85 408 110 426 109" style="fill:#e2e2e2"/><polygon points="384 48 376 60 387.23 64 384 48" style="fill:#f2f2f2"/><polygon points="376 60 381.23 109.11 387.23 64 376 60" style="fill:#ededed"/><polygon points="396 50 387.23 64 404 64 396 50" style="fill:#ededed"/><polygon points="404 64 387.23 64 400.7 73.7 404 64" style="fill:#e8e8e8"/><polygon points="387.23 64 393.48 94.96 400.7 73.7 387.23 64" style="fill:#e5e5e5"/><polygon points="368 44 356 64 376 60 368 44" style="fill:#e8e8e8"/><polygon points="356 64 360 76 365.16 108.57 376 60 356 64" style="fill:#e2e2e2"/><polygon points="412 46.44 404 64 416 72 412 46.44" style="fill:#e2e2e2"/><polygon points="404 64 403.64 109.85 416 72 404 64" style="fill:#e8e8e8"/><polygon points="412 46.44 416 72 423.96 44.12 412 46.44" style="fill:#dbdbdb"/><polygon points="415.77 12.94 412 46.44 423.96 44.12 415.77 12.94" style="fill:#e8e8e8"/><polygon points="393.48 94.96 403.64 109.85 404 64 393.48 94.96" style="fill:#dbdbdb"/><polygon points="364.36 12.82 352 32 368 44 364.36 12.82" style="fill:#e5e5e5"/><polygon points="352 32 356 64 368 44 352 32" style="fill:#ededed"/><polygon points="403.94 13.84 403.94 13.84 412 46.45 415.77 12.94 403.94 13.84" style="fill:#f2f2f2"/><polygon points="348 12 352 32 364.36 12.82 364.36 12.82 348 12" style="fill:#f2f2f2"/><polygon points="364.36 12.82 364.36 12.82 368 44 377.02 13.45 377.02 13.45 364.36 12.82" style="fill:#ededed"/><polygon points="377.02 13.45 377.02 13.45 384 48 388 14 377.02 13.45" style="fill:#e8e8e8"/><polygon points="388 14 396 50 396.38 14.42 388 14" style="fill:#f2f2f2"/><polygon points="396.38 14.42 396 50 403.94 13.84 396.38 14.42" style="fill:#ededed"/><polygon points="352 32 349.05 88.12 356 64 352 32" style="fill:#e2e2e2"/></g></svg>