<svg xmlns="http://www.w3.org/2000/svg" viewBox="0 0 480 120"><rect width="480" height="120" style="fill:#fffbf5"/><rect x="336" width="120" height="120" style="fill:#fffbf5"/><rect x="208" width="120" height="120" style="fill:#fffbf5"/><rect width="3" height="120" style="fill:#e2695b"/><g id="食材"><path d="M419,11a1.14,1.14,0,0,0,1,0c0,3,2,3,4.33,4.33s5,4,6.33,10,1.33,15.33,0,25.67-4,21.67-10,31.33A54.92,54.92,0,0,1,395.33,104,50.84,50.84,0,0,1,368,106.67c-6.66-1.33-9.33-4-10.67-6.33S356,96,353,97a1.71,1.71,0,0,0,0-1c3,0,3-2,3-5.67s0-9,4.67-12.33,14-4.67,20.67-8.33S392,60,394,53s2-15,3.33-21.67,4-12,7.33-14.67S412,14,414.75,14,419,14,419,11Z" style="fill:#ce827e"/><path d="M408.73,14.62a11.27,11.27,0,0,0-4.06,2c-3.33,2.67-6,8-7.33,14.67S396,46,394,53s-6,13-12.67,16.67-16,5-20.67,8.33c-4.06,2.9-4.59,7.31-4.66,10.83,0.27,3.24,1,4.32,1.53,5.13a4.6,4.6,0,0,0,.33.45,12.7,12.7,0,0,0,2,1.87l0.84,0.63c0.45,0.32,1,.71,1.46,1s1,0.6,1.32.79,0.85,0.47,1.22.66a14.4,14.4,0,0,0,1.63.68,19.78,19.78,0,0,0,2.36.65,31.87,31.87,0,0,0,3.19.51c1.29,0.14,2.58.22,3.88,0.24a46.63,46.63,0,0,0,9-.68A41.88,41.88,0,0,0,394.11,98a43.38,43.38,0,0,0,8.94-5.25A49.64,49.64,0,0,0,411,85.24a47.84,47.84,0,0,0,3.33-4.41,50.88,50.88,0,0,0,4.2-7.76,81.25,81.25,0,0,0,3.67-10.49,84,84,0,0,0,2.19-9.81,107.78,107.78,0,0,0,1.17-11.33,80.08,80.08,0,0,0,0-8.8c-0.07-1.18-.17-2.37-0.32-3.54-0.12-.94-0.28-1.89-0.46-2.82a19.22,19.22,0,0,0-1.13-3.88,13.61,13.61,0,0,0-1.3-2.43,11.14,11.14,0,0,0-1.1-1.36,14.09,14.09,0,0,0-2.42-2,12.82,12.82,0,0,0-3.12-1.48A15.76,15.76,0,0,0,408.73,14.62Z" style="fill:#ea9c98"/><path d="M411.7,18.12c6.9-.1,7.6,3.89,7.28,8.55s-1.65,10-4.3,12.72-6.62,2.84-9.62,1.81-5.06-3.2-4-8.11a38.74,38.74,0,0,1,1-4.27,30.07,30.07,0,0,1,1-3,22.83,22.83,0,0,1,1.2-2.5,16.56,16.56,0,0,1,1.3-2,10.2,10.2,0,0,1,1.29-1.4,7,7,0,0,1,1.25-.88,7.52,7.52,0,0,1,1.35-.57A11.32,11.32,0,0,1,411.7,18.12Z" style="fill:#fecebf"/></g><g id="鋁箔盒食材_t"><text transform="translate(24 45.44)" style="font-size:48px;fill:#963b3b;font-family:HanWangHeiHeavy;letter-spacing:2px;opacity: 0">鋁箔盒<tspan x="0" y="58">+食材</tspan></text><path d="M35.48,11.08q1-1.69,2.3-1.27L40,10.47q1.41,0.42,1.17,1.13-0.42.75,1,1.59A46.49,46.49,0,0,1,46.36,16q1.69,1.31.42,2.81l-1.27,1.5q-1.08,1.22-2.62-.14a37.79,37.79,0,0,0-3.56-2.67q-1.12-.8-2.25.52A29.24,29.24,0,0,1,35,20.41q-1.17,1.17,0,1.17H42A1.26,1.26,0,0,1,43.5,23v1.83a1.26,1.26,0,0,1-1.41,1.45H40.55a1,1,0,0,0-1.17,1.13v0.89a1,1,0,0,0,1.13,1.17h3.23a1.26,1.26,0,0,1,1.45,1.41v1.83a1.26,1.26,0,0,1-1.41,1.45H40.55a1,1,0,0,0-1.17,1.13v8.67q0,1.13,1.41.89l3.28-.61q1.78-.37,2,1.08a8.61,8.61,0,0,0,.28,1.64,1.52,1.52,0,0,1-1.22,1.83Q38,50.59,30.56,51.86a1.81,1.81,0,0,1-2.2-1.27,20,20,0,0,1-.8-2.3,1,1,0,0,1,.94-1.59q2.39-.24,4.78-0.66a1.26,1.26,0,0,0,1.13-1.36V35.31a1,1,0,0,0-1.12-1.17h-3.8A1.26,1.26,0,0,1,28,32.73V30.91a1.26,1.26,0,0,1,1.41-1.45h3.8a1,1,0,0,0,1.17-1.12V27.44a1,1,0,0,0-1.12-1.17H32.44Q31,26.27,31,25.09t-0.37-1q-0.33.28-1.73-1.12L28,22.09q-1.41-1.41,0-2.53A31.44,31.44,0,0,0,35.48,11.08ZM30,37q1.5-.75,2,0.61l1.17,4.17a1.86,1.86,0,0,1-1.08,2.39,10.13,10.13,0,0,0-1.5.61q-1.45.61-1.73-.8-0.47-2.06-1.12-4.17a1.6,1.6,0,0,1,.89-2.16Zm11.44,0a1.17,1.17,0,0,1,1.59-1.12,16.68,16.68,0,0,1,1.83.42A1.36,1.36,0,0,1,46,38q-0.47,2-1.12,4.08a1.42,1.42,0,0,1-2,1A3.71,3.71,0,0,1,42,42.72q-1.78-.52-1.41-1.92Zm7-25a1.25,1.25,0,0,1,1.31-1.5H67.27a1.26,1.26,0,0,1,1.45,1.41V26.45a1.26,1.26,0,0,1-1.41,1.45H61.69A1.76,1.76,0,0,0,60,29.31a5.51,5.51,0,0,1-.47,1.31q-0.47,1.27.56,1.27h8.44A1.26,1.26,0,0,1,70,33.3V50.45a1.26,1.26,0,0,1-1.41,1.45H66.23q-1.45,0-1.45-.89a0.92,0.92,0,0,0-1.13-.94H53.72a1,1,0,0,0-1.17,1.17,1.18,1.18,0,0,1-1.41,1.27H48.75a1.26,1.26,0,0,1-1.45-1.41V33.34a1.26,1.26,0,0,1,1.41-1.45h3.61A1.84,1.84,0,0,0,54,30.48a5.51,5.51,0,0,0,.47-1.31q0.42-1.27-.66-1.27H49.92a1.26,1.26,0,0,1-1.45-1.41V11.88ZM64.78,38.13A1,1,0,0,0,63.66,37H53.72a1,1,0,0,0-1.17,1.13V43.7a1,1,0,0,0,1.13,1.17h9.94a1,1,0,0,0,1.17-1.12V38.13ZM63.42,16.52a1,1,0,0,0-1.12-1.17H54.89a1,1,0,0,0-1.17,1.13v5.25a1,1,0,0,0,1.13,1.17h7.41a1,1,0,0,0,1.17-1.12V16.52Z" style="fill:#963b3b"/><path d="M82.09,10.66q0.61-1.69,2-1.27l2.3,0.7q1.5,0.52,1.22,1.5t0.84,1h8.91q1.45,0,1.45.75,0,1.17.8,0l1.36-3a1.36,1.36,0,0,1,1.92-.94q1.13,0.28,2.39.7t1,1.45q-0.33,1,.8,1h12A1.26,1.26,0,0,1,120.53,14v2.11a1.26,1.26,0,0,1-1.41,1.45H114q-1.17,0-.19,1.45a1.4,1.4,0,0,1-.47,2.25q-1.08.56-2.2,1.27a1.39,1.39,0,0,1-2.2-.7L107.35,19a2.61,2.61,0,0,0-2.25-1.45A2.44,2.44,0,0,0,102.9,19q-1,1.59.38,2t2.72,0.8a1.14,1.14,0,0,1,.8,1.73q-0.56,1.31.56,1.31h9.84a1.26,1.26,0,0,1,1.45,1.41v25a1.26,1.26,0,0,1-1.41,1.45h-2.53q-1.45,0-1.45-1a1,1,0,0,0-1.12-1.08H98.45a1,1,0,0,0-1.17,1q0,1.08-1.41,1.08H93.29a1.26,1.26,0,0,1-1.45-1.41v-25a1.26,1.26,0,0,1,1.41-1.45H99.1a1.76,1.76,0,0,0,1.64-1.41q0.42-1.64-.14-1t-2.11-.56l-1.55-1.17q-1.55-1.17-.8-2,0.75-1.08-.28-1.08H93.62q-1.12,0-.33,1.27a1.29,1.29,0,0,1-.56,2.06l-2.2,1.31a1.35,1.35,0,0,1-2.16-.56l-1.55-3a1.81,1.81,0,0,0-1.17-1.12q-0.56,0-1.36,1.41l-1.22,2q-1.17,1.59-2.48.56l-1.87-1.41a1.57,1.57,0,0,1-.37-2.53A32.59,32.59,0,0,0,82.09,10.66ZM80,30a2.07,2.07,0,0,1,2.77-.56A25.71,25.71,0,0,1,86,31.66a1.93,1.93,0,0,1,.38,3l-1.22,1.55q-1.31,1.45-2.44.33A41,41,0,0,0,79,33.39q-1.36-.89,0-2.34A10.78,10.78,0,0,1,80,30Zm5.25,9.14a1.31,1.31,0,0,1,2.2-.37l1.41,1.08q1.69,1.36.94,2.81a43.14,43.14,0,0,1-5.3,8.11q-1.41,1.78-2.81.38L80,49.47a1.87,1.87,0,0,1-.23-2.81A57.15,57.15,0,0,0,85.23,39.11Zm-2-15.94q1.73-1.78,3-1L89,24.25A1.83,1.83,0,0,1,89.17,27l-1.08,1.41Q86.78,30,85.6,28.8a26,26,0,0,0-2.81-2.3q-1.59-1.17-.47-2.39A8.16,8.16,0,0,0,83.21,23.17Zm30,8.06A1,1,0,0,0,112.18,30H98.45a1,1,0,0,0-1.17,1.13v2.58a1,1,0,0,0,1.13,1.17h13.69a1,1,0,0,0,1.17-1.12V31.23Zm0,10.13a1,1,0,0,0-1.08-1.22H98.45a1,1,0,0,0-1.17,1.13v3a1,1,0,0,0,1.13,1.17h13.69a1,1,0,0,0,1.17-1.12V41.36Z" style="fill:#963b3b"/><path d="M147.44,10q1.83-1.36,3.09-.38l0.94,0.75q1.55,1.17,1.27,1.45A2.84,2.84,0,0,0,154.19,13a84.73,84.73,0,0,0,16,6.7q1.45,0.42.61,1.83l-1.36,2.3a1.76,1.76,0,0,1-2.25,1,81.56,81.56,0,0,1-8-3.37q-1.12-.52-1.12.33t-1.41.94H141.35q-1.45,0-1.45-.8t-1.45-.09A58.39,58.39,0,0,1,131.78,25q-1.41.66-2.44-1.17L128.22,22q-0.89-1.45.52-2A81,81,0,0,0,147.44,10Zm-16,28.36A1.24,1.24,0,0,1,132.82,37H165.3a1.26,1.26,0,0,1,1.45,1.41V46a1,1,0,0,0,1.13,1.17h0.89a1.26,1.26,0,0,1,1.45,1.41v2.16a1.26,1.26,0,0,1-1.41,1.45H129.53a1.26,1.26,0,0,1-1.45-1.41V48.58a1.26,1.26,0,0,1,1.41-1.45h0.8A1,1,0,0,0,131.46,46V38.41Zm2.25-12.47a1.25,1.25,0,0,1,1.31-1.5h28a1.26,1.26,0,0,1,1.45,1.41V34a1.26,1.26,0,0,1-1.41,1.45H135.16A1.26,1.26,0,0,1,133.71,34V25.94Zm7.55,17.3A1,1,0,0,0,140.17,42h-2.11a1,1,0,0,0-1.17,1.13V46A1,1,0,0,0,138,47.13h2.06A1,1,0,0,0,141.25,46V43.23Zm18-13.22a1,1,0,0,0-1.12-.94h-18q-1.17,0-1.17.84a0.91,0.91,0,0,0,1.13.89h18Q159.25,30.81,159.25,30Zm-9.47-13.92a2.13,2.13,0,0,0-2.53.19l-1,.75q-1.22.8,0,.8h4.64q1.45,0,.28-0.84Zm1.59,27.14A1,1,0,0,0,150.3,42h-2.44a1,1,0,0,0-1.17,1.13V46a1,1,0,0,0,1.13,1.17h2.39A1,1,0,0,0,151.38,46V43.23Zm9.94,0A1,1,0,0,0,160.24,42H158a1,1,0,0,0-1.17,1.13V46a1,1,0,0,0,1.13,1.17h2.2A1,1,0,0,0,161.32,46V43.23Z" style="fill:#963b3b"/><path d="M39.19,73.72a1.26,1.26,0,0,1,1.41-1.45h3.19a1.26,1.26,0,0,1,1.45,1.41V84.73a1,1,0,0,0,1.13,1.17H57.42a1.26,1.26,0,0,1,1.45,1.41v3.23A1.26,1.26,0,0,1,57.47,92H46.41a1,1,0,0,0-1.17,1.13v11.11a1.26,1.26,0,0,1-1.41,1.45H40.64a1.26,1.26,0,0,1-1.45-1.41V93.17A1,1,0,0,0,38.06,92H26.91a1.26,1.26,0,0,1-1.45-1.41V87.36a1.26,1.26,0,0,1,1.41-1.45H38a1,1,0,0,0,1.17-1.12V73.72Z" style="fill:#963b3b"/><path d="M83.68,68a2.8,2.8,0,0,1,2.77-.89L89.26,68q1.5,0.42,1.08.84t1,1.31a81.93,81.93,0,0,0,16.31,7q1.41,0.42.61,1.83l-1.36,2.39a1.71,1.71,0,0,1-2.25.94l-1.27-.52q-1.27-.52-1.27.52V96.36a3.31,3.31,0,0,0,1.41,2.34q1.64,1.36.28,2.3L101,102.73q-1.17.56,0.38,1,3,0.75,6.14,1.31,1.41,0.23.66,1.73-0.7,1.22-1.27,2.44a1.9,1.9,0,0,1-2.16,1.17,46,46,0,0,1-14.44-5.67,28.3,28.3,0,0,1-6.19-5.3A2.81,2.81,0,0,0,82,98.33H77.54a1,1,0,0,0-1.17,1.13v3.89q0,1.13,1.41,1.08,3.8-.33,7.59-0.84a1.28,1.28,0,0,1,1.69,1.22l0.28,1.88a1.3,1.3,0,0,1-1.22,1.69q-6.94,1.17-15,2a1.41,1.41,0,0,1-1.78-1.17L69,107q-0.33-1.83.94-2a1.18,1.18,0,0,0,1.22-1.27V82.81q0-1.17-1.45-.52a1.61,1.61,0,0,1-2.3-.66l-1.12-2.25a1.34,1.34,0,0,1,.66-2.11A69.12,69.12,0,0,0,81.81,69.5,19.7,19.7,0,0,0,83.68,68ZM98.17,79.39L95.49,78q-1.12-.56-1.12.09t-1.41.7H80.26q-1.45,0-1.45-.56t-1.45.19L76,79.2q-1.64,1-.09,1H98.07Q99.57,80.19,98.17,79.39ZM97,86a1,1,0,0,0-1.12-1H77.54q-1.17,0-1.17.89a0.94,0.94,0,0,0,1.13,1H95.82Q97,86.89,97,86Zm0,6.47a1,1,0,0,0-1.08-1.12H77.54a1.06,1.06,0,1,0,0,2.11H95.82A1,1,0,0,0,97,92.47ZM87.67,73.3a2.08,2.08,0,0,0-2.62.09q-1.31,1-.14,1H88Q89.26,74.38,87.67,73.3Zm8.67,26.06q1.45-1,.09-1H90.9q-1.17,0,.38,1.13l1,0.66a2.75,2.75,0,0,0,2.53,0Z" style="fill:#963b3b"/><path d="M123.25,68.89a1.25,1.25,0,0,1,1.31-1.5H127a1.26,1.26,0,0,1,1.45,1.41v5.11a1,1,0,0,0,1.13,1.17h3.61a1.26,1.26,0,0,1,1.45,1.41v2.2a1.26,1.26,0,0,1-1.41,1.45h-3.61a1,1,0,0,0-1.17,1,3.15,3.15,0,0,0,1.41,2.25q2.39,1.92,4.78,4.17a2,2,0,0,1,.38,2.77l-1.36,1.92q-1,1.45-2.16.09-0.84-1.12-1.87-2.3t-1.17-.14v19.31A1.26,1.26,0,0,1,127,110.7h-2.3a1.26,1.26,0,0,1-1.45-1.41V93.22q0-1.5-.7-0.19-1.27,2.49-2.77,5-1,1.55-2.39,0L116.64,97a2.14,2.14,0,0,1,0-2.81,63.39,63.39,0,0,0,6.09-12.89q0.42-1.17-.75-1.17H118.1a1.26,1.26,0,0,1-1.45-1.41v-2.2A1.26,1.26,0,0,1,118,75.08h4A1,1,0,0,0,123.25,74V68.89Zm25.08,0a1.25,1.25,0,0,1,1.31-1.5h2.72a1.26,1.26,0,0,1,1.45,1.41v4.92a1,1,0,0,0,1.13,1.17h3a1.26,1.26,0,0,1,1.45,1.41v2.39A1.26,1.26,0,0,1,158,80.14h-3a1,1,0,0,0-1.17,1.13V104.8a8.23,8.23,0,0,1-1,3.75,3.78,3.78,0,0,1-2.62,1.83q-1.83.56-7,.23a1.69,1.69,0,0,1-1.64-1.55,23.35,23.35,0,0,1-.42-2.58q-0.28-1.55,1.36-1.36a27,27,0,0,0,3.23.19q2.58,0.33,2.58-2.16V91.44q0-1.5-.84-0.28a73.72,73.72,0,0,1-9.94,12.7,1.64,1.64,0,0,1-2.62-.19l-1.22-1.41q-1.12-1.27.42-2.67a74.38,74.38,0,0,0,13.69-18.33q0.56-1.12-.56-1.12h-9a1.26,1.26,0,0,1-1.45-1.41V76.34a1.26,1.26,0,0,1,1.41-1.45h9a1,1,0,0,0,1.17-1.12V68.89Z" style="fill:#963b3b"/></g><g id="鋁箔盒"><polygon points="221.04 88.13 221.05 88.13 221.05 88.13 221.04 88.13" style="fill:#c5cbc9"/><polygon points="221.05 88.12 221.04 88.13 221.05 88.13 221.05 88.12" style="fill:#c5cbc9"/><polygon points="287.77 12.94 287.77 12.94 287.77 12.94 287.77 12.94" style="fill:#c5cbc9"/><polygon points="227.56 108.25 227.56 108.25 227.56 108.25 227.56 108.25" style="fill:#c5cbc9"/><polygon points="237.16 108.57 237.16 108.57 237.16 108.57 237.16 108.57" style="fill:#c5cbc9"/><polygon points="296 44 296.08 44.55 296.08 44.55 300 12 287.77 12.94 295.96 44.12 296 44" style="fill:#ededed"/><polygon points="260 14 256 48 268 50 260 14" style="fill:#ededed"/><polygon points="256 48 259.23 64 268 50 256 48" style="fill:#e8e8e8"/><polygon points="220 108 227.56 108.25 221.05 88.13 220 108" style="fill:#d8d8d8"/><polygon points="268 50 276 64 284 46.44 268 50" style="fill:#e5e5e5"/><polygon points="275.94 13.84 268 50 284 46.44 275.94 13.84" style="fill:#e2e2e2"/><polygon points="240 44 248 60 256 48 240 44" style="fill:#ededed"/><polygon points="249.02 13.45 240 44 256 48 249.02 13.45" style="fill:#e2e2e2"/><polygon points="316 12 300 12 296.08 44.55 316 12" style="fill:#e2e2e2"/><polygon points="253.23 109.11 265.48 94.96 259.23 64 253.23 109.11" style="fill:#e8e8e8"/><polygon points="295.96 44.12 296.08 44.55 296 44 295.96 44.12" style="fill:#c5cbc9"/><polygon points="312 60 316 12 296.08 44.55 312 60" style="fill:#dbdbdb"/><polygon points="296.08 44.55 300 72 312 60 296.08 44.55 296.08 44.55" style="fill:#e8e8e8"/><polygon points="298 109 316 108 312 60 298 109" style="fill:#dbdbdb"/><polygon points="227.56 108.25 237.16 108.57 232 76 227.56 108.25" style="fill:#e8e8e8"/><polygon points="221.05 88.13 221.05 88.13 227.56 108.25 227.56 108.25 232 76 221.05 88.13" style="fill:#e2e2e2"/><polygon points="296.08 44.55 295.96 44.12 288 72 300 72 296.08 44.55" style="fill:#e2e2e2"/><polygon points="288 72 298 109 300 72 288 72" style="fill:#e8e8e8"/><polygon points="300 72 298 109 312 60 300 72" style="fill:#e2e2e2"/><polygon points="232 76 228 64 221.05 88.12 221.05 88.13 232 76" style="fill:#ededed"/><polygon points="248 60 237.16 108.57 253.23 109.11 253.23 109.11 248 60" style="fill:#d8d8d8"/><polygon points="265.48 94.96 253.23 109.11 275.64 109.86 275.64 109.86 265.48 94.96" style="fill:#e2e2e2"/><polygon points="298 109 288 72 275.64 109.86 275.64 109.86 280 110 298 109" style="fill:#e2e2e2"/><polygon points="256 48 248 60 259.23 64 256 48" style="fill:#f2f2f2"/><polygon points="248 60 253.23 109.11 259.23 64 248 60" style="fill:#ededed"/><polygon points="268 50 259.23 64 276 64 268 50" style="fill:#ededed"/><polygon points="276 64 259.23 64 272.7 73.7 276 64" style="fill:#e8e8e8"/><polygon points="259.23 64 265.48 94.96 272.7 73.7 259.23 64" style="fill:#e5e5e5"/><polygon points="240 44 228 64 248 60 240 44" style="fill:#e8e8e8"/><polygon points="228 64 232 76 237.16 108.57 248 60 228 64" style="fill:#e2e2e2"/><polygon points="284 46.44 276 64 288 72 284 46.44" style="fill:#e2e2e2"/><polygon points="276 64 275.64 109.86 288 72 276 64" style="fill:#e8e8e8"/><polygon points="284 46.44 288 72 295.96 44.12 284 46.44" style="fill:#dbdbdb"/><polygon points="287.77 12.94 284 46.44 295.96 44.12 287.77 12.94" style="fill:#e8e8e8"/><polygon points="265.48 94.96 275.64 109.86 276 64 265.48 94.96" style="fill:#dbdbdb"/><polygon points="236.36 12.82 224 32 240 44 236.36 12.82" style="fill:#e5e5e5"/><polygon points="224 32 228 64 240 44 224 32" style="fill:#ededed"/><polygon points="275.94 13.84 275.94 13.84 284 46.45 287.77 12.94 275.94 13.84" style="fill:#f2f2f2"/><polygon points="220 12 224 32 236.36 12.82 236.36 12.82 220 12" style="fill:#f2f2f2"/><polygon points="236.36 12.82 236.36 12.82 240 44 249.02 13.45 249.02 13.45 236.36 12.82" style="fill:#ededed"/><polygon points="249.02 13.45 249.02 13.45 256 48 260 14 249.02 13.45" style="fill:#e8e8e8"/><polygon points="260 14 268 50 268.38 14.42 260 14" style="fill:#f2f2f2"/><polygon points="268.38 14.42 268 50 275.94 13.84 268.38 14.42" style="fill:#ededed"/><polygon points="224 32 221.05 88.12 228 64 224 32" style="fill:#e2e2e2"/></g></svg>