<svg xmlns="http://www.w3.org/2000/svg" viewBox="0 0 480 120"><rect width="480" height="120" style="fill:#fffbf5"/><rect width="3" height="120" style="fill:#e2695b"/><g id="香腸_t"><text transform="translate(24 74.44)" style="font-size:48px;fill:#963b3b;font-family:HanWangHeiHeavy;letter-spacing:2px;opacity: 0">香腸</text><path d="M32.77,39.89q14.72-.09,29.86-1.31a8.22,8.22,0,0,1,.94,1.64L64.5,42q0.75,1.41-.66,1.59-5.86.56-11.72,0.89A1.08,1.08,0,0,0,51,45.61a1,1,0,0,0,1.13,1H67.45A1.26,1.26,0,0,1,68.91,48v2.39a1.26,1.26,0,0,1-1.41,1.45H61.59q-1.5,0-.28.75a55.72,55.72,0,0,0,8,3.14q1.41,0.42.56,1.92l-1.45,2.48a1.62,1.62,0,0,1-2.2.89q-1.45-.61-1.45.47V80.06a1.26,1.26,0,0,1-1.41,1.45H60.75q-1.45,0-1.45-.89a0.94,0.94,0,0,0-1.12-1H38.48q-1.17,0-1.17.89t-1.41,1H33.42A1.26,1.26,0,0,1,32,80.11V62q0-1.17-1.22-.7a1.68,1.68,0,0,1-2-1L27.47,58q-0.8-1.36.66-1.73A60.41,60.41,0,0,0,38,52.69q1.78-.8.09-0.8H29.3a1.26,1.26,0,0,1-1.45-1.41V48.09a1.26,1.26,0,0,1,1.41-1.45H44.48q1.17,0,1.17-.89t-1.41-.89q-4.88.23-9.75,0.28a1.91,1.91,0,0,1-1.92-1.41l-0.75-2.34Q31.31,39.89,32.77,39.89ZM52.5,53.3q-1.5-1.08-1.5,0v3.89a1.26,1.26,0,0,1-1.41,1.45H47.11a1.26,1.26,0,0,1-1.45-1.41v-2.3q0-1.17-1.45,0a42.36,42.36,0,0,1-7.5,4.08q-1.45.7,0,.7H61.27q1.5,0,.28-0.75A66,66,0,0,1,52.5,53.3ZM59.3,66q0-1.45-1-1.45H38.48a1.1,1.1,0,0,0-1.17,1.31q0,1.41,1.13,1.41H58.13A1.08,1.08,0,0,0,59.3,66Zm0,7.45q0-1.36-1.08-1.36H38.48a1.08,1.08,0,0,0-1.17,1.27,1.11,1.11,0,0,0,1.13,1.36H58.13A1.08,1.08,0,0,0,59.3,73.5Z" style="fill:#963b3b"/><path d="M79.27,40.88a1.25,1.25,0,0,1,1.31-1.5H91.13a1.26,1.26,0,0,1,1.45,1.41V65.3q0,1.17,1.5.14A20.24,20.24,0,0,0,98,62.3q1-1.22,0-1.22H95a1.26,1.26,0,0,1-1.45-1.41V58a1.26,1.26,0,0,1,1.41-1.45h24.33A1.26,1.26,0,0,1,120.71,58v1.64a1.26,1.26,0,0,1-1.41,1.45h-13.5a1.62,1.62,0,0,0-1.45.52q-0.38.66,0.66,0.66h13.27a1.26,1.26,0,0,1,1.45,1.41,98.59,98.59,0,0,1-.42,10.5,11.58,11.58,0,0,1-1.5,5.63q-2.25,2.48-7.12,1.78A2.36,2.36,0,0,1,109,79.69l-0.42-2.2q-0.28-1.08-1.64.42-1.27,1.31-2.58,2.44a2.21,2.21,0,0,1-3.19,0,2.81,2.81,0,0,1-.56-0.52q-1.78-1.69-.28-2.72,5.77-4.41,7.78-9.33,0.42-1.12-.19-1.12t-1.41,1.41a25.59,25.59,0,0,1-8.25,8.48A1.5,1.5,0,0,1,96,76l-0.56-.94q-1.12-1.78.38-2.58a18.92,18.92,0,0,0,5.3-4.59q0.94-1.27.14-1.27A3.87,3.87,0,0,0,98.92,68q-1.41,1.17-2.81,2.16a1.71,1.71,0,0,1-2.39-.37q-1.12-1.41-1.12-.23V75.8q-0.75,6.56-6.94,5.63a1.94,1.94,0,0,1-1.73-1.69l-0.47-2.2q-0.28-1.45-.75-0.33L82,79.31a1.52,1.52,0,0,1-2.11.89L78,79.45A1.44,1.44,0,0,1,77,77.3,47,47,0,0,0,79.27,64V40.88Zm8.25,27a1,1,0,0,0-1.12-1.17H85.51a1.27,1.27,0,0,0-1.27,1.41Q84,71,83.4,74.39q-0.24,1.13,1.22,1.78a2.38,2.38,0,0,0,1.88,0,2.79,2.79,0,0,0,1-2.48V67.83Zm0-22.31a1,1,0,0,0-1.12-1.17H85.51a1,1,0,0,0-1.17,1.13v3.75a1,1,0,0,0,1.13,1.17h0.89a1,1,0,0,0,1.17-1.12V45.52Zm0,10.78a1,1,0,0,0-1.08-1.22H85.51a1,1,0,0,0-1.17,1.13v4.69a1,1,0,0,0,1.13,1.17h0.89a1,1,0,0,0,1.17-1.12V56.3Zm8.25-15.89a1.27,1.27,0,0,1,1.36-1.5h19.08a1.26,1.26,0,0,1,1.45,1.41V54a1.26,1.26,0,0,1-1.41,1.45H97.18A1.24,1.24,0,0,1,95.77,54V40.41Zm16.73,3.94a1,1,0,0,0-1.17-.89h-9.09q-1.17,0-1.17.84a0.91,0.91,0,0,0,1.13.89h9.14Q112.51,45.19,112.51,44.34Zm0,5.77a1,1,0,0,0-1.17-.84h-9.09q-1.17,0-1.17.8t1.13,0.84h9.14Q112.51,50.91,112.51,50.11Zm1.88,17.72q0-1.12-.47-1.17t-1,1.41a24.73,24.73,0,0,1-3.47,6.75q-0.84,1.08.7,1.41l1.5,0.23a1.77,1.77,0,0,0,2.25-1.5A41.78,41.78,0,0,0,114.38,67.83Z" style="fill:#963b3b"/></g><rect x="336" width="120" height="120" style="fill:#fffbf5"/><g id="香腸"><path d="M419,11a1.14,1.14,0,0,0,1,0c0,3,2,3,4.33,4.33s5,4,6.33,10,1.33,15.33,0,25.67-4,21.67-10,31.33A54.93,54.93,0,0,1,395.33,104,50.85,50.85,0,0,1,368,106.67c-6.66-1.33-9.33-4-10.67-6.33S356,96,353,97a1.72,1.72,0,0,0,0-1c3,0,3-2,3-5.67s0-9,4.67-12.33,14-4.67,20.67-8.33S392,60,394,53s2-15,3.33-21.67,4-12,7.33-14.67S412,14,414.75,14,419,14,419,11Z" style="fill:#ce827e"/><path d="M408.73,14.62a11.27,11.27,0,0,0-4.06,2c-3.33,2.67-6,8-7.33,14.67S396,46,394,53s-6,13-12.67,16.67-16,5-20.67,8.33c-4.06,2.9-4.59,7.31-4.66,10.83,0.27,3.24,1,4.32,1.53,5.13a4.68,4.68,0,0,0,.33.45,12.67,12.67,0,0,0,2,1.87l0.85,0.63c0.45,0.32,1,.71,1.46,1s1,0.6,1.32.79,0.85,0.47,1.22.65a14.2,14.2,0,0,0,1.63.68,19.76,19.76,0,0,0,2.36.65,31.58,31.58,0,0,0,3.19.51c1.29,0.14,2.58.22,3.88,0.24a46.56,46.56,0,0,0,9-.68A41.88,41.88,0,0,0,394.11,98a43.43,43.43,0,0,0,8.94-5.25A49.67,49.67,0,0,0,411,85.24a47.84,47.84,0,0,0,3.33-4.41,50.89,50.89,0,0,0,4.2-7.76,81.19,81.19,0,0,0,3.67-10.49,83.86,83.86,0,0,0,2.19-9.81,107.76,107.76,0,0,0,1.17-11.33,80.1,80.1,0,0,0,0-8.8c-0.07-1.18-.17-2.37-0.32-3.54-0.12-.94-0.28-1.89-0.46-2.82a19.24,19.24,0,0,0-1.13-3.88,13.65,13.65,0,0,0-1.3-2.43,11.21,11.21,0,0,0-1.1-1.36,14.09,14.09,0,0,0-2.42-2,12.82,12.82,0,0,0-3.12-1.48A15.78,15.78,0,0,0,408.73,14.62Z" style="fill:#ea9c98"/><path d="M411.7,18.12c6.9-.1,7.6,3.89,7.28,8.55s-1.65,10-4.3,12.72-6.62,2.84-9.62,1.81-5.06-3.2-4-8.11a38.8,38.8,0,0,1,1-4.27,30.07,30.07,0,0,1,1-3,22.83,22.83,0,0,1,1.2-2.5,16.47,16.47,0,0,1,1.3-2,10.2,10.2,0,0,1,1.29-1.4,7,7,0,0,1,1.25-.88,7.52,7.52,0,0,1,1.35-.57A11.25,11.25,0,0,1,411.7,18.12Z" style="fill:#fecebf"/></g></svg>