<svg xmlns="http://www.w3.org/2000/svg" viewBox="0 0 528 120"><g style="isolation:isolate"><g><rect width="528" height="120" style="fill:#fffbf5"/><g id="保鮮袋_t"><text transform="translate(24 74.44)" style="font-size:48px;fill:#963b3b;font-family:HanWangHeiHeavy;letter-spacing:2px;opacity: 0;">保鮮袋</text><path d="M35,39.89q0.47-1.5,1.73-1.12L39,39.42a1.41,1.41,0,0,1,1.13,2,58.63,58.63,0,0,1-2.77,7.17,5.16,5.16,0,0,0-.52,2.16v29.3a1.26,1.26,0,0,1-1.41,1.45H33a1.26,1.26,0,0,1-1.45-1.41V60.75q0-1.27-1.08.28-1,1.31-1.73-.14L27.38,58.5a2.61,2.61,0,0,1,0-2.81A62.06,62.06,0,0,0,35,39.89Zm6.8,1.45a1.26,1.26,0,0,1,1.41-1.45H64.88a1.26,1.26,0,0,1,1.45,1.41V54.89a1.26,1.26,0,0,1-1.41,1.45H58.08q-1.17,0-1.17,1.5T58,59.44h9.8a1.26,1.26,0,0,1,1.45,1.41v2.48a1.26,1.26,0,0,1-1.41,1.45H60.66q-1.22,0-.14,1.17a26.67,26.67,0,0,0,8.34,6.52,1.39,1.39,0,0,1,.66,2.11L68,77.39a1.43,1.43,0,0,1-2.2.61,34.94,34.94,0,0,1-7.88-7.08q-1-1-1,.09v9.23A1.26,1.26,0,0,1,55.5,81.7H52.78a1.26,1.26,0,0,1-1.45-1.41V70.83q0-1.22-1.08.28a39,39,0,0,1-8.16,7.31,1.45,1.45,0,0,1-2.25-.56l-1.17-2q-0.8-1.45.94-2.53a33.87,33.87,0,0,0,8-7.17q1-1.36-.14-1.36H40a1.26,1.26,0,0,1-1.45-1.41V60.89A1.26,1.26,0,0,1,40,59.44H50.16q1.17,0,1.17-1.5T50.2,56.34h-7a1.24,1.24,0,0,1-1.41-1.41V41.34ZM60.7,46.41a1,1,0,0,0-1-1.27H48.61a1,1,0,0,0-1.17,1.13V50a1,1,0,0,0,1.13,1.17h11a1,1,0,0,0,1.17-1.12V46.41Z" style="fill:#963b3b"/><path d="M78.29,71.25q0.14-1.69,1.45-1.36a6.73,6.73,0,0,1,1.31.33,1.68,1.68,0,0,1,1.55,1.92,51.68,51.68,0,0,1-1.36,7.73q-0.42,1.45-1.83.7l-1.31-.66A1.81,1.81,0,0,1,77,77.72,45.44,45.44,0,0,0,78.29,71.25Zm3.38-31.78a1.34,1.34,0,0,1,1.88-1L85.46,39q1.55,0.56,1.31,1.36a0.68,0.68,0,0,0,.75,1h5.91a1.26,1.26,0,0,1,1.45,1.41v2a4.22,4.22,0,0,1-.61,2.34q-1,1.5.09,1.5h1.45a1.26,1.26,0,0,1,1.45,1.41V67.45a1.26,1.26,0,0,1-1.41,1.45h-16a1.26,1.26,0,0,1-1.45-1.41V51.84A2.31,2.31,0,0,0,77.49,50q-0.89-.7.09-2.11A39.52,39.52,0,0,0,81.67,39.47Zm3.8,31.22a1.57,1.57,0,0,1,2.06,1.13,32.22,32.22,0,0,1,.8,6.23,1.46,1.46,0,0,1-1.41,1.69l-1.41.14q-1.64.14-1.64-1.27a28.29,28.29,0,0,0-.52-6.14,1.22,1.22,0,0,1,1.13-1.64A3.75,3.75,0,0,0,85.46,70.69Zm0-15.75q0-1.55-1-1.55T83.4,54.84q0,1.55,1,1.55T85.51,54.94Zm0,7.83q0-1.69-1-1.69A1,1,0,0,0,83.4,62.2v0.89a1,1,0,0,0,1,1.17Q85.51,64.27,85.51,62.77ZM88.7,47.39Q89.54,46,88.37,46H85.65a2,2,0,0,0-1.78,1.31q-0.75,1.36.38,1.36h2.44A2.49,2.49,0,0,0,88.7,47.39Zm1.78,23.16q2-.66,2.53.89A48,48,0,0,1,94.27,77a1.6,1.6,0,0,1-1.36,1.83L92,79.08q-1.69.56-1.92-.94-0.47-2.62-1.17-5.25a1.51,1.51,0,0,1,1-2.16Zm1.83-15.61q0-1.55-1-1.55T90.2,54.84q0,1.55,1,1.55T92.31,54.94Zm0,7.83q0-1.69-1-1.69A1,1,0,0,0,90.2,62.2v0.89a1,1,0,0,0,1,1.17Q92.31,64.27,92.31,62.77ZM95,70.36l1.59-.42a1.48,1.48,0,0,1,1.92,1.13,31.5,31.5,0,0,1,1.5,4.88,1.43,1.43,0,0,1-1.08,1.92l-1.83.56a1.16,1.16,0,0,1-1.69-1,34.6,34.6,0,0,0-1.31-5.16A1.29,1.29,0,0,1,95,70.36Zm17.34-30.28a1.24,1.24,0,0,1,1.83-1,23.07,23.07,0,0,1,2.34.8A1.51,1.51,0,0,1,117.67,42l-1.27,3.42q-0.56,1.27.52,1.27h1.69A1.26,1.26,0,0,1,120.06,48v2.39a1.26,1.26,0,0,1-1.41,1.45h-5.3A1,1,0,0,0,112.18,53v2.39a1,1,0,0,0,1.13,1.17h4.64A1.26,1.26,0,0,1,119.4,58v2.39A1.26,1.26,0,0,1,118,61.83h-4.64A1,1,0,0,0,112.18,63v2.39a1,1,0,0,0,1.13,1.17h5.63a1.26,1.26,0,0,1,1.45,1.41v2.39A1.26,1.26,0,0,1,119,71.77h-5.62a1,1,0,0,0-1.17,1.13v7.17a1.26,1.26,0,0,1-1.41,1.45H108.2a1.26,1.26,0,0,1-1.45-1.41V72.94a1,1,0,0,0-1.12-1.17h-5a1.26,1.26,0,0,1-1.45-1.41V68a1.26,1.26,0,0,1,1.41-1.45h5a1,1,0,0,0,1.17-1.12V63a1,1,0,0,0-1.12-1.17h-4.17A1.26,1.26,0,0,1,100,60.42V58a1.26,1.26,0,0,1,1.41-1.45h4.17a1,1,0,0,0,1.17-1.12V53.06a1,1,0,0,0-1.12-1.17h-5.16A1.26,1.26,0,0,1,99,50.48V48.09a1.26,1.26,0,0,1,1.41-1.45h1.13q1.13,0,.7-1.41a19.19,19.19,0,0,0-1-2.34,1.59,1.59,0,0,1,.7-2.44l1.55-.7a1.77,1.77,0,0,1,2.58.7q0.89,1.69,1.59,3.38a1.48,1.48,0,0,1-.84,2.11q-1.64.7-.09,0.7h2a2,2,0,0,0,1.78-1.41Q111.52,42.66,112.32,40.08Z" style="fill:#963b3b"/><path d="M136.52,39.61a1.5,1.5,0,0,1,2.3-.56l1.92,1.13q1.5,0.89.47,2.58l-1.27,1.73a3.57,3.57,0,0,0-1,2.25v11a1.26,1.26,0,0,1-1.41,1.45H135a1.26,1.26,0,0,1-1.45-1.41V51.94q0-1.17-1.22-.33T130,51l-1.12-1.45a1.53,1.53,0,0,1,.19-2.48A32.65,32.65,0,0,0,136.52,39.61Zm10.13,18.61A1.24,1.24,0,0,1,148,56.77h2.53A1.26,1.26,0,0,1,152,58.17v1.17a1,1,0,0,0,1.13,1.17h15.61a1.26,1.26,0,0,1,1.45,1.41v2.2a1.26,1.26,0,0,1-1.41,1.45H155.92q-1.17,0-.28,1.45l1,1.27a1.78,1.78,0,0,0,2.48.23l1.92-1.31a2,2,0,0,1,2.81-.14l1.36,1.17q1.73,1.5.28,2.77L164,72q-1.36.8,0.09,1.69a54.34,54.34,0,0,0,5.58,2.44q1.41,0.47.28,1.92L168.49,80a2.18,2.18,0,0,1-2.62.94Q155,76,149.78,67.08q-0.56-1.22-1.92-.19Q146.27,68,144.67,69a2.38,2.38,0,0,0-1.45,2v3q0,1.13,1.41,1,3.52-.42,7-1.08,1.69-.23,1.69,1.17V77a1.63,1.63,0,0,1-1.41,1.73q-6.19,1.36-16.45,2.77a1.71,1.71,0,0,1-2-1.22L132.67,78q-0.52-1.5.84-1.64l3-.37a1.2,1.2,0,0,0,1.13-1.31V73.55q0-1.12-1.41-.61l-3.28,1.13a2.49,2.49,0,0,1-2.72-.75,17.92,17.92,0,0,1-1.27-1.5q-1.31-1.5.09-1.83a72.78,72.78,0,0,0,11.2-3.7q1.36-.7-0.09-0.7h-10a1.26,1.26,0,0,1-1.45-1.41V62A1.26,1.26,0,0,1,130,60.52h15.42a1,1,0,0,0,1.17-1.12V58.22Zm10.69-18.61a18,18,0,0,1,1.78-1.08q1.41-.84,2.86.61l1.17,1.41q0.84,1.41-.33,2.11t0.28,0.7l3.75-.47q1.73-.19,1.83,1.31a13.9,13.9,0,0,0,.14,2,1.39,1.39,0,0,1-1.36,1.59L157.8,49q-1.12.14,0.09,1.55,3.7,3.42,7.22,3.14a2.06,2.06,0,0,0,.56-1.59q0.09-1.69,1.59-1.12a18.69,18.69,0,0,1,2.06.8,1.72,1.72,0,0,1,1.31,1.92q-0.42,4.73-4.73,5.53a13,13,0,0,1-8.34-2.39,20.09,20.09,0,0,1-6-5.91,2,2,0,0,0-2.16-.94l-6.28.75a1.35,1.35,0,0,1-1.69-1.22l-0.28-2a1.3,1.3,0,0,1,1.22-1.64l5.44-.61q1.17-.19.84-1.55-0.38-1.59-.61-3.19a1.48,1.48,0,0,1,1.36-1.87l2.06-.28a1.25,1.25,0,0,1,1.64,1.17q0.28,1.92.75,3.84,0.23,1.08,1.78.89a12.8,12.8,0,0,1,1.88-.23q1.13-.19.19-1.55a2.2,2.2,0,0,0-.42-0.56Q156,40.45,157.33,39.61Z" style="fill:#963b3b"/></g><rect width="3" height="120" style="fill:#e2695b"/><rect x="384" width="120" height="120" style="fill:#fffbf5"/><g id="保鮮袋"><g style="opacity:0.6000000000000001;mix-blend-mode:hard-light"><rect x="408" y="27.5" width="72" height="1"/><rect x="408" y="24.5" width="72" height="1"/><rect x="408" y="12.5" width="72" height="10"/><path d="M408,108.5q36-1,72,0-1-40,0-80v-16H408v16Q409,68.5,408,108.5Z" style="opacity:0.4"/><path d="M416,48.5a197,197,0,0,0,56,0" style="opacity:0.6000000000000001"/><path d="M416,56.5a392.57,392.57,0,0,1,56,0" style="opacity:0.6000000000000001"/><path d="M416,96.5a197,197,0,0,1,56,0" style="opacity:0.6000000000000001"/></g><rect x="408" y="27" width="72" height="1" style="fill:#fc7fa9"/><rect x="408" y="24" width="72" height="1" style="fill:#fc7fa9"/><rect x="408" y="12" width="72" height="10" style="fill:#fc7fa9"/><path d="M408,108q36-1,72,0-1-40,0-80V12H408V28Q409,68,408,108Z" style="fill:#eff4f3;opacity:0.4"/><path d="M416,48a197,197,0,0,0,56,0" style="fill:#f2f7f6;opacity:0.6000000000000001"/><path d="M416,56a392.57,392.57,0,0,1,56,0" style="fill:#f2f7f6;opacity:0.6000000000000001"/><path d="M416,96a197,197,0,0,1,56,0" style="fill:#f2f7f6;opacity:0.6000000000000001"/></g></g></g></svg>