<svg xmlns="http://www.w3.org/2000/svg" viewBox="0 0 528 120"><rect width="528" height="120" style="fill:#fffbf5"/><rect width="3" height="120" style="fill:#e2695b"/><g id="烤肉醬_t"><text transform="translate(24 74.44)" style="font-size:48px;fill:#963b3b;font-family:HanWangHeiHeavy;letter-spacing:2px;opacity: 0">烤肉醬</text><path d="M27.66,48.61q0.09-1.55,1.41-1.22a12.27,12.27,0,0,1,1.78.42,1.57,1.57,0,0,1,1.31,1.78,107.65,107.65,0,0,1-1.5,11.72q-0.33,1.55-1.87.8l-1.22-.66A2,2,0,0,1,26.3,59.3,92.73,92.73,0,0,0,27.66,48.61Zm5.72-8.72a1.25,1.25,0,0,1,1.31-1.5h2.44a1.26,1.26,0,0,1,1.45,1.41v6.47q0,1.22,1.17-.19a1.65,1.65,0,0,1,2.72-.37l0.94,0.75q1.64,1.31.52,2.81a24.09,24.09,0,0,1-4.12,3.89,2.94,2.94,0,0,0-1.27,2.3,62.31,62.31,0,0,1-.89,8.91,2.36,2.36,0,0,0,1.13,2.25l3.89,3.47A1.87,1.87,0,0,1,43,72.8l-1.41,1.92q-1.12,1.55-2.16.19T37,72q-0.94-1-1.45.47a32.78,32.78,0,0,1-3.61,7.73q-1,1.55-2.67.28l-0.94-.75q-1.73-1.36-.8-2.81a46.92,46.92,0,0,0,5.86-21.94v-15Zm18.56-.19a1.27,1.27,0,0,1,1.36-1.5h2.34a1.26,1.26,0,0,1,1.45,1.41V41a1,1,0,0,0,1.13,1.17h2.34A1.26,1.26,0,0,1,62,43.55v0.94q0,1.22,1-.37l0.8-1.31a1.77,1.77,0,0,1,2.25-.89l2.39,0.8q1.36,0.47.61,1.88a61.59,61.59,0,0,1-3.37,5.16q-1.17,1.45,0,1.45h2.72a1.26,1.26,0,0,1,1.45,1.41v2A1.26,1.26,0,0,1,68.48,56H61a4.16,4.16,0,0,0-2.53,1.17l-1,.75q-1.31.89-.09,0.89H66.8a1.26,1.26,0,0,1,1.45,1.41v2a1.26,1.26,0,0,1-1.41,1.45H53.48A1.49,1.49,0,0,0,52,64.92q-0.19,1.27.94,1.27H66.19a1.22,1.22,0,0,1,1.41,1.41q-0.24,7.22-2,11.25a5,5,0,0,1-3.47,2.53,11,11,0,0,1-5.62,0,2.13,2.13,0,0,1-2-1.78l-0.47-2.11q-0.33-1.45,1.17-1.22l3.23,0.33a7,7,0,0,0,2.3-.33q1.27-1,1.41-4.17A1,1,0,0,0,61.08,71H51.7a1.36,1.36,0,0,0-1.41,1.22,1.27,1.27,0,0,1-1.69,1,20.14,20.14,0,0,0-2.34-.33,1.2,1.2,0,0,1-1.17-1.59l1.41-5.81q0.23-1.12-1.17-.52l-1.87.8a1.72,1.72,0,0,1-2.25-.89l-0.75-1.41q-0.89-1.55.52-2.16a56.87,56.87,0,0,0,8.86-4.45Q51,56,49.5,56H44.34a1.26,1.26,0,0,1-1.45-1.41v-2a1.26,1.26,0,0,1,1.41-1.45h6.47a1,1,0,0,0,1.17-1.12V48.19A1,1,0,0,0,50.81,47H47a1.26,1.26,0,0,1-1.45-1.41v-2A1.26,1.26,0,0,1,47,42.14h3.8A1,1,0,0,0,51.94,41V39.7ZM60,48.28Q60.94,47,60,47H58.27a1,1,0,0,0-1.17,1.13v2q0,1.36,1.27.09Z" style="fill:#963b3b"/><path d="M95.07,39.94q0.09-1.55,1.41-1.31a19,19,0,0,1,2.25.42,1.72,1.72,0,0,1,1.64,1.78l-0.09,1.64a1,1,0,0,0,1,1.22H117.2a1.26,1.26,0,0,1,1.45,1.41V75.61q-0.52,5.11-5,5.77a10.68,10.68,0,0,1-4.41-.14,2.16,2.16,0,0,1-1.78-1.69l-0.56-2.91q-0.28-1.41,1.13-1a9.44,9.44,0,0,0,4.36.38,2.33,2.33,0,0,0,.75-1.64V50.25A1,1,0,0,0,112,49.08H100.42a1.37,1.37,0,0,0-1.31.42q-0.19.47,1.27,1.08a65.7,65.7,0,0,1,10.55,5.86,1.71,1.71,0,0,1,.38,2.72L110,61a1.44,1.44,0,0,1-2.34.42,60.69,60.69,0,0,0-9.37-5.67,1.77,1.77,0,0,0-2.44.61,26.66,26.66,0,0,1-6.66,6.28,1.85,1.85,0,0,1-2.81-.47L85.51,61q-1.17-1.55.09-2.39a20.22,20.22,0,0,0,7.45-8.39q0.47-1.17-.66-1.17H84.95a1,1,0,0,0-1.17,1.13v30a1.26,1.26,0,0,1-1.41,1.45H79.79a1.26,1.26,0,0,1-1.45-1.41V45.14a1.26,1.26,0,0,1,1.41-1.45H93.57a1.32,1.32,0,0,0,1.31-1.41A14.87,14.87,0,0,0,95.07,39.94ZM96,59.39a1.5,1.5,0,0,1,1.78-1.27l2.3,0.28q1.69,0.23,1.36,1.73l-0.66,2.2q-0.47,1.13,1,1.83A61.55,61.55,0,0,1,109.84,69q1.69,1.31.61,2.81l-1,1.5q-1.27,1.83-2.67.61A55.05,55.05,0,0,0,99,68.77q-1.08-.56-2.25.94a25.9,25.9,0,0,1-7.27,6.14,2,2,0,0,1-2.86-.56,14.87,14.87,0,0,1-1.08-1.5q-1.17-1.55.23-2.34Q93.95,66.8,96,59.39Z" style="fill:#963b3b"/><path d="M128.17,61.27a1.26,1.26,0,0,1,1.41-1.45h39A1.26,1.26,0,0,1,170,61.22v1a1.26,1.26,0,0,1-1.41,1.45h-13q-1.12,0-1.17.47t1.17,0.47h10A1.26,1.26,0,0,1,167,66V80.63a1.26,1.26,0,0,1-1.41,1.45h-2q-1.45,0-1.45-.56T161,80.91H136.24q-1.17,0-1.17.56t-1.41.61h-2a1.26,1.26,0,0,1-1.45-1.41V66.09a1.26,1.26,0,0,1,1.41-1.45h9.61q1.13,0,1.17-.47t-1.17-.47H129.58a1.24,1.24,0,0,1-1.41-1.41v-1ZM138.3,40.64a1.26,1.26,0,0,1,1.41-1.45h2a1.26,1.26,0,0,1,1.45,1.41V57.75a1.26,1.26,0,0,1-1.41,1.45h-2a1.26,1.26,0,0,1-1.45-1.41V54.38a1,1,0,0,0-1.17-1.17,1.58,1.58,0,0,0-1.55,1.41q-0.38,2.34-3.75,3.94-1.55.7-2.2-.56l-0.56-1.22a1.49,1.49,0,0,1,.8-2.2,8.15,8.15,0,0,0,1.13-.94q0.23-.42-1.08-0.42a1.22,1.22,0,0,1-1.36-1.41V50.34A1.26,1.26,0,0,1,130,48.89h7.17q1.17,0,1.17-.61t-1.12-.7h-6.09a1.26,1.26,0,0,1-1.45-1.41V41.53A1.26,1.26,0,0,1,131,40.08h1.69a1.26,1.26,0,0,1,1.45,1.41v0.66a1,1,0,0,0,1.13,1.17h1.83a1,1,0,0,0,1.17-1.12V40.64ZM139.71,69q1.17-.75-0.19-0.75h-3.28a1,1,0,0,0-1.17,1.13V72a1,1,0,0,0,1.13,1.17h24.75q1.13,0,1.17-.47T161,72.14a67.32,67.32,0,0,1-7.92-.23,3.3,3.3,0,0,1-3.14-3q0-.66-1-0.66h-1.31a2.81,2.81,0,0,0-2.16,1.41A9.82,9.82,0,0,1,140.32,72a16.77,16.77,0,0,1-2.44.47A1.55,1.55,0,0,1,136,71.25q-0.42-1.55.84-1.64A11.46,11.46,0,0,0,139.71,69Zm22.41,8q0-.56-1.08-0.56h-24.8q-1.12,0-1.17.47t1.13,0.56h24.75Q162.07,77.44,162.11,77ZM149.17,39.38q1.69-1.69,3-.94l0.38,0.19q1.64,0.89,1.17,1.41t0.8,0.42h12.66a1.26,1.26,0,0,1,1.45,1.41v0.52a2.75,2.75,0,0,1-1.41,2.34A45.21,45.21,0,0,1,155.5,50q-1.69.56-.23,0.56h5.25a1,1,0,0,0,1.17-1.17,1.18,1.18,0,0,1,1.41-1.27h2q1.45,0,1.45,1.17t1.55,1.27A1.33,1.33,0,0,1,169.71,52v0.84a1.33,1.33,0,0,1-1.55,1.45,1.38,1.38,0,0,0-1.64,1.41,3,3,0,0,1-2.11,3.09,8.81,8.81,0,0,1-4.45.33,1.94,1.94,0,0,1-1.64-1.78q-0.33-1.78,1.08-1.59a7.65,7.65,0,0,0,1.69.09,1,1,0,0,0,.56-1q0-.56-1.17-0.56h-6.7q-1.22,0,.14,1.41,1.08,1.5-.37,2.3l-1,.56a1.6,1.6,0,0,1-2.39-.56,1.44,1.44,0,0,0-.33-0.47q-1.59-1.73-.66-2.3a6.22,6.22,0,0,0,1-.66q0-.28-1.22-0.28h-3.14a1.26,1.26,0,0,1-1.45-1.41V52q0-1.45.52-1.45t0.23-1q-0.42-1.08,1-1.27l1.64-.28q1.13-.28.47-1.36t-1.31-.61q-0.42.33-1.92-1t0-2.34A51.33,51.33,0,0,0,149.17,39.38Zm0.75,24.84q0-.52-1.45-0.52t-1.55.42q0,0.52,1.45.52T149.92,64.22Zm3-19.08a2.73,2.73,0,0,0-1.78-1.31q-0.84,0,.19,1.45,1,2.34,1.92,1.55Q154.1,46.59,153,45.14Zm9.14,23.58q0-.52-1.08-0.52H155.5q-1.41,0-.7.52a17.16,17.16,0,0,0,5.72.47Q162.11,69.14,162.11,68.72Zm-1.78-24.19q1.27-.7-0.14-0.7h-2.48q-1.17,0-.56.89T159.21,45Z" style="fill:#963b3b"/></g><rect x="384" width="120" height="120" style="fill:#fffbf5"/><g id="烤肉醬"><path d="M468,24a0.88,0.88,0,0,0,.91,1.08,1.91,1.91,0,0,1,.92.42,0.84,0.84,0,0,1,0,1,2,2,0,0,1-.83.42,2,2,0,0,0-.84.25A2.2,2.2,0,0,0,468,28.5c0,0.83,0,2.17.67,2.83s2,0.67,2.67,1.33,0.67,2,.67,12.67v42c0,11.33,0,14-2,15.33S464,104,444,104s-24,0-26-1.33-2-4-2-15.33v-42c0-10.67,0-12,.67-12.67s2-.67,2.67-1.33,0.67-2,.67-2.83a2.16,2.16,0,0,0-.17-1.33,2,2,0,0,0-.83-0.25,2,2,0,0,1-.84-0.42,0.84,0.84,0,0,1,0-1,1.9,1.9,0,0,1,.92-0.42A0.89,0.89,0,0,0,420,24V20h48v4Z" style="fill:#774541"/><path d="M444,24c26,0,27,0,27.5-.33s0.5-1,.5-2V18.33c0-1,0-1.67-.5-2S470,16,444,16s-27,0-27.5.33-0.5,1-.5,2v3.33c0,1,0,1.67.5,2S418,24,444,24Z" style="fill:#e51d2f"/><path d="M444,27h24a2.65,2.65,0,0,0,1.75-.46,0.72,0.72,0,0,0,0-1.08A2.66,2.66,0,0,0,468,25H420a2.65,2.65,0,0,0-1.75.46,0.71,0.71,0,0,0,0,1.08A2.65,2.65,0,0,0,420,27h24Z" style="fill:#683c3a"/><rect x="416" y="40" width="56" height="52" style="fill:#a28286"/><rect x="416" y="66" width="56" height="21.56" style="fill:#f2f1f0"/></g></svg>