<svg xmlns="http://www.w3.org/2000/svg" viewBox="0 0 480 120"><rect width="480" height="120" style="fill:#fffbf5"></rect><rect width="3" height="120" style="fill:#e2695b"></rect><g id="碳_t"><text transform="translate(24 74.44)" style="font-size:48px;fill:#963b3b;font-family:HanWangHeiHeavy;letter-spacing:2px;opacity: 0;">碳</text><path d="M27.84,42.28a1.26,1.26,0,0,1,1.41-1.45H42.14a1.26,1.26,0,0,1,1.45,1.41v2.2a1.26,1.26,0,0,1-1.41,1.45H38.34a1.56,1.56,0,0,0-1.5,1.41q-0.75,3-1.73,6-0.42,1.22.66,1.22h6.38a1.26,1.26,0,0,1,1.45,1.41V71.67q0,1,.56-0.23a31.4,31.4,0,0,0,1.08-6.37V54.7a1.26,1.26,0,0,1,1.41-1.45H68.72a1.26,1.26,0,0,1,1.45,1.41v2a1.26,1.26,0,0,1-1.41,1.45H51.47A1,1,0,0,0,50.3,59.2v4.92q0,1.55.7-.19A3.71,3.71,0,0,1,51.33,63a1.38,1.38,0,0,1,1.88-1.08L55,62.49a1.28,1.28,0,0,1,1.08,1.78,30.13,30.13,0,0,1-2,4.78,1.63,1.63,0,0,1-2.48.7L51,69.42q-1.12-.61-1.36.89a37.56,37.56,0,0,1-3.33,9.61q-0.89,1.59-2.48.42a6.09,6.09,0,0,1-.94-0.7Q41.16,78.38,42,77q0.56-1.31-.56-1.31H37.22A1,1,0,0,0,36,76.83v1.36a1.26,1.26,0,0,1-1.41,1.45h-2.2A1.26,1.26,0,0,1,31,78.24V64.78q0-1.55-.7-0.47t-1.87-.23l-1-1a2.24,2.24,0,0,1-.66-2.81A58.9,58.9,0,0,0,31.83,47a0.8,0.8,0,0,0-.89-1.12H29.25a1.24,1.24,0,0,1-1.41-1.41v-2.2ZM38.53,60.56a1.06,1.06,0,0,0-1.22-1.17A1.06,1.06,0,0,0,36,60.52v9.14a1.06,1.06,0,0,0,1.22,1.17,1.06,1.06,0,0,0,1.27-1.12V60.56ZM54.66,39.89A1.25,1.25,0,0,1,56,38.39h2.48a1.26,1.26,0,0,1,1.45,1.41v5.3A1,1,0,0,0,61,46.27h2.2a1,1,0,0,0,1.17-1.12v-3a1.26,1.26,0,0,1,1.41-1.45H68.2A1.26,1.26,0,0,1,69.66,42v7.64a1.26,1.26,0,0,1-1.41,1.45H46.5A1.26,1.26,0,0,1,45,49.74V42.09a1.26,1.26,0,0,1,1.41-1.45h2.39A1.26,1.26,0,0,1,50.3,42v3a1,1,0,0,0,1.13,1.17h2.06a1,1,0,0,0,1.17-1.12V39.89ZM57.8,60.56a1.29,1.29,0,0,1,1.36-1.5h2.25a1.24,1.24,0,0,1,1.41,1.41,51,51,0,0,1-.37,6.33A2.46,2.46,0,0,0,63,68.67a19.34,19.34,0,0,0,6.19,7.27q1.69,1.13.52,2.63l-1.22,1.5q-1.31,1.64-2.48.61a28.51,28.51,0,0,1-4.78-5.34q-0.75-1.17-1.73.28A19.26,19.26,0,0,1,53,80.91a1.64,1.64,0,0,1-2.39-.47,19.52,19.52,0,0,0-1.22-1.92q-0.94-1.45.84-2.39,5.11-3,6.28-6.52A29.68,29.68,0,0,0,57.8,60.56Zm7.31,2.77a1.25,1.25,0,0,1,1.73-1.08l1.83,0.61a1.42,1.42,0,0,1,1.13,1.88q-0.56,2-1.36,4.08a1.39,1.39,0,0,1-2.16.66l-1.55-.84a1.68,1.68,0,0,1-.7-2.48Z" style="fill:#963b3b"></path></g><rect x="336" width="120" height="120" style="fill:#fffbf5"></rect><g id="碳"><rect x="352" y="80" width="60" height="6" style="fill:#353535"></rect><rect x="370" y="16" width="6" height="60" style="fill:#353535"></rect><rect x="380" y="34" width="60" height="6" style="fill:#353535"></rect><rect x="416" y="44" width="6" height="60" style="fill:#353535"></rect><rect x="352" y="86" width="60" height="12" style="fill:#444"></rect><rect x="358" y="16" width="12" height="60" style="fill:#444"></rect><rect x="380" y="22" width="60" height="12" style="fill:#444"></rect><rect x="422" y="44" width="12" height="60" style="fill:#444"></rect><rect x="352" y="98" width="60" height="6" style="fill:#3c3c3c"></rect><rect x="352" y="16" width="6" height="60" style="fill:#3c3c3c"></rect><rect x="380" y="16" width="60" height="6" style="fill:#3c3c3c"></rect><rect x="434" y="44" width="6" height="60" style="fill:#3c3c3c"></rect><rect x="372.25" y="68.06" width="6" height="48" transform="translate(44.92 292.49) rotate(-45.03)" style="fill:#424242"></rect><rect x="339.94" y="36.25" width="48" height="6" transform="translate(78.82 268.82) rotate(-45)" style="fill:#424242"></rect><rect x="413.75" y="3.94" width="6" height="48" transform="translate(102.41 302.98) rotate(-45.02)" style="fill:#424242"></rect><rect x="404.06" y="77.75" width="48" height="6" transform="translate(68.23 326.26) rotate(-44.99)" style="fill:#424242"></rect><rect x="375.61" y="61.7" width="12" height="48" transform="translate(51.15 294.91) rotate(-44.99)" style="fill:#4f4f4f"></rect><rect x="346.3" y="39.61" width="48" height="12" transform="translate(76.19 275.18) rotate(-45)" style="fill:#4f4f4f"></rect><rect x="404.39" y="10.3" width="12" height="48" transform="translate(95.93 300.22) rotate(-45)" style="fill:#4f4f4f"></rect><rect x="397.7" y="68.38" width="48" height="12" transform="translate(70.91 319.97) rotate(-45)" style="fill:#4f4f4f"></rect><rect x="384.98" y="55.33" width="6" height="48" transform="translate(57.54 297.59) rotate(-45)" style="fill:#3f3f3f"></rect><rect x="352.66" y="48.98" width="48" height="6" transform="translate(73.57 281.57) rotate(-45)" style="fill:#3f3f3f"></rect><rect x="401.02" y="16.66" width="6" height="48" transform="translate(89.51 297.51) rotate(-44.98)" style="fill:#3f3f3f"></rect><rect x="391.33" y="65.02" width="48" height="6" transform="translate(73.58 313.64) rotate(-45.01)" style="fill:#3f3f3f"></rect></g></svg>