<svg xmlns="http://www.w3.org/2000/svg" viewBox="0 0 528 120"><rect width="528" height="120" style="fill:#fffbf5"/><rect width="3" height="120" style="fill:#e2695b"/><g id="竹籤_t"><text transform="translate(24 74.44)" style="font-size:48px;fill:#963b3b;font-family:HanWangHeiHeavy;letter-spacing:2px;opacity: 0;">竹籤</text><path d="M32.2,39.66a1.15,1.15,0,0,1,1.73-.94l2.25,0.75q1.73,0.61,1.31,2.06l-0.7,2.39q-0.38,1.27.7,1.27h9a1.26,1.26,0,0,1,1.45,1.41v2.3a1.26,1.26,0,0,1-1.41,1.45H42.7a1,1,0,0,0-1.17,1.13V80.25a1.26,1.26,0,0,1-1.41,1.45H37.55a1.26,1.26,0,0,1-1.45-1.41V51.52q0-1.17-.7-1.17T34,51.75a59.88,59.88,0,0,1-3.09,6.56,1.37,1.37,0,0,1-2.25.42l-1.41-1a2,2,0,0,1-.75-2.58A73.08,73.08,0,0,0,32.2,39.66Zm19.64,0.61q0.38-1.69,1.78-1.22L56,39.8q1.83,0.56,1.45,2L56.81,44q-0.38,1.17.8,1.17H68.72a1.26,1.26,0,0,1,1.45,1.41v2.3a1.26,1.26,0,0,1-1.41,1.45H65.53a1,1,0,0,0-1.17,1.13V75.94q0,4.41-3.75,5.44a16.33,16.33,0,0,1-7.41-.19A2.58,2.58,0,0,1,51.38,79L51,76.64q-0.24-1.45,1.17-1a12.56,12.56,0,0,0,5.86.47q0.84-.42.94-2.16V51.52a1,1,0,0,0-1.12-1.17h-2a1.84,1.84,0,0,0-1.69,1.41,57.54,57.54,0,0,1-3.52,7.5,1.43,1.43,0,0,1-2.3.38l-1.41-1q-1.69-1.22-.89-2.72A81.77,81.77,0,0,0,51.84,40.27Z" style="fill:#963b3b"/><path d="M81.2,39.8q0.56-1.59,1.92-1.17l2.3,0.66q1.41,0.42,1.22,1t1,0.56h9.75a1.26,1.26,0,0,1,1.45,1.41v1q0,1.5.89,0.28a25.07,25.07,0,0,0,2-3.84,1.5,1.5,0,0,1,2-1q0.94,0.23,2,.61,1.59,0.47,1.45.94-0.14.66,1,.66H119a1.26,1.26,0,0,1,1.45,1.41v1.64A1.26,1.26,0,0,1,119,45.33h-4.59q-1.12,0-.56.89t-1,1.73l-1.22.75a2.23,2.23,0,0,0-1.08,2.11l0.09,3a1.15,1.15,0,0,0,1.13,1.27h1.55q1.17,0,.38-1.5a14,14,0,0,0-1.12-1.78,1.4,1.4,0,0,1,.38-2.3l1.41-.84a1.79,1.79,0,0,1,2.58.52l1.55,2.44A1.56,1.56,0,0,1,118,54q-1.55,1-1.41,1.08a17.14,17.14,0,0,0,2.53.09,1.26,1.26,0,0,1,1.45,1.41v1.78a1.26,1.26,0,0,1-1.41,1.45h-6.94q-1.12,0-1,1.41a36.47,36.47,0,0,0,.89,5.81q0.33,1.17,1-.37a28.08,28.08,0,0,0,1.78-4.31,1.37,1.37,0,0,1,1.92-1l1.45,0.47a1.33,1.33,0,0,1,1.08,1.83,36.64,36.64,0,0,1-4.08,8.81,2.68,2.68,0,0,0-.19,2.81,4.32,4.32,0,0,0,1.31,1.36,5.37,5.37,0,0,0,.28-1.59V74.16a1,1,0,0,1,1.41-1,8,8,0,0,1,1.41.42,1.71,1.71,0,0,1,1.45,2A15.72,15.72,0,0,1,120.1,79,3.82,3.82,0,0,1,118,81.42q-3.33,1.36-6.28-2.67-0.75-1.12-2,0l-1.36,1a1.35,1.35,0,0,1-2.2-.52l-0.7-1.41a1.78,1.78,0,0,1,.7-2.48l1.69-1.5a2.27,2.27,0,0,0,.61-2.48,50,50,0,0,1-2.11-10.5A1.2,1.2,0,0,0,105,59.77H99q-1.17,0-1.17.52T99,60.89h4.22a1.26,1.26,0,0,1,1.45,1.41v0.84a1.26,1.26,0,0,1-1.41,1.45H99q-1.17,0-1.17.56T99,65.81h3.7a1.26,1.26,0,0,1,1.45,1.41v0.84a1.26,1.26,0,0,1-1.41,1.45H99q-1.17,0-1.17.61T99,70.83h4.22a1.26,1.26,0,0,1,1.45,1.41v0.84a1.26,1.26,0,0,1-1.41,1.45H99q-1.17,0-1.17.75T99.24,76l3.28-.28q1.78-.19,1.88,1.27l0.09,0.56q0.14,1.78-1.36,1.92a224.46,224.46,0,0,1-22.5,2A1.75,1.75,0,0,1,78.85,80l-0.37-1.22q-0.47-1.5.89-1.55L85.18,77A1,1,0,0,0,86.31,76a0.91,0.91,0,0,0-1.12-.89H81a1.26,1.26,0,0,1-1.45-1.41v-1a1.26,1.26,0,0,1,1.41-1.45h4.22q1.17,0,1.17-.56t-1.12-.61H81.57a1.26,1.26,0,0,1-1.45-1.41v-1a1.26,1.26,0,0,1,1.41-1.45h3.61q1.17,0,1.17-.56T85.18,65h-4a1.26,1.26,0,0,1-1.45-1.41v-1a1.26,1.26,0,0,1,1.41-1.45h4q1.17,0,1.17-.66t-1.12-.7H79.46A1.26,1.26,0,0,1,78,58.36V56.58a1.26,1.26,0,0,1,1.41-1.45H81q1.13,0,.23-1.12-1.08-1.17.38-2.58a10,10,0,0,0,1.92-2.81,1.88,1.88,0,0,1,2.2-1,14.76,14.76,0,0,1,2,.42q1.41,0.33,1.08,1.17-1.12,1.13,1.13,1.69a1.37,1.37,0,0,1,.75,2.2l-0.37.66q-0.7,1.41.42,1.41h1.92q1.13,0,0-1.31T93,51.28A24,24,0,0,0,94.79,49a2.13,2.13,0,0,1,2.44-1.17,9.64,9.64,0,0,1,1.59.33q1.73,0.28,1.36,1.13t0.94,1.55L102,51.19a1.24,1.24,0,0,1,.7,2,4,4,0,0,1-.42.8q-0.66,1.17.47,1.17h1.73q1.13,0,1.13-1.41l-0.19-4.5a1.24,1.24,0,0,1,1.41-1.41h0.66q1.17,0,.47-1.27a2.15,2.15,0,0,0-1.83-1.22,2.35,2.35,0,0,0-1.92,1.41l-0.84,1.41q-1,1.27-2.48.19l-1.5-1.12q-1.5-1.12-1.17-1.45t-0.84-.42H95.21q-1.12,0-.52.89T93.76,48a12.56,12.56,0,0,0-1.5.89q-1.64,1-2.48-.56a12.08,12.08,0,0,0-.94-1.55,2.58,2.58,0,0,0-2.06-1.41h-1a2.27,2.27,0,0,0-1.92,1.41l-1.12,1.88a1.47,1.47,0,0,1-2.39.33,14.07,14.07,0,0,0-1.41-1.08q-1.69-1.27-.52-2.77A39.69,39.69,0,0,0,81.2,39.8Zm5.58,14.58a1,1,0,0,0-1.5,0q-0.61.8,0.89,0.8T86.77,54.38ZM92.87,61q0-1.22-.7-1.22t-0.84,1.13V75.42q0,1.17.75,1.17a1,1,0,0,0,.8-1.22V61ZM98,55.13q1.45,0,.38-0.84a1.27,1.27,0,0,0-1.78,0q-0.8.8,0.38,0.8h1Z" style="fill:#963b3b"/></g><rect x="384" width="120" height="120" style="fill:#fffbf5"/><g id="竹籤"><path d="M479.76,97.76A6,6,0,1,0,485,96.09V24l-1-12-1,12V98.13a4,4,0,1,1-1.83,1Z" style="fill:#f5f8ff"/><path d="M463.76,97.76A6,6,0,1,0,469,96.09V24q-0.5-6-1-12l-1,12V98.13a4,4,0,1,1-1.83,1Z" style="fill:#f5f8ff"/><path d="M447.76,97.76A6,6,0,1,0,453,96.09V24l-1-12-1,12V98.13a4,4,0,1,1-1.83,1Z" style="fill:#f5f8ff"/><path d="M431.75,97.76A6,6,0,1,0,437,96.09V24l-1-12-1,12V98.13a4,4,0,1,1-1.83,1Z" style="fill:#f5f8ff"/><path d="M415.76,97.76A6,6,0,1,0,421,96.09V24l-1-12q-0.5,6-1,12V98.13a4,4,0,1,1-1.83,1Z" style="fill:#f5f8ff"/><path d="M399.76,97.76A6,6,0,1,0,405,96.09V24l-1-12-1,12V98.13a4,4,0,1,1-1.83,1Z" style="fill:#f5f8ff"/><path d="M403.66,106a4,4,0,0,1-2.49-6.85l-1.41-1.41c-0.07.07-.13,0.15-0.19,0.23l1.18,1.19A4,4,0,0,0,403.66,106Z" style="fill:#8c8c8c"/><path d="M405,96.08V24l-1-12-0.21,2.54L404.57,24V96.08a6,6,0,0,1,.82,11.63,6.31,6.31,0,0,1-1.85.29,6.23,6.23,0,0,0,2.28-.29A6,6,0,0,0,405,96.08Z" style="fill:#8c8c8c"/><path d="M400,98l-0.23-.23A6,6,0,0,0,404,108,6,6,0,0,1,400,98Z" style="fill:#ddd"/><path d="M406.4,105.47A4,4,0,0,0,404.18,98a4,4,0,0,1,1.8,7.47,4.05,4.05,0,0,1-1.9.54A4,4,0,0,0,406.4,105.47Z" style="fill:#ddd"/><path d="M404.21,14.54L404,12l-1,12V98.13c0.14,0,.28,0,0.42-0.07V24Q403.81,19.27,404.21,14.54Z" style="fill:#ddd"/><path d="M419.65,106a4,4,0,0,1-2.49-6.85l-1.41-1.41c-0.07.07-.13,0.15-0.19,0.23l1.18,1.19A4,4,0,0,0,419.65,106Z" style="fill:#8c8c8c"/><path d="M421,96.08V24l-1-12-0.21,2.54L420.57,24V96.08a6,6,0,0,1,.82,11.63,6.3,6.3,0,0,1-1.85.29,6.23,6.23,0,0,0,2.28-.29A6,6,0,0,0,421,96.08Z" style="fill:#8c8c8c"/><path d="M416,98l-0.23-.23A6,6,0,0,0,420,108,6,6,0,0,1,416,98Z" style="fill:#ddd"/><path d="M422.4,105.47A4,4,0,0,0,420.18,98a4,4,0,0,1,1.8,7.47,4.05,4.05,0,0,1-1.9.54A4,4,0,0,0,422.4,105.47Z" style="fill:#ddd"/><path d="M420.21,14.54L420,12l-1,12V98.13c0.14,0,.28,0,0.42-0.07V24Q419.81,19.27,420.21,14.54Z" style="fill:#ddd"/><path d="M435.66,106a4,4,0,0,1-2.49-6.85l-1.41-1.41c-0.07.07-.13,0.15-0.19,0.23l1.18,1.19A4,4,0,0,0,435.66,106Z" style="fill:#8c8c8c"/><path d="M437,96.08V24l-1-12-0.21,2.54L436.58,24V96.08a6,6,0,0,1,.82,11.63,6.31,6.31,0,0,1-1.85.29,6.23,6.23,0,0,0,2.28-.29A6,6,0,0,0,437,96.08Z" style="fill:#8c8c8c"/><path d="M432,98l-0.23-.23A6,6,0,0,0,436,108,6,6,0,0,1,432,98Z" style="fill:#ddd"/><path d="M438.41,105.47A4,4,0,0,0,436.18,98a4,4,0,0,1,1.8,7.47,4.05,4.05,0,0,1-1.9.54A4,4,0,0,0,438.41,105.47Z" style="fill:#ddd"/><path d="M436.21,14.54L436,12l-1,12V98.13c0.15,0,.28,0,0.42-0.07V24Q435.82,19.27,436.21,14.54Z" style="fill:#ddd"/><path d="M451.66,106a4,4,0,0,1-2.49-6.85l-1.41-1.41c-0.07.07-.13,0.15-0.2,0.23l1.19,1.19A4,4,0,0,0,451.66,106Z" style="fill:#8c8c8c"/><path d="M453,96.08V24l-1-12-0.21,2.54L452.58,24V96.08a6,6,0,0,1,.82,11.63,6.3,6.3,0,0,1-1.85.29,6.23,6.23,0,0,0,2.28-.29A6,6,0,0,0,453,96.08Z" style="fill:#8c8c8c"/><path d="M448,98l-0.23-.23A6,6,0,0,0,452,108,6,6,0,0,1,448,98Z" style="fill:#ddd"/><path d="M454.41,105.47A4,4,0,0,0,452.18,98a4,4,0,0,1,1.8,7.47,4.06,4.06,0,0,1-1.9.54A4,4,0,0,0,454.41,105.47Z" style="fill:#ddd"/><path d="M452.21,14.54L452,12l-1,12V98.13c0.15,0,.28,0,0.42-0.07V24Q451.82,19.27,452.21,14.54Z" style="fill:#ddd"/><path d="M467.66,106a4,4,0,0,1-2.49-6.85l-1.41-1.41c-0.07.07-.12,0.15-0.19,0.23l1.19,1.19A4,4,0,0,0,467.66,106Z" style="fill:#8c8c8c"/><path d="M469,96.08V24l-1-12-0.21,2.54L468.58,24V96.08a6,6,0,0,1,.82,11.63,6.31,6.31,0,0,1-1.86.29,6.23,6.23,0,0,0,2.28-.29A6,6,0,0,0,469,96.08Z" style="fill:#8c8c8c"/><path d="M464,98l-0.23-.23A6,6,0,0,0,468,108,6,6,0,0,1,464,98Z" style="fill:#ddd"/><path d="M470.41,105.47A4,4,0,0,0,468.19,98a4,4,0,0,1,1.8,7.47,4.06,4.06,0,0,1-1.9.54A4,4,0,0,0,470.41,105.47Z" style="fill:#ddd"/><path d="M468.21,14.54L468,12l-1,12V98.13c0.14,0,.28,0,0.42-0.07V24Z" style="fill:#ddd"/><path d="M483.66,106a4,4,0,0,1-2.49-6.85l-1.41-1.41c-0.07.07-.12,0.15-0.19,0.23l1.19,1.19A4,4,0,0,0,483.66,106Z" style="fill:#8c8c8c"/><path d="M485,96.08V24l-1-12q-0.11,1.27-.21,2.54L484.58,24V96.08a6,6,0,0,1,.82,11.63,6.31,6.31,0,0,1-1.86.29,6.23,6.23,0,0,0,2.28-.29A6,6,0,0,0,485,96.08Z" style="fill:#8c8c8c"/><path d="M480,98l-0.23-.23A6,6,0,0,0,484,108,6,6,0,0,1,480,98Z" style="fill:#ddd"/><path d="M486.41,105.47A4,4,0,0,0,484.19,98a4,4,0,0,1,1.8,7.47,4.06,4.06,0,0,1-1.9.54A4,4,0,0,0,486.41,105.47Z" style="fill:#ddd"/><path d="M484.21,14.54L484,12l-1,12V98.13c0.14,0,.28,0,0.42-0.07V24Q483.82,19.27,484.21,14.54Z" style="fill:#ddd"/></g></svg>