<svg id="圖層_1" data-name="圖層 1" xmlns="http://www.w3.org/2000/svg" xmlns:xlink="http://www.w3.org/1999/xlink" viewBox="0 0 240 180"><defs><clipPath id="clip-path" transform="translate(-600.01 -316)"><path d="M784.61,444.65a61.56,61.56,0,0,1-1.11-9.65c-0.5-9-.5-25,0-36s1.5-17,2-22a113.74,113.74,0,0,0,.5-12c0-3,0-5-1.5-6s-4.5-1-64.5-1-63,0-64.5,1-1.5,3-1,5,1.5,4,2,13,0.5,25,0,36-1.5,17-2,22c-0.37,3.72-.47,6.89-0.49,9.5,3.9,0.5,10.25.5,20.49,0.5h91C774.62,445,780.65,445,784.61,444.65Z" style="fill:none"/></clipPath></defs><title>4</title><rect width="240" height="180" style="fill:none"/><path d="M654,444.5c3.9,0.5,10.25.5,20.49,0.5h91c9.11,0,15.14,0,19.11-.35,0.34,1.55.67,2.45,0.89,3.35,0.5,2,.5,4-1,5s-4.5,1-64.5,1-63,0-64.5-1-1.5-3-1.5-6C654,446.23,654,445.4,654,444.5Z" transform="translate(-600.01 -316)" style="fill:#ffcab1"/><g style="clip-path:url(#clip-path)"><path d="M784.61,444.65a61.56,61.56,0,0,1-1.11-9.65c-0.5-9-.5-25,0-36s1.5-17,2-22a113.74,113.74,0,0,0,.5-12c0-3,0-5-1.5-6s-4.5-1-64.5-1-63,0-64.5,1-1.5,3-1,5,1.5,4,2,13,0.5,25,0,36-1.5,17-2,22c-0.37,3.72-.47,6.89-0.49,9.5,3.9,0.5,10.25.5,20.49,0.5h91C774.62,445,780.65,445,784.61,444.65Z" transform="translate(-600.01 -316)" style="fill:#dd4f45"/><path d="M766.34,342.23A31.66,31.66,0,0,0,761,352.67a42.69,42.69,0,0,0-2,12.83c0,36-18,30-30,29s-18,3-21,11-3,20-33,20a63.2,63.2,0,0,0-8.33.5,37.68,37.68,0,0,0-6.9,1.54,26.34,26.34,0,0,0-4.8,2.12,21.3,21.3,0,0,0-2.47,1.65,19,19,0,0,0-3.89,4,19.46,19.46,0,0,0-2.39,4.65,23.26,23.26,0,0,0-1.12,4.72,32.32,32.32,0,0,0-.25,4.56,74.75,74.75,0,0,0,.67,8.23c0.14,1.16.29,2.31,0.41,3.47,0.07,0.69.14,1.37,0.17,2.06,0.06,0.93.07,1.86,0,2.78l6,0.18a39.37,39.37,0,0,0-.13-4.5c-1-12-7-30,23-30a75.23,75.23,0,0,0,15.87-1.44,34.22,34.22,0,0,0,11-4.19,22.85,22.85,0,0,0,6.81-6.44,25.32,25.32,0,0,0,2-3.49q0.74-1.59,1.33-3.25c0.42-1.18.77-2.37,1.15-3.56,0.22-.68.44-1.36,0.71-2a12.7,12.7,0,0,1,1.56-2.87,8.54,8.54,0,0,1,1.84-1.86,9.23,9.23,0,0,1,2.55-1.26,16,16,0,0,1,3.9-.71,33.85,33.85,0,0,1,5.64.14c1.63,0.16,3.26.38,4.89,0.56,1.47,0.16,2.95.29,4.43,0.34a28.7,28.7,0,0,0,10-1.17,20,20,0,0,0,6.27-3.39,21,21,0,0,0,4.25-4.68,29.78,29.78,0,0,0,3.69-8.14,50.22,50.22,0,0,0,1.65-8.31A87,87,0,0,0,765,365.5c0-7.73,2.51-15.17,6-19.5Z" transform="translate(-600.01 -316)" style="fill:#ffcab1"/><path d="M786,385c0,36-18,30-30,29s-18,3-21,11-3,20-33,20v6a75.23,75.23,0,0,0,15.87-1.44,34.18,34.18,0,0,0,11-4.19,22.89,22.89,0,0,0,6.81-6.44,25.34,25.34,0,0,0,2-3.49,34.93,34.93,0,0,0,1.33-3.25c0.42-1.18.77-2.37,1.15-3.56,0.22-.68.44-1.35,0.71-2a12.66,12.66,0,0,1,1.56-2.87,8.59,8.59,0,0,1,1.84-1.86,9.28,9.28,0,0,1,2.55-1.26,16.1,16.1,0,0,1,3.9-.71,34.05,34.05,0,0,1,5.64.14c1.63,0.16,3.26.38,4.89,0.56,1.47,0.16,2.95.29,4.43,0.34a28.61,28.61,0,0,0,10-1.17,20,20,0,0,0,6.27-3.39,21,21,0,0,0,4.25-4.68,29.75,29.75,0,0,0,3.69-8.14,50.22,50.22,0,0,0,1.65-8.31A87,87,0,0,0,792,385h-6Z" transform="translate(-600.01 -316)" style="fill:#ffcab1"/><path d="M738,346a87,87,0,0,1-.55,10.27,50.22,50.22,0,0,1-1.65,8.31,29.78,29.78,0,0,1-3.69,8.14,21,21,0,0,1-4.25,4.68,20,20,0,0,1-6.27,3.39,28.61,28.61,0,0,1-10,1.17c-1.48-.05-3-0.18-4.43-0.34-1.63-.18-3.25-0.41-4.89-0.56a33.86,33.86,0,0,0-5.64-.14,16,16,0,0,0-3.9.71,9.28,9.28,0,0,0-2.55,1.26,8.54,8.54,0,0,0-1.84,1.86,12.66,12.66,0,0,0-1.56,2.88c-0.27.66-.49,1.34-0.71,2-0.38,1.19-.74,2.39-1.15,3.56s-0.83,2.19-1.33,3.25a25.32,25.32,0,0,1-2,3.49,22.88,22.88,0,0,1-6.81,6.44,34.13,34.13,0,0,1-11,4.19A75.1,75.1,0,0,1,648,412v-6c30,0,30-12,33-20s9-12,21-11,30,7,30-29h6Z" transform="translate(-600.01 -316)" style="fill:#ffcab1"/></g></svg>