<svg xmlns="http://www.w3.org/2000/svg" viewBox="0 0 240 180"><title>牛肉</title><rect width="240" height="180" style="fill:none"/><path d="M691.06,334.12c-10.26.18-13.22,0.66-15.06,1.88-3,2-3,6-3,28v84c0,22,0,26,3,28,1.4,0.94,3.47,1.43,9,1.7-2.9-23.78,4.55-32.73,8.29-41.2S697,420,695,414s-6-10-7-17,1-17,5-25,10-14-2-38" transform="translate(-601 -316)" style="fill:#eaceca"/><path d="M750.94,477.88c10.26-.18,13.23-0.66,15.06-1.88,3-2,3-6,3-28V364c0-22,0-26-3-28-1.41-.94-3.47-1.44-9-1.7,2.9,23.77-4.55,32.73-8.29,41.2S745,392,747,398s6,10,7,17-1,17-5,25-10,14,2,38" transform="translate(-601 -316)" style="fill:#eaceca"/><path d="M750.94,477.88C744.43,478,735,478,721,478c-19.14,0-29.8,0-36-.3-2.9-23.78,4.55-32.73,8.29-41.2S697,420,695,414s-6-10-7-17,1-17,5-25,10-14-2-38l0.06,0.12C697.57,334,707,334,721,334c19.14,0,29.8,0,36,.3,2.9,23.77-4.55,32.73-8.29,41.2S745,392,747,398s6,10,7,17-1,17-5,25-10,14,2,38" transform="translate(-601 -316)" style="fill:#ba4147"/></svg>