<?xml version="1.0" encoding="utf-8"?>
<!-- Generator: Adobe Illustrator 19.2.1, SVG Export Plug-In . SVG Version: 6.00 Build 0)  -->
<svg version="1.1" id="圖層_1" xmlns="http://www.w3.org/2000/svg" xmlns:xlink="http://www.w3.org/1999/xlink" x="0px" y="0px"
	 viewBox="0 0 240 180" style="enable-background:new 0 0 240 180;" xml:space="preserve">
<style type="text/css">
	.st0{fill:none;}
	.st1{fill:#F4D88C;}
	.st2{fill:url(#SVGID_1_);}
	.st3{fill:url(#SVGID_2_);}
	.st4{fill:#F2CD79;}
</style>
<title>甜不辣</title>
<rect class="st0" width="240" height="180"/>
<path class="st1" d="M60,71c0-13,0-27,6-36s18-13,27-14s15,1,21,1s12-2,23-1s27,5,35,14s8,23,8,36v38c0,13,0,27-4,36s-12,13-20,14
	s-16-1-24-1s-16,2-28,1s-28-5-36-14s-8-23-8-36V71z"/>
<linearGradient id="SVGID_1_" gradientUnits="userSpaceOnUse" x1="480.04" y1="-12202.2803" x2="480.04" y2="-12163" gradientTransform="matrix(1 0 0 -1 -360 -12043)">
	<stop  offset="0" style="stop-color:#EEC56E"/>
	<stop  offset="1" style="stop-color:#F4D88C"/>
</linearGradient>
<path class="st2" d="M164.5,124.6c-0.2,2-0.5,4-0.9,6c-0.3,1.4-0.7,2.9-1.3,4.2c-0.3,0.8-0.8,1.6-1.3,2.3c-0.5,0.7-1.1,1.2-1.7,1.7
	c-0.7,0.5-1.4,0.9-2.2,1.3c-0.9,0.4-1.8,0.7-2.7,0.9c-1,0.2-2.1,0.4-3.2,0.5c-1.3,0.1-2.5,0.1-3.8,0c-1.5-0.1-3-0.2-4.5-0.3
	c-2.4-0.2-4.9-0.5-7.3-0.6c-2-0.1-4.1-0.2-6.1-0.1s-3.9,0.2-5.8,0.3c-2.5,0.2-4.9,0.5-7.4,0.6c-1.8,0.1-3.7,0.2-5.5,0.2
	c-4.4,0-8.8-0.5-13.2-1.4c-3.6-0.7-7-1.7-10.4-3c-1.8-0.7-3.6-1.6-5.2-2.7c-0.6-0.4-1.2-0.9-1.8-1.4c-0.5-0.4-0.9-0.9-1.3-1.4
	c-0.8-1.1-1.5-2.3-2-3.6c-0.6-1.7-1.1-3.5-1.4-5.4c-0.1-0.9-0.2-1.8-0.3-2.7H60.2c0.5,9.4,2,18.5,7.8,25c8,9,24,13,36,14s20-1,28-1
	s16,2,24,1s16-5,20-14c2.9-6.5,3.7-15.6,3.9-25h-15.1C164.7,121.5,164.6,123.1,164.5,124.6z"/>
<linearGradient id="SVGID_2_" gradientUnits="userSpaceOnUse" x1="480" y1="-12063.7197" x2="480" y2="-12103" gradientTransform="matrix(1 0 0 -1 -360 -12043)">
	<stop  offset="0" style="stop-color:#EEC56E"/>
	<stop  offset="1" style="stop-color:#F4D88C"/>
</linearGradient>
<path class="st3" d="M75.8,55.7c0.3-2,0.7-4,1.4-5.9c0.3-0.7,0.6-1.4,0.9-2.1c0.3-0.5,0.6-1.1,1-1.6c0.8-1.1,1.8-2,2.9-2.7
	c1.6-1.1,3.3-2,5.1-2.6c3.3-1.2,6.7-2,10.1-2.2c1.4-0.1,2.8-0.1,4.2,0c1.4,0.1,2.8,0.2,4.1,0.4c2,0.2,3.9,0.5,5.9,0.6
	c1.5,0.1,3,0.1,4.4,0.1c0.9,0,1.8-0.1,2.8-0.2c1.8-0.2,3.6-0.4,5.5-0.6c1.5-0.2,2.9-0.3,4.4-0.3c1.8-0.1,3.6,0,5.4,0.1
	c1.1,0.1,2.2,0.2,3.3,0.3c1.2,0.2,2.4,0.3,3.6,0.6c2.6,0.5,5.1,1.1,7.6,1.8c2.5,0.8,5,1.8,7.3,3c0.9,0.5,1.7,1,2.5,1.6
	c0.7,0.5,1.3,1,1.9,1.6c1,1,1.8,2.3,2.4,3.6c0.8,1.8,1.3,3.6,1.6,5.5c0.2,1.2,0.4,2.3,0.5,3.5h15.2c-0.5-9.4-2-18.5-7.8-25
	c-8-9-24-13-35-14s-17,1-23,1s-12-2-21-1s-21,5-27,14c-4.3,6.5-5.5,15.6-5.9,25h15.1C75.4,58.6,75.5,57.1,75.8,55.7z"/>
<circle class="st4" cx="102" cy="48" r="3"/>
<circle class="st4" cx="84" cy="54" r="3"/>
<circle class="st4" cx="96" cy="72" r="4.5"/>
<circle class="st4" cx="90" cy="108" r="3"/>
<circle class="st4" cx="162" cy="102" r="3"/>
<circle class="st4" cx="108" cy="126" r="6"/>
</svg>
