<?xml version="1.0" encoding="utf-8"?>
<!-- Generator: Adobe Illustrator 16.0.0, SVG Export Plug-In . SVG Version: 6.00 Build 0)  -->
<!DOCTYPE svg PUBLIC "-//W3C//DTD SVG 1.1//EN" "http://www.w3.org/Graphics/SVG/1.1/DTD/svg11.dtd">
<svg version="1.1" id="圖層_1" xmlns="http://www.w3.org/2000/svg" xmlns:xlink="http://www.w3.org/1999/xlink" x="0px" y="0px"
	 width="180px" height="180px" viewBox="0 0 180 180" enable-background="new 0 0 180 180" xml:space="preserve">
<g>
	<rect fill="#665046" width="180" height="180"/>
	<g>
		<path fill="#59463D" d="M118.801,86.4c3.6,0,3.6-0.9,4.801-1.35c1.199-0.45,3.598-0.45,4.799,0c1.199,0.45,1.199,1.35,4.801,1.35"
			/>
		<path fill="#59463D" d="M61.199,162c3.602,0,3.602-0.9,4.801-1.35c1.201-0.45,3.6-0.45,4.801,0C72,161.1,72,162,75.6,162"/>
		<path fill="#59463D" d="M147.6,57.6c3.6,0,3.6-0.9,4.801-1.35c1.199-0.45,3.6-0.45,4.799,0C158.4,56.7,158.4,57.6,162,57.6"/>
		<path fill="#59463D" d="M118.801,43.2c3.6,0,3.6-0.9,4.801-1.35c1.199-0.45,3.598-0.45,4.799,0c1.199,0.449,1.199,1.35,4.801,1.35
			"/>
		<path fill="#59463D" d="M28.801,64.8c3.6,0,3.6-0.9,4.799-1.35c1.201-0.45,3.602-0.45,4.801,0C39.6,63.9,39.6,64.8,43.201,64.8"/>
		<path fill="#59463D" d="M104.4,165.6c7.201,0,7.201-1.8,9-2.701c1.799-0.899,5.4-0.899,7.199,0c1.801,0.9,1.801,2.701,9,2.701"/>
		<path fill="#59463D" d="M144,111.6c7.199,0,7.199-1.799,9-2.7c1.801-0.9,5.4-0.9,7.201,0c1.799,0.9,1.799,2.7,8.998,2.7"/>
		<path fill="#59463D" d="M61.199,25.2c7.201,0,7.201-1.8,9.002-2.7C72,21.6,75.6,21.6,77.4,22.5c1.801,0.899,1.801,2.7,9,2.7"/>
		<path fill="#59463D" d="M82.801,61.2c7.199,0,7.199-1.799,9-2.7c1.799-0.9,5.4-0.9,7.199,0c1.801,0.9,1.801,2.7,9,2.7"/>
		<path fill="#59463D" d="M82.801,122.4c7.199,0,7.199-1.8,9-2.7c1.799-0.9,5.4-0.9,7.199,0c1.801,0.9,1.801,2.7,9,2.7"/>
		<path fill="#59463D" d="M50.4,93.6c7.201,0,7.201-1.799,9-2.7c1.799-0.9,5.4-0.9,7.199,0c1.801,0.9,1.801,2.7,9,2.7"/>
		<path fill="#59463D" d="M10.801,133.2c7.199,0,7.199-1.799,9-2.7c1.801-0.9,5.4-0.9,7.199,0c1.801,0.9,1.801,2.7,9,2.7"/>
	</g>
	<path fill="#81BA6C" d="M90.9,82.8c0,10.799,0,18,1.799,18c0,0.516-1.023,0.357-1.299,0.385c-0.467,0.047-0.932,0.065-1.4,0.065
		s-0.934-0.018-1.398-0.065c-0.277-0.028-1.301,0.13-1.301-0.385c1.799,0,1.799-7.2,1.799-18"/>
	<path fill="#578E54" d="M108,80.1c-7.199,4.5-14.4,6.301-18,2.701C90.9,81,100.801,80.1,108,80.1z"/>
	<path fill="#578E54" d="M72,80.1c7.201,4.5,14.4,6.301,18,2.701C89.1,81,79.201,80.1,72,80.1z"/>
	<path fill="#60AD5E" d="M90,82.8C89.1,81,79.201,80.1,72,80.1C79.201,77.4,90,79.2,90,82.8z"/>
	<path fill="#60AD5E" d="M90,82.8c0.9-1.8,10.801-2.701,18-2.701C100.801,77.4,90,79.2,90,82.8z"/>
	<g>
		<polygon fill="#E8E8E8" points="100.123,146.937 85.393,142.616 84.23,145.857 84.23,145.857 99.996,149.948 		"/>
		<polygon fill="#E8E8E8" points="45.723,21.883 43.127,21.399 37.057,32.357 24.771,49.599 27.463,51.474 38.531,35.648 		"/>
		<polygon fill="#E8E8E8" points="153.582,125.11 150.986,124.626 144.916,135.584 132.631,152.826 135.32,154.701 146.391,138.876 
					"/>
		<polygon fill="#E8E8E8" points="118.301,19.698 117.852,16.952 102.127,27.75 91.262,37.766 92.83,39.565 104.105,29.536 		"/>
		<polygon fill="#E8E8E8" points="41.299,98.456 37.809,97.936 32.162,110.646 34.76,112.155 41.299,98.456 		"/>
		<polygon fill="#E8E8E8" points="126.025,110.11 115.117,97.353 112.742,97.216 114.285,99.945 121.246,109.006 134.377,123.858 
			136.352,121.865 		"/>
		<polygon fill="#E8E8E8" points="153.701,40.441 154.264,38.496 146.443,35.813 143.803,35.655 143.537,37.579 146.496,37.737 		
			"/>
		<polygon fill="#E8E8E8" points="56.814,130.015 66.279,122.834 63.928,119.307 53.129,126.507 42.328,140.907 27.93,151.707 
			30.463,155.507 30.479,155.532 45.904,144.561 		"/>
		<polygon fill="#E8E8E8" points="33.682,69.467 9.557,87.444 10.777,90.087 10.777,90.087 35.873,71.897 		"/>
		<polygon fill="#E8E8E8" points="62.457,46.645 58.168,61.385 61.412,62.539 65.469,46.766 		"/>
		<polygon fill="#E8E8E8" points="154.85,70.067 139.664,92.915 141.168,95.5 141.168,95.5 156.672,71.992 		"/>
		<polygon fill="#E8E8E8" points="122.459,52.43 120.078,54.807 132.301,63.697 134.271,60.971 		"/>
	</g>
	<g>
		<polygon fill="#F7F4F5" points="156.672,71.992 141.168,95.5 146.035,97.7 146.035,97.7 159.516,74.996 		"/>
		<polygon fill="#F7F4F5" points="118.309,56.578 116.426,59.022 116.426,59.022 128.035,68.8 132.301,63.697 132.301,63.697 
			120.078,54.807 		"/>
		<polygon fill="#F7F4F5" points="65.469,46.766 61.412,62.539 61.412,62.539 66.688,63.946 73.018,47.066 		"/>
		<polygon fill="#F7F4F5" points="84.23,145.857 82.813,151.129 99.678,157.497 99.996,149.948 		"/>
		<polygon fill="#F7F4F5" points="50.395,24.277 45.723,21.883 38.531,35.648 27.463,51.474 32.402,53.728 43.445,37.136 		"/>
		<polygon fill="#F7F4F5" points="158.254,127.505 153.582,125.11 146.391,138.876 135.32,154.701 140.262,156.955 151.305,140.363 
					"/>
		<polygon fill="#F7F4F5" points="120.918,23.211 118.301,19.698 104.105,29.536 92.83,39.565 95.086,42.155 107.52,32.232 		"/>
		<polygon fill="#F7F4F5" points="44.137,99.662 41.299,98.456 34.76,112.155 34.76,112.155 40.773,114.998 40.773,114.998 
			46.297,100.931 		"/>
		<polygon fill="#F7F4F5" points="114.285,99.945 112.742,97.216 107.877,100.726 118.447,115.576 130.529,127.202 134.377,123.858 
			121.246,109.006 		"/>
		<polygon fill="#F7F4F5" points="153.701,40.441 146.496,37.737 143.537,37.579 142.943,41.929 153.949,44.925 		"/>
		<polygon fill="#F7F4F5" points="38.439,75.517 35.873,71.897 35.873,71.897 10.777,90.087 13.758,94.643 33.857,78.819 		"/>
		<polygon fill="#F7F4F5" points="66.279,122.834 56.814,130.015 45.904,144.561 30.479,155.532 35.129,162.507 45.93,155.308 
			56.729,140.907 69.451,127.591 		"/>
	</g>
	<g>
		<polygon fill="#CCD1D1" points="161.51,76.112 159.516,74.996 159.516,74.996 146.035,97.7 148.281,97.685 		"/>
		<polygon fill="#CCD1D1" points="115.043,62.267 125.92,70.935 128.035,68.8 128.035,68.8 116.426,59.022 		"/>
		<polygon fill="#CCD1D1" points="82.455,154.118 98.617,159.78 99.678,157.497 82.813,151.129 		"/>
		<polygon fill="#CCD1D1" points="50.395,24.277 43.445,37.136 32.402,53.728 34.857,54.89 43.303,42.486 52.379,27.079 		"/>
		<polygon fill="#CCD1D1" points="158.254,127.505 151.305,140.363 140.262,156.955 142.717,158.117 151.162,145.713 
			160.238,130.306 		"/>
		<polygon fill="#CCD1D1" points="120.938,23.241 120.918,23.211 107.52,32.232 95.086,42.155 96.594,43.884 108.406,35.397 
			121.822,25.268 		"/>
		<polygon fill="#CCD1D1" points="49.197,102.634 46.297,100.931 40.773,114.998 43.908,116.219 		"/>
		<polygon fill="#CCD1D1" points="107.877,100.726 105.104,102.487 115.703,117.642 127.283,129.116 130.529,127.202 
			118.447,115.576 		"/>
		<polygon fill="#CCD1D1" points="142.943,41.929 143.191,43.979 154.047,46.679 153.949,44.925 		"/>
		<polygon fill="#CCD1D1" points="38.439,75.517 33.857,78.819 13.758,94.643 13.762,94.649 16.123,96.248 39.938,77.629 		"/>
		<polygon fill="#CCD1D1" points="73.018,47.066 66.688,63.946 69.676,64.297 75.303,48.121 		"/>
		<polygon fill="#CCD1D1" points="69.451,127.591 56.729,140.907 45.93,155.308 35.129,162.507 38.729,162.507 49.529,155.308 
			60.33,140.907 71.129,130.107 		"/>
	</g>
</g>
</svg>
