<svg xmlns="http://www.w3.org/2000/svg" xmlns:xlink="http://www.w3.org/1999/xlink" viewBox="0 0 362.69 55.6"><defs><linearGradient id="linear-gradient" x1="-4.2" y1="41.7" x2="13.9" y2="23.59" gradientUnits="userSpaceOnUse"><stop offset="0" stop-color="#e86029"/><stop offset="0.14" stop-color="#c55e35"/><stop offset="0.32" stop-color="#9e5c42"/><stop offset="0.5" stop-color="#805b4c"/><stop offset="0.67" stop-color="#6a5a53"/><stop offset="0.84" stop-color="#5d5958"/><stop offset="1" stop-color="#595959"/></linearGradient><linearGradient id="linear-gradient-2" x1="17.77" y1="55.6" x2="17.77" y2="21.33" gradientUnits="userSpaceOnUse"><stop offset="0" stop-color="#e86029"/><stop offset="0.03" stop-color="#e15f2b"/><stop offset="0.27" stop-color="#ae5a38"/><stop offset="0.49" stop-color="#865643"/><stop offset="0.7" stop-color="#69534b"/><stop offset="0.87" stop-color="#57524f"/><stop offset="1" stop-color="#515151"/></linearGradient><linearGradient id="linear-gradient-3" x1="17" y1="22.88" x2="21.92" y2="-0.27" gradientUnits="userSpaceOnUse"><stop offset="0" stop-color="#eee"/><stop offset="0.2" stop-color="#eaeaea"/><stop offset="0.43" stop-color="#dcdcdc"/><stop offset="0.66" stop-color="#c7c7c7"/><stop offset="0.75" stop-color="#bcbcbc"/><stop offset="0.9" stop-color="#a8a8a8"/><stop offset="1" stop-color="#989898"/></linearGradient><linearGradient id="linear-gradient-4" x1="25.16" y1="55.36" x2="39.47" y2="13.81" gradientUnits="userSpaceOnUse"><stop offset="0" stop-color="#e86029"/><stop offset="0.06" stop-color="#d55d2d"/><stop offset="0.21" stop-color="#aa5735"/><stop offset="0.37" stop-color="#87523c"/><stop offset="0.52" stop-color="#6c4e42"/><stop offset="0.68" stop-color="#584b46"/><stop offset="0.84" stop-color="#4d4a48"/><stop offset="1" stop-color="#494949"/></linearGradient><linearGradient id="linear-gradient-5" x1="13.4" y1="26.43" x2="-3.71" y2="38.86" gradientUnits="userSpaceOnUse"><stop offset="0" stop-color="#fff"/><stop offset="0" stop-color="#fdfdfd"/><stop offset="0.16" stop-color="#c2c2c2"/><stop offset="0.23" stop-color="#ababab"/><stop offset="0.35" stop-color="#a5a5a5"/><stop offset="0.51" stop-color="#949494"/><stop offset="0.69" stop-color="#797979"/><stop offset="0.83" stop-color="#606060"/><stop offset="0.85" stop-color="#606060"/><stop offset="1" stop-color="#606060"/></linearGradient><linearGradient id="linear-gradient-6" x1="17.77" y1="21.33" x2="17.77" y2="55.6" gradientUnits="userSpaceOnUse"><stop offset="0" stop-color="#fff"/><stop offset="0" stop-color="#fdfdfd"/><stop offset="0.14" stop-color="#c2c2c2"/><stop offset="0.21" stop-color="#ababab"/><stop offset="0.37" stop-color="#a7a7a7"/><stop offset="0.52" stop-color="#9c9c9c"/><stop offset="0.66" stop-color="#898989"/><stop offset="0.8" stop-color="#6f6f6f"/><stop offset="0.86" stop-color="#606060"/><stop offset="0.88" stop-color="#606060"/><stop offset="1" stop-color="#606060"/></linearGradient><linearGradient id="linear-gradient-7" x1="24.54" y1="22.15" x2="40.09" y2="47.02" gradientUnits="userSpaceOnUse"><stop offset="0" stop-color="#fff"/><stop offset="0" stop-color="#fdfdfd"/><stop offset="0.14" stop-color="#c2c2c2"/><stop offset="0.2" stop-color="#ababab"/><stop offset="0.39" stop-color="#a8a8a8"/><stop offset="0.53" stop-color="#9f9f9f"/><stop offset="0.65" stop-color="#8f8f8f"/><stop offset="0.76" stop-color="#797979"/><stop offset="0.85" stop-color="#606060"/><stop offset="0.87" stop-color="#606060"/><stop offset="1" stop-color="#606060"/></linearGradient><linearGradient id="linear-gradient-8" x1="49.78" y1="41.7" x2="67.89" y2="23.59" xlink:href="#linear-gradient"/><linearGradient id="linear-gradient-9" x1="71.76" y1="55.6" x2="71.76" y2="21.33" xlink:href="#linear-gradient-2"/><linearGradient id="linear-gradient-10" x1="70.98" y1="22.88" x2="75.91" y2="-0.27" xlink:href="#linear-gradient-3"/><linearGradient id="linear-gradient-11" x1="79.15" y1="55.36" x2="93.45" y2="13.81" xlink:href="#linear-gradient-4"/><linearGradient id="linear-gradient-12" x1="67.39" y1="26.43" x2="50.28" y2="38.86" xlink:href="#linear-gradient-5"/><linearGradient id="linear-gradient-13" x1="71.76" y1="21.33" x2="71.76" y2="55.6" xlink:href="#linear-gradient-6"/><linearGradient id="linear-gradient-14" x1="78.53" y1="22.15" x2="94.07" y2="47.02" xlink:href="#linear-gradient-7"/><linearGradient id="linear-gradient-15" x1="103.77" y1="41.7" x2="121.87" y2="23.59" xlink:href="#linear-gradient"/><linearGradient id="linear-gradient-16" x1="125.75" y1="55.6" x2="125.75" y2="21.33" xlink:href="#linear-gradient-2"/><linearGradient id="linear-gradient-17" x1="124.97" y1="22.88" x2="129.89" y2="-0.27" xlink:href="#linear-gradient-3"/><linearGradient id="linear-gradient-18" x1="133.13" y1="55.36" x2="147.44" y2="13.81" xlink:href="#linear-gradient-4"/><linearGradient id="linear-gradient-19" x1="121.38" y1="26.43" x2="104.27" y2="38.86" xlink:href="#linear-gradient-5"/><linearGradient id="linear-gradient-20" x1="125.75" y1="21.33" x2="125.75" y2="55.6" xlink:href="#linear-gradient-6"/><linearGradient id="linear-gradient-21" x1="132.51" y1="22.15" x2="148.06" y2="47.02" xlink:href="#linear-gradient-7"/><linearGradient id="linear-gradient-22" x1="157.76" y1="41.7" x2="175.86" y2="23.59" xlink:href="#linear-gradient"/><linearGradient id="linear-gradient-23" x1="179.73" y1="55.6" x2="179.73" y2="21.33" xlink:href="#linear-gradient-2"/><linearGradient id="linear-gradient-24" x1="178.96" y1="22.88" x2="183.88" y2="-0.27" xlink:href="#linear-gradient-3"/><linearGradient id="linear-gradient-25" x1="187.12" y1="55.36" x2="201.43" y2="13.81" xlink:href="#linear-gradient-4"/><linearGradient id="linear-gradient-26" x1="175.36" y1="26.43" x2="158.25" y2="38.86" xlink:href="#linear-gradient-5"/><linearGradient id="linear-gradient-27" x1="179.73" y1="21.33" x2="179.73" y2="55.6" xlink:href="#linear-gradient-6"/><linearGradient id="linear-gradient-28" x1="186.5" y1="22.15" x2="202.05" y2="47.02" xlink:href="#linear-gradient-7"/><linearGradient id="linear-gradient-29" x1="265.72" y1="41.7" x2="283.83" y2="23.59" gradientUnits="userSpaceOnUse"><stop offset="0" stop-color="#515151"/><stop offset="0.14" stop-color="#515151"/><stop offset="1" stop-color="#515151"/></linearGradient><linearGradient id="linear-gradient-30" x1="287.7" y1="55.6" x2="287.7" y2="21.33" xlink:href="#linear-gradient-29"/><linearGradient id="linear-gradient-31" x1="284.59" y1="23.33" x2="294.5" y2="-1.19" gradientUnits="userSpaceOnUse"><stop offset="0" stop-color="#929292"/><stop offset="0.02" stop-color="#8b8b8b"/><stop offset="0.1" stop-color="#787878"/><stop offset="0.2" stop-color="#6a6a6a"/><stop offset="0.32" stop-color="#626262"/><stop offset="0.54" stop-color="#606060"/><stop offset="0.58" stop-color="#606060"/><stop offset="0.84" stop-color="#606060"/></linearGradient><linearGradient id="linear-gradient-32" x1="295.09" y1="55.36" x2="309.4" y2="13.81" xlink:href="#linear-gradient-29"/><linearGradient id="linear-gradient-33" x1="283.33" y1="26.43" x2="266.22" y2="38.86" gradientUnits="userSpaceOnUse"><stop offset="0" stop-color="#fff"/><stop offset="0" stop-color="#fdfdfd"/><stop offset="0.1" stop-color="#c2c2c2"/><stop offset="0.15" stop-color="#ababab"/><stop offset="0.17" stop-color="#9b9b9b"/><stop offset="0.21" stop-color="#858585"/><stop offset="0.26" stop-color="#747474"/><stop offset="0.31" stop-color="#696969"/><stop offset="0.39" stop-color="#626262"/><stop offset="0.6" stop-color="#606060"/><stop offset="0.61" stop-color="#606060"/><stop offset="0.65" stop-color="#606060"/></linearGradient><linearGradient id="linear-gradient-34" x1="287.7" y1="21.33" x2="287.7" y2="55.6" gradientUnits="userSpaceOnUse"><stop offset="0" stop-color="#fff"/><stop offset="0" stop-color="#fdfdfd"/><stop offset="0.11" stop-color="#c2c2c2"/><stop offset="0.16" stop-color="#ababab"/><stop offset="0.18" stop-color="#9b9b9b"/><stop offset="0.21" stop-color="#858585"/><stop offset="0.24" stop-color="#747474"/><stop offset="0.29" stop-color="#696969"/><stop offset="0.35" stop-color="#626262"/><stop offset="0.53" stop-color="#606060"/><stop offset="0.55" stop-color="#606060"/><stop offset="0.68" stop-color="#606060"/></linearGradient><linearGradient id="linear-gradient-35" x1="293.36" y1="23.22" x2="311.12" y2="45.95" gradientUnits="userSpaceOnUse"><stop offset="0" stop-color="#fff"/><stop offset="0" stop-color="#fdfdfd"/><stop offset="0.1" stop-color="#c2c2c2"/><stop offset="0.14" stop-color="#ababab"/><stop offset="0.16" stop-color="#9b9b9b"/><stop offset="0.19" stop-color="#858585"/><stop offset="0.23" stop-color="#747474"/><stop offset="0.28" stop-color="#696969"/><stop offset="0.35" stop-color="#626262"/><stop offset="0.53" stop-color="#606060"/><stop offset="0.56" stop-color="#606060"/><stop offset="0.69" stop-color="#606060"/></linearGradient><linearGradient id="linear-gradient-36" x1="319.71" y1="41.7" x2="337.81" y2="23.59" xlink:href="#linear-gradient-29"/><linearGradient id="linear-gradient-37" x1="341.69" y1="55.6" x2="341.69" y2="21.33" xlink:href="#linear-gradient-29"/><linearGradient id="linear-gradient-38" x1="338.57" y1="23.33" x2="348.48" y2="-1.19" xlink:href="#linear-gradient-31"/><linearGradient id="linear-gradient-39" x1="349.07" y1="55.36" x2="363.38" y2="13.81" xlink:href="#linear-gradient-29"/><linearGradient id="linear-gradient-40" x1="337.31" y1="26.43" x2="320.21" y2="38.86" xlink:href="#linear-gradient-33"/><linearGradient id="linear-gradient-41" x1="341.69" y1="21.33" x2="341.69" y2="55.6" xlink:href="#linear-gradient-34"/><linearGradient id="linear-gradient-42" x1="347.35" y1="23.22" x2="365.11" y2="45.95" xlink:href="#linear-gradient-35"/></defs><title>l2</title><g style="isolation:isolate"><g id="圖層_1" data-name="圖層 1"><path d="M772.4,396.22a0.78,0.78,0,0,1,.85-0.91h2.08a0.79,0.79,0,0,1,.91.88v6.94a0.63,0.63,0,0,0,.7.73h6.91a0.79,0.79,0,0,1,.91.88v2a0.79,0.79,0,0,1-.88.91H777a0.63,0.63,0,0,0-.73.7v6.94a0.79,0.79,0,0,1-.88.91H773.3a0.79,0.79,0,0,1-.91-0.88v-6.94a0.63,0.63,0,0,0-.7-0.73h-6.94a0.79,0.79,0,0,1-.91-0.88v-2a0.79,0.79,0,0,1,.88-0.91h6.94a0.63,0.63,0,0,0,.73-0.7v-6.94Z" transform="translate(-539 -378)" style="fill:#704848"/><polygon points="0 9.69 0 43.96 9.7 55.6 9.7 21.33 0 9.69" style="fill:url(#linear-gradient)"/><rect x="9.7" y="21.33" width="16.16" height="34.27" style="fill:url(#linear-gradient-2)"/><polygon points="0 9.69 12.93 0 32.31 1.94 38.78 13.57 25.85 21.33 9.7 21.33 0 9.69" style="fill:url(#linear-gradient-3)"/><polygon points="25.85 21.33 25.85 55.6 38.78 47.84 38.78 13.57 25.85 21.33" style="fill:url(#linear-gradient-4)"/><g style="opacity:0.9"><polygon points="0 9.69 0 43.96 9.7 55.6 9.7 21.33 0 9.69" style="fill:url(#linear-gradient-5)"/><rect x="9.7" y="21.33" width="16.16" height="34.27" style="fill:url(#linear-gradient-6)"/><polygon points="25.85 21.33 25.85 55.6 38.78 47.84 38.78 13.57 25.85 21.33" style="fill:url(#linear-gradient-7)"/></g><polygon points="53.99 9.69 53.99 43.96 63.68 55.6 63.68 21.33 53.99 9.69" style="fill:url(#linear-gradient-8)"/><rect x="63.68" y="21.33" width="16.16" height="34.27" style="fill:url(#linear-gradient-9)"/><polygon points="53.99 9.69 66.91 0 86.3 1.94 92.76 13.57 79.84 21.33 63.68 21.33 53.99 9.69" style="fill:url(#linear-gradient-10)"/><polygon points="79.84 21.33 79.84 55.6 92.76 47.84 92.76 13.57 79.84 21.33" style="fill:url(#linear-gradient-11)"/><g style="opacity:0.9"><polygon points="53.99 9.69 53.99 43.96 63.68 55.6 63.68 21.33 53.99 9.69" style="fill:url(#linear-gradient-12)"/><rect x="63.68" y="21.33" width="16.16" height="34.27" style="fill:url(#linear-gradient-13)"/><polygon points="79.84 21.33 79.84 55.6 92.76 47.84 92.76 13.57 79.84 21.33" style="fill:url(#linear-gradient-14)"/></g><polygon points="107.97 9.69 107.97 43.96 117.67 55.6 117.67 21.33 107.97 9.69" style="fill:url(#linear-gradient-15)"/><rect x="117.67" y="21.33" width="16.16" height="34.27" style="fill:url(#linear-gradient-16)"/><polygon points="107.97 9.69 120.9 0 140.29 1.94 146.75 13.57 133.82 21.33 117.67 21.33 107.97 9.69" style="fill:url(#linear-gradient-17)"/><polygon points="133.82 21.33 133.82 55.6 146.75 47.84 146.75 13.57 133.82 21.33" style="fill:url(#linear-gradient-18)"/><g style="opacity:0.9"><polygon points="107.97 9.69 107.97 43.96 117.67 55.6 117.67 21.33 107.97 9.69" style="fill:url(#linear-gradient-19)"/><rect x="117.67" y="21.33" width="16.16" height="34.27" style="fill:url(#linear-gradient-20)"/><polygon points="133.82 21.33 133.82 55.6 146.75 47.84 146.75 13.57 133.82 21.33" style="fill:url(#linear-gradient-21)"/></g><polygon points="161.96 9.69 161.96 43.96 171.65 55.6 171.65 21.33 161.96 9.69" style="fill:url(#linear-gradient-22)"/><rect x="171.65" y="21.33" width="16.16" height="34.27" style="fill:url(#linear-gradient-23)"/><polygon points="161.96 9.69 174.88 0 194.27 1.94 200.74 13.57 187.81 21.33 171.65 21.33 161.96 9.69" style="fill:url(#linear-gradient-24)"/><polygon points="187.81 21.33 187.81 55.6 200.74 47.84 200.74 13.57 187.81 21.33" style="fill:url(#linear-gradient-25)"/><g style="opacity:0.9"><polygon points="161.96 9.69 161.96 43.96 171.65 55.6 171.65 21.33 161.96 9.69" style="fill:url(#linear-gradient-26)"/><rect x="171.65" y="21.33" width="16.16" height="34.27" style="fill:url(#linear-gradient-27)"/><polygon points="187.81 21.33 187.81 55.6 200.74 47.84 200.74 13.57 187.81 21.33" style="fill:url(#linear-gradient-28)"/></g><polygon points="269.93 9.69 269.93 43.96 279.62 55.6 279.62 21.33 269.93 9.69" style="fill:url(#linear-gradient-29)"/><rect x="279.62" y="21.33" width="16.16" height="34.27" style="fill:url(#linear-gradient-30)"/><polygon points="269.93 9.69 282.85 0 302.24 1.94 308.7 13.57 295.78 21.33 279.62 21.33 269.93 9.69" style="fill:url(#linear-gradient-31)"/><polygon points="295.78 21.33 295.78 55.6 308.7 47.84 308.7 13.57 295.78 21.33" style="fill:url(#linear-gradient-32)"/><g style="opacity:0.2;mix-blend-mode:luminosity"><polygon points="269.93 9.69 269.93 43.96 279.62 55.6 279.62 21.33 269.93 9.69" style="fill:url(#linear-gradient-33)"/><rect x="279.62" y="21.33" width="16.16" height="34.27" style="fill:url(#linear-gradient-34)"/><polygon points="295.78 21.33 295.78 55.6 308.7 47.84 308.7 13.57 295.78 21.33" style="fill:url(#linear-gradient-35)"/></g><polygon points="323.91 9.69 323.91 43.96 333.61 55.6 333.61 21.33 323.91 9.69" style="fill:url(#linear-gradient-36)"/><rect x="333.61" y="21.33" width="16.16" height="34.27" style="fill:url(#linear-gradient-37)"/><polygon points="323.91 9.69 336.84 0 356.23 1.94 362.69 13.57 349.76 21.33 333.61 21.33 323.91 9.69" style="fill:url(#linear-gradient-38)"/><polygon points="349.76 21.33 349.76 55.6 362.69 47.84 362.69 13.57 349.76 21.33" style="fill:url(#linear-gradient-39)"/><g style="opacity:0.2;mix-blend-mode:luminosity"><polygon points="323.91 9.69 323.91 43.96 333.61 55.6 333.61 21.33 323.91 9.69" style="fill:url(#linear-gradient-40)"/><rect x="333.61" y="21.33" width="16.16" height="34.27" style="fill:url(#linear-gradient-41)"/><polygon points="349.76 21.33 349.76 55.6 362.69 47.84 362.69 13.57 349.76 21.33" style="fill:url(#linear-gradient-42)"/></g></g></g></svg>