<svg id="圖層_1" data-name="圖層 1" xmlns="http://www.w3.org/2000/svg" xmlns:xlink="http://www.w3.org/1999/xlink" viewBox="0 0 280 300"><defs><clipPath id="clip-path" transform="translate(0 0)"><rect width="280" height="300" style="fill:none"/></clipPath></defs><title>n1</title><g style="clip-path:url(#clip-path)"><path d="M128.12,77c20.36-13.58,33.94-13.58,49.21-5.09s32.24,25.46,40.73,40.73,8.48,28.85-5.09,49.21-40.73,47.52-61.1,61.1-33.94,13.57-49.21,5.09-32.25-25.46-40.73-40.73S53.45,158.48,67,138.12,107.76,90.6,128.12,77Z" transform="translate(0 0)" style="fill:#eaceca"/><path d="M123.46,146.18c5.51,4.67,9.76,10.61,16.54,14s16.12,4.24,22.49,1.27,9.76-9.76,14.85-11.45,11.88,1.7,17,3.4,8.48,1.69,11.88-1.7,6.79-10.18,5.94-19.52-5.94-21.21-13.58-30.55S180.73,85.51,171.4,81.27s-17.82-5.95-30.55,0-29.7,19.52-42.43,32.24-21.22,24.61-24.18,30.13-0.42,4.67,5.51,2.12S95,139,103.09,138.54,117.94,141.51,123.46,146.18Z" transform="translate(0 0)" style="fill:#ba4147"/><path d="M122.18,166.12c-4.24,2.54-11,5.94-14.43,11s-3.4,11.88-6.37,16.55a15.44,15.44,0,0,1-13.58,6.79c-4.67-.42-8.06-3.82-12.73-10.18s-10.61-15.7-7.64-23.76,14.85-14.85,25-17.4a38.27,38.27,0,0,1,24.61,1.7c5.94,2.55,9.33,5.94,10.18,8.48S126.43,163.57,122.18,166.12Z" transform="translate(0 0)" style="fill:#ba4147"/><path d="M189.22,161.88c-5.09-1.7-11.88-1.7-16.12.85s-5.94,7.63-14.43,8.48-23.76-2.55-33.09,2.55-12.73,18.66-17.39,25.88-10.61,8.06-9.76,11.46,8.49,9.34,17.4,10.61,19.09-2.12,31-10.61S172.25,189,181.58,181.4s14.43-9.34,15.27-11.88S194.31,163.58,189.22,161.88Z" transform="translate(0 0)" style="fill:#ba4147"/><g style="opacity:0.9"><path d="M121.6-31.11c6.79,6.79,11.88,5.09,17.25,7.07s11,7.64,13.86,15,2.83,16.41-9.05,28.29S108,45.82,92.75,49.78,70.69,47,68.14,41,67.29,30,63.9,26.59s-8.48-1.7-14.42-4.24S36.75,13,40.71-2.26s18.67-39,30.55-50.91,20.93-11.88,28.28-9.05,13,8.49,15,13.86S114.81-37.9,121.6-31.11Z" transform="translate(0 0)" style="fill:#7eb830"/><path d="M113.11-22.62a30.68,30.68,0,0,0,3.94,3.35,24.91,24.91,0,0,0,4,2.3,6.83,6.83,0,0,0,4.47.65c1.64-.29,3.79-1.13,5.4-1.47a8.39,8.39,0,0,1,3.64,0,12.58,12.58,0,0,1,1.58.4A10.68,10.68,0,0,1,138.73-16a18,18,0,0,1,3.33,3A22,22,0,0,1,145-8.72a20.49,20.49,0,0,1,1.48,3.61A14.67,14.67,0,0,1,147-2.68a12,12,0,0,1,0,2.47,13.1,13.1,0,0,1-.54,2.74,18.23,18.23,0,0,1-1.39,3.26,28.54,28.54,0,0,1-2.57,3.91,47.1,47.1,0,0,1-4.2,4.69c-1.84,1.82-3.79,3.52-5.8,5.16q-3.47,2.83-7.12,5.42-6.25,4.45-12.91,8.27c-2.68,1.54-5.4,3-8.18,4.35C101.8,38.81,99.24,40,96.63,41A50.18,50.18,0,0,1,90.13,43a27.07,27.07,0,0,1-5,.73,15.93,15.93,0,0,1-3.58-.21,10.47,10.47,0,0,1-2.48-.76A8.14,8.14,0,0,1,76,40.35a9.38,9.38,0,0,1-1-1.55,11.56,11.56,0,0,1-.94-2.68c-0.14-.63-0.24-1.26-0.33-1.9-0.14-1-.25-2-0.39-3a25.3,25.3,0,0,0-.57-2.92,16.2,16.2,0,0,0-1.33-3.42A13.9,13.9,0,0,0,65.58,19a16.11,16.11,0,0,0-3.42-1.33,25,25,0,0,0-2.92-.57c-1-.14-2-0.25-3-0.39-0.64-.09-1.27-0.19-1.9-0.33a11.58,11.58,0,0,1-2.68-.94,9.32,9.32,0,0,1-1.55-1,8.08,8.08,0,0,1-2.43-3.08A10.5,10.5,0,0,1,47,8.9a15.93,15.93,0,0,1-.21-3.58,27.32,27.32,0,0,1,.73-5,50.55,50.55,0,0,1,2.06-6.5c1-2.61,2.14-5.17,3.36-7.68,1.35-2.78,2.81-5.5,4.35-8.18q3.82-6.65,8.27-12.91,2.6-3.65,5.42-7.12c1.64-2,3.34-4,5.16-5.8A47.12,47.12,0,0,1,80.79-52,28.68,28.68,0,0,1,84.7-54.6,18.17,18.17,0,0,1,88-56a13.24,13.24,0,0,1,2.74-.54,12.15,12.15,0,0,1,2.47,0A14.82,14.82,0,0,1,95.6-56a20.42,20.42,0,0,1,3.61,1.49,22.09,22.09,0,0,1,4.27,2.9,17.92,17.92,0,0,1,3,3.34,12.21,12.21,0,0,1,.92,1.55,9.25,9.25,0,0,1,.45,1.08,12.53,12.53,0,0,1,.39,1.58,8.41,8.41,0,0,1,0,3.64c-0.34,1.61-1.18,3.76-1.47,5.4a6.83,6.83,0,0,0,.65,4.46,24.89,24.89,0,0,0,2.3,4A30.54,30.54,0,0,0,113.11-22.62Z" transform="translate(0 0)" style="fill:#558827"/><path d="M119.9-29.41c6.79,6.79,7.64,16.12,2.12,23.33S104.63,6.23,94.44-4,89.35-26,96.57-31.54,113.11-36.2,119.9-29.41Z" transform="translate(0 0)" style="fill:#dbe5c6"/><path d="M122.92-25.64a21.08,21.08,0,0,0-3-3.77,21.15,21.15,0,0,0-3.77-3c12.71-12.68,19.49-18.6,32.62-5.47L142-31.11C135.48-37.6,132.09-34.79,122.92-25.64Z" transform="translate(0 0)" style="fill:#a3c97a"/><path d="M88.78-18C88.37-13.48,89.86-8.54,94.44-4S104,2.12,108.51,1.71c-3.7,12.36-15.08,20-36.59,24.08-0.13-.3-0.28-0.59-0.43-0.88A13.9,13.9,0,0,0,65.58,19q-0.43-.23-0.88-0.43C68.8-2.94,76.43-14.32,88.78-18Z" transform="translate(0 0)" style="fill:#527229"/></g><g style="opacity:0.9"><path d="M6.41,84.08c6.79,6.79,11.88,5.09,17.25,7.07s11,7.64,13.86,15,2.83,16.4-9.05,28.28S-7.17,161-22.44,165s-22.06-2.83-24.61-8.77-0.85-11-4.24-14.42-8.49-1.7-14.42-4.24-12.73-9.33-8.77-24.61S-55.82,73.9-43.94,62-23,50.14-15.65,53s13,8.49,15,13.86S-0.38,77.29,6.41,84.08Z" transform="translate(0 0)" style="fill:#7eb830"/><path d="M-2.08,92.57a30.66,30.66,0,0,0,3.94,3.35,24.73,24.73,0,0,0,4,2.3,6.82,6.82,0,0,0,4.47.65c1.64-.29,3.79-1.13,5.4-1.47a8.35,8.35,0,0,1,3.64,0,12.74,12.74,0,0,1,1.58.4,10.75,10.75,0,0,1,2.63,1.37,18.06,18.06,0,0,1,3.33,3,22,22,0,0,1,2.91,4.28,20.45,20.45,0,0,1,1.48,3.6,14.63,14.63,0,0,1,.52,2.43,12,12,0,0,1,0,2.46,13.07,13.07,0,0,1-.54,2.74A18.2,18.2,0,0,1,29.9,121a28.62,28.62,0,0,1-2.57,3.91,47,47,0,0,1-4.2,4.69c-1.84,1.82-3.79,3.52-5.8,5.16q-3.47,2.83-7.12,5.42Q4,144.61-2.7,148.43c-2.68,1.54-5.4,3-8.18,4.35-2.51,1.22-5.07,2.36-7.68,3.36a50.32,50.32,0,0,1-6.5,2.06,26.9,26.9,0,0,1-5,.73,15.87,15.87,0,0,1-3.58-.21,10.41,10.41,0,0,1-2.48-.76,8.28,8.28,0,0,1-1.76-1.08,8.39,8.39,0,0,1-1.32-1.34,9.38,9.38,0,0,1-1-1.55,11.54,11.54,0,0,1-.94-2.68c-0.14-.63-0.24-1.26-0.33-1.9-0.14-1-.25-2-0.39-3a25.56,25.56,0,0,0-.57-2.92,16.2,16.2,0,0,0-1.33-3.42,14.24,14.24,0,0,0-2.5-3.41,14.28,14.28,0,0,0-3.41-2.5A16.15,16.15,0,0,0-53,132.86a25,25,0,0,0-2.92-.57c-1-.14-2-0.25-3-0.39-0.64-.09-1.27-0.19-1.9-0.33a11.53,11.53,0,0,1-2.68-.94,9.26,9.26,0,0,1-1.55-1,8.39,8.39,0,0,1-1.35-1.32,8.34,8.34,0,0,1-1.08-1.76,10.49,10.49,0,0,1-.76-2.48,16,16,0,0,1-.21-3.58,27.29,27.29,0,0,1,.73-5,50.34,50.34,0,0,1,2.06-6.5c1-2.61,2.14-5.17,3.36-7.68,1.35-2.78,2.81-5.5,4.35-8.18q3.82-6.65,8.27-12.91,2.6-3.65,5.42-7.12c1.64-2,3.34-4,5.16-5.8a47.07,47.07,0,0,1,4.69-4.2,28.74,28.74,0,0,1,3.91-2.57,18.19,18.19,0,0,1,3.26-1.38,13.13,13.13,0,0,1,2.74-.54,12.15,12.15,0,0,1,2.46,0,14.7,14.7,0,0,1,2.43.52A20.3,20.3,0,0,1-16,60.71a22.1,22.1,0,0,1,4.27,2.9,17.94,17.94,0,0,1,3,3.33,12.09,12.09,0,0,1,.92,1.55,9.36,9.36,0,0,1,.45,1.08,12.35,12.35,0,0,1,.39,1.58,8.4,8.4,0,0,1,0,3.64c-0.34,1.61-1.18,3.76-1.47,5.4a6.82,6.82,0,0,0,.65,4.46,24.87,24.87,0,0,0,2.3,4A30.64,30.64,0,0,0-2.08,92.57Z" transform="translate(0 0)" style="fill:#558827"/><path d="M4.71,85.78c6.79,6.79,7.64,16.12,2.12,23.33s-17.39,12.31-27.58,2.13-5.09-22.06,2.12-27.58S-2.08,79,4.71,85.78Z" transform="translate(0 0)" style="fill:#dbe5c6"/><path d="M7.73,89.55a21.11,21.11,0,0,0-3-3.77,21.14,21.14,0,0,0-3.77-3c12.71-12.68,19.49-18.6,32.62-5.47l-6.79,6.79C20.29,77.59,16.9,80.4,7.73,89.55Z" transform="translate(0 0)" style="fill:#a3c97a"/><path d="M-26.41,97.17c-0.41,4.54,1.08,9.48,5.66,14.07s9.52,6.08,14.06,5.66c-3.7,12.36-15.08,20-36.59,24.08-0.13-.3-0.28-0.59-0.43-0.88a14.24,14.24,0,0,0-2.5-3.41,14.28,14.28,0,0,0-3.41-2.5q-0.43-.23-0.88-0.43C-46.39,112.25-38.76,100.87-26.41,97.17Z" transform="translate(0 0)" style="fill:#527229"/></g><g style="opacity:0.9"><path d="M48.57,241.43c6.79,6.79,11.88,5.09,17.25,7.07s11,7.64,13.86,15,2.83,16.41-9.05,28.28S35,318.36,19.72,322.32s-22.06-2.83-24.61-8.77-0.85-11-4.24-14.42-8.48-1.7-14.42-4.24-12.73-9.33-8.77-24.61,18.67-39,30.55-50.91,20.93-11.88,28.28-9.05,13,8.49,15,13.86S41.78,234.64,48.57,241.43Z" transform="translate(0 0)" style="fill:#7eb830"/><path d="M40.08,249.92A30.62,30.62,0,0,0,44,253.27a24.69,24.69,0,0,0,4,2.3,6.84,6.84,0,0,0,4.47.65c1.64-.29,3.79-1.13,5.4-1.47a8.34,8.34,0,0,1,3.64,0,12.53,12.53,0,0,1,1.58.39,10.71,10.71,0,0,1,2.63,1.37,18.08,18.08,0,0,1,3.33,3,22,22,0,0,1,2.91,4.28,20.49,20.49,0,0,1,1.49,3.61,14.58,14.58,0,0,1,.52,2.43,12,12,0,0,1,0,2.46,13.1,13.1,0,0,1-.54,2.74,18.25,18.25,0,0,1-1.39,3.26,28.63,28.63,0,0,1-2.57,3.91,47.07,47.07,0,0,1-4.2,4.69c-1.84,1.82-3.79,3.52-5.8,5.16q-3.46,2.83-7.12,5.42-6.25,4.45-12.91,8.27c-2.68,1.54-5.4,3-8.18,4.35-2.51,1.22-5.07,2.36-7.68,3.36a50.46,50.46,0,0,1-6.5,2.06,26.9,26.9,0,0,1-5,.73,15.87,15.87,0,0,1-3.58-.21,10.46,10.46,0,0,1-2.48-.76A8.13,8.13,0,0,1,3,312.89a9.36,9.36,0,0,1-1-1.55,11.58,11.58,0,0,1-.94-2.68c-0.14-.63-0.24-1.26-0.33-1.9-0.14-1-.25-2-0.39-3a25.49,25.49,0,0,0-.57-2.92,16.29,16.29,0,0,0-1.33-3.42A14.25,14.25,0,0,0-4,294a14.26,14.26,0,0,0-3.41-2.5,16.1,16.1,0,0,0-3.42-1.33,25,25,0,0,0-2.92-.57c-1-.14-2-0.25-3-0.39-0.64-.09-1.27-0.19-1.9-0.33a11.49,11.49,0,0,1-2.68-.94,9.34,9.34,0,0,1-1.55-1,8.47,8.47,0,0,1-1.35-1.32,8.36,8.36,0,0,1-1.08-1.76,10.51,10.51,0,0,1-.76-2.48,15.91,15.91,0,0,1-.21-3.58,27.22,27.22,0,0,1,.73-5,50.27,50.27,0,0,1,2.06-6.5c1-2.61,2.14-5.17,3.36-7.68,1.35-2.78,2.81-5.5,4.35-8.18q3.82-6.65,8.27-12.91c1.73-2.43,3.53-4.81,5.42-7.12,1.64-2,3.34-4,5.16-5.8a46.89,46.89,0,0,1,4.69-4.2,28.47,28.47,0,0,1,3.91-2.57,18.13,18.13,0,0,1,3.26-1.38,13.26,13.26,0,0,1,2.74-.55,12.23,12.23,0,0,1,2.47,0,14.7,14.7,0,0,1,2.43.52,20.41,20.41,0,0,1,3.61,1.49,22.05,22.05,0,0,1,4.27,2.9,18,18,0,0,1,3,3.33,12.06,12.06,0,0,1,.92,1.55,9.36,9.36,0,0,1,.45,1.08,12.52,12.52,0,0,1,.39,1.58,8.4,8.4,0,0,1,0,3.64c-0.34,1.61-1.18,3.76-1.47,5.4a6.82,6.82,0,0,0,.65,4.46,24.87,24.87,0,0,0,2.3,4A30.52,30.52,0,0,0,40.08,249.92Z" transform="translate(0 0)" style="fill:#558827"/><path d="M46.87,243.13c6.79,6.79,7.64,16.12,2.12,23.33s-17.39,12.31-27.58,2.12S16.32,246.52,23.54,241,40.08,236.34,46.87,243.13Z" transform="translate(0 0)" style="fill:#dbe5c6"/><path d="M49.89,246.9a21.81,21.81,0,0,0-6.79-6.79c12.71-12.68,19.49-18.6,32.62-5.47l-6.79,6.79C62.45,234.94,59.06,237.75,49.89,246.9Z" transform="translate(0 0)" style="fill:#a3c97a"/><path d="M15.75,254.52c-0.41,4.54,1.08,9.48,5.66,14.06s9.52,6.08,14.06,5.66c-3.7,12.36-15.08,20-36.59,24.08-0.13-.3-0.28-0.59-0.43-0.88A14.25,14.25,0,0,0-4,294a14.26,14.26,0,0,0-3.41-2.5c-0.29-.15-0.58-0.3-0.88-0.43C-4.23,269.6,3.4,258.22,15.75,254.52Z" transform="translate(0 0)" style="fill:#527229"/></g><g style="opacity:0.9"><path d="M205.92,283.59c6.79,6.79,11.88,5.09,17.25,7.07s11,7.64,13.86,15,2.83,16.4-9.05,28.28-35.64,26.59-50.91,30.55-22.06-2.83-24.61-8.77-0.85-11-4.24-14.42-8.48-1.7-14.42-4.24-12.73-9.33-8.77-24.61,18.67-39,30.55-50.91,20.93-11.88,28.28-9.05,13,8.49,15,13.86S199.13,276.8,205.92,283.59Z" transform="translate(0 0)" style="fill:#7eb830"/><path d="M197.43,292.08a30.57,30.57,0,0,0,3.94,3.35,24.79,24.79,0,0,0,4,2.3,6.83,6.83,0,0,0,4.47.66c1.64-.29,3.79-1.13,5.4-1.47a8.37,8.37,0,0,1,3.64,0,12.75,12.75,0,0,1,1.58.39,10.68,10.68,0,0,1,2.63,1.37,18,18,0,0,1,3.33,3,22,22,0,0,1,2.91,4.28,20.46,20.46,0,0,1,1.48,3.61,14.61,14.61,0,0,1,.52,2.43,12,12,0,0,1,0,2.46,13.09,13.09,0,0,1-.54,2.74,18.25,18.25,0,0,1-1.39,3.26,28.56,28.56,0,0,1-2.57,3.91,46.89,46.89,0,0,1-4.2,4.69c-1.84,1.82-3.79,3.53-5.8,5.16-2.31,1.89-4.69,3.69-7.12,5.42q-6.25,4.45-12.91,8.27c-2.68,1.54-5.4,3-8.18,4.35-2.51,1.22-5.07,2.36-7.68,3.36a50.17,50.17,0,0,1-6.5,2.06,27.16,27.16,0,0,1-5,.73,15.94,15.94,0,0,1-3.58-.21,10.48,10.48,0,0,1-2.48-.76,8.23,8.23,0,0,1-1.76-1.08,8.37,8.37,0,0,1-1.32-1.34,9.38,9.38,0,0,1-1-1.55,11.61,11.61,0,0,1-.94-2.68c-0.14-.63-0.24-1.26-0.33-1.9-0.14-1-.25-2-0.39-3a25.42,25.42,0,0,0-.57-2.92,16.23,16.23,0,0,0-1.33-3.42,13.93,13.93,0,0,0-5.91-5.91,16.22,16.22,0,0,0-3.42-1.33,25.41,25.41,0,0,0-2.92-.57c-1-.14-2-0.25-3-0.39-0.64-.09-1.27-0.19-1.9-0.33a11.46,11.46,0,0,1-2.68-.94,9.34,9.34,0,0,1-1.55-1,8.07,8.07,0,0,1-2.43-3.08,10.46,10.46,0,0,1-.76-2.48,15.88,15.88,0,0,1-.21-3.58,27.26,27.26,0,0,1,.73-5,50.57,50.57,0,0,1,2.06-6.5c1-2.61,2.14-5.17,3.36-7.68,1.35-2.78,2.81-5.5,4.35-8.18q3.82-6.65,8.27-12.91,2.6-3.65,5.42-7.12c1.64-2,3.34-4,5.16-5.8a47.06,47.06,0,0,1,4.69-4.2A28.6,28.6,0,0,1,169,260.1a18.24,18.24,0,0,1,3.26-1.39,13.26,13.26,0,0,1,2.74-.54,12.31,12.31,0,0,1,2.47,0,14.82,14.82,0,0,1,2.43.52,20.49,20.49,0,0,1,3.61,1.48,22.13,22.13,0,0,1,4.27,2.9,17.92,17.92,0,0,1,3,3.33,12.23,12.23,0,0,1,.92,1.55,9.18,9.18,0,0,1,.45,1.08,12.41,12.41,0,0,1,.39,1.58,8.4,8.4,0,0,1,0,3.64c-0.34,1.61-1.18,3.76-1.47,5.4a6.83,6.83,0,0,0,.65,4.46,24.9,24.9,0,0,0,2.3,4A30.53,30.53,0,0,0,197.43,292.08Z" transform="translate(0 0)" style="fill:#558827"/><path d="M204.22,285.29c6.79,6.79,7.64,16.12,2.12,23.33s-17.39,12.31-27.58,2.12-5.09-22.06,2.12-27.58S197.43,278.5,204.22,285.29Z" transform="translate(0 0)" style="fill:#dbe5c6"/><path d="M207.24,289.06a21.81,21.81,0,0,0-6.79-6.79c12.71-12.68,19.49-18.6,32.62-5.47l-6.79,6.79C219.8,277.1,216.41,279.91,207.24,289.06Z" transform="translate(0 0)" style="fill:#a3c97a"/><path d="M173.1,296.68c-0.41,4.54,1.08,9.48,5.66,14.06s9.52,6.08,14.06,5.66c-3.7,12.36-15.08,20-36.59,24.08-0.13-.3-0.28-0.59-0.43-0.88a13.93,13.93,0,0,0-5.91-5.91c-0.29-.15-0.58-0.3-0.88-0.43C153.12,311.76,160.75,300.38,173.1,296.68Z" transform="translate(0 0)" style="fill:#527229"/></g><g style="opacity:0.9"><path d="M321.11,168.4c6.79,6.79,11.88,5.09,17.25,7.07s11,7.64,13.86,15,2.83,16.4-9.05,28.28-35.64,26.59-50.91,30.55-22.06-2.83-24.61-8.77-0.85-11-4.24-14.42-8.48-1.7-14.42-4.24-12.73-9.33-8.77-24.61,18.67-39,30.55-50.91,20.93-11.88,28.28-9.05,13,8.49,15,13.86S314.32,161.61,321.11,168.4Z" transform="translate(0 0)" style="fill:#7eb830"/><path d="M312.62,176.88a30.58,30.58,0,0,0,3.94,3.35,24.83,24.83,0,0,0,4,2.3,6.83,6.83,0,0,0,4.47.65c1.64-.29,3.79-1.13,5.4-1.47a8.37,8.37,0,0,1,3.64,0,12.92,12.92,0,0,1,1.58.39,10.75,10.75,0,0,1,2.63,1.37,18.07,18.07,0,0,1,3.33,3,22,22,0,0,1,2.91,4.28A20.44,20.44,0,0,1,346,194.4a14.68,14.68,0,0,1,.52,2.43,12,12,0,0,1,0,2.47A13.11,13.11,0,0,1,346,202a18.24,18.24,0,0,1-1.39,3.26,28.65,28.65,0,0,1-2.57,3.91,47.05,47.05,0,0,1-4.2,4.69c-1.84,1.82-3.79,3.52-5.8,5.16q-3.47,2.83-7.12,5.42-6.25,4.45-12.91,8.27c-2.68,1.54-5.4,3-8.18,4.35-2.51,1.22-5.07,2.36-7.68,3.36a50.31,50.31,0,0,1-6.5,2.06,27,27,0,0,1-5,.73,15.93,15.93,0,0,1-3.58-.21,10.36,10.36,0,0,1-2.48-.76,8.28,8.28,0,0,1-1.76-1.08,8.4,8.4,0,0,1-1.32-1.34,9.43,9.43,0,0,1-1-1.56,11.58,11.58,0,0,1-.94-2.68c-0.14-.63-0.24-1.26-0.33-1.9-0.14-1-.25-2-0.39-3a25.47,25.47,0,0,0-.57-2.92,16.24,16.24,0,0,0-1.33-3.42,13.92,13.92,0,0,0-5.91-5.91,16.21,16.21,0,0,0-3.42-1.33,25.14,25.14,0,0,0-2.92-.57c-1-.14-2-0.25-3-0.39-0.64-.09-1.27-0.19-1.9-0.33a11.5,11.5,0,0,1-2.68-.94,9.35,9.35,0,0,1-1.55-1,8.06,8.06,0,0,1-2.43-3.08,10.48,10.48,0,0,1-.76-2.48,15.89,15.89,0,0,1-.21-3.58,27.32,27.32,0,0,1,.73-5,50.53,50.53,0,0,1,2.06-6.5c1-2.61,2.14-5.17,3.36-7.68,1.35-2.78,2.81-5.5,4.35-8.18q3.82-6.65,8.27-12.91,2.6-3.65,5.42-7.12c1.64-2,3.34-4,5.16-5.8a47.13,47.13,0,0,1,4.69-4.2,28.68,28.68,0,0,1,3.91-2.57,18.24,18.24,0,0,1,3.26-1.38,13.2,13.2,0,0,1,2.74-.54,12.23,12.23,0,0,1,2.47,0,14.82,14.82,0,0,1,2.43.52,20.35,20.35,0,0,1,3.61,1.49,22,22,0,0,1,4.27,2.9,17.85,17.85,0,0,1,3,3.33,12.15,12.15,0,0,1,.92,1.55,9.25,9.25,0,0,1,.45,1.08,12.44,12.44,0,0,1,.39,1.58,8.41,8.41,0,0,1,0,3.64c-0.34,1.61-1.18,3.76-1.47,5.4A6.83,6.83,0,0,0,307,169a24.82,24.82,0,0,0,2.3,4A30.5,30.5,0,0,0,312.62,176.88Z" transform="translate(0 0)" style="fill:#558827"/><path d="M319.41,170.1c6.79,6.79,7.64,16.12,2.12,23.33s-17.39,12.31-27.58,2.12-5.09-22.06,2.12-27.58S312.62,163.31,319.41,170.1Z" transform="translate(0 0)" style="fill:#dbe5c6"/><path d="M322.43,173.87a21.85,21.85,0,0,0-6.79-6.79c12.71-12.68,19.49-18.6,32.62-5.47l-6.79,6.79C335,161.91,331.6,164.72,322.43,173.87Z" transform="translate(0 0)" style="fill:#a3c97a"/><path d="M288.29,181.49c-0.41,4.54,1.08,9.48,5.66,14.06s9.52,6.08,14.06,5.66c-3.7,12.36-15.08,20-36.59,24.08-0.13-.3-0.28-0.59-0.43-0.88a13.92,13.92,0,0,0-5.91-5.91c-0.29-.15-0.58-0.3-0.88-0.43C268.31,196.57,275.94,185.19,288.29,181.49Z" transform="translate(0 0)" style="fill:#527229"/></g><g style="opacity:0.9"><path d="M278.95,11c6.79,6.79,11.88,5.09,17.25,7.07s11,7.64,13.86,15,2.83,16.4-9.05,28.28S265.37,88,250.1,91.94,228,89.11,225.49,83.17s-0.85-11-4.24-14.42-8.48-1.7-14.42-4.24-12.73-9.33-8.77-24.61S216.72,0.87,228.6-11s20.93-11.88,28.28-9.05,13,8.49,15,13.86S272.16,4.26,278.95,11Z" transform="translate(0 0)" style="fill:#7eb830"/><path d="M270.46,19.54a30.53,30.53,0,0,0,3.94,3.35,24.76,24.76,0,0,0,4,2.3,6.84,6.84,0,0,0,4.47.65c1.65-.29,3.79-1.13,5.4-1.47a8.39,8.39,0,0,1,3.64,0,12.57,12.57,0,0,1,1.58.4,10.69,10.69,0,0,1,2.63,1.37,18.06,18.06,0,0,1,3.33,3,22,22,0,0,1,2.91,4.28A20.49,20.49,0,0,1,303.81,37a14.65,14.65,0,0,1,.52,2.43,11.92,11.92,0,0,1,0,2.46,13.06,13.06,0,0,1-.54,2.74,18.29,18.29,0,0,1-1.39,3.26,28.67,28.67,0,0,1-2.57,3.91,46.89,46.89,0,0,1-4.2,4.69c-1.84,1.82-3.79,3.52-5.8,5.16q-3.47,2.83-7.12,5.42-6.25,4.45-12.91,8.27c-2.68,1.54-5.4,3-8.18,4.35-2.51,1.22-5.07,2.36-7.68,3.36a50.31,50.31,0,0,1-6.5,2.06,26.91,26.91,0,0,1-5,.73,15.87,15.87,0,0,1-3.58-.21,10.51,10.51,0,0,1-2.48-.76,8.12,8.12,0,0,1-3.07-2.43,9.3,9.3,0,0,1-1-1.55,11.56,11.56,0,0,1-.94-2.68c-0.14-.63-0.24-1.26-0.33-1.9-0.14-1-.25-2-0.39-3a25.07,25.07,0,0,0-.57-2.92,16.22,16.22,0,0,0-1.33-3.42,13.91,13.91,0,0,0-5.91-5.91,16.15,16.15,0,0,0-3.42-1.33,25.16,25.16,0,0,0-2.92-.57c-1-.14-2-0.25-3-0.39-0.64-.09-1.27-0.19-1.9-0.33A11.48,11.48,0,0,1,209,57.6a9.3,9.3,0,0,1-1.55-1,8.05,8.05,0,0,1-2.43-3.08,10.47,10.47,0,0,1-.76-2.48,15.92,15.92,0,0,1-.21-3.58,27.18,27.18,0,0,1,.73-5,50.41,50.41,0,0,1,2.06-6.5c1-2.61,2.14-5.17,3.36-7.68,1.35-2.78,2.81-5.5,4.35-8.18q3.82-6.65,8.27-12.91,2.6-3.65,5.42-7.12c1.64-2,3.34-4,5.16-5.8a47.06,47.06,0,0,1,4.69-4.2,28.69,28.69,0,0,1,3.91-2.57,18.25,18.25,0,0,1,3.26-1.38,13.3,13.3,0,0,1,2.74-.54,12.23,12.23,0,0,1,2.47,0,14.79,14.79,0,0,1,2.43.52,20.49,20.49,0,0,1,3.61,1.49,22.14,22.14,0,0,1,4.27,2.9,18,18,0,0,1,3,3.34,12.22,12.22,0,0,1,.92,1.55,9.26,9.26,0,0,1,.45,1.08,12.57,12.57,0,0,1,.39,1.58,8.39,8.39,0,0,1,0,3.64c-0.34,1.61-1.18,3.76-1.47,5.4a6.83,6.83,0,0,0,.65,4.46,24.87,24.87,0,0,0,2.3,4A30.62,30.62,0,0,0,270.46,19.54Z" transform="translate(0 0)" style="fill:#558827"/><path d="M277.25,12.75c6.79,6.79,7.64,16.12,2.12,23.33S262,48.39,251.79,38.2s-5.09-22.06,2.12-27.58S270.46,6,277.25,12.75Z" transform="translate(0 0)" style="fill:#dbe5c6"/><path d="M280.27,16.52a21.82,21.82,0,0,0-6.79-6.79C286.19-3,293-8.87,306.1,4.26L299.31,11C292.83,4.56,289.44,7.37,280.27,16.52Z" transform="translate(0 0)" style="fill:#a3c97a"/><path d="M246.13,24.14c-0.41,4.54,1.08,9.48,5.66,14.07s9.52,6.08,14.06,5.66c-3.7,12.36-15.08,20-36.59,24.08-0.13-.3-0.28-0.59-0.43-0.88a13.91,13.91,0,0,0-5.91-5.91c-0.29-.15-0.58-0.3-0.88-0.43C226.15,39.22,233.78,27.84,246.13,24.14Z" transform="translate(0 0)" style="fill:#527229"/></g></g></svg>