<svg id="圖層_1" data-name="圖層 1" xmlns="http://www.w3.org/2000/svg" xmlns:xlink="http://www.w3.org/1999/xlink" viewBox="0 0 720 300"><defs><clipPath id="clip-path" transform="translate(-360 -258.5)"><rect x="427" y="252.5" width="450" height="225" style="fill:none"/></clipPath></defs><title>n2</title><rect width="720" height="84" style="fill:#f46f40;opacity:0.9"/><rect y="84" width="720" height="84" style="fill:#f7a97a;opacity:0.95"/><rect y="168" width="720" height="84" style="fill:#f9e2b4"/><rect width="48" height="300" style="fill:#fff8eb;opacity:0.5"/><rect y="252" width="720" height="48" style="fill:#f7edda"/><path d="M377.83,449.42a0.62,0.62,0,0,1,.37.16,12,12,0,0,1,1.63,1.54,0.68,0.68,0,0,1,.13.34,0.5,0.5,0,0,1-.59.54,0.59,0.59,0,0,1-.35-0.12,21.36,21.36,0,0,0-1.66-1.6,0.75,0.75,0,0,1-.12-0.28A0.52,0.52,0,0,1,377.83,449.42Zm1.66,3.75a0.49,0.49,0,0,1,.53.59,15.3,15.3,0,0,1-.53,2.31,12.19,12.19,0,0,1-1,2.26,0.56,0.56,0,0,1-.53.35,0.49,0.49,0,0,1-.59-0.53,0.55,0.55,0,0,1,.13-0.25,11.2,11.2,0,0,0,.92-2,15.48,15.48,0,0,0,.6-2.37A0.42,0.42,0,0,1,379.49,453.17Zm-0.64-7.56a0.56,0.56,0,0,1,.34.16,10.94,10.94,0,0,1,1.54,1.41,0.82,0.82,0,0,1,.12.37,0.49,0.49,0,0,1-.59.53,0.7,0.7,0,0,1-.37-0.12q-0.73-.73-1.57-1.42a0.9,0.9,0,0,1-.12-0.34A0.55,0.55,0,0,1,378.84,445.61Zm3.38,7h6.69a0.84,0.84,0,0,1,1,.92v3.88h0.42a0.46,0.46,0,0,1,.53.51,0.47,0.47,0,0,1-.53.53h-9.61a0.47,0.47,0,0,1-.53-0.53,0.46,0.46,0,0,1,.53-0.51h0.59v-3.88A0.82,0.82,0,0,1,382.23,452.59Zm0.42-6.81h5.74a0.75,0.75,0,0,1,.86.82v4.12a0.74,0.74,0,0,1-.86.81h-5.74a0.72,0.72,0,0,1-.82-0.81v-4.12A0.73,0.73,0,0,1,382.65,445.77Zm-0.25,11.62h1.54v-3.75h-1.23a0.29,0.29,0,0,0-.31.34v3.41Zm5.51-6.8a0.32,0.32,0,0,0,.37-0.37v-3.16a0.31,0.31,0,0,0-.37-0.34h-4.79a0.29,0.29,0,0,0-.31.34v3.16a0.3,0.3,0,0,0,.31.37h4.79Zm-2.33-3.69a0.55,0.55,0,0,1,.35.12,0.43,0.43,0,0,1,.16.35,0.84,0.84,0,0,1-.06.28q-0.1.23-.22,0.45l0.12,0a8.41,8.41,0,0,1,.81.47,6.27,6.27,0,0,1,1.07.76,0.7,0.7,0,0,1,.1.28,0.39,0.39,0,0,1-.4.48A0.88,0.88,0,0,1,387,450q-0.59-.44-1-0.69a6.84,6.84,0,0,0-.76-0.42l0,0-0.1.13a7.22,7.22,0,0,1-1.16,1,0.65,0.65,0,0,1-.37.22,0.43,0.43,0,0,1-.51-0.47,0.38,0.38,0,0,1,.12-0.28,7.9,7.9,0,0,0,1.13-1,5.4,5.4,0,0,0,.86-1.32A0.33,0.33,0,0,1,385.58,446.9ZM385,457.39h1.35v-3.75H385v3.75Zm2.39,0h1.42V454a0.3,0.3,0,0,0-.35-0.34h-1.07v3.75Z" transform="translate(-360 -258.5)" style="fill:#704848"/><path d="M384.53,463a0.52,0.52,0,0,1,.59.59V464h4.67a0.45,0.45,0,0,1,.54.47,0.48,0.48,0,0,1-.54.54H379.43a0.36,0.36,0,0,0-.41.41v4.63a26.09,26.09,0,0,1-.23,3.85,18.19,18.19,0,0,1-.47,2.36,0.5,0.5,0,0,1-.48.35,0.53,0.53,0,0,1-.59-0.53,3.29,3.29,0,0,1,.12-0.57q0.1-.34.19-0.75,0.12-.69.22-1.41a29.48,29.48,0,0,0,.18-3.31V465a0.87,0.87,0,0,1,1-1h5v-0.4A0.52,0.52,0,0,1,384.53,463Zm-2.64,2.27a0.47,0.47,0,0,1,.59.47v1.13h4.69v-1.13a0.44,0.44,0,0,1,.53-0.47,0.47,0.47,0,0,1,.59.47v1.13h1.63a0.42,0.42,0,0,1,.48.47,0.45,0.45,0,0,1-.48.53h-1.63v1.29a0.88,0.88,0,0,1-1.05.92h-4.88a0.84,0.84,0,0,1-1-.92v-1.29h-1.54a0.44,0.44,0,0,1-.45-0.53,0.41,0.41,0,0,1,.45-0.47h1.54v-1.13A0.44,0.44,0,0,1,381.89,465.3Zm-1.48,5.87h8.2q1.07,0,1.07.81a1.25,1.25,0,0,1-.45.7,11.25,11.25,0,0,1-2.21,1.71q-0.37.22-.79,0.44l0.44,0.15a20.26,20.26,0,0,0,3,.64,0.53,0.53,0,0,1,.53.53,0.52,0.52,0,0,1-.59.59,21.69,21.69,0,0,1-3.59-.88q-0.6-.21-1.13-0.44l-0.41.16a23.12,23.12,0,0,1-3.53,1,5.39,5.39,0,0,1-.89.15,0.55,0.55,0,0,1-.64-0.59,0.45,0.45,0,0,1,.45-0.47,24.59,24.59,0,0,0,2.75-.59l1.1-.31a9.48,9.48,0,0,1-1-.7,5.9,5.9,0,0,1-1.49-1.93h-0.86a0.43,0.43,0,0,1-.45-0.51A0.41,0.41,0,0,1,380.41,471.17Zm1.95,1a6,6,0,0,0,1.52,1.57,8.89,8.89,0,0,0,1.11.62l0.48-.22a9.84,9.84,0,0,0,2.27-1.45,1,1,0,0,0,.28-0.32,0.16,0.16,0,0,0-.18-0.19h-5.49Zm4.8-4.26h-4.69v0.92q0,0.37.23,0.37h4.16a0.3,0.3,0,0,0,.29-0.37v-0.92Z" transform="translate(-360 -258.5)" style="fill:#704848"/><path d="M988.52,295.87H993a12.85,12.85,0,0,0,.28-1.7,0.44,0.44,0,0,1,.51-0.42,0.45,0.45,0,0,1,.53.48,14.57,14.57,0,0,1-.25,1.64h4.64a1,1,0,0,1,1.07,1.1v8.51a1.43,1.43,0,0,1-1.6,1.64,8.31,8.31,0,0,1-2-.29,0.5,0.5,0,0,1-.34-0.48q0-.64.4-0.64a1.74,1.74,0,0,1,.45.07,5.87,5.87,0,0,0,1.36.23,0.57,0.57,0,0,0,.64-0.64v-8a0.47,0.47,0,0,0-.53-0.54h-4.39a0.13,0.13,0,0,1,0,.06q-0.06.19-.12,0.34l0.21,0.09a37.67,37.67,0,0,1,3.5,2.09,0.64,0.64,0,0,1,.25.48,0.47,0.47,0,0,1-.53.53,0.68,0.68,0,0,1-.41-0.12,36.39,36.39,0,0,0-3.44-2.23,5.08,5.08,0,0,1-.79.91,7.09,7.09,0,0,1-2.43,1.35l-0.15,0a0.55,0.55,0,0,1-.59-0.64,0.46,0.46,0,0,1,.37-0.42,5.48,5.48,0,0,0,2.15-1.2,4.17,4.17,0,0,0,.86-1.26h-3.72a0.47,0.47,0,0,0-.53.54v9.38a0.47,0.47,0,0,1-.53.53,0.47,0.47,0,0,1-.54-0.53V297A1,1,0,0,1,988.52,295.87Zm5,3.28a0.55,0.55,0,0,1,.32.1,0.34,0.34,0,0,1,.15.29,1.1,1.1,0,0,1-.06.31,8.86,8.86,0,0,1-.45,1.1l0.15,0.07a38.08,38.08,0,0,1,3.65,2.46,0.63,0.63,0,0,1,.22.47,0.4,0.4,0,0,1-.45.45,0.75,0.75,0,0,1-.41-0.1,39,39,0,0,0-3.63-2.52,8.94,8.94,0,0,1-1.23,1.49,6.21,6.21,0,0,1-1.41,1.07,0.61,0.61,0,0,1-.37.12,0.5,0.5,0,0,1-.37-0.16,0.64,0.64,0,0,1-.15-0.42,0.43,0.43,0,0,1,.18-0.34,7.74,7.74,0,0,0,1.35-1,9,9,0,0,0,1.2-1.41,7.11,7.11,0,0,0,.83-1.73A0.45,0.45,0,0,1,993.5,299.15Z" transform="translate(-360 -258.5)" style="fill:#704848"/><path d="M1005.91,296.27a0.46,0.46,0,0,1,.51.53,0.47,0.47,0,0,1-.51.54h-0.7v2.84l0.7-.44,0.18-.06a0.49,0.49,0,0,1,.53.59,0.47,0.47,0,0,1-.22.34,6.37,6.37,0,0,1-1.19.81v4.54a1.23,1.23,0,0,1-1.48,1.29,2.78,2.78,0,0,1-.86-0.19,0.52,0.52,0,0,1-.42-0.51,0.47,0.47,0,0,1,.42-0.53H1003a3.53,3.53,0,0,0,.72.16,0.4,0.4,0,0,0,.42-0.48v-3.76a7.27,7.27,0,0,1-.94.38,0.59,0.59,0,0,1-.23.06,0.48,0.48,0,0,1-.54-0.54,0.56,0.56,0,0,1,.42-0.59,8.51,8.51,0,0,0,1.29-.5v-3.41h-1a0.47,0.47,0,0,1-.53-0.54,0.47,0.47,0,0,1,.53-0.53h1v-2a0.53,0.53,0,1,1,1.05,0v2h0.7Zm1.35-.59h2.05v-1.45a0.53,0.53,0,1,1,1.05,0v7.5a6.55,6.55,0,0,1-.73,3,6.63,6.63,0,0,1-1.73,2.15,0.71,0.71,0,0,1-.53.37,0.63,0.63,0,0,1-.7-0.64,0.62,0.62,0,0,1,.16-0.37,6.57,6.57,0,0,0,2-2.53,5.12,5.12,0,0,0,.35-1.14,7.94,7.94,0,0,1-.7.45,11.89,11.89,0,0,1-1.68.78,0.72,0.72,0,0,1-.22,0,0.49,0.49,0,0,1-.53-0.59,0.55,0.55,0,0,1,.41-0.57q0.75-.26,1.25-0.5a12.55,12.55,0,0,0,1.33-.81l0.23-.06v-1.45h-1.93a0.48,0.48,0,0,1-.54-0.54,0.47,0.47,0,0,1,.54-0.53h1.93v-2.09h-2.05a0.47,0.47,0,0,1-.53-0.54A0.47,0.47,0,0,1,1007.26,295.68Zm5-2a0.5,0.5,0,0,1,.59.54v1.45h2.46a0.46,0.46,0,0,1,.51.53,0.47,0.47,0,0,1-.51.54h-2.46v2H1015a0.47,0.47,0,0,1,.54.53,0.48,0.48,0,0,1-.54.54h-2.21v2.68h2.7a0.47,0.47,0,0,1,.53.54,0.49,0.49,0,0,1-.53.59h-2.7v3a0.49,0.49,0,0,1-.59.53,0.47,0.47,0,0,1-.53-0.53V294.23A0.47,0.47,0,0,1,1012.24,293.69Z" transform="translate(-360 -258.5)" style="fill:#704848"/><path d="M1026.85,301.86a0.52,0.52,0,0,1,.09.29,0.44,0.44,0,0,1-.16.34,0.57,0.57,0,0,1-.4.15,0.45,0.45,0,0,1-.4-0.23,11.09,11.09,0,0,0-1.27-1.63,14.43,14.43,0,0,0-1.57-1.52,0.53,0.53,0,0,1-.21-0.41,0.49,0.49,0,0,1,.16-0.35,0.5,0.5,0,0,1,.37-0.15,0.55,0.55,0,0,1,.32.1,18,18,0,0,1,1.67,1.64A12.91,12.91,0,0,1,1026.85,301.86Z" transform="translate(-360 -258.5)" style="fill:#704848"/><path d="M1035.77,295.87h4.47a12.85,12.85,0,0,0,.28-1.7,0.44,0.44,0,0,1,.51-0.42,0.45,0.45,0,0,1,.53.48,14.57,14.57,0,0,1-.25,1.64H1046A1,1,0,0,1,1047,297v8.51a1.43,1.43,0,0,1-1.6,1.64,8.31,8.31,0,0,1-2-.29,0.5,0.5,0,0,1-.34-0.48q0-.64.4-0.64a1.74,1.74,0,0,1,.45.07,5.87,5.87,0,0,0,1.36.23,0.57,0.57,0,0,0,.64-0.64v-8a0.47,0.47,0,0,0-.53-0.54H1041a0.13,0.13,0,0,1,0,.06q-0.06.19-.12,0.34l0.21,0.09a37.67,37.67,0,0,1,3.5,2.09,0.64,0.64,0,0,1,.25.48,0.47,0.47,0,0,1-.53.53,0.68,0.68,0,0,1-.41-0.12,36.39,36.39,0,0,0-3.44-2.23,5.08,5.08,0,0,1-.79.91,7.09,7.09,0,0,1-2.43,1.35l-0.15,0a0.55,0.55,0,0,1-.59-0.64,0.46,0.46,0,0,1,.37-0.42,5.48,5.48,0,0,0,2.15-1.2,4.17,4.17,0,0,0,.86-1.26h-3.72a0.47,0.47,0,0,0-.53.54v9.38a0.47,0.47,0,0,1-.53.53,0.47,0.47,0,0,1-.54-0.53V297A1,1,0,0,1,1035.77,295.87Zm5,3.28a0.55,0.55,0,0,1,.32.1,0.34,0.34,0,0,1,.15.29,1.1,1.1,0,0,1-.06.31,8.86,8.86,0,0,1-.45,1.1l0.15,0.07a38.08,38.08,0,0,1,3.65,2.46,0.63,0.63,0,0,1,.22.47,0.4,0.4,0,0,1-.45.45,0.75,0.75,0,0,1-.41-0.1,39,39,0,0,0-3.63-2.52,8.94,8.94,0,0,1-1.23,1.49,6.21,6.21,0,0,1-1.41,1.07,0.61,0.61,0,0,1-.37.12,0.5,0.5,0,0,1-.37-0.16,0.64,0.64,0,0,1-.15-0.42,0.43,0.43,0,0,1,.18-0.34,7.74,7.74,0,0,0,1.35-1,9,9,0,0,0,1.2-1.41,7.11,7.11,0,0,0,.83-1.73A0.45,0.45,0,0,1,1040.75,299.15Z" transform="translate(-360 -258.5)" style="fill:#704848"/><path d="M1052.64,301.5a15.16,15.16,0,0,1-.45,2.62A10.32,10.32,0,0,1,1051,307a0.57,0.57,0,0,1-.47.31,0.58,0.58,0,0,1-.64-0.59,0.7,0.7,0,0,1,.19-0.37,11.69,11.69,0,0,0,1.26-3.5,16.35,16.35,0,0,0,.25-2.83v-5.43a0.47,0.47,0,0,1,.54-0.53,0.49,0.49,0,0,1,.59.53v2.58h4.73v-2.71a0.59,0.59,0,1,1,1.17,0v2.71h3.81a0.46,0.46,0,0,1,.53.51,0.47,0.47,0,0,1-.53.53h-9.71V300q0,0.22,0,.42h7.21a1.06,1.06,0,0,1,1.23,1.17v5.16a0.49,0.49,0,0,1-.59.53,0.46,0.46,0,0,1-.51-0.53v-4.69a0.52,0.52,0,0,0-.59-0.59h-6.8Z" transform="translate(-360 -258.5)" style="fill:#704848"/><path d="M1018.84,381.8a0.6,0.6,0,0,1,.37.18,11.37,11.37,0,0,1,1.35,1.45,0.91,0.91,0,0,1,.1.37,0.49,0.49,0,0,1-.59.53,0.45,0.45,0,0,1-.28-0.12,20.86,20.86,0,0,0-1.42-1.54,0.64,0.64,0,0,1-.12-0.28A0.52,0.52,0,0,1,1018.84,381.8Zm1.41,3.69a0.49,0.49,0,0,1,.53.59,16.81,16.81,0,0,1-.42,2.34,15,15,0,0,1-.86,2.29,0.56,0.56,0,0,1-.53.34,0.44,0.44,0,0,1-.53-0.45,0.94,0.94,0,0,1,.07-0.25,14,14,0,0,0,.82-2.07,24.33,24.33,0,0,0,.53-2.45A0.36,0.36,0,0,1,1020.24,385.5Zm-0.7-7.5a0.56,0.56,0,0,1,.37.18,11.47,11.47,0,0,1,1.23,1.39,0.76,0.76,0,0,1,.12.37,0.5,0.5,0,0,1-.6.53,0.43,0.43,0,0,1-.28-0.13q-0.6-.75-1.29-1.45a0.68,0.68,0,0,1-.13-0.29A0.52,0.52,0,0,1,1019.54,378Zm4.23-.53a0.65,0.65,0,0,1,.37.12,0.39,0.39,0,0,1,.16.34,1.31,1.31,0,0,1-.06.35l-0.09.31h7.12a0.41,0.41,0,0,1,.47.45,0.44,0.44,0,0,1-.47.53h-7.5l-0.12.23a6.54,6.54,0,0,1-.82,1.25,5,5,0,0,1-.94.88,0.61,0.61,0,0,1-.37.12,0.49,0.49,0,0,1-.37-0.18,0.68,0.68,0,0,1-.15-0.42,0.43,0.43,0,0,1,.18-0.34,4.76,4.76,0,0,0,.81-0.79,6.17,6.17,0,0,0,.72-1.11,6.39,6.39,0,0,0,.51-1.39A0.51,0.51,0,0,1,1023.77,377.47Zm0.41,3.5h5.92a0.73,0.73,0,0,1,.81.83q0,0.42-.25,2.59v0h0.89a0.53,0.53,0,1,1,0,1.05h-1q-0.16,1.42-.4,2.75h1.13a0.44,0.44,0,0,1,.53.47,0.47,0.47,0,0,1-.53.53H1030a3.73,3.73,0,0,1-.56,1.67,1.18,1.18,0,0,1-1,.38,10.1,10.1,0,0,1-2.59-.31,0.56,0.56,0,0,1-.45-0.59,0.45,0.45,0,0,1,.51-0.51,14.64,14.64,0,0,0,2.4.35,0.6,0.6,0,0,0,.48-0.63l0.09-.37h-6.53a0.63,0.63,0,0,1-.76-0.64,1.29,1.29,0,0,1,.12-0.53q0.56-1.61.82-2.58h-1a0.53,0.53,0,0,1,0-1.05h1.27a24.45,24.45,0,0,0,.42-2.58A0.89,0.89,0,0,1,1024.18,381Zm4.94,7.28q0.18-1,.32-2.26l0.06-.5h-5.9q-0.31,1.27-.7,2.58,0,0.18.23,0.18h6Zm-5.27-3.81h5.77q0.13-1.14.19-2.18a0.28,0.28,0,0,0-.35-0.28h-4.75a0.41,0.41,0,0,0-.47.41Q1024.08,383.39,1023.85,384.44Zm1.8,1.39a0.81,0.81,0,0,1,.35.12l0.53,0.44a3.6,3.6,0,0,1,.7.69,0.54,0.54,0,0,1,.18.29,0.41,0.41,0,0,1-.47.45,0.8,0.8,0,0,1-.48-0.16,5.36,5.36,0,0,0-.62-0.59l-0.48-.35a0.65,0.65,0,0,1-.19-0.41A0.43,0.43,0,0,1,1025.65,385.83Zm0.59-3.5a0.81,0.81,0,0,1,.35.12q0.31,0.16.56,0.32a7.88,7.88,0,0,1,.73.54,0.59,0.59,0,0,1,.18.31,0.41,0.41,0,0,1-.47.45,0.8,0.8,0,0,1-.48-0.16,7.66,7.66,0,0,0-.66-0.44,5,5,0,0,0-.51-0.26,0.65,0.65,0,0,1-.18-0.42A0.41,0.41,0,0,1,1026.23,382.33Z" transform="translate(-360 -258.5)" style="fill:#704848"/><path d="M1036.34,378.58h1.89a0.67,0.67,0,0,1,.81.7s-0.3.65-.89,1.82h0.73a0.83,0.83,0,0,1,1,.88v4.45a0.86,0.86,0,0,1-1,.94h-3.47a0.82,0.82,0,0,1-.92-0.94V382a1.35,1.35,0,0,1,.06-0.42,0.52,0.52,0,0,1-.23.06,0.39,0.39,0,0,1-.47-0.4,0.72,0.72,0,0,1,.1-0.37,14.29,14.29,0,0,0,1.66-2.93,0.37,0.37,0,0,1,.34-0.23,0.45,0.45,0,0,1,.53.48A0.94,0.94,0,0,1,1036.34,378.58Zm-1.33,9.3a0.44,0.44,0,0,1,.47.53,5.13,5.13,0,0,1-.53,2.3,0.53,0.53,0,0,1-.59.47,0.37,0.37,0,0,1-.42-0.41,0.65,0.65,0,0,1,.12-0.37,4.69,4.69,0,0,0,.53-2.09A0.38,0.38,0,0,1,1035,387.88Zm0.4-6.78h1.7q0.82-1.44.82-1.48t-0.28-.16h-1.76a15.42,15.42,0,0,1-1,1.74A1.18,1.18,0,0,1,1035.41,381.1Zm0.07,2.64h1.23V382h-1.05a0.18,0.18,0,0,0-.18.22v1.54Zm1.23,2.74V384.6h-1.23v1.6q0,0.28.18,0.28h1.05Zm-0.35,1.41a0.43,0.43,0,0,1,.41.25q0.12,0.63.25,2.05,0,0.29,0,.41a0.39,0.39,0,0,1-.47.4,0.37,0.37,0,0,1-.4-0.4q-0.09-1.26-.22-2.17l0-.18A0.35,0.35,0,0,1,1036.36,387.88Zm1.57-.06a0.45,0.45,0,0,1,.37.25,17.5,17.5,0,0,1,.47,1.88,0.78,0.78,0,0,1,.06.29,0.42,0.42,0,0,1-.53.41,0.41,0.41,0,0,1-.37-0.31,16.31,16.31,0,0,0-.4-1.87,0.57,0.57,0,0,1-.06-0.22A0.39,0.39,0,0,1,1037.93,387.83Zm-0.28-5.84v1.76h1.23V382.2a0.2,0.2,0,0,0-.23-0.22h-1Zm1,4.5a0.23,0.23,0,0,0,.23-0.28v-1.6h-1.23v1.88h1Zm0.82,1.25a0.44,0.44,0,0,1,.34.23,8.34,8.34,0,0,1,.66,1.64,0.78,0.78,0,0,1,.06.29q0,0.4-.53.4a0.39,0.39,0,0,1-.37-0.28,7.76,7.76,0,0,0-.59-1.66,0.57,0.57,0,0,1-.06-0.22A0.4,0.4,0,0,1,1039.46,387.72Zm7.44-7.4a0.41,0.41,0,0,1,.47.47,0.45,0.45,0,0,1-.47.54h-2.46v2.29h2.21a0.41,0.41,0,0,1,.48.45,0.43,0.43,0,0,1-.48.48h-2.21v2.62H1047a0.42,0.42,0,0,1,.47.48,0.44,0.44,0,0,1-.47.53h-2.58v2.58a0.47,0.47,0,0,1-.53.53,0.47,0.47,0,0,1-.54-0.53v-2.58h-2.8a0.44,0.44,0,0,1-.47-0.53,0.42,0.42,0,0,1,.47-0.48h2.8v-2.62h-2.27a0.42,0.42,0,0,1-.47-0.48,0.41,0.41,0,0,1,.47-0.45h2.27v-2.29h-2.46a0.44,0.44,0,0,1-.45-0.54,0.41,0.41,0,0,1,.45-0.47h6Zm-5.1-2.52a0.39,0.39,0,0,1,.28.19,7.33,7.33,0,0,1,1,1.23,0.73,0.73,0,0,1,.12.34,0.45,0.45,0,0,1-.53.48,0.47,0.47,0,0,1-.29-0.12,16.15,16.15,0,0,0-1-1.29,0.82,0.82,0,0,1-.12-0.31A0.49,0.49,0,0,1,1041.81,377.81Zm3.93-.12a0.77,0.77,0,0,1,.41.12,0.41,0.41,0,0,1,.18.31,0.84,0.84,0,0,1-.06.28,7.85,7.85,0,0,1-.7,1.41,0.53,0.53,0,0,1-.41.25q-0.59,0-.59-0.42a0.6,0.6,0,0,1,0-.28,9.16,9.16,0,0,0,.7-1.42A0.41,0.41,0,0,1,1045.73,377.69Z" transform="translate(-360 -258.5)" style="fill:#704848"/><path d="M1056,386.73a0.41,0.41,0,0,1,.48.45,0.43,0.43,0,0,1-.48.48h-2.26l1.82,1.93a0.57,0.57,0,0,1,.16.35,0.47,0.47,0,0,1-.53.53,0.5,0.5,0,0,1-.45-0.23l-1.44-1.92v0a4.11,4.11,0,0,1-1,1.52,6.48,6.48,0,0,1-1.89,1.26,1.27,1.27,0,0,1-.31.1,0.49,0.49,0,0,1-.53-0.59,0.44,0.44,0,0,1,.28-0.47,5.67,5.67,0,0,0,1.7-1.08,3,3,0,0,0,.79-1.14,2,2,0,0,1,.1-0.29h-2.07a0.42,0.42,0,0,1-.47-0.48,0.41,0.41,0,0,1,.47-0.45h2.18v-1.3a0.43,0.43,0,0,1,.45-0.51,0.46,0.46,0,0,1,.53.51v1.3H1056Zm-0.22-6.21a0.41,0.41,0,0,1,.47.45,0.41,0.41,0,0,1-.47.47H1054l1.89,1.79a0.53,0.53,0,0,1,.18.32,0.41,0.41,0,0,1-.47.47,0.62,0.62,0,0,1-.5-0.21l-1.44-1.6v1.92a0.43,0.43,0,0,1-.51.47,0.41,0.41,0,0,1-.47-0.47v-1.49l-0.09.1a9.57,9.57,0,0,1-1,1.16,4.9,4.9,0,0,1-.89.82,0.56,0.56,0,0,1-.42.19,0.39,0.39,0,0,1-.47-0.41,0.76,0.76,0,0,1,.12-0.37,12.13,12.13,0,0,0,1.88-1.79,7,7,0,0,0,.6-0.91h-2a0.41,0.41,0,0,1-.47-0.47,0.41,0.41,0,0,1,.47-0.45h2.24v-2.4a0.42,0.42,0,0,1,.47-0.48,0.44,0.44,0,0,1,.51.48v2.4h2.18Zm-5.1-2.4a0.4,0.4,0,0,1,.28.16,8.91,8.91,0,0,1,.89,1.13,0.84,0.84,0,0,1,.06.28,0.4,0.4,0,0,1-.47.42,0.52,0.52,0,0,1-.23-0.06,12.17,12.17,0,0,0-1-1.17,0.79,0.79,0,0,1-.1-0.29A0.44,0.44,0,0,1,1050.7,378.11Zm4.85-.06a0.41,0.41,0,0,1,.47.45,0.87,0.87,0,0,1-.22.53,7,7,0,0,1-.76.89,0.53,0.53,0,0,1-.31.12,0.4,0.4,0,0,1-.47-0.42,0.43,0.43,0,0,1,.13-0.28,5.86,5.86,0,0,0,.82-1.07A0.37,0.37,0,0,1,1055.55,378.05Zm-0.82,6.39a0.43,0.43,0,0,1,.25.12,9.29,9.29,0,0,1,.64,1.17,0.84,0.84,0,0,1,.06.28,0.34,0.34,0,0,1-.41.37,0.52,0.52,0,0,1-.23-0.06q-0.31-.62-0.64-1.17a0.68,0.68,0,0,1-.13-0.29A0.39,0.39,0,0,1,1054.73,384.44Zm7.92-6.21a0.41,0.41,0,0,1,.47.47,0.41,0.41,0,0,1-.47.45h-2.18l-0.35,1.36H1062a0.7,0.7,0,0,1,.82.76v6.49a0.73,0.73,0,0,1-.82.83h-0.72a9.11,9.11,0,0,0,1.76,1.58,0.45,0.45,0,0,1,.37.41,0.52,0.52,0,0,1-.59.59,4.53,4.53,0,0,1-1.16-.83,7.8,7.8,0,0,1-1-1.1,0.74,0.74,0,0,1-.25-0.41,0.53,0.53,0,0,1,0-.23H1059a0.56,0.56,0,0,1,.1.35,0.48,0.48,0,0,1-.23.41,7.56,7.56,0,0,1-2.14,1.8,0.73,0.73,0,0,1-.21.07,0.47,0.47,0,0,1-.54-0.53,0.49,0.49,0,0,1,.25-0.42,7.42,7.42,0,0,0,2-1.68h-0.41a0.73,0.73,0,0,1-.82-0.83v-6.49a0.7,0.7,0,0,1,.82-0.76h1.33l0.35-1.36h-2.56a0.41,0.41,0,0,1-.47-0.45,0.41,0.41,0,0,1,.47-0.47h5.74Zm-4.76,4.61h4v-1.1a0.31,0.31,0,0,0-.35-0.35h-3.28a0.32,0.32,0,0,0-.37.35v1.1Zm0,2.4h4v-1.51h-4v1.51Zm3.65,2.48a0.35,0.35,0,0,0,.35-0.42v-1.16h-4v1.16a0.35,0.35,0,0,0,.37.42h3.28Z" transform="translate(-360 -258.5)" style="fill:#704848"/><path d="M984.24,462.45a0.42,0.42,0,0,1,.48.47,0.43,0.43,0,0,1-.48.48h-2.8v0.4a0.47,0.47,0,0,1-.53.53h-0.13a0.71,0.71,0,0,1,.07.32v0.76h3a0.47,0.47,0,0,1,0,.94h-3.74l-1.46,2.07q2.12-.09,3.91-0.31l-0.41-.47a0.68,0.68,0,0,1-.18-0.41,0.42,0.42,0,0,1,.47-0.48,0.81,0.81,0,0,1,.35.12q0.38,0.42.69,0.82a8.68,8.68,0,0,1,.89,1.3,0.64,0.64,0,0,1,.12.28,0.4,0.4,0,0,1-.41.48,1,1,0,0,1-.48-0.12q-0.25-.41-0.45-0.72h-0.06q-3.33.35-6.34,0.51a0.43,0.43,0,0,1-.45-0.51,0.42,0.42,0,0,1,.45-0.47h0.72l1.48-2.09h-1.95a0.47,0.47,0,1,1,0-.94h2.68v-0.76a0.47,0.47,0,0,1,.54-0.53h0.18a0.66,0.66,0,0,1-.07-0.32v-0.4h-5.32v0.4a0.53,0.53,0,0,1-1.05,0v-0.4h-2.75a0.42,0.42,0,0,1-.47-0.48,0.41,0.41,0,0,1,.47-0.47H974V462a0.53,0.53,0,1,1,1.05,0v0.45h5.32V462a0.47,0.47,0,0,1,.54-0.53,0.47,0.47,0,0,1,.53.53v0.45h2.8Zm-10.28,5,0.09-.07a2.79,2.79,0,0,0,.51-0.5,3.87,3.87,0,0,0,.41-0.63,0.94,0.94,0,0,0,.15-0.32q0-.12-0.19-0.12H972a0.45,0.45,0,0,1-.48-0.53,0.43,0.43,0,0,1,.48-0.48h3.75a0.58,0.58,0,0,1,.7.6,1.6,1.6,0,0,1-.16.62,7,7,0,0,1-.76,1.19,5.5,5.5,0,0,1-1,1.05v1.17h1.05a0.41,0.41,0,0,1,.45.47,0.41,0.41,0,0,1-.45.48h-1.05v2.34l1-.47,0.19-.06a0.49,0.49,0,0,1,.53.59,0.51,0.51,0,0,1-.28.35,11.24,11.24,0,0,1-1.76.88,17.47,17.47,0,0,1-2.55.86,1.16,1.16,0,0,1-.34.06,0.47,0.47,0,0,1-.53-0.53,0.54,0.54,0,0,1,.4-0.57l0.47-.13v-5.62a0.41,0.41,0,0,1,.48-0.45,0.44,0.44,0,0,1,.53.45v5.36l0.62-.21,0.25-.1v-5.21A0.41,0.41,0,0,1,974,467.45Zm4.07,2.45a0.45,0.45,0,0,1,.53.48,7.37,7.37,0,0,1-.73,3,6.19,6.19,0,0,1-1.48,1.79,0.79,0.79,0,0,1-.42.12,0.44,0.44,0,0,1-.47-0.53,0.43,0.43,0,0,1,.19-0.29,5.26,5.26,0,0,0,2-4.22A0.35,0.35,0,0,1,978,469.89ZM980.1,470a0.45,0.45,0,0,1,.53.48v4.39a0.44,0.44,0,0,1-.53.47,0.41,0.41,0,0,1-.47-0.47v-4.39A0.42,0.42,0,0,1,980.1,470Zm2.15-.06a0.45,0.45,0,0,1,.54.48v3.33q0,0.48.35,0.48a0.42,0.42,0,0,0,.42-0.5l0-.91a0.45,0.45,0,0,1,.48-0.47,0.49,0.49,0,0,1,.53.53q0,1.77-.35,2a1.49,1.49,0,0,1-1.11.32,1.58,1.58,0,0,1-1.08-.26,0.9,0.9,0,0,1-.28-0.73v-3.81A0.42,0.42,0,0,1,982.25,469.89Z" transform="translate(-360 -258.5)" style="fill:#704848"/><path d="M999.93,462.88a0.42,0.42,0,0,1,.48.47,0.45,0.45,0,0,1-.48.53h-3.56v0.51a0.53,0.53,0,0,1-1.05,0v-0.51h-4.17v0.51a0.47,0.47,0,0,1-.53.53,0.46,0.46,0,0,1-.51-0.53v-0.51H987a0.44,0.44,0,0,1-.47-0.53,0.41,0.41,0,0,1,.47-0.47h3.11v-0.76a0.46,0.46,0,0,1,.51-0.53,0.47,0.47,0,0,1,.53.53v0.76h4.17v-0.76a0.53,0.53,0,1,1,1.05,0v0.76h3.56Zm-0.1,7.38a0.41,0.41,0,0,1,.47.47,0.43,0.43,0,0,1-.47.51h-5.57a14.21,14.21,0,0,0,2.83,1.73,15.71,15.71,0,0,0,2.8,1,0.46,0.46,0,0,1,.41.45,0.53,0.53,0,0,1-.53.59,4,4,0,0,1-.79-0.18,15.51,15.51,0,0,1-4.89-2.5v2.62a0.5,0.5,0,0,1-.59.54,0.48,0.48,0,0,1-.54-0.54v-2.68a13,13,0,0,1-2.49,1.58,19.87,19.87,0,0,1-2.53,1,1.89,1.89,0,0,1-.6.16,0.53,0.53,0,0,1-.53-0.59,0.48,0.48,0,0,1,.42-0.45,22.73,22.73,0,0,0,3.22-1.25,14.67,14.67,0,0,0,2.24-1.46h-5.36a0.43,0.43,0,0,1-.47-0.51,0.41,0.41,0,0,1,.47-0.47H993v-0.53a0.47,0.47,0,0,1,.54-0.53,0.49,0.49,0,0,1,.59.53v0.53h5.74Zm-0.94-5.46a0.5,0.5,0,0,1,.51.6,0.48,0.48,0,0,1-.34.41q-2.24.4-4.89,0.69l-0.45,0a7.71,7.71,0,0,1,.63,1.57,1.47,1.47,0,0,1,.07.35,0.43,0.43,0,0,1-.51.47,0.46,0.46,0,0,1-.53-0.47,7.9,7.9,0,0,0-.69-1.83q-2.4.18-4.6,0.23a0.55,0.55,0,0,1-.64-0.59,0.42,0.42,0,0,1,.47-0.45q2.33-.1,4.72-0.28Q995.67,465.32,998.89,464.79Zm-10.21,2.3a0.46,0.46,0,0,1,.37.22,6.81,6.81,0,0,1,.86,1.66,1.06,1.06,0,0,1,.06.34,0.48,0.48,0,0,1-.59.48,0.44,0.44,0,0,1-.4-0.37,8,8,0,0,0-.7-1.63,0.54,0.54,0,0,1-.13-0.31Q988.16,467.09,988.68,467.09Zm9.92-.83a0.72,0.72,0,0,1,.45.15,0.41,0.41,0,0,1,.19.32,1,1,0,0,1-.06.31,11.59,11.59,0,0,1-1.71,2.21,0.49,0.49,0,0,1-.4.25q-0.59,0-.59-0.41a0.64,0.64,0,0,1,.06-0.31,13.69,13.69,0,0,0,1.63-2.21A0.43,0.43,0,0,1,998.6,466.26Z" transform="translate(-360 -258.5)" style="fill:#704848"/><path d="M1011.1,469.86a0.52,0.52,0,0,1,.09.29,0.44,0.44,0,0,1-.16.34,0.57,0.57,0,0,1-.4.15,0.45,0.45,0,0,1-.4-0.23,11.09,11.09,0,0,0-1.27-1.63,14.43,14.43,0,0,0-1.57-1.52,0.53,0.53,0,0,1-.21-0.41,0.49,0.49,0,0,1,.16-0.35,0.5,0.5,0,0,1,.37-0.15,0.55,0.55,0,0,1,.32.1,18,18,0,0,1,1.67,1.64A12.91,12.91,0,0,1,1011.1,469.86Z" transform="translate(-360 -258.5)" style="fill:#704848"/><path d="M1023.6,462.23a0.41,0.41,0,0,1,.45.47,0.44,0.44,0,0,1-.45.53h-1.7v2.33h2a0.43,0.43,0,0,1,.48.48,0.45,0.45,0,0,1-.48.53h-2V469h1.27a0.7,0.7,0,0,1,.82.76v4.34a0.72,0.72,0,0,1-.82.81h-3.57a0.72,0.72,0,0,1-.82-0.81v-4.34a0.7,0.7,0,0,1,.82-0.76h1.23v-2.46h-2.09a0.45,0.45,0,0,1-.48-0.53,0.43,0.43,0,0,1,.48-0.48h2.09v-2.33H1019a0.44,0.44,0,0,1-.45-0.53,0.41,0.41,0,0,1,.45-0.47h4.58Zm-1.05,11.72a0.39,0.39,0,0,0,.41-0.47v-3a0.37,0.37,0,0,0-.41-0.42h-2.3a0.36,0.36,0,0,0-.4.42v3a0.39,0.39,0,0,0,.4.47h2.3Zm8.89-10a0.42,0.42,0,0,1,.48.47,0.44,0.44,0,0,1-.48.51h-0.59v9.21a0.76,0.76,0,0,1-.86.86h-4a0.78,0.78,0,0,1-.89-0.86V465h-0.81a0.44,0.44,0,0,1-.48-0.51,0.42,0.42,0,0,1,.48-0.47h0.81v-1.76a0.48,0.48,0,0,1,.54-0.54,0.47,0.47,0,0,1,.53.54V464h3.63v-1.76a0.47,0.47,0,0,1,.53-0.54,0.47,0.47,0,0,1,.51.54V464h0.59Zm-5.26,1v3.88h3.63V465h-3.63Zm3.63,4.86h-3.63v3.76a0.39,0.39,0,0,0,.41.47h2.81a0.39,0.39,0,0,0,.41-0.47v-3.76Z" transform="translate(-360 -258.5)" style="fill:#704848"/><path d="M1046.79,462.23a0.46,0.46,0,0,1,.51.53,0.49,0.49,0,0,1-.51.59h-4.7a1,1,0,0,1-.1.28,18.9,18.9,0,0,1-1.39,2.53h0.1a0.48,0.48,0,0,1,.59.48v8.14a0.6,0.6,0,0,1-1.17,0v-7.92q-0.48.63-1,1.2a16.36,16.36,0,0,1-4.17,3.3,1.24,1.24,0,0,1-.5.15,0.52,0.52,0,0,1-.59-0.59,0.55,0.55,0,0,1,.34-0.47,15.8,15.8,0,0,0,4.5-3.56,17.65,17.65,0,0,0,2.23-3.53h-6.2a0.49,0.49,0,0,1-.53-0.59,0.47,0.47,0,0,1,.53-0.53h12.08Zm-4.45,3.91a0.93,0.93,0,0,1,.4.12q1.11,0.94,2,1.82a17.59,17.59,0,0,1,2.56,2.89,0.63,0.63,0,0,1,.19.34,0.49,0.49,0,0,1-.53.59,0.87,0.87,0,0,1-.53-0.16q-1.48-1.82-2.5-2.84t-1.95-1.79a0.69,0.69,0,0,1-.18-0.42A0.47,0.47,0,0,1,1042.34,466.14Z" transform="translate(-360 -258.5)" style="fill:#704848"/><path d="M1055,467.8a0.41,0.41,0,0,1,.45.47,0.43,0.43,0,0,1-.45.51h-1.87a13,13,0,0,1-.15,2q0.72-.16,1.25-0.32a0.69,0.69,0,0,1,.25-0.06,0.42,0.42,0,0,1,.47.41,0.57,0.57,0,0,1-.35.51,11.26,11.26,0,0,1-1.8.54,8.07,8.07,0,0,1-1.79,3.28,0.5,0.5,0,0,1-.4.23,0.47,0.47,0,0,1-.53-0.53,1,1,0,0,1,.12-0.29,7.61,7.61,0,0,0,1.41-2.43l-1.3.21a0.52,0.52,0,0,1-.47-0.59,0.48,0.48,0,0,1,.41-0.54q1-.09,1.64-0.21a14.48,14.48,0,0,0,.19-2.2h-2a0.44,0.44,0,0,1-.48-0.51,0.42,0.42,0,0,1,.48-0.47H1055Zm-2.4-6.27a0.49,0.49,0,0,1,.59.53v1h1.57a0.42,0.42,0,0,1,.48.47,0.45,0.45,0,0,1-.48.54h-4.39a0.45,0.45,0,0,1-.47-0.54,0.41,0.41,0,0,1,.47-0.47h1.71v-1A0.47,0.47,0,0,1,1052.64,461.53Zm-1.6,2.93a0.45,0.45,0,0,1,.37.23,14.25,14.25,0,0,1,.64,2,1.24,1.24,0,0,1,.06.37q0,0.4-.59.4a0.42,0.42,0,0,1-.37-0.34,11.62,11.62,0,0,0-.51-1.93,0.6,0.6,0,0,1-.13-0.31Q1050.51,464.46,1051,464.46Zm3.47,0a0.7,0.7,0,0,1,.4.12,0.33,0.33,0,0,1,.19.28,0.69,0.69,0,0,1-.06.25,13.31,13.31,0,0,1-.89,2.17,0.44,0.44,0,0,1-.34.16q-0.53,0-.53-0.4a0.37,0.37,0,0,1,.06-0.25,16.73,16.73,0,0,0,.81-2.09A0.35,0.35,0,0,1,1054.51,464.46Zm8.32-1.42a0.42,0.42,0,0,1,.47.48,0.44,0.44,0,0,1-.47.53h-2.94v1.39h2a0.81,0.81,0,0,1,.94.89v2.58a0.82,0.82,0,0,1-.94.92H1060a8.61,8.61,0,0,0,1.35,1.83,17.17,17.17,0,0,0,1.86,1.7,0.76,0.76,0,0,1,.4.64,0.61,0.61,0,0,1-.18.38,0.79,0.79,0,0,1-.47.15,0.68,0.68,0,0,1-.34-0.13,11.65,11.65,0,0,1-1.68-1.76,12.35,12.35,0,0,1-1-1.44v3.62a0.46,0.46,0,0,1-.51.53,0.47,0.47,0,0,1-.53-0.53v-3.54q-0.45.62-.86,1.1a12.68,12.68,0,0,1-1.76,1.64,1.73,1.73,0,0,1-.91.51,0.47,0.47,0,0,1-.59-0.47,0.71,0.71,0,0,1,.31-0.59,17.17,17.17,0,0,0,2.81-2.39,7.84,7.84,0,0,0,1-1.26H1057a0.83,0.83,0,0,1-1-.92v-2.58a0.82,0.82,0,0,1,1-.89h1.88V464h-2.77a0.44,0.44,0,0,1-.45-0.53,0.41,0.41,0,0,1,.45-0.48h2.77v-0.92a0.47,0.47,0,0,1,.53-0.53,0.46,0.46,0,0,1,.51.53V463h2.94Zm-4,5.82v-2.4h-1.48a0.25,0.25,0,0,0-.28.28v1.77a0.28,0.28,0,0,0,.28.35h1.48Zm2.64,0a0.28,0.28,0,0,0,.28-0.35v-1.77a0.25,0.25,0,0,0-.28-0.28h-1.6v2.4h1.6Z" transform="translate(-360 -258.5)" style="fill:#704848"/><path d="M858.28,486H860q0-.62,0-1.23a0.47,0.47,0,0,1,.53-0.54,0.5,0.5,0,0,1,.59.54q0,0.62,0,1.23h2.12a1,1,0,0,1,1.11,1.05,72.39,72.39,0,0,1-.31,7.57,4.83,4.83,0,0,1-.72,2.48,1.88,1.88,0,0,1-1.55.67,5.09,5.09,0,0,1-1.48-.31,0.55,0.55,0,0,1-.4-0.59,0.49,0.49,0,0,1,.51-0.59,6.13,6.13,0,0,0,1.36.31,0.87,0.87,0,0,0,.85-0.51,6.26,6.26,0,0,0,.4-1.85q0.22-1.86.22-6.8a0.36,0.36,0,0,0-.42-0.4H861q-0.09,2-.35,3.9a19.8,19.8,0,0,1-2.29,6.58,0.57,0.57,0,0,1-.47.25,0.51,0.51,0,0,1-.57-0.59,1.81,1.81,0,0,1,.12-0.37,18.67,18.67,0,0,0,2.11-6.23,33.52,33.52,0,0,0,.35-3.54h-1.66A0.53,0.53,0,0,1,858.28,486Zm8.1-.7H870a0.87,0.87,0,0,1,1,1v10.27a0.87,0.87,0,0,1-1,1h-3.63a0.88,0.88,0,0,1-1-1V486.24A0.88,0.88,0,0,1,866.38,485.26Zm3.22,11.19a0.31,0.31,0,0,0,.35-0.35v-9.45a0.31,0.31,0,0,0-.35-0.35h-2.81a0.31,0.31,0,0,0-.35.35v9.45a0.31,0.31,0,0,0,.35.35h2.81Z" transform="translate(-360 -258.5)" style="fill:#704848"/><path d="M886.4,488.83a0.46,0.46,0,0,1,.53.51,0.47,0.47,0,0,1-.53.53h-11a0.26,0.26,0,0,0-.28.31v1.68a14.7,14.7,0,0,1-.31,3.3,8.12,8.12,0,0,1-.59,2,0.48,0.48,0,0,1-.45.34,0.52,0.52,0,0,1-.59-0.51,1.74,1.74,0,0,1,.15-0.48q0.1-.28.21-0.63,0.16-.59.29-1.19a16.94,16.94,0,0,0,.22-2.81v-2a0.93,0.93,0,0,1,1.07-1H886.4Zm-6.27-4.7a0.47,0.47,0,0,1,.53.54v1.88h3.93a0.34,0.34,0,0,0,.34-0.42v-1a0.47,0.47,0,0,1,.53-0.53,0.47,0.47,0,0,1,.54.53v1.46a0.87,0.87,0,0,1-1,1h-9.68a0.87,0.87,0,0,1-1-1v-1.46a0.46,0.46,0,0,1,.51-0.53,0.47,0.47,0,0,1,.53.53v1a0.35,0.35,0,0,0,.37.42h3.87v-1.87A0.47,0.47,0,0,1,880.13,484.13Zm0.7,6.23a0.52,0.52,0,0,1,.59.59v1.7a2.76,2.76,0,0,0,.29,1.3,3.62,3.62,0,0,0,1.11,1.17,7.58,7.58,0,0,0,2.12,1,7.88,7.88,0,0,0,2,.44,0.53,0.53,0,0,1,.34.53q0,0.67-.47.7a1.68,1.68,0,0,1-.4-0.06,13.31,13.31,0,0,1-3.47-1.11,5.12,5.12,0,0,1-1.49-1.16,2.32,2.32,0,0,1-.6-1.14,3,3,0,0,1-.51,1.14,5.4,5.4,0,0,1-1.25,1.1,11,11,0,0,1-2.81,1.17,1.35,1.35,0,0,1-.37.06,0.61,0.61,0,0,1-.59-0.7,0.54,0.54,0,0,1,.42-0.53,9.51,9.51,0,0,0,1.61-.44,5.79,5.79,0,0,0,1.71-1,3.6,3.6,0,0,0,.92-1.17,3,3,0,0,0,.26-1.3v-1.7A0.52,0.52,0,0,1,880.84,490.36Zm-3,.75a0.48,0.48,0,0,1,.54.54,1.24,1.24,0,0,1-.23.64,10.35,10.35,0,0,1-1.23,1.82,0.7,0.7,0,0,1-.37.12,0.45,0.45,0,0,1-.53-0.48,0.61,0.61,0,0,1,.12-0.34,9.39,9.39,0,0,0,1.29-2A0.47,0.47,0,0,1,877.83,491.1Zm7.34,0a0.47,0.47,0,0,1,.53.54,1.2,1.2,0,0,1-.25.64,10.49,10.49,0,0,1-1.45,2,0.85,0.85,0,0,1-.42.12,0.44,0.44,0,0,1-.53-0.45,0.71,0.71,0,0,1,.13-0.41,11.15,11.15,0,0,0,1.57-2.11A0.46,0.46,0,0,1,885.17,491.1Z" transform="translate(-360 -258.5)" style="fill:#704848"/><path d="M435.69,484.42a0.6,0.6,0,0,1,.4.15,0.49,0.49,0,0,1,.19.38,1,1,0,0,1-.06.31q-0.19.78-.4,1.45h3.25v-2.15a0.47,0.47,0,0,1,.53-0.53,0.5,0.5,0,0,1,.6.53v2.15h5a0.47,0.47,0,0,1,.53.54,0.47,0.47,0,0,1-.53.53h-5v3.5h4.5a0.53,0.53,0,1,1,0,1.05h-4.5v3.87h5.57a0.47,0.47,0,0,1,.53.54,0.47,0.47,0,0,1-.53.53H433.39a0.47,0.47,0,0,1-.53-0.53,0.47,0.47,0,0,1,.53-0.54h5.68v-3.87h-4.39a0.53,0.53,0,0,1,0-1.05h4.39v-3.5h-3.6l-0.19.4a13.3,13.3,0,0,1-1.19,2.18,0.77,0.77,0,0,1-.4.22,0.49,0.49,0,0,1-.59-0.53,0.38,0.38,0,0,1,.12-0.28,13.29,13.29,0,0,0,1.14-2.12,13.63,13.63,0,0,0,.89-2.87A0.41,0.41,0,0,1,435.69,484.42Z" transform="translate(-360 -258.5)" style="fill:#704848"/><path d="M455.25,484.13a0.52,0.52,0,0,1,.59.6v4.56a6.42,6.42,0,0,0,.44,2.43,6.33,6.33,0,0,0,1.3,2.08,10.31,10.31,0,0,0,2.11,1.63,19.29,19.29,0,0,0,2.36,1.08,0.65,0.65,0,0,1,.34.59,0.58,0.58,0,0,1-.59.64,1.41,1.41,0,0,1-.51-0.12,12.9,12.9,0,0,1-3-1.61,10,10,0,0,1-2-1.85,7.14,7.14,0,0,1-1.1-2.36,6.32,6.32,0,0,1-1.3,2.62,10.76,10.76,0,0,1-2.43,2,18.18,18.18,0,0,1-2.18,1.08,1,1,0,0,1-.47.19,0.6,0.6,0,0,1-.64-0.64,0.71,0.71,0,0,1,.28-0.59,13.63,13.63,0,0,0,3.47-1.76,6.79,6.79,0,0,0,2-2.42,6.33,6.33,0,0,0,.67-3v-4.56A0.52,0.52,0,0,1,455.25,484.13Zm-3.34,2.42a0.85,0.85,0,0,1,.48.15,0.47,0.47,0,0,1,.22.38,0.84,0.84,0,0,1-.06.28,25.93,25.93,0,0,1-1.76,4.12,0.62,0.62,0,0,1-.48.23q-0.64,0-.64-0.48a0.47,0.47,0,0,1,.06-0.28,29.91,29.91,0,0,0,1.71-4.12A0.44,0.44,0,0,1,451.91,486.55Zm8.48,0.16a0.78,0.78,0,0,1,.5.16,0.47,0.47,0,0,1,.21.38,0.84,0.84,0,0,1-.06.28,23.43,23.43,0,0,1-2,4.12,0.59,0.59,0,0,1-.48.28q-0.69,0-.69-0.51a0.39,0.39,0,0,1,.1-0.31,26.24,26.24,0,0,0,2-4.09A0.47,0.47,0,0,1,460.39,486.71Z" transform="translate(-360 -258.5)" style="fill:#704848"/><polyline points="28 236 24 228 20 236" style="fill:none;stroke:#704848;stroke-miterlimit:10"/><line x1="24" y1="228" x2="24" y2="276" style="fill:none;stroke:#704848;stroke-miterlimit:10"/><path d="M444,528.27h2a0.87,0.87,0,0,1,1,1v10.31a0.89,0.89,0,0,1-1,1h-2a0.88,0.88,0,0,1-1-1V529.23A0.86,0.86,0,0,1,444,528.27Zm0.06,5.27H446v-4a0.25,0.25,0,0,0-.28-0.28h-1.29a0.26,0.26,0,0,0-.31.28v4Zm1.6,6q0.28,0,.28-0.37V534.5H444.1v4.67a0.3,0.3,0,0,0,.31.37h1.29Zm9.9-10.25a0.4,0.4,0,0,1,.45.45,0.44,0.44,0,0,1-.45.53h-3.24v1.6h3.81a0.41,0.41,0,0,1,.47.47,0.43,0.43,0,0,1-.47.51H448a0.43,0.43,0,0,1-.45-0.51,0.41,0.41,0,0,1,.45-0.47h3.3v-1.6h-2.83a0.44,0.44,0,0,1-.47-0.53,0.41,0.41,0,0,1,.47-0.45h2.83v-1.17a0.46,0.46,0,0,1,.51-0.53,0.49,0.49,0,0,1,.59.53v1.17h3.24Zm0.45,5.16a0.42,0.42,0,0,1,.48.47,0.44,0.44,0,0,1-.48.51h-1.39v4.34a1.39,1.39,0,0,1-1.66,1.48,15.24,15.24,0,0,1-3-.41,0.54,0.54,0,0,1-.41-0.54,0.5,0.5,0,0,1,.47-0.59,3,3,0,0,1,.48.06,17.25,17.25,0,0,0,2.49.37,0.52,0.52,0,0,0,.53-0.64v-4.06H448.4a0.44,0.44,0,0,1-.48-0.51,0.42,0.42,0,0,1,.48-0.47h5.14v-1a0.47,0.47,0,0,1,.54-0.53,0.49,0.49,0,0,1,.59.53v1h1.39Zm-6.86,1.7a0.44,0.44,0,0,1,.31.18,12.31,12.31,0,0,1,1.63,1.64,0.69,0.69,0,0,1,.13.35,0.49,0.49,0,0,1-.59.53,0.49,0.49,0,0,1-.31-0.12,21.26,21.26,0,0,0-1.63-1.76,0.67,0.67,0,0,1-.13-0.31A0.49,0.49,0,0,1,449.2,536.14Z" transform="translate(-360 -258.5)" style="fill:#704848"/><path d="M460,533v8a0.42,0.42,0,0,1-.51.42,0.43,0.43,0,0,1-.53-0.42V529.29a1.22,1.22,0,0,1,1.41-1.36h3A1,1,0,0,1,464.5,529v2.89a1,1,0,0,1-1.11,1.11H460Zm2.65-4.06H460.5a0.42,0.42,0,0,0-.47.48V530h3.41v-0.82a0.27,0.27,0,0,0-.31-0.31h-0.45Zm0.76,2H460V532h3.11a0.3,0.3,0,0,0,.31-0.37v-0.7ZM462.55,534H468a1,1,0,0,1,1.17,1.13v3.27a1,1,0,0,1-1.17,1.13h-5.41a1,1,0,0,1-1.1-1.13v-3.27A1,1,0,0,1,462.55,534Zm-0.12,2.3h5.68v-1a0.3,0.3,0,0,0-.34-0.34h-5a0.29,0.29,0,0,0-.31.34v1Zm5.35,2.29a0.3,0.3,0,0,0,.34-0.35v-1.07h-5.68v1.07a0.29,0.29,0,0,0,.31.35h5Zm0.06-10.68h2.52a1.22,1.22,0,0,1,1.41,1.36v10.66a1.15,1.15,0,0,1-1.25,1.35,14,14,0,0,1-1.92-.18,0.54,0.54,0,0,1-.42-0.53,0.47,0.47,0,0,1,.42-0.53h0.31a13.81,13.81,0,0,0,1.51.16q0.29,0,.29-0.7V532.9h-3.4a1,1,0,0,1-1.13-1.1V529a1,1,0,0,1,1.13-1.05h0.53ZM467.25,530h3.46V529.4a0.42,0.42,0,0,0-.47-0.48H467.6a0.32,0.32,0,0,0-.35.37V530Zm3.46,1.88v-1h-3.46v0.59a0.35,0.35,0,0,0,.35.42h3.11Z" transform="translate(-360 -258.5)" style="fill:#704848"/><polyline points="64 280 72 276 64 272" style="fill:none;stroke:#704848;stroke-miterlimit:10"/><line x1="72" y1="276" x2="24" y2="276" style="fill:none;stroke:#704848;stroke-miterlimit:10"/><g style="clip-path:url(#clip-path)"><path d="M447.61,477.5c0-80.49,18.73-200,71.38-200,48,0,332.12,186.06,352.47,200" transform="translate(-360 -258.5)" style="fill:none;stroke:#ef3a50;stroke-linecap:square;stroke-miterlimit:10;stroke-width:6px"/><line x1="511.47" y1="219" x2="515.81" y2="221.96" style="fill:none;stroke:#ef3a50;stroke-linecap:square;stroke-miterlimit:10;stroke-width:6px"/></g></svg>