<svg id="圖層_1" data-name="圖層 1" xmlns="http://www.w3.org/2000/svg" viewBox="0 0 301.8 80"><title>word2</title><rect width="301.8" height="80" style="fill:none"/><g style="isolation:isolate"><g style="isolation:isolate"><path d="M138.15,4.25a8.79,8.79,0,0,1,3.94-.59,10.1,10.1,0,0,1,2.5.56,8.31,8.31,0,0,1,4.66,5.44,23.61,23.61,0,0,1,.38,11,11,11,0,0,1-2.25,4.88A8,8,0,0,1,140,28a6.92,6.92,0,0,1-4.87-2.84,12.37,12.37,0,0,1-2-5A21.73,21.73,0,0,1,134,8.5,7.86,7.86,0,0,1,138.15,4.25Zm2.84,3a4,4,0,0,0-3.31,2.88,20.71,20.71,0,0,0-.5,9.69q1.25,5.69,5.88,4.16a4,4,0,0,0,2-2.22A13.47,13.47,0,0,0,146,17a17.8,17.8,0,0,0-.75-6.56Q144,7,141,7.28Z" style="fill:#963b3b"/><path d="M157.65,4.19a11,11,0,0,1,4.75-.47,7.68,7.68,0,0,1,5,2.56,5.09,5.09,0,0,1,1.13,2.5,7.89,7.89,0,0,1-1.25,5.75A42.18,42.18,0,0,1,160,23q-0.78.78,0,.78H168a0.84,0.84,0,0,1,1,.94v1.94a0.84,0.84,0,0,1-.94,1H154.24a0.84,0.84,0,0,1-1-.94V25.06a2.51,2.51,0,0,1,.94-1.81q7.38-6.56,10-11.5a3.47,3.47,0,0,0-.09-3A2.54,2.54,0,0,0,162.4,7.5a5.59,5.59,0,0,0-2.72,0,2.77,2.77,0,0,0-1.94,2.91,0.92,0.92,0,0,1-.94,1.13h-2.31a0.83,0.83,0,0,1-.94-0.94,8.5,8.5,0,0,1,1.66-4.69A5.73,5.73,0,0,1,157.65,4.19Z" style="fill:#963b3b"/></g><g style="isolation:isolate"><path d="M15.8,45.51a0.73,0.73,0,0,1,.91-0.72h1.56q1,0,1,.66a0.65,0.65,0,0,0,.75.72h5.53a0.64,0.64,0,0,0,.78-0.66q0-.72.94-0.72h1.59q1,0,1,.66a0.65,0.65,0,0,0,.75.72h5.09a0.84,0.84,0,0,1,1,.94V48.3a0.84,0.84,0,0,1-.94,1H30.58q-0.78,0-.78.53t-0.94.59H27.27q-1,0-1-.53a0.6,0.6,0,0,0-.75-0.59H20q-0.78,0-.78.53t-0.94.59H16.77q-1,0-1-.53A0.6,0.6,0,0,0,15,49.26H10a0.84,0.84,0,0,1-1-.94V47.14a0.84,0.84,0,0,1,.94-1h5A0.64,0.64,0,0,0,15.8,45.51Zm-4.12,6.41a0.83,0.83,0,0,1,.91-1H33a0.84,0.84,0,0,1,1,.94V61a0.84,0.84,0,0,1-.94,1H25.2q-0.78,0-.78.56a0.6,0.6,0,0,0,.75.59H35.45a0.84,0.84,0,0,1,1,.94V70.8a3,3,0,0,1-2,2.69,8.2,8.2,0,0,1-3.81.22,1.37,1.37,0,0,1-1.28-1.19l-0.25-1q-0.16-.94.25-0.78t0.16-.53a1.06,1.06,0,0,0-1.22-.34,108,108,0,0,1-11.94,1.41,1.23,1.23,0,0,1-1.37-1L14.64,69.2q-0.37-1.12.72-1.19,2.34-.06,4.78-0.25a0.76,0.76,0,0,0,.75-0.87A0.71,0.71,0,0,0,20.14,66H14a0.68,0.68,0,0,0-.78.75v6a0.84,0.84,0,0,1-.94,1H10.73a0.84,0.84,0,0,1-1-.94V64a0.84,0.84,0,0,1,.94-1h9.41q0.78,0,.78-0.56a0.6,0.6,0,0,0-.75-0.59h-7.5a0.84,0.84,0,0,1-1-.94V51.92Zm9.22,2.59a0.64,0.64,0,0,0-.78-0.59H15.92q-0.78,0-.78.56a0.6,0.6,0,0,0,.75.59h4.22Q20.89,55.08,20.89,54.51Zm0,3.88a0.6,0.6,0,0,0-.75-0.59H15.92q-0.78,0-.78.56a0.6,0.6,0,0,0,.75.59h4.22Q20.89,59,20.89,58.39Zm9.66-3.87a0.6,0.6,0,0,0-.75-0.59H25.2q-0.78,0-.78.56a0.6,0.6,0,0,0,.75.59h4.59Q30.55,55.08,30.55,54.51Zm0,3.88a0.6,0.6,0,0,0-.75-0.59H25.2q-0.78,0-.78.56a0.6,0.6,0,0,0,.75.59h4.59Q30.55,59,30.55,58.39Zm-3.19,8Q27.92,66,27,66H25.2a0.65,0.65,0,0,0-.78.69q0,0.72.94,0.69l1.5-.12q0.81-.06.59-0.37T27.36,66.39Zm5.53,0.47A0.68,0.68,0,0,0,32.17,66H31.36q-0.78,0-.12,1A9.82,9.82,0,0,1,32,68.55a1.11,1.11,0,0,1-.5,1.56,2,2,0,0,1-.5.28q-0.88.5,0.09,0.63L32,71.08a0.89,0.89,0,0,0,.88-1.19v-3Z" style="fill:#963b3b"/><path d="M52.77,45.45q0-.66.91-0.66h1.66q1,0,1,.59A0.62,0.62,0,0,0,57,46H67.89a0.84,0.84,0,0,1,1,.94v1.19a0.84,0.84,0,0,1-.94,1H57.08q-0.78,0-.78.5T57,50.17h9a0.84,0.84,0,0,1,1,.94v4.81a0.84,0.84,0,0,1-.94,1h-9q-0.78,0-.78.44T57,57.83h9.22a0.84,0.84,0,0,1,1,.94v2.38a0.68,0.68,0,0,0,.75.78h0.44a0.84,0.84,0,0,1,1,.94v1.31a0.84,0.84,0,0,1-.94,1H68a0.68,0.68,0,0,0-.78.75V69.2a0.84,0.84,0,0,1-.94,1H64.77q-1,0-1-.44T63,69.26h-6a0.82,0.82,0,0,0-.81.94,6.05,6.05,0,0,1-.5,2.19A2.84,2.84,0,0,1,54,73.64a18.28,18.28,0,0,1-5.22-.06,1.27,1.27,0,0,1-1.16-1.06l-0.31-1.59q-0.19-.94.75-0.81a20.7,20.7,0,0,0,3.28.31,0.94,0.94,0,0,0,1.34-.78q0-.37-0.75-0.37H42.86a0.84,0.84,0,0,1-1-.94V67.17a0.84,0.84,0,0,1,.94-1H52q0.78,0,.78-0.5T52,65.14H41.48a0.84,0.84,0,0,1-1-.94V62.89a0.84,0.84,0,0,1,.94-1H52q0.78,0,.78-0.5T52,60.89H42.86a0.84,0.84,0,0,1-1-.94V58.8a0.84,0.84,0,0,1,.94-1H52q0.78,0,.78-0.44T52,56.89H43.27a0.84,0.84,0,0,1-1-.94V51.14a0.84,0.84,0,0,1,.94-1H52q0.78,0,.78-0.5T52,49.14H41.86a0.84,0.84,0,0,1-1-.94V47a0.84,0.84,0,0,1,.94-1H52Q52.77,46,52.77,45.45Zm0,8.16A0.57,0.57,0,0,0,52.08,53H46.55q-0.78,0-.78.5t0.75,0.56H52Q52.77,54.08,52.77,53.61Zm10.75,0A0.57,0.57,0,0,0,62.83,53H57.08q-0.78,0-.78.5T57,54.08h5.69Q63.52,54.08,63.52,53.61Zm0.28,7.84a0.58,0.58,0,0,0-.72-0.56h-6q-0.78,0-.78.5T57,61.92h6Q63.8,61.92,63.8,61.45Zm0,4.25A0.63,0.63,0,0,0,63,65.14h-6q-0.78,0-.78.5T57,66.2h6A0.67,0.67,0,0,0,63.83,65.7Z" style="fill:#963b3b"/><path d="M78.61,45.89q0.34-1.09,1.16-.81l1.63,0.5q1.19,0.34.88,1.28a42.58,42.58,0,0,1-2.37,5.41,2.34,2.34,0,0,0-.12,1V73a0.84,0.84,0,0,1-.94,1H77.17a0.84,0.84,0,0,1-1-.94V59.23q0-.78-0.78.28t-1.31.13l-0.94-1.81A1.62,1.62,0,0,1,73.39,56,38,38,0,0,0,78.61,45.89Zm4.59,1a0.84,0.84,0,0,1,.94-1H98.48a0.84,0.84,0,0,1,1,.94V64.14q0,0.78,1,.78a0.89,0.89,0,0,1,1.06.94v1.59a0.84,0.84,0,0,1-.94,1h-3q-1,0-.19.53a16.13,16.13,0,0,0,2.91,1.28,0.75,0.75,0,0,1,.47,1.25L99.89,73a1.08,1.08,0,0,1-1.47.63,19.81,19.81,0,0,1-4-2.41q-1.09-.88-0.37-1.66l0.41-.41q0.75-.78,0-0.78H88.8q-0.78,0-.06,1l0.19,0.28a0.94,0.94,0,0,1-.16,1.56,25,25,0,0,1-5,2.38A1.13,1.13,0,0,1,82.33,73a12.11,12.11,0,0,1-.66-1.25Q81,70.51,82,70.26A17.17,17.17,0,0,0,85.2,69Q86,68.42,85,68.42H82a0.84,0.84,0,0,1-1-.94V65.89a0.84,0.84,0,0,1,.94-1h0.44a0.68,0.68,0,0,0,.78-0.75V46.89ZM95.8,50.11a0.66,0.66,0,0,0-.72-0.69H87.61a0.63,0.63,0,0,0-.78.63,0.62,0.62,0,0,0,.75.66H95Q95.8,50.7,95.8,50.11Zm0,4.59A0.68,0.68,0,0,0,95,53.92H87.61a0.66,0.66,0,0,0-.78.72,0.68,0.68,0,0,0,.75.78H95A0.66,0.66,0,0,0,95.8,54.7Zm0,4.78a0.68,0.68,0,0,0-.72-0.81H87.61a0.77,0.77,0,1,0,0,1.53H95A0.66,0.66,0,0,0,95.8,59.48Zm0,4.72A0.68,0.68,0,0,0,95,63.42H87.61a0.66,0.66,0,0,0-.78.72,0.68,0.68,0,0,0,.75.78H95A0.66,0.66,0,0,0,95.8,64.2Z" style="fill:#963b3b"/><path d="M110,45.8a0.86,0.86,0,0,1,1.19-.72l1.53,0.44a0.9,0.9,0,0,1,.66,1.25,45.21,45.21,0,0,1-2.06,5.63,3.34,3.34,0,0,0-.41,1.47v15q0,1,.59.19,2.34-4.87,2.34-13.12,0-.78-0.56-0.78t-0.62-.94V53.3a0.84,0.84,0,0,1,.94-1h3.66a0.68,0.68,0,0,0,.78-0.75V50.8A0.68,0.68,0,0,0,117.3,50H115a0.84,0.84,0,0,1-1-.94V48a0.84,0.84,0,0,1,.94-1h2.28a0.68,0.68,0,0,0,.78-0.75V45.76a0.84,0.84,0,0,1,.94-1h1.59a0.84,0.84,0,0,1,1,.94V46.3a0.68,0.68,0,0,0,.75.78h2a0.68,0.68,0,0,0,.78-0.75V45.76a0.84,0.84,0,0,1,.94-1h1.63a0.84,0.84,0,0,1,1,.94V46.3a0.68,0.68,0,0,0,.75.78h2.28a0.84,0.84,0,0,1,1,.94v1a0.84,0.84,0,0,1-.94,1h-2.28a0.68,0.68,0,0,0-.78.75v0.78a0.68,0.68,0,0,0,.75.78h3.25a0.84,0.84,0,0,1,1,.94V54.2a0.84,0.84,0,0,1-.94,1H117.77a0.82,0.82,0,0,0-.81.94A65.91,65.91,0,0,1,116,66.26a18.84,18.84,0,0,1-2.37,6,1,1,0,0,1-1.66.25l-0.25-.22q-0.81-.66-0.81.31a0.89,0.89,0,0,1-.94,1.06h-1.34a0.84,0.84,0,0,1-1-.94V60.55q0.09-1.62-.91.16-0.59.84-1.19-.25l-0.66-1.25a2,2,0,0,1,0-2.09A43.76,43.76,0,0,0,110,45.8Zm7.56,11.59a0.83,0.83,0,0,1,.94-0.94h13.09a0.84,0.84,0,0,1,1,.94V70.58Q132,74,128.52,73.67a1.09,1.09,0,0,1-1.16-.94l-0.25-1.25q-0.13-.94.81-0.72,1.69,0.34,1.41-1.56a0.68,0.68,0,0,0-.75-0.78h-1.09a0.68,0.68,0,0,0-.78.75v3a0.84,0.84,0,0,1-.94,1h-1.37a0.84,0.84,0,0,1-1-.94v-3a0.68,0.68,0,0,0-.75-0.78h-1.09a0.68,0.68,0,0,0-.78.75V72.7a0.84,0.84,0,0,1-.94,1h-1.31a0.84,0.84,0,0,1-1-.94V57.39Zm5.84,2.88q0-1-.72-1h-1.12a0.75,0.75,0,0,0-.78.91,0.77,0.77,0,0,0,.75,1h1.09A0.75,0.75,0,0,0,123.42,60.26Zm0,4.56a0.76,0.76,0,0,0-.75-0.94h-1.09a0.73,0.73,0,0,0-.78.88,0.76,0.76,0,0,0,.75.94h1.09A0.73,0.73,0,0,0,123.42,64.83Zm1.63-14A0.68,0.68,0,0,0,124.3,50h-2a0.68,0.68,0,0,0-.78.75v0.78a0.68,0.68,0,0,0,.75.78h2a0.68,0.68,0,0,0,.78-0.75V50.8Zm4.28,9.47q0-1-.72-1h-1.12a0.75,0.75,0,0,0-.78.91,0.77,0.77,0,0,0,.75,1h1.09A0.75,0.75,0,0,0,129.33,60.26Zm0,4.56a0.76,0.76,0,0,0-.75-0.94h-1.09a0.73,0.73,0,0,0-.78.88,0.76,0.76,0,0,0,.75.94h1.09A0.73,0.73,0,0,0,129.33,64.83Z" style="fill:#963b3b"/><path d="M138,53.92a0.83,0.83,0,0,1,.88-1H149a0.84,0.84,0,0,1,1,.94v7.69a0.84,0.84,0,0,1-.94,1h-2.44a0.68,0.68,0,0,0-.78.75v6.63a8.41,8.41,0,0,0-.09,1.25,2.51,2.51,0,0,1-2,2.5,8.58,8.58,0,0,1-2.5.13,1.51,1.51,0,0,1-1.41-1.16l-0.12-.78a1.92,1.92,0,0,0-1.12-1.16l-1-.5a1.12,1.12,0,0,1-.72-1.56,27.82,27.82,0,0,0,1.38-3.94,0.92,0.92,0,0,1,1.41-.59,9.05,9.05,0,0,1,1.19.41,1,1,0,0,1,.66,1.38l-1.16,3.53q-0.28.69,0.78,0.88a2.1,2.1,0,0,0,1.06-.09A5.52,5.52,0,0,0,142.2,69V63.3a0.68,0.68,0,0,0-.75-0.78h-2.53a0.84,0.84,0,0,1-1-.94V53.92Zm4.25-8a0.83,0.83,0,0,1,.88-1H145a0.84,0.84,0,0,1,1,.94v1.28a0.68,0.68,0,0,0,.75.78h3.38a0.84,0.84,0,0,1,1,.94v1.56a0.84,0.84,0,0,1-.94,1H137.92a0.84,0.84,0,0,1-1-.94V48.89a0.84,0.84,0,0,1,.94-1h3.53a0.68,0.68,0,0,0,.78-0.75V45.92Zm4.25,11.22a0.69,0.69,0,0,0-.69-0.84h-3.5a0.68,0.68,0,0,0-.78.75v1.38a0.68,0.68,0,0,0,.75.78h3.44a0.68,0.68,0,0,0,.78-0.75V57.14Zm8.91-11.22a0.83,0.83,0,0,1,.88-1h1.66a0.84,0.84,0,0,1,1,.94q-0.09,2.38-.09,4.84,0,1,.72,1h5.13a0.84,0.84,0,0,1,1,.94V54.2a0.84,0.84,0,0,1-.94,1h-5.37a0.72,0.72,0,0,0-.84.56,0.6,0.6,0,0,0,.75.59h0.91a0.84,0.84,0,0,1,1,.94v12a0.64,0.64,0,0,0,.53.81,0.66,0.66,0,0,0,.72-0.41,11.53,11.53,0,0,0,.38-3.28q0.09-1.06,1.06-.5a13.12,13.12,0,0,1,1.25.72,1.49,1.49,0,0,1,.88,1.53l-0.41,2.44q-0.31,2.63-2.5,2.78a7.65,7.65,0,0,1-3.87-.37q-1.31-.59-1.47-2.91V63.3q0-.69-0.37.19a22.2,22.2,0,0,1-6.09,9.63A0.79,0.79,0,0,1,149.8,73q-0.53-.75-1-1.5a1.31,1.31,0,0,1,.34-1.81,4.85,4.85,0,0,0,1.47-1.91,17.33,17.33,0,0,0-1.81.81,0.79,0.79,0,0,1-1.28-.47,26.36,26.36,0,0,0-1-2.47,1,1,0,0,1,.44-1.5l1.16-.56a1.09,1.09,0,0,1,1.56.47,19.41,19.41,0,0,1,1.09,2.41q0.34,0.84.84,0.19a21,21,0,0,0,3.25-10.69,0.66,0.66,0,0,0-.75-0.75H152a0.84,0.84,0,0,1-1-.94V52.64a0.84,0.84,0,0,1,.94-1h2.47a0.85,0.85,0,0,0,.84-0.94Q155.36,48.33,155.36,45.92Zm6,0.41a1.45,1.45,0,0,1,2.13.31,12.54,12.54,0,0,1,1.06,1.66,1.16,1.16,0,0,1-.66,1.66l-1,.59a0.93,0.93,0,0,1-1.5-.25,17.77,17.77,0,0,0-1.16-1.81,0.94,0.94,0,0,1,.19-1.56Z" style="fill:#963b3b"/><path d="M169.42,46.14a0.83,0.83,0,0,1,.91-1H180.7a0.84,0.84,0,0,1,1,.94v9.81a0.84,0.84,0,0,1-.94,1h-7.34a0.68,0.68,0,0,0-.78.75V72.7a0.84,0.84,0,0,1-.94,1h-1.28a0.84,0.84,0,0,1-1-.94V46.14Zm9,2.88a0.6,0.6,0,0,0-.75-0.59h-4.28q-0.78,0-.78.56a0.6,0.6,0,0,0,.75.59h4.28Q178.42,49.58,178.42,49Zm0,4.16a0.58,0.58,0,0,0-.69-0.62h-4.34q-0.78,0-.78.56a0.6,0.6,0,0,0,.75.59h4.28Q178.42,53.7,178.42,53.17Zm-3.62,5.75a0.85,0.85,0,0,1,.91-1h13.75a0.84,0.84,0,0,1,1,.94v1.31a0.84,0.84,0,0,1-.94,1h-1.34a0.68,0.68,0,0,0-.78.75v0.63a0.68,0.68,0,0,0,.75.78h2a0.84,0.84,0,0,1,1,.94v1.31a0.84,0.84,0,0,1-.94,1h-2a0.68,0.68,0,0,0-.78.75V71.7a0.84,0.84,0,0,1-.94,1h-1.53a0.84,0.84,0,0,1-1-.94V67.3a0.68,0.68,0,0,0-.75-0.78h-1.66a1,1,0,0,0-1,.94,7.78,7.78,0,0,1-3.5,4.91A1.27,1.27,0,0,1,175.3,72l-0.72-.94a1,1,0,0,1,.34-1.56,6.63,6.63,0,0,0,1.81-2.16q0.38-.84-0.31-0.84H175a0.84,0.84,0,0,1-1-.94V64.26a0.84,0.84,0,0,1,.94-1h1.91a0.69,0.69,0,0,0,.78-0.78l0-.59a0.68,0.68,0,0,0-.75-0.78h-1.19a0.83,0.83,0,0,1-.94-0.94V58.92Zm9.13,3.34q0-1.12-.69-1.12h-1.41a0.68,0.68,0,0,0-.78.75v0.63a0.68,0.68,0,0,0,.75.78h1.34Q183.92,63.3,183.92,62.26Zm-0.25-16.12a0.83,0.83,0,0,1,.91-1H195a0.84,0.84,0,0,1,1,.94V69.55a5.37,5.37,0,0,1-.72,2.5q-1.66,2.12-4.91,1.38a1.29,1.29,0,0,1-1.19-1.06l-0.37-1.81q-0.22-.94.72-0.72a5.61,5.61,0,0,0,2.28.19,2.12,2.12,0,0,0,.78-1.75V57.67a0.68,0.68,0,0,0-.75-0.78h-7.12a0.84,0.84,0,0,1-1-.94V46.14ZM192.52,49a0.6,0.6,0,0,0-.75-0.59h-4.09q-0.78,0-.78.56a0.6,0.6,0,0,0,.75.59h4.09Q192.52,49.58,192.52,49Zm0,4.16a0.58,0.58,0,0,0-.69-0.62h-4.16q-0.78,0-.78.56a0.6,0.6,0,0,0,.75.59h4.09Q192.52,53.7,192.52,53.17Z" style="fill:#963b3b"/><path d="M204.45,46.08q0.19-1.16,1-1l1.5,0.22a1,1,0,0,1,1,1.19l-0.44,2.63a0.58,0.58,0,0,0,.66.75h3.38a0.83,0.83,0,0,1,.94.94,54.82,54.82,0,0,1-2,12.75,1.56,1.56,0,0,0,.63,1.63l1.13,1.13a1.22,1.22,0,0,1,0,1.88l-0.84,1a0.9,0.9,0,0,1-1.5-.06l-0.47-.53q-0.69-.75-1.28.19a19.21,19.21,0,0,1-3.44,4.09q-1.16,1-1.91,0l-0.56-.75a1.12,1.12,0,0,1,.09-1.69A16.94,16.94,0,0,0,205.74,66a1.24,1.24,0,0,0-.47-1.56q-0.94-.75-1.16-0.06a0.87,0.87,0,0,1-1.19.53l-1.25-.25q-1.19-.25-0.87-1.19,1.47-5,2.34-9.59a0.56,0.56,0,0,0-.62-0.75H201.7a0.84,0.84,0,0,1-1-.94V50.8a0.84,0.84,0,0,1,.94-1h1.47a0.92,0.92,0,0,0,.91-0.94Zm4.5,7.84a0.65,0.65,0,0,0-.72-0.78h-0.66a1,1,0,0,0-1,.94l-1.16,5.28a1.36,1.36,0,0,0,.44,1.38l0.84,0.66q0.75,0.63,1.09-.37A50.13,50.13,0,0,0,209,53.92Zm9.84-8.25a1,1,0,0,1,1.28-.75q1,0.25,1.94.59T222.49,47a58.7,58.7,0,0,1-3.34,6.72q-0.47.75,0.53,0.66l4-.28q0.75-.12.31-1.06a16.84,16.84,0,0,0-1-1.87,0.83,0.83,0,0,1,.41-1.34,8.79,8.79,0,0,1,1.34-.59,1.25,1.25,0,0,1,1.72.56,41.09,41.09,0,0,1,3,6.25,1.06,1.06,0,0,1-.56,1.56l-1.62.69q-1,.44-1.25-0.34a1,1,0,0,0-1.25-.66q-5.38.78-10.25,1.19a1.05,1.05,0,0,1-1.28-.94l-0.31-1.69a0.78,0.78,0,0,1,.78-1,1.71,1.71,0,0,0,1.44-1A65.28,65.28,0,0,0,218.8,45.67Zm-5.28,15.41a0.83,0.83,0,0,1,.88-1h13.28a0.84,0.84,0,0,1,1,.94V72.7a0.84,0.84,0,0,1-.94,1H226q-1,0-1-.66a0.65,0.65,0,0,0-.75-0.72h-6.37a0.64,0.64,0,0,0-.78.66q0,0.72-.94.72h-1.66a0.84,0.84,0,0,1-1-.94V61.08ZM225,64.33a0.68,0.68,0,0,0-.72-0.81h-6.41a0.68,0.68,0,0,0-.78.75V68a0.68,0.68,0,0,0,.75.78h6.38a0.68,0.68,0,0,0,.78-0.75V64.33Z" style="fill:#963b3b"/><path d="M233,47.23A0.83,0.83,0,0,1,234,46.3h7.34a0.84,0.84,0,0,1,1,.94V68.83a0.84,0.84,0,0,1-.94,1h-1.59a0.78,0.78,0,0,1-1-.78,0.71,0.71,0,0,0-.75-0.84H237.3a0.68,0.68,0,0,0-.78.75v1.16a0.84,0.84,0,0,1-.94,1H234a0.84,0.84,0,0,1-1-.94V47.23Zm5.75,3.22a0.68,0.68,0,0,0-.75-0.78H237.3a0.68,0.68,0,0,0-.78.75V64a0.68,0.68,0,0,0,.75.78H238a0.68,0.68,0,0,0,.78-0.75V50.45Zm5-3.69a0.83,0.83,0,0,1,.94-0.94h14.72a0.84,0.84,0,0,1,1,.94V61.3a0.84,0.84,0,0,1-.94,1h-1.75q-1,0-1-.66a0.65,0.65,0,0,0-.75-0.72h-7.87a0.68,0.68,0,0,0-.78.75V68a1.43,1.43,0,0,0,.91,1,19.86,19.86,0,0,0,6.66.47q2.22,0,2.56-1.66A14.72,14.72,0,0,0,257.8,66q0.09-1.06,1.13-.62l1.66,0.75a1.24,1.24,0,0,1,.81,1.38,25.21,25.21,0,0,1-.53,2.53q-0.47,3-3.16,3.06l-2.87.19h-4.09a23,23,0,0,1-3.81-.44,3.38,3.38,0,0,1-3.12-3.09v-23Zm6.5,3.34a0.69,0.69,0,0,0-.69-0.84h-1.47a0.68,0.68,0,0,0-.78.75v6.66a0.68,0.68,0,0,0,.75.78h1.41a0.68,0.68,0,0,0,.78-0.75V50.11Zm6.47,0a0.69,0.69,0,0,0-.69-0.84h-1.41a0.68,0.68,0,0,0-.78.75v6.66a0.68,0.68,0,0,0,.75.78H256a0.68,0.68,0,0,0,.78-0.75V50.11Z" style="fill:#963b3b"/><path d="M276.67,47.67a0.8,0.8,0,0,1,.88-1h2.63a0.83,0.83,0,0,1,.94.94q-0.34,9.44-.59,19a0.89,0.89,0,0,1-1,.94H278.3a0.89,0.89,0,0,1-1-.94Zm0,22.94a0.84,0.84,0,0,1,.91-1h2.53a0.84,0.84,0,0,1,1,.94V73a0.84,0.84,0,0,1-.94,1h-2.53A0.83,0.83,0,0,1,276.7,73V70.61Z" style="fill:#963b3b"/></g></g></svg>