<svg id="圖層_1" data-name="圖層 1" xmlns="http://www.w3.org/2000/svg" viewBox="0 0 754.46 1219.44"><defs><style>.cls-1{fill:#963b3b;}.cls-2{fill:none;}</style></defs><title>bg2_s</title><path class="cls-1" d="M135.93,578q0.16-2.64,2.4-2.08a21,21,0,0,1,3,.72,2.68,2.68,0,0,1,2.24,3,183.29,183.29,0,0,1-2.56,20q-0.56,2.63-3.19,1.36l-2.08-1.12q-2.56-1.36-2.16-3.67A158.12,158.12,0,0,0,135.93,578Zm9.74-14.85q0-2.55,2.24-2.55h4.15a2.15,2.15,0,0,1,2.48,2.4v11q0,2.08,2-.32,1.92-2.79,4.63-.64l1.6,1.28q2.79,2.24.88,4.79a41,41,0,0,1-7,6.63,5,5,0,0,0-2.16,3.91,106.15,106.15,0,0,1-1.52,15.17q-0.4,1.92,1.92,3.83l6.63,5.91q2.31,2.24.56,4.63l-2.4,3.27q-1.92,2.63-3.67.32-1.92-2.47-4.15-5-1.6-1.76-2.48.8a55.9,55.9,0,0,1-6.15,13.17q-1.76,2.64-4.55.48L137,631q-3-2.32-1.36-4.79,9.26-16.29,10-37.37V563.18Zm31.62-.32q0-2.55,2.32-2.55h4a2.15,2.15,0,0,1,2.48,2.4V565a1.73,1.73,0,0,0,1.92,2h4a2.15,2.15,0,0,1,2.48,2.4V571q0,2.08,1.76-.64l1.36-2.24a3,3,0,0,1,3.83-1.52l4.07,1.36q2.32,0.8,1,3.19a104.62,104.62,0,0,1-5.75,8.78q-2,2.48,0,2.48h4.63a2.15,2.15,0,0,1,2.48,2.4v3.35a2.15,2.15,0,0,1-2.4,2.48h-12.7a7.1,7.1,0,0,0-4.31,2l-1.68,1.28q-2.24,1.52-.16,1.52h16a2.15,2.15,0,0,1,2.48,2.4v3.43a2.15,2.15,0,0,1-2.4,2.47H179.93a2.54,2.54,0,0,0-2.56,2.08Q177.05,608,179,608h22.6q2.47,0,2.4,2.4-0.4,12.3-3.35,19.16a8.6,8.6,0,0,1-5.91,4.31,18.72,18.72,0,0,1-9.58.08,3.63,3.63,0,0,1-3.35-3L181,627.3q-0.56-2.48,2-2.08l5.51,0.56a12,12,0,0,0,3.91-.56q2.16-1.68,2.4-7.11a1.69,1.69,0,0,0-1.92-1.92h-16a2.31,2.31,0,0,0-2.4,2.08q-0.48,2.08-2.87,1.68a34.63,34.63,0,0,0-4-.56q-2.56-.48-2-2.71l2.4-9.9q0.4-1.92-2-.88l-3.19,1.36q-2.4.88-3.83-1.52l-1.28-2.4q-1.52-2.64.88-3.67a96.74,96.74,0,0,0,15.09-7.59q1.92-1.44-.56-1.44h-8.78a2.15,2.15,0,0,1-2.48-2.4V584.9a2.15,2.15,0,0,1,2.4-2.48h11a1.73,1.73,0,0,0,2-1.92v-3.19a1.73,1.73,0,0,0-1.92-2h-6.47a2.15,2.15,0,0,1-2.48-2.4v-3.43a2.15,2.15,0,0,1,2.4-2.48h6.47a1.73,1.73,0,0,0,2-1.92v-2.24Zm13.81,14.61q1.52-2.16-.16-2.16h-2.87a1.73,1.73,0,0,0-2,1.92v3.35q0,2.32,2.16.16Z"/><path class="cls-1" d="M246.68,563.26q0.16-2.64,2.4-2.24a32.23,32.23,0,0,1,3.83.72q2.87,0.64,2.79,3l-0.16,2.79q-0.08,2.08,1.76,2.08h27.07a2.15,2.15,0,0,1,2.48,2.4v52q-0.88,8.7-8.46,9.82a18.19,18.19,0,0,1-7.51-.24,3.68,3.68,0,0,1-3-2.87l-1-5q-0.48-2.4,1.92-1.76,4.95,1.28,7.43.64a4,4,0,0,0,1.28-2.79v-41a1.73,1.73,0,0,0-1.92-2h-19.8q-1.92,0-2.24.72t2.16,1.84a112,112,0,0,1,18,10q2.64,1.84.64,4.63l-2.16,3.19q-1.68,2.48-4,.72a103.42,103.42,0,0,0-16-9.66,3,3,0,0,0-4.15,1A45.4,45.4,0,0,1,236.7,602q-2.87,1.84-4.79-.8l-1.52-2q-2-2.64.16-4.07a34.43,34.43,0,0,0,12.7-14.29q0.8-2-1.12-2h-12.7a1.73,1.73,0,0,0-2,1.92v51.18a2.15,2.15,0,0,1-2.4,2.48h-4.39a2.15,2.15,0,0,1-2.48-2.4V572.13a2.15,2.15,0,0,1,2.4-2.48h23.55q1.92,0,2.24-2.4A25.34,25.34,0,0,0,246.68,563.26Zm1.52,33.14q0.72-2.47,3-2.16l3.91,0.48q2.87,0.4,2.32,3l-1.12,3.75q-0.8,1.92,1.76,3.11a105,105,0,0,1,13.73,8.22q2.87,2.24,1,4.79l-1.76,2.56q-2.16,3.11-4.55,1a93.86,93.86,0,0,0-13.25-8.78q-1.84-1-3.83,1.6a44.11,44.11,0,0,1-12.38,10.46q-3,1.6-4.87-1a25.32,25.32,0,0,1-1.84-2.56q-2-2.63.4-4Q244.76,609,248.19,596.4Z"/><path class="cls-1" d="M317,562.9q9.26-1.12,15.73,3.19,7.35,6.47,6.15,14.53-0.32,5.91-6.07,12.78-8.14,7.83-8.22,11.9v8.22a2.15,2.15,0,0,1-2.4,2.48h-4.55a2.15,2.15,0,0,1-2.48-2.4V603.55a15.16,15.16,0,0,1,2.48-6.39,78,78,0,0,1,5.35-6.39q7-7.34,6.07-12.78a5.33,5.33,0,0,0-3-4.39,15.15,15.15,0,0,0-7.43-1.28,39.09,39.09,0,0,0-6.39,1.36q-2.72.72-2.71-1.68v-5a3,3,0,0,1,2.4-3.11A36.59,36.59,0,0,1,317,562.9Zm-2.79,60.92q0-2.56,2.32-2.55h6.31a2.15,2.15,0,0,1,2.48,2.4v6.15a2.15,2.15,0,0,1-2.4,2.47h-6.31a2.12,2.12,0,0,1-2.4-2.4v-6.07Z"/><path class="cls-1" d="M403.21,612.17q0-1.16,2-1.16h3.9q2.12,0,2.12,1t1.64,1.16h6.37a1.85,1.85,0,0,1,2.12,2.05v2.33a1.85,1.85,0,0,1-2.05,2.12h-6.37a1.48,1.48,0,0,0-1.71,1.64,17.9,17.9,0,0,1-.89,7.6,4.93,4.93,0,0,1-2.33,2.4q-4.52,2-11.22,1a2.9,2.9,0,0,1-2.4-2.53l-0.55-2.87q-0.48-2.67,1.64-2.05a25.88,25.88,0,0,0,4.31.62q4,0.21,3.42-4a1.52,1.52,0,0,0-1.64-1.78h-18.2q-2.26,0-.41,1.3l2.19,1.51q2.12,1.64.62,3.63l-2.19,2.74q-1.51,1.78-3.76-.21a51.5,51.5,0,0,0-5.48-4q-2.19-1.3-.55-3.22t0.14-1.78H362.14a1.85,1.85,0,0,1-2.12-2.05v-2.33a1.85,1.85,0,0,1,2.05-2.12h39.42Q403.21,613.2,403.21,612.17ZM386.3,570.7q0-1.3,1.92-1.3h3.56q2.12,0,2.12,1.16t1.64,1.3h22.72a1.85,1.85,0,0,1,2.12,2.05v2.6a1.85,1.85,0,0,1-2.05,2.12H395.61q-1.71,0-1.71.82t1.64,0.89h18.2a1.85,1.85,0,0,1,2.12,2.05v17.38q0,2.05-.62,2.12t1.16,2.19l1.64,2.19q1.64,2.46-.55,3.76a18.68,18.68,0,0,0-2,1.16q-2.05,1.16-2.94-.27a3.38,3.38,0,0,0-3.22-1.3q-21.83,1.92-43.94,1.92A2.28,2.28,0,0,1,363,609.5l-0.41-2.05q-0.34-2.46,1.71-2.46a3.38,3.38,0,0,0,1.16-.07h11.16l8-.14q1.71,0,1.71-1.37a1.39,1.39,0,0,0-1.64-1.51H367a1.85,1.85,0,0,1-2.12-2.05V582.47a1.85,1.85,0,0,1,2.05-2.12h17.66q1.71,0,1.71-.82t-1.64-.89H363.72a1.85,1.85,0,0,1-2.12-2.05V574a1.85,1.85,0,0,1,2.05-2.12h20.94Q386.3,571.86,386.3,570.7Zm0,16.7q0-1-1.64-1h-10.4q-1.71,0-1.71,1t1.64,1h10.4Q386.3,588.36,386.3,587.4Zm0,7.8a1.13,1.13,0,0,0-1.37-1.16H374.26q-1.71,0-1.71.89t1.64,1h10.4Q386.23,596,386.3,595.2Zm21.9-7.8q0-1-1.64-1h-11q-1.71,0-1.71,1t1.64,1h11Q408.2,588.36,408.2,587.4Zm0,7.8a1.13,1.13,0,0,0-1.37-1.16H395.61q-1.71,0-1.71.89t1.64,1h11Q408.13,596,408.2,595.2Zm-2,7.25q1-.55-0.82-0.55h-9.79q-1.71,0-1.71,1.23t1.64,1.3q4.72-.27,9.65-0.34,1.64-.14,1.1-0.68T406.22,602.46Z"/><path class="cls-1" d="M450.36,571.59q0-2.19,1.92-2.19h3.63a1.85,1.85,0,0,1,2.12,2.05v6.16a1.48,1.48,0,0,0,1.64,1.71h2.74a1.48,1.48,0,0,0,1.71-1.64v-6.16a1.85,1.85,0,0,1,2.05-2.12h3.49a1.85,1.85,0,0,1,2.12,2.05v6.16a1.51,1.51,0,0,0,1.71,1.71,2.87,2.87,0,0,0,2.67-2.05l1.5-4.11a2,2,0,0,1,2.81-1.44q2,0.48,4.17,1.16t1.09,2.74l-1,1.85q-0.89,1.85.62,1.85h4.38a1.85,1.85,0,0,1,2.12,2.05v2.88a1.84,1.84,0,0,1-2.05,2.12h-9.79q-1.64,0-2.53,2.05-0.89,2.4.62,2.4h9.58a1.85,1.85,0,0,1,2.12,2.05V596a1.85,1.85,0,0,1-2.05,2.12h-21q-1.71,0-1.71,1.23t1.64,1.3h18a1.85,1.85,0,0,1,2.12,2.05v2.81a1.85,1.85,0,0,1-2.05,2.12h-18q-1.71,0-1.71,1.23t1.64,1.3h23.47a1.85,1.85,0,0,1,2.12,2.05v3.22a1.85,1.85,0,0,1-2.05,2.12H477.6q-2.19,0,.07,1.09a71.75,71.75,0,0,0,12.8,3.7q2.05,0.34,1,2.46t-2.12,4.11a2.67,2.67,0,0,1-3.49,1.51,65.89,65.89,0,0,1-18.75-9.51q-2.05-1.5-2.05.14v9.17a1.85,1.85,0,0,1-2.05,2.12h-4a1.85,1.85,0,0,1-2.12-2.05v-9.1q0-1.64-2.19.07a65,65,0,0,1-18.34,9.24,2.58,2.58,0,0,1-3.29-1.37l-1.57-2.74q-1.51-2.53.75-3.08a85.42,85.42,0,0,0,13.14-4.65q2.39-1.09.07-1.09H433.11a1.85,1.85,0,0,1-2.12-2.05v-3.22a1.85,1.85,0,0,1,2.05-2.12h22.17q1.71,0,1.71-1.23t-1.64-1.3H438.86a1.85,1.85,0,0,1-2.12-2.05V602.8a1.85,1.85,0,0,1,2.05-2.12h16.43q1.71,0,1.71-1.23t-1.64-1.3H435.85a1.84,1.84,0,0,1-2.12-2.05v-3.15a1.85,1.85,0,0,1,2.05-2.12h7.53q1.71,0,1-2.12-0.89-2.33-2.4-2.33h-8.49a1.85,1.85,0,0,1-2.12-2.05v-2.87a1.85,1.85,0,0,1,2.05-2.12h3.42q1.71,0,.34-2.12-1.71-2.26.14-3.56l2.6-1.57q2.05-1.16,3.76.89a15.13,15.13,0,0,1,1.78,2.67q1.16,2.05,0,2.81t0.82,0.89h2.46a1.48,1.48,0,0,0,1.71-1.64v-6.09ZM469,588.77q0.82-2.4-.68-2.4H453.58q-1.71,0-.89,2.12,0.82,2.33,2.33,2.33h11.5Q468.15,590.82,469,588.77Z"/><path class="cls-1" d="M521,572.68a1.85,1.85,0,0,1,2.05-2.12h36.34a1.85,1.85,0,0,1,2.12,2.05v13.82a1.85,1.85,0,0,1-2.05,2.12H530a1.48,1.48,0,0,0-1.71,1.64V602A74.18,74.18,0,0,1,522.63,630q-0.89,2.05-2.94.82L517,629.15a2.53,2.53,0,0,1-1.1-3.42l1.37-3.9q0.55-1.78-1-1.78h-6.71a1.48,1.48,0,0,0-1.71,1.64v0.89a1.85,1.85,0,0,1-2.05,2.12h-3.15a1.85,1.85,0,0,1-2.12-2.05V574.81a1.85,1.85,0,0,1,2.05-2.12h13.55a1.85,1.85,0,0,1,2.12,2.05V616q0,1.51.75-.27A91.92,91.92,0,0,0,521,599.31V572.68Zm-10.2,9.17q0-1.78-1.44-1.78a1.42,1.42,0,0,0-1.57,1.64V611q0,1.71,1.44,1.71a1.42,1.42,0,0,0,1.57-1.64V581.85ZM529.2,592.6a1.85,1.85,0,0,1,2.05-2.12h27a1.85,1.85,0,0,1,2.12,2.05v2.94a1.85,1.85,0,0,1-2.05,2.12H556.3q-1.71,0-.21,2.12a44.22,44.22,0,0,1,4,6.84,2.41,2.41,0,0,1-.89,3.42l-2.67,1.64q-2.05,1.3-3-.75a2.71,2.71,0,0,0-3-1.78l-0.62.07a2.18,2.18,0,0,0-1.85,2.46q0,2.33,1.64,2.33h7.73a1.85,1.85,0,0,1,2.12,2.05v2.74a1.85,1.85,0,0,1-2.05,2.12h-7.73a1.54,1.54,0,0,0-1.71,1.78q0,1.85,1.64,1.85h10.47a1.85,1.85,0,0,1,2.12,2.05v2.81a1.85,1.85,0,0,1-2.05,2.12H528a1.85,1.85,0,0,1-2.12-2.05v-2.81a1.85,1.85,0,0,1,2.05-2.12h10.47a1.54,1.54,0,0,0,1.71-1.78q0-1.85-1.64-1.85h-7.12a1.85,1.85,0,0,1-2.12-2.05v-2.74a1.85,1.85,0,0,1,2.05-2.12h7.12a1.48,1.48,0,0,0,1.71-1.64q0-1.64-2.05-1.5-2.4.07-4.79,0.34a2.51,2.51,0,0,1-2.87-2.12l-0.68-3.08q-0.48-2.26,1.44-2.33a3.57,3.57,0,0,0,3.22-2.05l1.1-2.33q0.62-1.64-1-1.64h-3.15a1.82,1.82,0,0,1-2.05-2.05V592.6Zm24.64-13q0-2-1.57-2H530a1.58,1.58,0,0,0-1.71,1.85q0,2,1.64,2h22.17A1.58,1.58,0,0,0,553.84,579.6ZM550.42,598q0.14-.41-1.64-0.41h-2.67q-1.64,0-2.67,2.05l-0.89,1.78q-0.82,1.64,1.23,1.51l3.15-.41q1.64-.27,1.64-0.55l-0.68-1q-0.62-.75,1.44-2.19A4.91,4.91,0,0,0,550.42,598Z"/><path class="cls-1" d="M587.32,573q-0.07-2.12,1.92-2.12H595a1.81,1.81,0,0,1,2.05,2.05q-0.75,20.67-1.3,41.54a2,2,0,0,1-2.19,2.05h-2.67a2,2,0,0,1-2.19-2.05Zm0.07,50.23q0-2.19,2-2.19h5.54a1.85,1.85,0,0,1,2.12,2.05v5.27a1.85,1.85,0,0,1-2.05,2.12h-5.54a1.81,1.81,0,0,1-2.05-2.05v-5.2Z"/><rect class="cls-2" width="754.46" height="1219.44"/></svg>