<svg id="圖層_1" data-name="圖層 1" xmlns="http://www.w3.org/2000/svg" viewBox="0 0 754.46 1219.44"><defs><style>.cls-1{opacity:0.6;}.cls-2{fill:#e9907b;}.cls-3{fill:none;}</style></defs><title>bg3_s</title><g class="cls-1"><path class="cls-2" d="M627.4,544.52c-13.83,0-13.83-6.14-27.66-6.14s-13.83,6.14-27.66,6.14-13.83-6.14-27.66-6.14-13.83,6.14-27.66,6.14-13.83-6.14-27.66-6.14-13.83,6.14-27.66,6.14-13.83-6.14-27.65-6.14-13.83,6.14-27.66,6.14-13.83-6.14-27.66-6.14-13.83,6.14-27.66,6.14-13.83-6.14-27.66-6.14-13.83,6.14-27.66,6.14-13.83-6.14-27.65-6.14-13.83,6.14-27.65,6.14-13.83-6.14-27.65-6.14-13.83,6.14-27.66,6.14-13.83-6.14-27.65-6.14-13.83,6.14-27.65,6.14v5.84c13.83,0,13.83-6.14,27.65-6.14s13.83,6.14,27.65,6.14,13.83-6.14,27.66-6.14,13.83,6.14,27.65,6.14,13.83-6.14,27.65-6.14,13.83,6.14,27.65,6.14,13.83-6.14,27.66-6.14,13.83,6.14,27.66,6.14,13.83-6.14,27.66-6.14,13.83,6.14,27.66,6.14,13.83-6.14,27.66-6.14,13.83,6.14,27.65,6.14,13.83-6.14,27.66-6.14,13.83,6.14,27.66,6.14,13.83-6.14,27.66-6.14,13.83,6.14,27.66,6.14,13.83-6.14,27.66-6.14,13.83,6.14,27.66,6.14v-5.84Z"/><path class="cls-2" d="M627.4,556.56c-13.83,0-13.83-6.14-27.66-6.14s-13.83,6.14-27.66,6.14-13.83-6.14-27.66-6.14-13.83,6.14-27.66,6.14-13.83-6.14-27.66-6.14-13.83,6.14-27.66,6.14-13.83-6.14-27.65-6.14-13.83,6.14-27.66,6.14-13.83-6.14-27.66-6.14-13.83,6.14-27.66,6.14-13.83-6.14-27.66-6.14-13.83,6.14-27.66,6.14-13.83-6.14-27.65-6.14-13.83,6.14-27.65,6.14-13.83-6.14-27.65-6.14-13.83,6.14-27.66,6.14-13.83-6.14-27.65-6.14-13.83,6.14-27.65,6.14v5.84c13.83,0,13.83-6.14,27.65-6.14s13.83,6.14,27.65,6.14,13.83-6.14,27.66-6.14,13.83,6.14,27.65,6.14,13.83-6.14,27.65-6.14,13.83,6.14,27.65,6.14,13.83-6.14,27.66-6.14,13.83,6.14,27.66,6.14,13.83-6.14,27.66-6.14,13.83,6.14,27.66,6.14,13.83-6.14,27.66-6.14,13.83,6.14,27.65,6.14,13.83-6.14,27.66-6.14,13.83,6.14,27.66,6.14,13.83-6.14,27.66-6.14,13.83,6.14,27.66,6.14,13.83-6.14,27.66-6.14,13.83,6.14,27.66,6.14v-5.84Z"/><path class="cls-2" d="M627.4,568.6c-13.83,0-13.83-6.14-27.66-6.14s-13.83,6.14-27.66,6.14-13.83-6.14-27.66-6.14-13.83,6.14-27.66,6.14-13.83-6.14-27.66-6.14-13.83,6.14-27.66,6.14-13.83-6.14-27.65-6.14S420,568.6,406.14,568.6s-13.83-6.14-27.66-6.14-13.83,6.14-27.66,6.14-13.83-6.14-27.66-6.14-13.83,6.14-27.66,6.14-13.83-6.14-27.65-6.14S254,568.6,240.2,568.6s-13.83-6.14-27.65-6.14-13.83,6.14-27.66,6.14-13.83-6.14-27.65-6.14-13.83,6.14-27.65,6.14v5.84c13.83,0,13.83-6.14,27.65-6.14s13.83,6.14,27.65,6.14,13.83-6.14,27.66-6.14,13.83,6.14,27.65,6.14,13.83-6.14,27.65-6.14,13.83,6.14,27.65,6.14,13.83-6.14,27.66-6.14,13.83,6.14,27.66,6.14,13.83-6.14,27.66-6.14,13.83,6.14,27.66,6.14,13.83-6.14,27.66-6.14,13.83,6.14,27.65,6.14,13.83-6.14,27.66-6.14,13.83,6.14,27.66,6.14,13.83-6.14,27.66-6.14,13.83,6.14,27.66,6.14,13.83-6.14,27.66-6.14,13.83,6.14,27.66,6.14V568.6Z"/><path class="cls-2" d="M627.4,580.64c-13.83,0-13.83-6.14-27.66-6.14s-13.83,6.14-27.66,6.14-13.83-6.14-27.66-6.14-13.83,6.14-27.66,6.14-13.83-6.14-27.66-6.14-13.83,6.14-27.66,6.14-13.83-6.14-27.65-6.14-13.83,6.14-27.66,6.14-13.83-6.14-27.66-6.14-13.83,6.14-27.66,6.14-13.83-6.14-27.66-6.14-13.83,6.14-27.66,6.14-13.83-6.14-27.65-6.14-13.83,6.14-27.65,6.14-13.83-6.14-27.65-6.14-13.83,6.14-27.66,6.14-13.83-6.14-27.65-6.14-13.83,6.14-27.65,6.14v5.84c13.83,0,13.83-6.14,27.65-6.14s13.83,6.14,27.65,6.14,13.83-6.14,27.66-6.14,13.83,6.14,27.65,6.14,13.83-6.14,27.65-6.14,13.83,6.14,27.65,6.14,13.83-6.14,27.66-6.14,13.83,6.14,27.66,6.14,13.83-6.14,27.66-6.14,13.83,6.14,27.66,6.14,13.83-6.14,27.66-6.14,13.83,6.14,27.65,6.14,13.83-6.14,27.66-6.14,13.83,6.14,27.66,6.14,13.83-6.14,27.66-6.14,13.83,6.14,27.66,6.14,13.83-6.14,27.66-6.14,13.83,6.14,27.66,6.14v-5.84Z"/><path class="cls-2" d="M627.4,592.68c-13.83,0-13.83-6.14-27.66-6.14s-13.83,6.14-27.66,6.14-13.83-6.14-27.66-6.14-13.83,6.14-27.66,6.14-13.83-6.14-27.66-6.14-13.83,6.14-27.66,6.14-13.83-6.14-27.65-6.14-13.83,6.14-27.66,6.14-13.83-6.14-27.66-6.14-13.83,6.14-27.66,6.14-13.83-6.14-27.66-6.14-13.83,6.14-27.66,6.14-13.83-6.14-27.65-6.14-13.83,6.14-27.65,6.14-13.83-6.14-27.65-6.14-13.83,6.14-27.66,6.14-13.83-6.14-27.65-6.14-13.83,6.14-27.65,6.14v5.84c13.83,0,13.83-6.14,27.65-6.14s13.83,6.14,27.65,6.14,13.83-6.14,27.66-6.14,13.83,6.14,27.65,6.14,13.83-6.14,27.65-6.14,13.83,6.14,27.65,6.14,13.83-6.14,27.66-6.14,13.83,6.14,27.66,6.14,13.83-6.14,27.66-6.14,13.83,6.14,27.66,6.14,13.83-6.14,27.66-6.14,13.83,6.14,27.65,6.14,13.83-6.14,27.66-6.14,13.83,6.14,27.66,6.14,13.83-6.14,27.66-6.14,13.83,6.14,27.66,6.14,13.83-6.14,27.66-6.14,13.83,6.14,27.66,6.14v-5.84Z"/><path class="cls-2" d="M627.4,604.72c-13.83,0-13.83-6.14-27.66-6.14s-13.83,6.14-27.66,6.14-13.83-6.14-27.66-6.14-13.83,6.14-27.66,6.14-13.83-6.14-27.66-6.14-13.83,6.14-27.66,6.14-13.83-6.14-27.65-6.14-13.83,6.14-27.66,6.14-13.83-6.14-27.66-6.14-13.83,6.14-27.66,6.14-13.83-6.14-27.66-6.14-13.83,6.14-27.66,6.14-13.83-6.14-27.65-6.14-13.83,6.14-27.65,6.14-13.83-6.14-27.65-6.14-13.83,6.14-27.66,6.14-13.83-6.14-27.65-6.14-13.83,6.14-27.65,6.14v5.84c13.83,0,13.83-6.14,27.65-6.14s13.83,6.14,27.65,6.14,13.83-6.14,27.66-6.14,13.83,6.14,27.65,6.14,13.83-6.14,27.65-6.14,13.83,6.14,27.65,6.14,13.83-6.14,27.66-6.14,13.83,6.14,27.66,6.14,13.83-6.14,27.66-6.14,13.83,6.14,27.66,6.14,13.83-6.14,27.66-6.14,13.83,6.14,27.65,6.14,13.83-6.14,27.66-6.14,13.83,6.14,27.66,6.14,13.83-6.14,27.66-6.14,13.83,6.14,27.66,6.14,13.83-6.14,27.66-6.14,13.83,6.14,27.66,6.14v-5.84Z"/><path class="cls-2" d="M627.4,616.76c-13.83,0-13.83-6.14-27.66-6.14s-13.83,6.14-27.66,6.14-13.83-6.14-27.66-6.14-13.83,6.14-27.66,6.14-13.83-6.14-27.66-6.14-13.83,6.14-27.66,6.14-13.83-6.14-27.65-6.14-13.83,6.14-27.66,6.14-13.83-6.14-27.66-6.14-13.83,6.14-27.66,6.14-13.83-6.14-27.66-6.14-13.83,6.14-27.66,6.14-13.83-6.14-27.65-6.14-13.83,6.14-27.65,6.14-13.83-6.14-27.65-6.14-13.83,6.14-27.66,6.14-13.83-6.14-27.65-6.14-13.83,6.14-27.65,6.14v5.84c13.83,0,13.83-6.14,27.65-6.14s13.83,6.14,27.65,6.14,13.83-6.14,27.66-6.14,13.83,6.14,27.65,6.14,13.83-6.14,27.65-6.14,13.83,6.14,27.65,6.14,13.83-6.14,27.66-6.14,13.83,6.14,27.66,6.14,13.83-6.14,27.66-6.14,13.83,6.14,27.66,6.14,13.83-6.14,27.66-6.14,13.83,6.14,27.65,6.14,13.83-6.14,27.66-6.14,13.83,6.14,27.66,6.14,13.83-6.14,27.66-6.14,13.83,6.14,27.66,6.14,13.83-6.14,27.66-6.14,13.83,6.14,27.66,6.14v-5.84Z"/><path class="cls-2" d="M627.4,628.8c-13.83,0-13.83-6.14-27.66-6.14s-13.83,6.14-27.66,6.14-13.83-6.14-27.66-6.14-13.83,6.14-27.66,6.14-13.83-6.14-27.66-6.14-13.83,6.14-27.66,6.14-13.83-6.14-27.65-6.14S420,628.8,406.14,628.8s-13.83-6.14-27.66-6.14-13.83,6.14-27.66,6.14-13.83-6.14-27.66-6.14-13.83,6.14-27.66,6.14-13.83-6.14-27.65-6.14S254,628.8,240.2,628.8s-13.83-6.14-27.65-6.14-13.83,6.14-27.66,6.14-13.83-6.14-27.65-6.14-13.83,6.14-27.65,6.14v5.84c13.83,0,13.83-6.14,27.65-6.14s13.83,6.14,27.65,6.14,13.83-6.14,27.66-6.14,13.83,6.14,27.65,6.14,13.83-6.14,27.65-6.14,13.83,6.14,27.65,6.14,13.83-6.14,27.66-6.14,13.83,6.14,27.66,6.14,13.83-6.14,27.66-6.14,13.83,6.14,27.66,6.14,13.83-6.14,27.66-6.14,13.83,6.14,27.65,6.14,13.83-6.14,27.66-6.14,13.83,6.14,27.66,6.14,13.83-6.14,27.66-6.14,13.83,6.14,27.66,6.14,13.83-6.14,27.66-6.14,13.83,6.14,27.66,6.14V628.8Z"/><path class="cls-2" d="M627.4,640.84c-13.83,0-13.83-6.14-27.66-6.14s-13.83,6.14-27.66,6.14-13.83-6.14-27.66-6.14-13.83,6.14-27.66,6.14-13.83-6.14-27.66-6.14-13.83,6.14-27.66,6.14-13.83-6.14-27.65-6.14-13.83,6.14-27.66,6.14-13.83-6.14-27.66-6.14-13.83,6.14-27.66,6.14-13.83-6.14-27.66-6.14-13.83,6.14-27.66,6.14-13.83-6.14-27.65-6.14-13.83,6.14-27.65,6.14-13.83-6.14-27.65-6.14-13.83,6.14-27.66,6.14-13.83-6.14-27.65-6.14-13.83,6.14-27.65,6.14v5.84c13.83,0,13.83-6.14,27.65-6.14s13.83,6.14,27.65,6.14,13.83-6.14,27.66-6.14,13.83,6.14,27.65,6.14,13.83-6.14,27.65-6.14,13.83,6.14,27.65,6.14,13.83-6.14,27.66-6.14,13.83,6.14,27.66,6.14,13.83-6.14,27.66-6.14,13.83,6.14,27.66,6.14,13.83-6.14,27.66-6.14,13.83,6.14,27.65,6.14,13.83-6.14,27.66-6.14,13.83,6.14,27.66,6.14,13.83-6.14,27.66-6.14,13.83,6.14,27.66,6.14,13.83-6.14,27.66-6.14,13.83,6.14,27.66,6.14v-5.84Z"/><path class="cls-2" d="M627.4,652.88c-13.83,0-13.83-6.14-27.66-6.14s-13.83,6.14-27.66,6.14-13.83-6.14-27.66-6.14-13.83,6.14-27.66,6.14-13.83-6.14-27.66-6.14-13.83,6.14-27.66,6.14-13.83-6.14-27.65-6.14-13.83,6.14-27.66,6.14-13.83-6.14-27.66-6.14-13.83,6.14-27.66,6.14-13.83-6.14-27.66-6.14-13.83,6.14-27.66,6.14-13.83-6.14-27.65-6.14-13.83,6.14-27.65,6.14-13.83-6.14-27.65-6.14-13.83,6.14-27.66,6.14-13.83-6.14-27.65-6.14-13.83,6.14-27.65,6.14v5.84c13.83,0,13.83-6.14,27.65-6.14s13.83,6.14,27.65,6.14,13.83-6.14,27.66-6.14,13.83,6.14,27.65,6.14,13.83-6.14,27.65-6.14,13.83,6.14,27.65,6.14,13.83-6.14,27.66-6.14,13.83,6.14,27.66,6.14,13.83-6.14,27.66-6.14,13.83,6.14,27.66,6.14,13.83-6.14,27.66-6.14,13.83,6.14,27.65,6.14,13.83-6.14,27.66-6.14,13.83,6.14,27.66,6.14,13.83-6.14,27.66-6.14,13.83,6.14,27.66,6.14,13.83-6.14,27.66-6.14,13.83,6.14,27.66,6.14v-5.84Z"/></g><rect class="cls-3" width="754.46" height="1219.44"/></svg>