<svg id="圖層_1" data-name="圖層 1" xmlns="http://www.w3.org/2000/svg" viewBox="0 0 301.8 80"><title>word1</title><rect width="301.8" height="80" style="fill:none"/><g style="isolation:isolate"><g style="isolation:isolate"><path d="M138.15,4.25a8.79,8.79,0,0,1,3.94-.59,10.1,10.1,0,0,1,2.5.56,8.31,8.31,0,0,1,4.66,5.44,23.61,23.61,0,0,1,.38,11,11,11,0,0,1-2.25,4.88A8,8,0,0,1,140,28a6.92,6.92,0,0,1-4.87-2.84,12.37,12.37,0,0,1-2-5A21.73,21.73,0,0,1,134,8.5,7.86,7.86,0,0,1,138.15,4.25Zm2.84,3a4,4,0,0,0-3.31,2.88,20.71,20.71,0,0,0-.5,9.69q1.25,5.69,5.88,4.16a4,4,0,0,0,2-2.22A13.47,13.47,0,0,0,146,17a17.8,17.8,0,0,0-.75-6.56Q144,7,141,7.28Z" style="fill:#963b3b"/><path d="M159.83,5a2.59,2.59,0,0,1,1.78-.91h0.84a0.84,0.84,0,0,1,1,.94V26.66a0.84,0.84,0,0,1-.94,1h-2.12a0.84,0.84,0,0,1-1-.94V10.91q0-.78-1-0.12a13.7,13.7,0,0,1-1.84.91q-0.94.38-.94-0.56V8.69a1.56,1.56,0,0,1,.94-1.44A15.68,15.68,0,0,0,159.83,5Z" style="fill:#963b3b"/></g><g style="isolation:isolate"><path d="M41.36,51.73q0.06-1,.94-0.81a8.19,8.19,0,0,1,1.19.28,1,1,0,0,1,.88,1.19,71.76,71.76,0,0,1-1,7.81q-0.22,1-1.25.53L41.3,60.3a1.31,1.31,0,0,1-.84-1.44A61.86,61.86,0,0,0,41.36,51.73Zm3.81-5.81a0.83,0.83,0,0,1,.88-1h1.63a0.84,0.84,0,0,1,1,.94v4.31q0,0.81.78-.12a1.1,1.1,0,0,1,1.81-.25l0.63,0.5a1.22,1.22,0,0,1,.34,1.88,16,16,0,0,1-2.75,2.59,2,2,0,0,0-.84,1.53A41.55,41.55,0,0,1,48,62.23a1.57,1.57,0,0,0,.75,1.5L51.36,66a1.25,1.25,0,0,1,.22,1.81l-0.94,1.28q-0.75,1-1.44.13t-1.62-2q-0.63-.69-1,0.31a21.89,21.89,0,0,1-2.41,5.16,1.08,1.08,0,0,1-1.78.19l-0.62-.5a1.3,1.3,0,0,1-.53-1.87A31.28,31.28,0,0,0,45.17,56v-10Zm12.38-.12a0.85,0.85,0,0,1,.91-1H60a0.84,0.84,0,0,1,1,.94v0.91a0.68,0.68,0,0,0,.75.78H63.3a0.84,0.84,0,0,1,1,.94V49q0,0.81.69-.25l0.53-.87a1.18,1.18,0,0,1,1.5-.59l1.59,0.53A0.75,0.75,0,0,1,69,49a40.9,40.9,0,0,1-2.25,3.44q-0.78,1,0,1h1.81a0.84,0.84,0,0,1,1,.94V55.7a0.84,0.84,0,0,1-.94,1h-5a2.78,2.78,0,0,0-1.69.78l-0.66.5q-0.88.59-.06,0.59h6.25a0.84,0.84,0,0,1,1,.94v1.34a0.84,0.84,0,0,1-.94,1H58.58a1,1,0,0,0-1,.81q-0.13.84,0.63,0.84H67a0.81,0.81,0,0,1,.94.94,21.3,21.3,0,0,1-1.31,7.5,3.37,3.37,0,0,1-2.31,1.69,7.32,7.32,0,0,1-3.75,0,1.42,1.42,0,0,1-1.31-1.19L59,71q-0.22-1,.78-0.81l2.16,0.22a4.68,4.68,0,0,0,1.53-.22,3.67,3.67,0,0,0,.94-2.78,0.66,0.66,0,0,0-.75-0.75H57.39a0.91,0.91,0,0,0-.94.81,0.85,0.85,0,0,1-1.12.66,13.64,13.64,0,0,0-1.56-.22A0.8,0.8,0,0,1,53,66.86L53.92,63q0.16-.75-0.78-0.34l-1.25.53a1.14,1.14,0,0,1-1.5-.59l-0.5-.94q-0.59-1,.34-1.44a37.83,37.83,0,0,0,5.91-3q0.75-.56-0.22-0.56H52.48a0.84,0.84,0,0,1-1-.94V54.42a0.84,0.84,0,0,1,.94-1h4.31a0.68,0.68,0,0,0,.78-0.75V51.45a0.68,0.68,0,0,0-.75-0.78H54.27a0.84,0.84,0,0,1-1-.94V48.39a0.84,0.84,0,0,1,.94-1h2.53a0.68,0.68,0,0,0,.78-0.75V45.8ZM63,51.51q0.59-.84-0.06-0.84H61.77a0.68,0.68,0,0,0-.78.75v1.31q0,0.91.84,0.06Z" style="fill:#963b3b"/><path d="M84.7,46q0.06-1,.94-0.87a12.65,12.65,0,0,1,1.5.28,1.15,1.15,0,0,1,1.09,1.19l-0.06,1.09a0.65,0.65,0,0,0,.69.81H99.45a0.84,0.84,0,0,1,1,.94V69.73q-0.34,3.41-3.31,3.84a7.14,7.14,0,0,1-2.94-.09A1.44,1.44,0,0,1,93,72.36l-0.37-1.94q-0.19-.94.75-0.69a6.31,6.31,0,0,0,2.91.25,1.55,1.55,0,0,0,.5-1.09V52.83A0.68,0.68,0,0,0,96,52H88.27a0.92,0.92,0,0,0-.87.28q-0.13.31,0.84,0.72a43.87,43.87,0,0,1,7,3.91,1.14,1.14,0,0,1,.25,1.81L94.67,60a1,1,0,0,1-1.56.28,40.51,40.51,0,0,0-6.25-3.78,1.18,1.18,0,0,0-1.62.41,17.77,17.77,0,0,1-4.44,4.19,1.23,1.23,0,0,1-1.87-.31L78.33,60q-0.78-1,.06-1.59a13.47,13.47,0,0,0,5-5.59Q83.67,52,82.92,52H78a0.68,0.68,0,0,0-.78.75v20a0.84,0.84,0,0,1-.94,1H74.52a0.84,0.84,0,0,1-1-.94V49.42a0.84,0.84,0,0,1,.94-1H83.7a0.88,0.88,0,0,0,.88-0.94A9.9,9.9,0,0,0,84.7,46Zm0.59,13a1,1,0,0,1,1.19-.84L88,58.26a0.88,0.88,0,0,1,.91,1.16l-0.44,1.47a0.91,0.91,0,0,0,.69,1.22,41.08,41.08,0,0,1,5.38,3.22A1.23,1.23,0,0,1,95,67.2l-0.69,1q-0.84,1.22-1.78.41a36.8,36.8,0,0,0-5.19-3.44q-0.72-.37-1.5.63A17.26,17.26,0,0,1,81,69.89,1.34,1.34,0,0,1,79,69.51a9.89,9.89,0,0,1-.72-1q-0.78-1,.16-1.56Q84,63.86,85.3,58.92Z" style="fill:#963b3b"/><path d="M117.11,64.55A0.76,0.76,0,0,1,118,63.8h1.66q1,0,1,.72a0.66,0.66,0,0,0,.75.75h10.94a0.84,0.84,0,0,1,1,.94v1.63a0.84,0.84,0,0,1-.94,1H121.45a0.68,0.68,0,0,0-.78.75V73a0.84,0.84,0,0,1-.94,1h-1.66a0.84,0.84,0,0,1-1-.94V69.58a0.68,0.68,0,0,0-.75-0.78H105.67a0.84,0.84,0,0,1-1-.94V66.23a0.84,0.84,0,0,1,.94-1h10.69A0.66,0.66,0,0,0,117.11,64.55Zm-11-14a1.29,1.29,0,0,1,1.75-.28q0.94,0.63,1.88,1.38a1.2,1.2,0,0,1,.19,1.81l-0.75.94a1.07,1.07,0,0,1-1.84.06q-0.91-.87-1.81-1.62t0-1.62Zm3.41,5.22a0.92,0.92,0,0,1,1.44-.44l1.25,0.75a1,1,0,0,1,.44,1.53,34.93,34.93,0,0,1-3.56,5.28,1.28,1.28,0,0,1-2,.22l-1-.87a1.07,1.07,0,0,1-.06-1.75A27.52,27.52,0,0,0,109.55,55.8Zm-1.75-10q1.16-1.19,2.06-.69A17.88,17.88,0,0,1,112,46.64a1.16,1.16,0,0,1,.09,1.78,12.7,12.7,0,0,0-.84,1.06,0.91,0.91,0,0,1-1.56,0q-1.09-1-2.19-1.81a1,1,0,0,1,0-1.62A1.25,1.25,0,0,0,107.8,45.76Zm7.81-.19a0.93,0.93,0,0,1,1.22-.75l1.63,0.53a0.8,0.8,0,0,1,.66,1.13q-0.34.81,0.41,0.81h2.19a1.23,1.23,0,0,0,1.13-.94l0.22-.72a1,1,0,0,1,1.34-.84,12.66,12.66,0,0,1,1.59.31,0.76,0.76,0,0,1,.66,1.13q-0.44,1.06.25,1.06h4.5a0.84,0.84,0,0,1,1,.94v1.31a0.84,0.84,0,0,1-.94,1h-4.91q-0.78,0-.78.56a0.6,0.6,0,0,0,.75.59h3.78a0.84,0.84,0,0,1,1,.94v1.22a0.84,0.84,0,0,1-.94,1h-3.78q-0.78,0-.78.53a0.6,0.6,0,0,0,.75.59h3.84a0.84,0.84,0,0,1,1,.94v1.22a0.84,0.84,0,0,1-.94,1h-3.84q-0.78,0-.78.56a0.6,0.6,0,0,0,.75.59h4.91a0.84,0.84,0,0,1,1,.94v1.31a0.84,0.84,0,0,1-.94,1h-16a0.84,0.84,0,0,1-1-.94V55.64q0-.75-0.34-0.47-0.44.44-1.5-.31L112,54.39a1.15,1.15,0,0,1-.37-1.81A30.29,30.29,0,0,0,115.61,45.58Zm6.59,5.56a0.63,0.63,0,0,0-.72-0.62h-2.75q-0.78,0-.78.56a0.6,0.6,0,0,0,.75.59h2.72Q122.2,51.67,122.2,51.14Zm0,4.25a0.59,0.59,0,0,0-.72-0.59h-2.75q-0.78,0-.78.53a0.6,0.6,0,0,0,.75.59h2.72Q122.2,55.92,122.2,55.39Zm0,4.25a0.64,0.64,0,0,0-.78-0.59h-2.69q-0.78,0-.78.56a0.6,0.6,0,0,0,.75.59h2.72Q122.2,60.2,122.2,59.64Z" style="fill:#963b3b"/><path d="M142,45.8a0.86,0.86,0,0,1,1.19-.72l1.53,0.44a0.9,0.9,0,0,1,.66,1.25,45.21,45.21,0,0,1-2.06,5.63,3.34,3.34,0,0,0-.41,1.47v15q0,1,.59.19,2.34-4.87,2.34-13.12,0-.78-0.56-0.78t-0.62-.94V53.3a0.84,0.84,0,0,1,.94-1h3.66a0.68,0.68,0,0,0,.78-0.75V50.8A0.68,0.68,0,0,0,149.3,50H147a0.84,0.84,0,0,1-1-.94V48a0.84,0.84,0,0,1,.94-1h2.28a0.68,0.68,0,0,0,.78-0.75V45.76a0.84,0.84,0,0,1,.94-1h1.59a0.84,0.84,0,0,1,1,.94V46.3a0.68,0.68,0,0,0,.75.78h2a0.68,0.68,0,0,0,.78-0.75V45.76a0.84,0.84,0,0,1,.94-1h1.63a0.84,0.84,0,0,1,1,.94V46.3a0.68,0.68,0,0,0,.75.78h2.28a0.84,0.84,0,0,1,1,.94v1a0.84,0.84,0,0,1-.94,1h-2.28a0.68,0.68,0,0,0-.78.75v0.78a0.68,0.68,0,0,0,.75.78h3.25a0.84,0.84,0,0,1,1,.94V54.2a0.84,0.84,0,0,1-.94,1H149.77a0.82,0.82,0,0,0-.81.94A65.91,65.91,0,0,1,148,66.26a18.84,18.84,0,0,1-2.37,6,1,1,0,0,1-1.66.25l-0.25-.22q-0.81-.66-0.81.31a0.89,0.89,0,0,1-.94,1.06h-1.34a0.84,0.84,0,0,1-1-.94V60.55q0.09-1.62-.91.16-0.59.84-1.19-.25l-0.66-1.25a2,2,0,0,1,0-2.09A43.76,43.76,0,0,0,142,45.8Zm7.56,11.59a0.83,0.83,0,0,1,.94-0.94h13.09a0.84,0.84,0,0,1,1,.94V70.58Q164,74,160.52,73.67a1.09,1.09,0,0,1-1.16-.94l-0.25-1.25q-0.13-.94.81-0.72,1.69,0.34,1.41-1.56a0.68,0.68,0,0,0-.75-0.78h-1.09a0.68,0.68,0,0,0-.78.75v3a0.84,0.84,0,0,1-.94,1h-1.37a0.84,0.84,0,0,1-1-.94v-3a0.68,0.68,0,0,0-.75-0.78h-1.09a0.68,0.68,0,0,0-.78.75V72.7a0.84,0.84,0,0,1-.94,1h-1.31a0.84,0.84,0,0,1-1-.94V57.39Zm5.84,2.88q0-1-.72-1h-1.12a0.75,0.75,0,0,0-.78.91,0.77,0.77,0,0,0,.75,1h1.09A0.75,0.75,0,0,0,155.42,60.26Zm0,4.56a0.76,0.76,0,0,0-.75-0.94h-1.09a0.73,0.73,0,0,0-.78.88,0.76,0.76,0,0,0,.75.94h1.09A0.73,0.73,0,0,0,155.42,64.83Zm1.63-14A0.68,0.68,0,0,0,156.3,50h-2a0.68,0.68,0,0,0-.78.75v0.78a0.68,0.68,0,0,0,.75.78h2a0.68,0.68,0,0,0,.78-0.75V50.8Zm4.28,9.47q0-1-.72-1h-1.12a0.75,0.75,0,0,0-.78.91,0.77,0.77,0,0,0,.75,1h1.09A0.75,0.75,0,0,0,161.33,60.26Zm0,4.56a0.76,0.76,0,0,0-.75-0.94h-1.09a0.73,0.73,0,0,0-.78.88,0.76,0.76,0,0,0,.75.94h1.09A0.73,0.73,0,0,0,161.33,64.83Z" style="fill:#963b3b"/><path d="M169.55,57.39a0.83,0.83,0,0,1,.94-0.94h24.69a0.84,0.84,0,0,1,1,.94V59.2a0.84,0.84,0,0,1-.94,1H170.52a0.84,0.84,0,0,1-1-.94V57.39Z" style="fill:#963b3b"/><path d="M207.08,45.92a0.83,0.83,0,0,1,.88-1h1.78a0.84,0.84,0,0,1,1,.94V47.3a0.68,0.68,0,0,0,.75.78H214a0.84,0.84,0,0,1,1,.94v1.41a0.84,0.84,0,0,1-.94,1h-2.5a0.68,0.68,0,0,0-.78.75v1.63a0.68,0.68,0,0,0,.75.78h2.91a0.84,0.84,0,0,1,1,.94V57a0.84,0.84,0,0,1-.94,1h-3a0.68,0.68,0,0,0-.78.75V60a0.68,0.68,0,0,0,.75.78h2.41a0.84,0.84,0,0,1,1,.94V63.2a0.84,0.84,0,0,1-.94,1h-2.41a0.68,0.68,0,0,0-.78.75V68a1.06,1.06,0,0,0,1,1,60.33,60.33,0,0,0,8.84.69h4.25l4.44-.28q1-.13.69,0.81l-0.62,2.09a1.18,1.18,0,0,1-1.22.94H219.8A36.85,36.85,0,0,1,208.89,72a10.13,10.13,0,0,1-3.06-1.69q-0.81-.66-1,0.28a21.15,21.15,0,0,1-.69,2.13,0.9,0.9,0,0,1-1.47.53l-1-.62a1.32,1.32,0,0,1-.66-1.72,31.86,31.86,0,0,0,1.56-10.69,0.87,0.87,0,0,1,1-1H205a0.84,0.84,0,0,1,1,.94l-0.22,4.47A1.83,1.83,0,0,0,206.3,66q0.78,0.75.78,0V58.7a0.68,0.68,0,0,0-.75-0.78h-4a0.84,0.84,0,0,1-1-.94V55.51a0.84,0.84,0,0,1,.94-1h4a0.68,0.68,0,0,0,.78-0.75V52.17a0.68,0.68,0,0,0-.75-0.78H203a0.84,0.84,0,0,1-1-.94V49a0.84,0.84,0,0,1,.94-1h3.31a0.68,0.68,0,0,0,.78-0.75V45.92Zm9.25,1.31a0.83,0.83,0,0,1,.94-0.94h10.19a0.84,0.84,0,0,1,1,.94v11a0.84,0.84,0,0,1-.94,1h-1.59q-1,0-1-.37t-0.75-.41h-3.62a0.68,0.68,0,0,0-.78.75v5a1,1,0,0,0,.41.75,17,17,0,0,0,4.66,0,1.41,1.41,0,0,0,1.06-1.12L226,63q0.12-1,1.19-.56L228.42,63a1.39,1.39,0,0,1,1,1.47A20.31,20.31,0,0,1,229,66.7a1.52,1.52,0,0,1-.87,1.09,9.28,9.28,0,0,1-3.81.63H220a10.45,10.45,0,0,1-2.28-.28,3.2,3.2,0,0,1-1.37-2.84V47.23Zm8.59,3.22a0.68,0.68,0,0,0-.75-0.78h-3.62a0.68,0.68,0,0,0-.78.75v4.09a0.68,0.68,0,0,0,.75.78h3.63a0.68,0.68,0,0,0,.78-0.75V50.45Z" style="fill:#963b3b"/><path d="M245.64,45.92a0.83,0.83,0,0,1,.88-1h1.72a0.84,0.84,0,0,1,1,.94v0.91a0.68,0.68,0,0,0,.75.78h9.44a0.84,0.84,0,0,1,1,.94v1.59a0.84,0.84,0,0,1-.94,1H250a0.68,0.68,0,0,0-.78.75v6.28a2.15,2.15,0,0,0,.5,1.38A27.65,27.65,0,0,0,261,67.92a0.89,0.89,0,0,1,.44,1.47L260.55,71a1,1,0,0,1-1.41.66A28,28,0,0,1,249.89,65q-0.69-.69-0.69.06V72.7a0.84,0.84,0,0,1-.94,1h-1.66a0.84,0.84,0,0,1-1-.94V64.89q0-.75-0.81.06a33.61,33.61,0,0,1-9.41,7,1.05,1.05,0,0,1-1.5-.53l-0.78-1.34a0.83,0.83,0,0,1,.41-1.37Q239.2,66.3,245,59.86a2.42,2.42,0,0,0,.66-1.44V51.83a0.68,0.68,0,0,0-.75-0.78h-9.81a0.84,0.84,0,0,1-1-.94V48.51a0.84,0.84,0,0,1,.94-1h9.81a0.68,0.68,0,0,0,.78-0.75V45.92Zm-7.84,6.81A0.89,0.89,0,0,1,239,52l1.5,0.53q1.22,0.41.84,1.34a5.59,5.59,0,0,0-.34.94,1.24,1.24,0,0,0,.53,1.5q0.81,0.69,1.63,1.47a1.2,1.2,0,0,1,.06,1.88l-0.87.94q-1,1.06-1.69.25l-0.94-1q-0.66-.69-1.22.34l-1.31,2a1,1,0,0,1-1.62.31l-0.87-.62a1.22,1.22,0,0,1-.41-1.84A29,29,0,0,0,237.8,52.73ZM254,52.51a0.88,0.88,0,0,1,1.25-.66l1.53,0.5a1,1,0,0,1,.63,1.41l-0.34.88a1.19,1.19,0,0,0,.69,1.44A25.07,25.07,0,0,1,260,57.92q0.81,0.75-.19,1.84l-0.59.63a1.21,1.21,0,0,1-2,.19,16.84,16.84,0,0,0-1.41-1.31,0.79,0.79,0,0,0-1.34.28l-0.47.69a1.16,1.16,0,0,1-1.72.41L251.49,60a1.17,1.17,0,0,1-.41-1.81A22.48,22.48,0,0,0,254,52.51Z" style="fill:#963b3b"/></g></g></svg>