<?xml version="1.0" encoding="utf-8"?>
<!-- Generator: Adobe Illustrator 16.0.0, SVG Export Plug-In . SVG Version: 6.00 Build 0)  -->
<!DOCTYPE svg PUBLIC "-//W3C//DTD SVG 1.1//EN" "http://www.w3.org/Graphics/SVG/1.1/DTD/svg11.dtd">
<svg version="1.1" id="圖層_1" xmlns="http://www.w3.org/2000/svg" xmlns:xlink="http://www.w3.org/1999/xlink" x="0px" y="0px"
	 width="180px" height="180px" viewBox="0 0 180 180" enable-background="new 0 0 180 180" xml:space="preserve">
<g>
	<path fill="#CD1906" d="M58.002,85.464C68.608,87.9,79.162,88.8,90,88.8c10.84,0,21.393-0.9,31.998-3.336
		c5.279-1.212,10.354-2.725,15.249-5.138c1.609-0.793,3.579-1.842,5.371-3.178l1.3-7.743h-0.004
		c0.051-0.327,0.088-0.659,0.088-1.005c0-3.8-3.272-6.472-5.949-8.212c-5.683-3.694-11.747-5.359-18.188-6.784
		C109.962,51.213,100.105,50.4,90,50.4c-10.111,0-19.974,0.813-29.882,3.008c-6.436,1.425-12.498,3.09-18.176,6.783
		C39.269,61.932,36,64.603,36,68.4c0,0.346,0.036,0.678,0.086,1.005l0,0l0.055,0.331l0.006,0.039l1.236,7.374
		c1.794,1.336,3.766,2.387,5.377,3.18C47.653,82.741,52.727,84.252,58.002,85.464z"/>
	<path fill="#DC3622" d="M121.998,89.064C111.392,91.5,100.838,92.4,90,92.4s-21.392-0.9-31.998-3.336
		c-5.279-1.212-10.354-2.725-15.249-5.138c-1.405-0.693-3.088-1.582-4.684-2.685l12.331,73.56c0,2.787,2.398,4.746,4.361,6.022
		c4.167,2.709,8.615,3.93,13.337,4.975C75.361,167.405,82.59,168,90,168c7.415,0,14.647-0.595,21.914-2.205
		c4.719-1.045,9.165-2.267,13.327-4.975c1.962-1.276,4.358-3.234,4.358-6.02l12.333-73.56c-1.601,1.104-3.284,1.995-4.692,2.688
		C132.347,86.34,127.273,87.853,121.998,89.064z"/>
	<g>
		<g>
			<path fill="none" stroke="#D62A18" stroke-linecap="round" stroke-miterlimit="10" d="M39.536,90c0,5.021,5.735,8.043,9.21,9.688
				c4.297,2.033,8.737,3.308,13.345,4.327c9.255,2.048,18.466,2.807,27.909,2.807s18.654-0.759,27.908-2.807
				c4.605-1.019,9.045-2.293,13.341-4.324c3.478-1.645,9.215-4.669,9.215-9.691"/>
			<path fill="none" stroke="#D62A18" stroke-linecap="round" stroke-miterlimit="10" d="M40.744,97.201
				c0,4.899,5.596,7.851,8.989,9.456c4.193,1.984,8.528,3.228,13.024,4.223c9.035,1.999,18.024,2.74,27.242,2.74
				s18.209-0.741,27.24-2.74c4.496-0.995,8.829-2.239,13.021-4.221c3.395-1.605,8.994-4.557,8.994-9.458"/>
			<path fill="none" stroke="#D62A18" stroke-linecap="round" stroke-miterlimit="10" d="M42.555,108
				c0,4.72,5.391,7.563,8.659,9.109c4.038,1.911,8.214,3.11,12.547,4.068c8.701,1.925,17.36,2.639,26.239,2.639
				s17.538-0.713,26.239-2.639c4.33-0.958,8.505-2.156,12.542-4.065c3.271-1.546,8.664-4.39,8.664-9.111"/>
			<path fill="none" stroke="#D62A18" stroke-linecap="round" stroke-miterlimit="10" d="M41.347,100.8c0,4.84,5.53,7.755,8.88,9.34
				c4.143,1.96,8.424,3.188,12.866,4.171c8.923,1.975,17.803,2.706,26.907,2.706s17.984-0.731,26.907-2.706
				c4.439-0.982,8.721-2.21,12.86-4.169c3.354-1.585,8.886-4.502,8.886-9.343"/>
		</g>
	</g>
	<path fill="#D32E22" d="M32.4,69.001c0,1.2,0,2.4,0,3.599c0,5.778,6.321,9.338,10.353,11.326c4.896,2.414,9.97,3.926,15.249,5.138
		C68.608,91.5,79.162,92.4,90,92.4s21.392-0.9,31.998-3.336c5.275-1.211,10.349-2.724,15.242-5.134
		c4.033-1.988,10.36-5.549,10.36-11.33c0-1.199,0-2.399,0-3.599c0,5.777-6.322,9.337-10.354,11.325
		c-4.896,2.414-9.97,3.926-15.249,5.138C111.393,87.9,100.84,88.8,90,88.8c-10.838,0-21.392-0.9-31.998-3.336
		c-5.275-1.212-10.349-2.724-15.242-5.135C38.727,78.342,32.4,74.781,32.4,69.001z"/>
	<path fill="#C6C6C6" d="M147.601,75.6c0-3.6,0-7.2,0-10.799c0-72-115.2-72-115.2,0c0,3.6,0,7.199,0,10.799v1.8
		c-0.901,0-1.35,0-1.576-0.225c-0.224-0.225-0.224-0.675-0.224-1.575c0-3.6,0-7.2,0-10.799c0-4.375,0.42-8.754,1.341-13.031
		c0.842-3.906,2.102-7.727,3.79-11.348c1.595-3.417,3.57-6.655,5.886-9.63c2.25-2.889,4.819-5.529,7.631-7.875
		c2.79-2.327,5.815-4.364,9.005-6.104c3.2-1.746,6.565-3.193,10.024-4.346c6.986-2.33,14.355-3.465,21.725-3.465
		c7.367,0,14.733,1.135,21.721,3.465c3.458,1.153,6.824,2.6,10.026,4.346c3.188,1.74,6.213,3.778,9.003,6.105
		c2.812,2.345,5.381,4.985,7.631,7.874c2.315,2.974,4.291,6.214,5.886,9.63c1.69,3.621,2.949,7.442,3.79,11.348
		c0.921,4.276,1.341,8.656,1.341,13.031c0,3.6,0,7.199,0,10.799c0,0.9,0,1.351-0.224,1.575c-0.227,0.225-0.674,0.225-1.575,0.225
		V75.6z"/>
	<path fill="#D32E22" d="M147.601,68.4c0,10.8,0,12.6-0.901,13.5c-0.9,0.9-2.699,0.9-9.899,0.9"/>
	<path fill="#D32E22" d="M32.4,68.4c0,10.8,0,12.6,0.9,13.5s2.699,0.9,9.899,0.9"/>
	<path opacity="0.6" fill="#B71408" d="M90,86.401c10.111,0,19.974-0.813,29.882-3.008c5.298-1.173,10.337-2.527,15.121-5.023
		c-5.247-3.299-10.835-4.84-16.762-6.151c-9.363-2.073-18.686-2.84-28.241-2.84c-9.563,0-18.888,0.769-28.259,2.844
		c-5.92,1.311-11.502,2.852-16.744,6.148c4.791,2.498,9.836,3.854,15.138,5.027C70.038,85.588,79.895,86.401,90,86.401z"/>
	<g>
		<path fill="#D13012" d="M90,70.807c9.556,0,18.878,0.768,28.241,2.84c5.43,1.201,10.572,2.612,15.431,5.375
			c0.444-0.211,0.891-0.422,1.331-0.652c-5.247-3.299-10.835-4.84-16.762-6.151c-9.363-2.073-18.686-2.84-28.241-2.84
			c-9.563,0-18.888,0.769-28.259,2.844c-5.92,1.311-11.502,2.852-16.744,6.148c0.44,0.23,0.887,0.44,1.331,0.652
			c4.854-2.76,9.991-4.17,15.413-5.371C71.112,71.576,80.438,70.807,90,70.807z"/>
	</g>
	<path fill="#D11F06" d="M41.347,100.8c0.296-0.049,0.188,0.257,0.246,0.413c0.152,0.428,0.258,0.867,0.358,1.309
		c0.138,0.603,0.253,1.209,0.354,1.819c0.103,0.609,0.19,1.22,0.258,1.835c0.049,0.45,0.093,0.899,0.087,1.354
		c-0.001,0.166,0.199,0.42-0.096,0.469c-0.295,0.05-0.188-0.256-0.244-0.413c-0.154-0.428-0.259-0.866-0.358-1.308
		c-0.139-0.603-0.254-1.209-0.356-1.819c-0.103-0.61-0.19-1.221-0.256-1.836c-0.05-0.45-0.095-0.899-0.088-1.354
		C41.253,101.105,41.053,100.85,41.347,100.8z"/>
	<path fill="#D11F06" d="M39.536,90c0.295-0.049,0.188,0.257,0.245,0.414c0.154,0.428,0.259,0.867,0.359,1.309
		c0.137,0.603,0.253,1.209,0.355,1.818c0.102,0.61,0.189,1.221,0.257,1.836c0.048,0.45,0.093,0.899,0.088,1.354
		c-0.003,0.166,0.198,0.42-0.097,0.47c-0.295,0.049-0.188-0.257-0.244-0.413c-0.154-0.428-0.258-0.866-0.358-1.309
		c-0.138-0.603-0.253-1.209-0.356-1.818c-0.103-0.61-0.189-1.221-0.257-1.836c-0.049-0.45-0.094-0.899-0.088-1.354
		C39.441,90.305,39.242,90.05,39.536,90z"/>
	<path fill="#D11F06" d="M138.653,100.8c-0.296-0.049-0.188,0.257-0.246,0.413c-0.152,0.428-0.258,0.867-0.358,1.309
		c-0.138,0.603-0.253,1.209-0.354,1.819c-0.103,0.609-0.19,1.22-0.258,1.835c-0.049,0.45-0.093,0.899-0.087,1.354
		c0.001,0.166-0.199,0.42,0.096,0.469c0.295,0.05,0.188-0.256,0.244-0.413c0.154-0.428,0.259-0.866,0.358-1.308
		c0.139-0.603,0.254-1.209,0.356-1.819c0.103-0.61,0.19-1.221,0.256-1.836c0.05-0.45,0.095-0.899,0.089-1.354
		C138.747,101.105,138.947,100.85,138.653,100.8z"/>
	<path fill="#D11F06" d="M140.464,90c-0.295-0.049-0.188,0.257-0.245,0.414c-0.154,0.428-0.259,0.867-0.359,1.309
		c-0.137,0.603-0.253,1.209-0.355,1.818c-0.102,0.61-0.189,1.221-0.257,1.836c-0.048,0.45-0.093,0.899-0.088,1.354
		c0.003,0.166-0.198,0.42,0.097,0.47c0.295,0.049,0.188-0.257,0.244-0.413c0.154-0.428,0.258-0.866,0.358-1.309
		c0.138-0.603,0.253-1.209,0.356-1.818c0.103-0.61,0.189-1.221,0.257-1.836c0.049-0.45,0.094-0.899,0.088-1.354
		C140.559,90.305,140.758,90.05,140.464,90z"/>
	<path fill="#D32E22" d="M90,13.546c7.426,0,10.519-0.414,12.065-0.483c1.547-0.068,1.547,0.207,1.753,0.345
		c0.208,0.139,0.619,0.139,0.825-0.088s0.206-0.68,0.206-1.362c0-0.68,0-1.588,0-2.269s0-1.134-0.206-1.361
		c-0.206-0.228-0.617-0.228-0.825-0.09c-0.206,0.139-0.206,0.415-1.753,0.346S97.426,8.1,90,8.1S79.481,8.515,77.935,8.583
		s-1.547-0.207-1.753-0.346C75.975,8.1,75.563,8.1,75.356,8.328C75.15,8.555,75.15,9.008,75.15,9.689s0,1.588,0,2.269
		c0,0.682,0,1.135,0.206,1.362s0.618,0.227,0.825,0.088c0.206-0.138,0.206-0.413,1.753-0.345C79.481,13.133,82.574,13.546,90,13.546
		z"/>
	<path fill="#DC3622" d="M141.3,78.004c-5.998,4.038-12.43,5.88-19.282,7.456C111.405,87.899,100.846,88.8,90,88.8
		c-10.838,0-21.392-0.9-31.998-3.336c-6.857-1.575-13.294-3.417-19.297-7.456c-2.9-1.952-6.305-4.893-6.305-9.007
		c0-4.113,3.4-7.052,6.3-9.004c5.998-4.038,12.43-5.88,19.283-7.456c10.611-2.439,21.171-3.34,32.017-3.34
		c10.84,0,21.393,0.9,31.998,3.336c6.857,1.575,13.295,3.417,19.297,7.457c2.9,1.952,6.306,4.892,6.306,9.008
		C147.601,73.113,144.199,76.052,141.3,78.004z M144,68.4c0-3.8-3.271-6.472-5.947-8.212c-5.683-3.694-11.749-5.359-18.188-6.784
		C109.962,51.213,100.105,50.4,90,50.4c-10.111,0-19.974,0.813-29.882,3.008c-6.436,1.425-12.498,3.09-18.176,6.783
		C39.269,61.932,36,64.603,36,68.4c0,3.801,3.271,6.472,5.947,8.212c5.683,3.694,11.749,5.359,18.188,6.785
		c9.903,2.191,19.76,3.003,29.865,3.003c10.111,0,19.974-0.813,29.882-3.008c6.436-1.425,12.498-3.09,18.176-6.783
		C140.733,74.87,144,72.199,144,68.4z"/>
</g>
</svg>
