<?xml version="1.0" encoding="utf-8"?>
<!-- Generator: Adobe Illustrator 16.0.0, SVG Export Plug-In . SVG Version: 6.00 Build 0)  -->
<!DOCTYPE svg PUBLIC "-//W3C//DTD SVG 1.1//EN" "http://www.w3.org/Graphics/SVG/1.1/DTD/svg11.dtd">
<svg version="1.1" id="圖層_1" xmlns="http://www.w3.org/2000/svg" xmlns:xlink="http://www.w3.org/1999/xlink" x="0px" y="0px"
	 width="48px" height="48px" viewBox="0 0 48 48" enable-background="new 0 0 48 48" xml:space="preserve">
<path fill="#C6C6C6" d="M21.466,9.985c0-0.851,0.373-1.276,1.117-1.276h2.711c0.824,0,1.238,0.399,1.238,1.196v2.671
	c0,0.825-0.4,1.236-1.197,1.236h-2.633c-0.822,0-1.236-0.399-1.236-1.196V9.985z M21.466,19.594c0-0.824,0.4-1.236,1.197-1.236
	h2.631c0.824,0,1.238,0.398,1.238,1.196v18.501c0,0.823-0.4,1.236-1.197,1.236h-2.672c-0.797,0-1.197-0.399-1.197-1.196V19.594z
	 M23.999,0c-13.254,0-24,10.745-24,24s10.746,24,24,24c13.256,0,24-10.745,24-24S37.255,0,23.999,0z"/>
</svg>
