<?xml version="1.0" encoding="utf-8"?>
<!-- Generator: Adobe Illustrator 19.2.1, SVG Export Plug-In . SVG Version: 6.00 Build 0)  -->
<svg version="1.1" id="圖層_1" xmlns="http://www.w3.org/2000/svg" xmlns:xlink="http://www.w3.org/1999/xlink" x="0px" y="0px"
	 viewBox="0 0 48 48" style="enable-background:new 0 0 48 48;" xml:space="preserve">
<style type="text/css">
	.st0{fill:#FFFFFF;}
</style>
<path class="st0" d="M26.7,18.5c0,2.7,2.2,4.9,4.9,4.9h1.3c-0.6-3.9-2.9-7.3-6.2-9.4V18.5z"/>
<path class="st0" d="M24,0C10.7,0,0,10.7,0,24c0,13.3,10.7,24,24,24c13.3,0,24-10.7,24-24C48,10.7,37.3,0,24,0z M29.2,39.1
	c-1.5,0.2-3,0.3-4.5,0.3c-1.6,0-3.2-0.1-4.8-0.4c-4.9-0.7-8.6-4.8-8.9-9.7c-0.1-1.7-0.1-3.4,0.1-5.1c0.4-3.5,1.5-6.6,3.3-9.6
	c0.2-0.3,0.6-0.4,0.9-0.2l0.7,0.5c0.4,0.2,0.4,0.5,0.2,0.9c-1.7,2.8-2.6,5.5-3,8.8c-0.2,1.6-0.2,3.1-0.1,4.7c0.2,3.9,3.2,7.1,7,7.7
	c2.9,0.4,5.7,0.4,8.6,0c2.3-0.3,4-2.2,4.2-4.4c0-0.4,0.3-0.6,0.7-0.6h0.8c0.2,0,0.4,0.1,0.5,0.2c0.1,0.1,0.2,0.3,0.2,0.5
	C35,35.9,32.4,38.6,29.2,39.1z M38.4,21.9c-0.1,0.1-0.3,0.2-0.5,0.2h-0.8c-0.4,0-0.7-0.2-0.7-0.6c-0.2-5.8-4.2-10.9-9.7-12.4v2.4
	c5.2,2.7,8.5,8,8.5,13.9v1.3c0,0.4-0.2,0.7-0.7,0.7h-0.9c-0.4,0-0.7-0.2-0.7-0.7v-1h-1.5c-3.9,0-7-3.2-7-7v-5.6
	c-0.9-0.4-1.9-0.6-2.9-0.8v8.1c0,4.6,3.7,8.3,8.3,8.3h1.3c0.4,0,0.7,0.2,0.7,0.7V30c0,0.4-0.2,0.7-0.7,0.7h-1.3
	c-5.8,0-10.4-4.7-10.4-10.4v-9.8c0-0.4,0.3-0.7,0.7-0.7c1.5,0,3,0.3,4.4,0.8V7.2c0-0.4,0.3-0.7,0.8-0.7c7.5,1.1,13.1,7.4,13.3,14.9
	C38.6,21.6,38.6,21.8,38.4,21.9z"/>
</svg>
