<svg id="圖層_1" data-name="圖層 1" xmlns="http://www.w3.org/2000/svg" xmlns:xlink="http://www.w3.org/1999/xlink" viewBox="0 0 754.46 1219.44"><defs><style>.cls-1{fill:none;}.cls-2{fill:#704848;}.cls-3{clip-path:url(#clip-path);}</style><clipPath id="clip-path"><path class="cls-1" d="M199.14,701.05H150V675.52h49.17v25.53Zm201.72,0H382.25V675.52h18.61v25.53Zm197.24-25.53H557.56v25.53h40.54V675.52Z"/></clipPath></defs><title>bg4_s</title><path class="cls-2" d="M215.15,677a0.58,0.58,0,0,1,.75-0.47l1,0.19q0.75,0.16.61,0.47c-0.09.22,0,.33,0.42,0.33h6.17a0.63,0.63,0,0,1,.72.7v6.14a0.63,0.63,0,0,1-.7.72h-4.56q-0.56,0-.58.23c0,0.17.19,0.26,0.56,0.26h5.89a0.63,0.63,0,0,1,.72.7v1.71a0.63,0.63,0,0,1-.7.72h-0.89a1,1,0,0,0-.77.23,1.83,1.83,0,0,1-.7.35,11.06,11.06,0,0,1-3.36,0,1.21,1.21,0,0,1-1.05-1.31,0.58,0.58,0,0,0-.7-0.61,1.2,1.2,0,0,0-1.1.63q-0.54.61,0,.61h1q0.72,0,.72.54a0.5,0.5,0,0,0,.56.56h6.21a0.63,0.63,0,0,1,.72.7v0.35a0.63,0.63,0,0,1-.7.72h-8.92q-0.56,0-.58.26c0,0.14.19,0.21,0.56,0.21h7.66a0.62,0.62,0,0,1,.7.7,9.3,9.3,0,0,1-.26,1.64,1.88,1.88,0,0,1-1,1.26,6.54,6.54,0,0,1-3.11.07,1.23,1.23,0,0,1-.91-0.89l0-.21q-0.16-.7.58-0.44a4.37,4.37,0,0,0,1.82.09,0.83,0.83,0,0,0,.47-0.47c0-.11-0.14-0.16-0.51-0.16h-6a1.79,1.79,0,0,0-1.21.7,5.5,5.5,0,0,1-1.59,1.1q-0.63.35,0.16,0.44l3.41,0.16H222q1.75-.07,3.57-0.23,0.86-.09.49,0.65a7.81,7.81,0,0,0-.47,1.24,0.88,0.88,0,0,1-.91.7h-8.34a35.16,35.16,0,0,1-4-.33,8.78,8.78,0,0,1-3.67-1.26,0.82,0.82,0,0,0-1.12.16l-0.75.75q-0.68.68-1.12-.07a11.61,11.61,0,0,0-.75-1.12q-0.51-.7.19-1a5.09,5.09,0,0,1,.79-0.26,0.81,0.81,0,0,0,.56-0.79v-4.16a0.51,0.51,0,0,0-.56-0.58h-0.58a0.63,0.63,0,0,1-.72-0.7v-1.14a0.63,0.63,0,0,1,.7-0.72h3.08a0.63,0.63,0,0,1,.72.7v6.19a1.23,1.23,0,0,0,.7,1,6.06,6.06,0,0,0,1.5.54q0.58,0.12.09-.61l-0.21-.28q-0.63-.84.14-1.12a3.8,3.8,0,0,0,2-1.61c0.09-.29,0-0.44-0.42-0.44H210.5a0.63,0.63,0,0,1-.72-0.7v-0.35a0.63,0.63,0,0,1,.7-0.72h2.15q0.58,0,.26-0.68t0.47-.84a6.06,6.06,0,0,0,.77-0.33q0.79-.49.19-0.49H213a0.52,0.52,0,0,0-.58.58,0.59,0.59,0,0,1-.7.63h-1a0.63,0.63,0,0,1-.72-0.7v-1.54a0.63,0.63,0,0,1,.7-0.72h5.07c0.37,0,.57-0.08.58-0.23s-0.19-.26-0.56-0.26h-3.57a0.63,0.63,0,0,1-.72-0.7v-6.14a0.63,0.63,0,0,1,.7-0.72h2.22A0.73,0.73,0,0,0,215.15,677Zm-9.34,5.19a1,1,0,0,1,1.4-.28,13.32,13.32,0,0,1,1.12.84,1,1,0,0,1,.21,1.5l-0.63.77a0.81,0.81,0,0,1-1.35.07,14.88,14.88,0,0,0-1.24-1,0.7,0.7,0,0,1-.16-1.19Zm1.26-4.37a1.13,1.13,0,0,1,1.42-.4q0.7,0.44,1.4,1a0.82,0.82,0,0,1,.14,1.31l-0.75.93a0.75,0.75,0,0,1-1.26.07q-0.7-.58-1.43-1.1a0.64,0.64,0,0,1-.14-1.12Zm15.23,1.66q0-.28-0.51-0.28h-7.2c-0.37,0-.57.08-0.58,0.23s0.21,0.23.58,0.23h7.15Q222.3,679.61,222.3,679.43Zm0,1.87q0-.28-0.51-0.28h-7.22c-0.37,0-.57.08-0.58,0.23s0.21,0.23.58,0.23h7.15Q222.3,681.48,222.32,681.3Zm0,1.85q0-.28-0.58-0.28h-7.15c-0.37,0-.57.08-0.58,0.23s0.19,0.28.56,0.28h7.17C222.11,683.38,222.31,683.3,222.32,683.14Zm-6.26,6.07q0-.51-0.65-0.14l-0.42.21q-0.82.33,0,.33h0.49Q216.06,689.61,216.06,689.22Zm7.64-1.59q0-.35-0.54-0.35h-2q-0.56,0-.58.19a0.42,0.42,0,0,0,.58.44,5.42,5.42,0,0,0,1,0,0.84,0.84,0,0,0,.28-0.23q0.14-.21.72,0.07T223.7,687.63Z"/><path class="cls-2" d="M230.2,681.81q0-.77.7-0.61a6,6,0,0,1,.89.21,0.78,0.78,0,0,1,.65.89,53.63,53.63,0,0,1-.75,5.84q-0.16.77-.93,0.4l-0.61-.33a1,1,0,0,1-.63-1.07A46.23,46.23,0,0,0,230.2,681.81Zm2.85-4.35a0.62,0.62,0,0,1,.65-0.75h1.21a0.63,0.63,0,0,1,.72.7v3.22q0,0.61.58-.09a0.82,0.82,0,0,1,1.35-.19l0.47,0.37a0.91,0.91,0,0,1,.26,1.4,12,12,0,0,1-2.06,1.94,1.47,1.47,0,0,0-.63,1.14,31.05,31.05,0,0,1-.44,4.44,1.18,1.18,0,0,0,.56,1.12l1.94,1.73a0.93,0.93,0,0,1,.16,1.36l-0.7,1q-0.56.77-1.07,0.09t-1.21-1.47q-0.47-.51-0.72.23a16.33,16.33,0,0,1-1.8,3.86,0.81,0.81,0,0,1-1.33.14l-0.47-.37a1,1,0,0,1-.4-1.4A23.39,23.39,0,0,0,233,685v-7.5Zm9.25-.09a0.63,0.63,0,0,1,.68-0.75h1.17a0.63,0.63,0,0,1,.72.7V678a0.51,0.51,0,0,0,.56.58h1.17a0.63,0.63,0,0,1,.72.7v0.47q0,0.61.51-.19l0.4-.65a0.88,0.88,0,0,1,1.12-.44l1.19,0.4a0.56,0.56,0,0,1,.3.93q-0.84,1.43-1.68,2.57-0.58.72,0,.72h1.35a0.63,0.63,0,0,1,.72.7v1a0.63,0.63,0,0,1-.7.72h-3.71a2.08,2.08,0,0,0-1.26.58l-0.49.37q-0.65.44,0,.44h4.67a0.63,0.63,0,0,1,.72.7v1a0.63,0.63,0,0,1-.7.72h-6.66a0.74,0.74,0,0,0-.75.61q-0.09.63,0.47,0.63h6.61a0.61,0.61,0,0,1,.7.7,15.92,15.92,0,0,1-1,5.61,2.52,2.52,0,0,1-1.73,1.26,5.47,5.47,0,0,1-2.8,0,1.06,1.06,0,0,1-1-.89l-0.23-1.05q-0.16-.73.58-0.61l1.61,0.16a3.51,3.51,0,0,0,1.15-.16,2.74,2.74,0,0,0,.7-2.08,0.5,0.5,0,0,0-.56-0.56h-4.67a0.68,0.68,0,0,0-.7.61,0.63,0.63,0,0,1-.84.49,10,10,0,0,0-1.17-.16,0.6,0.6,0,0,1-.58-0.79l0.7-2.9q0.12-.56-0.58-0.26l-0.93.4a0.86,0.86,0,0,1-1.12-.44l-0.37-.7q-0.44-.77.26-1.07a28.34,28.34,0,0,0,4.42-2.22q0.56-.42-0.16-0.42h-2.57a0.63,0.63,0,0,1-.72-0.7v-1a0.63,0.63,0,0,1,.7-0.72h3.22a0.51,0.51,0,0,0,.58-0.56V681.6a0.51,0.51,0,0,0-.56-0.58h-1.89a0.63,0.63,0,0,1-.72-0.7v-1a0.63,0.63,0,0,1,.7-0.72h1.89a0.51,0.51,0,0,0,.58-0.56v-0.65Zm4,4.28q0.44-.63,0-0.63h-0.84a0.51,0.51,0,0,0-.58.56v1q0,0.68.63,0Z"/><path class="cls-2" d="M265.39,677a0.58,0.58,0,0,1,.75-0.47l1,0.19q0.75,0.16.61,0.47c-0.09.22,0,.33,0.42,0.33h6.17a0.63,0.63,0,0,1,.72.7v6.14a0.63,0.63,0,0,1-.7.72h-4.56q-0.56,0-.58.23c0,0.17.19,0.26,0.56,0.26h5.89a0.63,0.63,0,0,1,.72.7v1.71a0.63,0.63,0,0,1-.7.72h-0.89a1,1,0,0,0-.77.23,1.83,1.83,0,0,1-.7.35,11.06,11.06,0,0,1-3.36,0,1.21,1.21,0,0,1-1.05-1.31,0.58,0.58,0,0,0-.7-0.61,1.2,1.2,0,0,0-1.1.63q-0.54.61,0,.61h1q0.72,0,.72.54a0.5,0.5,0,0,0,.56.56h6.21a0.63,0.63,0,0,1,.72.7v0.35a0.63,0.63,0,0,1-.7.72h-8.92q-0.56,0-.58.26c0,0.14.19,0.21,0.56,0.21h7.66a0.62,0.62,0,0,1,.7.7,9.3,9.3,0,0,1-.26,1.64,1.88,1.88,0,0,1-1,1.26,6.54,6.54,0,0,1-3.11.07,1.23,1.23,0,0,1-.91-0.89l0-.21q-0.16-.7.58-0.44a4.37,4.37,0,0,0,1.82.09,0.83,0.83,0,0,0,.47-0.47c0-.11-0.14-0.16-0.51-0.16h-6a1.79,1.79,0,0,0-1.21.7,5.5,5.5,0,0,1-1.59,1.1q-0.63.35,0.16,0.44l3.41,0.16h5.42q1.75-.07,3.57-0.23,0.86-.09.49,0.65a7.81,7.81,0,0,0-.47,1.24,0.88,0.88,0,0,1-.91.7h-8.34a35.16,35.16,0,0,1-4-.33,8.78,8.78,0,0,1-3.67-1.26,0.82,0.82,0,0,0-1.12.16l-0.75.75q-0.68.68-1.12-.07a11.61,11.61,0,0,0-.75-1.12q-0.51-.7.19-1a5.09,5.09,0,0,1,.79-0.26,0.81,0.81,0,0,0,.56-0.79v-4.16a0.51,0.51,0,0,0-.56-0.58H255.6a0.63,0.63,0,0,1-.72-0.7v-1.14a0.63,0.63,0,0,1,.7-0.72h3.08a0.63,0.63,0,0,1,.72.7v6.19a1.23,1.23,0,0,0,.7,1,6.06,6.06,0,0,0,1.5.54q0.58,0.12.09-.61l-0.21-.28q-0.63-.84.14-1.12a3.8,3.8,0,0,0,2-1.61c0.09-.29,0-0.44-0.42-0.44h-2.43a0.63,0.63,0,0,1-.72-0.7v-0.35a0.63,0.63,0,0,1,.7-0.72h2.15q0.58,0,.26-0.68t0.47-.84a6.06,6.06,0,0,0,.77-0.33q0.79-.49.19-0.49h-1.33a0.52,0.52,0,0,0-.58.58,0.59,0.59,0,0,1-.7.63h-1a0.63,0.63,0,0,1-.72-0.7v-1.54a0.63,0.63,0,0,1,.7-0.72H266c0.37,0,.57-0.08.58-0.23S266.39,685,266,685h-3.57a0.63,0.63,0,0,1-.72-0.7v-6.14a0.63,0.63,0,0,1,.7-0.72h2.22A0.73,0.73,0,0,0,265.39,677ZM256,682.14a1,1,0,0,1,1.4-.28,13.32,13.32,0,0,1,1.12.84,1,1,0,0,1,.21,1.5l-0.63.77a0.81,0.81,0,0,1-1.35.07,14.88,14.88,0,0,0-1.24-1,0.7,0.7,0,0,1-.16-1.19Zm1.26-4.37a1.13,1.13,0,0,1,1.42-.4q0.7,0.44,1.4,1a0.82,0.82,0,0,1,.14,1.31l-0.75.93a0.75,0.75,0,0,1-1.26.07q-0.7-.58-1.43-1.1a0.64,0.64,0,0,1-.14-1.12Zm15.23,1.66q0-.28-0.51-0.28h-7.2c-0.37,0-.57.08-0.58,0.23s0.21,0.23.58,0.23H272Q272.54,679.61,272.54,679.43Zm0,1.87q0-.28-0.51-0.28h-7.22c-0.37,0-.57.08-0.58,0.23s0.21,0.23.58,0.23H272Q272.54,681.48,272.56,681.3Zm0,1.85q0-.28-0.58-0.28h-7.15c-0.37,0-.57.08-0.58,0.23s0.19,0.28.56,0.28H272C272.35,683.38,272.54,683.3,272.56,683.14Zm-6.26,6.07q0-.51-0.65-0.14l-0.42.21q-0.82.33,0,.33h0.49Q266.3,689.61,266.3,689.22Zm7.64-1.59q0-.35-0.54-0.35h-2q-0.56,0-.58.19a0.42,0.42,0,0,0,.58.44,5.42,5.42,0,0,0,1,0,0.84,0.84,0,0,0,.28-0.23q0.14-.21.72,0.07T273.94,687.63Z"/><path class="cls-2" d="M282.42,677.18q7.8-.12,15.63-0.42a1.23,1.23,0,0,1,1.26.65l0.35,0.72q0.4,0.79-.4.84-3.71.21-7.43,0.33a0.75,0.75,0,0,0-.72.47q-0.16.42,0.4,0.42h7.73a0.63,0.63,0,0,1,.72.7v1a0.63,0.63,0,0,1-.7.72h-8.83a0.82,0.82,0,0,0-.77.35q-0.14.35,0.42,0.35h10.68a0.63,0.63,0,0,1,.72.7V685a0.63,0.63,0,0,1-.7.72H288.47a1.15,1.15,0,0,0-.93.47q-0.42.49,0.16,0.49h10.93a0.63,0.63,0,0,1,.72.7v10.16a0.63,0.63,0,0,1-.7.72h-1.19q-0.72,0-.72-0.35t-0.56-.4h-8.69q-0.58,0-.58.35t-0.7.4H285a0.63,0.63,0,0,1-.72-0.7v-7.48q0-.56-0.7,0T282,691.16a0.74,0.74,0,0,1-1.14-.35l-0.49-.93a0.84,0.84,0,0,1,.28-1.24,17,17,0,0,0,2.73-2.13q0.75-.75.16-0.75H280.9a0.63,0.63,0,0,1-.72-0.7V684a0.63,0.63,0,0,1,.7-0.72h4.77a1,1,0,0,0,.82-0.35q0.16-.35-0.4-0.35h-4a0.63,0.63,0,0,1-.72-0.7v-1a0.63,0.63,0,0,1,.7-0.72h5.35a0.77,0.77,0,0,0,.75-0.35q0.19-.37-0.51-0.37l-4.37.09a0.92,0.92,0,0,1-1-.7l-0.35-1A0.47,0.47,0,0,1,282.42,677.18Zm14.32,12.29a0.43,0.43,0,0,0-.54-0.42h-8.71q-0.58,0-.58.35c0,0.27.19,0.4,0.56,0.4h8.69C296.55,689.8,296.74,689.69,296.74,689.47Zm0,2.76q0-.4-0.54-0.4h-8.71q-0.58,0-.58.33c0,0.25.19,0.37,0.56,0.37h8.69C296.55,692.53,296.74,692.43,296.74,692.23Zm0,2.76a0.43,0.43,0,0,0-.54-0.42h-8.71q-0.58,0-.58.37t0.56,0.4h8.69Q296.74,695.34,296.74,695Z"/><path class="cls-2" d="M305.84,678.66a0.63,0.63,0,0,1,.7-0.72h18.95a0.63,0.63,0,0,1,.72.7v1.26a0.63,0.63,0,0,1-.7.72h-6.8a1.14,1.14,0,0,0-1,.7,2.53,2.53,0,0,0-.7,1.71v14.46a0.63,0.63,0,0,1-.7.72h-1.5a0.63,0.63,0,0,1-.72-0.7V687.16q0-.58-0.51.09a43,43,0,0,1-5.56,5.61,1,1,0,0,1-1.52,0l-0.7-.72a0.73,0.73,0,0,1,0-1.24,38.14,38.14,0,0,0,8.76-9.65q0.35-.61-0.19-0.61h-7.9a0.62,0.62,0,0,1-.7-0.7v-1.26Zm13.76,5.54a0.9,0.9,0,0,1,1.31,0,52.39,52.39,0,0,1,5.28,6.4,1,1,0,0,1-.07,1.4L325,693.12a0.66,0.66,0,0,1-1.17-.07,69.74,69.74,0,0,0-5.14-6.73q-0.79-.89-0.07-1.43Z"/><path class="cls-2" d="M339.51,677.46a0.62,0.62,0,0,1,.65-0.75h1.29a0.63,0.63,0,0,1,.72.7v6.31a0.51,0.51,0,0,0,.56.58h3.48a0.51,0.51,0,0,0,.58-0.56v-4.7a0.63,0.63,0,0,1,.7-0.72h1.28a0.63,0.63,0,0,1,.72.7v7a0.63,0.63,0,0,1-.7.72h-6.05a0.51,0.51,0,0,0-.58.56v6.57a0.51,0.51,0,0,0,.56.58h4.6a0.51,0.51,0,0,0,.58-0.56v-4.7a0.63,0.63,0,0,1,.7-0.72h1.26a0.63,0.63,0,0,1,.72.7v8.27a0.63,0.63,0,0,1-.7.72h-1.26q-0.72,0-.72-0.54a0.51,0.51,0,0,0-.56-0.58h-13a0.52,0.52,0,0,0-.58.58,0.59,0.59,0,0,1-.7.63H331.8a0.63,0.63,0,0,1-.72-0.7v-8.36a0.63,0.63,0,0,1,.7-0.72h1.28a0.63,0.63,0,0,1,.72.7v4.7a0.51,0.51,0,0,0,.56.58h4.58a0.51,0.51,0,0,0,.58-0.56v-6.56a0.51,0.51,0,0,0-.56-0.58h-6a0.63,0.63,0,0,1-.72-0.7V679a0.63,0.63,0,0,1,.7-0.72h1.29a0.63,0.63,0,0,1,.72.7v4.79a0.51,0.51,0,0,0,.56.58h3.46a0.51,0.51,0,0,0,.58-0.56v-6.28Z"/><path class="cls-2" d="M359.06,677.37a0.81,0.81,0,0,1,1-.54l1.14,0.33q0.7,0.23.56,0.56t0.58,0.72q0.93,0.51,2.15,1.33a0.77,0.77,0,0,1,.07,1.24l-0.37.47q-0.61.75-.37,0.77t0.23,0.72v1a0.63,0.63,0,0,1-.7.72h-0.93a0.51,0.51,0,0,0-.58.56V686a0.51,0.51,0,0,0,.56.58h1.47a0.63,0.63,0,0,1,.72.7v1.1a0.63,0.63,0,0,1-.7.72h-1.47a0.51,0.51,0,0,0-.58.56v4.44q0,0.56.7,0.51l1.17-.14a0.74,0.74,0,0,1,1,.61l0.12,0.75a0.76,0.76,0,0,1-.54,1.05q-3.43.61-7.34,1a0.73,0.73,0,0,1-.86-0.63,10,10,0,0,1-.21-1.19,0.64,0.64,0,0,1,.65-0.86l2.13-.16a0.57,0.57,0,0,0,.56-0.63v-4.74a0.51,0.51,0,0,0-.56-0.58h-1.64a0.63,0.63,0,0,1-.72-0.7v-1.1a0.63,0.63,0,0,1,.7-0.72h1.64a0.51,0.51,0,0,0,.58-0.56v-0.75a0.51,0.51,0,0,0-.56-0.58h-0.33c-0.48,0-.72-0.13-0.72-0.4s-0.08-.39-0.23-0.23-0.44,0-.91-0.51L356,683a0.86,0.86,0,0,1,0-1.38A18,18,0,0,0,359.06,677.37Zm-2.2,13a0.78,0.78,0,0,1,1.19.3l0.63,1.64a0.82,0.82,0,0,1-.42,1.19l-1,.44a0.56,0.56,0,0,1-.89-0.4q-0.23-.91-0.56-1.82a0.73,0.73,0,0,1,.37-1.05Zm4.21-9.53a0.62,0.62,0,0,0-1,0l-0.49.72q-0.44.61,0.09,0.61h2.64q0.61,0-.14-0.56Zm1.78,9.44a0.59,0.59,0,0,1,.84-0.51,6.87,6.87,0,0,1,.93.21,0.72,0.72,0,0,1,.68.84l-0.49,2.36a0.67,0.67,0,0,1-1,.54l-0.89-.28a0.73,0.73,0,0,1-.51-1Q362.69,691.41,362.85,690.31Zm4.44-12.85a0.62,0.62,0,0,1,.65-0.75h1.33a0.63,0.63,0,0,1,.72.7v1.26a0.51,0.51,0,0,0,.56.58h1.1a0.51,0.51,0,0,0,.58-0.56v-1.26a0.63,0.63,0,0,1,.7-0.72h1.28a0.63,0.63,0,0,1,.72.7v1.26a0.51,0.51,0,0,0,.56.58H376a0.63,0.63,0,0,1,.72.7V681a0.63,0.63,0,0,1-.7.72h-0.44a0.51,0.51,0,0,0-.58.56v0.93a0.51,0.51,0,0,0,.56.58h0.84a0.63,0.63,0,0,1,.72.7v1.1a0.63,0.63,0,0,1-.7.72h-10.7a0.63,0.63,0,0,1-.72-0.7v-1.1a0.63,0.63,0,0,1,.7-0.72h1.05a0.51,0.51,0,0,0,.58-0.56v-0.93a0.51,0.51,0,0,0-.56-0.58h-0.42a0.63,0.63,0,0,1-.72-0.7V680a0.63,0.63,0,0,1,.7-0.72h0.42a0.51,0.51,0,0,0,.58-0.56v-1.24Zm-1.5,10.44a0.62,0.62,0,0,1,.7-0.7h9.23a0.63,0.63,0,0,1,.72.7v9.67a0.63,0.63,0,0,1-.7.72h-1.19q-0.72,0-.72-0.54a0.51,0.51,0,0,0-.56-0.58H369a0.5,0.5,0,0,0-.58.54,0.57,0.57,0,0,1-.7.58h-1.17a0.63,0.63,0,0,1-.72-0.7v-9.7Zm8,2.38q0-.7-0.54-0.7H369a0.67,0.67,0,0,0,0,1.33h4.3A0.54,0.54,0,0,0,373.83,690.29Zm0,3.78a0.58,0.58,0,0,0-.56-0.72H369a0.56,0.56,0,0,0-.58.68,0.58,0.58,0,0,0,.56.72h4.3A0.56,0.56,0,0,0,373.83,694.08Zm-1.59-11.73a0.51,0.51,0,0,0-.54-0.61h-1.12a0.51,0.51,0,0,0-.58.56v0.93a0.51,0.51,0,0,0,.56.58h1.1a0.51,0.51,0,0,0,.58-0.56v-0.91Z"/><path class="cls-2" d="M412,677a0.81,0.81,0,0,1,1.24.16l0.58,0.93a1,1,0,0,0,.91.56h2.85a1,1,0,0,0,.91-0.7l0.26-.7a0.73,0.73,0,0,1,1-.54l1.35,0.37q0.82,0.26.47,0.93t0.28,0.63h3.67a0.63,0.63,0,0,1,.72.7v1.19a0.63,0.63,0,0,1-.7.72h-7.45a0.57,0.57,0,1,0,0,1.14h6.75a0.63,0.63,0,0,1,.72.7v1.17a0.63,0.63,0,0,1-.7.72h-6.75a0.57,0.57,0,0,0,0,1.14h8a0.63,0.63,0,0,1,.72.7V688a0.63,0.63,0,0,1-.7.72h-10.4q-0.54,0,.14.19l0.47,0.09c0.5,0.11.72,0.33,0.65,0.68a0.43,0.43,0,0,0,.47.58h8.08a0.63,0.63,0,0,1,.72.7v1.14a0.63,0.63,0,0,1-.7.72H420q-0.75,0-.12.44a17.67,17.67,0,0,0,6.35,2.08q0.86,0.14.54,0.89l-0.49,1.21a0.86,0.86,0,0,1-1,.58,18.61,18.61,0,0,1-7.45-3.13,12,12,0,0,1-1.4-1.21q-0.56-.58-0.86-0.09a9.8,9.8,0,0,1-1.47,1.68,15.51,15.51,0,0,1-6.49,2.85,0.93,0.93,0,0,1-1.07-.61l-0.54-1.17q-0.35-.7.35-0.84a13.18,13.18,0,0,0,5.58-2.15q0.51-.54,0-0.54h-5a0.63,0.63,0,0,1-.72-0.7V691a0.63,0.63,0,0,1,.7-0.72h6.56a0.81,0.81,0,0,0,.77-0.7l0-.21q0.12-.63-0.4-0.63h-7.55a0.63,0.63,0,0,1-.72-0.7V686.9a0.63,0.63,0,0,1,.7-0.72h8a0.57,0.57,0,1,0,0-1.14h-6.87a0.63,0.63,0,0,1-.72-0.7v-1.17a0.63,0.63,0,0,1,.7-0.72h6.87a0.57,0.57,0,1,0,0-1.14H406.9a0.63,0.63,0,0,1-.72-0.7V679.4a0.63,0.63,0,0,1,.7-0.72h3.53q0.58,0,.35-0.33t0.56-.84Z"/><path class="cls-2" d="M443.25,677.46a0.62,0.62,0,0,1,.65-0.75h1.24a0.63,0.63,0,0,1,.72.7v2.2a0.51,0.51,0,0,0,.56.58h3.85a0.63,0.63,0,0,1,.72.7V682a0.63,0.63,0,0,1-.7.72h-3.85a0.51,0.51,0,0,0-.58.56V685a0.51,0.51,0,0,0,.56.58h4.79a0.63,0.63,0,0,1,.72.7v1.19a0.63,0.63,0,0,1-.7.72H448q-0.58,0-.16.72a23.45,23.45,0,0,0,3.67,4.37,0.94,0.94,0,0,1,.21,1.47l-0.61.77q-0.75.86-1.38,0.23a31.47,31.47,0,0,1-3.39-4.58q-0.44-.68-0.44,0v6.33a0.63,0.63,0,0,1-.7.72H444a0.63,0.63,0,0,1-.72-0.7v-6.12q0-.61-0.54.19a19.83,19.83,0,0,1-4.3,4.39,0.71,0.71,0,0,1-1.12-.26,5.3,5.3,0,0,1-.4-0.7q-0.49-.89-0.12-1.17t-0.14-.33h-2.55a0.51,0.51,0,0,0-.58.56v0.51a0.63,0.63,0,0,1-.7.72h-1.17a0.63,0.63,0,0,1-.72-0.7V678.77a0.63,0.63,0,0,1,.7-0.72H437a0.63,0.63,0,0,1,.72.7v13.92q0,0.56.75,0a16.87,16.87,0,0,0,3.25-3.85q0.33-.56-0.23-0.56H439a0.63,0.63,0,0,1-.72-0.7v-1.19a0.63,0.63,0,0,1,.7-0.72h3.67a0.51,0.51,0,0,0,.58-0.56v-1.68a0.51,0.51,0,0,0-.56-0.58h-3a0.63,0.63,0,0,1-.72-0.7v-1.15a0.63,0.63,0,0,1,.7-0.72h3a0.51,0.51,0,0,0,.58-0.56v-2.17Zm-8.13,3.74a0.51,0.51,0,0,0-.56-0.58h-0.47a0.51,0.51,0,0,0-.58.56v9.27a0.51,0.51,0,0,0,.56.58h0.47a0.51,0.51,0,0,0,.58-0.56V681.2Z"/><path class="cls-2" d="M456.27,681.81q0-.77.7-0.61a6,6,0,0,1,.89.21,0.78,0.78,0,0,1,.65.89,53.63,53.63,0,0,1-.75,5.84q-0.16.77-.93,0.4l-0.61-.33a1,1,0,0,1-.63-1.07A46.23,46.23,0,0,0,456.27,681.81Zm2.85-4.35a0.62,0.62,0,0,1,.65-0.75H461a0.63,0.63,0,0,1,.72.7v3.22q0,0.61.58-.09a0.82,0.82,0,0,1,1.35-.19l0.47,0.37a0.91,0.91,0,0,1,.26,1.4,12,12,0,0,1-2.06,1.94,1.47,1.47,0,0,0-.63,1.14,31.05,31.05,0,0,1-.44,4.44,1.18,1.18,0,0,0,.56,1.12l1.94,1.73a0.93,0.93,0,0,1,.16,1.36l-0.7,1q-0.56.77-1.07,0.09t-1.21-1.47q-0.47-.51-0.72.23a16.33,16.33,0,0,1-1.8,3.86,0.81,0.81,0,0,1-1.33.14l-0.47-.37a1,1,0,0,1-.4-1.4A23.39,23.39,0,0,0,459.12,685v-7.5Zm9.25-.09a0.63,0.63,0,0,1,.68-0.75h1.17a0.63,0.63,0,0,1,.72.7V678a0.51,0.51,0,0,0,.56.58h1.17a0.63,0.63,0,0,1,.72.7v0.47q0,0.61.51-.19l0.4-.65a0.88,0.88,0,0,1,1.12-.44l1.19,0.4a0.57,0.57,0,0,1,.3.93q-0.84,1.43-1.68,2.57-0.58.72,0,.72h1.36a0.63,0.63,0,0,1,.72.7v1a0.63,0.63,0,0,1-.7.72H472.9a2.08,2.08,0,0,0-1.26.58l-0.49.37q-0.65.44,0,.44h4.67a0.63,0.63,0,0,1,.72.7v1a0.63,0.63,0,0,1-.7.72h-6.66a0.74,0.74,0,0,0-.75.61q-0.09.63,0.47,0.63h6.61a0.61,0.61,0,0,1,.7.7,15.92,15.92,0,0,1-1,5.61,2.52,2.52,0,0,1-1.73,1.26,5.46,5.46,0,0,1-2.8,0,1.06,1.06,0,0,1-1-.89l-0.23-1.05q-0.16-.73.58-0.61l1.61,0.16a3.51,3.51,0,0,0,1.15-.16,2.74,2.74,0,0,0,.7-2.08,0.5,0.5,0,0,0-.56-0.56h-4.67a0.68,0.68,0,0,0-.7.61,0.63,0.63,0,0,1-.84.49,10,10,0,0,0-1.17-.16,0.6,0.6,0,0,1-.58-0.79l0.7-2.9q0.12-.56-0.58-0.26l-0.93.4a0.86,0.86,0,0,1-1.12-.44l-0.37-.7q-0.44-.77.26-1.07a28.34,28.34,0,0,0,4.42-2.22q0.56-.42-0.16-0.42h-2.57a0.63,0.63,0,0,1-.72-0.7v-1a0.63,0.63,0,0,1,.7-0.72h3.22a0.51,0.51,0,0,0,.58-0.56V681.6a0.51,0.51,0,0,0-.56-0.58h-1.89a0.63,0.63,0,0,1-.72-0.7v-1a0.63,0.63,0,0,1,.7-0.72h1.89a0.51,0.51,0,0,0,.58-0.56v-0.65Zm4,4.28q0.44-.63,0-0.63h-0.84a0.51,0.51,0,0,0-.58.56v1q0,0.68.63,0Z"/><path class="cls-2" d="M489.87,677.49q0-.77.7-0.65a9.66,9.66,0,0,1,1.12.21,0.86,0.86,0,0,1,.82.89l0,0.82a0.49,0.49,0,0,0,.51.61h7.92a0.63,0.63,0,0,1,.72.7v15.21a2.81,2.81,0,0,1-2.48,2.87,5.33,5.33,0,0,1-2.2-.07,1.08,1.08,0,0,1-.89-0.84l-0.28-1.45q-0.14-.7.56-0.51a4.7,4.7,0,0,0,2.17.19,1.15,1.15,0,0,0,.37-0.82v-12a0.51,0.51,0,0,0-.56-0.58h-5.79a0.69,0.69,0,0,0-.65.21q-0.09.23,0.63,0.54a32.82,32.82,0,0,1,5.26,2.92,0.85,0.85,0,0,1,.19,1.35l-0.63.93a0.72,0.72,0,0,1-1.17.21,30.28,30.28,0,0,0-4.67-2.83,0.88,0.88,0,0,0-1.21.3,13.29,13.29,0,0,1-3.32,3.13,0.92,0.92,0,0,1-1.4-.23L485.1,688q-0.58-.77,0-1.19a10.07,10.07,0,0,0,3.71-4.18q0.23-.58-0.33-0.58h-3.71a0.51,0.51,0,0,0-.58.56v15a0.63,0.63,0,0,1-.7.72h-1.29a0.63,0.63,0,0,1-.72-0.7V680.08a0.63,0.63,0,0,1,.7-0.72h6.89a0.66,0.66,0,0,0,.65-0.7A7.36,7.36,0,0,0,489.87,677.49Zm0.44,9.7a0.75,0.75,0,0,1,.89-0.63l1.14,0.14a0.66,0.66,0,0,1,.68.87l-0.33,1.1a0.68,0.68,0,0,0,.51.91,30.67,30.67,0,0,1,4,2.41,0.92,0.92,0,0,1,.3,1.4l-0.51.75q-0.63.91-1.33,0.3a27.6,27.6,0,0,0-3.88-2.57,0.89,0.89,0,0,0-1.12.47,12.93,12.93,0,0,1-3.62,3.06,1,1,0,0,1-1.42-.28,7.38,7.38,0,0,1-.54-0.75q-0.58-.77.12-1.17A9.93,9.93,0,0,0,490.31,687.18Z"/><path class="cls-2" d="M508.8,677.46a0.62,0.62,0,0,1,.65-0.75h1.33a0.63,0.63,0,0,1,.72.7v2.38a0.51,0.51,0,0,0,.56.58h1.21a0.63,0.63,0,0,1,.72.7v1.14a0.63,0.63,0,0,1-.7.72h-1.21a0.51,0.51,0,0,0-.58.56v2.43q0,0.56.7,0.37l0.65-.21a0.56,0.56,0,0,1,.82.49,6.3,6.3,0,0,0,.16.82,1,1,0,0,1-.63,1.14q-0.56.21-1.14,0.49a0.85,0.85,0,0,0-.56.82v5.35a5.87,5.87,0,0,1-.37,1.87A3.07,3.07,0,0,1,508,698.3l-0.7-.07a1,1,0,0,1-.84-0.82l-0.19-1.17q-0.19-.93.54-0.75a5.15,5.15,0,0,0,1.61.07,1.19,1.19,0,0,0,.42-1.12v-3.67q0-.56-0.7-0.35a2.6,2.6,0,0,0-.54.16,0.8,0.8,0,0,1-1.08-.56l-0.42-1.24a0.68,0.68,0,0,1,.58-1l1.4-.33a0.83,0.83,0,0,0,.75-0.77v-3.18a0.51,0.51,0,0,0-.56-0.58h-1.45a0.63,0.63,0,0,1-.72-0.7v-1.14a0.63,0.63,0,0,1,.7-0.72h1.45a0.51,0.51,0,0,0,.58-0.56v-2.36Zm5.79,9.86a0.62,0.62,0,0,1,.7-0.7H526a0.63,0.63,0,0,1,.72.7v10.26a0.63,0.63,0,0,1-.7.72h-1.29q-0.73,0-.72-0.35t-0.56-.4h-5.61q-0.58,0-.58.35t-0.7.4h-1.24a0.63,0.63,0,0,1-.72-0.7V687.32Zm0.28-9.86a0.62,0.62,0,0,1,.65-0.75h1.33a0.63,0.63,0,0,1,.72.7v1.14q0,0.56.7,0.42a58.94,58.94,0,0,0,6.31-1.61,1.15,1.15,0,0,1,1.38.49l0.54,0.77q0.58,0.79-.21,1a77.45,77.45,0,0,1-8.11,1.85,1,1,0,0,0-.61.21,0.74,0.74,0,0,0,.19.51,3,3,0,0,0,1.78.51,15.57,15.57,0,0,0,3,0,3.91,3.91,0,0,0,1.71-.21,1.5,1.5,0,0,0,.58-0.93q0.16-.77,1-0.4a12.82,12.82,0,0,1,1.17.54,0.86,0.86,0,0,1,.56,1,5.13,5.13,0,0,1-1,2.08,7,7,0,0,1-3.71.65h-3.22a13.92,13.92,0,0,1-2.85-.4,2.29,2.29,0,0,1-1.82-2.24v-5.4ZM524,690q0-.73-0.54-0.72h-5.63a0.56,0.56,0,0,0-.58.68,0.58,0.58,0,0,0,.56.72h5.61A0.56,0.56,0,0,0,524,690Zm0,3.88a0.51,0.51,0,0,0-.56-0.58h-5.61a0.51,0.51,0,0,0-.58.56v0.51a0.51,0.51,0,0,0,.56.58h5.61a0.51,0.51,0,0,0,.58-0.56v-0.51Z"/><path class="cls-2" d="M540.15,677.46a0.62,0.62,0,0,1,.65-0.75h1.42a0.63,0.63,0,0,1,.72.7v0.42a0.51,0.51,0,0,0,.56.58h8.08a0.63,0.63,0,0,1,.72.7v1.26a0.63,0.63,0,0,1-.7.72h-8.08a0.59,0.59,0,0,0-.58.72q0,0.77.56,0.77h7.62a0.63,0.63,0,0,1,.72.7v12a3.11,3.11,0,0,1-1.4,2.48,5.86,5.86,0,0,1-3.62.35,1.12,1.12,0,0,1-1-.89L545.57,696q-0.16-.91.54-0.72a5.68,5.68,0,0,0,2.36.23,1,1,0,0,0,.56-0.86V685.9a0.51,0.51,0,0,0-.56-0.58h-3q-0.51,0,.09.26l0.19,0q0.89,0.23.56,0.93l-0.33.7q-0.3.58,0.26,0.58h1.05a0.63,0.63,0,0,1,.72.7v1a0.63,0.63,0,0,1-.7.72h-3.67a0.53,0.53,0,1,0,0,1.05h4.25a0.63,0.63,0,0,1,.72.7v1a0.63,0.63,0,0,1-.7.72h-4.25a0.51,0.51,0,0,0-.58.56v2.2a0.63,0.63,0,0,1-.7.72h-1.15a0.63,0.63,0,0,1-.72-0.7v-2.2a0.51,0.51,0,0,0-.56-0.58h-4a0.63,0.63,0,0,1-.72-0.7v-1a0.63,0.63,0,0,1,.7-0.72h4a0.53,0.53,0,1,0,0-1.05h-3.48a0.63,0.63,0,0,1-.72-0.7v-1a0.63,0.63,0,0,1,.7-0.72h1.52q0.58,0,.14-0.72a2.52,2.52,0,0,0-.33-0.44q-0.54-.7-0.09-1t-0.23-.37h-2.08a0.51,0.51,0,0,0-.58.56v11.61a0.63,0.63,0,0,1-.7.72h-1.38a0.63,0.63,0,0,1-.72-0.7V683.33a0.63,0.63,0,0,1,.7-0.72h6.94a0.59,0.59,0,0,0,.58-0.72q0-.77-0.56-0.77h-7.69a0.63,0.63,0,0,1-.72-0.7v-1.26a0.63,0.63,0,0,1,.7-0.72h7.69a0.51,0.51,0,0,0,.58-0.56v-0.4Zm3.48,8.43q0.21-.58-0.35-0.58h-2.83q-0.61,0-.07.72l0.14,0.21q0.44,0.86-.12,1.17t0.12,0.42h1.68a1,1,0,0,0,.91-0.7A9.41,9.41,0,0,0,543.63,685.9Z"/><g class="cls-3"><path class="cls-2" d="M176.06,686.52l-1.28.26,1.28-.26a8.74,8.74,0,1,0-1,6.12,6.25,6.25,0,0,0,.68-1.51l-2.56-.72a3.88,3.88,0,0,1-.43.92,6.08,6.08,0,1,1,.69-4.27h0c0.52,2.57,2.82,2.57,3.8,2.57V687C176.15,687,176.13,686.87,176.06,686.52Z"/><polygon class="cls-2" points="587.09 686.96 177.25 686.96 177.25 689.62 587.09 689.62 594.24 688.29 587.09 686.96"/></g><rect class="cls-1" width="754.46" height="1219.44"/></svg>