<svg id="圖層_1" data-name="圖層 1" xmlns="http://www.w3.org/2000/svg" viewBox="0 0 11.24 14"><defs><style>.cls-1{fill:#f88823;}.cls-2{fill:#fede3c;}</style></defs><title>fire</title><path class="cls-1" d="M715.58,413a6.48,6.48,0,0,1,0-8.94,2.43,2.43,0,0,0,.6,1.79c0.45-4.17,3.58-3,3.73-6.85q1.94,1.48,1.94,5.06a2.68,2.68,0,0,1,1.79-1.79,3.57,3.57,0,0,0,.45,3.35,6.47,6.47,0,0,1,.89,2.46c0.15,1,.15,2.53-1.64,4.92" transform="translate(-713.79 -399)"/><path class="cls-2" d="M722.44,413a4.32,4.32,0,0,0,.42-3,11.53,11.53,0,0,0-.7-1.62,1.42,1.42,0,0,1,.12-1.39,1.49,1.49,0,0,0-1.34,1.19,4.58,4.58,0,0,0-1.49-3c0.3,1.79-2.09,1.79-2.09,4.17a2,2,0,0,1-.45-1.19c-1.34.6-1.34,3.58-.45,4.77" transform="translate(-713.79 -399)"/></svg>