<svg xmlns="http://www.w3.org/2000/svg" xmlns:xlink="http://www.w3.org/1999/xlink" viewBox="0 0 200.73 55.6"><defs><linearGradient id="linear-gradient" x1="-4.2" y1="41.7" x2="13.9" y2="23.59" gradientUnits="userSpaceOnUse"><stop offset="0" stop-color="#e86029"/><stop offset="0.14" stop-color="#c55e35"/><stop offset="0.32" stop-color="#9e5c42"/><stop offset="0.5" stop-color="#805b4c"/><stop offset="0.67" stop-color="#6a5a53"/><stop offset="0.84" stop-color="#5d5958"/><stop offset="1" stop-color="#595959"/></linearGradient><linearGradient id="linear-gradient-2" x1="17.77" y1="55.6" x2="17.77" y2="21.33" gradientUnits="userSpaceOnUse"><stop offset="0" stop-color="#e86029"/><stop offset="0.03" stop-color="#e15f2b"/><stop offset="0.27" stop-color="#ae5a38"/><stop offset="0.49" stop-color="#865643"/><stop offset="0.7" stop-color="#69534b"/><stop offset="0.87" stop-color="#57524f"/><stop offset="1" stop-color="#515151"/></linearGradient><linearGradient id="linear-gradient-3" x1="14.66" y1="23.33" x2="24.57" y2="-1.19" gradientUnits="userSpaceOnUse"><stop offset="0" stop-color="#929292"/><stop offset="0.02" stop-color="#8b8b8b"/><stop offset="0.1" stop-color="#787878"/><stop offset="0.2" stop-color="#6a6a6a"/><stop offset="0.32" stop-color="#626262"/><stop offset="0.54" stop-color="#606060"/><stop offset="0.58" stop-color="#606060"/><stop offset="0.84" stop-color="#606060"/></linearGradient><linearGradient id="linear-gradient-4" x1="25.16" y1="55.36" x2="39.47" y2="13.81" gradientUnits="userSpaceOnUse"><stop offset="0" stop-color="#e86029"/><stop offset="0.06" stop-color="#d55d2d"/><stop offset="0.21" stop-color="#aa5735"/><stop offset="0.37" stop-color="#87523c"/><stop offset="0.52" stop-color="#6c4e42"/><stop offset="0.68" stop-color="#584b46"/><stop offset="0.84" stop-color="#4d4a48"/><stop offset="1" stop-color="#494949"/></linearGradient><linearGradient id="linear-gradient-5" x1="13.4" y1="26.43" x2="-3.71" y2="38.86" gradientUnits="userSpaceOnUse"><stop offset="0" stop-color="#fff"/><stop offset="0" stop-color="#fdfdfd"/><stop offset="0.1" stop-color="#c2c2c2"/><stop offset="0.15" stop-color="#ababab"/><stop offset="0.17" stop-color="#9b9b9b"/><stop offset="0.21" stop-color="#858585"/><stop offset="0.26" stop-color="#747474"/><stop offset="0.31" stop-color="#696969"/><stop offset="0.39" stop-color="#626262"/><stop offset="0.6" stop-color="#606060"/><stop offset="0.61" stop-color="#606060"/><stop offset="0.65" stop-color="#606060"/><stop offset="0.7" stop-color="#68605d"/><stop offset="0.77" stop-color="#7f6054"/><stop offset="0.86" stop-color="#a36045"/><stop offset="0.97" stop-color="#d66030"/><stop offset="1" stop-color="#e86029"/></linearGradient><linearGradient id="linear-gradient-6" x1="17.77" y1="21.33" x2="17.77" y2="55.6" gradientUnits="userSpaceOnUse"><stop offset="0" stop-color="#fff"/><stop offset="0" stop-color="#fdfdfd"/><stop offset="0.11" stop-color="#c2c2c2"/><stop offset="0.16" stop-color="#ababab"/><stop offset="0.18" stop-color="#9b9b9b"/><stop offset="0.21" stop-color="#858585"/><stop offset="0.24" stop-color="#747474"/><stop offset="0.29" stop-color="#696969"/><stop offset="0.35" stop-color="#626262"/><stop offset="0.53" stop-color="#606060"/><stop offset="0.55" stop-color="#606060"/><stop offset="0.68" stop-color="#606060"/><stop offset="0.72" stop-color="#68605d"/><stop offset="0.79" stop-color="#7f6054"/><stop offset="0.87" stop-color="#a36045"/><stop offset="0.97" stop-color="#d66030"/><stop offset="1" stop-color="#e86029"/></linearGradient><linearGradient id="linear-gradient-7" x1="23.43" y1="23.22" x2="41.2" y2="45.95" gradientUnits="userSpaceOnUse"><stop offset="0" stop-color="#fff"/><stop offset="0" stop-color="#fdfdfd"/><stop offset="0.1" stop-color="#c2c2c2"/><stop offset="0.14" stop-color="#ababab"/><stop offset="0.16" stop-color="#9b9b9b"/><stop offset="0.19" stop-color="#858585"/><stop offset="0.23" stop-color="#747474"/><stop offset="0.28" stop-color="#696969"/><stop offset="0.35" stop-color="#626262"/><stop offset="0.53" stop-color="#606060"/><stop offset="0.56" stop-color="#606060"/><stop offset="0.69" stop-color="#606060"/><stop offset="0.73" stop-color="#68605d"/><stop offset="0.8" stop-color="#7f6054"/><stop offset="0.88" stop-color="#a36045"/><stop offset="0.97" stop-color="#d66030"/><stop offset="1" stop-color="#e86029"/></linearGradient><linearGradient id="linear-gradient-8" x1="49.78" y1="41.7" x2="67.88" y2="23.59" xlink:href="#linear-gradient"/><linearGradient id="linear-gradient-9" x1="71.76" y1="55.6" x2="71.76" y2="21.33" xlink:href="#linear-gradient-2"/><linearGradient id="linear-gradient-10" x1="68.65" y1="23.33" x2="78.55" y2="-1.19" xlink:href="#linear-gradient-3"/><linearGradient id="linear-gradient-11" x1="79.15" y1="55.36" x2="93.45" y2="13.81" xlink:href="#linear-gradient-4"/><linearGradient id="linear-gradient-12" x1="67.39" y1="26.43" x2="50.28" y2="38.86" xlink:href="#linear-gradient-5"/><linearGradient id="linear-gradient-13" x1="71.76" y1="21.33" x2="71.76" y2="55.6" xlink:href="#linear-gradient-6"/><linearGradient id="linear-gradient-14" x1="77.42" y1="23.22" x2="95.18" y2="45.95" xlink:href="#linear-gradient-7"/><linearGradient id="linear-gradient-15" x1="103.76" y1="41.7" x2="121.87" y2="23.59" xlink:href="#linear-gradient"/><linearGradient id="linear-gradient-16" x1="125.74" y1="55.6" x2="125.74" y2="21.33" xlink:href="#linear-gradient-2"/><linearGradient id="linear-gradient-17" x1="122.63" y1="23.33" x2="132.54" y2="-1.19" xlink:href="#linear-gradient-3"/><linearGradient id="linear-gradient-18" x1="133.13" y1="55.36" x2="147.44" y2="13.81" xlink:href="#linear-gradient-4"/><linearGradient id="linear-gradient-19" x1="121.37" y1="26.43" x2="104.26" y2="38.86" xlink:href="#linear-gradient-5"/><linearGradient id="linear-gradient-20" x1="125.74" y1="21.33" x2="125.74" y2="55.6" xlink:href="#linear-gradient-6"/><linearGradient id="linear-gradient-21" x1="131.4" y1="23.22" x2="149.16" y2="45.95" xlink:href="#linear-gradient-7"/><linearGradient id="linear-gradient-22" x1="157.75" y1="41.7" x2="175.85" y2="23.59" xlink:href="#linear-gradient"/><linearGradient id="linear-gradient-23" x1="179.73" y1="55.6" x2="179.73" y2="21.33" xlink:href="#linear-gradient-2"/><linearGradient id="linear-gradient-24" x1="176.61" y1="23.33" x2="186.52" y2="-1.19" xlink:href="#linear-gradient-3"/><linearGradient id="linear-gradient-25" x1="187.12" y1="55.36" x2="201.42" y2="13.81" xlink:href="#linear-gradient-4"/><linearGradient id="linear-gradient-26" x1="175.36" y1="26.43" x2="158.25" y2="38.86" xlink:href="#linear-gradient-5"/><linearGradient id="linear-gradient-27" x1="179.73" y1="21.33" x2="179.73" y2="55.6" xlink:href="#linear-gradient-6"/><linearGradient id="linear-gradient-28" x1="185.39" y1="23.22" x2="203.15" y2="45.95" xlink:href="#linear-gradient-7"/></defs><title>l1</title><g style="isolation:isolate"><g id="圖層_1" data-name="圖層 1"><polygon points="0 9.69 0 43.96 9.7 55.6 9.7 21.33 0 9.69" style="fill:url(#linear-gradient)"/><rect x="9.7" y="21.33" width="16.16" height="34.27" style="fill:url(#linear-gradient-2)"/><polygon points="0 9.69 12.93 0 32.31 1.94 38.78 13.57 25.85 21.33 9.7 21.33 0 9.69" style="fill:url(#linear-gradient-3)"/><polygon points="25.85 21.33 25.85 55.6 38.78 47.84 38.78 13.57 25.85 21.33" style="fill:url(#linear-gradient-4)"/><g style="opacity:0.2;mix-blend-mode:luminosity"><polygon points="0 9.69 0 43.96 9.7 55.6 9.7 21.33 0 9.69" style="fill:url(#linear-gradient-5)"/><rect x="9.7" y="21.33" width="16.16" height="34.27" style="fill:url(#linear-gradient-6)"/><polygon points="25.85 21.33 25.85 55.6 38.78 47.84 38.78 13.57 25.85 21.33" style="fill:url(#linear-gradient-7)"/></g><polygon points="53.98 9.69 53.98 43.96 63.68 55.6 63.68 21.33 53.98 9.69" style="fill:url(#linear-gradient-8)"/><rect x="63.68" y="21.33" width="16.16" height="34.27" style="fill:url(#linear-gradient-9)"/><polygon points="53.98 9.69 66.91 0 86.3 1.94 92.76 13.57 79.84 21.33 63.68 21.33 53.98 9.69" style="fill:url(#linear-gradient-10)"/><polygon points="79.84 21.33 79.84 55.6 92.76 47.84 92.76 13.57 79.84 21.33" style="fill:url(#linear-gradient-11)"/><g style="opacity:0.2;mix-blend-mode:luminosity"><polygon points="53.98 9.69 53.98 43.96 63.68 55.6 63.68 21.33 53.98 9.69" style="fill:url(#linear-gradient-12)"/><rect x="63.68" y="21.33" width="16.16" height="34.27" style="fill:url(#linear-gradient-13)"/><polygon points="79.84 21.33 79.84 55.6 92.76 47.84 92.76 13.57 79.84 21.33" style="fill:url(#linear-gradient-14)"/></g><polygon points="107.97 9.69 107.97 43.96 117.66 55.6 117.66 21.33 107.97 9.69" style="fill:url(#linear-gradient-15)"/><rect x="117.66" y="21.33" width="16.16" height="34.27" style="fill:url(#linear-gradient-16)"/><polygon points="107.97 9.69 120.89 0 140.28 1.94 146.75 13.57 133.82 21.33 117.66 21.33 107.97 9.69" style="fill:url(#linear-gradient-17)"/><polygon points="133.82 21.33 133.82 55.6 146.75 47.84 146.75 13.57 133.82 21.33" style="fill:url(#linear-gradient-18)"/><g style="opacity:0.2;mix-blend-mode:luminosity"><polygon points="107.97 9.69 107.97 43.96 117.66 55.6 117.66 21.33 107.97 9.69" style="fill:url(#linear-gradient-19)"/><rect x="117.66" y="21.33" width="16.16" height="34.27" style="fill:url(#linear-gradient-20)"/><polygon points="133.82 21.33 133.82 55.6 146.75 47.84 146.75 13.57 133.82 21.33" style="fill:url(#linear-gradient-21)"/></g><polygon points="161.95 9.69 161.95 43.96 171.65 55.6 171.65 21.33 161.95 9.69" style="fill:url(#linear-gradient-22)"/><rect x="171.65" y="21.33" width="16.16" height="34.27" style="fill:url(#linear-gradient-23)"/><polygon points="161.95 9.69 174.88 0 194.27 1.94 200.73 13.57 187.81 21.33 171.65 21.33 161.95 9.69" style="fill:url(#linear-gradient-24)"/><polygon points="187.81 21.33 187.81 55.6 200.73 47.84 200.73 13.57 187.81 21.33" style="fill:url(#linear-gradient-25)"/><g style="opacity:0.2;mix-blend-mode:luminosity"><polygon points="161.95 9.69 161.95 43.96 171.65 55.6 171.65 21.33 161.95 9.69" style="fill:url(#linear-gradient-26)"/><rect x="171.65" y="21.33" width="16.16" height="34.27" style="fill:url(#linear-gradient-27)"/><polygon points="187.81 21.33 187.81 55.6 200.73 47.84 200.73 13.57 187.81 21.33" style="fill:url(#linear-gradient-28)"/></g></g></g></svg>