<svg id="圖層_1" data-name="圖層 1" xmlns="http://www.w3.org/2000/svg" viewBox="0 0 18 13.96"><defs><style>.cls-1{fill:none;stroke:#fff;stroke-miterlimit:10;}</style></defs><title>nav</title><path class="cls-1" d="M720,410.48c4.5,0,4.5,1,9,1" transform="translate(-711 -398.02)"/><path class="cls-1" d="M720,404.5c4.5,0,4.5,1,9,1" transform="translate(-711 -398.02)"/><path class="cls-1" d="M720,398.52c4.5,0,4.5,1,9,1" transform="translate(-711 -398.02)"/><path class="cls-1" d="M720,410.48c-4.5,0-4.5,1-9,1" transform="translate(-711 -398.02)"/><path class="cls-1" d="M720,410.48c-4.5,0-4.5,1-9,1" transform="translate(-711 -398.02)"/><path class="cls-1" d="M720,404.5c-4.5,0-4.5,1-9,1" transform="translate(-711 -398.02)"/><path class="cls-1" d="M720,398.52c-4.5,0-4.5,1-9,1" transform="translate(-711 -398.02)"/></svg>