<svg xmlns="http://www.w3.org/2000/svg" width="22" height="22" viewBox="0 0 22 22"><g fill="#424242"><path d="M9.746 12.535l3.161-1.639-3.161-1.649v3.288z"/><path d="M20.999 10.982a10.266 10.266 0 0 0-.046-.899c-.009-.096-.021-.192-.033-.288a9.93 9.93 0 0 0-.298-1.488c-.033-.12-.063-.241-.101-.36l-.011-.038a10.095 10.095 0 0 0-.281-.759c-.039-.094-.086-.183-.128-.275a10.344 10.344 0 0 0-.26-.541c-.054-.1-.11-.197-.167-.294a9.03 9.03 0 0 0-.477-.756 9.908 9.908 0 0 0-.372-.498c-.055-.069-.107-.139-.164-.207a9.971 9.971 0 0 0-.57-.627l-.023-.026a10.565 10.565 0 0 0-.655-.596c-.069-.058-.142-.111-.213-.167a10.123 10.123 0 0 0-.483-.362 9.476 9.476 0 0 0-.75-.472c-.104-.06-.206-.12-.312-.176a9.655 9.655 0 0 0-.542-.262c-.093-.042-.184-.088-.277-.127a10.115 10.115 0 0 0-.771-.282c-.112-.036-.227-.064-.339-.097a8.961 8.961 0 0 0-.896-.211 10.524 10.524 0 0 0-.595-.091c-.104-.013-.206-.027-.31-.037A10.472 10.472 0 0 0 11 1h-.002c-.312 0-.618.019-.923.047-.104.01-.209.024-.313.038a9.527 9.527 0 0 0-1.484.3c-.114.032-.23.062-.344.099a9.7 9.7 0 0 0-.755.276c-.101.041-.198.09-.296.134-.182.082-.362.167-.538.259-.106.056-.209.117-.313.176-.157.09-.311.183-.463.281-.096.063-.192.126-.286.192a9.56 9.56 0 0 0-.485.363c-.07.055-.142.108-.21.165-.228.19-.448.388-.657.597l-.016.016c-.202.204-.394.418-.579.638-.055.065-.107.134-.159.201a9.712 9.712 0 0 0-.377.504c-.061.085-.118.172-.176.26a11.33 11.33 0 0 0-.302.497c-.054.096-.111.191-.163.29-.095.178-.18.362-.264.546-.041.091-.086.178-.124.27a9.706 9.706 0 0 0-.292.798c-.04.12-.069.242-.103.364a9.97 9.97 0 0 0-.134.522c-.027.12-.049.24-.071.36a9.808 9.808 0 0 0-.091.595c-.012.101-.025.201-.034.301a9.99 9.99 0 0 0-.044.869L1 11v.007c0 .313.019.622.047.927.009.097.023.192.035.288.024.202.055.402.092.6a8.486 8.486 0 0 0 .206.882c.033.118.063.236.1.353.084.262.179.52.283.772.044.107.097.211.146.317.075.165.151.329.235.489.057.108.118.215.178.321a9.141 9.141 0 0 0 .47.745c.12.172.246.34.377.504.052.065.101.132.153.196.191.228.39.449.6.66.023.024.05.045.074.069.186.182.378.357.576.524.084.07.173.136.259.204.098.077.191.158.292.231.05.036.102.066.151.101a10.973 10.973 0 0 0 .756.479c.113.064.226.129.34.189.158.083.32.158.482.233.108.049.215.103.324.148.258.107.521.204.789.289.103.033.207.057.31.086.187.053.374.103.565.145.115.025.231.047.348.068.195.036.392.066.59.09.103.013.205.026.309.036.301.028.604.047.913.047s.613-.019.915-.046c.101-.009.202-.023.303-.035.201-.024.4-.055.597-.091.114-.021.229-.042.342-.067.195-.043.388-.095.578-.149.099-.028.198-.051.297-.083.271-.086.535-.183.796-.291.104-.043.204-.094.307-.141.169-.077.337-.155.501-.241a10.822 10.822 0 0 0 1.087-.663c.052-.036.105-.067.156-.104.104-.075.199-.158.3-.237.083-.065.168-.128.248-.196.204-.171.401-.35.591-.537l.061-.057a9.98 9.98 0 0 0 .603-.663c.052-.062.099-.126.148-.189.132-.167.261-.337.383-.512.063-.091.123-.184.183-.276.1-.154.194-.311.286-.471.06-.104.119-.209.176-.316.085-.163.163-.331.24-.499.047-.103.098-.204.141-.308.105-.253.2-.513.285-.777.035-.112.063-.226.096-.339a9.63 9.63 0 0 0 .208-.887c.038-.204.069-.409.094-.617.012-.091.024-.181.033-.272.026-.305.045-.617.045-.933V11l-.001-.018zm-5.234 2.766a1.18 1.18 0 0 1-.55.555c-.655.345-7.396.34-8.258.056a1.178 1.178 0 0 1-.781-.759c-.34-.93-.438-4.822.213-5.588.223-.263.51-.417.851-.453 1.755-.189 7.182-.162 7.807.063.366.132.627.372.768.738.37.961.381 4.461-.05 5.388z"/></g></svg>