<svg xmlns="http://www.w3.org/2000/svg" width="290.52" height="54.28" viewBox="0 0 290.52 54.28"><path d="M.999 48.476V22.018h3.609v13.016l10.635-13.016h3.765L8.719 34.639l12.122 13.837h-4.733l-11.5-13.407v13.406H.999zm21.703 0V22.018h3.725v11.126h12.247V22.018h3.729v26.458h-3.729V35.929H26.427v12.547h-3.725zm30.743.651c-1.845 0-4.201-.375-7.069-1.123v-3.732c3.089 1.383 5.63 2.074 7.617 2.074 1.536 0 2.767-.389 3.704-1.168.928-.777 1.396-1.804 1.396-3.07 0-1.038-.309-1.918-.919-2.645-.613-.729-1.746-1.538-3.393-2.43l-1.892-1.055c-2.344-1.287-3.992-2.496-4.953-3.635-.959-1.138-1.44-2.461-1.44-3.977 0-2.034.77-3.711 2.303-5.025 1.534-1.318 3.493-1.977 5.864-1.977 2.119 0 4.353.336 6.704 1.008v3.433c-2.893-1.104-5.05-1.657-6.47-1.657-1.344 0-2.457.348-3.338 1.043-.873.695-1.315 1.57-1.315 2.624 0 .881.326 1.661.968 2.34.645.678 1.817 1.489 3.524 2.428l1.97 1.075c2.377 1.298 4.031 2.523 4.973 3.676.942 1.158 1.41 2.545 1.41 4.163 0 2.303-.883 4.146-2.644 5.539-1.762 1.395-4.097 2.091-7 2.091z" fill="#FFF"/><g fill="#FFF"><path d="M140.063 39.365l-.938-2.006-.111.052a46.56 46.56 0 0 1-2.539 1.091V28.35h2.634v-2.073h-7.291v2.073h2.675v10.77c-1.01.247-2.008.461-2.971.635l-.147.026.841 2.22.107-.021c1.215-.234 2.589-.604 4.089-1.104l.005-.002a43.427 43.427 0 0 0 3.536-1.456l.11-.053z"/><path d="M145.203 24.453h-1.902v4.29h-3.108v2.069h3.108v1.505c0 2.604-.511 4.921-1.532 6.886-1.019 1.829-2.674 3.289-4.907 4.345l-.162.077 1.74 1.729.082-.046c2.196-1.208 3.902-2.961 5.06-5.22 1.062-2.121 1.61-4.731 1.622-7.771v-1.505h3.32v5.744c0 3.225-.312 5.253-.934 6.035-.308.382-.742.569-1.322.569-.751 0-1.54-.046-2.346-.132l-.179-.021.546 2.227h2.128c1.132 0 2.047-.434 2.707-1.277.905-1.225 1.37-3.712 1.388-7.397v-7.817h-5.309v-4.29zm24.889.782l.033-.105-1.925-.849-.041.135c-.409 1.384-1.148 3.109-2.188 5.122h-11.496v3.786h1.984v-1.715h14.143v1.715h1.979v-3.786h-4.248c.762-1.568 1.355-3.016 1.759-4.303z"/><path d="M169.119 34.105l.082-.085-1.094-1.316h-10.184v2.071h7.77a95.34 95.34 0 0 1-2.363 1.995h-.667v1.119h-8.188v2.073h8.188v2.668c0 .431-.181.626-.588.626h-1.851l.548 2.071h1.993c1.248 0 1.88-.663 1.88-1.974v-3.392h7.897V37.89h-7.469a79.94 79.94 0 0 0 4.046-3.785zm-10.934-4.985l.06.125 1.822-1.071-.049-.104c-.664-1.414-1.34-2.6-2.015-3.518l-.071-.095-.098.064-1.655 1.109.077.105c.572.779 1.226 1.92 1.929 3.385zm4.61-.191l.039.127 1.965-.772-.033-.109c-.432-1.467-.914-2.688-1.432-3.628l-.056-.102-.106.05-1.813.846.068.118c.451.796.911 1.962 1.368 3.47zm22.299 7.994a43.618 43.618 0 0 0-3.305-2.945c.866-1.256 1.648-2.792 2.336-4.569l.023-.064-.852-1.138h-2.628L182.333 27l-.057-.098c-.599-1.025-1.194-1.872-1.772-2.502l-.077-.089-.091.074-1.568 1.272.09.098c.493.53 1.055 1.331 1.679 2.375l.045.075h-3.907v2.074h5.095a17.513 17.513 0 0 1-1.847 2.983c-1.006 1.144-2.338 2.254-3.962 3.293l-.118.077 1.506 1.76.095-.074a31.352 31.352 0 0 0 2.134-1.854v8.893h1.983v-8.966a42.971 42.971 0 0 1 2.102 2.197l.095.109 1.422-1.694-.086-.08z"/><path d="M191.086 42.362v-9.535h3.801v-2.072h-3.801v-6.244h-1.984v6.244h-4.096v2.072h4.096v9.535h-4.763v2.072h11.303v-2.072h-4.556z"/></g><path d="M216.506 33.187h5.955v1.234h-18.76v-1.234h5.838l-1.213-2.861h-3.592v-1.232h16.615v1.232h-3.971l-.872 2.861zm2.899 11.16c0 .123-.062.188-.181.188h-12.426c-.107 0-.159-.065-.159-.188v-8.233c.014-.112.065-.166.159-.166h12.426c.119.012.181.068.181.166v8.233zm-12.366-18.098h12.007v1.233h-12.007v-1.233zm.772 13.373h10.423V37.22c0-.026-.021-.041-.062-.041h-10.32c-.027.015-.041.029-.041.041v2.402zm10.422 1.233H207.81v2.383c.014.041.028.063.041.063h10.32c.041 0 .062-.022.062-.063v-2.383zm-2.938-7.668l.854-2.861h-6.529l1.21 2.861h4.465zm20.595 6.772v5.117h-1.173v-5.1c-2.727 2.202-5.32 3.639-7.781 4.309l-.555-1.13c2.803-.836 5.299-2.159 7.481-3.969h-7.801v-1.233h8.655v-1.944h-1.589c-.104 0-.156-.062-.156-.188v-8.315c.011-.112.065-.168.156-.168h1.152c.226-.585.417-1.192.576-1.817l1.093.416c-.16.476-.307.941-.438 1.401h1.864c.121.014.181.07.181.168v8.315c0 .127-.06.188-.181.188h-1.486v1.944h8.931v1.233h-8.038c2.104 1.685 4.665 2.992 7.681 3.927l-.634 1.085c-2.831-.891-5.478-2.303-7.938-4.239zm-4.686-4.243l-4.883.481-.26-1.212 1.093-.104c.581-.739 1.211-1.658 1.885-2.76-.912-1.045-1.834-1.901-2.76-2.569.212-.348.424-.696.635-1.046.08.029.32.219.717.564.449-1.071.859-2.22 1.23-3.448l1.093.481c-.306.946-.802 2.202-1.491 3.763.357.334.742.732 1.151 1.191.57-1.073.979-2.11 1.233-3.116l1.13.314c-.489 2.048-1.608 4.2-3.354 6.459l2.203-.232a16.365 16.365 0 0 0-.416-1.169l1.109-.355c.465 1.24.815 2.361 1.053 3.365l-1.13.27a17.097 17.097 0 0 0-.238-.877zm2.939-4.701h2.242V28.61c0-.027-.021-.042-.059-.042h-2.146c-.027.015-.038.028-.038.042v2.405zm2.242 1.232h-2.242v2.468c.011.04.025.061.038.061h2.146c.038 0 .059-.021.059-.061v-2.468zm7.008 3.302l-4.984.648-.298-1.191.795-.105c.544-.767 1.118-1.719 1.728-2.861-.793-.991-1.614-1.798-2.463-2.424.238-.336.464-.678.676-1.022.051.039.197.151.437.332a34.371 34.371 0 0 0 1.171-3.303l1.092.481c-.277.919-.752 2.132-1.428 3.635.305.337.661.719 1.07 1.15.451-1.016.775-1.991.974-2.924l1.15.25c-.384 1.979-1.376 4.137-2.976 6.477l2.561-.354a32.072 32.072 0 0 0-.576-1.297l1.072-.459c.621 1.337 1.091 2.509 1.41 3.512l-1.093.376c-.094-.31-.201-.614-.318-.921zm23.192 3.803c0 .223-.104.334-.316.334h-7.901v5.476h-1.25v-5.476h-7.604c-.197 0-.297-.111-.297-.334V28.988c0-.21.1-.314.297-.314h7.604v-3.175h1.25v3.175h7.901c.212 0 .316.104.316.314v10.364zm-9.468-9.446h-6.611c-.079 0-.119.041-.119.127v8.274c0 .095.04.146.119.146h6.611v-8.547zm8.158 0h-6.908v8.547h6.908c.092 0 .138-.051.138-.146v-8.274c0-.086-.046-.127-.138-.127zm7.116-.939l1.189.104c-.014 3.774-.563 8.255-1.646 13.437l-1.172-.188c1.086-5.505 1.629-9.952 1.629-13.353zm3.551-2.111h1.172v15.568c0 .29.027.485.079.584.119.152.338.229.656.229h6.074c.211 0 .381-.028.516-.083a.429.429 0 0 0 .258-.251c.277-.474.456-2.067.535-4.785l1.151.293c.028 3.094-.197 4.931-.675 5.516-.306.361-.773.542-1.408.542h-6.969c-.331 0-.603-.081-.814-.248-.422-.322-.612-.858-.575-1.611V26.856zm3.494-.938l1.151-.273c.995 3.316 1.688 7.396 2.085 12.245l-1.171.209c-.489-5.141-1.179-9.202-2.065-12.181zm6.273 2.526l1.154-.293c1.201 3.707 2.088 8.282 2.657 13.729l-1.172.229c-.686-5.766-1.567-10.321-2.639-13.665z" fill="#FFF"/><linearGradient id="a" gradientUnits="userSpaceOnUse" x1="88.972" y1="2.743" x2="107.704" y2="51.54"><stop offset="0" stop-color="#bd9c5f"/><stop offset=".41" stop-color="#bd9c5f"/><stop offset=".477" stop-color="#bd9c5f"/><stop offset=".576" stop-color="#b9975c"/><stop offset=".686" stop-color="#ac8a53"/><stop offset=".801" stop-color="#977443"/><stop offset=".92" stop-color="#7a542e"/><stop offset=".945" stop-color="#734d29"/><stop offset="1" stop-color="#674121"/></linearGradient><path fill="url(#a)" d="M123.261 19.283c4.343 13.763-3.302 28.442-17.063 32.782-13.765 4.338-28.441-3.299-32.783-17.064C69.07 21.234 76.717 6.558 90.48 2.218c13.764-4.342 28.441 3.301 32.781 17.065z"/><path fill="#FFF" d="M113.08 44.913l-.603.4c-4.198 2.171-6.067 2.812-9.744 3.729l-.868.343a32.925 32.925 0 0 1-11.823.722c-3.274-.399-5.548-1.201-6.98-1.798.4.291.793.583 1.211.844 1.102.4 2.463.8 4.123 1.119.575.143 1.564.34 3.072.447 4.249.3 9.489-.18 13.862-1.632 1.801-.614 3.788-1.16 5.445-2.281.304-.204.609-.385.918-.554.307-.173.617-.336.93-.501 4.003-1.941 7.122-5.172 9.871-8.659.108-.251.192-.51.287-.762l-.253.328c-2.569 3.278-5.851 6.075-9.448 8.255zm-33.731-32.3c3.264-2.79 6.106-4.649 10.054-6.03l1.279-.395c4.838-1.635 10.892-2.123 16.189-1.741 2.372.182 4.267.537 6.015 1.001-.319-.213-.645-.412-.975-.614a39.506 39.506 0 0 0-2.232-.509c-4.844-.937-7.777-.672-8.915-.537-.815.001-1.387.137-2.387.11-.824-.02-1.411.061-2.193.184-1.06.168-2.122.209-3.167.445-1.862.418-3.68 1.124-5.417 1.924-3.536 1.621-7.93 5.127-9.484 6.644-1.91 1.866-3.229 3.426-4.133 4.611-.132.339-.244.682-.361 1.026a57.86 57.86 0 0 1 3.33-3.991c.381-.415 1.246-1.136 2.397-2.128zm8.294 30.444a51.628 51.628 0 0 0 8.801-.783 55.166 55.166 0 0 0 7.596-1.917c1.239-.409 2.445-.766 3.655-1.243.958-.386 1.779-1.198 2.738-1.547a19.765 19.765 0 0 0 3.228-1.514c2.139-1.256 4.181-2.698 6.043-4.34 1.775-1.564 3.016-2.989 4.741-5.259a28.305 28.305 0 0 0-.125-2.132c-2.355 4.363-6.961 8.541-8.995 9.647-.25.169-.49.334-.751.505-6.287 4.388-15.428 7.092-24.112 7.755a28.465 28.465 0 0 0 2.441-1.033 20.643 20.643 0 0 0 3.675-2.254c1.151-.879 2.051-1.784 2.681-2.71 1.437-1.123 2.501-2.324 3.202-3.6.467-1.097.95-2.191 1.451-3.278 1.271-1.429 2.223-2.95 2.866-4.554 1.723-.385 3.315-.675 4.988-1.104 5.07-1.303 8.731-1.594 11.863-2.136l.214-.042a26.798 26.798 0 0 0-.584-2.233c-.172-.55-.389-1.074-.593-1.605l-.156.031c-1.93.402-3.532.806-4.968 1.247-1.003.484-.703.31-1.194.474-.49.159-1.316.433-2.611.857-1.454.478-3.495 1.14-6.207 2.026.188-.647.379-1.3.565-1.944.22-.731.342-1.196.361-1.394.027-.198.044-.417.072-.656.272-2.781-.729-4.782-3.014-6.002-.203-.107-.448-.173-.662-.267 5.122-.451 10.345-.09 15.48 1.027-.109-.171-.208-.347-.318-.513-5.812-1.643-11.839-2.016-17.727-1.256-1.67-.287-3.603-.34-5.866-.1-.548.052-1.075.097-1.592.138-1 .097-1.928.355-2.782.758-.25.122-.441.22-.571.302-.256.44-.517.783-.797 1.028a4.146 4.146 0 0 1-.987.637c-.127.062-.686.258-1.684.585-.374.122-.72.258-1.029.407a5.124 5.124 0 0 0-.867.529 42.667 42.667 0 0 0-2.691 2.458 45.887 45.887 0 0 0-11.188 9.876c.001.106.012.215.013.321a48.67 48.67 0 0 1 9.07-7.912c-.244.29-.492.578-.723.87-4.164 5.284-5.515 9.759-5.264 13.5a1.025 1.025 0 0 0-.548.2c-.238.173-.416.264-.591.315-.09.019-.17.036-.261.04-.042.003-.053.003-.065.003.021 0 .026-.003-.072-.003-.23 0 .069-.053-.152-.011-.042.011-.083.016-.125.027.152.453.327.89.494 1.333a56.13 56.13 0 0 1 1.505-.469c.135.747.331 1.464.585 2.147.547 1.461 1.384 2.543 2.52 3.253.061.084.157.141.227.22a32.113 32.113 0 0 1-2.511-.564c.076.119.146.24.218.356.94.287 1.886.54 2.848.734 1.072.824 2.633 1.241 4.727 1.225 1.122-.009 2.303-.183 3.515-.456zm-8.15-9.425c-.199-1.987.09-4.16 1.424-6.847a27.577 27.577 0 0 1 2.315-3.797 19.144 19.144 0 0 1 6.396-4.898c.567-.273 1.21-.531 1.926-.78 2.146-.725 4.068-.853 5.765-.394 1.259.348 2.42 1.032 3.493 2.058a1.54 1.54 0 0 0 .004.396c-.014.156-.105.294-.269.41a1.678 1.678 0 0 1-.114.398c-.015.119-.021.237-.037.354-.051.56.051.988.322 1.284.272.294.733.439 1.395.43l-.096.954c-.037.353-.113.652-.167.976-.801.267-1.643.544-2.523.837-5.012 1.642-17.613 7.61-18.696 8.087l-1.025.486c-.043.02-.073.029-.113.046zm1.839 6.108c-.415-.67-.729-1.127-.945-1.366-.227-1.085-.457-2.219-.705-3.41-.019-.102-.032-.209-.049-.314 3.05-1.634 11.203-5.146 14.656-6.33 3.355-1.15 5.068-1.485 6.977-1.952-.071.179-.12.391-.2.558-.752 1.533-2.008 2.996-3.764 4.382-.105.165-.278.43-.526.793-.247.365-.378.635-.394.812-.021.18.029.321.139.42.217.237.524.324.938.261.408-.063.914-.235 1.514-.521.438-.213.828-.42 1.162-.642.339-.218.652-.423.946-.619.284-.197.522-.305.703-.339-1.009 1.088-1.729 2.172-2.167 3.252-.637.684-1.632 1.515-2.988 2.508-1.356.983-2.304 1.759-2.836 2.316-.543.337-1.176.673-1.9 1.023-1.767.841-3.391 1.362-4.869 1.554-1.473.199-2.671.039-3.577-.473-.792-.246-1.499-.886-2.115-1.913z"/></svg>