<?xml version="1.0" encoding="utf-8"?>
<!-- Generator: Adobe Illustrator 16.0.0, SVG Export Plug-In . SVG Version: 6.00 Build 0)  -->
<!DOCTYPE svg PUBLIC "-//W3C//DTD SVG 1.1//EN" "http://www.w3.org/Graphics/SVG/1.1/DTD/svg11.dtd">
<svg version="1.1" id="圖層_1" xmlns="http://www.w3.org/2000/svg" xmlns:xlink="http://www.w3.org/1999/xlink" x="0px" y="0px"
	 width="180px" height="180px" viewBox="0 0 180 180" enable-background="new 0 0 180 180" xml:space="preserve">
<g>
	<defs>
		<rect id="SVGID_586_" width="180" height="180"/>
	</defs>
	<clipPath id="SVGID_2_">
		<use xlink:href="#SVGID_586_"  overflow="visible"/>
	</clipPath>
	<g clip-path="url(#SVGID_2_)">
		<polygon fill="#42413F" stroke="#FFFFFF" stroke-miterlimit="10" points="102.865,-4.913 99.357,-16.608 80.645,-16.608 
			77.134,-4.913 80.645,6.784 99.357,6.784 		"/>
		<polygon fill="#42413F" stroke="#FFFFFF" stroke-miterlimit="10" points="80.645,6.784 77.134,-4.913 58.42,-4.913 54.912,6.784 
			58.42,18.479 77.134,18.479 		"/>
		<polygon fill="#42413F" stroke="#FFFFFF" stroke-miterlimit="10" points="58.42,-4.913 54.912,-16.608 36.201,-16.608 
			32.691,-4.913 36.201,6.784 54.912,6.784 		"/>
		<polygon fill="#42413F" stroke="#FFFFFF" stroke-miterlimit="10" points="36.201,6.784 32.691,-4.913 13.979,-4.913 10.471,6.784 
			13.979,18.479 32.691,18.479 		"/>
		<polygon fill="#42413F" stroke="#FFFFFF" stroke-miterlimit="10" points="13.979,-4.913 10.471,-16.608 -8.243,-16.608 
			-11.754,-4.913 -8.243,6.784 10.471,6.784 		"/>
		<polygon fill="#42413F" stroke="#FFFFFF" stroke-miterlimit="10" points="125.086,6.784 121.578,-4.913 102.865,-4.913 
			99.357,6.784 102.865,18.479 121.578,18.479 		"/>
		<polygon fill="#42413F" stroke="#FFFFFF" stroke-miterlimit="10" points="147.308,-4.913 143.8,-16.608 125.086,-16.608 
			121.578,-4.913 125.086,6.784 143.8,6.784 		"/>
		<polygon fill="#42413F" stroke="#FFFFFF" stroke-miterlimit="10" points="169.529,6.784 166.021,-4.913 147.308,-4.913 
			143.8,6.784 147.308,18.479 166.021,18.479 		"/>
		<polygon fill="#42413F" stroke="#FFFFFF" stroke-miterlimit="10" points="191.752,-4.913 188.242,-16.608 169.529,-16.608 
			166.021,-4.913 169.529,6.784 188.242,6.784 		"/>
		<polygon fill="#42413F" stroke="#FFFFFF" stroke-miterlimit="10" points="102.865,18.479 99.357,6.784 80.645,6.784 
			77.134,18.479 80.645,30.174 99.357,30.174 		"/>
		<polygon fill="#42413F" stroke="#FFFFFF" stroke-miterlimit="10" points="80.645,30.174 77.134,18.479 58.42,18.479 
			54.912,30.174 58.42,41.871 77.134,41.871 		"/>
		<polygon fill="#42413F" stroke="#FFFFFF" stroke-miterlimit="10" points="58.42,18.479 54.912,6.784 36.201,6.784 32.691,18.479 
			36.201,30.174 54.912,30.174 		"/>
		<polygon fill="#42413F" stroke="#FFFFFF" stroke-miterlimit="10" points="36.201,30.174 32.691,18.479 13.979,18.479 
			10.471,30.174 13.979,41.871 32.691,41.871 		"/>
		<polygon fill="#42413F" stroke="#FFFFFF" stroke-miterlimit="10" points="13.979,18.479 10.471,6.784 -8.243,6.784 
			-11.754,18.479 -8.243,30.174 10.471,30.174 		"/>
		<polygon fill="#42413F" stroke="#FFFFFF" stroke-miterlimit="10" points="125.086,30.174 121.578,18.479 102.865,18.479 
			99.357,30.174 102.865,41.871 121.578,41.871 		"/>
		<polygon fill="#42413F" stroke="#FFFFFF" stroke-miterlimit="10" points="147.308,18.479 143.8,6.784 125.086,6.784 
			121.578,18.479 125.086,30.174 143.8,30.174 		"/>
		<polygon fill="#42413F" stroke="#FFFFFF" stroke-miterlimit="10" points="169.529,30.174 166.021,18.479 147.308,18.479 
			143.8,30.174 147.308,41.871 166.021,41.871 		"/>
		<polygon fill="#42413F" stroke="#FFFFFF" stroke-miterlimit="10" points="191.752,18.479 188.242,6.784 169.529,6.784 
			166.021,18.479 169.529,30.174 188.242,30.174 		"/>
		<polygon fill="#42413F" stroke="#FFFFFF" stroke-miterlimit="10" points="102.865,41.871 99.357,30.174 80.645,30.174 
			77.134,41.871 80.645,53.565 99.357,53.565 		"/>
		<polygon fill="#42413F" stroke="#FFFFFF" stroke-miterlimit="10" points="80.645,53.565 77.134,41.871 58.42,41.871 
			54.912,53.565 58.42,65.261 77.134,65.261 		"/>
		<polygon fill="#42413F" stroke="#FFFFFF" stroke-miterlimit="10" points="58.42,41.871 54.912,30.174 36.201,30.174 
			32.691,41.871 36.201,53.565 54.912,53.565 		"/>
		<polygon fill="#42413F" stroke="#FFFFFF" stroke-miterlimit="10" points="36.201,53.565 32.691,41.871 13.979,41.871 
			10.471,53.565 13.979,65.261 32.691,65.261 		"/>
		<polygon fill="#42413F" stroke="#FFFFFF" stroke-miterlimit="10" points="13.979,41.871 10.471,30.174 -8.243,30.174 
			-11.754,41.871 -8.243,53.565 10.471,53.565 		"/>
		<polygon fill="#42413F" stroke="#FFFFFF" stroke-miterlimit="10" points="125.086,53.565 121.578,41.871 102.865,41.871 
			99.357,53.565 102.865,65.261 121.578,65.261 		"/>
		<polygon fill="#42413F" stroke="#FFFFFF" stroke-miterlimit="10" points="147.308,41.871 143.8,30.174 125.086,30.174 
			121.578,41.871 125.086,53.565 143.8,53.565 		"/>
		<polygon fill="#42413F" stroke="#FFFFFF" stroke-miterlimit="10" points="169.529,53.565 166.021,41.871 147.308,41.871 
			143.8,53.565 147.308,65.261 166.021,65.261 		"/>
		<polygon fill="#42413F" stroke="#FFFFFF" stroke-miterlimit="10" points="191.752,41.871 188.242,30.174 169.529,30.174 
			166.021,41.871 169.529,53.565 188.242,53.565 		"/>
		<polygon fill="#42413F" stroke="#FFFFFF" stroke-miterlimit="10" points="102.865,65.261 99.357,53.565 80.645,53.565 
			77.134,65.261 80.645,76.957 99.357,76.957 		"/>
		<polygon fill="#42413F" stroke="#FFFFFF" stroke-miterlimit="10" points="80.645,76.957 77.134,65.261 58.42,65.261 
			54.912,76.957 58.42,88.652 77.134,88.652 		"/>
		<polygon fill="#42413F" stroke="#FFFFFF" stroke-miterlimit="10" points="58.42,65.261 54.912,53.565 36.201,53.565 
			32.691,65.261 36.201,76.957 54.912,76.957 		"/>
		<polygon fill="#42413F" stroke="#FFFFFF" stroke-miterlimit="10" points="36.201,76.957 32.691,65.261 13.979,65.261 
			10.471,76.957 13.979,88.652 32.691,88.652 		"/>
		<polygon fill="#42413F" stroke="#FFFFFF" stroke-miterlimit="10" points="13.979,65.261 10.471,53.565 -8.243,53.565 
			-11.754,65.261 -8.243,76.957 10.471,76.957 		"/>
		<polygon fill="#42413F" stroke="#FFFFFF" stroke-miterlimit="10" points="125.086,76.957 121.578,65.261 102.865,65.261 
			99.357,76.957 102.865,88.652 121.578,88.652 		"/>
		<polygon fill="#42413F" stroke="#FFFFFF" stroke-miterlimit="10" points="147.308,65.261 143.8,53.565 125.086,53.565 
			121.578,65.261 125.086,76.957 143.8,76.957 		"/>
		<polygon fill="#42413F" stroke="#FFFFFF" stroke-miterlimit="10" points="169.529,76.957 166.021,65.261 147.308,65.261 
			143.8,76.957 147.308,88.652 166.021,88.652 		"/>
		<polygon fill="#42413F" stroke="#FFFFFF" stroke-miterlimit="10" points="191.752,65.261 188.242,53.565 169.529,53.565 
			166.021,65.261 169.529,76.957 188.242,76.957 		"/>
		<polygon fill="#42413F" stroke="#FFFFFF" stroke-miterlimit="10" points="102.865,182.217 99.357,170.521 80.645,170.521 
			77.134,182.217 80.645,193.913 99.357,193.913 		"/>
		<polygon fill="#42413F" stroke="#FFFFFF" stroke-miterlimit="10" points="58.42,182.217 54.912,170.521 36.201,170.521 
			32.691,182.217 36.201,193.913 54.912,193.913 		"/>
		<polygon fill="#42413F" stroke="#FFFFFF" stroke-miterlimit="10" points="13.979,182.217 10.471,170.521 -8.243,170.521 
			-11.754,182.217 -8.243,193.913 10.471,193.913 		"/>
		<polygon fill="#42413F" stroke="#FFFFFF" stroke-miterlimit="10" points="147.308,182.217 143.8,170.521 125.086,170.521 
			121.578,182.217 125.086,193.913 143.8,193.913 		"/>
		<polygon fill="#42413F" stroke="#FFFFFF" stroke-miterlimit="10" points="191.752,182.217 188.242,170.521 169.529,170.521 
			166.021,182.217 169.529,193.913 188.242,193.913 		"/>
		<polygon fill="#42413F" stroke="#FFFFFF" stroke-miterlimit="10" points="102.865,158.826 99.357,147.13 80.645,147.13 
			77.134,158.826 80.645,170.521 99.357,170.521 		"/>
		<polygon fill="#42413F" stroke="#FFFFFF" stroke-miterlimit="10" points="80.645,170.521 77.134,158.826 58.42,158.826 
			54.912,170.521 58.42,182.217 77.134,182.217 		"/>
		<polygon fill="#42413F" stroke="#FFFFFF" stroke-miterlimit="10" points="58.42,158.826 54.912,147.13 36.201,147.13 
			32.691,158.826 36.201,170.521 54.912,170.521 		"/>
		<polygon fill="#42413F" stroke="#FFFFFF" stroke-miterlimit="10" points="36.201,170.521 32.691,158.826 13.979,158.826 
			10.471,170.521 13.979,182.217 32.691,182.217 		"/>
		<polygon fill="#42413F" stroke="#FFFFFF" stroke-miterlimit="10" points="13.979,158.826 10.471,147.13 -8.243,147.13 
			-11.754,158.826 -8.243,170.521 10.471,170.521 		"/>
		<polygon fill="#42413F" stroke="#FFFFFF" stroke-miterlimit="10" points="125.086,170.521 121.578,158.826 102.865,158.826 
			99.357,170.521 102.865,182.217 121.578,182.217 		"/>
		<polygon fill="#42413F" stroke="#FFFFFF" stroke-miterlimit="10" points="147.308,158.826 143.8,147.13 125.086,147.13 
			121.578,158.826 125.086,170.521 143.8,170.521 		"/>
		<polygon fill="#42413F" stroke="#FFFFFF" stroke-miterlimit="10" points="169.529,170.521 166.021,158.826 147.308,158.826 
			143.8,170.521 147.308,182.217 166.021,182.217 		"/>
		<polygon fill="#42413F" stroke="#FFFFFF" stroke-miterlimit="10" points="191.752,158.826 188.242,147.13 169.529,147.13 
			166.021,158.826 169.529,170.521 188.242,170.521 		"/>
		<polygon fill="#42413F" stroke="#FFFFFF" stroke-miterlimit="10" points="102.865,135.435 99.357,123.739 80.645,123.739 
			77.134,135.435 80.645,147.13 99.357,147.13 		"/>
		<polygon fill="#42413F" stroke="#FFFFFF" stroke-miterlimit="10" points="80.645,147.13 77.134,135.435 58.42,135.435 
			54.912,147.13 58.42,158.826 77.134,158.826 		"/>
		<polygon fill="#42413F" stroke="#FFFFFF" stroke-miterlimit="10" points="58.42,135.435 54.912,123.739 36.201,123.739 
			32.691,135.435 36.201,147.13 54.912,147.13 		"/>
		<polygon fill="#42413F" stroke="#FFFFFF" stroke-miterlimit="10" points="36.201,147.13 32.691,135.435 13.979,135.435 
			10.471,147.13 13.979,158.826 32.691,158.826 		"/>
		<polygon fill="#42413F" stroke="#FFFFFF" stroke-miterlimit="10" points="13.979,135.435 10.471,123.739 -8.243,123.739 
			-11.754,135.435 -8.243,147.13 10.471,147.13 		"/>
		<polygon fill="#42413F" stroke="#FFFFFF" stroke-miterlimit="10" points="125.086,147.13 121.578,135.435 102.865,135.435 
			99.357,147.13 102.865,158.826 121.578,158.826 		"/>
		<polygon fill="#42413F" stroke="#FFFFFF" stroke-miterlimit="10" points="147.308,135.435 143.8,123.739 125.086,123.739 
			121.578,135.435 125.086,147.13 143.8,147.13 		"/>
		<polygon fill="#42413F" stroke="#FFFFFF" stroke-miterlimit="10" points="169.529,147.13 166.021,135.435 147.308,135.435 
			143.8,147.13 147.308,158.826 166.021,158.826 		"/>
		<polygon fill="#42413F" stroke="#FFFFFF" stroke-miterlimit="10" points="191.752,135.435 188.242,123.739 169.529,123.739 
			166.021,135.435 169.529,147.13 188.242,147.13 		"/>
		<polygon fill="#42413F" stroke="#FFFFFF" stroke-miterlimit="10" points="102.865,112.043 99.357,100.348 80.645,100.348 
			77.134,112.043 80.645,123.739 99.357,123.739 		"/>
		<polygon fill="#42413F" stroke="#FFFFFF" stroke-miterlimit="10" points="80.645,123.739 77.134,112.043 58.42,112.043 
			54.912,123.739 58.42,135.435 77.134,135.435 		"/>
		<polygon fill="#42413F" stroke="#FFFFFF" stroke-miterlimit="10" points="58.42,112.043 54.912,100.348 36.201,100.348 
			32.691,112.043 36.201,123.739 54.912,123.739 		"/>
		<polygon fill="#42413F" stroke="#FFFFFF" stroke-miterlimit="10" points="36.201,123.739 32.691,112.043 13.979,112.043 
			10.471,123.739 13.979,135.435 32.691,135.435 		"/>
		<polygon fill="#42413F" stroke="#FFFFFF" stroke-miterlimit="10" points="13.979,112.043 10.471,100.348 -8.243,100.348 
			-11.754,112.043 -8.243,123.739 10.471,123.739 		"/>
		<polygon fill="#42413F" stroke="#FFFFFF" stroke-miterlimit="10" points="125.086,123.739 121.578,112.043 102.865,112.043 
			99.357,123.739 102.865,135.435 121.578,135.435 		"/>
		<polygon fill="#42413F" stroke="#FFFFFF" stroke-miterlimit="10" points="147.308,112.043 143.8,100.348 125.086,100.348 
			121.578,112.043 125.086,123.739 143.8,123.739 		"/>
		<polygon fill="#42413F" stroke="#FFFFFF" stroke-miterlimit="10" points="169.529,123.739 166.021,112.043 147.308,112.043 
			143.8,123.739 147.308,135.435 166.021,135.435 		"/>
		<polygon fill="#42413F" stroke="#FFFFFF" stroke-miterlimit="10" points="191.752,112.043 188.242,100.348 169.529,100.348 
			166.021,112.043 169.529,123.739 188.242,123.739 		"/>
		<polygon fill="#42413F" stroke="#FFFFFF" stroke-miterlimit="10" points="191.752,88.652 188.242,76.957 169.529,76.957 
			166.021,88.652 169.529,100.348 188.242,100.348 		"/>
		<polygon fill="#42413F" stroke="#FFFFFF" stroke-miterlimit="10" points="169.529,100.348 166.021,88.652 147.308,88.652 
			143.8,100.348 147.308,112.043 166.021,112.043 		"/>
		<polygon fill="#42413F" stroke="#FFFFFF" stroke-miterlimit="10" points="147.308,88.652 143.8,76.957 125.086,76.957 
			121.578,88.652 125.086,100.348 143.8,100.348 		"/>
		<polygon fill="#42413F" stroke="#FFFFFF" stroke-miterlimit="10" points="125.086,100.348 121.578,88.652 102.865,88.652 
			99.357,100.348 102.865,112.043 121.578,112.043 		"/>
		<polygon fill="#42413F" stroke="#FFFFFF" stroke-miterlimit="10" points="13.979,88.652 10.471,76.957 -8.243,76.957 
			-11.754,88.652 -8.243,100.348 10.471,100.348 		"/>
		<polygon fill="#42413F" stroke="#FFFFFF" stroke-miterlimit="10" points="36.201,100.348 32.691,88.652 13.979,88.652 
			10.471,100.348 13.979,112.043 32.691,112.043 		"/>
		<polygon fill="#42413F" stroke="#FFFFFF" stroke-miterlimit="10" points="58.42,88.652 54.912,76.957 36.201,76.957 
			32.691,88.652 36.201,100.348 54.912,100.348 		"/>
		<polygon fill="#42413F" stroke="#FFFFFF" stroke-miterlimit="10" points="80.645,100.348 77.134,88.652 58.42,88.652 
			54.912,100.348 58.42,112.043 77.134,112.043 		"/>
		<polygon fill="#42413F" stroke="#FFFFFF" stroke-miterlimit="10" points="102.865,88.652 99.357,76.957 80.645,76.957 
			77.134,88.652 80.645,100.348 99.357,100.348 		"/>
	</g>
</g>
<g>
	<defs>
		<rect id="SVGID_588_" y="266.998" width="180" height="180"/>
	</defs>
	<clipPath id="SVGID_4_">
		<use xlink:href="#SVGID_588_"  overflow="visible"/>
	</clipPath>
	<g clip-path="url(#SVGID_4_)">
		<g>
			<polygon fill="#4E4B48" points="34.11,173.251 32.245,172.464 28.654,179.91 28.186,182.515 30.064,183.004 30.571,180.086 			
				"/>
			<polygon fill="#4E4B48" points="63.664,175.621 84.552,193.407 87.296,192.22 87.296,192.22 65.791,174.04 			"/>
		</g>
		<g>
			<polygon fill="#444341" points="65.791,174.04 87.296,192.22 90.057,187.648 90.057,187.648 69.11,171.572 			"/>
			<polygon fill="#444341" points="121.099,179.044 118.168,183.4 130.986,192.172 145.388,205.038 148.211,200.4 133.045,187.468 
							"/>
			<polygon fill="#444341" points="34.11,173.251 30.571,180.086 30.064,183.004 34.313,184.111 38.591,173.537 			"/>
		</g>
		<g>
			<polygon fill="#3F3E3D" points="70.455,169.724 69.11,171.572 69.11,171.572 90.057,187.648 90.309,185.416 			"/>
			<polygon fill="#3F3E3D" points="121.099,179.044 133.045,187.468 148.211,200.4 149.655,198.1 138.34,188.246 124.116,177.408 
							"/>
			<polygon fill="#3F3E3D" points="34.313,184.111 36.377,184.107 40.345,173.648 38.591,173.537 			"/>
		</g>
	</g>
	<g clip-path="url(#SVGID_4_)">
		<g>
			<polygon fill="#4E4B48" points="157.847,162.219 156.354,160.042 144.313,163.498 123.435,167.001 124.011,170.23 
				143.029,166.868 			"/>
		</g>
		<g>
			<polygon fill="#444341" points="159.459,167.216 157.847,162.219 143.029,166.868 124.011,170.23 125.911,175.317 
				145.452,171.394 			"/>
		</g>
		<g>
			<polygon fill="#3F3E3D" points="159.459,167.216 145.452,171.394 125.911,175.317 126.825,177.875 141.567,175.076 
				158.879,170.599 			"/>
		</g>
	</g>
</g>
</svg>
