<?xml version="1.0" encoding="utf-8"?>
<!-- Generator: Adobe Illustrator 16.0.0, SVG Export Plug-In . SVG Version: 6.00 Build 0)  -->
<!DOCTYPE svg PUBLIC "-//W3C//DTD SVG 1.1//EN" "http://www.w3.org/Graphics/SVG/1.1/DTD/svg11.dtd">
<svg version="1.1" id="圖層_1" xmlns="http://www.w3.org/2000/svg" xmlns:xlink="http://www.w3.org/1999/xlink" x="0px" y="0px"
	 width="180px" height="180px" viewBox="0 0 180 180" enable-background="new 0 0 180 180" xml:space="preserve">
<g>
	<defs>
		<rect id="SVGID_588_" width="180" height="180"/>
	</defs>
	<clipPath id="SVGID_2_">
		<use xlink:href="#SVGID_588_"  overflow="visible"/>
	</clipPath>
	<rect clip-path="url(#SVGID_2_)" fill="#665046" width="180" height="180"/>
	<g clip-path="url(#SVGID_2_)">
		<path fill="#59463D" d="M118.8,86.4c3.601,0,3.601-0.9,4.801-1.351c1.199-0.45,3.601-0.45,4.8,0c1.2,0.45,1.2,1.351,4.8,1.351"/>
		<path fill="#59463D" d="M61.2,162c3.6,0,3.6-0.9,4.8-1.351c1.201-0.45,3.601-0.45,4.8,0C72,161.1,72,162,75.6,162"/>
		<path fill="#59463D" d="M147.601,57.6c3.601,0,3.601-0.899,4.8-1.35c1.2-0.45,3.6-0.45,4.799,0c1.201,0.45,1.201,1.35,4.802,1.35"
			/>
		<path fill="#59463D" d="M118.8,43.2c3.601,0,3.601-0.9,4.801-1.35c1.199-0.45,3.601-0.45,4.8,0c1.2,0.449,1.2,1.35,4.8,1.35"/>
		<path fill="#59463D" d="M28.801,64.8c3.599,0,3.599-0.9,4.8-1.35c1.2-0.45,3.599-0.45,4.8,0c1.2,0.449,1.2,1.35,4.799,1.35"/>
		<path fill="#59463D" d="M104.4,165.601c7.199,0,7.199-1.801,8.999-2.701c1.801-0.899,5.4-0.899,7.201,0c1.8,0.9,1.8,2.701,9,2.701
			"/>
		<path fill="#59463D" d="M144,111.6c7.201,0,7.201-1.8,9-2.7c1.801-0.899,5.4-0.899,7.201,0c1.8,0.9,1.8,2.7,8.999,2.7"/>
		<path fill="#59463D" d="M61.2,25.2c7.2,0,7.2-1.801,8.999-2.7c1.801-0.9,5.4-0.9,7.201,0c1.8,0.899,1.8,2.7,8.999,2.7"/>
		<path fill="#59463D" d="M82.801,61.199C90,61.199,90,59.4,91.8,58.5c1.801-0.9,5.399-0.9,7.2,0c1.8,0.9,1.8,2.699,9,2.699"/>
		<path fill="#59463D" d="M82.801,122.399c7.199,0,7.199-1.799,8.999-2.699c1.801-0.9,5.399-0.9,7.2,0c1.8,0.9,1.8,2.699,9,2.699"/>
		<path fill="#59463D" d="M50.4,93.6c7.199,0,7.199-1.8,8.999-2.7c1.801-0.899,5.4-0.899,7.201,0c1.8,0.9,1.8,2.7,8.999,2.7"/>
		<path fill="#59463D" d="M10.8,133.199c7.201,0,7.201-1.799,9.001-2.699c1.799-0.9,5.399-0.9,7.199,0
			c1.801,0.9,1.801,2.699,9,2.699"/>
	</g>
	<g clip-path="url(#SVGID_2_)">
		<g>
			<polygon fill="#4E4B48" points="100.123,146.937 85.393,142.616 84.23,145.857 84.23,145.857 99.995,149.948 			"/>
			<polygon fill="#4E4B48" points="45.723,21.883 43.127,21.399 37.057,32.356 24.771,49.599 27.463,51.474 38.531,35.648 			"/>
			<polygon fill="#4E4B48" points="153.582,125.109 150.986,124.627 144.916,135.584 132.631,152.826 135.322,154.701 
				146.39,138.876 			"/>
			<polygon fill="#4E4B48" points="118.301,19.697 117.852,16.952 102.128,27.749 91.262,37.766 92.829,39.565 104.106,29.535 			
				"/>
			<polygon fill="#4E4B48" points="41.297,98.456 37.809,97.936 32.162,110.646 34.762,112.155 41.297,98.456 			"/>
			<polygon fill="#4E4B48" points="126.025,110.11 115.117,97.353 112.742,97.216 114.284,99.944 121.245,109.006 134.376,123.858 
				136.352,121.864 			"/>
			<polygon fill="#4E4B48" points="153.702,40.441 154.263,38.496 146.444,35.813 143.802,35.655 143.538,37.579 146.496,37.737 			
				"/>
			<polygon fill="#4E4B48" points="56.813,130.015 66.28,122.834 63.929,119.308 53.129,126.508 42.329,140.907 27.929,151.707 
				30.463,155.507 30.479,155.532 45.903,144.561 			"/>
			<polygon fill="#4E4B48" points="33.682,69.467 9.557,87.444 10.777,90.087 10.777,90.087 35.874,71.897 			"/>
			<polygon fill="#4E4B48" points="62.456,46.645 58.168,61.385 61.411,62.538 65.468,46.766 			"/>
			<polygon fill="#4E4B48" points="154.851,70.066 139.664,92.915 141.167,95.5 141.167,95.5 156.673,71.991 			"/>
			<polygon fill="#4E4B48" points="122.458,52.43 120.079,54.807 132.301,63.697 134.272,60.971 			"/>
		</g>
		<g>
			<polygon fill="#444341" points="156.673,71.991 141.167,95.5 146.035,97.7 146.035,97.7 159.517,74.996 			"/>
			<polygon fill="#444341" points="118.307,56.577 116.425,59.021 116.425,59.021 128.035,68.8 132.301,63.697 132.301,63.697 
				120.079,54.807 			"/>
			<polygon fill="#444341" points="65.468,46.766 61.411,62.538 61.411,62.538 66.688,63.945 73.018,47.066 			"/>
			<polygon fill="#444341" points="84.23,145.857 82.813,151.129 99.678,157.496 99.995,149.948 			"/>
			<polygon fill="#444341" points="50.396,24.277 45.723,21.883 38.531,35.648 27.463,51.474 32.402,53.728 43.446,37.136 			"/>
			<polygon fill="#444341" points="158.255,127.505 153.582,125.109 146.39,138.876 135.322,154.701 140.261,156.954 
				151.307,140.362 			"/>
			<polygon fill="#444341" points="120.917,23.211 118.301,19.697 104.106,29.535 92.829,39.565 95.086,42.154 107.52,32.232 			"/>
			<polygon fill="#444341" points="44.138,99.662 41.297,98.456 34.762,112.155 34.762,112.155 40.773,114.998 40.773,114.998 
				46.298,100.931 			"/>
			<polygon fill="#444341" points="114.284,99.944 112.742,97.216 107.878,100.726 118.446,115.576 130.528,127.202 
				134.376,123.858 121.245,109.006 			"/>
			<polygon fill="#444341" points="153.702,40.441 146.496,37.737 143.538,37.579 142.943,41.929 153.95,44.925 			"/>
			<polygon fill="#444341" points="38.439,75.517 35.874,71.897 35.874,71.897 10.777,90.087 13.757,94.643 33.858,78.818 			"/>
			<polygon fill="#444341" points="66.28,122.834 56.813,130.015 45.903,144.561 30.479,155.532 35.128,162.507 45.928,155.308 
				56.729,140.907 69.452,127.592 			"/>
		</g>
		<g>
			<polygon fill="#3F3E3D" points="161.511,76.112 159.517,74.996 159.517,74.996 146.035,97.7 148.281,97.685 			"/>
			<polygon fill="#3F3E3D" points="115.042,62.267 125.918,70.935 128.035,68.8 128.035,68.8 116.425,59.021 			"/>
			<polygon fill="#3F3E3D" points="82.454,154.118 98.618,159.779 99.678,157.496 82.813,151.129 			"/>
			<polygon fill="#3F3E3D" points="50.396,24.277 43.446,37.136 32.402,53.728 34.857,54.89 43.302,42.485 52.379,27.079 			"/>
			<polygon fill="#3F3E3D" points="158.255,127.505 151.307,140.362 140.261,156.954 142.716,158.116 151.161,145.713 
				160.238,130.307 			"/>
			<polygon fill="#3F3E3D" points="120.939,23.241 120.917,23.211 107.52,32.232 95.086,42.154 96.595,43.884 108.406,35.396 
				121.823,25.268 			"/>
			<polygon fill="#3F3E3D" points="49.197,102.634 46.298,100.931 40.773,114.998 43.909,116.219 			"/>
			<polygon fill="#3F3E3D" points="107.878,100.726 105.104,102.487 115.704,117.642 127.283,129.115 130.528,127.202 
				118.446,115.576 			"/>
			<polygon fill="#3F3E3D" points="142.943,41.929 143.191,43.979 154.047,46.679 153.95,44.925 			"/>
			<polygon fill="#3F3E3D" points="38.439,75.517 33.858,78.818 13.757,94.643 13.762,94.648 16.123,96.248 39.938,77.629 			"/>
			<polygon fill="#3F3E3D" points="73.018,47.066 66.688,63.945 69.676,64.297 75.302,48.121 			"/>
			<polygon fill="#3F3E3D" points="69.452,127.592 56.729,140.907 45.928,155.308 35.128,162.507 38.729,162.507 49.528,155.308 
				60.328,140.907 71.129,130.107 			"/>
		</g>
	</g>
	<g clip-path="url(#SVGID_2_)">
		<g>
			<polygon fill="#4E4B48" points="70.927,148.312 63.566,134.841 60.453,136.311 60.453,136.311 68.706,150.351 			"/>
			<polygon fill="#4E4B48" points="120.887,21.419 119.393,19.24 107.353,22.696 86.474,26.201 87.051,29.431 106.067,26.067 			"/>
			<polygon fill="#4E4B48" points="124.162,170.679 122.669,168.502 110.629,171.958 89.75,175.462 90.326,178.691 109.343,175.327 
							"/>
			<polygon fill="#4E4B48" points="173.752,71.194 175.377,68.935 156.622,65.45 141.855,64.849 141.693,67.23 156.76,68.112 			"/>
			<polygon fill="#4E4B48" points="63.611,72.435 61.513,69.6 48.533,74.594 49.303,77.499 63.611,72.435 			"/>
			<polygon fill="#4E4B48" points="115.282,140.587 116.591,123.853 115.008,122.077 114.168,125.097 112.684,136.426 
				111.467,156.213 114.272,156.2 			"/>
			<polygon fill="#4E4B48" points="184.118,110.894 185.889,109.915 182.258,102.489 180.501,100.509 178.953,101.684 
				180.934,103.887 			"/>
			<polygon fill="#4E4B48" points="52.269,105.722 64.039,107.338 64.87,103.181 52.143,100.636 34.323,103.181 16.505,100.636 
				15.609,105.114 15.604,105.144 34.268,108.293 			"/>
			<polygon fill="#4E4B48" points="78.725,46.551 48.954,42.204 47.95,44.936 47.95,44.936 78.557,49.819 			"/>
			<polygon fill="#4E4B48" points="115.209,50.76 101.755,58.15 103.232,61.26 117.254,52.975 			"/>
			<polygon fill="#4E4B48" points="163.981,132.654 137.086,138.072 136.321,140.963 136.321,140.963 163.908,135.305 			"/>
			<polygon fill="#4E4B48" points="153.546,97.278 150.185,97.277 152.539,112.206 155.86,111.671 			"/>
		</g>
		<g>
			<polygon fill="#444341" points="163.908,135.305 136.321,140.963 138.207,145.961 138.207,145.961 163.794,139.439 			"/>
			<polygon fill="#444341" points="147.68,97.276 144.619,97.673 144.619,97.673 145.916,112.798 152.539,112.206 152.539,112.206 
				150.185,97.277 			"/>
			<polygon fill="#444341" points="117.254,52.975 103.232,61.26 103.232,61.26 105.968,65.985 122.379,58.525 			"/>
			<polygon fill="#444341" points="60.453,136.311 55.723,139.036 63.146,155.464 68.706,150.351 			"/>
			<polygon fill="#444341" points="122.498,26.415 120.887,21.419 106.067,26.067 87.051,29.431 88.949,34.516 108.492,30.594 			
				"/>
			<polygon fill="#444341" points="125.773,175.677 124.162,170.679 109.343,175.327 90.326,178.691 92.225,183.778 
				111.768,179.854 			"/>
			<polygon fill="#444341" points="173.117,75.528 173.752,71.194 156.76,68.112 141.693,67.23 141.457,70.657 157.266,72.434 			
				"/>
			<polygon fill="#444341" points="64.768,75.296 63.611,72.435 49.303,77.499 49.303,77.499 51.544,83.761 51.544,83.762 
				65.397,77.72 			"/>
			<polygon fill="#444341" points="114.168,125.097 115.008,122.077 109.086,121.118 106.059,139.093 106.383,155.856 
				111.467,156.213 112.684,136.426 			"/>
			<polygon fill="#444341" points="184.118,110.894 180.934,103.887 178.953,101.684 175.459,104.338 181.121,114.239 			"/>
			<polygon fill="#444341" points="77.813,54.192 78.557,49.819 78.557,49.819 47.95,44.936 46.834,50.264 72.237,53.288 			"/>
			<polygon fill="#444341" points="64.039,107.338 52.269,105.722 34.268,108.293 15.604,105.144 13.959,113.363 26.688,115.909 
				44.506,113.363 62.918,112.944 			"/>
		</g>
		<g>
			<polygon fill="#3F3E3D" points="164.414,141.639 163.794,139.439 163.794,139.439 138.207,145.961 139.807,147.538 			"/>
			<polygon fill="#3F3E3D" points="141.347,98.99 142.91,112.811 145.916,112.798 145.916,112.798 144.619,97.673 			"/>
			<polygon fill="#3F3E3D" points="53.354,140.896 60.781,156.329 63.146,155.464 55.723,139.036 			"/>
			<polygon fill="#3F3E3D" points="122.498,26.415 108.492,30.594 88.949,34.516 89.865,37.074 104.606,34.274 121.919,29.799 			
				"/>
			<polygon fill="#3F3E3D" points="125.773,175.677 111.768,179.854 92.225,183.778 93.139,186.335 107.882,183.536 125.194,179.06 
							"/>
			<polygon fill="#3F3E3D" points="173.112,75.564 173.117,75.528 157.266,72.434 141.457,70.657 141.301,72.947 155.654,75.298 
				172.305,77.623 			"/>
			<polygon fill="#3F3E3D" points="66.243,80.975 65.397,77.72 51.544,83.762 52.898,86.841 			"/>
			<polygon fill="#3F3E3D" points="109.086,121.118 105.879,120.403 102.659,138.614 102.733,154.915 106.383,155.856 
				106.059,139.093 			"/>
			<polygon fill="#3F3E3D" points="175.459,104.338 174.184,105.963 179.95,115.549 181.121,114.239 			"/>
			<polygon fill="#3F3E3D" points="77.813,54.192 72.237,53.288 46.834,50.264 46.832,50.271 47.372,53.072 77.377,56.746 			"/>
			<polygon fill="#3F3E3D" points="122.379,58.525 105.968,65.985 107.833,68.347 123.25,60.887 			"/>
			<polygon fill="#3F3E3D" points="62.918,112.944 44.506,113.363 26.688,115.909 13.959,113.363 16.505,115.909 29.232,118.455 
				47.052,115.909 62.325,115.909 			"/>
		</g>
	</g>
	<g clip-path="url(#SVGID_2_)">
		<g>
			<polygon fill="#4E4B48" points="87.605,181.065 72.876,176.745 71.713,179.986 71.713,179.986 87.479,184.077 			"/>
			<polygon fill="#4E4B48" points="33.206,56.012 30.61,55.528 24.539,66.485 12.254,83.728 14.944,85.603 26.014,69.777 			"/>
			<polygon fill="#4E4B48" points="141.064,159.238 138.47,158.755 132.4,169.713 120.114,186.954 122.806,188.83 133.873,173.005 
							"/>
			<polygon fill="#4E4B48" points="105.784,53.826 105.336,51.081 89.61,61.878 78.744,71.895 80.313,73.693 91.589,63.664 			"/>
			<polygon fill="#4E4B48" points="28.781,132.585 25.292,132.064 19.646,144.774 22.243,146.284 28.781,132.585 			"/>
			<polygon fill="#4E4B48" points="113.509,144.239 102.6,131.481 100.226,131.345 101.766,134.073 108.729,143.135 
				121.857,157.987 123.836,155.993 			"/>
			<polygon fill="#4E4B48" points="141.186,74.57 141.746,72.625 133.928,69.941 131.283,69.784 131.021,71.708 133.98,71.865 			
				"/>
			<polygon fill="#4E4B48" points="44.296,164.144 53.763,156.963 51.411,153.436 40.611,160.636 29.812,175.036 15.411,185.836 
				17.945,189.636 17.961,189.661 33.387,178.689 			"/>
			<polygon fill="#4E4B48" points="21.164,103.596 -2.959,121.573 -1.739,124.216 -1.739,124.216 23.355,106.026 			"/>
			<polygon fill="#4E4B48" points="49.939,80.773 45.65,95.514 48.895,96.667 52.95,80.894 			"/>
			<polygon fill="#4E4B48" points="142.334,104.195 127.146,127.044 128.649,129.628 128.649,129.628 144.155,106.12 			"/>
			<polygon fill="#4E4B48" points="109.941,86.559 107.563,88.936 119.784,97.825 121.755,95.1 			"/>
		</g>
		<g>
			<polygon fill="#444341" points="144.155,106.12 128.649,129.628 133.519,131.828 133.519,131.828 147,109.125 			"/>
			<polygon fill="#444341" points="105.789,90.706 103.906,93.15 103.906,93.15 115.518,102.929 119.784,97.825 119.784,97.825 
				107.563,88.936 			"/>
			<polygon fill="#444341" points="52.95,80.894 48.895,96.667 48.895,96.667 54.17,98.074 60.5,81.194 			"/>
			<polygon fill="#444341" points="71.713,179.986 70.297,185.258 87.161,191.625 87.479,184.077 			"/>
			<polygon fill="#444341" points="37.879,58.406 33.206,56.012 26.014,69.777 14.944,85.603 19.885,87.856 30.929,71.265 			"/>
			<polygon fill="#444341" points="145.737,161.634 141.064,159.238 133.873,173.005 122.806,188.83 127.744,191.083 
				138.788,174.491 			"/>
			<polygon fill="#444341" points="108.398,57.34 105.784,53.826 91.589,63.664 80.313,73.693 82.57,76.283 95.002,66.361 			"/>
			<polygon fill="#444341" points="31.621,133.791 28.781,132.585 22.243,146.284 22.243,146.284 28.256,149.127 28.258,149.127 
				33.78,135.06 			"/>
			<polygon fill="#444341" points="101.766,134.073 100.226,131.345 95.36,134.854 105.929,149.705 118.011,161.331 
				121.857,157.987 108.729,143.135 			"/>
			<polygon fill="#444341" points="141.186,74.57 133.98,71.865 131.021,71.708 130.426,76.057 141.433,79.054 			"/>
			<polygon fill="#444341" points="25.922,109.646 23.355,106.026 23.355,106.026 -1.739,124.216 1.24,128.771 21.342,112.947 			
				"/>
			<polygon fill="#444341" points="53.763,156.963 44.296,164.144 33.387,178.689 17.961,189.661 22.611,196.636 33.412,189.437 
				44.212,175.036 56.934,161.72 			"/>
		</g>
		<g>
			<polygon fill="#3F3E3D" points="148.993,110.241 147,109.125 147,109.125 133.519,131.828 135.764,131.813 			"/>
			<polygon fill="#3F3E3D" points="102.525,96.396 113.402,105.063 115.518,102.929 115.518,102.929 103.906,93.15 			"/>
			<polygon fill="#3F3E3D" points="37.879,58.406 30.929,71.265 19.885,87.856 22.34,89.019 30.785,76.614 39.861,61.208 			"/>
			<polygon fill="#3F3E3D" points="145.737,161.634 138.788,174.491 127.744,191.083 130.2,192.245 138.644,179.842 
				147.722,164.435 			"/>
			<polygon fill="#3F3E3D" points="108.421,57.37 108.398,57.34 95.002,66.361 82.57,76.283 84.078,78.013 95.889,69.525 
				109.307,59.396 			"/>
			<polygon fill="#3F3E3D" points="36.68,136.763 33.78,135.06 28.258,149.127 31.392,150.347 			"/>
			<polygon fill="#3F3E3D" points="95.36,134.854 92.587,136.616 103.188,151.771 114.767,163.244 118.011,161.331 105.929,149.705 
							"/>
			<polygon fill="#3F3E3D" points="130.426,76.057 130.674,78.107 141.53,80.808 141.433,79.054 			"/>
			<polygon fill="#3F3E3D" points="25.922,109.646 21.342,112.947 1.24,128.771 1.244,128.777 3.605,130.377 27.42,111.758 			"/>
			<polygon fill="#3F3E3D" points="60.5,81.194 54.17,98.074 57.158,98.426 62.785,82.25 			"/>
			<polygon fill="#3F3E3D" points="56.934,161.72 44.212,175.036 33.412,189.437 22.611,196.636 26.211,196.636 37.011,189.437 
				47.811,175.036 58.611,164.236 			"/>
		</g>
	</g>
	<g clip-path="url(#SVGID_2_)">
		<g>
			<polygon fill="#4E4B48" points="126.314,160.41 111.08,162.299 111.301,165.735 111.301,165.735 127.395,163.226 			"/>
			<polygon fill="#4E4B48" points="26.703,67.269 24.129,67.856 22.912,80.323 18.489,101.027 21.704,101.679 25.573,82.759 			"/>
			<polygon fill="#4E4B48" points="166.7,119.139 164.125,119.727 162.91,132.194 158.486,152.898 161.7,153.55 165.568,134.629 			
				"/>
			<polygon fill="#4E4B48" points="92.438,36.425 90.934,34.083 80.795,50.239 74.804,63.749 76.956,64.777 83.321,51.093 			"/>
			<polygon fill="#4E4B48" points="53.068,139.296 49.66,140.204 49.527,154.112 52.513,154.465 53.068,139.296 			"/>
			<polygon fill="#4E4B48" points="135.451,116.324 120.372,108.951 118.14,109.77 120.638,111.661 130.627,117.21 148.578,125.622 
				149.597,123.008 			"/>
			<polygon fill="#4E4B48" points="133.166,41.394 132.908,39.386 124.667,40.03 122.18,40.937 122.702,42.806 125.479,41.775 			
				"/>
			<polygon fill="#4E4B48" points="79.848,162.091 85.681,151.74 82.121,149.438 75.071,160.337 70.882,177.842 61.96,193.475 
				65.794,195.956 65.819,195.972 75.616,179.774 			"/>
			<polygon fill="#4E4B48" points="34.561,115.719 19.565,141.803 21.736,143.743 21.736,143.743 37.538,117.079 			"/>
			<polygon fill="#4E4B48" points="51.897,83.344 53.82,98.573 57.256,98.343 54.709,82.257 			"/>
			<polygon fill="#4E4B48" points="145.993,68.124 141.134,95.125 143.541,96.899 143.541,96.899 148.429,69.166 			"/>
			<polygon fill="#4E4B48" points="109.26,64.81 108.02,67.937 122.769,71.238 123.494,67.953 			"/>
		</g>
		<g>
			<polygon fill="#444341" points="148.429,69.166 143.541,96.899 148.883,96.984 148.883,96.984 152.232,70.794 			"/>
			<polygon fill="#444341" points="107.097,70.266 106.34,73.257 106.34,73.257 120.881,77.616 122.769,71.238 122.769,71.238 
				108.02,67.937 			"/>
			<polygon fill="#444341" points="54.709,82.257 57.256,98.343 57.256,98.343 62.655,97.538 61.756,79.533 			"/>
			<polygon fill="#444341" points="111.301,165.735 112.095,171.136 130.104,170.277 127.395,163.226 			"/>
			<polygon fill="#444341" points="31.943,67.609 26.703,67.269 25.573,82.759 21.704,101.679 27.133,101.784 30.675,82.17 			"/>
			<polygon fill="#444341" points="171.938,119.48 166.7,119.139 165.568,134.629 161.7,153.55 167.128,153.655 170.671,134.041 			
				"/>
			<polygon fill="#444341" points="96.234,38.609 92.438,36.425 83.321,51.093 76.956,64.777 80.057,66.257 87.524,52.211 			"/>
			<polygon fill="#444341" points="56.154,139.274 53.068,139.296 52.513,154.465 52.513,154.465 59.16,154.685 59.162,154.685 
				58.641,139.58 			"/>
			<polygon fill="#444341" points="120.638,111.661 118.14,109.77 115.069,114.923 130.669,124.352 146.375,130.22 148.578,125.622 
				130.627,117.21 			"/>
			<polygon fill="#444341" points="133.166,41.394 125.479,41.775 122.702,42.806 123.885,47.034 135.176,45.409 			"/>
			<polygon fill="#444341" points="41.331,119.38 37.538,117.079 37.538,117.079 21.736,143.743 26.28,146.74 38.438,124.23 			"/>
			<polygon fill="#444341" points="85.681,151.74 79.848,162.091 75.616,179.774 65.819,195.972 72.858,200.524 79.908,189.627 
				84.098,172.12 90.481,154.846 			"/>
		</g>
		<g>
			<polygon fill="#3F3E3D" points="154.506,71.025 152.232,70.794 152.232,70.794 148.883,96.984 150.938,96.079 			"/>
			<polygon fill="#3F3E3D" points="106.361,76.784 119.787,80.416 120.881,77.616 120.881,77.616 106.34,73.257 			"/>
			<polygon fill="#3F3E3D" points="112.954,174.021 130.036,172.794 130.104,170.277 112.095,171.136 			"/>
			<polygon fill="#3F3E3D" points="31.943,67.609 30.675,82.17 27.133,101.784 29.848,101.875 32.668,87.138 34.875,69.393 			"/>
			<polygon fill="#3F3E3D" points="171.938,119.48 170.671,134.041 167.128,153.655 169.843,153.746 172.664,139.009 
				174.873,121.263 			"/>
			<polygon fill="#3F3E3D" points="96.267,38.628 96.234,38.609 87.524,52.211 80.057,66.257 82.128,67.245 89.595,54.763 
				97.883,40.136 			"/>
			<polygon fill="#3F3E3D" points="61.977,139.991 58.641,139.58 59.162,154.685 62.522,154.559 			"/>
			<polygon fill="#3F3E3D" points="115.069,114.923 113.224,117.642 128.972,127.337 144.157,133.266 146.375,130.22 
				130.669,124.352 			"/>
			<polygon fill="#3F3E3D" points="123.885,47.034 124.926,48.816 135.962,46.98 135.176,45.409 			"/>
			<polygon fill="#3F3E3D" points="41.331,119.38 38.438,124.23 26.28,146.74 26.287,146.744 29.088,147.273 43.545,120.725 			"/>
			<polygon fill="#3F3E3D" points="61.756,79.533 62.655,97.538 65.537,96.674 64.273,79.593 			"/>
			<polygon fill="#3F3E3D" points="90.481,154.846 84.098,172.12 79.908,189.627 72.858,200.524 76.161,199.094 83.212,188.196 
				87.4,170.69 93.02,156.487 			"/>
		</g>
	</g>
	<g clip-path="url(#SVGID_2_)">
		<g>
			<polygon fill="#4E4B48" points="110.203,137.232 97.467,128.664 95.379,131.403 95.379,131.403 109.173,140.065 			"/>
			<polygon fill="#4E4B48" points="96.114,1.589 93.786,0.343 84.69,8.955 67.77,21.681 69.77,24.281 85.102,12.538 			"/>
			<polygon fill="#4E4B48" points="167.759,132.571 165.43,131.326 156.334,139.939 139.415,152.664 141.414,155.266 
				156.746,143.521 			"/>
			<polygon fill="#4E4B48" points="165.963,21.426 166.365,18.673 148.113,24.217 134.729,30.482 135.682,32.672 149.461,26.518 			
				"/>
			<polygon fill="#4E4B48" points="68.769,73.248 65.6,71.698 56.377,82.108 58.398,84.334 68.769,73.248 			"/>
			<polygon fill="#4E4B48" points="146.021,109.949 139.475,94.492 137.252,93.646 137.896,96.712 141.796,107.452 149.828,125.577 
				152.313,124.273 			"/>
			<polygon fill="#4E4B48" points="74.028,108.02 85.222,104.033 84.045,99.961 71.574,103.563 56.93,114.028 39.94,119.975 
				41.208,124.362 41.215,124.391 59.234,118.592 			"/>
			<polygon fill="#4E4B48" points="70.264,43.313 41.836,53.164 42.201,56.052 42.201,56.052 71.618,46.292 			"/>
			<polygon fill="#4E4B48" points="104.588,30.248 96.047,43.004 98.792,45.083 107.423,31.272 			"/>
			<polygon fill="#4E4B48" points="185.594,80.482 164.215,97.676 164.867,100.595 164.867,100.595 186.75,82.867 			"/>
			<polygon fill="#4E4B48" points="160.04,53.886 157.056,55.433 166.021,67.599 168.722,65.595 			"/>
		</g>
		<g>
			<polygon fill="#444341" points="186.75,82.867 164.867,100.595 168.843,104.162 168.843,104.162 188.553,86.591 			"/>
			<polygon fill="#444341" points="154.831,56.585 152.299,58.347 152.299,58.347 160.412,71.175 166.021,67.599 166.021,67.599 
				157.056,55.433 			"/>
			<polygon fill="#444341" points="107.423,31.272 98.792,45.083 98.792,45.083 103.396,48.018 114.528,33.839 			"/>
			<polygon fill="#444341" points="95.379,131.403 92.436,136.001 106.59,147.164 109.173,140.065 			"/>
			<polygon fill="#444341" points="99.847,5.282 96.114,1.589 85.102,12.538 69.77,24.281 73.798,27.922 89.338,15.44 			"/>
			<polygon fill="#444341" points="171.49,136.266 167.759,132.571 156.746,143.521 141.414,155.266 145.442,158.905 
				160.98,146.424 			"/>
			<polygon fill="#444341" points="167.396,25.565 165.963,21.426 149.461,26.518 135.682,32.672 137.051,35.822 151.898,30.119 			
				"/>
			<polygon fill="#444341" points="71.111,75.255 68.769,73.248 58.398,84.334 58.398,84.334 63.271,88.859 63.273,88.859 
				72.787,77.117 			"/>
			<polygon fill="#444341" points="137.896,96.712 137.252,93.646 131.554,95.521 137.143,112.87 145.149,127.603 149.828,125.577 
				141.796,107.452 			"/>
			<polygon fill="#444341" points="72.972,50.517 71.618,46.292 71.618,46.292 42.201,56.052 43.666,61.295 67.607,52.281 			"/>
			<polygon fill="#444341" points="85.222,104.033 74.028,108.02 59.234,118.592 41.215,124.391 43.542,132.445 56.013,128.844 
				70.657,118.378 86.808,109.526 			"/>
		</g>
		<g>
			<polygon fill="#3F3E3D" points="190.115,88.257 188.553,86.591 188.553,86.591 168.843,104.162 170.988,104.826 			"/>
			<polygon fill="#3F3E3D" points="149.999,61.022 157.75,72.57 160.412,71.175 160.412,71.175 152.299,58.347 			"/>
			<polygon fill="#3F3E3D" points="91.191,138.741 104.891,149.021 106.59,147.164 92.436,136.001 			"/>
			<polygon fill="#3F3E3D" points="99.847,5.282 89.338,15.44 73.798,27.922 75.788,29.771 87.584,20.498 100.891,8.552 			"/>
			<polygon fill="#3F3E3D" points="171.49,136.266 160.98,146.424 145.442,158.905 147.432,160.755 159.229,151.48 172.534,139.535 
							"/>
			<polygon fill="#3F3E3D" points="167.407,25.601 167.396,25.565 151.898,30.119 137.051,35.822 137.966,37.927 151.787,33.403 
				167.64,27.8 			"/>
			<polygon fill="#3F3E3D" points="75.037,79.617 72.787,77.117 63.273,88.859 65.893,90.97 			"/>
			<polygon fill="#3F3E3D" points="131.554,95.521 128.377,96.363 133.905,114.012 141.479,128.446 145.149,127.603 137.143,112.87 
							"/>
			<polygon fill="#3F3E3D" points="72.972,50.517 67.607,52.281 43.666,61.295 43.667,61.302 45.436,63.54 73.762,52.983 			"/>
			<polygon fill="#3F3E3D" points="114.528,33.839 103.396,48.018 106.139,49.256 116.389,35.535 			"/>
			<polygon fill="#3F3E3D" points="86.808,109.526 70.657,118.378 56.013,128.844 43.542,132.445 46.974,133.532 59.444,129.931 
				74.089,119.465 87.646,112.432 			"/>
		</g>
	</g>
	<g clip-path="url(#SVGID_2_)">
		<g>
			<polygon fill="#4E4B48" points="194.859,88.759 192.531,87.513 183.436,96.126 166.516,108.852 168.515,111.452 183.846,99.709 
							"/>
			<polygon fill="#4E4B48" points="167.514,160.419 164.345,158.869 155.122,169.279 157.144,171.504 167.514,160.419 			"/>
			<polygon fill="#4E4B48" points="169.01,130.483 140.58,140.335 140.946,143.222 140.946,143.222 170.363,133.463 			"/>
		</g>
		<g>
			<polygon fill="#444341" points="198.592,92.452 194.859,88.759 183.846,99.709 168.515,111.452 172.543,115.092 188.083,102.611 
							"/>
			<polygon fill="#444341" points="169.856,162.426 167.514,160.419 157.144,171.504 157.144,171.504 162.017,176.03 
				162.018,176.03 171.532,164.288 			"/>
			<polygon fill="#444341" points="171.717,137.688 170.363,133.463 170.363,133.463 140.946,143.222 142.411,148.465 
				166.353,139.452 			"/>
		</g>
		<g>
			<polygon fill="#3F3E3D" points="198.592,92.452 188.083,102.611 172.543,115.092 174.533,116.941 186.329,107.668 
				199.636,95.723 			"/>
			<polygon fill="#3F3E3D" points="173.781,166.788 171.532,164.288 162.018,176.03 164.638,178.141 			"/>
			<polygon fill="#3F3E3D" points="171.717,137.688 166.353,139.452 142.411,148.465 142.412,148.473 144.181,150.711 
				172.507,140.153 			"/>
		</g>
	</g>
	<g clip-path="url(#SVGID_2_)">
		<g>
			<polygon fill="#4E4B48" points="122.604,108.16 108.215,113.508 109.224,116.802 109.224,116.802 124.305,110.651 			"/>
			<polygon fill="#4E4B48" points="4.214,40.476 1.844,41.641 3.533,54.053 4,75.219 7.277,75.112 6.684,55.809 			"/>
			<polygon fill="#4E4B48" points="152.395,58.694 150.026,59.859 151.714,72.271 152.181,93.438 155.458,93.331 154.864,74.028 			
				"/>
			<polygon fill="#4E4B48" points="61.074,-4.685 59.071,-6.616 52.927,11.442 50.208,25.969 52.543,26.473 55.581,11.69 			"/>
			<polygon fill="#4E4B48" points="46.465,104.49 43.358,106.159 46.435,119.724 49.421,119.379 46.465,104.49 			"/>
			<polygon fill="#4E4B48" points="121.34,63.155 104.967,59.455 102.981,60.766 105.849,62.03 116.848,65.129 136.254,69.179 
				136.645,66.399 			"/>
			<polygon fill="#4E4B48" points="77.776,120.502 81.068,109.086 77.074,107.665 72.725,119.896 72.682,137.896 67.6,155.162 
				71.904,156.693 71.931,156.703 77.732,138.685 			"/>
			<polygon fill="#4E4B48" points="23.023,85.813 14.441,114.648 17.001,116.037 17.001,116.037 26.233,86.449 			"/>
			<polygon fill="#4E4B48" points="32.435,50.313 37.813,64.689 41.104,63.675 34.92,48.607 			"/>
			<polygon fill="#4E4B48" points="120.491,13.822 121.984,41.218 124.735,42.39 124.735,42.39 123.102,14.276 			"/>
			<polygon fill="#4E4B48" points="83.982,19.062 83.497,22.39 98.608,22.205 98.559,18.841 			"/>
		</g>
		<g>
			<polygon fill="#444341" points="123.102,14.276 124.735,42.39 129.952,41.241 129.952,41.241 127.179,14.983 			"/>
			<polygon fill="#444341" points="83.136,24.868 83.088,27.954 83.088,27.954 98.242,28.845 98.608,22.205 98.608,22.205 
				83.497,22.39 			"/>
			<polygon fill="#444341" points="34.92,48.607 41.104,63.675 41.104,63.675 46.173,61.647 41.15,44.333 			"/>
			<polygon fill="#444341" points="109.224,116.802 111.24,121.874 128.565,116.89 124.305,110.651 			"/>
			<polygon fill="#444341" points="9.391,39.6 4.214,40.476 6.684,55.809 7.277,75.112 12.583,73.964 11.512,54.062 			"/>
			<polygon fill="#444341" points="157.572,57.818 152.395,58.694 154.864,74.028 155.458,93.331 160.764,92.184 159.692,72.28 			
				"/>
			<polygon fill="#444341" points="65.271,-3.433 61.074,-4.685 55.581,11.69 52.543,26.473 55.899,27.198 59.93,11.81 			"/>
			<polygon fill="#444341" points="49.463,103.758 46.465,104.49 49.421,119.379 49.421,119.379 55.939,118.061 55.939,118.061 
				51.953,103.482 			"/>
			<polygon fill="#444341" points="105.849,62.03 102.981,60.766 101.182,66.487 118.534,72.068 135.171,74.159 136.254,69.179 
				116.848,65.129 			"/>
			<polygon fill="#444341" points="30.455,87.815 26.233,86.449 26.233,86.449 17.001,116.037 22.113,117.905 28.759,93.201 			"/>
			<polygon fill="#444341" points="81.068,109.086 77.776,120.502 77.732,138.685 71.931,156.703 79.83,159.512 84.18,147.282 
				84.222,129.282 86.454,111.001 			"/>
		</g>
		<g>
			<polygon fill="#3F3E3D" points="129.443,14.685 127.179,14.983 127.179,14.983 129.952,41.241 131.744,39.886 			"/>
			<polygon fill="#3F3E3D" points="83.922,31.381 97.822,31.822 98.242,28.845 98.242,28.845 83.088,27.954 			"/>
			<polygon fill="#3F3E3D" points="112.74,124.483 129.081,119.354 128.565,116.89 111.24,121.874 			"/>
			<polygon fill="#3F3E3D" points="9.391,39.6 11.512,54.062 12.583,73.964 15.247,73.427 14.598,58.436 12.656,40.659 			"/>
			<polygon fill="#3F3E3D" points="157.572,57.818 159.692,72.28 160.764,92.184 163.428,91.646 162.777,76.654 160.836,58.878 			
				"/>
			<polygon fill="#3F3E3D" points="65.307,-3.422 65.271,-3.433 59.93,11.81 55.899,27.198 58.144,27.682 62.532,13.815 
				67.229,-2.327 			"/>
			<polygon fill="#3F3E3D" points="55.295,103.114 51.953,103.482 55.939,118.061 59.182,117.163 			"/>
			<polygon fill="#3F3E3D" points="101.182,66.487 100.013,69.559 117.571,75.364 133.713,77.635 135.171,74.159 118.534,72.068 			
				"/>
			<polygon fill="#3F3E3D" points="30.455,87.815 28.759,93.201 22.113,117.905 22.119,117.908 24.969,117.777 32.918,88.612 			"/>
			<polygon fill="#3F3E3D" points="41.15,44.333 46.173,61.647 48.778,60.142 43.613,43.813 			"/>
			<polygon fill="#3F3E3D" points="86.454,111.001 84.222,129.282 84.18,147.282 79.83,159.512 82.716,157.358 87.064,145.13 
				87.106,127.129 89.305,112.015 			"/>
		</g>
	</g>
	<g clip-path="url(#SVGID_2_)">
		<g>
			<polygon fill="#4E4B48" points="2.891,11.274 2.104,13.794 12.265,21.119 27.93,35.362 30.11,32.911 15.707,20.046 			"/>
			<polygon fill="#4E4B48" points="78.4,24.739 77.47,28.142 89.421,35.255 91.229,32.854 78.4,24.739 			"/>
			<polygon fill="#4E4B48" points="111.575,13.071 105.566,2.82 101.786,4.737 107.656,16.314 120.675,28.745 129.692,44.322 
				133.767,42.258 133.793,42.244 124.726,25.627 			"/>
			<polygon fill="#4E4B48" points="48.713,28.867 63.706,54.952 66.474,54.053 66.474,54.053 51.387,26.979 			"/>
			<polygon fill="#4E4B48" points="29.461,-2.407 43.589,3.596 45.119,0.512 29.937,-5.384 			"/>
		</g>
		<g>
			<polygon fill="#444341" points="29.937,-5.384 45.119,0.512 45.119,0.512 47.142,-4.56 31.13,-12.845 			"/>
			<polygon fill="#444341" points="5.821,6.918 2.891,11.274 15.707,20.046 30.11,32.911 32.934,28.273 17.767,15.342 			"/>
			<polygon fill="#444341" points="79.935,22.063 78.4,24.739 91.229,32.854 91.229,32.854 94.764,27.22 94.764,27.22 81.45,20.068 
							"/>
			<polygon fill="#444341" points="55.283,24.86 51.387,26.979 51.387,26.979 66.474,54.053 71.351,51.635 58.021,29.8 			"/>
			<polygon fill="#444341" points="105.566,2.82 111.575,13.071 124.726,25.627 133.793,42.244 141.269,38.453 135.4,26.876 
				122.381,14.445 110.666,0.236 			"/>
		</g>
		<g>
			<polygon fill="#3F3E3D" points="5.821,6.918 17.767,15.342 32.934,28.273 34.378,25.974 23.063,16.118 8.839,5.28 			"/>
			<polygon fill="#3F3E3D" points="83.485,17.391 81.45,20.068 94.764,27.22 96.347,24.251 			"/>
			<polygon fill="#3F3E3D" points="55.283,24.86 58.021,29.8 71.351,51.635 71.358,51.631 73.226,49.476 57.56,23.623 			"/>
			<polygon fill="#3F3E3D" points="110.666,0.236 122.381,14.445 135.4,26.876 141.269,38.453 141.697,34.878 135.827,23.301 
				122.808,10.871 113.362,-1.132 			"/>
		</g>
	</g>
	<g clip-path="url(#SVGID_2_)">
		<g>
			<polygon fill="#4E4B48" points="109.83,153.356 94.48,153.252 94.254,156.688 94.254,156.688 110.537,156.288 			"/>
			<polygon fill="#4E4B48" points="23.152,48.073 20.523,48.322 17.699,60.526 10.626,80.481 13.729,81.544 20.022,63.286 			"/>
			<polygon fill="#4E4B48" points="155.231,117.676 152.604,117.925 149.778,130.129 142.706,150.084 145.81,151.147 152.1,132.889 
							"/>
			<polygon fill="#4E4B48" points="92.334,26.022 91.147,23.506 78.997,38.21 71.303,50.827 73.305,52.127 81.391,39.384 			"/>
			<polygon fill="#4E4B48" points="39.945,122.913 36.448,123.372 34.512,137.145 37.427,137.882 39.945,122.913 			"/>
			<polygon fill="#4E4B48" points="124.613,110.829 110.619,101.562 108.297,102.083 110.529,104.283 119.714,111.081 
				136.421,121.752 137.772,119.293 			"/>
			<polygon fill="#4E4B48" points="132.074,36.235 132.077,34.212 123.822,33.781 121.238,34.356 121.515,36.277 124.401,35.617 			
				"/>
			<polygon fill="#4E4B48" points="63.54,148.991 70.667,139.485 67.437,136.74 59.031,146.633 52.605,163.446 41.729,177.788 
				45.209,180.745 45.231,180.766 57.048,165.977 			"/>
			<polygon fill="#4E4B48" points="24.654,97.134 6.4,121.051 8.301,123.256 8.301,123.256 27.43,98.869 			"/>
			<polygon fill="#4E4B48" points="46.047,67.282 45.977,82.633 49.413,82.851 48.977,66.57 			"/>
			<polygon fill="#4E4B48" points="141.321,64.404 133,90.548 135.156,92.62 135.156,92.62 143.602,65.755 			"/>
			<polygon fill="#4E4B48" points="105.329,56.351 103.694,59.291 117.889,64.479 119.035,61.316 			"/>
		</g>
		<g>
			<polygon fill="#444341" points="143.602,65.755 135.156,92.62 140.44,93.396 140.44,93.396 147.161,67.861 			"/>
			<polygon fill="#444341" points="102.479,61.479 101.34,64.348 101.34,64.348 115.19,70.558 117.889,64.479 117.889,64.479 
				103.694,59.291 			"/>
			<polygon fill="#444341" points="48.977,66.57 49.413,82.851 49.413,82.851 54.87,82.754 56.317,64.784 			"/>
			<polygon fill="#444341" points="94.254,156.688 94.341,162.146 112.306,163.633 110.537,156.288 			"/>
			<polygon fill="#444341" points="28.304,49.091 23.152,48.073 20.022,63.286 13.729,81.544 19.097,82.354 25.155,63.364 			"/>
			<polygon fill="#444341" points="160.382,118.694 155.231,117.676 152.1,132.889 145.81,151.147 151.177,151.956 157.234,132.968 
							"/>
			<polygon fill="#444341" points="95.815,28.682 92.334,26.022 81.391,39.384 73.305,52.127 76.187,53.996 85.414,41.038 			"/>
			<polygon fill="#444341" points="43.008,123.293 39.945,122.913 37.427,137.882 37.427,137.882 43.988,138.963 43.988,138.963 
				45.434,123.918 			"/>
			<polygon fill="#444341" points="110.529,104.283 108.297,102.083 104.584,106.795 118.828,118.168 133.641,126.024 
				136.421,121.752 119.714,111.081 			"/>
			<polygon fill="#444341" points="132.074,36.235 124.401,35.617 121.515,36.277 122.139,40.623 133.543,40.479 			"/>
			<polygon fill="#444341" points="30.892,101.644 27.43,98.869 27.43,98.869 8.301,123.256 12.417,126.817 27.395,106.077 			"/>
			<polygon fill="#444341" points="70.667,139.485 63.54,148.991 57.048,165.977 45.231,180.766 51.621,186.192 60.024,176.302 
				66.451,159.487 75.024,143.188 			"/>
		</g>
		<g>
			<polygon fill="#3F3E3D" points="149.387,68.387 147.161,67.861 147.161,67.861 140.44,93.396 142.598,92.766 			"/>
			<polygon fill="#3F3E3D" points="100.901,67.848 113.742,73.191 115.19,70.558 115.19,70.558 101.34,64.348 			"/>
			<polygon fill="#3F3E3D" points="94.817,165.118 111.915,166.119 112.306,163.633 94.341,162.146 			"/>
			<polygon fill="#3F3E3D" points="28.304,49.091 25.155,63.364 19.097,82.354 21.778,82.795 26.488,68.549 30.979,51.24 			"/>
			<polygon fill="#3F3E3D" points="160.382,118.694 157.234,132.968 151.177,151.956 153.857,152.398 158.566,138.151 
				163.059,120.843 			"/>
			<polygon fill="#3F3E3D" points="95.844,28.704 95.815,28.682 85.414,41.038 76.187,53.996 78.112,55.244 87.135,43.837 
				97.252,30.409 			"/>
			<polygon fill="#3F3E3D" points="48.689,124.759 45.434,123.918 43.988,138.963 47.338,139.273 			"/>
			<polygon fill="#3F3E3D" points="104.584,106.795 102.402,109.25 116.761,120.907 131.046,128.757 133.641,126.024 
				118.828,118.168 			"/>
			<polygon fill="#3F3E3D" points="122.139,40.623 122.939,42.526 134.119,42.139 133.543,40.479 			"/>
			<polygon fill="#3F3E3D" points="30.892,101.644 27.395,106.077 12.417,126.817 12.424,126.821 15.133,127.71 32.913,103.263 			
				"/>
			<polygon fill="#3F3E3D" points="56.317,64.784 54.87,82.754 57.842,82.271 58.805,65.17 			"/>
			<polygon fill="#3F3E3D" points="75.024,143.188 66.451,159.487 60.024,176.302 51.621,186.192 55.082,185.203 63.486,175.313 
				69.912,158.499 77.328,145.146 			"/>
		</g>
	</g>
	<g clip-path="url(#SVGID_2_)">
		<g>
			<polygon fill="#4E4B48" points="55.398,140.497 48.037,127.026 44.924,128.497 44.924,128.497 53.179,142.537 			"/>
			<polygon fill="#4E4B48" points="105.357,13.604 103.864,11.427 91.824,14.883 70.945,18.387 71.521,21.615 90.539,18.253 			"/>
			<polygon fill="#4E4B48" points="108.633,162.864 107.139,160.687 95.099,164.144 74.221,167.647 74.797,170.877 93.813,167.514 
							"/>
			<polygon fill="#4E4B48" points="158.225,63.379 159.848,61.12 141.094,57.637 126.328,57.035 126.164,59.416 141.23,60.299 			
				"/>
			<polygon fill="#4E4B48" points="48.084,64.62 45.984,61.786 33.004,66.779 33.773,69.685 48.084,64.62 			"/>
			<polygon fill="#4E4B48" points="99.755,132.772 101.062,116.038 99.479,114.263 98.641,117.282 97.155,128.612 95.938,148.398 
				98.745,148.386 			"/>
			<polygon fill="#4E4B48" points="168.588,103.08 170.359,102.101 166.729,94.675 164.971,92.695 163.426,93.869 165.405,96.072 
							"/>
			<polygon fill="#4E4B48" points="36.739,97.907 48.511,99.524 49.342,95.367 36.614,92.821 18.795,95.367 0.976,92.821 0.08,97.3 
				0.074,97.329 18.74,100.479 			"/>
			<polygon fill="#4E4B48" points="63.197,38.736 33.427,34.39 32.421,37.121 32.421,37.121 63.027,42.005 			"/>
			<polygon fill="#4E4B48" points="99.68,42.946 86.226,50.337 87.704,53.445 101.726,45.161 			"/>
			<polygon fill="#4E4B48" points="148.451,124.841 121.558,130.258 120.793,133.148 120.793,133.148 148.379,127.489 			"/>
			<polygon fill="#4E4B48" points="138.019,89.465 134.654,89.463 137.011,104.391 140.332,103.857 			"/>
		</g>
		<g>
			<polygon fill="#444341" points="148.379,127.489 120.793,133.148 122.679,138.146 122.679,138.146 148.265,131.625 			"/>
			<polygon fill="#444341" points="132.149,89.462 129.091,89.859 129.091,89.859 130.386,104.983 137.011,104.391 137.011,104.391 
				134.654,89.463 			"/>
			<polygon fill="#444341" points="101.726,45.161 87.704,53.445 87.704,53.445 90.439,58.171 106.852,50.711 			"/>
			<polygon fill="#444341" points="44.924,128.497 40.193,131.222 47.617,147.649 53.179,142.537 			"/>
			<polygon fill="#444341" points="106.969,18.602 105.357,13.604 90.539,18.253 71.521,21.615 73.421,26.702 92.963,22.779 			"/>
			<polygon fill="#444341" points="110.244,167.862 108.633,162.864 93.813,167.514 74.797,170.877 76.696,175.962 96.238,172.04 
							"/>
			<polygon fill="#444341" points="157.589,67.714 158.225,63.379 141.23,60.299 126.164,59.416 125.929,62.844 141.736,64.619 			
				"/>
			<polygon fill="#444341" points="49.238,67.48 48.084,64.62 33.773,69.685 33.773,69.685 36.017,75.946 36.017,75.947 
				49.87,69.905 			"/>
			<polygon fill="#444341" points="98.641,117.282 99.479,114.263 93.559,113.304 90.529,131.278 90.852,148.043 95.938,148.398 
				97.155,128.612 			"/>
			<polygon fill="#444341" points="168.588,103.08 165.405,96.072 163.426,93.869 159.928,96.523 165.594,106.425 			"/>
			<polygon fill="#444341" points="62.283,46.378 63.027,42.005 63.027,42.005 32.421,37.121 31.306,42.45 56.708,45.474 			"/>
			<polygon fill="#444341" points="48.511,99.524 36.739,97.907 18.74,100.479 0.074,97.329 -1.57,105.549 11.158,108.096 
				28.977,105.549 47.39,105.13 			"/>
		</g>
		<g>
			<polygon fill="#3F3E3D" points="148.885,133.824 148.265,131.625 148.265,131.625 122.679,138.146 124.277,139.724 			"/>
			<polygon fill="#3F3E3D" points="125.818,91.176 127.381,104.996 130.386,104.983 130.386,104.983 129.091,89.859 			"/>
			<polygon fill="#3F3E3D" points="37.827,133.082 45.254,148.515 47.617,147.649 40.193,131.222 			"/>
			<polygon fill="#3F3E3D" points="106.969,18.602 92.963,22.779 73.421,26.702 74.336,29.261 89.078,26.461 106.39,21.984 			"/>
			<polygon fill="#3F3E3D" points="110.244,167.862 96.238,172.04 76.696,175.962 77.611,178.521 92.353,175.721 109.666,171.246 
							"/>
			<polygon fill="#3F3E3D" points="157.584,67.751 157.589,67.714 141.736,64.619 125.929,62.844 125.772,65.133 140.127,67.483 
				156.775,69.809 			"/>
			<polygon fill="#3F3E3D" points="50.715,73.16 49.87,69.905 36.017,75.947 37.369,79.026 			"/>
			<polygon fill="#3F3E3D" points="93.559,113.304 90.352,112.589 87.13,130.8 87.205,147.101 90.852,148.043 90.529,131.278 			"/>
			<polygon fill="#3F3E3D" points="159.928,96.523 158.654,98.148 164.422,107.734 165.594,106.425 			"/>
			<polygon fill="#3F3E3D" points="62.283,46.378 56.708,45.474 31.306,42.45 31.304,42.457 31.843,45.258 61.848,48.932 			"/>
			<polygon fill="#3F3E3D" points="106.852,50.711 90.439,58.171 92.303,60.533 107.722,53.073 			"/>
			<polygon fill="#3F3E3D" points="47.39,105.13 28.977,105.549 11.158,108.096 -1.57,105.549 0.976,108.095 13.703,110.641 
				31.523,108.095 46.797,108.095 			"/>
		</g>
	</g>
	<g clip-path="url(#SVGID_2_)">
		<g>
			<polygon fill="#4E4B48" points="74.127,128.5 76.655,127.734 76.992,115.212 79.949,94.248 76.697,93.824 74.166,112.97 			"/>
			<polygon fill="#4E4B48" points="10.725,163.889 12.388,166.118 21.367,149.289 26.395,135.392 24.174,134.518 18.787,148.616 			
				"/>
			<polygon fill="#4E4B48" points="42.766,58.505 46.102,57.358 45.256,43.477 42.254,43.334 42.766,58.505 			"/>
			<polygon fill="#4E4B48" points="25.931,43.916 20.838,54.651 24.552,56.698 30.818,45.331 33.767,27.574 41.568,11.354 
				37.569,9.147 37.544,9.134 28.91,25.979 			"/>
			<polygon fill="#4E4B48" points="62.885,80.723 76.01,53.649 73.708,51.867 73.708,51.867 59.818,79.575 			"/>
			<polygon fill="#4E4B48" points="47.865,114.237 44.878,99.18 41.469,99.65 45.137,115.519 			"/>
		</g>
		<g>
			<polygon fill="#444341" points="45.137,115.519 41.469,99.65 41.469,99.65 36.138,100.833 38.3,118.73 			"/>
			<polygon fill="#444341" points="68.878,128.529 74.127,128.5 74.166,112.97 76.697,93.824 71.275,94.101 69.119,113.915 			"/>
			<polygon fill="#444341" points="6.784,161.976 10.725,163.889 18.787,148.616 24.174,134.518 20.978,133.261 14.516,147.796 			
				"/>
			<polygon fill="#444341" points="39.689,58.743 42.766,58.505 42.254,43.334 42.254,43.334 35.607,43.583 35.607,43.583 
				37.188,58.613 			"/>
			<polygon fill="#444341" points="55.875,77.546 59.818,79.575 59.818,79.575 73.708,51.867 68.965,49.196 58.419,72.505 			"/>
			<polygon fill="#444341" points="20.838,54.651 25.931,43.916 28.91,25.979 37.544,9.134 30.202,5.087 23.936,16.453 
				20.987,34.21 15.833,51.891 			"/>
		</g>
		<g>
			<polygon fill="#3F3E3D" points="68.878,128.529 69.119,113.915 71.275,94.101 68.559,94.201 66.781,109.102 65.826,126.956 			
				"/>
			<polygon fill="#3F3E3D" points="6.749,161.96 6.784,161.976 14.516,147.796 20.978,133.261 18.842,132.42 12.271,145.396 
				5.031,160.568 			"/>
			<polygon fill="#3F3E3D" points="33.83,58.438 37.188,58.613 35.607,43.583 32.262,43.945 			"/>
			<polygon fill="#3F3E3D" points="55.875,77.546 58.419,72.505 68.965,49.196 68.958,49.193 66.125,48.861 53.572,76.361 			"/>
			<polygon fill="#3F3E3D" points="38.3,118.73 36.138,100.833 33.324,101.898 35.784,118.848 			"/>
			<polygon fill="#3F3E3D" points="15.833,51.891 20.987,34.21 23.936,16.453 30.202,5.087 27.007,6.745 20.74,18.112 17.792,35.87 
				13.185,50.432 			"/>
		</g>
	</g>
	<g clip-path="url(#SVGID_2_)">
		<g>
			<polygon fill="#4E4B48" points="90.786,49.375 83.426,35.904 80.313,37.374 80.313,37.374 88.567,51.414 			"/>
			<polygon fill="#4E4B48" points="144.021,71.741 142.527,69.564 130.487,73.021 109.609,76.525 110.187,79.754 129.203,76.391 			
				"/>
			<polygon fill="#4E4B48" points="135.143,41.649 136.45,24.916 134.868,23.141 134.028,26.159 132.544,37.489 131.326,57.276 
				134.133,57.263 			"/>
			<polygon fill="#4E4B48" points="72.128,6.785 83.899,8.401 84.73,4.244 72.003,1.699 54.184,4.244 36.363,1.699 35.468,6.178 
				35.463,6.206 54.127,9.356 			"/>
			<polygon fill="#4E4B48" points="183.84,33.718 156.945,39.136 156.18,42.025 156.18,42.025 183.768,36.367 			"/>
			<polygon fill="#4E4B48" points="173.407,-1.658 170.044,-1.66 172.398,13.269 175.722,12.735 			"/>
		</g>
		<g>
			<polygon fill="#444341" points="183.768,36.367 156.18,42.025 158.068,47.023 158.068,47.023 183.654,40.503 			"/>
			<polygon fill="#444341" points="167.538,-1.661 164.479,-1.264 164.479,-1.264 165.774,13.86 172.398,13.269 172.398,13.269 
				170.044,-1.66 			"/>
			<polygon fill="#444341" points="80.313,37.374 75.582,40.099 83.005,56.527 88.567,51.414 			"/>
			<polygon fill="#444341" points="145.633,76.74 144.021,71.741 129.203,76.391 110.187,79.754 112.086,84.84 131.626,80.918 			
				"/>
			<polygon fill="#444341" points="134.028,26.159 134.868,23.141 128.946,22.182 125.918,40.156 126.241,56.92 131.326,57.276 
				132.544,37.489 			"/>
			<polygon fill="#444341" points="83.899,8.401 72.128,6.785 54.127,9.356 35.463,6.206 33.818,14.427 46.546,16.973 
				64.365,14.427 82.778,14.008 			"/>
		</g>
		<g>
			<polygon fill="#3F3E3D" points="184.274,42.701 183.654,40.503 183.654,40.503 158.068,47.023 159.665,48.602 			"/>
			<polygon fill="#3F3E3D" points="161.206,0.053 162.769,13.873 165.774,13.86 165.774,13.86 164.479,-1.264 			"/>
			<polygon fill="#3F3E3D" points="73.215,41.959 80.642,57.393 83.005,56.527 75.582,40.099 			"/>
			<polygon fill="#3F3E3D" points="145.633,76.74 131.626,80.918 112.086,84.84 112.999,87.397 127.741,84.599 145.054,80.123 			
				"/>
			<polygon fill="#3F3E3D" points="128.946,22.182 125.74,21.466 122.518,39.678 122.592,55.979 126.241,56.92 125.918,40.156 			
				"/>
			<polygon fill="#3F3E3D" points="82.778,14.008 64.365,14.427 46.546,16.973 33.818,14.427 36.363,16.973 49.092,19.519 
				66.91,16.973 82.186,16.973 			"/>
		</g>
	</g>
	<g clip-path="url(#SVGID_2_)">
		<g>
			<polygon fill="#4E4B48" points="107.888,22.114 100.527,8.644 97.413,10.113 97.413,10.113 105.668,24.154 			"/>
			<polygon fill="#4E4B48" points="161.124,44.481 159.629,42.304 147.589,45.761 126.71,49.265 127.288,52.494 146.305,49.13 			
				"/>
			<polygon fill="#4E4B48" points="152.244,14.39 153.552,-2.345 151.97,-4.12 151.13,-1.101 149.645,10.229 148.428,30.016 
				151.234,30.003 			"/>
			<polygon fill="#4E4B48" points="200.941,6.458 174.047,11.875 173.283,14.766 173.283,14.766 200.868,9.106 			"/>
		</g>
		<g>
			<polygon fill="#444341" points="200.868,9.106 173.283,14.766 175.168,19.764 175.168,19.764 200.756,13.242 			"/>
			<polygon fill="#444341" points="97.413,10.113 92.684,12.839 100.106,29.267 105.668,24.154 			"/>
			<polygon fill="#444341" points="162.733,49.479 161.124,44.481 146.305,49.13 127.288,52.494 129.186,57.579 148.729,53.657 			
				"/>
			<polygon fill="#444341" points="151.13,-1.101 151.97,-4.12 146.048,-5.079 143.021,12.896 143.343,29.66 148.428,30.016 
				149.645,10.229 			"/>
		</g>
		<g>
			<polygon fill="#3F3E3D" points="201.376,15.441 200.756,13.242 200.756,13.242 175.168,19.764 176.769,21.341 			"/>
			<polygon fill="#3F3E3D" points="90.316,14.699 97.743,30.132 100.106,29.267 92.684,12.839 			"/>
			<polygon fill="#3F3E3D" points="162.733,49.479 148.729,53.657 129.186,57.579 130.101,60.138 144.842,57.338 162.155,52.863 			
				"/>
			<polygon fill="#3F3E3D" points="146.048,-5.079 142.84,-5.794 139.621,12.417 139.695,28.718 143.343,29.66 143.021,12.896 			
				"/>
		</g>
	</g>
	<g clip-path="url(#SVGID_2_)">
		<g>
			<polygon fill="#4E4B48" points="79.003,123.356 71.644,109.886 68.529,111.356 68.529,111.356 76.784,125.396 			"/>
			<polygon fill="#4E4B48" points="128.963,-3.536 127.469,-5.714 115.429,-2.258 94.551,1.246 95.127,4.475 114.144,1.112 			"/>
			<polygon fill="#4E4B48" points="132.238,145.724 130.745,143.546 118.705,147.003 97.826,150.507 98.402,153.736 117.42,150.373 
							"/>
			<polygon fill="#4E4B48" points="181.828,46.238 183.453,43.979 164.699,40.496 149.932,39.895 149.77,42.275 164.836,43.158 			
				"/>
			<polygon fill="#4E4B48" points="71.689,47.479 69.59,44.645 56.609,49.639 57.379,52.544 71.689,47.479 			"/>
			<polygon fill="#4E4B48" points="123.358,115.632 124.668,98.897 123.086,97.122 122.245,100.142 120.761,111.472 
				119.544,131.258 122.35,131.245 			"/>
			<polygon fill="#4E4B48" points="60.345,80.767 72.116,82.384 72.948,78.227 60.22,75.681 42.401,78.227 24.581,75.681 
				23.686,80.159 23.68,80.188 42.346,83.338 			"/>
			<polygon fill="#4E4B48" points="86.802,21.596 57.031,17.249 56.026,19.98 56.026,19.98 86.633,24.864 			"/>
			<polygon fill="#4E4B48" points="123.287,25.806 109.831,33.195 111.309,36.305 125.33,28.021 			"/>
			<polygon fill="#4E4B48" points="172.058,107.7 145.162,113.117 144.398,116.008 144.398,116.008 171.984,110.349 			"/>
			<polygon fill="#4E4B48" points="161.624,72.324 158.262,72.322 160.615,87.25 163.938,86.717 			"/>
		</g>
		<g>
			<polygon fill="#444341" points="171.984,110.349 144.398,116.008 146.284,121.006 146.284,121.006 171.872,114.484 			"/>
			<polygon fill="#444341" points="155.756,72.321 152.695,72.719 152.695,72.719 153.992,87.843 160.615,87.25 160.615,87.25 
				158.262,72.322 			"/>
			<polygon fill="#444341" points="125.33,28.021 111.309,36.305 111.309,36.305 114.045,41.03 130.455,33.57 			"/>
			<polygon fill="#444341" points="68.529,111.356 63.799,114.081 71.222,130.509 76.784,125.396 			"/>
			<polygon fill="#444341" points="130.574,1.461 128.963,-3.536 114.144,1.112 95.127,4.475 97.026,9.562 116.568,5.639 			"/>
			<polygon fill="#444341" points="133.85,150.722 132.238,145.724 117.42,150.373 98.402,153.736 100.302,158.821 119.844,154.899 
							"/>
			<polygon fill="#444341" points="181.193,50.572 181.828,46.238 164.836,43.158 149.77,42.275 149.535,45.703 165.343,47.479 			
				"/>
			<polygon fill="#444341" points="72.844,50.34 71.689,47.479 57.379,52.544 57.379,52.544 59.622,58.806 59.622,58.807 
				73.474,52.765 			"/>
			<polygon fill="#444341" points="122.245,100.142 123.086,97.122 117.162,96.163 114.137,114.138 114.459,130.902 
				119.544,131.258 120.761,111.472 			"/>
			<polygon fill="#444341" points="85.889,29.237 86.633,24.864 86.633,24.864 56.026,19.98 54.911,25.31 80.315,28.333 			"/>
			<polygon fill="#444341" points="72.116,82.384 60.345,80.767 42.346,83.338 23.68,80.188 22.036,88.408 34.764,90.955 
				52.583,88.408 70.994,87.989 			"/>
		</g>
		<g>
			<polygon fill="#3F3E3D" points="172.492,116.684 171.872,114.484 171.872,114.484 146.284,121.006 147.883,122.583 			"/>
			<polygon fill="#3F3E3D" points="149.424,74.035 150.986,87.855 153.992,87.843 153.992,87.843 152.695,72.719 			"/>
			<polygon fill="#3F3E3D" points="61.433,115.941 68.857,131.374 71.222,130.509 63.799,114.081 			"/>
			<polygon fill="#3F3E3D" points="130.574,1.461 116.568,5.639 97.026,9.562 97.941,12.12 112.683,9.32 129.995,4.844 			"/>
			<polygon fill="#3F3E3D" points="133.85,150.722 119.844,154.899 100.302,158.821 101.216,161.38 115.958,158.58 133.271,154.105 
							"/>
			<polygon fill="#3F3E3D" points="181.188,50.61 181.193,50.572 165.343,47.479 149.535,45.703 149.378,47.992 163.73,50.343 
				180.381,52.668 			"/>
			<polygon fill="#3F3E3D" points="74.319,56.02 73.474,52.765 59.622,58.807 60.975,61.886 			"/>
			<polygon fill="#3F3E3D" points="117.162,96.163 113.956,95.448 110.735,113.659 110.81,129.96 114.459,130.902 114.137,114.138 
							"/>
			<polygon fill="#3F3E3D" points="85.889,29.237 80.315,28.333 54.911,25.31 54.91,25.316 55.448,28.117 85.455,31.791 			"/>
			<polygon fill="#3F3E3D" points="130.455,33.57 114.045,41.03 115.91,43.393 131.326,35.933 			"/>
			<polygon fill="#3F3E3D" points="70.994,87.989 52.583,88.408 34.764,90.955 22.036,88.408 24.581,90.954 37.309,93.5 
				55.128,90.954 70.402,90.954 			"/>
		</g>
	</g>
	<g clip-path="url(#SVGID_2_)">
		<g>
			<polygon fill="#4E4B48" points="25.107,147.529 17.745,134.059 14.632,135.529 14.632,135.529 22.887,149.569 			"/>
			<polygon fill="#4E4B48" points="75.066,20.637 73.573,18.459 61.533,21.915 40.653,25.419 41.23,28.647 60.248,25.285 			"/>
			<polygon fill="#4E4B48" points="78.342,169.896 76.848,167.719 64.807,171.176 43.929,174.68 44.506,177.909 63.522,174.545 			
				"/>
			<polygon fill="#4E4B48" points="127.933,70.411 129.557,68.152 110.803,64.669 96.036,64.067 95.873,66.448 110.939,67.331 			
				"/>
			<polygon fill="#4E4B48" points="17.792,71.652 15.692,68.817 2.712,73.812 3.482,76.717 17.792,71.652 			"/>
			<polygon fill="#4E4B48" points="69.463,139.805 70.771,123.07 69.188,121.295 68.35,124.314 66.863,135.645 65.646,155.431 
				68.453,155.418 			"/>
			<polygon fill="#4E4B48" points="138.296,110.112 140.068,109.133 136.438,101.707 134.68,99.727 133.134,100.9 135.113,103.104 
							"/>
			<polygon fill="#4E4B48" points="6.448,104.939 18.219,106.557 19.05,102.399 6.322,99.854 -11.497,102.399 -29.315,99.854 
				-30.211,104.332 -30.217,104.361 -11.552,107.511 			"/>
			<polygon fill="#4E4B48" points="32.906,45.769 3.135,41.422 2.129,44.153 2.129,44.153 32.736,49.037 			"/>
			<polygon fill="#4E4B48" points="69.389,49.978 55.935,57.368 57.413,60.478 71.434,52.193 			"/>
			<polygon fill="#4E4B48" points="118.159,131.873 91.267,137.29 90.501,140.181 90.501,140.181 118.088,134.521 			"/>
			<polygon fill="#4E4B48" points="107.727,96.497 104.363,96.495 106.72,111.423 110.041,110.89 			"/>
		</g>
		<g>
			<polygon fill="#444341" points="118.088,134.521 90.501,140.181 92.388,145.179 92.388,145.179 117.974,138.657 			"/>
			<polygon fill="#444341" points="101.857,96.494 98.8,96.892 98.8,96.892 100.095,112.016 106.72,111.423 106.72,111.423 
				104.363,96.495 			"/>
			<polygon fill="#444341" points="71.434,52.193 57.413,60.478 57.413,60.478 60.147,65.203 76.56,57.743 			"/>
			<polygon fill="#444341" points="14.632,135.529 9.902,138.254 17.326,154.682 22.887,149.569 			"/>
			<polygon fill="#444341" points="76.678,25.634 75.066,20.637 60.248,25.285 41.23,28.647 43.129,33.734 62.672,29.812 			"/>
			<polygon fill="#444341" points="79.953,174.895 78.342,169.896 63.522,174.545 44.506,177.909 46.404,182.994 65.947,179.072 			
				"/>
			<polygon fill="#444341" points="127.298,74.745 127.933,70.411 110.939,67.331 95.873,66.448 95.637,69.876 111.445,71.651 			
				"/>
			<polygon fill="#444341" points="18.947,74.513 17.792,71.652 3.482,76.717 3.482,76.717 5.725,82.979 5.725,82.979 
				19.578,76.938 			"/>
			<polygon fill="#444341" points="68.35,124.314 69.188,121.295 63.267,120.336 60.238,138.311 60.561,155.075 65.646,155.431 
				66.863,135.645 			"/>
			<polygon fill="#444341" points="138.296,110.112 135.113,103.104 133.134,100.9 129.637,103.556 135.302,113.457 			"/>
			<polygon fill="#444341" points="31.992,53.41 32.736,49.037 32.736,49.037 2.129,44.153 1.015,49.481 26.417,52.506 			"/>
			<polygon fill="#444341" points="18.219,106.557 6.448,104.939 -11.552,107.511 -30.217,104.361 -31.861,112.581 -19.133,115.128 
				-1.314,112.581 17.098,112.162 			"/>
		</g>
		<g>
			<polygon fill="#3F3E3D" points="118.594,140.856 117.974,138.657 117.974,138.657 92.388,145.179 93.986,146.756 			"/>
			<polygon fill="#3F3E3D" points="95.526,98.208 97.089,112.028 100.095,112.016 100.095,112.016 98.8,96.892 			"/>
			<polygon fill="#3F3E3D" points="7.535,140.114 14.962,155.547 17.326,154.682 9.902,138.254 			"/>
			<polygon fill="#3F3E3D" points="76.678,25.634 62.672,29.812 43.129,33.734 44.044,36.293 58.787,33.493 76.099,29.017 			"/>
			<polygon fill="#3F3E3D" points="79.953,174.895 65.947,179.072 46.404,182.994 47.32,185.553 62.062,182.753 79.375,178.278 			
				"/>
			<polygon fill="#3F3E3D" points="127.293,74.783 127.298,74.745 111.445,71.651 95.637,69.876 95.48,72.165 109.836,74.516 
				126.484,76.841 			"/>
			<polygon fill="#3F3E3D" points="20.423,80.192 19.578,76.938 5.725,82.979 7.078,86.059 			"/>
			<polygon fill="#3F3E3D" points="63.267,120.336 60.06,119.621 56.839,137.832 56.913,154.133 60.561,155.075 60.238,138.311 			
				"/>
			<polygon fill="#3F3E3D" points="129.637,103.556 128.363,105.181 134.13,114.766 135.302,113.457 			"/>
			<polygon fill="#3F3E3D" points="31.992,53.41 26.417,52.506 1.015,49.481 1.012,49.489 1.552,52.29 31.557,55.964 			"/>
			<polygon fill="#3F3E3D" points="76.56,57.743 60.147,65.203 62.012,67.565 77.431,60.105 			"/>
			<polygon fill="#3F3E3D" points="17.098,112.162 -1.314,112.581 -19.133,115.128 -31.861,112.581 -29.315,115.127 
				-16.588,117.673 1.231,115.127 16.505,115.127 			"/>
		</g>
	</g>
	<g clip-path="url(#SVGID_2_)">
		<g>
			<polygon fill="#4E4B48" points="17.418,84.653 15.923,82.477 3.883,85.933 -16.996,89.438 -16.418,92.666 2.598,89.303 			"/>
			<polygon fill="#4E4B48" points="8.538,54.562 9.846,37.828 8.264,36.053 7.424,39.071 5.938,50.401 4.722,70.188 7.528,70.175 
							"/>
			<polygon fill="#4E4B48" points="77.372,24.869 79.145,23.891 75.513,16.465 73.756,14.484 72.209,15.658 74.188,17.862 			"/>
			<polygon fill="#4E4B48" points="57.235,46.63 30.341,52.047 29.577,54.938 29.577,54.938 57.162,49.279 			"/>
			<polygon fill="#4E4B48" points="46.802,11.254 43.439,11.252 45.794,26.181 49.115,25.647 			"/>
		</g>
		<g>
			<polygon fill="#444341" points="57.162,49.279 29.577,54.938 31.462,59.936 31.462,59.936 57.05,53.415 			"/>
			<polygon fill="#444341" points="40.934,11.251 37.874,11.648 37.874,11.648 39.17,26.772 45.794,26.181 45.794,26.181 
				43.439,11.252 			"/>
			<polygon fill="#444341" points="19.027,89.652 17.418,84.653 2.598,89.303 -16.418,92.666 -14.521,97.752 5.022,93.83 			"/>
			<polygon fill="#444341" points="7.424,39.071 8.264,36.053 2.342,35.094 -0.686,53.068 -0.363,69.832 4.722,70.188 5.938,50.401 
							"/>
			<polygon fill="#444341" points="77.372,24.869 74.188,17.862 72.209,15.658 68.713,18.313 74.377,28.215 			"/>
		</g>
		<g>
			<polygon fill="#3F3E3D" points="57.67,55.613 57.05,53.415 57.05,53.415 31.462,59.936 33.063,61.514 			"/>
			<polygon fill="#3F3E3D" points="34.603,12.965 36.165,26.785 39.17,26.772 39.17,26.772 37.874,11.648 			"/>
			<polygon fill="#3F3E3D" points="19.027,89.652 5.022,93.83 -14.521,97.752 -13.605,100.31 1.136,97.511 18.449,93.035 			"/>
			<polygon fill="#3F3E3D" points="2.342,35.094 -0.866,34.378 -4.086,52.589 -4.011,68.891 -0.363,69.832 -0.686,53.068 			"/>
			<polygon fill="#3F3E3D" points="68.713,18.313 67.439,19.938 73.206,29.523 74.377,28.215 			"/>
		</g>
	</g>
	<g clip-path="url(#SVGID_2_)">
		<path fill="#81BA6C" d="M90.9,82.8c0,10.8,0,18,1.8,18c0,0.516-1.024,0.357-1.301,0.385c-0.466,0.048-0.932,0.065-1.399,0.065
			s-0.933-0.018-1.398-0.065c-0.277-0.027-1.302,0.131-1.302-0.385c1.801,0,1.801-7.2,1.801-18"/>
		<path fill="#578E54" d="M108,80.1c-7.2,4.5-14.399,6.301-18,2.7C90.9,81,100.8,80.1,108,80.1z"/>
		<path fill="#578E54" d="M72,80.1c7.2,4.5,14.399,6.301,18,2.7C89.101,81,79.2,80.1,72,80.1z"/>
		<path fill="#60AD5E" d="M90,82.8c-0.899-1.8-10.8-2.7-18-2.7C79.2,77.399,90,79.2,90,82.8z"/>
		<path fill="#60AD5E" d="M90,82.8c0.9-1.8,10.8-2.7,18-2.7C100.8,77.399,90,79.2,90,82.8z"/>
	</g>
</g>
</svg>
