<?xml version="1.0" encoding="utf-8"?>
<!-- Generator: Adobe Illustrator 19.2.1, SVG Export Plug-In . SVG Version: 6.00 Build 0)  -->
<svg version="1.1" id="圖層_1" xmlns="http://www.w3.org/2000/svg" xmlns:xlink="http://www.w3.org/1999/xlink" x="0px" y="0px"
	 viewBox="0 0 146 146" style="enable-background:new 0 0 146 146;" xml:space="preserve">
<style type="text/css">
	.st0{opacity:0.5;fill:#EFF3FB;enable-background:new    ;}
	.st1{fill:#ECCA92;}
	.st2{fill:#E0B98E;}
	.st3{fill:#ECCE88;}
	.st4{fill:#E9ECF2;}
	.st5{fill:#989A9E;}
	.st6{opacity:0.3;}
</style>
<path class="st0" d="M109,35.8c0-3.6,0-4.8-0.4-5.4c-0.4-0.6-1.4-0.6-3.2-0.6H40.6c-1.8,0-2.7,0-3.2,0.6C37,31,37,32.2,37,35.8
	s0,9.6,0,13.2c0,3.1,0,4.4,0.3,5.1C37,55,37,57.5,37,69.7c0,14.1,0,41.1,0,55.8s0,17.1,1.8,18.3c1.8,1.2,5.4,1.2,34.2,1.2
	c28.8,0,32.4,0,34.2-1.2c1.8-1.2,1.8-3.6,1.8-18.3s0-41.7,0-55.8c0-12.2,0-14.7-0.3-15.6c0.3-0.7,0.3-2,0.3-5.1
	C109,45.4,109,39.4,109,35.8z"/>
<g>
	<polygon class="st1" points="57.5,3.6 42.5,135.9 42.6,143.2 44.3,136.1 59.3,3.8 	"/>
	<polygon class="st1" points="81.8,4.2 101.5,135.9 101.6,143.2 99.7,136.2 80,4.5 	"/>
	<polygon class="st1" points="69.6,4.2 49.9,135.9 49.8,143.2 51.7,136.2 71.4,4.5 	"/>
	<polygon class="st1" points="38.6,4.2 58.3,135.9 58.4,143.2 56.5,136.2 36.8,4.5 	"/>
</g>
<g>
	<polygon class="st2" points="63.6,3.9 46.2,135.9 46.2,143.2 48,136.2 65.4,4.1 	"/>
	<polygon class="st2" points="54.2,4.6 76.1,135.9 76.4,143.2 74.3,136.2 52.4,4.9 	"/>
	<polygon class="st2" points="42.2,4.2 61.9,135.9 62,143.2 60.1,136.2 40.4,4.5 	"/>
	<polygon class="st2" points="72.3,2.8 68.9,136 69.6,143.2 70.7,136 74.1,2.9 	"/>
	<polygon class="st2" points="78.4,2.9 72.6,136 73.2,143.2 74.4,136 80.2,3 	"/>
	<polygon class="st2" points="84.4,3 76.3,136 76.8,143.2 78.1,136.1 86.2,3.1 	"/>
	<polygon class="st2" points="101.4,3.9 84,135.9 84,143.2 85.8,136.2 103.2,4.1 	"/>
</g>
<g>
	<polygon class="st3" points="74.6,4.2 94.3,135.9 94.4,143.2 92.5,136.2 72.8,4.5 	"/>
	<polygon class="st3" points="45.8,4.2 65.4,135.9 65.6,143.2 63.7,136.2 44,4.5 	"/>
	<polygon class="st3" points="95.3,3.6 80.3,135.9 80.4,143.2 82.1,136.1 97.1,3.8 	"/>
	<polygon class="st3" points="107.4,4.2 87.8,135.9 87.6,143.2 89.5,136.2 109.2,4.5 	"/>
</g>
<g>
	<path class="st4" d="M40.6,53.2c-1.8,0-2.7,0-3.2,0.6C37,54.4,37,55.6,37,69.7s0,41.1,0,55.8s0,17.1,1.8,18.3
		c1.8,1.2,5.4,1.2,34.2,1.2c28.8,0,32.4,0,34.2-1.2c1.8-1.2,1.8-3.6,1.8-18.3s0-41.7,0-55.8s0-15.3-0.4-15.9s-1.4-0.6-3.2-0.6V55
		c0.6,0,1.1,0,1.4,0c0.1,0,0.2,0,0.2,0c0,0.3,0.1,0.6,0.1,0.9c0,0.5,0,1.1,0,1.6c0.1,4,0,7.9,0,13.7c0,18.2,0,36.4,0,54.6
		c0,3.2,0,6.4,0,9.6c0,1.2,0,2.3-0.1,3.5c0,0.5-0.1,1-0.1,1.5c0,0.3-0.1,0.6-0.1,0.8c0,0.2-0.1,0.4-0.2,0.5c0,0.1-0.1,0.2-0.1,0.3
		c0,0.1-0.1,0.1-0.1,0.1c-0.1,0.1-0.1,0.1-0.2,0.1c-0.1,0.1-0.2,0.1-0.4,0.2c-0.3,0.1-0.6,0.2-0.8,0.2c-0.5,0.1-0.9,0.1-1.4,0.2
		c-0.8,0.1-1.6,0.1-2.5,0.1c-0.8,0-1.6,0.1-2.3,0.1c-2.2,0.1-4.3,0.1-6.5,0.1c-6.4,0-12.9,0-19.3,0c-6.4,0-12.9,0-19.3,0
		c-2.2,0-4.3,0-6.5-0.1c-0.8,0-1.6,0-2.3-0.1c-0.8,0-1.6-0.1-2.5-0.1c-0.5,0-0.9-0.1-1.4-0.2c-0.3,0-0.6-0.1-0.8-0.2
		c-0.1,0-0.3-0.1-0.4-0.2c-0.1,0-0.1-0.1-0.2-0.1c0,0-0.1-0.1-0.1-0.1c0-0.1-0.1-0.2-0.1-0.3c-0.1-0.2-0.1-0.4-0.1-0.5
		c-0.2-0.8-0.2-1.5-0.3-2.3c-0.1-1.2-0.1-2.3-0.1-3.5c-0.1-3.2,0-6.4,0-9.6c0-18.2,0-36.4,0-54.6c0-5.8,0-9.7,0-13.7
		c0-0.5,0-1.1,0-1.6c0-0.3,0-0.6,0.1-0.9c0.1,0,0.1,0,0.2,0c0.3,0,0.8,0,1.4,0V53.2z"/>
	<path class="st4" d="M105.4,55c1.8,0,2.7,0,3.2-0.6c0.5-0.6,0.5-1.8,0.5-5.4c0-3.6,0-9.6,0-13.2s0-4.8-0.4-5.4
		c-0.4-0.6-1.4-0.6-3.2-0.6v1.8c0.6,0,1.1,0,1.4,0c0.1,0,0.2,0,0.3,0c0,0.3,0.1,0.6,0.1,0.8c0,1.1,0,2.2,0,3.3c0,4.4,0,8.8,0,13.2
		c0,1.1,0,2.2,0,3.3c0,0.3,0,0.6-0.1,0.8c-0.1,0-0.2,0-0.3,0c-0.3,0-0.8,0-1.4,0L105.4,55L105.4,55z"/>
	<path class="st4" d="M40.6,55c-1.8,0-2.7,0-3.2-0.6C37,53.8,37,52.6,37,49s0-9.6,0-13.2s0-4.8,0.5-5.4c0.5-0.6,1.4-0.6,3.2-0.6v1.8
		c-0.6,0-1.1,0-1.4,0c-0.1,0-0.2,0-0.3,0c0,0.3-0.1,0.6-0.1,0.8c0,1.1,0,2.2,0,3.3c0,4.4,0,8.8,0,13.2c0,1.1,0,2.2,0,3.3
		c0,0.3,0,0.6,0.1,0.8c0.1,0,0.2,0,0.3,0c0.3,0,0.8,0,1.4,0L40.6,55L40.6,55z"/>
</g>
<path class="st5" d="M109,35.8c0-3.6,0-4.8-0.4-5.4c-0.4-0.6-1.4-0.6-3.2-0.6v0c1.4,0,2.1,0.1,2.5,0.6c0.4,0.6,0.4,1.8,0.4,5.4
	s0,9.5,0,13.1c0,3.1,0,4.4-0.3,5.1c0.3,0.9,0.3,3.4,0.3,15.5c0,14,0,40.9,0,55.5s0,17-1.8,18.2c-1.8,1.2-5.3,1.2-33.6,1.2
	c-28.3,0-31.8,0-33.6-1.2c-1.8-1.2-1.8-3.6-1.8-18.2s0-41.5,0-55.5c0-12.1,0-14.7,0.3-15.5c-0.3-0.7-0.3-2-0.3-5.1
	c0-3.6,0-9.5,0-13.1c0-3.6,0-4.8,0.4-5.4c0.4-0.5,1.1-0.6,2.5-0.6v0c-1.8,0-2.7,0-3.2,0.6C37,31,37,32.2,37,35.8s0,9.6,0,13.2
	c0,3.1,0,4.4,0.3,5.1C37,55,37,57.5,37,69.7c0,14.1,0,41.1,0,55.8s0,17.1,1.8,18.3c1.8,1.2,5.4,1.2,34.2,1.2c28.8,0,32.4,0,34.2-1.2
	c1.8-1.2,1.8-3.6,1.8-18.3s0-41.7,0-55.8c0-12.2,0-14.7-0.3-15.6c0.3-0.7,0.3-2,0.3-5.1C109,45.4,109,39.4,109,35.8z"/>
<g class="st6">
	<path class="st5" d="M38.9,55c0,0.3-0.1,0.6-0.1,0.9c0,0.5,0,1.1,0,1.6c-0.1,4,0,7.9,0,13.7c0,18.2,0,36.4,0,54.6
		c0,3.2,0,6.4,0,9.6c0,1.2,0,2.3,0.1,3.5c0,0.8,0.1,1.6,0.3,2.3c0,0.2,0.1,0.4,0.1,0.5c0,0.1,0.1,0.2,0.1,0.3c0,0.1,0.1,0.1,0.1,0.1
		c0.1,0.1,0.1,0.1,0.2,0.1c0.1,0.1,0.2,0.1,0.4,0.2c0.3,0.1,0.6,0.2,0.8,0.2c0.5,0.1,0.9,0.1,1.4,0.2c0.8,0.1,1.6,0.1,2.5,0.1
		c0.8,0,1.6,0.1,2.3,0.1c2.2,0.1,4.3,0.1,6.5,0.1c6.4,0,12.9,0,19.3,0s12.9,0,19.3,0c2.2,0,4.3,0,6.5-0.1c0.8,0,1.6,0,2.3-0.1
		c0.8,0,1.6-0.1,2.5-0.1c0.5,0,0.9-0.1,1.4-0.2c0.3,0,0.6-0.1,0.8-0.2c0.1,0,0.3-0.1,0.4-0.2c0.1,0,0.1-0.1,0.2-0.1
		c0,0,0.1-0.1,0.1-0.1c0.1-0.1,0.1-0.2,0.1-0.3c0.1-0.2,0.1-0.4,0.2-0.5c0.1-0.3,0.1-0.5,0.1-0.8c0.1-0.5,0.1-1,0.1-1.5
		c0.1-1.2,0.1-2.3,0.1-3.5c0.1-3.2,0-6.4,0-9.6c0-18.2,0-36.4,0-54.6c0-5.8,0-9.7,0-13.7c0-0.5,0-1.1,0-1.6c0-0.3,0-0.6-0.1-0.9
		c-0.1,0-0.1,0-0.2,0c-0.1,0-0.2,0-0.4,0c0,0.3,0,0.5,0.1,0.8c0,0.5,0,1.1,0,1.6c0.1,3.9,0,7.9,0,13.6c0,18.1,0,36.2,0,54.3
		c0,3.2,0,6.3,0,9.5c0,1.2,0,2.3-0.1,3.5c0,0.5-0.1,1-0.1,1.5c0,0.3-0.1,0.5-0.1,0.8c0,0.2-0.1,0.4-0.1,0.5c0,0.1-0.1,0.2-0.1,0.3
		c0,0.1-0.1,0.1-0.1,0.1c-0.1,0.1-0.1,0.1-0.2,0.1c-0.1,0.1-0.2,0.1-0.4,0.2c-0.3,0.1-0.5,0.2-0.8,0.2c-0.5,0.1-0.9,0.1-1.4,0.2
		c-0.8,0.1-1.6,0.1-2.4,0.1c-0.8,0-1.5,0.1-2.3,0.1c-2.1,0.1-4.2,0.1-6.4,0.1c-6.3,0-12.6,0-19,0s-12.6,0-19,0c-2.1,0-4.2,0-6.4-0.1
		c-0.8,0-1.5,0-2.3-0.1c-0.8,0-1.6-0.1-2.4-0.1c-0.5,0-0.9-0.1-1.4-0.2c-0.3-0.1-0.6-0.1-0.8-0.2c-0.1,0-0.3-0.1-0.4-0.2
		c-0.1,0-0.1-0.1-0.2-0.1c0,0-0.1-0.1-0.1-0.1c0-0.1-0.1-0.2-0.1-0.3c-0.1-0.2-0.1-0.4-0.1-0.5c-0.2-0.8-0.2-1.5-0.3-2.3
		c-0.1-1.2-0.1-2.3-0.1-3.5c-0.1-3.2,0-6.3,0-9.5c0-18.1,0-36.2,0-54.3c0-5.7,0-9.7,0-13.6c0-0.5,0-1.1,0-1.6c0-0.3,0-0.5,0.1-0.8
		c-0.1,0-0.3,0-0.4,0C39.1,55,39,55,38.9,55z"/>
	<path class="st5" d="M106.8,53.2c0.1,0,0.2,0,0.3,0c0-0.3,0.1-0.6,0.1-0.8c0-1.1,0-2.2,0-3.3c0-4.4,0-8.8,0-13.2c0-1.1,0-2.2,0-3.3
		c0-0.3,0-0.6-0.1-0.8c-0.1,0-0.2,0-0.3,0c-0.2,0-0.5,0-0.9,0c0.1,0,0.2,0,0.3,0c0.1,0,0.2,0,0.3,0c0,0.3,0.1,0.6,0.1,0.8
		c0,1.1,0,2.2,0,3.3c0,4.4,0,8.8,0,13.1c0,1.1,0,2.2,0,3.3c0,0.3,0,0.6-0.1,0.8c-0.1,0-0.2,0-0.3,0c-0.3,0-0.8,0-1.4,0v1.8
		c0.2,0,0.4,0,0.6,0v-1.7C106,53.2,106.5,53.2,106.8,53.2z"/>
	<path class="st5" d="M38.9,31.6c0,0.3-0.1,0.6-0.1,0.8c0,1.1,0,2.2,0,3.3c0,4.4,0,8.8,0,13.2c0,1.1,0,2.2,0,3.3
		c0,0.3,0,0.6,0.1,0.8c0.1,0,0.2,0,0.3,0c0.3,0,0.8,0,1.4,0v1.7c0.2,0,0.4,0,0.6,0v-1.8c-0.6,0-1.1,0-1.4,0c-0.1,0-0.2,0-0.3,0
		c0-0.3-0.1-0.6-0.1-0.8c0-1.1,0-2.2,0-3.3c0-4.4,0-8.8,0-13.1c0-1.1,0-2.2,0-3.3c0-0.3,0-0.6,0.1-0.8c0.1,0,0.2,0,0.3,0
		c0.1,0,0.2,0,0.3,0c-0.3,0-0.7,0-0.9,0C39.1,31.6,39,31.6,38.9,31.6z"/>
</g>
</svg>
