<?xml version="1.0" encoding="utf-8"?>
<!-- Generator: Adobe Illustrator 19.2.1, SVG Export Plug-In . SVG Version: 6.00 Build 0)  -->
<svg version="1.1" id="圖層_1" xmlns="http://www.w3.org/2000/svg" xmlns:xlink="http://www.w3.org/1999/xlink" x="0px" y="0px"
	 viewBox="0 0 1440 810" style="enable-background:new 0 0 1440 810;" xml:space="preserve">
<style type="text/css">
	.st0{opacity:0.6;}
	.st1{fill:#E9907B;}
</style>
<g class="st0">
	<g>
		<path class="st1" d="M1116.9,289.5c-22.5,0-22.5-10-45-10c-22.5,0-22.5,10-45,10c-22.5,0-22.5-10-45-10c-22.5,0-22.5,10-45,10
			c-22.5,0-22.5-10-45-10c-22.5,0-22.5,10-45,10c-22.5,0-22.5-10-45-10c-22.5,0-22.5,10-45,10c-22.5,0-22.5-10-45-10
			c-22.5,0-22.5,10-45,10c-22.5,0-22.5-10-45-10c-22.5,0-22.5,10-45,10s-22.5-10-45-10c-22.5,0-22.5,10-45,10c-22.5,0-22.5-10-45-10
			c-22.5,0-22.5,10-45,10c-22.5,0-22.5-10-45-10c-22.5,0-22.5,10-45,10v9.5c22.5,0,22.5-10,45-10c22.5,0,22.5,10,45,10
			c22.5,0,22.5-10,45-10c22.5,0,22.5,10,45,10c22.5,0,22.5-10,45-10c22.5,0,22.5,10,45,10s22.5-10,45-10c22.5,0,22.5,10,45,10
			c22.5,0,22.5-10,45-10c22.5,0,22.5,10,45,10c22.5,0,22.5-10,45-10c22.5,0,22.5,10,45,10c22.5,0,22.5-10,45-10
			c22.5,0,22.5,10,45,10c22.5,0,22.5-10,45-10c22.5,0,22.5,10,45,10c22.5,0,22.5-10,45-10c22.5,0,22.5,10,45,10V289.5z"/>
	</g>
	<path class="st1" d="M1116.9,309.1c-22.5,0-22.5-10-45-10c-22.5,0-22.5,10-45,10c-22.5,0-22.5-10-45-10c-22.5,0-22.5,10-45,10
		c-22.5,0-22.5-10-45-10c-22.5,0-22.5,10-45,10c-22.5,0-22.5-10-45-10c-22.5,0-22.5,10-45,10c-22.5,0-22.5-10-45-10
		c-22.5,0-22.5,10-45,10c-22.5,0-22.5-10-45-10c-22.5,0-22.5,10-45,10s-22.5-10-45-10c-22.5,0-22.5,10-45,10c-22.5,0-22.5-10-45-10
		c-22.5,0-22.5,10-45,10c-22.5,0-22.5-10-45-10c-22.5,0-22.5,10-45,10v9.5c22.5,0,22.5-10,45-10c22.5,0,22.5,10,45,10
		c22.5,0,22.5-10,45-10c22.5,0,22.5,10,45,10c22.5,0,22.5-10,45-10c22.5,0,22.5,10,45,10s22.5-10,45-10c22.5,0,22.5,10,45,10
		c22.5,0,22.5-10,45-10c22.5,0,22.5,10,45,10c22.5,0,22.5-10,45-10c22.5,0,22.5,10,45,10c22.5,0,22.5-10,45-10c22.5,0,22.5,10,45,10
		c22.5,0,22.5-10,45-10c22.5,0,22.5,10,45,10c22.5,0,22.5-10,45-10c22.5,0,22.5,10,45,10V309.1z"/>
	<path class="st1" d="M1116.9,328.7c-22.5,0-22.5-10-45-10c-22.5,0-22.5,10-45,10c-22.5,0-22.5-10-45-10c-22.5,0-22.5,10-45,10
		c-22.5,0-22.5-10-45-10c-22.5,0-22.5,10-45,10c-22.5,0-22.5-10-45-10c-22.5,0-22.5,10-45,10c-22.5,0-22.5-10-45-10
		c-22.5,0-22.5,10-45,10c-22.5,0-22.5-10-45-10c-22.5,0-22.5,10-45,10s-22.5-10-45-10c-22.5,0-22.5,10-45,10c-22.5,0-22.5-10-45-10
		c-22.5,0-22.5,10-45,10c-22.5,0-22.5-10-45-10c-22.5,0-22.5,10-45,10v9.5c22.5,0,22.5-10,45-10c22.5,0,22.5,10,45,10
		c22.5,0,22.5-10,45-10c22.5,0,22.5,10,45,10c22.5,0,22.5-10,45-10c22.5,0,22.5,10,45,10s22.5-10,45-10c22.5,0,22.5,10,45,10
		c22.5,0,22.5-10,45-10c22.5,0,22.5,10,45,10c22.5,0,22.5-10,45-10c22.5,0,22.5,10,45,10c22.5,0,22.5-10,45-10c22.5,0,22.5,10,45,10
		c22.5,0,22.5-10,45-10c22.5,0,22.5,10,45,10c22.5,0,22.5-10,45-10c22.5,0,22.5,10,45,10V328.7z"/>
	<path class="st1" d="M1116.9,348.3c-22.5,0-22.5-10-45-10c-22.5,0-22.5,10-45,10c-22.5,0-22.5-10-45-10c-22.5,0-22.5,10-45,10
		c-22.5,0-22.5-10-45-10c-22.5,0-22.5,10-45,10c-22.5,0-22.5-10-45-10c-22.5,0-22.5,10-45,10c-22.5,0-22.5-10-45-10
		c-22.5,0-22.5,10-45,10c-22.5,0-22.5-10-45-10c-22.5,0-22.5,10-45,10s-22.5-10-45-10c-22.5,0-22.5,10-45,10c-22.5,0-22.5-10-45-10
		c-22.5,0-22.5,10-45,10c-22.5,0-22.5-10-45-10c-22.5,0-22.5,10-45,10v9.5c22.5,0,22.5-10,45-10c22.5,0,22.5,10,45,10
		c22.5,0,22.5-10,45-10c22.5,0,22.5,10,45,10c22.5,0,22.5-10,45-10c22.5,0,22.5,10,45,10s22.5-10,45-10c22.5,0,22.5,10,45,10
		c22.5,0,22.5-10,45-10c22.5,0,22.5,10,45,10c22.5,0,22.5-10,45-10c22.5,0,22.5,10,45,10c22.5,0,22.5-10,45-10c22.5,0,22.5,10,45,10
		c22.5,0,22.5-10,45-10c22.5,0,22.5,10,45,10c22.5,0,22.5-10,45-10c22.5,0,22.5,10,45,10V348.3z"/>
	<path class="st1" d="M1116.9,367.9c-22.5,0-22.5-10-45-10c-22.5,0-22.5,10-45,10c-22.5,0-22.5-10-45-10c-22.5,0-22.5,10-45,10
		c-22.5,0-22.5-10-45-10c-22.5,0-22.5,10-45,10c-22.5,0-22.5-10-45-10c-22.5,0-22.5,10-45,10c-22.5,0-22.5-10-45-10
		c-22.5,0-22.5,10-45,10c-22.5,0-22.5-10-45-10c-22.5,0-22.5,10-45,10s-22.5-10-45-10c-22.5,0-22.5,10-45,10c-22.5,0-22.5-10-45-10
		c-22.5,0-22.5,10-45,10c-22.5,0-22.5-10-45-10c-22.5,0-22.5,10-45,10v9.5c22.5,0,22.5-10,45-10c22.5,0,22.5,10,45,10
		c22.5,0,22.5-10,45-10c22.5,0,22.5,10,45,10c22.5,0,22.5-10,45-10c22.5,0,22.5,10,45,10s22.5-10,45-10c22.5,0,22.5,10,45,10
		c22.5,0,22.5-10,45-10c22.5,0,22.5,10,45,10c22.5,0,22.5-10,45-10c22.5,0,22.5,10,45,10c22.5,0,22.5-10,45-10c22.5,0,22.5,10,45,10
		c22.5,0,22.5-10,45-10c22.5,0,22.5,10,45,10c22.5,0,22.5-10,45-10c22.5,0,22.5,10,45,10V367.9z"/>
	<path class="st1" d="M1116.9,387.5c-22.5,0-22.5-10-45-10c-22.5,0-22.5,10-45,10c-22.5,0-22.5-10-45-10c-22.5,0-22.5,10-45,10
		c-22.5,0-22.5-10-45-10c-22.5,0-22.5,10-45,10c-22.5,0-22.5-10-45-10c-22.5,0-22.5,10-45,10c-22.5,0-22.5-10-45-10
		c-22.5,0-22.5,10-45,10c-22.5,0-22.5-10-45-10c-22.5,0-22.5,10-45,10s-22.5-10-45-10c-22.5,0-22.5,10-45,10c-22.5,0-22.5-10-45-10
		c-22.5,0-22.5,10-45,10c-22.5,0-22.5-10-45-10c-22.5,0-22.5,10-45,10v9.5c22.5,0,22.5-10,45-10c22.5,0,22.5,10,45,10
		c22.5,0,22.5-10,45-10c22.5,0,22.5,10,45,10c22.5,0,22.5-10,45-10c22.5,0,22.5,10,45,10s22.5-10,45-10c22.5,0,22.5,10,45,10
		c22.5,0,22.5-10,45-10c22.5,0,22.5,10,45,10c22.5,0,22.5-10,45-10c22.5,0,22.5,10,45,10c22.5,0,22.5-10,45-10c22.5,0,22.5,10,45,10
		c22.5,0,22.5-10,45-10c22.5,0,22.5,10,45,10c22.5,0,22.5-10,45-10c22.5,0,22.5,10,45,10V387.5z"/>
	<path class="st1" d="M1116.9,407.1c-22.5,0-22.5-10-45-10c-22.5,0-22.5,10-45,10c-22.5,0-22.5-10-45-10c-22.5,0-22.5,10-45,10
		c-22.5,0-22.5-10-45-10c-22.5,0-22.5,10-45,10c-22.5,0-22.5-10-45-10c-22.5,0-22.5,10-45,10c-22.5,0-22.5-10-45-10
		c-22.5,0-22.5,10-45,10c-22.5,0-22.5-10-45-10c-22.5,0-22.5,10-45,10s-22.5-10-45-10c-22.5,0-22.5,10-45,10c-22.5,0-22.5-10-45-10
		c-22.5,0-22.5,10-45,10c-22.5,0-22.5-10-45-10c-22.5,0-22.5,10-45,10v9.5c22.5,0,22.5-10,45-10c22.5,0,22.5,10,45,10
		c22.5,0,22.5-10,45-10c22.5,0,22.5,10,45,10c22.5,0,22.5-10,45-10c22.5,0,22.5,10,45,10s22.5-10,45-10c22.5,0,22.5,10,45,10
		c22.5,0,22.5-10,45-10c22.5,0,22.5,10,45,10c22.5,0,22.5-10,45-10c22.5,0,22.5,10,45,10c22.5,0,22.5-10,45-10c22.5,0,22.5,10,45,10
		c22.5,0,22.5-10,45-10c22.5,0,22.5,10,45,10c22.5,0,22.5-10,45-10c22.5,0,22.5,10,45,10V407.1z"/>
	<path class="st1" d="M1116.9,426.6c-22.5,0-22.5-10-45-10c-22.5,0-22.5,10-45,10c-22.5,0-22.5-10-45-10c-22.5,0-22.5,10-45,10
		c-22.5,0-22.5-10-45-10c-22.5,0-22.5,10-45,10c-22.5,0-22.5-10-45-10c-22.5,0-22.5,10-45,10c-22.5,0-22.5-10-45-10
		c-22.5,0-22.5,10-45,10c-22.5,0-22.5-10-45-10c-22.5,0-22.5,10-45,10s-22.5-10-45-10c-22.5,0-22.5,10-45,10c-22.5,0-22.5-10-45-10
		c-22.5,0-22.5,10-45,10c-22.5,0-22.5-10-45-10c-22.5,0-22.5,10-45,10v9.5c22.5,0,22.5-10,45-10c22.5,0,22.5,10,45,10
		c22.5,0,22.5-10,45-10c22.5,0,22.5,10,45,10c22.5,0,22.5-10,45-10c22.5,0,22.5,10,45,10s22.5-10,45-10c22.5,0,22.5,10,45,10
		c22.5,0,22.5-10,45-10c22.5,0,22.5,10,45,10c22.5,0,22.5-10,45-10c22.5,0,22.5,10,45,10c22.5,0,22.5-10,45-10c22.5,0,22.5,10,45,10
		c22.5,0,22.5-10,45-10c22.5,0,22.5,10,45,10c22.5,0,22.5-10,45-10c22.5,0,22.5,10,45,10V426.6z"/>
	<path class="st1" d="M1116.9,446.2c-22.5,0-22.5-10-45-10c-22.5,0-22.5,10-45,10c-22.5,0-22.5-10-45-10c-22.5,0-22.5,10-45,10
		c-22.5,0-22.5-10-45-10c-22.5,0-22.5,10-45,10c-22.5,0-22.5-10-45-10c-22.5,0-22.5,10-45,10c-22.5,0-22.5-10-45-10
		c-22.5,0-22.5,10-45,10c-22.5,0-22.5-10-45-10c-22.5,0-22.5,10-45,10s-22.5-10-45-10c-22.5,0-22.5,10-45,10c-22.5,0-22.5-10-45-10
		c-22.5,0-22.5,10-45,10c-22.5,0-22.5-10-45-10c-22.5,0-22.5,10-45,10v9.5c22.5,0,22.5-10,45-10c22.5,0,22.5,10,45,10
		c22.5,0,22.5-10,45-10c22.5,0,22.5,10,45,10c22.5,0,22.5-10,45-10c22.5,0,22.5,10,45,10s22.5-10,45-10c22.5,0,22.5,10,45,10
		c22.5,0,22.5-10,45-10c22.5,0,22.5,10,45,10c22.5,0,22.5-10,45-10c22.5,0,22.5,10,45,10c22.5,0,22.5-10,45-10c22.5,0,22.5,10,45,10
		c22.5,0,22.5-10,45-10c22.5,0,22.5,10,45,10c22.5,0,22.5-10,45-10c22.5,0,22.5,10,45,10V446.2z"/>
	<g>
		<path class="st1" d="M1116.9,465.8c-22.5,0-22.5-10-45-10c-22.5,0-22.5,10-45,10c-22.5,0-22.5-10-45-10c-22.5,0-22.5,10-45,10
			c-22.5,0-22.5-10-45-10c-22.5,0-22.5,10-45,10c-22.5,0-22.5-10-45-10c-22.5,0-22.5,10-45,10c-22.5,0-22.5-10-45-10
			c-22.5,0-22.5,10-45,10c-22.5,0-22.5-10-45-10c-22.5,0-22.5,10-45,10s-22.5-10-45-10c-22.5,0-22.5,10-45,10c-22.5,0-22.5-10-45-10
			c-22.5,0-22.5,10-45,10c-22.5,0-22.5-10-45-10c-22.5,0-22.5,10-45,10v9.5c22.5,0,22.5-10,45-10c22.5,0,22.5,10,45,10
			c22.5,0,22.5-10,45-10c22.5,0,22.5,10,45,10c22.5,0,22.5-10,45-10c22.5,0,22.5,10,45,10s22.5-10,45-10c22.5,0,22.5,10,45,10
			c22.5,0,22.5-10,45-10c22.5,0,22.5,10,45,10c22.5,0,22.5-10,45-10c22.5,0,22.5,10,45,10c22.5,0,22.5-10,45-10
			c22.5,0,22.5,10,45,10c22.5,0,22.5-10,45-10c22.5,0,22.5,10,45,10c22.5,0,22.5-10,45-10c22.5,0,22.5,10,45,10V465.8z"/>
	</g>
</g>
</svg>
