<?xml version="1.0" encoding="utf-8"?>
<!-- Generator: Adobe Illustrator 19.2.1, SVG Export Plug-In . SVG Version: 6.00 Build 0)  -->
<svg version="1.1" id="圖層_1" xmlns="http://www.w3.org/2000/svg" xmlns:xlink="http://www.w3.org/1999/xlink" x="0px" y="0px"
	 viewBox="0 0 1440 810" style="enable-background:new 0 0 1440 810;" xml:space="preserve">
<style type="text/css">
	.st0{fill:#704848;}
	.st1{display:none;clip-path:url(#SVGID_2_);}
	.st2{display:inline;}
	.st3{fill:#257EAF;}
	.st4{clip-path:url(#SVGID_2_);}
</style>
<g>
	<g>
		<path class="st0" d="M466,504.8c0.2-0.6,0.5-0.8,1.1-0.7l1.5,0.3c0.8,0.2,1.1,0.4,0.9,0.7c-0.1,0.3,0.1,0.5,0.6,0.5h9.3
			c0.7,0,1.1,0.4,1.1,1.1v9.2c0,0.7-0.4,1.1-1.1,1.1h-6.9c-0.6,0-0.9,0.1-0.9,0.4c0,0.3,0.3,0.4,0.8,0.4h8.9c0.7,0,1.1,0.4,1.1,1.1
			v2.6c0,0.7-0.4,1.1-1.1,1.1h-1.3c-0.6,0-0.9,0.1-1.2,0.4c-0.2,0.2-0.6,0.4-1.1,0.5c-2.4,0.2-4.1,0.2-5.1-0.1
			c-1.1-0.2-1.6-0.9-1.6-2c0-0.6-0.4-0.9-1.1-0.9c-0.7,0-1.3,0.3-1.7,0.9c-0.5,0.6-0.5,0.9,0,0.9h1.4c0.7,0,1.1,0.3,1.1,0.8
			c0,0.6,0.3,0.8,0.8,0.8h9.4c0.7,0,1.1,0.4,1.1,1.1v0.5c0,0.7-0.4,1.1-1.1,1.1h-13.4c-0.6,0-0.9,0.1-0.9,0.4c0,0.2,0.3,0.3,0.8,0.3
			h11.5c0.7,0,1.1,0.4,1.1,1.1c0,0.8-0.2,1.6-0.4,2.5c-0.3,0.9-0.8,1.5-1.5,1.9c-1.2,0.4-2.8,0.4-4.7,0.1c-0.7-0.2-1.2-0.6-1.4-1.3
			l-0.1-0.3c-0.2-0.7,0.1-0.9,0.9-0.7c0.8,0.2,1.7,0.3,2.7,0.1c0.2,0,0.5-0.3,0.7-0.7c0-0.2-0.2-0.2-0.8-0.2H467
			c-0.6,0-1.2,0.4-1.8,1.1c-0.8,0.7-1.5,1.3-2.4,1.7c-0.6,0.4-0.6,0.6,0.2,0.7l5.1,0.2h8.2c1.8-0.1,3.6-0.2,5.4-0.4
			c0.9-0.1,1.1,0.2,0.7,1c-0.3,0.6-0.5,1.2-0.7,1.9c-0.2,0.7-0.7,1.1-1.4,1.1h-12.6c-2.2-0.1-4.2-0.2-6-0.5
			c-2.1-0.3-3.9-0.9-5.5-1.9c-0.6-0.4-1.1-0.3-1.7,0.2l-1.1,1.1c-0.7,0.7-1.2,0.6-1.7-0.1c-0.3-0.6-0.7-1.1-1.1-1.7
			c-0.5-0.7-0.4-1.2,0.3-1.4c0.4-0.2,0.8-0.3,1.2-0.4c0.6-0.2,0.8-0.6,0.8-1.2v-6.3c0-0.6-0.3-0.9-0.8-0.9h-0.9
			c-0.7,0-1.1-0.4-1.1-1.1v-1.7c0-0.7,0.4-1.1,1.1-1.1h4.6c0.7,0,1.1,0.4,1.1,1.1v9.3c0,0.6,0.4,1.1,1.1,1.5
			c0.9,0.4,1.7,0.7,2.3,0.8c0.6,0.1,0.6-0.2,0.1-0.9l-0.3-0.4c-0.6-0.8-0.6-1.4,0.2-1.7c1.3-0.5,2.3-1.3,3-2.4
			c0.1-0.4-0.1-0.7-0.6-0.7H459c-0.7,0-1.1-0.4-1.1-1.1V525c0-0.7,0.4-1.1,1.1-1.1h3.2c0.6,0,0.7-0.3,0.4-1c-0.3-0.6-0.1-1,0.7-1.3
			c0.4-0.1,0.7-0.3,1.2-0.5c0.8-0.5,0.9-0.7,0.3-0.7h-2c-0.6,0-0.9,0.3-0.9,0.9c0,0.6-0.4,0.9-1.1,0.9h-1.5c-0.7,0-1.1-0.4-1.1-1.1
			v-2.3c0-0.7,0.4-1.1,1.1-1.1h7.6c0.6,0,0.9-0.1,0.9-0.4c0-0.3-0.3-0.4-0.8-0.4h-5.4c-0.7,0-1.1-0.4-1.1-1.1v-9.2
			c0-0.7,0.4-1.1,1.1-1.1h3.3C465.4,505.6,465.8,505.4,466,504.8z M451.9,512.6c0.7-0.7,1.4-0.9,2.1-0.4c0.6,0.4,1.1,0.8,1.7,1.3
			c0.8,0.8,0.9,1.5,0.3,2.3l-0.9,1.2c-0.7,0.8-1.3,0.8-2,0.1c-0.6-0.6-1.2-1.1-1.9-1.5c-0.8-0.6-0.9-1.2-0.2-1.8L451.9,512.6z
			 M453.8,506.1c0.8-0.8,1.5-1,2.1-0.6c0.7,0.4,1.4,0.9,2.1,1.4c0.7,0.6,0.8,1.3,0.2,2l-1.1,1.4c-0.6,0.7-1.2,0.8-1.9,0.1
			c-0.7-0.6-1.4-1.1-2.1-1.7c-0.8-0.5-0.8-1-0.2-1.7L453.8,506.1z M476.8,508.6c0-0.3-0.3-0.4-0.8-0.4h-10.8c-0.6,0-0.9,0.1-0.9,0.4
			c0,0.2,0.3,0.4,0.9,0.4h10.8C476.5,508.8,476.8,508.8,476.8,508.6z M476.8,511.4c0-0.3-0.3-0.4-0.8-0.4h-10.9
			c-0.6,0-0.9,0.1-0.9,0.4c0,0.2,0.3,0.4,0.9,0.4h10.8C476.5,511.7,476.8,511.6,476.8,511.4z M476.8,514.2c0-0.3-0.3-0.4-0.9-0.4
			h-10.8c-0.6,0-0.9,0.1-0.9,0.4c0,0.3,0.3,0.4,0.8,0.4h10.8C476.5,514.5,476.8,514.4,476.8,514.2z M467.4,523.3
			c0-0.5-0.3-0.6-1-0.2l-0.6,0.3c-0.8,0.3-0.8,0.5,0,0.5h0.7C467.1,523.9,467.4,523.7,467.4,523.3z M478.9,520.9
			c0-0.4-0.3-0.5-0.8-0.5h-3c-0.6,0-0.9,0.1-0.9,0.3c0,0.5,0.3,0.8,0.9,0.7c0.4,0,0.9,0,1.4-0.1c0.1,0,0.3-0.2,0.4-0.4
			c0.1-0.2,0.5-0.2,1.1,0.1C478.6,521.3,478.9,521.3,478.9,520.9z"/>
		<path class="st0" d="M488.6,512.1c0-0.8,0.4-1.1,1.1-0.9c0.4,0.1,0.9,0.2,1.3,0.3c0.7,0.2,1,0.6,1,1.3c-0.2,2.7-0.6,5.7-1.1,8.8
			c-0.2,0.8-0.6,1-1.4,0.6l-0.9-0.5c-0.8-0.4-1.1-0.9-0.9-1.6C488.1,517.4,488.5,514.7,488.6,512.1z M492.9,505.6
			c0-0.8,0.3-1.1,1-1.1h1.8c0.7,0,1.1,0.4,1.1,1.1v4.9c0,0.6,0.3,0.6,0.9-0.1c0.6-0.8,1.2-0.9,2-0.3l0.7,0.6
			c0.8,0.7,0.9,1.4,0.4,2.1c-1.1,1.3-2.2,2.3-3.1,2.9c-0.6,0.5-0.9,1-0.9,1.7c0,2.1-0.3,4.3-0.7,6.7c-0.1,0.6,0.2,1.1,0.8,1.7
			l2.9,2.6c0.7,0.7,0.8,1.3,0.2,2l-1.1,1.4c-0.6,0.8-1.1,0.8-1.6,0.1c-0.6-0.7-1.2-1.5-1.8-2.2c-0.5-0.5-0.8-0.4-1.1,0.4
			c-0.6,2-1.5,3.9-2.7,5.8c-0.5,0.8-1.2,0.8-2,0.2l-0.7-0.6c-0.9-0.7-1.1-1.4-0.6-2.1c2.7-4.8,4.2-10.3,4.4-16.5V505.6z
			 M506.9,505.5c0-0.8,0.3-1.1,1-1.1h1.8c0.7,0,1.1,0.4,1.1,1.1v1c0,0.6,0.3,0.9,0.8,0.9h1.8c0.7,0,1.1,0.4,1.1,1.1v0.7
			c0,0.6,0.3,0.5,0.8-0.3l0.6-1c0.4-0.7,1-0.9,1.7-0.7l1.8,0.6c0.7,0.2,0.8,0.7,0.5,1.4c-0.8,1.4-1.7,2.7-2.5,3.9
			c-0.6,0.7-0.6,1.1,0,1.1h2c0.7,0,1.1,0.4,1.1,1.1v1.5c0,0.7-0.4,1.1-1.1,1.1h-5.6c-0.6,0-1.2,0.3-1.9,0.9l-0.7,0.6
			c-0.7,0.4-0.7,0.7-0.1,0.7h7c0.7,0,1.1,0.4,1.1,1.1v1.5c0,0.7-0.4,1.1-1.1,1.1h-10c-0.6,0-0.9,0.3-1.1,0.9
			c-0.1,0.6,0.1,0.9,0.7,0.9h9.9c0.7,0,1.1,0.4,1.1,1.1c-0.1,3.6-0.6,6.4-1.5,8.4c-0.6,1.1-1.5,1.7-2.6,1.9c-1.2,0.4-2.6,0.4-4.2,0
			c-0.8-0.1-1.3-0.6-1.5-1.3l-0.4-1.6c-0.2-0.7,0.1-1,0.9-0.9l2.4,0.2c0.7,0,1.3-0.1,1.7-0.2c0.6-0.5,1-1.5,1.1-3.1
			c0-0.6-0.3-0.8-0.8-0.8h-7c-0.6,0-0.9,0.3-1.1,0.9c-0.1,0.6-0.6,0.9-1.3,0.7c-0.6-0.1-1.2-0.2-1.8-0.2c-0.8-0.1-1-0.5-0.9-1.2
			l1.1-4.4c0.1-0.6-0.2-0.7-0.9-0.4l-1.4,0.6c-0.7,0.3-1.3,0-1.7-0.7l-0.6-1.1c-0.4-0.8-0.3-1.3,0.4-1.6c2.6-1.1,4.8-2.2,6.6-3.3
			c0.6-0.4,0.5-0.6-0.2-0.6h-3.9c-0.7,0-1.1-0.4-1.1-1.1v-1.5c0-0.7,0.4-1.1,1.1-1.1h4.9c0.6,0,0.9-0.3,0.9-0.8v-1.4
			c0-0.6-0.3-0.9-0.8-0.9h-2.8c-0.7,0-1.1-0.4-1.1-1.1v-1.5c0-0.7,0.4-1.1,1.1-1.1h2.8c0.6,0,0.9-0.3,0.9-0.8V505.5z M512.9,511.9
			c0.4-0.6,0.4-0.9-0.1-0.9h-1.3c-0.6,0-0.9,0.3-0.9,0.8v1.5c0,0.7,0.3,0.7,0.9,0.1L512.9,511.9z"/>
		<path class="st0" d="M541.6,504.8c0.2-0.6,0.5-0.8,1.1-0.7l1.5,0.3c0.8,0.2,1.1,0.4,0.9,0.7c-0.1,0.3,0.1,0.5,0.6,0.5h9.3
			c0.7,0,1.1,0.4,1.1,1.1v9.2c0,0.7-0.4,1.1-1.1,1.1h-6.9c-0.6,0-0.9,0.1-0.9,0.4c0,0.3,0.3,0.4,0.8,0.4h8.9c0.7,0,1.1,0.4,1.1,1.1
			v2.6c0,0.7-0.4,1.1-1.1,1.1h-1.3c-0.6,0-0.9,0.1-1.2,0.4c-0.2,0.2-0.6,0.4-1.1,0.5c-2.4,0.2-4.1,0.2-5.1-0.1
			c-1.1-0.2-1.6-0.9-1.6-2c0-0.6-0.4-0.9-1.1-0.9c-0.7,0-1.3,0.3-1.7,0.9c-0.5,0.6-0.5,0.9,0,0.9h1.4c0.7,0,1.1,0.3,1.1,0.8
			c0,0.6,0.3,0.8,0.8,0.8h9.4c0.7,0,1.1,0.4,1.1,1.1v0.5c0,0.7-0.4,1.1-1.1,1.1h-13.4c-0.6,0-0.9,0.1-0.9,0.4c0,0.2,0.3,0.3,0.8,0.3
			H555c0.7,0,1.1,0.4,1.1,1.1c0,0.8-0.2,1.6-0.4,2.5c-0.3,0.9-0.8,1.5-1.5,1.9c-1.2,0.4-2.8,0.4-4.7,0.1c-0.7-0.2-1.2-0.6-1.4-1.3
			l-0.1-0.3c-0.2-0.7,0.1-0.9,0.9-0.7c0.8,0.2,1.7,0.3,2.7,0.1c0.2,0,0.5-0.3,0.7-0.7c0-0.2-0.2-0.2-0.8-0.2h-9.1
			c-0.6,0-1.2,0.4-1.8,1.1c-0.8,0.7-1.5,1.3-2.4,1.7c-0.6,0.4-0.6,0.6,0.2,0.7l5.1,0.2h8.2c1.8-0.1,3.6-0.2,5.4-0.4
			c0.9-0.1,1.1,0.2,0.7,1c-0.3,0.6-0.5,1.2-0.7,1.9c-0.2,0.7-0.7,1.1-1.4,1.1h-12.6c-2.2-0.1-4.2-0.2-6-0.5
			c-2.1-0.3-3.9-0.9-5.5-1.9c-0.6-0.4-1.1-0.3-1.7,0.2l-1.1,1.1c-0.7,0.7-1.2,0.6-1.7-0.1c-0.3-0.6-0.7-1.1-1.1-1.7
			c-0.5-0.7-0.4-1.2,0.3-1.4c0.4-0.2,0.8-0.3,1.2-0.4c0.6-0.2,0.8-0.6,0.8-1.2v-6.3c0-0.6-0.3-0.9-0.8-0.9h-0.9
			c-0.7,0-1.1-0.4-1.1-1.1v-1.7c0-0.7,0.4-1.1,1.1-1.1h4.6c0.7,0,1.1,0.4,1.1,1.1v9.3c0,0.6,0.4,1.1,1.1,1.5
			c0.9,0.4,1.7,0.7,2.3,0.8c0.6,0.1,0.6-0.2,0.1-0.9l-0.3-0.4c-0.6-0.8-0.6-1.4,0.2-1.7c1.3-0.5,2.3-1.3,3-2.4
			c0.1-0.4-0.1-0.7-0.6-0.7h-3.7c-0.7,0-1.1-0.4-1.1-1.1V525c0-0.7,0.4-1.1,1.1-1.1h3.2c0.6,0,0.7-0.3,0.4-1c-0.3-0.6-0.1-1,0.7-1.3
			c0.4-0.1,0.7-0.3,1.2-0.5c0.8-0.5,0.9-0.7,0.3-0.7h-2c-0.6,0-0.9,0.3-0.9,0.9c0,0.6-0.4,0.9-1.1,0.9h-1.5c-0.7,0-1.1-0.4-1.1-1.1
			v-2.3c0-0.7,0.4-1.1,1.1-1.1h7.6c0.6,0,0.9-0.1,0.9-0.4c0-0.3-0.3-0.4-0.8-0.4h-5.4c-0.7,0-1.1-0.4-1.1-1.1v-9.2
			c0-0.7,0.4-1.1,1.1-1.1h3.3C541,505.6,541.4,505.4,541.6,504.8z M527.5,512.6c0.7-0.7,1.4-0.9,2.1-0.4c0.6,0.4,1.1,0.8,1.7,1.3
			c0.8,0.8,0.9,1.5,0.3,2.3l-0.9,1.2c-0.7,0.8-1.3,0.8-2,0.1c-0.6-0.6-1.2-1.1-1.9-1.5c-0.8-0.6-0.9-1.2-0.2-1.8L527.5,512.6z
			 M529.4,506.1c0.8-0.8,1.5-1,2.1-0.6c0.7,0.4,1.4,0.9,2.1,1.4c0.7,0.6,0.8,1.3,0.2,2l-1.1,1.4c-0.6,0.7-1.2,0.8-1.9,0.1
			c-0.7-0.6-1.4-1.1-2.1-1.7c-0.8-0.5-0.8-1-0.2-1.7L529.4,506.1z M552.4,508.6c0-0.3-0.3-0.4-0.8-0.4h-10.8c-0.6,0-0.9,0.1-0.9,0.4
			c0,0.2,0.3,0.4,0.9,0.4h10.8C552.1,508.8,552.4,508.8,552.4,508.6z M552.4,511.4c0-0.3-0.3-0.4-0.8-0.4h-10.9
			c-0.6,0-0.9,0.1-0.9,0.4c0,0.2,0.3,0.4,0.9,0.4h10.8C552.1,511.7,552.4,511.6,552.4,511.4z M552.4,514.2c0-0.3-0.3-0.4-0.9-0.4
			h-10.8c-0.6,0-0.9,0.1-0.9,0.4c0,0.3,0.3,0.4,0.8,0.4h10.8C552.1,514.5,552.4,514.4,552.4,514.2z M543,523.3c0-0.5-0.3-0.6-1-0.2
			l-0.6,0.3c-0.8,0.3-0.8,0.5,0,0.5h0.7C542.7,523.9,543,523.7,543,523.3z M554.5,520.9c0-0.4-0.3-0.5-0.8-0.5h-3
			c-0.6,0-0.9,0.1-0.9,0.3c0,0.5,0.3,0.8,0.9,0.7c0.4,0,0.9,0,1.4-0.1c0.1,0,0.3-0.2,0.4-0.4c0.1-0.2,0.5-0.2,1.1,0.1
			C554.2,521.3,554.5,521.3,554.5,520.9z"/>
		<path class="st0" d="M567.2,505.2c7.8-0.1,15.7-0.3,23.5-0.6c0.9,0,1.5,0.3,1.9,1l0.5,1.1c0.4,0.8,0.2,1.2-0.6,1.3
			c-3.7,0.2-7.5,0.4-11.2,0.5c-0.5,0-0.9,0.3-1.1,0.7c-0.2,0.4,0,0.6,0.6,0.6h11.6c0.7,0,1.1,0.4,1.1,1.1v1.4c0,0.7-0.4,1.1-1.1,1.1
			h-13.3c-0.6,0-0.9,0.2-1.2,0.5c-0.1,0.4,0.1,0.5,0.6,0.5h16.1c0.7,0,1.1,0.4,1.1,1.1v1.6c0,0.7-0.4,1.1-1.1,1.1h-18.5
			c-0.6,0-1,0.2-1.4,0.7c-0.4,0.5-0.3,0.7,0.2,0.7h16.5c0.7,0,1.1,0.4,1.1,1.1v15.3c0,0.7-0.4,1.1-1.1,1.1h-1.8
			c-0.7,0-1.1-0.2-1.1-0.5c0-0.4-0.3-0.6-0.8-0.6h-13.1c-0.6,0-0.9,0.2-0.9,0.5c0,0.4-0.4,0.6-1.1,0.6h-1.8c-0.7,0-1.1-0.4-1.1-1.1
			v-11.3c0-0.6-0.4-0.6-1.1-0.1c-0.8,0.6-1.6,1.1-2.4,1.6c-0.7,0.4-1.3,0.2-1.7-0.5l-0.7-1.4c-0.4-0.8-0.3-1.4,0.4-1.9
			c1.3-0.8,2.7-1.9,4.1-3.2c0.8-0.8,0.8-1.1,0.2-1.1h-4c-0.7,0-1.1-0.4-1.1-1.1v-1.6c0-0.7,0.4-1.1,1.1-1.1h7.2c0.6,0,1-0.2,1.2-0.5
			c0.2-0.4,0-0.5-0.6-0.5h-6c-0.7,0-1.1-0.4-1.1-1.1v-1.4c0-0.7,0.4-1.1,1.1-1.1h8.1c0.6,0,0.9-0.2,1.1-0.5c0.2-0.4-0.1-0.6-0.8-0.6
			l-6.6,0.1c-0.7,0-1.2-0.3-1.4-1.1l-0.5-1.4C566.3,505.6,566.5,505.2,567.2,505.2z M588.8,523.7c0-0.4-0.3-0.6-0.8-0.6h-13.1
			c-0.6,0-0.9,0.2-0.9,0.5c0,0.4,0.3,0.6,0.8,0.6h13.1C588.5,524.2,588.8,524,588.8,523.7z M588.8,527.8c0-0.4-0.3-0.6-0.8-0.6
			h-13.1c-0.6,0-0.9,0.2-0.9,0.5c0,0.4,0.3,0.6,0.8,0.6h13.1C588.5,528.3,588.8,528.1,588.8,527.8z M588.8,532
			c0-0.4-0.3-0.6-0.8-0.6h-13.1c-0.6,0-0.9,0.2-0.9,0.6c0,0.4,0.3,0.6,0.8,0.6h13.1C588.5,532.5,588.8,532.3,588.8,532z"/>
		<path class="st0" d="M602.5,507.4c0-0.7,0.4-1.1,1.1-1.1H632c0.7,0,1.1,0.4,1.1,1.1v1.9c0,0.7-0.4,1.1-1.1,1.1h-10.2
			c-0.6,0-1,0.4-1.4,1.1c-0.8,1.1-1.2,2-1.1,2.6v21.8c0,0.7-0.4,1.1-1.1,1.1H616c-0.7,0-1.1-0.4-1.1-1.1v-15.6
			c0-0.6-0.3-0.5-0.8,0.1c-2.6,3.1-5.3,5.9-8.4,8.4c-0.8,0.7-1.6,0.7-2.3,0l-1.1-1.1c-0.7-0.7-0.7-1.3,0-1.9
			c4.9-3.8,9.3-8.6,13.2-14.5c0.4-0.6,0.3-0.9-0.3-0.9h-11.9c-0.7,0-1.1-0.4-1.1-1.1V507.4z M623.2,515.7c0.8-0.6,1.4-0.6,2,0
			c2.9,3,5.5,6.2,7.9,9.6c0.6,0.8,0.5,1.5-0.1,2.1l-1.7,1.7c-0.7,0.7-1.3,0.6-1.8-0.1c-2-3-4.5-6.4-7.7-10.1
			c-0.8-0.9-0.8-1.6-0.1-2.1L623.2,515.7z"/>
		<path class="st0" d="M653.1,505.6c0-0.8,0.3-1.1,1-1.1h1.9c0.7,0,1.1,0.4,1.1,1.1v9.5c0,0.6,0.3,0.9,0.8,0.9h5.2
			c0.6,0,0.9-0.3,0.9-0.8V508c0-0.7,0.4-1.1,1.1-1.1h1.9c0.7,0,1.1,0.4,1.1,1.1v10.6c0,0.7-0.4,1.1-1.1,1.1H658
			c-0.6,0-0.9,0.3-0.9,0.8v9.9c0,0.6,0.3,0.9,0.8,0.9h6.9c0.6,0,0.9-0.3,0.9-0.8v-7.1c0-0.7,0.4-1.1,1.1-1.1h1.9
			c0.7,0,1.1,0.4,1.1,1.1v12.4c0,0.7-0.4,1.1-1.1,1.1h-1.9c-0.7,0-1.1-0.3-1.1-0.8c0-0.6-0.3-0.9-0.8-0.9h-19.5
			c-0.6,0-0.9,0.3-0.9,0.9c0,0.6-0.4,0.9-1.1,0.9h-1.9c-0.7,0-1.1-0.4-1.1-1.1v-12.6c0-0.7,0.4-1.1,1.1-1.1h1.9
			c0.7,0,1.1,0.4,1.1,1.1v7.1c0,0.6,0.3,0.9,0.8,0.9h6.9c0.6,0,0.9-0.3,0.9-0.8v-9.9c0-0.6-0.3-0.9-0.8-0.9h-9.1
			c-0.7,0-1.1-0.4-1.1-1.1v-10.7c0-0.7,0.4-1.1,1.1-1.1h1.9c0.7,0,1.1,0.4,1.1,1.1v7.2c0,0.6,0.3,0.9,0.8,0.9h5.2
			c0.6,0,0.9-0.3,0.9-0.8V505.6z"/>
		<path class="st0" d="M682.6,505.5c0.4-0.8,0.9-1,1.5-0.8l1.7,0.5c0.7,0.2,1,0.5,0.8,0.8c-0.2,0.3,0.1,0.7,0.9,1.1
			c0.9,0.5,2,1.2,3.2,2c0.7,0.5,0.7,1.1,0.1,1.9l-0.6,0.7c-0.6,0.8-0.8,1.1-0.6,1.2c0.2,0,0.4,0.4,0.4,1.1v1.5
			c0,0.7-0.4,1.1-1.1,1.1h-1.4c-0.6,0-0.9,0.3-0.9,0.8v1.1c0,0.6,0.3,0.9,0.8,0.9h2.2c0.7,0,1.1,0.4,1.1,1.1v1.7
			c0,0.7-0.4,1.1-1.1,1.1h-2.2c-0.6,0-0.9,0.3-0.9,0.8v6.7c0,0.6,0.4,0.8,1.1,0.8l1.8-0.2c0.9-0.1,1.4,0.2,1.5,0.9l0.2,1.1
			c0.2,0.9-0.1,1.4-0.8,1.6c-3.4,0.6-7.1,1.1-11,1.5c-0.7,0.1-1.1-0.2-1.3-0.9c-0.1-0.6-0.2-1.2-0.3-1.8c-0.1-0.8,0.2-1.2,1-1.3
			l3.2-0.2c0.6-0.1,0.8-0.4,0.8-0.9v-7.1c0-0.6-0.3-0.9-0.8-0.9h-2.5c-0.7,0-1.1-0.4-1.1-1.1v-1.7c0-0.7,0.4-1.1,1.1-1.1h2.5
			c0.6,0,0.9-0.3,0.9-0.8v-1.1c0-0.6-0.3-0.9-0.8-0.9h-0.5c-0.7,0-1.1-0.2-1.1-0.6c0-0.5-0.1-0.6-0.4-0.4c-0.2,0.2-0.7-0.1-1.4-0.8
			l-0.8-0.8c-0.7-0.7-0.7-1.4,0-2.1C679.8,509.9,681.4,507.7,682.6,505.5z M679.3,525.1c0.8-0.4,1.4-0.2,1.8,0.5l0.9,2.5
			c0.3,0.9,0.1,1.5-0.6,1.8l-1.5,0.7c-0.7,0.3-1.2,0.1-1.3-0.6c-0.2-0.9-0.5-1.8-0.8-2.7c-0.3-0.7-0.1-1.2,0.6-1.6L679.3,525.1z
			 M685.6,510.7c-0.6-0.4-1.1-0.4-1.4,0.1l-0.7,1.1c-0.4,0.6-0.4,0.9,0.1,0.9h4c0.6,0,0.5-0.3-0.2-0.8L685.6,510.7z M688.3,524.9
			c0.1-0.7,0.6-1,1.3-0.8c0.5,0.1,0.9,0.2,1.4,0.3c0.8,0.2,1.1,0.6,1,1.3l-0.7,3.6c-0.2,0.8-0.7,1.1-1.5,0.8l-1.3-0.4
			c-0.7-0.2-1-0.7-0.8-1.5C687.9,527.1,688.1,526,688.3,524.9z M694.9,505.6c0-0.8,0.3-1.1,1-1.1h2c0.7,0,1.1,0.4,1.1,1.1v1.9
			c0,0.6,0.3,0.9,0.8,0.9h1.7c0.6,0,0.9-0.3,0.9-0.8v-1.9c0-0.7,0.4-1.1,1.1-1.1h1.9c0.7,0,1.1,0.4,1.1,1.1v1.9
			c0,0.6,0.3,0.9,0.8,0.9h0.7c0.7,0,1.1,0.4,1.1,1.1v1.6c0,0.7-0.4,1.1-1.1,1.1h-0.7c-0.6,0-0.9,0.3-0.9,0.8v1.4
			c0,0.6,0.3,0.9,0.8,0.9h1.3c0.7,0,1.1,0.4,1.1,1.1v1.7c0,0.7-0.4,1.1-1.1,1.1h-16.1c-0.7,0-1.1-0.4-1.1-1.1v-1.7
			c0-0.7,0.4-1.1,1.1-1.1h1.6c0.6,0,0.9-0.3,0.9-0.8v-1.4c0-0.6-0.3-0.9-0.8-0.9h-0.6c-0.7,0-1.1-0.4-1.1-1.1v-1.6
			c0-0.7,0.4-1.1,1.1-1.1h0.6c0.6,0,0.9-0.3,0.9-0.8V505.6z M692.7,521.3c0-0.7,0.4-1.1,1.1-1.1h13.9c0.7,0,1.1,0.4,1.1,1.1v14.6
			c0,0.7-0.4,1.1-1.1,1.1h-1.8c-0.7,0-1.1-0.3-1.1-0.8c0-0.6-0.3-0.9-0.8-0.9h-6.5c-0.6,0-0.9,0.3-0.9,0.8c0,0.6-0.4,0.9-1.1,0.9
			h-1.8c-0.7,0-1.1-0.4-1.1-1.1V521.3z M704.8,524.9c0-0.7-0.3-1.1-0.8-1.1h-6.5c-0.6,0-0.9,0.3-0.9,1c0,0.7,0.3,1,0.8,1h6.5
			C704.5,525.9,704.8,525.5,704.8,524.9z M704.8,530.6c0-0.7-0.3-1.1-0.8-1.1h-6.5c-0.6,0-0.9,0.3-0.9,1c0,0.7,0.3,1.1,0.8,1.1h6.5
			C704.5,531.6,704.8,531.3,704.8,530.6z M702.4,513c0-0.6-0.3-0.9-0.8-0.9h-1.7c-0.6,0-0.9,0.3-0.9,0.8v1.4c0,0.6,0.3,0.9,0.8,0.9
			h1.7c0.6,0,0.9-0.3,0.9-0.8V513z"/>
		<path class="st0" d="M762.3,504.9c0.8-0.5,1.4-0.4,1.9,0.2l0.9,1.4c0.4,0.6,0.8,0.8,1.4,0.8h4.3c0.6,0,1-0.4,1.4-1.1l0.4-1.1
			c0.3-0.8,0.8-1,1.5-0.8l2,0.6c0.8,0.3,1.1,0.7,0.7,1.4c-0.3,0.6-0.1,0.9,0.4,0.9h5.5c0.7,0,1.1,0.4,1.1,1.1v1.8
			c0,0.7-0.4,1.1-1.1,1.1h-11.2c-0.6,0-0.9,0.3-0.9,0.8c0,0.6,0.3,0.9,0.8,0.9h10.2c0.7,0,1.1,0.4,1.1,1.1v1.8
			c0,0.7-0.4,1.1-1.1,1.1h-10.2c-0.6,0-0.9,0.3-0.9,0.8c0,0.6,0.3,0.9,0.8,0.9h12.1c0.7,0,1.1,0.4,1.1,1.1v1.7
			c0,0.7-0.4,1.1-1.1,1.1h-15.6c-0.5,0-0.5,0.1,0.2,0.3l0.7,0.1c0.8,0.2,1.1,0.5,1,1c-0.1,0.6,0.1,0.9,0.7,0.9h12.2
			c0.7,0,1.1,0.4,1.1,1.1v1.7c0,0.7-0.4,1.1-1.1,1.1h-8.4c-0.8,0-0.8,0.2-0.2,0.7c2.8,1.6,6,2.6,9.6,3.1c0.9,0.1,1.1,0.6,0.8,1.3
			l-0.7,1.8c-0.3,0.7-0.8,1-1.5,0.9c-4-0.7-7.8-2.3-11.2-4.7c-0.7-0.5-1.4-1.1-2.1-1.8c-0.6-0.6-1-0.6-1.3-0.1
			c-0.6,0.9-1.3,1.7-2.2,2.5c-3,2.2-6.3,3.7-9.8,4.3c-0.7,0.1-1.2-0.2-1.6-0.9l-0.8-1.8c-0.4-0.7-0.2-1.1,0.5-1.3
			c3.3-0.5,6.1-1.6,8.4-3.2c0.5-0.5,0.5-0.8-0.1-0.8h-7.6c-0.7,0-1.1-0.4-1.1-1.1V526c0-0.7,0.4-1.1,1.1-1.1h9.9
			c0.6,0,0.9-0.4,1.2-1.1l0.1-0.3c0.1-0.6-0.1-0.9-0.6-0.9h-11.4c-0.7,0-1.1-0.4-1.1-1.1v-1.7c0-0.7,0.4-1.1,1.1-1.1h12
			c0.6,0,0.9-0.3,0.9-0.8c0-0.6-0.3-0.9-0.8-0.9h-10.3c-0.7,0-1.1-0.4-1.1-1.1v-1.8c0-0.7,0.4-1.1,1.1-1.1h10.3
			c0.6,0,0.9-0.3,0.9-0.8c0-0.6-0.3-0.9-0.8-0.9h-11c-0.7,0-1.1-0.4-1.1-1.1v-1.8c0-0.7,0.4-1.1,1.1-1.1h5.3c0.6,0,0.8-0.2,0.5-0.5
			c-0.2-0.3,0.1-0.7,0.8-1.3L762.3,504.9z"/>
		<path class="st0" d="M809.3,505.6c0-0.8,0.3-1.1,1-1.1h1.9c0.7,0,1.1,0.4,1.1,1.1v3.3c0,0.6,0.3,0.9,0.8,0.9h5.8
			c0.7,0,1.1,0.4,1.1,1.1v1.7c0,0.7-0.4,1.1-1.1,1.1h-5.8c-0.6,0-0.9,0.3-0.9,0.8v2.5c0,0.6,0.3,0.9,0.8,0.9h7.2
			c0.7,0,1.1,0.4,1.1,1.1v1.8c0,0.7-0.4,1.1-1.1,1.1h-4.9c-0.6,0-0.7,0.4-0.2,1.1c1.5,2.3,3.3,4.5,5.5,6.6c0.8,0.8,0.9,1.5,0.3,2.2
			l-0.9,1.2c-0.8,0.9-1.4,1-2.1,0.4c-2.2-2.6-3.9-4.9-5.1-6.9c-0.4-0.7-0.7-0.7-0.7,0.1v9.5c0,0.7-0.4,1.1-1.1,1.1h-1.8
			c-0.7,0-1.1-0.4-1.1-1.1v-9.2c0-0.6-0.3-0.5-0.8,0.3c-1.3,2-3.4,4.2-6.5,6.6c-0.7,0.4-1.3,0.3-1.7-0.4c-0.2-0.4-0.4-0.7-0.6-1.1
			c-0.5-0.9-0.6-1.5-0.2-1.8c0.5-0.3,0.4-0.5-0.2-0.5h-3.8c-0.6,0-0.9,0.3-0.9,0.8v0.8c0,0.7-0.4,1.1-1.1,1.1h-1.8
			c-0.7,0-1.1-0.4-1.1-1.1v-24c0-0.7,0.4-1.1,1.1-1.1h8.1c0.7,0,1.1,0.4,1.1,1.1v21c0,0.6,0.4,0.5,1.1-0.1c1.9-1.7,3.5-3.6,4.9-5.8
			c0.3-0.6,0.2-0.8-0.4-0.8h-3.7c-0.7,0-1.1-0.4-1.1-1.1v-1.8c0-0.7,0.4-1.1,1.1-1.1h5.5c0.6,0,0.9-0.3,0.9-0.8v-2.5
			c0-0.6-0.3-0.9-0.8-0.9h-4.5c-0.7,0-1.1-0.4-1.1-1.1v-1.7c0-0.7,0.4-1.1,1.1-1.1h4.5c0.6,0,0.9-0.3,0.9-0.8V505.6z M797,511.2
			c0-0.6-0.3-0.9-0.8-0.9h-0.7c-0.6,0-0.9,0.3-0.9,0.8v14c0,0.6,0.3,0.9,0.8,0.9h0.7c0.6,0,0.9-0.3,0.9-0.8V511.2z"/>
		<path class="st0" d="M828.8,512.1c0-0.8,0.4-1.1,1.1-0.9c0.4,0.1,0.9,0.2,1.3,0.3c0.7,0.2,1,0.6,1,1.3c-0.2,2.7-0.6,5.7-1.1,8.8
			c-0.2,0.8-0.6,1-1.4,0.6l-0.9-0.5c-0.8-0.4-1.1-0.9-0.9-1.6C828.3,517.4,828.7,514.7,828.8,512.1z M833.1,505.6
			c0-0.8,0.3-1.1,1-1.1h1.8c0.7,0,1.1,0.4,1.1,1.1v4.9c0,0.6,0.3,0.6,0.9-0.1c0.6-0.8,1.2-0.9,2-0.3l0.7,0.6
			c0.8,0.7,0.9,1.4,0.4,2.1c-1.1,1.3-2.2,2.3-3.1,2.9c-0.6,0.5-0.9,1-0.9,1.7c0,2.1-0.3,4.3-0.7,6.7c-0.1,0.6,0.2,1.1,0.8,1.7
			l2.9,2.6c0.7,0.7,0.8,1.3,0.2,2l-1.1,1.4c-0.6,0.8-1.1,0.8-1.6,0.1c-0.6-0.7-1.2-1.5-1.8-2.2c-0.5-0.5-0.8-0.4-1.1,0.4
			c-0.6,2-1.5,3.9-2.7,5.8c-0.5,0.8-1.2,0.8-2,0.2l-0.7-0.6c-0.9-0.7-1.1-1.4-0.6-2.1c2.7-4.8,4.2-10.3,4.4-16.5V505.6z
			 M847.1,505.5c0-0.8,0.3-1.1,1-1.1h1.8c0.7,0,1.1,0.4,1.1,1.1v1c0,0.6,0.3,0.9,0.8,0.9h1.8c0.7,0,1.1,0.4,1.1,1.1v0.7
			c0,0.6,0.3,0.5,0.8-0.3l0.6-1c0.4-0.7,1-0.9,1.7-0.7l1.8,0.6c0.7,0.2,0.8,0.7,0.5,1.4c-0.8,1.4-1.7,2.7-2.5,3.9
			c-0.6,0.7-0.6,1.1,0,1.1h2c0.7,0,1.1,0.4,1.1,1.1v1.5c0,0.7-0.4,1.1-1.1,1.1h-5.6c-0.6,0-1.2,0.3-1.9,0.9l-0.7,0.6
			c-0.7,0.4-0.7,0.7-0.1,0.7h7c0.7,0,1.1,0.4,1.1,1.1v1.5c0,0.7-0.4,1.1-1.1,1.1h-10c-0.6,0-0.9,0.3-1.1,0.9
			c-0.1,0.6,0.1,0.9,0.7,0.9h9.9c0.7,0,1.1,0.4,1.1,1.1c-0.1,3.6-0.6,6.4-1.5,8.4c-0.6,1.1-1.5,1.7-2.6,1.9c-1.2,0.4-2.6,0.4-4.2,0
			c-0.8-0.1-1.3-0.6-1.5-1.3l-0.4-1.6c-0.2-0.7,0.1-1,0.9-0.9l2.4,0.2c0.7,0,1.3-0.1,1.7-0.2c0.6-0.5,1-1.5,1.1-3.1
			c0-0.6-0.3-0.8-0.8-0.8h-7c-0.6,0-0.9,0.3-1.1,0.9c-0.1,0.6-0.6,0.9-1.3,0.7c-0.6-0.1-1.2-0.2-1.8-0.2c-0.8-0.1-1-0.5-0.9-1.2
			l1.1-4.4c0.1-0.6-0.2-0.7-0.9-0.4l-1.4,0.6c-0.7,0.3-1.3,0-1.7-0.7l-0.6-1.1c-0.4-0.8-0.3-1.3,0.4-1.6c2.6-1.1,4.8-2.2,6.6-3.3
			c0.6-0.4,0.5-0.6-0.2-0.6h-3.9c-0.7,0-1.1-0.4-1.1-1.1v-1.5c0-0.7,0.4-1.1,1.1-1.1h4.9c0.6,0,0.9-0.3,0.9-0.8v-1.4
			c0-0.6-0.3-0.9-0.8-0.9h-2.8c-0.7,0-1.1-0.4-1.1-1.1v-1.5c0-0.7,0.4-1.1,1.1-1.1h2.8c0.6,0,0.9-0.3,0.9-0.8V505.5z M853.1,511.9
			c0.4-0.6,0.4-0.9-0.1-0.9h-1.3c-0.6,0-0.9,0.3-0.9,0.8v1.5c0,0.7,0.3,0.7,0.9,0.1L853.1,511.9z"/>
		<path class="st0" d="M879.4,505.6c0-0.8,0.4-1.1,1.1-1c0.6,0.1,1.1,0.2,1.7,0.3c0.8,0.2,1.3,0.6,1.2,1.3l-0.1,1.2
			c0,0.6,0.2,0.9,0.8,0.9H896c0.7,0,1.1,0.4,1.1,1.1v22.9c-0.3,2.6-1.5,4-3.7,4.3c-1.3,0.2-2.4,0.2-3.3-0.1
			c-0.7-0.1-1.1-0.6-1.3-1.3l-0.4-2.2c-0.1-0.7,0.1-1,0.8-0.8c1.5,0.4,2.5,0.5,3.3,0.3c0.3-0.3,0.5-0.7,0.6-1.2v-18.1
			c0-0.6-0.3-0.9-0.8-0.9h-8.7c-0.6,0-0.9,0.1-1,0.3c-0.1,0.2,0.2,0.5,0.9,0.8c2.8,1.2,5.4,2.7,7.9,4.4c0.8,0.5,0.9,1.2,0.3,2
			l-0.9,1.4c-0.5,0.7-1.1,0.8-1.8,0.3c-1.7-1.3-4.1-2.8-7-4.3c-0.8-0.4-1.4-0.2-1.8,0.5c-1.3,1.8-3,3.4-5,4.7
			c-0.8,0.5-1.5,0.4-2.1-0.4l-0.7-0.9c-0.6-0.8-0.6-1.4,0.1-1.8c2.6-1.7,4.5-3.8,5.6-6.3c0.2-0.6,0.1-0.9-0.5-0.9h-5.6
			c-0.6,0-0.9,0.3-0.9,0.8v22.5c0,0.7-0.4,1.1-1.1,1.1h-1.9c-0.7,0-1.1-0.4-1.1-1.1v-26.4c0-0.7,0.4-1.1,1.1-1.1h10.4
			c0.6,0,0.9-0.4,1-1.1C879.4,506.8,879.4,506.2,879.4,505.6z M880.1,520.2c0.2-0.7,0.7-1,1.3-0.9l1.7,0.2c0.8,0.1,1.2,0.6,1,1.3
			l-0.5,1.7c-0.2,0.6,0,1,0.8,1.4c1.9,0.9,3.9,2.1,6,3.6c0.8,0.7,1,1.4,0.5,2.1l-0.8,1.1c-0.6,0.9-1.3,1.1-2,0.5
			c-2.2-1.7-4.2-3-5.8-3.9c-0.5-0.3-1.1,0-1.7,0.7c-1.5,1.8-3.3,3.3-5.4,4.6c-0.9,0.5-1.6,0.3-2.1-0.4c-0.3-0.4-0.6-0.8-0.8-1.1
			c-0.6-0.8-0.5-1.4,0.2-1.8C876.5,527,879.1,523.9,880.1,520.2z"/>
		<path class="st0" d="M907.9,505.6c0-0.8,0.3-1.1,1-1.1h2c0.7,0,1.1,0.4,1.1,1.1v3.6c0,0.6,0.3,0.9,0.8,0.9h1.8
			c0.7,0,1.1,0.4,1.1,1.1v1.7c0,0.7-0.4,1.1-1.1,1.1h-1.8c-0.6,0-0.9,0.3-0.9,0.8v3.7c0,0.6,0.4,0.8,1.1,0.6l1-0.3
			c0.7-0.2,1.1,0,1.2,0.7c0,0.4,0.1,0.8,0.2,1.2c0.2,0.8-0.2,1.3-0.9,1.7c-0.6,0.2-1.1,0.5-1.7,0.7c-0.6,0.3-0.8,0.7-0.8,1.2v8.1
			c0,1-0.2,2-0.6,2.8c-0.9,1.5-2.5,2.1-4.8,1.8l-1.1-0.1c-0.7-0.1-1.1-0.5-1.3-1.2l-0.3-1.8c-0.2-0.9,0.1-1.3,0.8-1.1
			c0.8,0.2,1.7,0.2,2.4,0.1c0.4-0.2,0.6-0.8,0.6-1.7v-5.5c0-0.6-0.4-0.7-1.1-0.5c-0.3,0-0.5,0.1-0.8,0.2c-0.8,0.2-1.3-0.1-1.6-0.8
			l-0.6-1.9c-0.3-0.8,0-1.3,0.9-1.5l2.1-0.5c0.8-0.2,1.1-0.6,1.1-1.2v-4.8c0-0.6-0.3-0.9-0.8-0.9h-2.2c-0.7,0-1.1-0.4-1.1-1.1v-1.7
			c0-0.7,0.4-1.1,1.1-1.1h2.2c0.6,0,0.9-0.3,0.9-0.8V505.6z M916.6,520.4c0-0.7,0.4-1.1,1.1-1.1h16.1c0.7,0,1.1,0.4,1.1,1.1v15.4
			c0,0.7-0.4,1.1-1.1,1.1h-1.9c-0.7,0-1.1-0.2-1.1-0.5c0-0.4-0.3-0.6-0.8-0.6h-8.4c-0.6,0-0.9,0.2-0.9,0.5c0,0.4-0.4,0.6-1.1,0.6
			h-1.9c-0.7,0-1.1-0.4-1.1-1.1V520.4z M917,505.6c0-0.8,0.3-1.1,1-1.1h2c0.7,0,1.1,0.4,1.1,1.1v1.7c0,0.6,0.4,0.8,1.1,0.6
			c2.6-0.5,5.8-1.3,9.5-2.4c0.8-0.3,1.5,0,2.1,0.7l0.8,1.2c0.6,0.8,0.5,1.3-0.3,1.5c-4,1.1-8.1,2.1-12.2,2.8
			c-0.6,0.1-0.9,0.2-0.9,0.3c0,0.3,0.1,0.6,0.3,0.8c0.5,0.4,1.4,0.7,2.7,0.8c0.8,0.1,2.3,0.2,4.5,0c1,0.1,1.8,0,2.6-0.3
			c0.4-0.3,0.7-0.8,0.9-1.4c0.2-0.8,0.7-1,1.5-0.6c0.6,0.2,1.2,0.5,1.8,0.8c0.7,0.3,1,0.8,0.8,1.5c-0.3,1.2-0.8,2.2-1.5,3.1
			c-1.3,0.8-3.2,1.1-5.6,1h-4.9c-1.2,0-2.7-0.2-4.3-0.6c-1.7-0.5-2.6-1.6-2.7-3.4V505.6z M930.8,524.4c0-0.7-0.3-1.1-0.8-1.1h-8.5
			c-0.6,0-0.9,0.3-0.9,1c0,0.7,0.3,1.1,0.8,1.1h8.4C930.5,525.4,930.8,525.1,930.8,524.4z M930.8,530.3c0-0.6-0.3-0.9-0.8-0.9h-8.4
			c-0.6,0-0.9,0.3-0.9,0.8v0.8c0,0.6,0.3,0.9,0.8,0.9h8.4c0.6,0,0.9-0.3,0.9-0.8V530.3z"/>
		<path class="st0" d="M955.1,505.6c0-0.8,0.3-1.1,1-1.1h2.1c0.7,0,1.1,0.4,1.1,1.1v0.6c0,0.6,0.3,0.9,0.8,0.9h12.2
			c0.7,0,1.1,0.4,1.1,1.1v1.9c0,0.7-0.4,1.1-1.1,1.1h-12.2c-0.6,0-0.9,0.4-0.9,1.1c0,0.8,0.3,1.2,0.8,1.2h11.5
			c0.7,0,1.1,0.4,1.1,1.1v18c-0.1,1.6-0.8,2.8-2.1,3.7c-1.5,0.7-3.3,0.9-5.4,0.5c-0.9-0.2-1.4-0.6-1.5-1.3l-0.4-1.9
			c-0.2-0.9,0.1-1.3,0.8-1.1c1.5,0.4,2.7,0.5,3.6,0.4c0.5-0.2,0.8-0.6,0.8-1.3v-13.1c0-0.6-0.3-0.9-0.8-0.9H963
			c-0.5,0-0.5,0.1,0.1,0.4l0.3,0.1c0.9,0.2,1.2,0.7,0.8,1.4l-0.5,1.1c-0.3,0.6-0.2,0.9,0.4,0.9h1.6c0.7,0,1.1,0.4,1.1,1.1v1.5
			c0,0.7-0.4,1.1-1.1,1.1h-5.5c-0.6,0-0.9,0.3-0.9,0.8c0,0.5,0.3,0.8,0.8,0.8h6.4c0.7,0,1.1,0.4,1.1,1.1v1.4c0,0.7-0.4,1.1-1.1,1.1
			h-6.4c-0.6,0-0.9,0.3-0.9,0.8v3.3c0,0.7-0.4,1.1-1.1,1.1h-1.7c-0.7,0-1.1-0.4-1.1-1.1v-3.3c0-0.6-0.3-0.9-0.8-0.9h-6
			c-0.7,0-1.1-0.4-1.1-1.1v-1.4c0-0.7,0.4-1.1,1.1-1.1h6c0.6,0,0.9-0.3,0.9-0.8c0-0.5-0.3-0.8-0.8-0.8h-5.2c-0.7,0-1.1-0.4-1.1-1.1
			v-1.5c0-0.7,0.4-1.1,1.1-1.1h2.3c0.6,0,0.7-0.4,0.2-1.1c-0.1-0.2-0.3-0.4-0.5-0.7c-0.5-0.7-0.6-1.2-0.1-1.5
			c0.5-0.4,0.4-0.6-0.4-0.6h-3.1c-0.6,0-0.9,0.3-0.9,0.8v17.5c0,0.7-0.4,1.1-1.1,1.1h-2.1c-0.7,0-1.1-0.4-1.1-1.1v-21.3
			c0-0.7,0.4-1.1,1.1-1.1h10.4c0.6,0,0.9-0.4,0.9-1.1c0-0.8-0.3-1.2-0.8-1.2h-11.6c-0.7,0-1.1-0.4-1.1-1.1v-1.9
			c0-0.7,0.4-1.1,1.1-1.1h11.6c0.6,0,0.9-0.3,0.9-0.8V505.6z M960.3,518.3c0.2-0.6,0-0.9-0.5-0.9h-4.3c-0.6,0-0.6,0.4-0.1,1.1
			l0.2,0.3c0.4,0.9,0.4,1.5-0.2,1.8c-0.6,0.4-0.6,0.6,0.2,0.6h2.5c0.6,0,1-0.4,1.4-1.1C959.8,519.6,960.1,518.9,960.3,518.3z"/>
	</g>
</g>
<g>
	<defs>
		<path id="SVGID_1_" d="M441.9,541.1h-74v-38.4h74V541.1z M745.5,541.1h-28v-38.4h28V541.1z M1042.3,502.7h-61v38.4h61V502.7z"/>
	</defs>
	<clipPath id="SVGID_2_">
		<use xlink:href="#SVGID_1_"  style="overflow:visible;"/>
	</clipPath>
	<g class="st1">
		<g class="st2">
			<g>
				<path class="st3" d="M393.8,503.1c8.9,0,16.7,6.3,18.4,15l-3.9,0.8c-1.4-6.9-7.5-11.8-14.5-11.8c-8.2,0-14.8,6.7-14.8,14.8
					c0,8.2,6.7,14.8,14.8,14.8c5.3,0,10.2-2.8,12.9-7.4c0.5-0.9,1-1.9,1.2-2.6l3.8,1.1c-0.3,1.1-0.8,2.3-1.6,3.5
					c-3.4,5.8-9.6,9.4-16.3,9.4c-10.4,0-18.8-8.4-18.8-18.8C374.9,511.5,383.4,503.1,393.8,503.1z"/>
			</g>
			<g>
				<rect x="415.9" y="519.9" class="st3" width="612.1" height="4"/>
			</g>
			<g>
				<path class="st3" d="M412.2,518.1c0.3,1.3,0.6,1.8,3.7,1.8v4c-2.1,0-6.6,0-7.6-5L412.2,518.1z"/>
			</g>
			<g>
				<polygon class="st3" points="1028,519.9 1038.8,521.9 1028,523.9 				"/>
			</g>
		</g>
	</g>
	<g class="st4">
		<path class="st0" d="M407.2,519.2l-1.9,0.4L407.2,519.2c-1.3-6.1-6.7-10.5-12.9-10.5c-7.2,0-13.1,5.9-13.1,13.1
			c0,7.2,5.9,13.1,13.1,13.1c4.7,0,9-2.5,11.4-6.6c0.3-0.6,0.7-1.3,1-2.3l-3.8-1.1c-0.1,0.5-0.4,0.9-0.7,1.4
			c-1.6,2.8-4.7,4.6-7.9,4.6c-5,0-9.1-4.1-9.1-9.1c0-5,4.1-9.1,9.1-9.1c4.3,0,8.1,3.1,9,7.3h0c0.8,3.9,4.2,3.9,5.7,3.9v-4
			C407.3,519.9,407.3,519.8,407.2,519.2z"/>
		<polygon class="st0" points="1025.7,519.9 409,519.9 409,523.9 1025.7,523.9 1036.5,521.9 		"/>
	</g>
</g>
</svg>
