<?xml version="1.0" encoding="utf-8"?>
<!-- Generator: Adobe Illustrator 19.2.1, SVG Export Plug-In . SVG Version: 6.00 Build 0)  -->
<svg version="1.1" id="圖層_1" xmlns="http://www.w3.org/2000/svg" xmlns:xlink="http://www.w3.org/1999/xlink" x="0px" y="0px"
	 viewBox="0 0 621.8 45" style="enable-background:new 0 0 621.8 45;" xml:space="preserve">
<style type="text/css">
	.st0{fill:none;}
	.st1{fill:#FFFFFF;}
	.st2{font-family:'HanWangHeiHeavy';}
	.st3{font-size:16px;}
	.st4{fill:none;stroke:#FFFFFF;stroke-miterlimit:10;}
</style>
<g>
	<g>
		<rect x="28.5" y="2.5" class="st0" width="150.9" height="40"/>
		<text transform="matrix(1 0 0 1 93.7881 15.3125)"><tspan x="0" y="0" class="st1 st2 st3">01</tspan><tspan x="-45.8" y="24" class="st1 st2 st3">烤肉準備一起來</tspan></text>
	</g>
	<g>
		<rect x="235.5" y="2.5" class="st0" width="150.9" height="40"/>
		<text transform="matrix(1 0 0 1 300.7363 15.3125)"><tspan x="0" y="0" class="st1 st2 st3">02</tspan><tspan x="-61.8" y="24" class="st1 st2 st3">萬事俱備就開始吧！</tspan></text>
	</g>
	<g>
		<rect x="442.4" y="2.5" class="st0" width="150.9" height="40"/>
		<text transform="matrix(1 0 0 1 507.6845 15.3125)"><tspan x="0" y="0" class="st1 st2 st3">03</tspan><tspan x="-37.1" y="24" class="st1 st2 st3">簡單收拾123</tspan></text>
	</g>
</g>
<line class="st4" x1="207.4" y1="45" x2="207.4" y2="0"/>
<line class="st4" x1="0.5" y1="45" x2="0.5" y2="0"/>
<line class="st4" x1="414.4" y1="45" x2="414.4" y2="0"/>
<line class="st4" x1="621.3" y1="45" x2="621.3" y2="0"/>
</svg>
