<svg id="圖層_1" data-name="圖層 1" xmlns="http://www.w3.org/2000/svg" viewBox="0 0 1140 405"><title>bottom</title><path d="M1286.66,203c-28.33,0-28.33,12.59-56.66,12.59S1201.66,203,1173.32,203s-28.34,12.59-56.68,12.59S1088.31,203,1060,203s-28.34,12.59-56.67,12.59S975,203,946.64,203,918.3,215.59,890,215.59,861.64,203,833.31,203,805,215.59,776.64,215.59,748.31,203,720,203s-28.33,12.59-56.67,12.59S635,203,606.64,203,578.31,215.59,550,215.59,521.64,203,493.31,203,465,215.59,436.65,215.59,408.32,203,380,203s-28.33,12.59-56.67,12.59S295,203,266.66,203,238.33,215.59,210,215.59,181.67,203,153.34,203c-1.17,0-2.27,0-3.34.07V608H1290V203.07C1288.93,203,1287.82,203,1286.66,203Z" transform="translate(-150 -203)" style="fill:#e9907b"/></svg>