<?xml version="1.0" encoding="utf-8"?>
<!-- Generator: Adobe Illustrator 19.2.1, SVG Export Plug-In . SVG Version: 6.00 Build 0)  -->
<svg version="1.1" id="圖層_1" xmlns="http://www.w3.org/2000/svg" xmlns:xlink="http://www.w3.org/1999/xlink" x="0px" y="0px"
	 viewBox="0 0 48 48" style="enable-background:new 0 0 48 48;" xml:space="preserve">
<style type="text/css">
	.st0{fill:#FFFFFF;}
</style>
<path class="st0" d="M24,0C13.6,0,4.4,6.7,1.2,16.6C-2,26.5,1.5,37.3,9.9,43.4c8.4,6.1,19.8,6.1,28.2,0c8.4-6.1,11.9-16.9,8.7-26.8
	C43.6,6.7,34.4,0,24,0z M25.9,17.7c0,0.9,0,3.1,0,3.1s2.4,0,3.5,0c0.3,0,0.5,0,0.8,0c-0.2,1.5-0.4,2.9-0.6,4.4h-3.7v11h-4.5v-11
	h-3.7v-4.4h3.7v-0.3c0-0.9,0-1.8,0-2.6c0-0.6,0-1.1,0.1-1.7c0.2-1.3,0.8-2.5,2-3.3c1-0.7,2.1-1,3.3-1c0.8,0,1.5,0,2.3,0.1
	c0.4,0,0.8,0.1,1.2,0.1V16c-0.1,0-0.2,0-0.3,0c-0.8,0-1.5,0-2.3,0C26.7,16.1,26,16.5,25.9,17.7z"/>
</svg>
