<svg id="圖層_1" data-name="圖層 1" xmlns="http://www.w3.org/2000/svg" viewBox="0 0 300 150"><title>ll1</title><rect x="150" width="150" height="150" style="fill:#fff8eb"/><rect width="150" height="150" style="fill:#fff8eb"/><polygon points="16.31 110.16 16.31 110.16 16.31 110.16 16.31 110.16" style="fill:#c5cbc9"/><polygon points="16.31 110.15 16.31 110.16 16.31 110.16 16.31 110.15" style="fill:#c5cbc9"/><polygon points="99.71 16.17 99.71 16.17 99.71 16.17 99.71 16.17" style="fill:#c5cbc9"/><polygon points="24.45 135.32 24.45 135.31 24.45 135.31 24.45 135.32" style="fill:#c5cbc9"/><polygon points="36.45 135.72 36.45 135.72 36.45 135.72 36.45 135.72" style="fill:#c5cbc9"/><polygon points="110 55 110.1 55.69 110.1 55.69 115 15 99.71 16.17 109.96 55.15 110 55" style="fill:#ededed"/><polygon points="65 17.5 60 60 75 62.5 65 17.5" style="fill:#ededed"/><polygon points="60 60 64.04 80 75 62.5 60 60" style="fill:#e8e8e8"/><polygon points="15 135 24.45 135.31 16.31 110.16 15 135" style="fill:#d8d8d8"/><polygon points="75 62.5 85 80 95 58.05 75 62.5" style="fill:#e5e5e5"/><polygon points="84.93 17.3 75 62.5 95 58.05 84.93 17.3" style="fill:#e2e2e2"/><polygon points="40 55 50 75 60 60 40 55" style="fill:#ededed"/><polygon points="51.28 16.81 40 55 60 60 51.28 16.81" style="fill:#e2e2e2"/><polygon points="135 15 115 15 110.1 55.69 135 15" style="fill:#e2e2e2"/><polygon points="56.54 136.38 71.85 118.7 64.04 80 56.54 136.38" style="fill:#e8e8e8"/><polygon points="109.96 55.15 110.1 55.69 110 55 109.96 55.15" style="fill:#c5cbc9"/><polygon points="130 75 135 15 110.1 55.69 130 75" style="fill:#dbdbdb"/><polygon points="110.1 55.69 115 90 130 75 110.1 55.69 110.1 55.69" style="fill:#e8e8e8"/><polygon points="112.5 136.25 135 135 130 75 112.5 136.25" style="fill:#dbdbdb"/><polygon points="24.45 135.31 36.45 135.72 30 95 24.45 135.31" style="fill:#e8e8e8"/><polygon points="16.31 110.16 16.31 110.16 24.45 135.31 24.45 135.31 30 95 16.31 110.16" style="fill:#e2e2e2"/><polygon points="110.1 55.68 109.96 55.15 100 90 115 90 110.1 55.68" style="fill:#e2e2e2"/><polygon points="100 90 112.5 136.25 115 90 100 90" style="fill:#e8e8e8"/><polygon points="115 90 112.5 136.25 130 75 115 90" style="fill:#e2e2e2"/><polygon points="30 95 25 80 16.31 110.15 16.31 110.16 30 95" style="fill:#ededed"/><polygon points="50 75 36.45 135.72 56.54 136.38 56.54 136.38 50 75" style="fill:#d8d8d8"/><polygon points="71.85 118.7 56.54 136.38 84.55 137.32 84.55 137.32 71.85 118.7" style="fill:#e2e2e2"/><polygon points="112.5 136.25 100 90 84.55 137.32 84.55 137.32 90 137.5 112.5 136.25" style="fill:#e2e2e2"/><polygon points="60 60 50 75 64.04 80 60 60" style="fill:#f2f2f2"/><polygon points="50 75 56.54 136.38 64.04 80 50 75" style="fill:#ededed"/><polygon points="75 62.5 64.04 80 85 80 75 62.5" style="fill:#ededed"/><polygon points="85 80 64.04 80 80.88 92.13 85 80" style="fill:#e8e8e8"/><polygon points="64.04 80 71.85 118.7 80.88 92.13 64.04 80" style="fill:#e5e5e5"/><polygon points="40 55 25 80 50 75 40 55" style="fill:#e8e8e8"/><polygon points="25 80 30 95 36.45 135.72 50 75 25 80" style="fill:#e2e2e2"/><polygon points="95 58.05 85 80 100 90 95 58.05" style="fill:#e2e2e2"/><polygon points="85 80 84.55 137.32 100 90 85 80" style="fill:#e8e8e8"/><polygon points="95 58.05 100 90 109.96 55.15 95 58.05" style="fill:#dbdbdb"/><polygon points="99.71 16.17 95 58.05 109.96 55.15 99.71 16.17" style="fill:#e8e8e8"/><polygon points="71.85 118.7 84.55 137.32 85 80 71.85 118.7" style="fill:#dbdbdb"/><polygon points="35.45 16.02 20 40 40 55 35.45 16.02" style="fill:#e5e5e5"/><polygon points="20 40 25 80 40 55 20 40" style="fill:#ededed"/><polygon points="84.93 17.3 84.93 17.3 95 58.06 99.71 16.17 84.93 17.3" style="fill:#f2f2f2"/><polygon points="15 15 20 40 35.45 16.02 35.45 16.02 15 15" style="fill:#f2f2f2"/><polygon points="35.45 16.02 35.45 16.02 40 55 51.28 16.81 51.28 16.81 35.45 16.02" style="fill:#ededed"/><polygon points="51.28 16.81 51.28 16.81 60 60 65 17.5 51.28 16.81" style="fill:#e8e8e8"/><polygon points="65 17.5 75 62.5 75.47 18.02 65 17.5" style="fill:#f2f2f2"/><polygon points="75.47 18.02 75 62.5 84.93 17.3 75.47 18.02" style="fill:#ededed"/><polygon points="20 40 16.31 110.15 25 80 20 40" style="fill:#e2e2e2"/><path d="M796,367a47.56,47.56,0,0,0,12,6.23c4.2,1.61,7.23,2.78,12.11,7.67s6.05,7.92,7.67,12.11A47.56,47.56,0,0,0,834,405a47.56,47.56,0,0,0-6.23,12c-1.61,4.2-2.78,7.23-7.67,12.11s-7.92,6.05-12.11,7.67A47.55,47.55,0,0,0,796,443a47.56,47.56,0,0,0-12-6.23c-4.2-1.61-7.23-2.78-12.11-7.67s-6.05-7.92-7.67-12.11A47.56,47.56,0,0,0,758,405a47.56,47.56,0,0,0,6.23-12c1.61-4.2,2.78-7.23,7.67-12.11s7.92-6.05,12.11-7.67A47.56,47.56,0,0,0,796,367m0-12c-12.5,12.5-18.06,6.94-30.56,19.45S758.5,392.5,746,405c12.5,12.5,6.94,18.05,19.45,30.56S783.5,442.5,796,455c12.5-12.5,18.06-6.94,30.56-19.45S833.5,417.5,846,405c-12.5-12.5-6.94-18.05-19.45-30.56S808.5,367.5,796,355h0Z" transform="translate(-571 -330)" style="fill:#e9907b"/></svg>