<svg id="圖層_1" data-name="圖層 1" xmlns="http://www.w3.org/2000/svg" viewBox="0 0 300 150"><title>ll2</title><rect x="150" width="150" height="150" style="fill:#fff8eb"/><rect width="150" height="150" style="fill:#fff8eb"/><path d="M676,360a1.11,1.11,0,0,0,1.14,1.36,2.38,2.38,0,0,1,1.15.52,1,1,0,0,1,0,1.25,2.46,2.46,0,0,1-1,.52,2.47,2.47,0,0,0-1,.31,2.75,2.75,0,0,0-.21,1.67c0,1,0,2.71.83,3.54s2.5,0.83,3.33,1.67,0.84,2.5.84,15.83v52.5c0,14.17,0,17.5-2.5,19.17S671,460,646,460s-30,0-32.5-1.67-2.5-5-2.5-19.17v-52.5c0-13.33,0-15,.83-15.83s2.5-.83,3.34-1.67,0.83-2.5.83-3.54,0-1.46-.21-1.67a2.45,2.45,0,0,0-1-.31,2.46,2.46,0,0,1-1-.52,1.05,1.05,0,0,1,0-1.25,2.38,2.38,0,0,1,1.15-.52A1.11,1.11,0,0,0,616,360v-5h60v5Z" transform="translate(-571 -330)" style="fill:#774541"/><path d="M646,360c32.5,0,33.75,0,34.38-.42s0.63-1.25.63-2.5v-4.17c0-1.25,0-2.08-.62-2.5S678.5,350,646,350s-33.75,0-34.37.42-0.63,1.25-.63,2.5v4.17c0,1.25,0,2.08.63,2.5S613.5,360,646,360Z" transform="translate(-571 -330)" style="fill:#e51d2f"/><path d="M646,363.75h30a3.32,3.32,0,0,0,2.19-.57,0.89,0.89,0,0,0,0-1.35,3.31,3.31,0,0,0-2.19-.57H616a3.3,3.3,0,0,0-2.19.57,0.89,0.89,0,0,0,0,1.35,3.32,3.32,0,0,0,2.19.57h30Z" transform="translate(-571 -330)" style="fill:#683c3a"/><rect x="40" y="50" width="70" height="65" style="fill:#a28286"/><rect x="40" y="82.5" width="70" height="26.95" style="fill:#f2f1f0"/><path d="M749.91,367.17L760,360.75c15.21,23.9,25.83,17.14,41,41L791,408.21C775.74,384.31,765.12,391.07,749.91,367.17Z" transform="translate(-571 -330)" style="fill:#e9907b"/><path d="M801,401.79L791,408.21c15.21,23.9,25.83,17.14,41,41l10.09-6.42C826.88,418.93,816.25,425.69,801,401.79Z" transform="translate(-571 -330)" style="fill:#e9907b"/><path d="M833.83,358.91L840.25,369c-23.9,15.21-17.14,25.83-41,41L792.79,400C816.69,384.75,809.93,374.12,833.83,358.91Z" transform="translate(-571 -330)" style="fill:#e9907b"/><path d="M799.21,410L792.79,400c-23.9,15.21-17.14,25.83-41,41l6.42,10.09C782.07,435.88,775.31,425.26,799.21,410Z" transform="translate(-571 -330)" style="fill:#e9907b"/></svg>