<svg id="圖層_1" data-name="圖層 1" xmlns="http://www.w3.org/2000/svg" xmlns:xlink="http://www.w3.org/1999/xlink" viewBox="0 0 227.12 36"><defs><style>.cls-1{fill:none;}.cls-2{fill:#963b3b;}.cls-3{clip-path:url(#clip-path);}.cls-4{opacity:0.6;}.cls-5{fill:#e9907b;}</style><clipPath id="clip-path" transform="translate(-593 -388)"><rect class="cls-1" x="593" y="388" width="33.09" height="36"/></clipPath></defs><title>logo</title><path class="cls-2" d="M636.2,397.82q0.06-1.05,1-.83a8.38,8.38,0,0,1,1.21.29,1.07,1.07,0,0,1,.89,1.21,73,73,0,0,1-1,8Q638,407.5,637,407l-0.83-.45a1.34,1.34,0,0,1-.86-1.47A63.08,63.08,0,0,0,636.2,397.82Zm3.89-5.92a0.85,0.85,0,0,1,.89-1h1.66a0.86,0.86,0,0,1,1,1v4.4q0,0.83.8-.13a1.12,1.12,0,0,1,1.85-.25l0.64,0.51a1.24,1.24,0,0,1,.35,1.91,16.36,16.36,0,0,1-2.8,2.64,2,2,0,0,0-.86,1.56,42.38,42.38,0,0,1-.6,6.05,1.6,1.6,0,0,0,.76,1.53l2.64,2.36a1.27,1.27,0,0,1,.22,1.85l-1,1.31q-0.76,1-1.47.13t-1.66-2q-0.64-.7-1,0.32a22.33,22.33,0,0,1-2.45,5.25,1.1,1.1,0,0,1-1.82.19l-0.64-.51a1.33,1.33,0,0,1-.54-1.91,31.89,31.89,0,0,0,4-14.91V391.89Zm12.61-.13a0.86,0.86,0,0,1,.92-1h1.59a0.86,0.86,0,0,1,1,1v0.92a0.69,0.69,0,0,0,.76.8h1.59a0.86,0.86,0,0,1,1,1V395q0,0.83.7-.25l0.54-.89a1.21,1.21,0,0,1,1.53-.6l1.62,0.54a0.77,0.77,0,0,1,.41,1.27,41.82,41.82,0,0,1-2.29,3.5q-0.8,1,0,1h1.85a0.86,0.86,0,0,1,1,1v1.34a0.86,0.86,0,0,1-1,1h-5.06a2.83,2.83,0,0,0-1.72.8l-0.67.51q-0.89.61-.06,0.61h6.37a0.86,0.86,0,0,1,1,1v1.37a0.86,0.86,0,0,1-1,1h-9.08a1,1,0,0,0-1,.83q-0.13.86,0.64,0.86h9a0.83,0.83,0,0,1,1,1,21.71,21.71,0,0,1-1.34,7.64,3.43,3.43,0,0,1-2.36,1.72,7.46,7.46,0,0,1-3.82,0,1.45,1.45,0,0,1-1.34-1.21l-0.32-1.43q-0.22-1,.8-0.83l2.2,0.22a4.77,4.77,0,0,0,1.56-.22q0.86-.67,1-2.83a0.68,0.68,0,0,0-.76-0.77h-6.37a0.92,0.92,0,0,0-1,.83,0.87,0.87,0,0,1-1.15.67,13.93,13.93,0,0,0-1.59-.22,0.81,0.81,0,0,1-.8-1.08l1-3.95c0.11-.51-0.16-0.62-0.8-0.35l-1.27.54a1.17,1.17,0,0,1-1.53-.61l-0.51-1q-0.6-1.05.35-1.46a38.54,38.54,0,0,0,6-3q0.76-.57-0.22-0.57h-3.5a0.86,0.86,0,0,1-1-1v-1.34a0.86,0.86,0,0,1,1-1h4.4a0.69,0.69,0,0,0,.8-0.76v-1.27a0.69,0.69,0,0,0-.76-0.8h-2.58a0.86,0.86,0,0,1-1-1v-1.37a0.86,0.86,0,0,1,1-1h2.58a0.69,0.69,0,0,0,.8-0.76v-0.89Zm5.51,5.83q0.6-.86-0.06-0.86H657a0.69,0.69,0,0,0-.8.76v1.34q0,0.92.86,0.06Z" transform="translate(-593 -388)"/><path class="cls-2" d="M680.38,391.93q0.06-1.05,1-.89a12.92,12.92,0,0,1,1.53.29,1.17,1.17,0,0,1,1.11,1.21l-0.06,1.11a0.66,0.66,0,0,0,.7.83h10.8a0.86,0.86,0,0,1,1,1v20.73q-0.35,3.47-3.38,3.92a7.24,7.24,0,0,1-3-.1,1.47,1.47,0,0,1-1.21-1.15l-0.38-2q-0.19-1,.76-0.7a6.42,6.42,0,0,0,3,.26,1.59,1.59,0,0,0,.51-1.12V398.93a0.69,0.69,0,0,0-.76-0.8H684a0.93,0.93,0,0,0-.89.29q-0.13.32,0.86,0.73a44.71,44.71,0,0,1,7.17,4,1.16,1.16,0,0,1,.25,1.85l-0.86,1.27a1,1,0,0,1-1.59.29,41.25,41.25,0,0,0-6.37-3.85,1.2,1.2,0,0,0-1.66.41,18.1,18.1,0,0,1-4.52,4.27,1.26,1.26,0,0,1-1.91-.32l-0.61-.8q-0.8-1.05.06-1.62a13.73,13.73,0,0,0,5.06-5.7q0.32-.8-0.45-0.8H673.5a0.69,0.69,0,0,0-.8.76v20.42a0.86,0.86,0,0,1-1,1H670a0.86,0.86,0,0,1-1-1V395.46a0.86,0.86,0,0,1,1-1h9.4a0.9,0.9,0,0,0,.89-1A10.12,10.12,0,0,0,680.38,391.93Zm0.6,13.22a1,1,0,0,1,1.21-.86l1.56,0.19a0.9,0.9,0,0,1,.92,1.18l-0.45,1.5a0.93,0.93,0,0,0,.7,1.24,42,42,0,0,1,5.48,3.28,1.26,1.26,0,0,1,.41,1.91l-0.7,1q-0.86,1.24-1.82.41a37.46,37.46,0,0,0-5.29-3.5q-0.73-.38-1.53.64a17.6,17.6,0,0,1-4.94,4.17,1.36,1.36,0,0,1-1.94-.38,10.12,10.12,0,0,1-.73-1q-0.8-1,.16-1.59Q679.61,410.18,681,405.14Z" transform="translate(-593 -388)"/><path class="cls-2" d="M708.44,391.78a9,9,0,0,1,6.27,1.27,6.25,6.25,0,0,1,2.45,5.8,9,9,0,0,1-2.42,5.1q-3.25,3.12-3.28,4.75V412a0.86,0.86,0,0,1-1,1h-1.82a0.86,0.86,0,0,1-1-1v-4a6,6,0,0,1,1-2.55,31,31,0,0,1,2.13-2.55q2.8-2.93,2.42-5.1a2.13,2.13,0,0,0-1.18-1.75,6.05,6.05,0,0,0-3-.51,15.58,15.58,0,0,0-2.55.54q-1.08.29-1.08-.67v-2a1.2,1.2,0,0,1,1-1.24A14.58,14.58,0,0,1,708.44,391.78Zm-1.11,24.3a0.86,0.86,0,0,1,.92-1h2.52a0.86,0.86,0,0,1,1,1v2.45a0.86,0.86,0,0,1-1,1h-2.52a0.84,0.84,0,0,1-1-1v-2.42Z" transform="translate(-593 -388)"/><path class="cls-2" d="M742.81,411.44c0-.31.26-0.46,0.79-0.46h1.56c0.56,0,.85.14,0.85,0.41s0.22,0.46.65,0.46h2.54a0.74,0.74,0,0,1,.85.82v0.93a0.74,0.74,0,0,1-.82.85h-2.54a0.59,0.59,0,0,0-.68.65,7.13,7.13,0,0,1-.36,3,2,2,0,0,1-.93,1,8,8,0,0,1-4.48.38,1.16,1.16,0,0,1-1-1l-0.22-1.15q-0.19-1.06.65-.82a10.43,10.43,0,0,0,1.72.25q1.61,0.08,1.36-1.58a0.6,0.6,0,0,0-.66-0.71h-7.26q-0.9,0-.16.52l0.87,0.6a0.92,0.92,0,0,1,.25,1.45L735,418.1q-0.6.71-1.5-.08a20.38,20.38,0,0,0-2.18-1.58,0.74,0.74,0,0,1-.22-1.28c0.45-.47.47-0.71,0.05-0.71h-4.7a0.74,0.74,0,0,1-.85-0.82v-0.93a0.74,0.74,0,0,1,.82-0.85h15.72Q742.81,411.85,742.81,411.44Zm-6.74-16.54q0-.52.77-0.52h1.42c0.56,0,.85.16,0.85,0.46a0.53,0.53,0,0,0,.65.52h9.06a0.74,0.74,0,0,1,.85.82v1a0.74,0.74,0,0,1-.82.85h-9.06c-0.46,0-.68.11-0.68,0.33s0.22,0.35.65,0.35H747a0.74,0.74,0,0,1,.85.82v6.93c0,0.55-.08.83-0.25,0.85s0,0.29.46,0.87l0.66,0.87a0.92,0.92,0,0,1-.22,1.5,7.22,7.22,0,0,0-.79.46q-0.82.47-1.17-.11a1.35,1.35,0,0,0-1.28-.52q-8.71.76-17.53,0.76a0.91,0.91,0,0,1-1-.82l-0.16-.82q-0.14-1,.68-1a1.35,1.35,0,0,0,.46,0h4.45l3.19-.05a0.58,0.58,0,1,0,0-1.15h-7a0.74,0.74,0,0,1-.85-0.82v-6.93a0.74,0.74,0,0,1,.82-0.85h7c0.46,0,.68-0.11.68-0.33s-0.22-.36-0.65-0.36h-8.35a0.74,0.74,0,0,1-.85-0.82v-1a0.74,0.74,0,0,1,.82-0.85h8.35C735.84,395.36,736.07,395.2,736.07,394.89Zm0,6.66q0-.41-0.65-0.41h-4.15c-0.46,0-.68.13-0.68,0.38s0.22,0.41.66,0.41h4.15C735.84,401.94,736.07,401.81,736.07,401.55Zm0,3.11a0.45,0.45,0,0,0-.54-0.46h-4.26c-0.46,0-.68.12-0.68,0.35s0.22,0.41.66,0.41h4.15Q736,405,736.07,404.67Zm8.74-3.11q0-.41-0.66-0.41h-4.37c-0.46,0-.68.13-0.68,0.38s0.22,0.41.65,0.41h4.37C744.57,401.94,744.8,401.81,744.8,401.55Zm0,3.11a0.45,0.45,0,0,0-.55-0.46h-4.48c-0.46,0-.68.12-0.68,0.35s0.22,0.41.65,0.41h4.37Q744.77,405,744.8,404.67ZM744,407.56q0.38-.22-0.33-0.22h-3.9c-0.46,0-.68.16-0.68,0.49a0.53,0.53,0,0,0,.65.52q1.88-.11,3.85-0.14c0.44,0,.58-0.13.44-0.27S743.88,407.67,744,407.56Z" transform="translate(-593 -388)"/><path class="cls-2" d="M761.62,395.25a0.73,0.73,0,0,1,.76-0.87h1.45a0.74,0.74,0,0,1,.85.82v2.46a0.59,0.59,0,0,0,.66.68h1.09a0.59,0.59,0,0,0,.68-0.66v-2.46a0.74,0.74,0,0,1,.82-0.85h1.39a0.74,0.74,0,0,1,.85.82v2.46a0.6,0.6,0,0,0,.68.68,1.15,1.15,0,0,0,1.06-.82l0.6-1.64a0.82,0.82,0,0,1,1.12-.57q0.79,0.19,1.67.46a0.68,0.68,0,0,1,.44,1.09l-0.38.74q-0.35.74,0.25,0.74h1.75a0.74,0.74,0,0,1,.85.82v1.15a0.74,0.74,0,0,1-.82.85h-3.9a1.12,1.12,0,0,0-1,.82q-0.36,1,.25,1h3.82a0.74,0.74,0,0,1,.85.82V405a0.74,0.74,0,0,1-.82.85h-8.38c-0.46,0-.68.16-0.68,0.49a0.53,0.53,0,0,0,.65.52h7.18a0.74,0.74,0,0,1,.85.82v1.12a0.74,0.74,0,0,1-.82.85h-7.18c-0.46,0-.68.16-0.68,0.49a0.53,0.53,0,0,0,.65.52h9.36a0.74,0.74,0,0,1,.85.82v1.28a0.74,0.74,0,0,1-.82.85h-5q-0.87,0,0,.44a28.73,28.73,0,0,0,5.1,1.47q0.82,0.13.41,1t-0.85,1.64a1.07,1.07,0,0,1-1.39.6,26.27,26.27,0,0,1-7.48-3.79q-0.82-.6-0.82.05v3.66a0.74,0.74,0,0,1-.82.85h-1.58a0.74,0.74,0,0,1-.85-0.82V415q0-.66-0.87,0a25.89,25.89,0,0,1-7.32,3.69,1,1,0,0,1-1.31-.55l-0.63-1.09q-0.6-1,.3-1.23a34,34,0,0,0,5.24-1.86q1-.44,0-0.44h-4.94a0.74,0.74,0,0,1-.85-0.82v-1.28a0.74,0.74,0,0,1,.82-0.85h8.84q0.68,0,.68-0.49a0.53,0.53,0,0,0-.66-0.52H757a0.74,0.74,0,0,1-.85-0.82V407.7a0.74,0.74,0,0,1,.82-0.85h6.55q0.68,0,.68-0.49a0.53,0.53,0,0,0-.66-0.52h-7.75A0.74,0.74,0,0,1,755,405v-1.25a0.74,0.74,0,0,1,.82-0.85h3q0.68,0,.38-0.85a1.14,1.14,0,0,0-1-.93h-3.39a0.74,0.74,0,0,1-.85-0.82v-1.15a0.74,0.74,0,0,1,.82-0.85h1.37q0.68,0,.14-0.85t0.05-1.42l1-.63a1.09,1.09,0,0,1,1.5.35,6,6,0,0,1,.71,1.06q0.46,0.82,0,1.12t0.33,0.36h1a0.59,0.59,0,0,0,.68-0.66v-2.43ZM769,402.1q0.33-1-.27-1H762.9q-0.68,0-.35.85a1.1,1.1,0,0,0,.93.93h4.59A1.07,1.07,0,0,0,769,402.1Z" transform="translate(-593 -388)"/><path class="cls-2" d="M789.79,395.68a0.74,0.74,0,0,1,.82-0.85h14.5a0.74,0.74,0,0,1,.85.82v5.51a0.74,0.74,0,0,1-.82.85H793.39a0.59,0.59,0,0,0-.68.65v4.72a29.6,29.6,0,0,1-2.27,11.14,0.71,0.71,0,0,1-1.17.33l-1.09-.66a1,1,0,0,1-.44-1.36l0.54-1.56c0.15-.47,0-0.71-0.41-0.71h-2.67a0.59,0.59,0,0,0-.68.66v0.36a0.74,0.74,0,0,1-.82.85h-1.26a0.74,0.74,0,0,1-.85-0.82V396.53a0.74,0.74,0,0,1,.82-0.85h5.41a0.74,0.74,0,0,1,.85.82V413q0,0.6.3-.11a36.7,36.7,0,0,0,.82-6.55V395.68Zm-4.07,3.66a0.57,0.57,0,0,0-.57-0.71,0.57,0.57,0,0,0-.63.66V411a0.56,0.56,0,0,0,.57.68,0.57,0.57,0,0,0,.63-0.66V399.34Zm7.34,4.29a0.74,0.74,0,0,1,.82-0.85h10.78a0.74,0.74,0,0,1,.85.82v1.17a0.74,0.74,0,0,1-.82.85h-0.82q-0.68,0-.08.85a17.74,17.74,0,0,1,1.58,2.73,1,1,0,0,1-.36,1.37l-1.06.65a0.72,0.72,0,0,1-1.2-.3,1.08,1.08,0,0,0-1.2-.71l-0.25,0a0.87,0.87,0,0,0-.74,1q0,0.93.65,0.93h3.09a0.74,0.74,0,0,1,.85.82v1.09a0.74,0.74,0,0,1-.82.85h-3.08a0.73,0.73,0,0,0,0,1.45h4.18a0.74,0.74,0,0,1,.85.82v1.12a0.74,0.74,0,0,1-.82.85H792.58a0.74,0.74,0,0,1-.85-0.82V417.2a0.74,0.74,0,0,1,.82-0.85h4.18a0.73,0.73,0,0,0,0-1.45h-2.84a0.74,0.74,0,0,1-.85-0.82V413a0.74,0.74,0,0,1,.82-0.85h2.84a0.59,0.59,0,0,0,.68-0.65q0-.66-0.82-0.6t-1.91.13a1,1,0,0,1-1.15-.85L793.26,409c-0.13-.6.06-0.91,0.57-0.93a1.42,1.42,0,0,0,1.28-.82l0.44-.93q0.25-.65-0.41-0.65h-1.26a0.72,0.72,0,0,1-.82-0.82v-1.17Zm9.83-5.19a0.64,0.64,0,0,0-.63-0.79h-8.87a0.63,0.63,0,0,0-.68.74,0.65,0.65,0,0,0,.66.79h8.84A0.63,0.63,0,0,0,802.89,398.44Zm-1.37,7.34c0-.11-0.18-0.16-0.66-0.16h-1.06a1.22,1.22,0,0,0-1.07.82l-0.35.71c-0.22.44-.05,0.64,0.49,0.6l1.26-.16a1,1,0,0,0,.66-0.22l-0.27-.41q-0.25-.3.57-0.87A2,2,0,0,0,801.53,405.78Z" transform="translate(-593 -388)"/><path class="cls-2" d="M816.25,395.81A0.7,0.7,0,0,1,817,395h2.29a0.72,0.72,0,0,1,.82.82q-0.3,8.25-.52,16.57a0.78,0.78,0,0,1-.87.82h-1.06a0.78,0.78,0,0,1-.87-0.82Zm0,20a0.74,0.74,0,0,1,.79-0.87h2.21a0.74,0.74,0,0,1,.85.82v2.1a0.74,0.74,0,0,1-.82.85h-2.21a0.72,0.72,0,0,1-.82-0.82v-2.07Z" transform="translate(-593 -388)"/><g class="cls-3"><g class="cls-4"><path class="cls-5" d="M741.93,389.84c-4.14,0-4.14-1.84-8.27-1.84s-4.14,1.84-8.28,1.84S721.24,388,717.1,388s-4.14,1.84-8.27,1.84-4.14-1.84-8.27-1.84-4.14,1.84-8.27,1.84S688.14,388,684,388s-4.14,1.84-8.27,1.84S671.6,388,667.46,388s-4.14,1.84-8.27,1.84S655,388,650.91,388s-4.14,1.84-8.27,1.84S638.5,388,634.37,388s-4.14,1.84-8.27,1.84S622,388,617.82,388s-4.14,1.84-8.27,1.84-4.14-1.84-8.27-1.84-4.14,1.84-8.27,1.84v1.75c4.14,0,4.14-1.84,8.27-1.84s4.14,1.84,8.27,1.84,4.14-1.84,8.27-1.84,4.14,1.84,8.27,1.84,4.14-1.84,8.27-1.84,4.14,1.84,8.27,1.84,4.14-1.84,8.27-1.84,4.14,1.84,8.27,1.84,4.14-1.84,8.27-1.84,4.14,1.84,8.27,1.84,4.14-1.84,8.27-1.84,4.14,1.84,8.27,1.84,4.14-1.84,8.27-1.84,4.14,1.84,8.27,1.84,4.14-1.84,8.27-1.84,4.14,1.84,8.27,1.84,4.14-1.84,8.28-1.84,4.14,1.84,8.27,1.84v-1.75Z" transform="translate(-593 -388)"/><path class="cls-5" d="M741.93,393.44c-4.14,0-4.14-1.84-8.27-1.84s-4.14,1.84-8.28,1.84-4.14-1.84-8.27-1.84-4.14,1.84-8.27,1.84-4.14-1.84-8.27-1.84-4.14,1.84-8.27,1.84-4.14-1.84-8.27-1.84-4.14,1.84-8.27,1.84-4.14-1.84-8.27-1.84-4.14,1.84-8.27,1.84-4.14-1.84-8.27-1.84-4.14,1.84-8.27,1.84-4.14-1.84-8.27-1.84-4.14,1.84-8.27,1.84-4.14-1.84-8.27-1.84-4.14,1.84-8.27,1.84-4.14-1.84-8.27-1.84-4.14,1.84-8.27,1.84v1.75c4.14,0,4.14-1.84,8.27-1.84s4.14,1.84,8.27,1.84,4.14-1.84,8.27-1.84,4.14,1.84,8.27,1.84,4.14-1.84,8.27-1.84,4.14,1.84,8.27,1.84,4.14-1.84,8.27-1.84,4.14,1.84,8.27,1.84,4.14-1.84,8.27-1.84,4.14,1.84,8.27,1.84,4.14-1.84,8.27-1.84,4.14,1.84,8.27,1.84,4.14-1.84,8.27-1.84,4.14,1.84,8.27,1.84,4.14-1.84,8.27-1.84,4.14,1.84,8.27,1.84,4.14-1.84,8.28-1.84,4.14,1.84,8.27,1.84v-1.75Z" transform="translate(-593 -388)"/><path class="cls-5" d="M741.93,397c-4.14,0-4.14-1.84-8.27-1.84s-4.14,1.84-8.28,1.84-4.14-1.84-8.27-1.84S713,397,708.83,397s-4.14-1.84-8.27-1.84-4.14,1.84-8.27,1.84-4.14-1.84-8.27-1.84-4.14,1.84-8.27,1.84-4.14-1.84-8.27-1.84-4.14,1.84-8.27,1.84-4.14-1.84-8.27-1.84-4.14,1.84-8.27,1.84-4.14-1.84-8.27-1.84-4.14,1.84-8.27,1.84-4.14-1.84-8.27-1.84-4.14,1.84-8.27,1.84-4.14-1.84-8.27-1.84S597.14,397,593,397v1.75c4.14,0,4.14-1.84,8.27-1.84s4.14,1.84,8.27,1.84,4.14-1.84,8.27-1.84,4.14,1.84,8.27,1.84,4.14-1.84,8.27-1.84,4.14,1.84,8.27,1.84,4.14-1.84,8.27-1.84,4.14,1.84,8.27,1.84,4.14-1.84,8.27-1.84,4.14,1.84,8.27,1.84,4.14-1.84,8.27-1.84,4.14,1.84,8.27,1.84,4.14-1.84,8.27-1.84,4.14,1.84,8.27,1.84,4.14-1.84,8.27-1.84,4.14,1.84,8.27,1.84,4.14-1.84,8.28-1.84,4.14,1.84,8.27,1.84V397Z" transform="translate(-593 -388)"/><path class="cls-5" d="M741.93,400.64c-4.14,0-4.14-1.84-8.27-1.84s-4.14,1.84-8.28,1.84-4.14-1.84-8.27-1.84-4.14,1.84-8.27,1.84-4.14-1.84-8.27-1.84-4.14,1.84-8.27,1.84-4.14-1.84-8.27-1.84-4.14,1.84-8.27,1.84-4.14-1.84-8.27-1.84-4.14,1.84-8.27,1.84-4.14-1.84-8.27-1.84-4.14,1.84-8.27,1.84-4.14-1.84-8.27-1.84-4.14,1.84-8.27,1.84-4.14-1.84-8.27-1.84-4.14,1.84-8.27,1.84-4.14-1.84-8.27-1.84-4.14,1.84-8.27,1.84v1.75c4.14,0,4.14-1.84,8.27-1.84s4.14,1.84,8.27,1.84,4.14-1.84,8.27-1.84,4.14,1.84,8.27,1.84,4.14-1.84,8.27-1.84,4.14,1.84,8.27,1.84,4.14-1.84,8.27-1.84,4.14,1.84,8.27,1.84,4.14-1.84,8.27-1.84,4.14,1.84,8.27,1.84,4.14-1.84,8.27-1.84,4.14,1.84,8.27,1.84,4.14-1.84,8.27-1.84,4.14,1.84,8.27,1.84,4.14-1.84,8.27-1.84,4.14,1.84,8.27,1.84,4.14-1.84,8.28-1.84,4.14,1.84,8.27,1.84v-1.75Z" transform="translate(-593 -388)"/><path class="cls-5" d="M741.93,404.25c-4.14,0-4.14-1.84-8.27-1.84s-4.14,1.84-8.28,1.84-4.14-1.84-8.27-1.84-4.14,1.84-8.27,1.84-4.14-1.84-8.27-1.84-4.14,1.84-8.27,1.84-4.14-1.84-8.27-1.84-4.14,1.84-8.27,1.84-4.14-1.84-8.27-1.84-4.14,1.84-8.27,1.84-4.14-1.84-8.27-1.84-4.14,1.84-8.27,1.84-4.14-1.84-8.27-1.84-4.14,1.84-8.27,1.84-4.14-1.84-8.27-1.84-4.14,1.84-8.27,1.84-4.14-1.84-8.27-1.84-4.14,1.84-8.27,1.84V406c4.14,0,4.14-1.84,8.27-1.84s4.14,1.84,8.27,1.84,4.14-1.84,8.27-1.84S622,406,626.09,406s4.14-1.84,8.27-1.84,4.14,1.84,8.27,1.84,4.14-1.84,8.27-1.84S655,406,659.19,406s4.14-1.84,8.27-1.84,4.14,1.84,8.27,1.84,4.14-1.84,8.27-1.84,4.14,1.84,8.27,1.84,4.14-1.84,8.27-1.84,4.14,1.84,8.27,1.84,4.14-1.84,8.27-1.84,4.14,1.84,8.27,1.84,4.14-1.84,8.28-1.84,4.14,1.84,8.27,1.84v-1.75Z" transform="translate(-593 -388)"/><path class="cls-5" d="M741.93,407.85c-4.14,0-4.14-1.84-8.27-1.84s-4.14,1.84-8.28,1.84S721.24,406,717.1,406s-4.14,1.84-8.27,1.84-4.14-1.84-8.27-1.84-4.14,1.84-8.27,1.84S688.14,406,684,406s-4.14,1.84-8.27,1.84S671.6,406,667.46,406s-4.14,1.84-8.27,1.84S655,406,650.91,406s-4.14,1.84-8.27,1.84S638.5,406,634.37,406s-4.14,1.84-8.27,1.84S622,406,617.82,406s-4.14,1.84-8.27,1.84-4.14-1.84-8.27-1.84-4.14,1.84-8.27,1.84v1.75c4.14,0,4.14-1.84,8.27-1.84s4.14,1.84,8.27,1.84,4.14-1.84,8.27-1.84,4.14,1.84,8.27,1.84,4.14-1.84,8.27-1.84,4.14,1.84,8.27,1.84,4.14-1.84,8.27-1.84,4.14,1.84,8.27,1.84,4.14-1.84,8.27-1.84,4.14,1.84,8.27,1.84,4.14-1.84,8.27-1.84,4.14,1.84,8.27,1.84,4.14-1.84,8.27-1.84,4.14,1.84,8.27,1.84,4.14-1.84,8.27-1.84,4.14,1.84,8.27,1.84,4.14-1.84,8.28-1.84,4.14,1.84,8.27,1.84v-1.75Z" transform="translate(-593 -388)"/><path class="cls-5" d="M741.93,411.45c-4.14,0-4.14-1.84-8.27-1.84s-4.14,1.84-8.28,1.84-4.14-1.84-8.27-1.84-4.14,1.84-8.27,1.84-4.14-1.84-8.27-1.84-4.14,1.84-8.27,1.84-4.14-1.84-8.27-1.84-4.14,1.84-8.27,1.84-4.14-1.84-8.27-1.84-4.14,1.84-8.27,1.84-4.14-1.84-8.27-1.84-4.14,1.84-8.27,1.84-4.14-1.84-8.27-1.84-4.14,1.84-8.27,1.84-4.14-1.84-8.27-1.84-4.14,1.84-8.27,1.84-4.14-1.84-8.27-1.84-4.14,1.84-8.27,1.84v1.75c4.14,0,4.14-1.84,8.27-1.84s4.14,1.84,8.27,1.84,4.14-1.84,8.27-1.84,4.14,1.84,8.27,1.84,4.14-1.84,8.27-1.84,4.14,1.84,8.27,1.84,4.14-1.84,8.27-1.84,4.14,1.84,8.27,1.84,4.14-1.84,8.27-1.84,4.14,1.84,8.27,1.84,4.14-1.84,8.27-1.84,4.14,1.84,8.27,1.84,4.14-1.84,8.27-1.84,4.14,1.84,8.27,1.84,4.14-1.84,8.27-1.84,4.14,1.84,8.27,1.84,4.14-1.84,8.28-1.84,4.14,1.84,8.27,1.84v-1.75Z" transform="translate(-593 -388)"/><path class="cls-5" d="M741.93,415.05c-4.14,0-4.14-1.84-8.27-1.84s-4.14,1.84-8.28,1.84-4.14-1.84-8.27-1.84-4.14,1.84-8.27,1.84-4.14-1.84-8.27-1.84-4.14,1.84-8.27,1.84-4.14-1.84-8.27-1.84-4.14,1.84-8.27,1.84-4.14-1.84-8.27-1.84-4.14,1.84-8.27,1.84-4.14-1.84-8.27-1.84-4.14,1.84-8.27,1.84-4.14-1.84-8.27-1.84-4.14,1.84-8.27,1.84-4.14-1.84-8.27-1.84-4.14,1.84-8.27,1.84-4.14-1.84-8.27-1.84-4.14,1.84-8.27,1.84v1.75c4.14,0,4.14-1.84,8.27-1.84s4.14,1.84,8.27,1.84,4.14-1.84,8.27-1.84,4.14,1.84,8.27,1.84,4.14-1.84,8.27-1.84,4.14,1.84,8.27,1.84,4.14-1.84,8.27-1.84,4.14,1.84,8.27,1.84,4.14-1.84,8.27-1.84,4.14,1.84,8.27,1.84S679.87,415,684,415s4.14,1.84,8.27,1.84,4.14-1.84,8.27-1.84,4.14,1.84,8.27,1.84S713,415,717.1,415s4.14,1.84,8.27,1.84,4.14-1.84,8.28-1.84,4.14,1.84,8.27,1.84v-1.75Z" transform="translate(-593 -388)"/><path class="cls-5" d="M741.93,418.65c-4.14,0-4.14-1.84-8.27-1.84s-4.14,1.84-8.28,1.84-4.14-1.84-8.27-1.84-4.14,1.84-8.27,1.84-4.14-1.84-8.27-1.84-4.14,1.84-8.27,1.84-4.14-1.84-8.27-1.84-4.14,1.84-8.27,1.84-4.14-1.84-8.27-1.84-4.14,1.84-8.27,1.84-4.14-1.84-8.27-1.84-4.14,1.84-8.27,1.84-4.14-1.84-8.27-1.84-4.14,1.84-8.27,1.84-4.14-1.84-8.27-1.84-4.14,1.84-8.27,1.84-4.14-1.84-8.27-1.84-4.14,1.84-8.27,1.84v1.75c4.14,0,4.14-1.84,8.27-1.84s4.14,1.84,8.27,1.84,4.14-1.84,8.27-1.84,4.14,1.84,8.27,1.84,4.14-1.84,8.27-1.84,4.14,1.84,8.27,1.84,4.14-1.84,8.27-1.84,4.14,1.84,8.27,1.84,4.14-1.84,8.27-1.84,4.14,1.84,8.27,1.84,4.14-1.84,8.27-1.84,4.14,1.84,8.27,1.84,4.14-1.84,8.27-1.84,4.14,1.84,8.27,1.84,4.14-1.84,8.27-1.84,4.14,1.84,8.27,1.84,4.14-1.84,8.28-1.84,4.14,1.84,8.27,1.84v-1.75Z" transform="translate(-593 -388)"/><path class="cls-5" d="M741.93,422.25c-4.14,0-4.14-1.84-8.27-1.84s-4.14,1.84-8.28,1.84-4.14-1.84-8.27-1.84-4.14,1.84-8.27,1.84-4.14-1.84-8.27-1.84-4.14,1.84-8.27,1.84-4.14-1.84-8.27-1.84-4.14,1.84-8.27,1.84-4.14-1.84-8.27-1.84-4.14,1.84-8.27,1.84-4.14-1.84-8.27-1.84-4.14,1.84-8.27,1.84-4.14-1.84-8.27-1.84-4.14,1.84-8.27,1.84-4.14-1.84-8.27-1.84-4.14,1.84-8.27,1.84-4.14-1.84-8.27-1.84-4.14,1.84-8.27,1.84V424c4.14,0,4.14-1.84,8.27-1.84s4.14,1.84,8.27,1.84,4.14-1.84,8.27-1.84S622,424,626.09,424s4.14-1.84,8.27-1.84,4.14,1.84,8.27,1.84,4.14-1.84,8.27-1.84S655,424,659.19,424s4.14-1.84,8.27-1.84,4.14,1.84,8.27,1.84,4.14-1.84,8.27-1.84,4.14,1.84,8.27,1.84,4.14-1.84,8.27-1.84,4.14,1.84,8.27,1.84,4.14-1.84,8.27-1.84,4.14,1.84,8.27,1.84,4.14-1.84,8.28-1.84,4.14,1.84,8.27,1.84v-1.75Z" transform="translate(-593 -388)"/></g></g></svg>