<?xml version="1.0" encoding="utf-8"?>
<!-- Generator: Adobe Illustrator 19.2.1, SVG Export Plug-In . SVG Version: 6.00 Build 0)  -->
<svg version="1.1" id="圖層_1" xmlns="http://www.w3.org/2000/svg" xmlns:xlink="http://www.w3.org/1999/xlink" x="0px" y="0px"
	 viewBox="0 0 477 624" style="enable-background:new 0 0 477 624;" xml:space="preserve">
<style type="text/css">
	.st0{display:none;fill:#F0A498;stroke:#3F3A39;stroke-miterlimit:10;}
	.st1{fill:#FFFCF5;}
</style>
<path class="st0" d="M321,63.8C279.9,37.7,202,45.1,165.5,57.3c-27.2,9.1-55.3,4.8-74.1-0.5c-26.5-7.4-44.6,6.9-44.2,31.4
	c0.6,30.3,26.1,56,28.1,93.4c2.2,39.4-23.1,88.3-22.3,138.6c1,59.5,23.8,101.7,24.8,139.8c0.8,29.3-6.1,52.2-14.4,71.6
	c-11.5,26.8,17.3,57,58.6,48c34.9-7.7,76.3-24.7,146.7-5.9c53.6,14.3,46.8-14.1,81.1-30.7c24.2-11.8,46.9-7.4,57.5-35.3
	c12.7-33.5-12.2-66.3-25.7-106.5c-11.9-35.4,0.4-83.8,10.7-113.2c11.7-33.3,25.3-89.4,5.2-135.6C382.6,117.7,364.2,91.2,321,63.8z"
	/>
<g>
	<path class="st1" d="M361.8,59.5c51.6,33.5,44.2,105.9,27.2,180.4c-15.5,68.1,3.5,97,7.6,166.1c3.8,63.1-5.9,150.5-47.4,161.6
		c-54.9,14.7-93.3-19-160.1-11.2c-31.9,3.7-81.8,11.8-108.3-10.1c-36.8-30.4-23.3-104.2-13-136.5c12-37.6,20-130.4,2-184.2
		c-18-53.8-17.5-126.9,5.2-160.4c22.6-33.4,73.7-25.3,92.4-19.1c18.7,6.1,54.3,14.9,87.1,9.9C287.3,51.1,327.9,37.6,361.8,59.5z"/>
</g>
</svg>
