<svg id="圖層_1" data-name="圖層 1" xmlns="http://www.w3.org/2000/svg" viewBox="0 0 1020 24.55"><title>obj2</title><path d="M1020,16.9c-28.34,0-28.34-12.59-56.68-12.59S935,16.9,906.65,16.9,878.31,4.31,850,4.31,821.64,16.9,793.31,16.9,765,4.31,736.64,4.31,708.3,16.9,680,16.9,651.64,4.31,623.31,4.31,595,16.9,566.64,16.9,538.31,4.31,510,4.31,481.64,16.9,453.3,16.9,425,4.31,396.64,4.31,368.31,16.9,340,16.9,311.64,4.31,283.31,4.31,255,16.9,226.65,16.9,198.32,4.31,170,4.31,141.65,16.9,113.32,16.9,85,4.31,56.66,4.31,28.33,16.9,0,16.9v12c28.33,0,28.33-12.59,56.66-12.59S85,28.86,113.32,28.86,141.65,16.27,170,16.27s28.33,12.59,56.66,12.59S255,16.27,283.31,16.27,311.64,28.86,340,28.86s28.33-12.59,56.67-12.59S425,28.86,453.3,28.86,481.64,16.27,510,16.27s28.33,12.59,56.67,12.59S595,16.27,623.31,16.27,651.64,28.86,680,28.86s28.33-12.59,56.67-12.59S765,28.86,793.31,28.86,821.64,16.27,850,16.27s28.33,12.59,56.67,12.59S935,16.27,963.32,16.27,991.66,28.86,1020,28.86v-12Z" transform="translate(0 -4.31)" style="fill:#e9907b"/></svg>