<svg xmlns="http://www.w3.org/2000/svg" width="213.26" height="40.28" viewBox="0 0 213.26 40.28"><path d="M1 35.762V16.39h2.643v9.53l7.787-9.53h2.757l-7.534 9.241 8.877 10.131h-3.467l-8.42-9.817v9.817H1zm15.892 0V16.39h2.727v8.147h8.969V16.39h2.729v19.373h-2.729v-9.186h-8.969v9.186h-2.727zm22.51.478c-1.352 0-3.076-.275-5.177-.823v-2.732c2.262 1.012 4.123 1.519 5.577 1.519 1.126 0 2.026-.286 2.713-.856.68-.569 1.022-1.321 1.022-2.248 0-.76-.227-1.404-.673-1.936-.449-.533-1.278-1.126-2.484-1.78l-1.386-.771c-1.716-.942-2.923-1.828-3.626-2.661-.703-.833-1.055-1.803-1.055-2.912 0-1.489.563-2.717 1.686-3.68 1.123-.965 2.558-1.447 4.294-1.447 1.552 0 3.187.246 4.908.737v2.514c-2.117-.809-3.697-1.214-4.737-1.214-.983 0-1.798.255-2.443.764-.64.509-.963 1.149-.963 1.921 0 .645.238 1.216.708 1.713.472.498 1.331 1.091 2.581 1.778l1.442.787c1.74.95 2.951 1.848 3.641 2.692.69.848 1.032 1.863 1.032 3.047 0 1.686-.646 3.036-1.935 4.056-1.29 1.022-3 1.532-5.125 1.532z" fill="#D4003B"/><g fill="#D4003B"><path d="M102.825 29.091l-.688-1.468-.082.038c-.591.277-1.216.543-1.858.8v-7.434h1.929v-1.518h-5.339v1.518h1.958v7.886c-.739.181-1.47.337-2.175.465l-.108.02.616 1.625.078-.015c.89-.171 1.896-.441 2.994-.809l.003-.001a31.91 31.91 0 0 0 2.59-1.066l.082-.041z"/><path d="M106.589 18.173h-1.393v3.141h-2.276v1.515h2.276v1.102c0 1.906-.374 3.603-1.123 5.042-.746 1.339-1.958 2.408-3.593 3.181l-.118.057 1.274 1.266.06-.034a8.94 8.94 0 0 0 3.705-3.822c.777-1.553 1.179-3.464 1.188-5.689V22.83h2.431v4.206c0 2.361-.228 3.846-.683 4.419-.226.28-.544.417-.969.417-.55 0-1.128-.034-1.717-.097l-.132-.015.399 1.631h1.559c.829 0 1.499-.317 1.982-.936.662-.896 1.002-2.718 1.016-5.417v-5.724h-3.887l.001-3.141zm18.224.573l.024-.077-1.409-.622-.03.099c-.3 1.013-.841 2.277-1.603 3.75h-8.417v2.772h1.452v-1.256h10.356v1.256h1.448v-2.772h-3.11c.558-1.147.993-2.208 1.289-3.15z"/><path d="M124.1 25.24l.061-.062-.801-.964h-7.457v1.517h5.689c-.476.418-1.055.906-1.73 1.461h-.488v.819h-5.995v1.518h5.995v1.954c0 .315-.132.458-.431.458h-1.354l.4 1.517h1.46c.914 0 1.375-.486 1.375-1.445V29.53h5.783v-1.518h-5.468a59.025 59.025 0 0 0 2.961-2.772zm-8.006-3.65l.043.092 1.335-.785-.036-.077c-.487-1.035-.98-1.903-1.475-2.575l-.053-.07-.07.047-1.213.813.057.077c.419.57.898 1.406 1.412 2.478zm3.375-.14l.029.093 1.438-.566-.023-.08c-.316-1.074-.67-1.968-1.049-2.656l-.041-.074-.078.036-1.326.62.049.086c.33.583.667 1.437 1.001 2.541zm16.328 5.853a31.613 31.613 0 0 0-2.42-2.156c.635-.92 1.208-2.044 1.711-3.347l.017-.046-.623-.833h-1.926l1.22-.883-.041-.071c-.438-.75-.875-1.371-1.298-1.832l-.057-.065-.066.055-1.148.931.065.071c.36.389.772.975 1.229 1.739l.033.055h-2.861v1.519h3.73a12.94 12.94 0 0 1-1.352 2.185c-.737.837-1.713 1.65-2.901 2.411l-.087.056 1.103 1.289.07-.055c.56-.444 1.083-.901 1.562-1.357v6.512h1.452v-6.565c.57.56 1.093 1.101 1.539 1.609l.069.08 1.041-1.241-.061-.061z"/><path d="M140.185 31.286v-6.982h2.783v-1.517h-2.783v-4.572h-1.453v4.572h-2.998v1.517h2.998v6.982h-3.487v1.518h8.276v-1.518h-3.336z"/></g><path d="M158.798 24.567h4.361v.904h-13.737v-.904h4.274l-.888-2.095h-2.63v-.903h12.166v.903h-2.907l-.639 2.095zm2.123 8.172c0 .091-.045.138-.132.138h-9.099c-.079 0-.117-.047-.117-.138V26.71c.01-.082.049-.122.117-.122h9.099c.087.009.132.05.132.122v6.029zm-9.055-13.252h8.791v.904h-8.791v-.904zm.565 9.792h7.632v-1.758c0-.02-.015-.03-.044-.03h-7.558c-.021.01-.03.021-.03.03v1.758zm7.632.904h-7.632v1.744c.01.03.021.047.03.047h7.558c.029 0 .044-.017.044-.047v-1.744zm-2.152-5.616l.625-2.095h-4.781l.887 2.095h3.269zm15.08 4.959v3.747h-.859V29.54c-1.996 1.612-3.896 2.664-5.697 3.155l-.406-.828a15.382 15.382 0 0 0 5.479-2.906h-5.713v-.903h6.338v-1.423h-1.163c-.077 0-.114-.045-.114-.138v-6.089c.008-.082.048-.123.114-.123h.844c.165-.428.306-.873.422-1.331l.8.305c-.117.348-.224.689-.32 1.026h1.365c.089.01.132.052.132.123v6.089c0 .093-.043.138-.132.138h-1.088v1.423h6.54v.903h-5.886c1.541 1.233 3.415 2.191 5.624 2.875l-.465.794c-2.076-.652-4.014-1.686-5.815-3.104zm-3.431-3.107l-3.574.353-.191-.888.801-.076c.426-.541.887-1.214 1.38-2.021-.668-.765-1.343-1.392-2.021-1.881.155-.255.311-.51.465-.766.059.021.234.16.524.414.329-.785.63-1.625.901-2.525l.8.353c-.224.693-.587 1.612-1.091 2.755.262.245.543.536.842.872.418-.786.718-1.545.902-2.281l.828.23c-.357 1.5-1.178 3.076-2.456 4.729l1.613-.17a12.192 12.192 0 0 0-.304-.856l.813-.26c.339.908.596 1.729.771 2.464l-.828.197c-.05-.204-.109-.419-.175-.643zm2.152-3.442h1.642v-1.761c0-.02-.015-.03-.044-.03h-1.57c-.02.01-.027.021-.027.03v1.761zm1.642.902h-1.642v1.807c.008.029.018.044.027.044h1.57c.029 0 .044-.016.044-.044v-1.807zm5.13 2.418l-3.649.475-.218-.872.582-.078c.398-.561.819-1.258 1.265-2.095-.582-.726-1.182-1.316-1.803-1.775.174-.246.339-.496.494-.749.037.028.145.111.32.242.31-.742.596-1.548.857-2.418l.799.353c-.203.673-.551 1.561-1.046 2.661.224.247.484.526.784.843.33-.744.568-1.458.713-2.141l.842.183c-.28 1.449-1.007 3.029-2.179 4.742l1.875-.26c-.214-.5-.354-.815-.421-.949l.784-.336c.456.979.798 1.837 1.032 2.571l-.801.275a8.607 8.607 0 0 0-.23-.672zm16.982 2.785c0 .163-.076.245-.23.245h-5.785v4.009h-.916v-4.009h-5.568c-.145 0-.217-.082-.217-.245v-7.588c0-.154.072-.23.217-.23h5.568v-2.325h.916v2.325h5.785c.154 0 .23.077.23.23v7.588zm-6.932-6.916h-4.842c-.057 0-.086.03-.086.093v6.059c0 .069.029.106.086.106h4.842v-6.258zm5.973 0h-5.057v6.258h5.057c.068 0 .102-.037.102-.106v-6.059c-.001-.064-.034-.093-.102-.093zm5.211-.688l.871.076c-.011 2.764-.412 6.044-1.207 9.838l-.857-.137c.794-4.03 1.193-7.287 1.193-9.777zm2.6-1.545h.858v11.399c0 .212.02.355.058.427.087.112.247.168.479.168h4.448a.99.99 0 0 0 .378-.061.31.31 0 0 0 .188-.184c.203-.347.334-1.514.393-3.504l.843.215c.02 2.265-.145 3.61-.494 4.039-.224.264-.566.397-1.031.397h-5.103c-.243 0-.441-.06-.597-.183-.309-.236-.448-.628-.421-1.18V19.933zm2.558-.687l.843-.2c.729 2.428 1.235 5.415 1.527 8.966l-.858.153c-.358-3.765-.863-6.738-1.512-8.919zm4.594 1.849l.845-.214c.88 2.714 1.529 6.063 1.946 10.053l-.858.168c-.504-4.224-1.148-7.559-1.933-10.007z" fill="#D4003B"/><linearGradient id="a" gradientUnits="userSpaceOnUse" x1="65.418" y1="2.276" x2="79.133" y2="38.006"><stop offset="0" stop-color="#bd9c5f"/><stop offset=".41" stop-color="#bd9c5f"/><stop offset=".477" stop-color="#bd9c5f"/><stop offset=".576" stop-color="#b9975c"/><stop offset=".686" stop-color="#ac8a53"/><stop offset=".801" stop-color="#977443"/><stop offset=".92" stop-color="#7a542e"/><stop offset=".945" stop-color="#734d29"/><stop offset="1" stop-color="#674121"/></linearGradient><path fill="url(#a)" d="M90.524 14.387c3.18 10.077-2.417 20.825-12.494 24.003-10.079 3.176-20.826-2.416-24.004-12.495-3.181-10.08 2.418-20.826 12.496-24.004C76.6-1.288 87.347 4.308 90.524 14.387z"/><path fill="#FFF" d="M83.07 33.153l-.442.292c-3.074 1.59-4.442 2.059-7.135 2.73l-.636.251a24.108 24.108 0 0 1-8.657.529c-2.397-.292-4.062-.879-5.111-1.317.293.213.581.428.887.618a19.67 19.67 0 0 0 3.019.819c.42.104 1.146.249 2.249.328 3.111.219 6.948-.132 10.15-1.195 1.318-.449 2.773-.85 3.987-1.67a8.62 8.62 0 0 1 .672-.405c.225-.127.452-.246.681-.367 2.932-1.421 5.215-3.787 7.228-6.34.079-.184.141-.374.21-.559l-.186.24c-1.879 2.402-4.282 4.45-6.916 6.046zM58.371 9.503c2.39-2.043 4.471-3.404 7.362-4.415l.937-.289c3.543-1.197 7.976-1.555 11.854-1.275a23.83 23.83 0 0 1 4.404.733 20.86 20.86 0 0 0-.713-.449 29.577 29.577 0 0 0-1.635-.373c-3.547-.686-5.694-.492-6.527-.393-.597.001-1.016.1-1.748.081-.604-.015-1.033.044-1.606.135-.776.123-1.553.154-2.319.326-1.363.306-2.694.823-3.967 1.409-2.589 1.188-5.807 3.754-6.944 4.865-1.398 1.366-2.365 2.509-3.026 3.376-.097.249-.179.5-.265.751a42.37 42.37 0 0 1 2.438-2.922c.28-.306.912-.834 1.755-1.56zm6.073 22.291a37.879 37.879 0 0 0 6.445-.573 40.289 40.289 0 0 0 5.562-1.404c.907-.299 1.791-.561 2.677-.91.701-.283 1.303-.877 2.005-1.133a14.422 14.422 0 0 0 2.363-1.108 28.538 28.538 0 0 0 4.425-3.178c1.3-1.146 2.208-2.188 3.472-3.851a20.48 20.48 0 0 0-.092-1.561c-1.725 3.195-5.097 6.254-6.586 7.064-.183.124-.358.245-.55.37-4.604 3.213-11.297 5.193-17.655 5.678a20.932 20.932 0 0 0 1.788-.756 15.123 15.123 0 0 0 2.691-1.65c.843-.644 1.501-1.306 1.963-1.984 1.052-.822 1.831-1.702 2.345-2.636.342-.803.695-1.604 1.063-2.4.931-1.046 1.627-2.16 2.099-3.334 1.262-.282 2.428-.495 3.652-.809 3.713-.954 6.394-1.167 8.687-1.564l.157-.031a19.612 19.612 0 0 0-.428-1.636c-.125-.402-.285-.786-.434-1.175l-.114.022c-1.413.294-2.586.59-3.638.913-.734.355-.515.228-.875.347l-1.912.628c-1.064.35-2.559.835-4.545 1.484l.414-1.423c.162-.535.25-.875.265-1.021.02-.145.033-.306.053-.48.199-2.037-.534-3.501-2.207-4.395-.148-.078-.328-.126-.485-.195 3.75-.331 7.575-.066 11.335.751-.08-.125-.152-.254-.233-.375-4.255-1.203-8.669-1.476-12.979-.92-1.223-.21-2.638-.249-4.295-.073a91.88 91.88 0 0 1-1.166.102 6.127 6.127 0 0 0-2.037.555 4.908 4.908 0 0 0-.419.221c-.187.322-.378.574-.583.753a3.068 3.068 0 0 1-.723.467c-.093.045-.502.189-1.233.429a6.09 6.09 0 0 0-.753.298 3.76 3.76 0 0 0-.635.388 31.331 31.331 0 0 0-1.971 1.8 33.583 33.583 0 0 0-8.192 7.232c.001.078.009.157.01.235a35.66 35.66 0 0 1 6.641-5.793c-.178.212-.36.423-.529.637-3.049 3.869-4.038 7.146-3.854 9.885a.759.759 0 0 0-.402.146 1.373 1.373 0 0 1-.433.23 1.146 1.146 0 0 1-.191.029c-.031.003-.039.003-.047.003.015 0 .019-.003-.053-.003-.168 0 .051-.039-.112-.008-.031.008-.06.011-.091.02.111.332.239.652.362.977.373-.12.744-.24 1.102-.344.099.547.243 1.072.429 1.573.4 1.07 1.013 1.862 1.845 2.382.044.062.115.104.167.161a23.398 23.398 0 0 1-1.839-.413c.056.087.106.176.16.261.689.21 1.381.396 2.085.537.785.604 1.928.909 3.461.897.816-.011 1.681-.138 2.568-.339zm-5.967-6.9c-.146-1.455.066-3.046 1.042-5.013a20.133 20.133 0 0 1 1.695-2.78 14.017 14.017 0 0 1 4.684-3.587c.415-.2.886-.389 1.41-.571 1.572-.531 2.979-.625 4.221-.288.921.255 1.772.756 2.558 1.507-.011.098-.011.198.003.29-.01.114-.077.215-.197.3-.004.06-.032.155-.083.292-.011.087-.016.174-.027.259-.037.41.038.723.236.94.199.215.537.322 1.021.314l-.07.698c-.027.258-.083.477-.122.715-.587.196-1.203.399-1.848.613-3.67 1.202-12.896 5.572-13.689 5.921l-.75.356c-.033.015-.055.021-.084.034zm1.346 4.472c-.304-.491-.534-.825-.692-1-.167-.795-.334-1.625-.516-2.497-.014-.074-.023-.153-.036-.23 2.233-1.196 8.203-3.768 10.732-4.635 2.457-.842 3.711-1.087 5.108-1.429-.052.132-.088.286-.147.409-.55 1.122-1.47 2.193-2.756 3.208-.077.121-.204.315-.385.581-.181.268-.277.465-.288.594-.015.132.021.235.102.308.159.174.384.237.687.191.299-.046.669-.172 1.108-.382a7.58 7.58 0 0 0 .851-.47c.248-.16.477-.31.692-.453.208-.145.382-.224.515-.249-.739.796-1.267 1.59-1.587 2.381-.466.5-1.195 1.109-2.188 1.836-.993.72-1.687 1.288-2.077 1.696-.397.247-.861.493-1.392.75-1.293.616-2.483.998-3.565 1.138-1.079.146-1.956.028-2.619-.347-.578-.18-1.096-.648-1.547-1.4z"/></svg>