<svg xmlns="http://www.w3.org/2000/svg" width="92.42" height="40.28" viewBox="0 0 92.42 40.28"><path d="M1.002 35.762V16.39h2.643v9.53l7.787-9.53h2.757l-7.534 9.241 8.877 10.131h-3.467l-8.419-9.817v9.817H1.002zm15.892 0V16.39h2.727v8.147h8.969V16.39h2.729v19.373H28.59v-9.186h-8.97v9.186h-2.726zm22.51.478c-1.352 0-3.076-.275-5.177-.823v-2.732c2.262 1.012 4.123 1.519 5.577 1.519 1.126 0 2.026-.286 2.713-.856.68-.569 1.022-1.321 1.022-2.248 0-.76-.227-1.404-.673-1.936-.449-.533-1.278-1.126-2.484-1.78l-1.386-.771c-1.716-.942-2.923-1.828-3.626-2.661-.703-.833-1.055-1.803-1.055-2.912 0-1.489.563-2.717 1.686-3.68 1.123-.965 2.558-1.447 4.294-1.447 1.552 0 3.187.246 4.908.737v2.514c-2.117-.809-3.697-1.214-4.737-1.214-.983 0-1.798.255-2.443.764-.64.509-.963 1.149-.963 1.921 0 .645.238 1.216.708 1.713.472.498 1.331 1.091 2.581 1.778l1.442.787c1.74.95 2.951 1.848 3.641 2.692.69.848 1.032 1.863 1.032 3.047 0 1.686-.646 3.036-1.935 4.056-1.29 1.022-3 1.532-5.125 1.532z" fill="#D4003B"/><linearGradient id="a" gradientUnits="userSpaceOnUse" x1="65.419" y1="2.276" x2="79.134" y2="38.006"><stop offset="0" stop-color="#bd9c5f"/><stop offset=".41" stop-color="#bd9c5f"/><stop offset=".477" stop-color="#bd9c5f"/><stop offset=".576" stop-color="#b9975c"/><stop offset=".686" stop-color="#ac8a53"/><stop offset=".801" stop-color="#977443"/><stop offset=".92" stop-color="#7a542e"/><stop offset=".945" stop-color="#734d29"/><stop offset="1" stop-color="#674121"/></linearGradient><path fill="url(#a)" d="M90.526 14.387c3.18 10.077-2.417 20.825-12.494 24.003-10.079 3.176-20.826-2.416-24.004-12.495-3.182-10.08 2.418-20.826 12.495-24.004 10.079-3.179 20.826 2.417 24.003 12.496z"/><path fill="#FFF" d="M83.071 33.153l-.442.292c-3.074 1.59-4.442 2.059-7.135 2.73l-.636.251a24.108 24.108 0 0 1-8.657.529c-2.397-.292-4.062-.879-5.111-1.317.293.213.581.428.887.618a19.67 19.67 0 0 0 3.019.819c.42.104 1.146.249 2.249.328 3.111.219 6.948-.132 10.15-1.195 1.318-.449 2.773-.85 3.987-1.67a8.62 8.62 0 0 1 .672-.405c.225-.127.452-.246.681-.367 2.932-1.421 5.215-3.787 7.228-6.34.079-.184.141-.374.21-.559l-.186.24c-1.879 2.402-4.282 4.45-6.916 6.046zM58.373 9.503c2.39-2.043 4.471-3.404 7.362-4.415l.937-.289c3.543-1.197 7.976-1.555 11.854-1.275a23.83 23.83 0 0 1 4.404.733 20.86 20.86 0 0 0-.713-.449 29.577 29.577 0 0 0-1.635-.373c-3.547-.686-5.694-.492-6.527-.393-.597.001-1.016.1-1.748.081-.604-.015-1.033.044-1.606.135-.776.123-1.553.154-2.319.326-1.363.306-2.694.823-3.967 1.409-2.589 1.188-5.807 3.754-6.944 4.865-1.398 1.366-2.365 2.509-3.026 3.376-.097.249-.179.5-.265.751a42.37 42.37 0 0 1 2.438-2.922c.279-.306.912-.834 1.755-1.56zm6.073 22.291a37.879 37.879 0 0 0 6.445-.573 40.289 40.289 0 0 0 5.562-1.404c.907-.299 1.791-.561 2.677-.91.701-.283 1.303-.877 2.005-1.133a14.422 14.422 0 0 0 2.363-1.108 28.538 28.538 0 0 0 4.425-3.178c1.3-1.146 2.208-2.188 3.472-3.851a20.48 20.48 0 0 0-.092-1.561c-1.725 3.195-5.097 6.254-6.586 7.064-.183.124-.358.245-.55.37-4.604 3.213-11.297 5.193-17.655 5.678a20.932 20.932 0 0 0 1.788-.756 15.123 15.123 0 0 0 2.691-1.65c.843-.644 1.501-1.306 1.963-1.984 1.052-.822 1.831-1.702 2.345-2.636.342-.803.695-1.604 1.063-2.4.931-1.046 1.627-2.16 2.099-3.334 1.262-.282 2.428-.495 3.652-.809 3.713-.954 6.394-1.167 8.687-1.564l.157-.031a19.612 19.612 0 0 0-.428-1.636c-.125-.402-.285-.786-.434-1.175l-.114.022c-1.413.294-2.586.59-3.638.913-.734.355-.515.228-.875.347l-1.912.628c-1.064.35-2.559.835-4.545 1.484l.414-1.423c.162-.535.25-.875.265-1.021.02-.145.033-.306.053-.48.199-2.037-.534-3.501-2.207-4.395-.148-.078-.328-.126-.485-.195 3.75-.331 7.575-.066 11.335.751-.08-.125-.152-.254-.233-.375-4.255-1.203-8.669-1.476-12.979-.92-1.223-.21-2.638-.249-4.295-.073a91.88 91.88 0 0 1-1.166.102 6.127 6.127 0 0 0-2.037.555 4.288 4.288 0 0 0-.422.217c-.187.322-.378.574-.583.753a3.068 3.068 0 0 1-.723.467c-.093.045-.502.189-1.233.429a6.09 6.09 0 0 0-.753.298 3.76 3.76 0 0 0-.635.388 31.331 31.331 0 0 0-1.971 1.8 33.583 33.583 0 0 0-8.192 7.232c.001.078.009.157.01.235a35.66 35.66 0 0 1 6.641-5.793c-.178.212-.36.423-.529.637-3.049 3.869-4.038 7.146-3.854 9.885a.759.759 0 0 0-.402.146 1.373 1.373 0 0 1-.433.23 1.146 1.146 0 0 1-.191.029c-.031.003-.039.003-.047.003.015 0 .019-.003-.053-.003-.168 0 .051-.039-.112-.008-.031.008-.06.011-.091.02.111.332.239.652.362.977.373-.12.744-.24 1.102-.344.099.547.243 1.072.429 1.573.4 1.07 1.013 1.862 1.845 2.382.044.062.115.104.167.161a23.398 23.398 0 0 1-1.839-.413c.056.087.106.176.16.261.689.21 1.381.396 2.085.537.785.604 1.928.909 3.461.897.819-.007 1.683-.134 2.571-.335zm-5.967-6.9c-.146-1.455.066-3.046 1.042-5.013a20.133 20.133 0 0 1 1.695-2.78 14.017 14.017 0 0 1 4.684-3.587c.415-.2.886-.389 1.41-.571 1.572-.531 2.979-.625 4.221-.288.921.255 1.772.756 2.558 1.507-.011.098-.011.198.003.29-.01.114-.077.215-.197.3-.004.06-.032.155-.083.292-.011.087-.016.174-.027.259-.037.41.038.723.236.94.199.215.537.322 1.021.314l-.07.698c-.027.258-.083.477-.122.715-.587.196-1.203.399-1.848.613-3.67 1.202-12.896 5.572-13.689 5.921l-.75.356c-.033.015-.056.021-.084.034zm1.346 4.472c-.304-.491-.534-.825-.692-1-.167-.795-.334-1.625-.516-2.497-.014-.074-.023-.153-.036-.23 2.233-1.196 8.203-3.768 10.732-4.635 2.457-.842 3.711-1.087 5.108-1.429-.052.132-.088.286-.147.409-.55 1.122-1.47 2.193-2.756 3.208-.077.121-.204.315-.385.581-.181.268-.277.465-.288.594-.015.132.021.235.102.308.159.174.384.237.687.191.299-.046.669-.172 1.108-.382a7.58 7.58 0 0 0 .851-.47c.248-.16.477-.31.692-.453.208-.145.382-.224.515-.249-.739.796-1.267 1.59-1.587 2.381-.466.5-1.195 1.109-2.188 1.836-.993.72-1.687 1.288-2.077 1.696-.397.247-.861.493-1.392.75-1.293.616-2.483.998-3.565 1.138-1.079.146-1.956.028-2.619-.347-.578-.18-1.097-.648-1.547-1.4z"/></svg>