<svg xmlns="http://www.w3.org/2000/svg" width="22" height="22" viewBox="0 0 22 22"><path fill="#424242" d="M20.998 10.958a10.872 10.872 0 0 0-.044-.87c-.01-.1-.022-.2-.035-.3a9.08 9.08 0 0 0-.091-.595 9.135 9.135 0 0 0-.07-.36 10.158 10.158 0 0 0-.134-.52c-.034-.123-.064-.247-.104-.369l-.01-.035c-.084-.258-.178-.51-.28-.757-.041-.099-.09-.192-.134-.289a9.825 9.825 0 0 0-.254-.527c-.054-.102-.113-.201-.17-.301a10.178 10.178 0 0 0-.294-.483c-.06-.091-.12-.182-.183-.271a9.718 9.718 0 0 0-.366-.489c-.057-.071-.111-.145-.17-.214a10.126 10.126 0 0 0-.558-.614l-.036-.039a10.102 10.102 0 0 0-.651-.592c-.072-.06-.147-.116-.221-.174a9.59 9.59 0 0 0-1.222-.826c-.106-.061-.212-.123-.32-.18a10.62 10.62 0 0 0-.527-.254c-.105-.048-.21-.099-.318-.144-.242-.1-.489-.19-.741-.271-.113-.037-.229-.066-.345-.099a9.528 9.528 0 0 0-.892-.21 9.676 9.676 0 0 0-.591-.09c-.104-.013-.208-.028-.313-.038C11.62 1.019 11.313 1 11 1s-.62.019-.926.047c-.103.009-.207.024-.31.037-.2.024-.397.054-.594.09-.118.023-.237.046-.355.073-.182.04-.362.088-.541.139-.113.032-.227.061-.338.096-.261.084-.518.178-.769.282-.095.039-.186.085-.278.127a9.78 9.78 0 0 0-.545.263c-.104.055-.207.115-.31.174a9.663 9.663 0 0 0-1.239.839c-.068.054-.14.106-.206.162-.228.191-.449.389-.658.598l-.015.016a9.75 9.75 0 0 0-.58.638c-.055.066-.106.135-.16.203a10.22 10.22 0 0 0-.553.764c-.104.16-.203.326-.299.493-.055.097-.113.193-.166.293a9.737 9.737 0 0 0-.258.535c-.043.095-.09.186-.13.282-.103.248-.197.5-.28.758l-.01.036c-.04.122-.07.245-.104.368a9.04 9.04 0 0 0-.135.521c-.026.119-.048.239-.07.358a9.851 9.851 0 0 0-.091.6c-.012.098-.025.196-.034.294-.026.294-.044.591-.045.892L1 11v.004c0 .316.019.627.047.936.009.09.022.18.033.27a9.717 9.717 0 0 0 .305 1.511c.031.109.059.221.093.33.086.266.181.527.287.783.041.098.089.193.133.291.079.174.16.348.25.518.054.103.111.203.169.304.094.165.191.327.294.485.058.088.115.177.176.264a9.6 9.6 0 0 0 .394.526c.046.059.09.12.139.177.191.23.393.454.604.666l.055.051c.191.188.391.369.595.541.083.069.169.134.255.201.098.077.192.158.294.232.05.036.102.066.151.101a10.927 10.927 0 0 0 .757.479c.113.064.224.128.338.188.159.083.323.16.487.235.106.048.212.101.319.146.258.107.522.204.791.29.101.032.203.056.305.085.188.053.378.104.57.146.114.025.229.046.346.067.195.036.393.066.593.09.102.013.203.026.306.036.302.028.605.047.914.047s.612-.019.914-.046c.102-.01.203-.023.306-.036.199-.024.397-.055.594-.091.114-.021.229-.042.344-.067.194-.042.384-.094.573-.147.101-.028.202-.052.302-.083.27-.086.534-.183.793-.291.105-.044.208-.095.313-.143.167-.076.334-.154.496-.239.111-.059.221-.122.33-.185a10.36 10.36 0 0 0 .758-.479c.052-.036.105-.067.156-.104.104-.075.199-.158.3-.237.083-.065.168-.128.248-.196.203-.17.399-.349.589-.536.021-.02.043-.038.063-.058.21-.21.409-.432.6-.661.054-.064.103-.131.154-.197a8.71 8.71 0 0 0 .564-.786c.097-.15.189-.303.278-.458.063-.109.125-.217.183-.328.082-.156.156-.316.229-.477.05-.11.104-.218.151-.33.104-.251.197-.507.28-.768.039-.12.069-.242.104-.363a9.59 9.59 0 0 0 .205-.878c.035-.196.065-.394.09-.593.013-.098.026-.194.036-.292.028-.306.046-.614.046-.926L21 11l-.002-.042zm-7.256-3.416h-.134c-.328 0-.652-.009-.978.002-.446.016-.778.186-.792.744-.013.407-.017 1.344-.017 1.344h1.865l-.246 1.9h-1.607v4.746H9.867v-4.753h-1.61V9.633h1.62v-.142c-.001-.381-.009-.761.001-1.141.005-.241.017-.488.059-.726.101-.576.366-1.066.851-1.414.421-.302.904-.426 1.415-.436.334-.009.667.009 1.001.022.183.009.365.034.539.051v1.695z"/></svg>