<svg xmlns="http://www.w3.org/2000/svg" width="123.478" height="52.281" viewBox="0 0 123.478 52.281"><path d="M0 47.476V21.018h3.609v13.016l10.635-13.016h3.765L7.72 33.639l12.122 13.837h-4.733L3.609 34.07v13.406H0zm21.703 0V21.018h3.725v11.126h12.247V21.018h3.729v26.458h-3.729V34.929H25.428v12.547h-3.725zm30.743.652c-1.845 0-4.201-.375-7.069-1.123v-3.732c3.089 1.383 5.63 2.074 7.617 2.074 1.536 0 2.767-.389 3.704-1.168.928-.777 1.396-1.804 1.396-3.07 0-1.038-.309-1.918-.919-2.645-.613-.729-1.746-1.538-3.393-2.43l-1.893-1.055c-2.344-1.287-3.992-2.496-4.953-3.635-.959-1.138-1.44-2.461-1.44-3.977 0-2.033.77-3.711 2.303-5.025 1.534-1.318 3.493-1.977 5.864-1.977 2.119 0 4.353.336 6.704 1.008v3.433c-2.893-1.104-5.05-1.657-6.47-1.657-1.344 0-2.457.348-3.338 1.043-.873.695-1.315 1.57-1.315 2.624 0 .881.326 1.661.968 2.34.645.679 1.817 1.489 3.524 2.429l1.97 1.074c2.377 1.298 4.031 2.523 4.973 3.677.942 1.157 1.41 2.545 1.41 4.162 0 2.303-.883 4.146-2.644 5.539-1.761 1.394-4.096 2.091-6.999 2.091z" fill="#FFF"/><g fill="#FFF"><path d="M99.138 31.431c-.335.221-.725.429-1.162.642-.601.286-1.105.46-1.514.522-.414.063-.721-.024-.938-.26-.109-.1-.158-.242-.139-.422.017-.176.147-.446.396-.811.246-.363.42-.629.525-.794 1.755-1.386 3.012-2.849 3.764-4.382.079-.168.129-.379.199-.559-1.908.467-3.62.803-6.976 1.952-3.453 1.185-11.606 4.696-14.657 6.33.019.106.031.212.051.313.247 1.191.479 2.326.704 3.41.216.238.53.695.945 1.365.616 1.027 1.322 1.667 2.11 1.914.907.512 2.105.672 3.578.475 1.479-.193 3.103-.715 4.869-1.556.725-.35 1.357-.687 1.9-1.022.532-.558 1.479-1.334 2.835-2.316 1.356-.994 2.353-1.824 2.989-2.508.438-1.08 1.158-2.164 2.167-3.252-.18.033-.418.142-.702.338-.293.198-.606.403-.944.621z"/><path d="M99.138 31.431c-.335.221-.725.429-1.162.642-.601.286-1.105.46-1.514.522-.414.063-.721-.024-.938-.26-.109-.1-.158-.242-.139-.422.017-.176.147-.446.396-.811.246-.363.42-.629.525-.794 1.755-1.386 3.012-2.849 3.764-4.382.079-.168.129-.379.199-.559-1.908.467-3.62.803-6.976 1.952-3.453 1.185-11.606 4.696-14.657 6.33.019.106.031.212.051.313.247 1.191.479 2.326.704 3.41.216.238.53.695.945 1.365.616 1.027 1.322 1.667 2.11 1.914.907.512 2.105.672 3.578.475 1.479-.193 3.103-.715 4.869-1.556.725-.35 1.357-.687 1.9-1.022.532-.558 1.479-1.334 2.835-2.316 1.356-.994 2.353-1.824 2.989-2.508.438-1.08 1.158-2.164 2.167-3.252-.18.033-.418.142-.702.338-.293.198-.606.403-.944.621z"/><path d="M122.635 20.559c-3.132.542-6.793.833-11.863 2.136-1.673.43-3.266.721-4.988 1.105-.643 1.604-1.596 3.125-2.866 4.553-.5 1.088-.984 2.182-1.452 3.279-.701 1.274-1.765 2.476-3.202 3.6-.628.926-1.528 1.83-2.68 2.711a20.688 20.688 0 0 1-3.674 2.253 29.15 29.15 0 0 1-2.443 1.033c8.684-.663 17.825-3.368 24.112-7.756.262-.171.502-.335.751-.505 2.033-1.105 6.639-5.283 8.995-9.646a26.28 26.28 0 0 0-1.06-5.039 27.3 27.3 0 0 1 .584 2.233l-.214.043z"/><path d="M122.635 20.559c-3.132.542-6.793.833-11.863 2.136-1.673.43-3.266.721-4.988 1.105-.643 1.604-1.596 3.125-2.866 4.553-.5 1.088-.984 2.182-1.452 3.279-.701 1.274-1.765 2.476-3.202 3.6-.628.926-1.528 1.83-2.68 2.711a20.688 20.688 0 0 1-3.674 2.253 29.15 29.15 0 0 1-2.443 1.033c8.684-.663 17.825-3.368 24.112-7.756.262-.171.502-.335.751-.505 2.033-1.105 6.639-5.283 8.995-9.646a26.28 26.28 0 0 0-1.06-5.039 27.3 27.3 0 0 1 .584 2.233l-.214.043zm-23.234-1.026c.015-.117.021-.235.036-.354.069-.188.107-.318.114-.398.162-.116.254-.255.269-.41a1.455 1.455 0 0 1-.004-.396c-1.072-1.026-2.234-1.711-3.493-2.058-1.697-.46-3.619-.331-5.765.393-.716.25-1.358.508-1.927.781a19.14 19.14 0 0 0-6.395 4.898 27.294 27.294 0 0 0-2.316 3.797c-1.334 2.686-1.624 4.859-1.425 6.846.042-.018.071-.026.114-.045l1.025-.487c1.083-.476 13.684-6.445 18.695-8.087.881-.293 1.722-.569 2.523-.836.053-.325.13-.623.167-.977l.096-.953c-.661.01-1.123-.136-1.396-.43-.268-.296-.37-.724-.318-1.284z"/><path d="M99.401 19.533c.015-.117.021-.235.036-.354.069-.188.107-.318.114-.398.162-.116.254-.255.269-.41a1.455 1.455 0 0 1-.004-.396c-1.072-1.026-2.234-1.711-3.493-2.058-1.697-.46-3.619-.331-5.765.393-.716.25-1.358.508-1.927.781a19.14 19.14 0 0 0-6.395 4.898 27.294 27.294 0 0 0-2.316 3.797c-1.334 2.686-1.624 4.859-1.425 6.846.042-.018.071-.026.114-.045l1.025-.487c1.083-.476 13.684-6.445 18.695-8.087.881-.293 1.722-.569 2.523-.836.053-.325.13-.623.167-.977l.096-.953c-.661.01-1.123-.136-1.396-.43-.268-.296-.37-.724-.318-1.284z"/><path d="M123.324 23.325c.072.712.106 1.42.125 2.129-1.726 2.271-2.966 3.694-4.741 5.259-1.861 1.643-3.904 3.084-6.043 4.34a19.678 19.678 0 0 1-3.227 1.515c-.96.349-1.782 1.161-2.74 1.548-1.208.478-2.416.834-3.654 1.242a55.035 55.035 0 0 1-7.597 1.917 51.517 51.517 0 0 1-8.801.782c-1.213.273-2.392.449-3.515.459-2.094.016-3.654-.402-4.727-1.226a30.327 30.327 0 0 1-2.847-.733c-.072-.116-.142-.238-.219-.357.81.217 1.644.406 2.511.564-.068-.078-.164-.136-.227-.219-1.134-.711-1.973-1.794-2.519-3.255-.256-.683-.451-1.4-.586-2.147-.488.142-.996.305-1.504.469-.168-.443-.344-.879-.495-1.332.043-.012.082-.018.125-.027.221-.043-.079.01.151.01.1 0 .094.004.073.004.011 0 .023 0 .064-.004.092-.004.171-.02.262-.039.175-.051.353-.143.591-.315.192-.138.356-.183.548-.2-.251-3.74 1.102-8.216 5.265-13.5.23-.292.479-.58.723-.869a48.7 48.7 0 0 0-9.069 7.912c-.003-.107-.013-.216-.015-.321a45.889 45.889 0 0 1 11.188-9.877 43.288 43.288 0 0 1 2.692-2.459 4.91 4.91 0 0 1 .866-.528 8.28 8.28 0 0 1 1.03-.408c.996-.326 1.556-.523 1.683-.584.376-.181.709-.391.986-.639.28-.244.542-.588.798-1.027.129-.082.321-.18.571-.303a8.415 8.415 0 0 1 2.782-.758 82.998 82.998 0 0 0 1.592-.139c2.264-.238 4.196-.186 5.865.101 5.889-.759 11.915-.387 17.728 1.257.11.165.208.342.318.512-5.137-1.116-10.357-1.477-15.48-1.025.213.094.46.16.662.266 2.283 1.221 3.285 3.221 3.013 6.002-.027.24-.045.459-.071.657-.02.198-.142.663-.361 1.394l-.564 1.943c2.711-.887 4.753-1.549 6.205-2.026 1.296-.425 2.121-.698 2.612-.856.491-.164.191.011 1.193-.475 1.437-.439 3.039-.844 4.969-1.246l.156-.031c.204.533.421 1.056.593 1.605-4.338-13.768-19.014-21.412-32.779-17.07-13.763 4.341-21.41 19.017-17.065 32.784 4.342 13.764 19.019 21.402 32.783 17.064 12.088-3.813 19.452-15.601 18.123-27.74zm-50.339-6.617c.904-1.186 2.224-2.746 4.134-4.611 1.553-1.518 5.948-5.022 9.484-6.645 1.736-.799 3.555-1.506 5.417-1.924 1.046-.236 2.107-.277 3.167-.445.781-.123 1.368-.204 2.193-.185 1 .026 1.571-.108 2.387-.11 1.139-.135 4.072-.398 8.915.537.806.156 1.537.333 2.233.511.328.2.653.399.974.613-1.749-.464-3.644-.819-6.016-1.001-5.297-.383-11.35.105-16.189 1.741l-1.278.394c-3.947 1.381-6.791 3.24-10.054 6.03-1.151.991-2.016 1.714-2.397 2.13a57.843 57.843 0 0 0-3.33 3.992c.117-.345.229-.688.36-1.027zm48.511 19.385c-2.749 3.485-5.868 6.717-9.872 8.658-.313.164-.622.328-.929.502-.309.168-.613.35-.917.553-1.659 1.121-3.646 1.668-5.446 2.281-4.373 1.451-9.613 1.932-13.862 1.632-1.507-.108-2.497-.306-3.071-.448a26.856 26.856 0 0 1-4.123-1.119c-.418-.26-.811-.553-1.212-.844 1.433.598 3.707 1.399 6.981 1.798 4.169.495 8.144.188 11.823-.722l.868-.344c3.678-.916 5.545-1.557 9.744-3.728l.603-.399c3.597-2.18 6.88-4.978 9.445-8.255l.254-.329c-.094.254-.178.512-.286.764z"/><path d="M123.324 23.325c.072.712.106 1.42.125 2.129-1.726 2.271-2.966 3.694-4.741 5.259-1.861 1.643-3.904 3.084-6.043 4.34a19.678 19.678 0 0 1-3.227 1.515c-.96.349-1.782 1.161-2.74 1.548-1.208.478-2.416.834-3.654 1.242a55.035 55.035 0 0 1-7.597 1.917 51.517 51.517 0 0 1-8.801.782c-1.213.273-2.392.449-3.515.459-2.094.016-3.654-.402-4.727-1.226a30.327 30.327 0 0 1-2.847-.733c-.072-.116-.142-.238-.219-.357.81.217 1.644.406 2.511.564-.068-.078-.164-.136-.227-.219-1.134-.711-1.973-1.794-2.519-3.255-.256-.683-.451-1.4-.586-2.147-.488.142-.996.305-1.504.469-.168-.443-.344-.879-.495-1.332.043-.012.082-.018.125-.027.221-.043-.079.01.151.01.1 0 .094.004.073.004.011 0 .023 0 .064-.004.092-.004.171-.02.262-.039.175-.051.353-.143.591-.315.192-.138.356-.183.548-.2-.251-3.74 1.102-8.216 5.265-13.5.23-.292.479-.58.723-.869a48.7 48.7 0 0 0-9.069 7.912c-.003-.107-.013-.216-.015-.321a45.889 45.889 0 0 1 11.188-9.877 43.288 43.288 0 0 1 2.692-2.459 4.91 4.91 0 0 1 .866-.528 8.28 8.28 0 0 1 1.03-.408c.996-.326 1.556-.523 1.683-.584.376-.181.709-.391.986-.639.28-.244.542-.588.798-1.027.129-.082.321-.18.571-.303a8.415 8.415 0 0 1 2.782-.758 82.998 82.998 0 0 0 1.592-.139c2.264-.238 4.196-.186 5.865.101 5.889-.759 11.915-.387 17.728 1.257.11.165.208.342.318.512-5.137-1.116-10.357-1.477-15.48-1.025.213.094.46.16.662.266 2.283 1.221 3.285 3.221 3.013 6.002-.027.24-.045.459-.071.657-.02.198-.142.663-.361 1.394l-.564 1.943c2.711-.887 4.753-1.549 6.205-2.026 1.296-.425 2.121-.698 2.612-.856.491-.164.191.011 1.193-.475 1.437-.439 3.039-.844 4.969-1.246l.156-.031c.204.533.421 1.056.593 1.605-4.338-13.768-19.014-21.412-32.779-17.07-13.763 4.341-21.41 19.017-17.065 32.784 4.342 13.764 19.019 21.402 32.783 17.064 12.088-3.813 19.452-15.601 18.123-27.74zm-50.339-6.617c.904-1.186 2.224-2.746 4.134-4.611 1.553-1.518 5.948-5.022 9.484-6.645 1.736-.799 3.555-1.506 5.417-1.924 1.046-.236 2.107-.277 3.167-.445.781-.123 1.368-.204 2.193-.185 1 .026 1.571-.108 2.387-.11 1.139-.135 4.072-.398 8.915.537.806.156 1.537.333 2.233.511.328.2.653.399.974.613-1.749-.464-3.644-.819-6.016-1.001-5.297-.383-11.35.105-16.189 1.741l-1.278.394c-3.947 1.381-6.791 3.24-10.054 6.03-1.151.991-2.016 1.714-2.397 2.13a57.843 57.843 0 0 0-3.33 3.992c.117-.345.229-.688.36-1.027zm48.511 19.385c-2.749 3.485-5.868 6.717-9.872 8.658-.313.164-.622.328-.929.502-.309.168-.613.35-.917.553-1.659 1.121-3.646 1.668-5.446 2.281-4.373 1.451-9.613 1.932-13.862 1.632-1.507-.108-2.497-.306-3.071-.448a26.856 26.856 0 0 1-4.123-1.119c-.418-.26-.811-.553-1.212-.844 1.433.598 3.707 1.399 6.981 1.798 4.169.495 8.144.188 11.823-.722l.868-.344c3.678-.916 5.545-1.557 9.744-3.728l.603-.399c3.597-2.18 6.88-4.978 9.445-8.255l.254-.329c-.094.254-.178.512-.286.764zm1.828-12.771v.003z"/></g></svg>