<svg xmlns="http://www.w3.org/2000/svg" xmlns:xlink="http://www.w3.org/1999/xlink" viewBox="0 0 528 120"><defs><radialGradient id="radial-gradient" cx="271.5" cy="821.51" r="45.84" gradientTransform="translate(69.18 -686.84) scale(0.91)" gradientUnits="userSpaceOnUse"><stop offset="0" stop-color="#3c3c3c"/><stop offset="1" stop-color="#282828"/></radialGradient></defs><rect width="528" height="120" style="fill:#fffbf5"/><g id="爐網_t"><text transform="translate(24 74.44)" style="font-size:48px;fill:#963b3b;font-family:HanWangHeiHeavy;letter-spacing:2px;opacity: 0;">爐＆網</text><path d="M27,48.66q0-1.59,1.36-1.27a12.27,12.27,0,0,1,1.78.42,1.63,1.63,0,0,1,1.36,1.78,115.38,115.38,0,0,1-1,11.77q-0.24,1.73-1.69,1l-1.41-.75a2.08,2.08,0,0,1-1.22-2.2Q26.72,54.19,27,48.66Zm5.48-8.77a1.25,1.25,0,0,1,1.31-1.5h2.34a1.26,1.26,0,0,1,1.45,1.41v4.69q0,1.5.66,0.52,0.42-.94,1.83.14,1.27,0.89,1.27,0t1.41-1h6.42a1,1,0,0,0,1.17-1.12V39.84a1.26,1.26,0,0,1,1.41-1.45h2.39q1.41,0,1.45.38t1.17,0.42h8.53a1.26,1.26,0,0,1,1.45,1.41v1a1.26,1.26,0,0,1-1.41,1.45H56.81q-1.12,0-1.17.47t1.13,0.52H67.88a1.26,1.26,0,0,1,1.45,1.41v3.42a1.26,1.26,0,0,1-1.41,1.45h-2q-1.45,0-1.45-1.08a1,1,0,0,0-1.13-1.17h-6.7q-1.17,0-1.17.56t1.41,0.52Q59,49,61.08,48.7A1.53,1.53,0,0,1,63,50.06q0.33,1.83-1.31,2.06l-3.7.47q-1.5.14-.28,0.52a4.87,4.87,0,0,1,1.08.14q3.61,0.33,4.83-.61l0.33-.8q0.19-.66,1.83.14l0.94,0.47q1.69,0.8,1.08,2.3-0.94,2-4.5,1.78H58a22,22,0,0,1-4.12-.37,3.52,3.52,0,0,1-3-2.06q0.09-1-1.83-.52-1.78.23-2.06-1.17l-0.09-.61Q46.59,50.06,48.09,50a7.15,7.15,0,0,1,1.41-.14q1.22-.19,1.22-0.89t-1.12-.84H47.2A1,1,0,0,0,46,49.22V64a46.86,46.86,0,0,1-3.28,16.13,1.28,1.28,0,0,1-2.06.7L39.33,80a1.73,1.73,0,0,1-1-2.25q0.8-2.25,1.41-4.55,0.19-1.12-.84.09l-0.42.56q-1,1.45-1.92,0l-0.61-1q-0.75-1.27-1.17.19a41.59,41.59,0,0,1-3,7.13,1.38,1.38,0,0,1-2.25.52L28,79.5q-1.5-1.12-.75-2.48A48.57,48.57,0,0,0,32.53,54.8V39.89Zm8.86,10.73q0-1.31-1.17,0a15.45,15.45,0,0,1-1.41,1.5,3.09,3.09,0,0,0-1.22,2.16,74.22,74.22,0,0,1-.84,10.36,2.76,2.76,0,0,0,1.08,2.48l1.59,1.59q1.13,1.22,1.36-.19a61.3,61.3,0,0,0,.61-6.84V50.63Zm4.69,21.66a1.26,1.26,0,0,1,1.41-1.45H67.13a1.26,1.26,0,0,1,1.45,1.41v3.66q0,1.17.61,1.17t0.66,1.41v1.22a1.26,1.26,0,0,1-1.41,1.45H45.8a1.26,1.26,0,0,1-1.45-1.41V78.52q0-1.45.84-1.45a0.91,0.91,0,0,0,.89-1.12V72.28ZM47.2,58.88a1.25,1.25,0,0,1,1.31-1.5H66.75a1.26,1.26,0,0,1,1.45,1.41v9.47A1.26,1.26,0,0,1,66.8,69.7H48.66A1.26,1.26,0,0,1,47.2,68.3V58.88Zm5.06,17.06q0-1.22-.75-1.22t-0.84,1.13q0,1.22.75,1.22T52.27,75.94Zm3-14.39q0-.7-1-0.7h-1q-1.17,0-1.17.56t1.13,0.66h0.94Q55.26,62.06,55.27,61.55Zm0,4.08q0-.61-1.12-0.61H53.2Q52,65,52,65.58t1.13,0.61h0.94Q55.26,66.19,55.27,65.63Zm2.63,10.31q0-1.22-.61-1.22t-0.75,1.13q0,1.22.66,1.22T57.89,75.94Zm5.44-14.39q0-.7-1-0.7H61.08q-1.17,0-1.17.56T61,62.06h1.13Q63.33,62.06,63.33,61.55Zm0,4.08q0-.61-1.12-0.61H61.08q-1.17,0-1.17.56T61,66.19h1.13Q63.33,66.19,63.33,65.63Zm0.56,10.31q0-1.22-.8-1.22a0.91,0.91,0,0,0-.89,1.13q0,1.22.8,1.22A0.91,0.91,0,0,0,63.89,75.94Z" style="fill:#963b3b"/><path d="M93.52,43a10.62,10.62,0,0,1,5,.19,7.29,7.29,0,0,1,4.92,4.13q1.64,4.73-3.47,9.33-1.17,1,.09,2.34,2,2.2,4.27,4.59,1.17,1.17,1.59-.23a47.07,47.07,0,0,0,.7-7.59A1.26,1.26,0,0,1,108,54.33h2.3a1.26,1.26,0,0,1,1.45,1.41,40.55,40.55,0,0,1-2.11,12.19q-0.42,1.13.89,2.53l4.5,4.88q1.22,1.22-.23,1.22h-4.12a4.05,4.05,0,0,1-2.81-1.41l-0.66-.66a1.75,1.75,0,0,0-2.53-.09,13.76,13.76,0,0,1-10.5,2.72,13.34,13.34,0,0,1-6.89-2.91,8.48,8.48,0,0,1-2.58-3.84Q82.32,63,89.87,57.61q1.13-.89-0.09-2.3Q87,51.56,87.81,48A7.13,7.13,0,0,1,93.52,43ZM93.06,61.55l-0.8.61q-4.41,3.42-2.2,7.08a6.28,6.28,0,0,0,3.52,2.67q3.84,1.36,7.87-1.36,1.17-1-.09-2.34L95.73,62A1.92,1.92,0,0,0,93.06,61.55Zm3.7-13.64q-2-.75-3.75,1.17-0.56,1.36,1.5,3.7,0.89,1.08,2.34-.09Q100.27,49.27,96.76,47.91Z" style="fill:#963b3b"/><path d="M128.6,67.41a1.14,1.14,0,0,1,1.59-1.08l1.41,0.38q1.83,0.42,1.64,1.83-0.61,3.94-1.41,8a1.17,1.17,0,0,1-1.73.94l-1.55-.42a1.47,1.47,0,0,1-1.22-1.83Q128.22,70.73,128.6,67.41Zm5.16-27.33a1.37,1.37,0,0,1,2-.94,18.23,18.23,0,0,1,2,.89,1.34,1.34,0,0,1,.66,2.06q-1.36,2.72-3.09,5.58-0.7,1.13-.09,1.69t1.45-1q0.52-1.17,1.17-2.39a1.55,1.55,0,0,1,2.3-.89,11.83,11.83,0,0,1,1.59.7q1.83,0.8,1.08,2.2l-2.86,5.2q-0.75,1.22.52,0.84l0.61-.19a1.46,1.46,0,0,1,2,1q0.75,2.2,1.5,5.2,0.42,1.13.42,0.09V40.83a1.26,1.26,0,0,1,1.41-1.45H169a1.26,1.26,0,0,1,1.45,1.41V75.23A7.65,7.65,0,0,1,169.33,79a5.2,5.2,0,0,1-3.89,2.16h-2.81a1.6,1.6,0,0,1-1.73-1.45l-0.47-2.3q-0.38-1.83,1.08-1.64a11.34,11.34,0,0,0,3.42,0,2.49,2.49,0,0,0,.56-2V45.33a1,1,0,0,0-1.12-1.17h-13.5a1,1,0,0,0-1.17,1.13V80.06a1.26,1.26,0,0,1-1.41,1.45h-1.92a1.26,1.26,0,0,1-1.45-1.41V75.8q0-1.12-1.41-.7l-1.41.47q-1.64.52-1.83-1-0.42-3.14-1-6.28a1.43,1.43,0,0,1,1.08-1.87l1.41-.37a1.25,1.25,0,0,1,1.83,1q0.61,2.25,1,4.5,0.33,1.13.33,0.09V63.94q0-1.12-1.41-.7l-1.41.47q-1.69.56-1.83-.56t-0.94-.89a1.22,1.22,0,0,0-.8,1.36V80.25a1.26,1.26,0,0,1-1.41,1.45h-1.87a1.26,1.26,0,0,1-1.45-1.41V64.73q0-1.12-1.41-.94l-2.34.33a1.45,1.45,0,0,1-1.92-1.27l-0.42-2.39a1.21,1.21,0,0,1,1.17-1.59l0.7,0a3,3,0,0,0,2-1.69,15.12,15.12,0,0,1,.89-1.45,1.64,1.64,0,0,0-.52-2.34l-3.19-2.53q-1.69-1.36-.52-2.86l0.47-.56q1.41-1.64,1.64-1.45t0.89-1Q132.63,42.52,133.75,40.08Zm5.06,16.59q-0.38-1.08-1.08,0t0.66,1Q139,57.66,138.82,56.67Zm20.44-10.22a1.18,1.18,0,0,1,1.59-1.17L163,45.75a1.35,1.35,0,0,1,1,1.88,18.4,18.4,0,0,1-.89,2.72q-0.47,1.22.52,1.22T164.74,53v1.59A1.26,1.26,0,0,1,163.33,56h-2.06a1,1,0,0,0-1.17,1.13v1.13a1,1,0,0,0,1.13,1.17h2.06a1.26,1.26,0,0,1,1.45,1.41v1.59a1.26,1.26,0,0,1-1.41,1.45h-5.06A1,1,0,0,0,157.1,65v2q-0.38,2.48,1.92,2.53a12.3,12.3,0,0,0,3.23-.09q1.69-.47,1.69.94v1.83A1.77,1.77,0,0,1,162.53,74l-1.12.19q-5.44.28-7.5-.89a4.62,4.62,0,0,1-1.59-3.19q-0.14-2.53-.09-5.06,0-1.17-.8-1.17t-0.89-1.41V60.89a1.26,1.26,0,0,1,1.41-1.45h1.92A1,1,0,0,0,155,58.31V57.19A1,1,0,0,0,153.91,56H152a1.26,1.26,0,0,1-1.45-1.41V53q0-1.45,1-1.45,2,0.47.19-1.87-1.08-1.73.47-2.72l1.08-.66a1.66,1.66,0,0,1,2.48.38,10.68,10.68,0,0,1,1.13,1.92q0.7,1.45-.37,2.06-1.41.89,0,.89a2,2,0,0,0,1.64-1.41A18.85,18.85,0,0,0,159.25,46.45Z" style="fill:#963b3b"/></g><rect width="3" height="120" style="fill:#e2695b"/><rect x="384" width="120" height="120" style="fill:#fffbf5"/><g id="網"><path d="M496,22V98H392V22H496Zm-4.19,8.82a3.6,3.6,0,1,0-5.18-3,4.46,4.46,0,0,1-2.2,3.77,3.6,3.6,0,1,0,5.18,3A4.43,4.43,0,0,1,491.82,30.82Zm-0.61,14.41a3.6,3.6,0,1,0-5.18-3A4.39,4.39,0,0,1,483.84,46,3.6,3.6,0,1,0,489,49,4.39,4.39,0,0,1,491.21,45.23Zm-0.59,14.39a3.6,3.6,0,1,0-5.19-3,4.41,4.41,0,0,1-2.19,3.77,3.6,3.6,0,1,0,5.18,3A4.43,4.43,0,0,1,490.62,59.62ZM490,74a3.6,3.6,0,1,0-5.18-3,4.38,4.38,0,0,1-2.2,3.75,3.6,3.6,0,1,0,5.19,3A4.39,4.39,0,0,1,490,74Zm-0.59,14.39a3.6,3.6,0,1,0-5.19-3A4.41,4.41,0,0,1,482,89.17a3.6,3.6,0,1,0,5.18,3A4.43,4.43,0,0,1,489.42,88.42ZM484,30.82a3.6,3.6,0,1,0-5.18-3,4.42,4.42,0,0,1-2.2,3.77,3.6,3.6,0,1,0,5.19,3A4.42,4.42,0,0,1,484,30.82Zm-0.61,14.41a3.6,3.6,0,1,0-5.18-3A4.39,4.39,0,0,1,476,46a3.6,3.6,0,1,0,5.18,3A4.42,4.42,0,0,1,483.41,45.23Zm-0.59,14.39a3.6,3.6,0,1,0-5.18-3,4.42,4.42,0,0,1-2.2,3.77,3.6,3.6,0,1,0,5.18,3A4.43,4.43,0,0,1,482.81,59.62ZM482.22,74A3.6,3.6,0,1,0,477,71a4.39,4.39,0,0,1-2.19,3.75,3.6,3.6,0,1,0,5.18,3A4.37,4.37,0,0,1,482.22,74Zm-0.61,14.39a3.6,3.6,0,1,0-5.18-3,4.46,4.46,0,0,1-2.2,3.77,3.6,3.6,0,1,0,5.18,3A4.43,4.43,0,0,1,481.61,88.42Zm-5.41-57.6a3.6,3.6,0,1,0-5.18-3,4.4,4.4,0,0,1-2.2,3.77,3.6,3.6,0,1,0,5.2,3A4.41,4.41,0,0,1,476.21,30.82Zm-0.59,14.41a3.6,3.6,0,1,0-5.18-3,4.43,4.43,0,0,1-2.2,3.75,3.6,3.6,0,1,0,5.18,3A4.41,4.41,0,0,1,475.62,45.23ZM475,59.62a3.6,3.6,0,1,0-5.18-3,4.39,4.39,0,0,1-2.2,3.77,3.6,3.6,0,1,0,5.19,3A4.42,4.42,0,0,1,475,59.62ZM474.42,74a3.6,3.6,0,1,0-5.19-3A4.38,4.38,0,0,1,467,74.76a3.6,3.6,0,1,0,5.18,3A4.41,4.41,0,0,1,474.42,74Zm-0.61,14.39a3.6,3.6,0,1,0-5.18-3,4.42,4.42,0,0,1-2.2,3.77,3.6,3.6,0,1,0,5.19,3A4.41,4.41,0,0,1,473.81,88.42Zm-5.39-57.6a3.6,3.6,0,1,0-5.19-3A4.41,4.41,0,0,1,461,31.57a3.6,3.6,0,1,0,5.18,3A4.4,4.4,0,0,1,468.42,30.82Zm-0.61,14.41a3.6,3.6,0,1,0-5.18-3,4.44,4.44,0,0,1-2.2,3.75,3.61,3.61,0,1,0,5.19,3A4.39,4.39,0,0,1,467.81,45.23Zm-0.61,14.39a3.6,3.6,0,1,0-5.18-3,4.41,4.41,0,0,1-2.19,3.77,3.6,3.6,0,1,0,5.18,3A4.41,4.41,0,0,1,467.21,59.62ZM466.61,74a3.6,3.6,0,1,0-5.18-3,4.4,4.4,0,0,1-2.2,3.75,3.6,3.6,0,1,0,5.18,3A4.44,4.44,0,0,1,466.61,74ZM466,88.42a3.6,3.6,0,1,0-5.18-3,4.41,4.41,0,0,1-2.19,3.77,3.6,3.6,0,1,0,5.18,3A4.42,4.42,0,0,1,466,88.42Zm-5.39-57.6a3.6,3.6,0,1,0-5.19-3,4.41,4.41,0,0,1-2.19,3.77,3.6,3.6,0,1,0,5.18,3A4.43,4.43,0,0,1,460.62,30.82ZM460,45.23a3.6,3.6,0,1,0-5.18-3,4.37,4.37,0,0,1-2.2,3.75,3.61,3.61,0,1,0,5.19,3A4.39,4.39,0,0,1,460,45.23Zm-0.59,14.39a3.6,3.6,0,1,0-5.19-3A4.42,4.42,0,0,1,452,60.37a3.6,3.6,0,1,0,5.18,3A4.43,4.43,0,0,1,459.42,59.62ZM458.81,74a3.6,3.6,0,1,0-5.18-3,4.37,4.37,0,0,1-2.2,3.75,3.6,3.6,0,1,0,5.19,3A4.39,4.39,0,0,1,458.81,74Zm-0.59,14.39a3.6,3.6,0,1,0-5.19-3,4.42,4.42,0,0,1-2.19,3.77,3.6,3.6,0,1,0,5.18,3A4.43,4.43,0,0,1,458.22,88.42Zm-5.41-57.6a3.6,3.6,0,1,0-5.18-3,4.42,4.42,0,0,1-2.2,3.77,3.6,3.6,0,1,0,5.18,3A4.42,4.42,0,0,1,452.81,30.82Zm-0.59,14.41a3.6,3.6,0,1,0-5.19-3A4.39,4.39,0,0,1,444.84,46,3.6,3.6,0,1,0,450,49,4.37,4.37,0,0,1,452.22,45.23Zm-0.61,14.39a3.6,3.6,0,1,0-5.18-3,4.42,4.42,0,0,1-2.2,3.77,3.6,3.6,0,1,0,5.18,3A4.46,4.46,0,0,1,451.61,59.62ZM451,74a3.6,3.6,0,1,0-5.18-3,4.38,4.38,0,0,1-2.19,3.75,3.6,3.6,0,1,0,5.18,3A4.4,4.4,0,0,1,451,74Zm-0.59,14.39a3.6,3.6,0,1,0-5.18-3,4.46,4.46,0,0,1-2.2,3.77,3.6,3.6,0,1,0,5.18,3A4.43,4.43,0,0,1,450.41,88.42ZM445,30.82a3.6,3.6,0,1,0-5.18-3,4.41,4.41,0,0,1-2.19,3.77,3.6,3.6,0,1,0,5.18,3A4.42,4.42,0,0,1,445,30.82Zm-0.59,14.41a3.6,3.6,0,1,0-5.19-3A4.39,4.39,0,0,1,437,46a3.6,3.6,0,1,0,5.18,3A4.41,4.41,0,0,1,444.42,45.23Zm-0.61,14.39a3.6,3.6,0,1,0-5.18-3,4.42,4.42,0,0,1-2.2,3.77,3.6,3.6,0,1,0,5.19,3A4.41,4.41,0,0,1,443.81,59.62ZM443.22,74a3.6,3.6,0,1,0-5.2-3,4.39,4.39,0,0,1-2.19,3.75,3.6,3.6,0,1,0,5.18,3A4.41,4.41,0,0,1,443.22,74Zm-0.61,14.39a3.6,3.6,0,1,0-5.18-3,4.39,4.39,0,0,1-2.2,3.77,3.6,3.6,0,1,0,5.19,3A4.42,4.42,0,0,1,442.61,88.42Zm-5.4-57.6a3.6,3.6,0,1,0-5.18-3,4.41,4.41,0,0,1-2.19,3.77,3.6,3.6,0,1,0,5.18,3A4.44,4.44,0,0,1,437.21,30.82Zm-0.59,14.41a3.6,3.6,0,1,0-5.18-3,4.4,4.4,0,0,1-2.2,3.75,3.6,3.6,0,1,0,5.18,3A4.41,4.41,0,0,1,436.61,45.23ZM436,59.62a3.6,3.6,0,1,0-5.18-3,4.42,4.42,0,0,1-2.19,3.77,3.6,3.6,0,1,0,5.18,3A4.42,4.42,0,0,1,436,59.62ZM435.41,74a3.6,3.6,0,1,0-5.18-3,4.44,4.44,0,0,1-2.2,3.75,3.6,3.6,0,1,0,5.18,3A4.4,4.4,0,0,1,435.41,74Zm-0.61,14.39a3.6,3.6,0,1,0-5.18-3,4.42,4.42,0,0,1-2.19,3.77,3.6,3.6,0,1,0,5.18,3A4.41,4.41,0,0,1,434.81,88.42Zm-5.39-57.6a3.6,3.6,0,1,0-5.18-3,4.46,4.46,0,0,1-2.2,3.77,3.6,3.6,0,1,0,5.18,3A4.42,4.42,0,0,1,429.42,30.82Zm-0.61,14.41a3.6,3.6,0,1,0-5.18-3,4.37,4.37,0,0,1-2.2,3.75,3.61,3.61,0,1,0,5.19,3A4.39,4.39,0,0,1,428.81,45.23Zm-0.59,14.39a3.6,3.6,0,1,0-5.2-3,4.41,4.41,0,0,1-2.19,3.77,3.6,3.6,0,1,0,5.18,3A4.43,4.43,0,0,1,428.22,59.62ZM427.61,74a3.6,3.6,0,1,0-5.18-3,4.4,4.4,0,0,1-2.2,3.75,3.6,3.6,0,1,0,5.19,3A4.4,4.4,0,0,1,427.61,74ZM427,88.42a3.6,3.6,0,1,0-5.19-3,4.41,4.41,0,0,1-2.19,3.77,3.6,3.6,0,1,0,5.18,3A4.43,4.43,0,0,1,427,88.42Zm-5.4-57.6a3.6,3.6,0,1,0-5.18-3,4.46,4.46,0,0,1-2.2,3.77,3.6,3.6,0,1,0,5.19,3A4.42,4.42,0,0,1,421.61,30.82ZM421,45.23a3.6,3.6,0,1,0-5.18-3A4.39,4.39,0,0,1,413.64,46a3.6,3.6,0,1,0,5.18,3A4.39,4.39,0,0,1,421,45.23Zm-0.59,14.39a3.6,3.6,0,1,0-5.18-3,4.46,4.46,0,0,1-2.2,3.77,3.6,3.6,0,1,0,5.18,3A4.43,4.43,0,0,1,420.41,59.62ZM419.81,74a3.6,3.6,0,1,0-5.18-3,4.39,4.39,0,0,1-2.19,3.75,3.6,3.6,0,1,0,5.18,3A4.39,4.39,0,0,1,419.81,74Zm-0.59,14.39a3.6,3.6,0,1,0-5.18-3,4.42,4.42,0,0,1-2.2,3.77,3.6,3.6,0,1,0,5.18,3A4.43,4.43,0,0,1,419.21,88.42Zm-5.4-57.6a3.6,3.6,0,1,0-5.18-3,4.39,4.39,0,0,1-2.2,3.77,3.6,3.6,0,1,0,5.19,3A4.41,4.41,0,0,1,413.81,30.82Zm-0.59,14.41a3.6,3.6,0,1,0-5.2-3A4.39,4.39,0,0,1,405.84,46,3.6,3.6,0,1,0,411,49,4.41,4.41,0,0,1,413.22,45.23Zm-0.61,14.39a3.6,3.6,0,1,0-5.18-3,4.39,4.39,0,0,1-2.2,3.77,3.6,3.6,0,1,0,5.19,3A4.42,4.42,0,0,1,412.61,59.62ZM412,74a3.6,3.6,0,1,0-5.19-3,4.39,4.39,0,0,1-2.19,3.75,3.6,3.6,0,1,0,5.18,3A4.4,4.4,0,0,1,412,74Zm-0.61,14.39a3.6,3.6,0,1,0-5.18-3,4.43,4.43,0,0,1-2.2,3.77,3.6,3.6,0,1,0,5.19,3A4.41,4.41,0,0,1,411.41,88.42ZM406,30.82a3.6,3.6,0,1,0-5.19-3,4.41,4.41,0,0,1-2.19,3.77,3.6,3.6,0,1,0,5.18,3A4.4,4.4,0,0,1,406,30.82Zm-0.61,14.41a3.6,3.6,0,1,0-5.18-3A4.44,4.44,0,0,1,398,46a3.6,3.6,0,1,0,5.18,3A4.4,4.4,0,0,1,405.41,45.23Zm-0.61,14.39a3.6,3.6,0,1,0-5.18-3,4.41,4.41,0,0,1-2.19,3.77,3.6,3.6,0,1,0,5.18,3A4.42,4.42,0,0,1,404.81,59.62ZM404.21,74A3.6,3.6,0,1,0,399,71a4.43,4.43,0,0,1-2.2,3.75,3.6,3.6,0,1,0,5.18,3A4.44,4.44,0,0,1,404.21,74Zm-0.61,14.39a3.6,3.6,0,1,0-5.18-3,4.42,4.42,0,0,1-2.19,3.77,3.6,3.6,0,1,0,5.18,3A4.41,4.41,0,0,1,403.61,88.42Z" style="fill:#c6c6c6"/></g><rect x="256" width="120" height="120" style="fill:#fffbf5"/><g id="爐"><path d="M286.83,92.5c-14.57,0-17.61,0-18.75-1.71-0.69-1-1-2.79-1.17-10V80.52c-0.08-4.5-.08-10.91-0.08-20.52,0-13.33,0-20.67.21-25,0.18-3.81.53-5,1-5.8,1.14-1.71,4.18-1.71,18.75-1.71h58.33c14.58,0,17.61,0,18.75,1.71,0.69,1,1,2.79,1.17,10V39.4c0.08,4.5.08,10.93,0.08,20.59,0,13.33,0,20.68-.21,25-0.18,3.81-.54,5-1,5.8-1.14,1.71-4.17,1.71-18.75,1.71H286.83Z" style="opacity:0.85;fill:url(#radial-gradient)"/><path d="M366,39.17l-0.08,0c-0.13-7.13-.46-9.18-1.31-10.46-1.39-2.08-4.17-2.08-19.44-2.08H286.83c-15.28,0-18.05,0-19.44,2.08-0.65,1-1,2.41-1.18,6.23C266,39.3,266,46.71,266,60c0,9.71,0,16.27.08,20.8,0.13,7.13.46,9.18,1.31,10.46,1.39,2.08,4.17,2.08,19.44,2.08h58.33c15.28,0,18.05,0,19.44-2.08,0.65-1,1-2.41,1.18-6.23C366,80.69,366,73.29,366,60c0-9.7,0-16.27-.08-20.79ZM365,85c-0.18,3.81-.54,5-1,5.8-1.14,1.71-4.17,1.71-18.75,1.71H286.83c-14.57,0-17.61,0-18.75-1.71-0.69-1-1-2.79-1.17-10V80.52c-0.08-4.5-.08-10.91-0.08-20.52,0-13.33,0-20.67.21-25,0.18-3.81.53-5,1-5.8,1.14-1.71,4.18-1.71,18.75-1.71h58.33c14.58,0,17.61,0,18.75,1.71,0.69,1,1,2.79,1.17,10V39.4c0.08,4.5.08,10.93,0.08,20.59C365.17,73.33,365.17,80.67,365,85Z" style="stroke:#231815;stroke-miterlimit:10"/></g></svg>