      <svg xmlns="http://www.w3.org/2000/svg" viewBox="0 0 528 120"><rect width="528" height="120" style="fill:#fffbf5"/><g id="竹籤各種食材_t"><text transform="translate(24 45.44)" style="font-size:48px;fill:#963b3b;font-family:HanWangHeiHeavy;letter-spacing:2px;opacity: 0">竹籤+<tspan x="0" y="58">各種食材</tspan></text><path d="M489.2,47.66a1.15,1.15,0,0,1,1.73-.94l2.25,0.75q1.73,0.61,1.31,2.06l-0.7,2.39q-0.37,1.27.7,1.27h9a1.26,1.26,0,0,1,1.45,1.41v2.3a1.26,1.26,0,0,1-1.41,1.45h-3.8a1,1,0,0,0-1.17,1.13V88.25a1.26,1.26,0,0,1-1.41,1.45h-2.58a1.26,1.26,0,0,1-1.45-1.41V59.51q0-1.17-.7-1.17T491,59.75a59.83,59.83,0,0,1-3.09,6.56,1.37,1.37,0,0,1-2.25.42l-1.41-1a2,2,0,0,1-.75-2.58A73.08,73.08,0,0,0,489.2,47.66Zm19.64,0.61q0.38-1.69,1.78-1.22L513,47.8q1.83,0.56,1.45,2L513.81,52q-0.37,1.17.8,1.17h11.11a1.26,1.26,0,0,1,1.45,1.41v2.3a1.26,1.26,0,0,1-1.41,1.45h-3.23a1,1,0,0,0-1.17,1.13V83.94q0,4.41-3.75,5.44a16.33,16.33,0,0,1-7.41-.19A2.58,2.58,0,0,1,508.37,87L508,84.64q-0.23-1.45,1.17-1a12.56,12.56,0,0,0,5.86.47q0.84-.42.94-2.16V59.51a1,1,0,0,0-1.12-1.17h-2a1.84,1.84,0,0,0-1.69,1.41,57.38,57.38,0,0,1-3.52,7.5,1.43,1.43,0,0,1-2.3.38l-1.41-1q-1.69-1.22-.89-2.72A81.74,81.74,0,0,0,508.84,48.26Z" transform="translate(-457 -37)" style="fill:#963b3b"/><path d="M538.2,47.8q0.56-1.59,1.92-1.17l2.3,0.66q1.41,0.42,1.22,1t1,0.56h9.75a1.26,1.26,0,0,1,1.45,1.41v1q0,1.5.89,0.28a25.07,25.07,0,0,0,2-3.84,1.5,1.5,0,0,1,2-1q0.94,0.24,2,.61,1.59,0.47,1.45.94-0.14.66,1,.66H576a1.26,1.26,0,0,1,1.45,1.41v1.64A1.26,1.26,0,0,1,576,53.33h-4.59q-1.12,0-.56.89t-1,1.73l-1.22.75a2.23,2.23,0,0,0-1.08,2.11l0.09,3a1.15,1.15,0,0,0,1.13,1.27h1.55q1.17,0,.38-1.5a14,14,0,0,0-1.12-1.78,1.4,1.4,0,0,1,.38-2.3l1.41-.84a1.79,1.79,0,0,1,2.58.52l1.55,2.44A1.56,1.56,0,0,1,575,62q-1.55,1-1.41,1.08a17.14,17.14,0,0,0,2.53.09,1.26,1.26,0,0,1,1.45,1.41v1.78a1.26,1.26,0,0,1-1.41,1.45h-6.94q-1.12,0-1,1.41a36.52,36.52,0,0,0,.89,5.81q0.33,1.17,1-.37a28,28,0,0,0,1.78-4.31,1.37,1.37,0,0,1,1.92-1l1.45,0.47a1.33,1.33,0,0,1,1.08,1.83,36.61,36.61,0,0,1-4.08,8.81,2.68,2.68,0,0,0-.19,2.81,4.33,4.33,0,0,0,1.31,1.36,5.37,5.37,0,0,0,.28-1.59V82.16a1,1,0,0,1,1.41-1,8,8,0,0,1,1.41.42,1.71,1.71,0,0,1,1.45,2A15.67,15.67,0,0,1,577.1,87,3.82,3.82,0,0,1,575,89.42q-3.33,1.36-6.28-2.67-0.75-1.12-2,0l-1.36,1a1.35,1.35,0,0,1-2.2-.52l-0.7-1.41a1.78,1.78,0,0,1,.7-2.48l1.69-1.5a2.27,2.27,0,0,0,.61-2.48,50,50,0,0,1-2.11-10.5A1.2,1.2,0,0,0,562,67.76h-6q-1.17,0-1.17.52T556,68.89h4.22a1.26,1.26,0,0,1,1.45,1.41v0.84a1.26,1.26,0,0,1-1.41,1.45H556q-1.17,0-1.17.56T556,73.81h3.7a1.26,1.26,0,0,1,1.45,1.41v0.84a1.26,1.26,0,0,1-1.41,1.45H556q-1.17,0-1.17.61t1.13,0.7h4.22a1.26,1.26,0,0,1,1.45,1.41v0.84a1.26,1.26,0,0,1-1.41,1.45H556q-1.17,0-1.17.75T556.24,84l3.28-.28q1.78-.19,1.88,1.27l0.09,0.56q0.14,1.78-1.36,1.92a224.46,224.46,0,0,1-22.5,2,1.75,1.75,0,0,1-1.78-1.5l-0.37-1.22q-0.47-1.5.89-1.55l5.81-.23a1,1,0,0,0,1.13-.94,0.91,0.91,0,0,0-1.12-.89H538a1.26,1.26,0,0,1-1.45-1.41v-1a1.26,1.26,0,0,1,1.41-1.45h4.22q1.17,0,1.17-.56t-1.12-.61h-3.61a1.26,1.26,0,0,1-1.45-1.41v-1a1.26,1.26,0,0,1,1.41-1.45h3.61q1.17,0,1.17-.56T542.18,73h-4a1.26,1.26,0,0,1-1.45-1.41v-1a1.26,1.26,0,0,1,1.41-1.45h4q1.17,0,1.17-.66t-1.12-.7h-5.72A1.26,1.26,0,0,1,535,66.36V64.58a1.26,1.26,0,0,1,1.41-1.45H538q1.13,0,.23-1.12-1.08-1.17.38-2.58a10,10,0,0,0,1.92-2.81,1.88,1.88,0,0,1,2.2-1,14.76,14.76,0,0,1,2,.42q1.41,0.33,1.08,1.17-1.12,1.13,1.13,1.69a1.37,1.37,0,0,1,.75,2.2l-0.37.66q-0.7,1.41.42,1.41h1.92q1.13,0,0-1.31T550,59.28a23.9,23.9,0,0,0,1.78-2.3,2.13,2.13,0,0,1,2.44-1.17,9.68,9.68,0,0,1,1.59.33q1.73,0.28,1.36,1.13t0.94,1.55L559,59.19a1.24,1.24,0,0,1,.7,2,4,4,0,0,1-.42.8q-0.66,1.17.47,1.17h1.73q1.13,0,1.13-1.41l-0.19-4.5a1.24,1.24,0,0,1,1.41-1.41h0.66q1.17,0,.47-1.27a2.15,2.15,0,0,0-1.83-1.22,2.35,2.35,0,0,0-1.92,1.41l-0.84,1.41q-1,1.27-2.48.19l-1.5-1.12q-1.5-1.12-1.17-1.45t-0.84-.42h-2.16q-1.12,0-.52.89T550.76,56a12.66,12.66,0,0,0-1.5.89q-1.64,1-2.48-.56a12.09,12.09,0,0,0-.94-1.55,2.58,2.58,0,0,0-2.06-1.41h-1a2.27,2.27,0,0,0-1.92,1.41l-1.12,1.88a1.47,1.47,0,0,1-2.39.33,14.15,14.15,0,0,0-1.41-1.08q-1.69-1.27-.52-2.77A39.61,39.61,0,0,0,538.2,47.8Zm5.58,14.58a1,1,0,0,0-1.5,0q-0.61.8,0.89,0.8T543.77,62.37ZM549.87,69q0-1.22-.7-1.22t-0.84,1.13V83.42q0,1.17.75,1.17a1,1,0,0,0,.8-1.22V69ZM555,63.12q1.45,0,.38-0.84a1.27,1.27,0,0,0-1.78,0q-0.8.8,0.38,0.8h1Z" transform="translate(-457 -37)" style="fill:#963b3b"/><path d="M597,52.72a1.26,1.26,0,0,1,1.41-1.45h3.19A1.26,1.26,0,0,1,603,52.67V63.73a1,1,0,0,0,1.13,1.17h11.06a1.26,1.26,0,0,1,1.45,1.41v3.23A1.26,1.26,0,0,1,615.27,71H604.21A1,1,0,0,0,603,72.12V83.23a1.26,1.26,0,0,1-1.41,1.45h-3.19A1.26,1.26,0,0,1,597,83.28V72.17A1,1,0,0,0,595.86,71H584.71a1.26,1.26,0,0,1-1.45-1.41V66.36a1.26,1.26,0,0,1,1.41-1.45h11.16A1,1,0,0,0,597,63.78V52.72Z" transform="translate(-457 -37)" style="fill:#963b3b"/><path d="M495.58,105.66a2,2,0,0,1,2.25-1.12l2.81,0.66q1.45,0.38.94,1.31-0.66,1.13.38,1.13h18.42a1.26,1.26,0,0,1,1.45,1.41v2.34a4,4,0,0,1-.66,2.34,30.72,30.72,0,0,1-7.08,6.84q-1,.7.56,1.36a74.89,74.89,0,0,0,11,2.58q1.59,0.28.89,1.83-0.66,1.27-1.17,2.53a2,2,0,0,1-2.3,1.27l-1-.19a0.87,0.87,0,0,0-1.12,1v15.33a1.26,1.26,0,0,1-1.41,1.45h-2.58q-1.45,0-1.45-1a1,1,0,0,0-1.12-1.08H496.75a1,1,0,0,0-1.17,1q0,1.08-1.41,1.08h-2.62a1.26,1.26,0,0,1-1.45-1.41V131.67q0-1.12-1.41-.84a3.46,3.46,0,0,0-.94.23,1.94,1.94,0,0,1-2.2-1.12l-1.12-2q-0.84-1.55.7-1.92a108.61,108.61,0,0,0,14.25-4.08q1.13-.47-0.37-1.64a39.62,39.62,0,0,1-4.36-3.66,1.51,1.51,0,0,0-2.2.14l-1.87,1.36a2.22,2.22,0,0,1-3.09-.37l-1-1.08q-1.41-1.5-.09-2.39A35.58,35.58,0,0,0,495.58,105.66Zm19.87,29.77a1,1,0,0,0-1.08-1.22H496.75a1,1,0,0,0-1.17,1.13v4.08a1,1,0,0,0,1.13,1.17h17.58a1,1,0,0,0,1.17-1.12v-4Zm-10.41-10-0.89.38a69.7,69.7,0,0,1-7.69,2.81q-1.22.56,0.09,0.56h20.3q1.59,0,.09-0.52a54.38,54.38,0,0,1-9-3.19A3.18,3.18,0,0,0,505,125.44Zm8.25-11.62q1.13-1.22,0-1.22H500q-1.22,0,.19,1.27a40.93,40.93,0,0,0,5.16,3.75,2.56,2.56,0,0,0,2.81.09A30.34,30.34,0,0,0,513.3,113.81Z" transform="translate(-457 -37)" style="fill:#963b3b"/><path d="M547.15,105a1.77,1.77,0,0,1,2.25.89l1.08,2.06q0.84,1.55-.52,1.78l-3,.61a1.28,1.28,0,0,0-1.17,1.36v3.75a1,1,0,0,0,1.13,1.17h2.44a1.26,1.26,0,0,1,1.45,1.41v2.39a1.26,1.26,0,0,1-1.41,1.45H547q-1.12,0-1.17.38a4.27,4.27,0,0,0,1.5,1.64q1.45,1.31,3,3t0.28,3.14l-1.27,1.55q-1.12,1.31-2.34-.19t-1.22-.23v15.19a1.26,1.26,0,0,1-1.41,1.45h-2.2a1.26,1.26,0,0,1-1.45-1.41V132.19q0-1.5-.7-0.19a25.39,25.39,0,0,1-2.48,4.36q-1.12,1.55-2.2.28l-0.75-.94a2.34,2.34,0,0,1-.19-3.14,53.32,53.32,0,0,0,4.78-9.61q0.38-1.12-.75-1.12h-2.25a1.26,1.26,0,0,1-1.45-1.41V118a1.26,1.26,0,0,1,1.41-1.45h3.42a1,1,0,0,0,1.17-1.12v-2.86q0-1.12-1.41-1l-1.08.14a1.79,1.79,0,0,1-2.06-1.5,15.21,15.21,0,0,1-.7-1.87q-0.56-1.5.84-1.64A101.7,101.7,0,0,0,547.15,105Zm6.66,0.23q8.53,0,18.38-.84a2.16,2.16,0,0,1,2.2,1.31l0.84,1.5q0.8,1.45-.61,1.64-3.47.38-6.94,0.56-1.12.14-1.12,0.8t1.13,0.75h8.53a1.26,1.26,0,0,1,1.45,1.41v2.06a1.26,1.26,0,0,1-1.41,1.45h-8.53q-1.17,0-1.17.66t1.13,0.7h7.08a1.26,1.26,0,0,1,1.45,1.41v14.86a1.26,1.26,0,0,1-1.41,1.45h-7.08q-1.17,0-1.17.66t1.13,0.75h7.08a1.26,1.26,0,0,1,1.45,1.41v1.73a1.26,1.26,0,0,1-1.41,1.45h-7.08q-1.17,0-1.17.66t1.13,0.75h8.53a1.26,1.26,0,0,1,1.45,1.41v2a1.26,1.26,0,0,1-1.41,1.45H551.93a1.26,1.26,0,0,1-1.45-1.41v-2a1.26,1.26,0,0,1,1.41-1.45h8.34q1.17,0,1.17-.66t-1.12-.75h-6.66a1.26,1.26,0,0,1-1.45-1.41v-1.73a1.26,1.26,0,0,1,1.41-1.45h6.66q1.17,0,1.17-.66t-1.12-.75h-6.66a1.26,1.26,0,0,1-1.45-1.41V118.64a1.26,1.26,0,0,1,1.41-1.45h6.66q1.17,0,1.17-.66t-1.12-.7h-8.16a1.26,1.26,0,0,1-1.45-1.41v-2.06a1.26,1.26,0,0,1,1.41-1.45h8.16q1.17,0,1.17-.61t-1.41-.61l-4.73.09a1.83,1.83,0,0,1-1.87-1.45l-0.47-1.5Q552.4,105.19,553.81,105.19ZM561.4,123a0.9,0.9,0,0,0-1.08-.94h-1.87q-1.17,0-1.17.84a0.91,0.91,0,0,0,1.13.89h1.83Q561.4,123.75,561.4,123Zm0,6.23a0.94,0.94,0,0,0-1.12-1h-1.83a1,1,0,1,0,0,1.92h1.83A1,1,0,0,0,561.4,129.19Zm9.75-6.23a0.9,0.9,0,0,0-1.08-.94h-2.34q-1.17,0-1.17.84a0.91,0.91,0,0,0,1.13.89H570Q571.15,123.75,571.15,123Zm0,6.23a0.94,0.94,0,0,0-1.12-1h-2.3a1,1,0,1,0,0,1.92H570A1,1,0,0,0,571.15,129.19Z" transform="translate(-457 -37)" style="fill:#963b3b"/><path d="M602.71,105a2.8,2.8,0,0,1,2.77-.89l2.81,0.84q1.5,0.42,1.08.84t1,1.31a81.93,81.93,0,0,0,16.31,7q1.41,0.42.61,1.83L626,118.31a1.71,1.71,0,0,1-2.25.94l-1.27-.52q-1.27-.52-1.27.52v14.11a3.31,3.31,0,0,0,1.41,2.34q1.64,1.36.28,2.3L620,139.73q-1.17.56,0.38,1,3,0.75,6.14,1.31,1.41,0.23.66,1.73-0.7,1.22-1.27,2.44a1.9,1.9,0,0,1-2.16,1.17,46,46,0,0,1-14.44-5.67,28.3,28.3,0,0,1-6.19-5.3,2.81,2.81,0,0,0-2.11-1.12h-4.45a1,1,0,0,0-1.17,1.13v3.89q0,1.13,1.41,1.08,3.8-.33,7.59-0.84a1.28,1.28,0,0,1,1.69,1.22l0.28,1.88a1.3,1.3,0,0,1-1.22,1.69q-6.94,1.17-15,2a1.41,1.41,0,0,1-1.78-1.17L588,144q-0.33-1.83.94-2a1.18,1.18,0,0,0,1.22-1.27V119.81q0-1.17-1.45-.52a1.61,1.61,0,0,1-2.3-.66l-1.12-2.25a1.34,1.34,0,0,1,.66-2.11,69.12,69.12,0,0,0,14.91-7.78A19.7,19.7,0,0,0,602.71,105Zm14.48,11.39L614.52,115q-1.12-.56-1.12.09t-1.41.7h-12.7q-1.45,0-1.45-.56t-1.45.19l-1.36.75q-1.64,1-.09,1H617.1Q618.6,117.19,617.19,116.39ZM616,123a1,1,0,0,0-1.12-1H596.56q-1.17,0-1.17.89a0.94,0.94,0,0,0,1.13,1h18.33Q616,123.89,616,123Zm0,6.47a1,1,0,0,0-1.08-1.12H596.56a1.06,1.06,0,1,0,0,2.11h18.33A1,1,0,0,0,616,129.47Zm-9.33-19.17a2.08,2.08,0,0,0-2.62.09q-1.31,1-.14,1h3.14Q608.28,111.37,606.69,110.3Zm8.67,26.06q1.45-1,.09-1h-5.53q-1.17,0,.38,1.13l1,0.66a2.75,2.75,0,0,0,2.53,0Z" transform="translate(-457 -37)" style="fill:#963b3b"/><path d="M642.28,105.89a1.25,1.25,0,0,1,1.31-1.5H646a1.26,1.26,0,0,1,1.45,1.41v5.11a1,1,0,0,0,1.13,1.17h3.61a1.26,1.26,0,0,1,1.45,1.41v2.2a1.26,1.26,0,0,1-1.41,1.45h-3.61a1,1,0,0,0-1.17,1,3.15,3.15,0,0,0,1.41,2.25q2.39,1.92,4.78,4.17a2,2,0,0,1,.38,2.77l-1.36,1.92q-1,1.45-2.16.09-0.84-1.12-1.87-2.3t-1.17-.14v19.31A1.26,1.26,0,0,1,646,147.7h-2.3a1.26,1.26,0,0,1-1.45-1.41V130.22q0-1.5-.7-0.19-1.27,2.49-2.77,5-1,1.55-2.39,0l-0.75-.94a2.14,2.14,0,0,1,0-2.81,63.39,63.39,0,0,0,6.09-12.89q0.42-1.17-.75-1.17h-3.84a1.26,1.26,0,0,1-1.45-1.41v-2.2a1.26,1.26,0,0,1,1.41-1.45h4a1,1,0,0,0,1.17-1.12v-5.06Zm25.08,0a1.25,1.25,0,0,1,1.31-1.5h2.72a1.26,1.26,0,0,1,1.45,1.41v4.92a1,1,0,0,0,1.13,1.17h3a1.26,1.26,0,0,1,1.45,1.41v2.39a1.26,1.26,0,0,1-1.41,1.45h-3a1,1,0,0,0-1.17,1.13V141.8a8.23,8.23,0,0,1-1,3.75,3.78,3.78,0,0,1-2.62,1.83q-1.83.56-7,.23a1.69,1.69,0,0,1-1.64-1.55,23.35,23.35,0,0,1-.42-2.58q-0.28-1.55,1.36-1.36a27,27,0,0,0,3.23.19q2.58,0.33,2.58-2.16V128.44q0-1.5-.84-0.28a73.72,73.72,0,0,1-9.94,12.7,1.64,1.64,0,0,1-2.62-.19l-1.22-1.41q-1.12-1.27.42-2.67a74.38,74.38,0,0,0,13.69-18.33q0.56-1.12-.56-1.12h-9a1.26,1.26,0,0,1-1.45-1.41v-2.39a1.26,1.26,0,0,1,1.41-1.45h9a1,1,0,0,0,1.17-1.12v-4.87Z" transform="translate(-457 -37)" style="fill:#963b3b"/></g><rect width="3" height="120" style="fill:#e2695b"/><rect x="384" width="120" height="120" style="fill:#fffbf5"/><rect x="256" width="120" height="120" style="fill:#fffbf5"/><g id="竹籤各種食材"><path d="M924,48a1.14,1.14,0,0,0,1,0c0,3,2,3,4.33,4.33s5,4,6.33,10,1.33,15.33,0,25.67-4,21.67-10,31.33A54.92,54.92,0,0,1,900.33,141,50.84,50.84,0,0,1,873,143.67c-6.67-1.33-9.33-4-10.67-6.33S861,133,858,134a1.71,1.71,0,0,0,0-1c3,0,3-2,3-5.67s0-9,4.67-12.33,14-4.67,20.67-8.33S897,97,899,90s2-15,3.33-21.67,4-12,7.33-14.67S917,51,919.75,51,924,51,924,48Z" transform="translate(-457 -37)" style="fill:#ce827e"/><path d="M913.73,51.62a11.27,11.27,0,0,0-4.06,2c-3.33,2.67-6,8-7.33,14.67S901,83,899,90s-6,13-12.67,16.67-16,5-20.67,8.33c-4.06,2.9-4.59,7.31-4.66,10.83,0.27,3.24,1,4.32,1.53,5.13a4.6,4.6,0,0,0,.33.45,12.7,12.7,0,0,0,2,1.87l0.84,0.63c0.45,0.32,1,.71,1.46,1s1,0.6,1.32.79,0.85,0.47,1.22.66a14.39,14.39,0,0,0,1.63.68,19.78,19.78,0,0,0,2.36.65,31.87,31.87,0,0,0,3.19.51c1.29,0.14,2.58.22,3.88,0.24a46.63,46.63,0,0,0,9-.68,41.88,41.88,0,0,0,9.33-2.76,43.38,43.38,0,0,0,8.94-5.25,49.64,49.64,0,0,0,7.93-7.51,47.84,47.84,0,0,0,3.33-4.41,50.88,50.88,0,0,0,4.2-7.76,81.25,81.25,0,0,0,3.67-10.49,84,84,0,0,0,2.19-9.81,107.78,107.78,0,0,0,1.17-11.33,80.08,80.08,0,0,0,0-8.8c-0.07-1.18-.17-2.37-0.32-3.54-0.12-.94-0.28-1.89-0.46-2.82a19.22,19.22,0,0,0-1.13-3.88,13.61,13.61,0,0,0-1.3-2.43,11.14,11.14,0,0,0-1.1-1.36,14.09,14.09,0,0,0-2.42-2,12.82,12.82,0,0,0-3.12-1.48A15.76,15.76,0,0,0,913.73,51.62Z" transform="translate(-457 -37)" style="fill:#ea9c98"/><path d="M916.7,55.12c6.9-.1,7.6,3.89,7.28,8.55s-1.65,10-4.3,12.72-6.62,2.84-9.62,1.81-5.06-3.2-4-8.11a38.74,38.74,0,0,1,1-4.27,30.07,30.07,0,0,1,1-3,22.83,22.83,0,0,1,1.2-2.5,16.56,16.56,0,0,1,1.3-2,10.2,10.2,0,0,1,1.29-1.4,7,7,0,0,1,1.25-.88,7.52,7.52,0,0,1,1.35-.57A11.32,11.32,0,0,1,916.7,55.12Z" transform="translate(-457 -37)" style="fill:#fecebf"/><path d="M808.76,134.76a6,6,0,1,0,5.24-1.67V61q-0.5-6-1-12l-1,12v74.13a4,4,0,1,1-1.83,1Z" transform="translate(-457 -37)" style="fill:#f5f8ff"/><path d="M792.76,134.76a6,6,0,1,0,5.24-1.67V61q-0.5-6-1-12l-1,12v74.13a4,4,0,1,1-1.83,1Z" transform="translate(-457 -37)" style="fill:#f5f8ff"/><path d="M776.76,134.76a6,6,0,1,0,5.24-1.67V61q-0.5-6-1-12l-1,12v74.13a4,4,0,1,1-1.83,1Z" transform="translate(-457 -37)" style="fill:#f5f8ff"/><path d="M760.76,134.76a6,6,0,1,0,5.24-1.67V61q-0.5-6-1-12l-1,12v74.13a4,4,0,1,1-1.83,1Z" transform="translate(-457 -37)" style="fill:#f5f8ff"/><path d="M744.76,134.76a6,6,0,1,0,5.24-1.67V61l-1-12q-0.5,6-1,12v74.13a4,4,0,1,1-1.83,1Z" transform="translate(-457 -37)" style="fill:#f5f8ff"/><path d="M728.76,134.76a6,6,0,1,0,5.24-1.67V61q-0.5-6-1-12l-1,12v74.13a4,4,0,1,1-1.83,1Z" transform="translate(-457 -37)" style="fill:#f5f8ff"/><path d="M732.66,143a4,4,0,0,1-2.49-6.85l-1.41-1.41c-0.07.07-.13,0.15-0.2,0.23l1.19,1.19A4,4,0,0,0,732.66,143Z" transform="translate(-457 -37)" style="fill:#8c8c8c"/><path d="M734,133.08V61q-0.5-6-1-12l-0.21,2.54q0.39,4.73.79,9.46v72.08a6,6,0,0,1,.82,11.63,6.34,6.34,0,0,1-1.86.29,6.23,6.23,0,0,0,2.28-.29A6,6,0,0,0,734,133.08Z" transform="translate(-457 -37)" style="fill:#8c8c8c"/><path d="M729,135l-0.23-.23A6,6,0,0,0,733,145,6,6,0,0,1,729,135Z" transform="translate(-457 -37)" style="fill:#ddd"/><path d="M735.41,142.47a4,4,0,0,0-2.22-7.47,4,4,0,0,1,1.8,7.47,4.07,4.07,0,0,1-1.9.54A4,4,0,0,0,735.41,142.47Z" transform="translate(-457 -37)" style="fill:#ddd"/><path d="M733.21,51.54L733,49l-1,12v74.13c0.14,0,.28,0,0.42-0.07V61Z" transform="translate(-457 -37)" style="fill:#ddd"/><path d="M748.66,143a4,4,0,0,1-2.49-6.85l-1.41-1.41c-0.07.07-.12,0.15-0.19,0.23l1.18,1.19A4,4,0,0,0,748.66,143Z" transform="translate(-457 -37)" style="fill:#8c8c8c"/><path d="M750,133.08V61l-1-12q-0.11,1.27-.21,2.54,0.4,4.73.79,9.46v72.08a6,6,0,0,1,.82,11.63,6.33,6.33,0,0,1-1.85.29,6.23,6.23,0,0,0,2.28-.29A6,6,0,0,0,750,133.08Z" transform="translate(-457 -37)" style="fill:#8c8c8c"/><path d="M745,135l-0.23-.23A6,6,0,0,0,749,145,6,6,0,0,1,745,135Z" transform="translate(-457 -37)" style="fill:#ddd"/><path d="M751.4,142.47a4,4,0,0,0-2.22-7.47,4,4,0,0,1,1.8,7.47,4.07,4.07,0,0,1-1.9.54A4,4,0,0,0,751.4,142.47Z" transform="translate(-457 -37)" style="fill:#ddd"/><path d="M749.21,51.54L749,49q-0.5,6-1,12v74.13c0.14,0,.28,0,0.42-0.07V61Q748.81,56.27,749.21,51.54Z" transform="translate(-457 -37)" style="fill:#ddd"/><path d="M764.66,143a4,4,0,0,1-2.49-6.85l-1.41-1.41c-0.07.07-.12,0.15-0.19,0.23l1.18,1.19A4,4,0,0,0,764.66,143Z" transform="translate(-457 -37)" style="fill:#8c8c8c"/><path d="M766,133.08V61q-0.5-6-1-12-0.11,1.27-.21,2.54,0.4,4.73.79,9.46v72.08a6,6,0,0,1,.82,11.63,6.33,6.33,0,0,1-1.85.29,6.23,6.23,0,0,0,2.28-.29A6,6,0,0,0,766,133.08Z" transform="translate(-457 -37)" style="fill:#8c8c8c"/><path d="M761,135l-0.23-.23A6,6,0,0,0,765,145,6,6,0,0,1,761,135Z" transform="translate(-457 -37)" style="fill:#ddd"/><path d="M767.41,142.47a4,4,0,0,0-2.22-7.47,4,4,0,0,1,1.8,7.47,4.07,4.07,0,0,1-1.9.54A4,4,0,0,0,767.41,142.47Z" transform="translate(-457 -37)" style="fill:#ddd"/><path d="M765.21,51.54L765,49l-1,12v74.13c0.15,0,.28,0,0.42-0.07V61Q764.82,56.27,765.21,51.54Z" transform="translate(-457 -37)" style="fill:#ddd"/><path d="M780.66,143a4,4,0,0,1-2.49-6.85l-1.41-1.41c-0.07.07-.12,0.15-0.2,0.23l1.19,1.19A4,4,0,0,0,780.66,143Z" transform="translate(-457 -37)" style="fill:#8c8c8c"/><path d="M782,133.08V61q-0.5-6-1-12-0.11,1.27-.21,2.54,0.4,4.73.79,9.46v72.08a6,6,0,0,1,.82,11.63,6.33,6.33,0,0,1-1.85.29,6.23,6.23,0,0,0,2.28-.29A6,6,0,0,0,782,133.08Z" transform="translate(-457 -37)" style="fill:#8c8c8c"/><path d="M777,135l-0.23-.23A6,6,0,0,0,781,145,6,6,0,0,1,777,135Z" transform="translate(-457 -37)" style="fill:#ddd"/><path d="M783.41,142.47a4,4,0,0,0-2.22-7.47,4,4,0,0,1,1.8,7.47,4.07,4.07,0,0,1-1.9.54A4,4,0,0,0,783.41,142.47Z" transform="translate(-457 -37)" style="fill:#ddd"/><path d="M781.21,51.54L781,49l-1,12v74.13c0.15,0,.28,0,0.42-0.07V61Q780.82,56.27,781.21,51.54Z" transform="translate(-457 -37)" style="fill:#ddd"/><path d="M796.66,143a4,4,0,0,1-2.49-6.85l-1.41-1.41c-0.07.07-.12,0.15-0.2,0.23l1.19,1.19A4,4,0,0,0,796.66,143Z" transform="translate(-457 -37)" style="fill:#8c8c8c"/><path d="M798,133.08V61q-0.5-6-1-12-0.11,1.27-.21,2.54L797.58,61v72.08a6,6,0,0,1,.82,11.63,6.33,6.33,0,0,1-1.86.29,6.24,6.24,0,0,0,2.28-.29A6,6,0,0,0,798,133.08Z" transform="translate(-457 -37)" style="fill:#8c8c8c"/><path d="M793,135l-0.23-.23A6,6,0,0,0,797,145,6,6,0,0,1,793,135Z" transform="translate(-457 -37)" style="fill:#ddd"/><path d="M799.41,142.47a4,4,0,0,0-2.22-7.47,4,4,0,0,1,1.8,7.47,4.07,4.07,0,0,1-1.9.54A4,4,0,0,0,799.41,142.47Z" transform="translate(-457 -37)" style="fill:#ddd"/><path d="M797.21,51.54L797,49l-1,12v74.13c0.14,0,.28,0,0.42-0.07V61Z" transform="translate(-457 -37)" style="fill:#ddd"/><path d="M812.66,143a4,4,0,0,1-2.49-6.85l-1.41-1.41c-0.07.07-.12,0.15-0.2,0.23l1.19,1.19A4,4,0,0,0,812.66,143Z" transform="translate(-457 -37)" style="fill:#8c8c8c"/><path d="M814,133.08V61q-0.5-6-1-12-0.11,1.27-.21,2.54L813.58,61v72.08a6,6,0,0,1,.82,11.63,6.33,6.33,0,0,1-1.86.29,6.24,6.24,0,0,0,2.28-.29A6,6,0,0,0,814,133.08Z" transform="translate(-457 -37)" style="fill:#8c8c8c"/><path d="M809,135l-0.23-.23A6,6,0,0,0,813,145,6,6,0,0,1,809,135Z" transform="translate(-457 -37)" style="fill:#ddd"/><path d="M815.41,142.47a4,4,0,0,0-2.22-7.47,4,4,0,0,1,1.8,7.47,4.07,4.07,0,0,1-1.9.54A4,4,0,0,0,815.41,142.47Z" transform="translate(-457 -37)" style="fill:#ddd"/><path d="M813.21,51.54q-0.1-1.27-.21-2.54l-1,12v74.13c0.14,0,.28,0,0.42-0.07V61Q812.82,56.27,813.21,51.54Z" transform="translate(-457 -37)" style="fill:#ddd"/></g></svg>