<svg xmlns="http://www.w3.org/2000/svg" xmlns:xlink="http://www.w3.org/1999/xlink" viewBox="0 0 480 120"><defs><clipPath id="clip-path"><path d="M356,40c4-12,12-20,22.67-24a51.56,51.56,0,0,1,34.67,0C424,20,432,28,436,40s4,28,0,40-12,20-22.67,24a51.58,51.58,0,0,1-34.67,0C368,100,360,92,356,80S352,52,356,40Z" style="fill:none"/></clipPath></defs><rect width="480" height="120" style="fill:#fffbf5"/><rect x="336" width="120" height="120" style="fill:#fffbf5"/><rect width="3" height="120" style="fill:#e2695b"/><g id="肉_t"><text transform="translate(24 74.44)" style="font-size:48px;fill:#963b3b;font-family:HanWangHeiHeavy;letter-spacing:2px;opacity: 0">肉</text><path d="M44.67,39.94q0.09-1.55,1.41-1.31a19,19,0,0,1,2.25.42A1.72,1.72,0,0,1,50,40.83l-0.09,1.64a1,1,0,0,0,1,1.22H66.8a1.26,1.26,0,0,1,1.45,1.41V75.61q-0.52,5.11-5,5.77a10.68,10.68,0,0,1-4.41-.14,2.16,2.16,0,0,1-1.78-1.69l-0.56-2.91q-0.28-1.41,1.13-1A9.44,9.44,0,0,0,62,76a2.33,2.33,0,0,0,.75-1.64V50.25a1,1,0,0,0-1.12-1.17H50a1.37,1.37,0,0,0-1.31.42Q48.52,50,50,50.58a65.7,65.7,0,0,1,10.55,5.86,1.71,1.71,0,0,1,.38,2.72L59.63,61a1.44,1.44,0,0,1-2.34.42,60.69,60.69,0,0,0-9.37-5.67,1.77,1.77,0,0,0-2.44.61,26.66,26.66,0,0,1-6.66,6.28A1.85,1.85,0,0,1,36,62.2L35.11,61q-1.17-1.55.09-2.39a20.22,20.22,0,0,0,7.45-8.39q0.47-1.17-.66-1.17H34.55a1,1,0,0,0-1.17,1.13v30A1.26,1.26,0,0,1,32,81.7H29.39a1.26,1.26,0,0,1-1.45-1.41V45.14a1.26,1.26,0,0,1,1.41-1.45H43.17a1.32,1.32,0,0,0,1.31-1.41A14.87,14.87,0,0,0,44.67,39.94Zm0.89,19.45a1.5,1.5,0,0,1,1.78-1.27l2.3,0.28q1.69,0.23,1.36,1.73l-0.66,2.2q-0.47,1.13,1,1.83A61.55,61.55,0,0,1,59.44,69q1.69,1.31.61,2.81l-1,1.5q-1.27,1.83-2.67.61a55.05,55.05,0,0,0-7.78-5.16q-1.08-.56-2.25.94A25.9,25.9,0,0,1,39,75.84a2,2,0,0,1-2.86-.56,14.87,14.87,0,0,1-1.08-1.5q-1.17-1.55.23-2.34Q43.55,66.8,45.56,59.39Z" style="fill:#963b3b"/></g><g id="肉"><g style="clip-path:url(#clip-path)"><path d="M356,40c4-12,12-20,22.67-24a51.56,51.56,0,0,1,34.67,0C424,20,432,28,436,40s4,28,0,40-12,20-22.67,24a51.58,51.58,0,0,1-34.67,0C368,100,360,92,356,80S352,52,356,40Z" style="fill:#e8837c"/><path d="M382.21,21.85C384,40,404.13,50.38,421.86,45.72l-1-3.87a30.2,30.2,0,0,1-8.91.95,31.23,31.23,0,0,1-8.66-1.59,29.07,29.07,0,0,1-6.43-3.07,25.93,25.93,0,0,1-3.31-2.51,23,23,0,0,1-5-6.31A20.81,20.81,0,0,1,387,25.58a21.51,21.51,0,0,1-.81-4.13Z" style="fill:#f7f0df"/><path d="M352.84,67.52c12.84-1.85,17.6-8.82,19.11-17,1.64-8.86-.58-19.09,20-41.07l2.92,2.74c-2.22,2.37-4.36,4.8-6.39,7.33-1.63,2-3.18,4.13-4.61,6.32a48.09,48.09,0,0,0-5.15,10.05,37.33,37.33,0,0,0-1.19,4c-0.28,1.21-.49,2.43-0.66,3.66-0.21,1.52-.36,3-0.55,4.56-0.15,1.2-.32,2.4-0.56,3.59a27.11,27.11,0,0,1-2.2,6.65,21.91,21.91,0,0,1-4.31,6,23.42,23.42,0,0,1-6.74,4.51,33.81,33.81,0,0,1-9.12,2.54Z" style="fill:#f7f0df"/><path d="M353.07,71.55C370.31,76.92,376.82,89.89,368,108l3.6,1.75a47.76,47.76,0,0,0,2.83-7.14,34.82,34.82,0,0,0,1.37-6.81,27.31,27.31,0,0,0-.14-6.45,23,23,0,0,0-4.83-11.16,26.45,26.45,0,0,0-4.45-4.37,33.1,33.1,0,0,0-5.56-3.47,43.9,43.9,0,0,0-6.55-2.6Z" style="fill:#f7f0df"/><path d="M374.35,94.44A49.8,49.8,0,0,1,393,95.1l1-3.88a53.69,53.69,0,0,0-20.18-.74Z" style="fill:#f7f0df"/><path d="M440.64,57.62C423.42,62,424.53,74,420.68,82.46c-3.77,8.27-12.32,13.06-11.23,29.68l4-.26a35.52,35.52,0,0,1,0-4.93,26.93,26.93,0,0,1,.59-4,23.31,23.31,0,0,1,1-3.35,25.1,25.1,0,0,1,1.38-2.92c0.51-.93,1.07-1.82,1.65-2.7,0.86-1.29,1.76-2.54,2.65-3.81,0.67-1,1.32-1.92,1.92-2.92a30.05,30.05,0,0,0,1.75-3.31,35.15,35.15,0,0,0,1.35-3.57c0.48-1.48.89-3,1.35-4.47,0.32-1.07.66-2.13,1.06-3.17a23.26,23.26,0,0,1,1.29-2.86,15.52,15.52,0,0,1,1.7-2.51,14.43,14.43,0,0,1,2.36-2.23,18.16,18.16,0,0,1,3.36-2,27.7,27.7,0,0,1,4.75-1.63Z" style="fill:#f7f0df"/><path d="M392,112c0-20,12-24,16-35s0-29,32-41l-1.41-3.75A80,80,0,0,0,428,37.06a52.78,52.78,0,0,0-8,5.35,39.74,39.74,0,0,0-5.77,5.79,35.3,35.3,0,0,0-3.89,6A38.36,38.36,0,0,0,408,60.08c-0.58,1.81-1,3.66-1.43,5.51-0.45,2.1-.82,4.21-1.27,6.31a27.87,27.87,0,0,1-1,3.74,19.08,19.08,0,0,1-1.46,3.07,31.6,31.6,0,0,1-2,3c-1.05,1.41-2.18,2.77-3.27,4.14-0.94,1.18-1.85,2.37-2.71,3.61a41.28,41.28,0,0,0-2.61,4.25A34.89,34.89,0,0,0,390,98.76a37,37,0,0,0-1.47,6.07A46,46,0,0,0,388,112h4Z" style="fill:#f7f0df"/></g></g></svg>