<svg xmlns="http://www.w3.org/2000/svg" viewBox="0 0 528 120"><rect width="528" height="120" style="fill:#fffbf5"/><g id="醃肉_t"><text transform="translate(24 74.44)" style="font-size:48px;fill:#963b3b;font-family:HanWangHeiHeavy;letter-spacing:2px;opacity: 0">醃肉</text><path d="M510.48,125.31q0.33-1.73,1.73-1.41l1.92,0.47a1.45,1.45,0,0,1,1.22,1.78l-0.19.84a0.8,0.8,0,0,0,.89,1.13h8.2a1.26,1.26,0,0,1,1.45,1.41v1.78a1.26,1.26,0,0,1-1.41,1.45H522q-1.22,0,0,1.45a29.35,29.35,0,0,0,3.94,3.89,1.54,1.54,0,0,1,.19,2.48q-2.39,2.25-2,3.42v13.41a2.48,2.48,0,0,0,1.41,2,2.26,2.26,0,0,1,1.22,2.25,9.13,9.13,0,0,1-.94,3.28,3.08,3.08,0,0,1-1.83.89,32.83,32.83,0,0,1-8.06.09,4.28,4.28,0,0,1-4-2.3,9.3,9.3,0,0,1-.42-3.84,1,1,0,0,0-1.08-1.17q-1.17,0-1.17.7t-1.41.8H505.7a1.26,1.26,0,0,1-1.45-1.41V144.25a2.41,2.41,0,0,0-.66-1.78q-0.7-.56-0.7.56v22a1.26,1.26,0,0,1-1.41,1.45H499.7q-1.45,0-1.45-1a1,1,0,0,0-1.12-1.08h-7.64a1,1,0,0,0-1.17,1q0,1.08-1.41,1.08H485a1.26,1.26,0,0,1-1.45-1.41v-31a1.26,1.26,0,0,1,1.41-1.45h2.34a1,1,0,0,0,1.17-1.12v-1a1,1,0,0,0-1.12-1.17h-2.53a1.26,1.26,0,0,1-1.45-1.41V126a1.26,1.26,0,0,1,1.41-1.45h16.64a1.26,1.26,0,0,1,1.45,1.41v1.92a1.26,1.26,0,0,1-1.41,1.45h-2.25a1,1,0,0,0-1.17,1.13v1a1,1,0,0,0,1.13,1.17h2.25a1.26,1.26,0,0,1,1.45,1.41v3.09q0,1.22,1.17,0a30.16,30.16,0,0,0,2.63-3.28q0.61-1.12-.52-1.12h-1.27a1.26,1.26,0,0,1-1.45-1.41v-1.78a1.26,1.26,0,0,1,1.41-1.45h3.61a1.76,1.76,0,0,0,1.64-1.41ZM493.7,138.25q0-1.17-.42-1.17t-0.52,1.13a26.15,26.15,0,0,1-1.41,10.69q-0.61,1.5-1.78.56t-1.27.19v1.88a1,1,0,0,0,1.13,1.17h7.64a1,1,0,0,0,1.17-1.12v-1.17a1,1,0,0,0-1.12-1.17q-2.77.19-3.42-3.37v-7.59Zm-4.5,0q0-1.17-.42-1.17t-0.47,1.17v5.81q0,1,.47-0.09A17.77,17.77,0,0,0,489.2,138.25Zm9,20.34q0-1.45-1.08-1.45h-7.69a1.13,1.13,0,0,0-1.17,1.36q0,1.41,1.13,1.41h7.64A1.1,1.1,0,0,0,498.25,158.59Zm-4.55-28.08q0-1.17-.42-1.17t-0.52,1.13v1q0,1.17.42,1.17t0.52-1.12v-1Zm4.55,7.73q0-1.17-.47-1.17t-0.52,1.13v4.88a1.79,1.79,0,0,0,.52,1.83q0.47,0.23.47-.94v-5.72Zm13.27,7.41a1,1,0,0,0-1.08-1.27,1.06,1.06,0,0,0-1.17,1.22,1,1,0,0,0,1.08,1.27A1.06,1.06,0,0,0,511.52,145.66Zm0,6.94a1.07,1.07,0,0,0-1.08-1.31,1.06,1.06,0,0,0-1.17,1.22A1.13,1.13,0,1,0,511.52,152.59Zm0-15.89q-0.14-.28-0.89.7l-0.37.61q-1.08,1.5.09,1.5a1.14,1.14,0,0,0,1.22-1.36Zm4.78-2.72a1.89,1.89,0,0,0-1.73-1.22,2,2,0,0,0-1.83,1.22q-0.61,1.22.52,1.22h1.92a1.26,1.26,0,0,1,1.45,1.41v1.73a1,1,0,0,0,1.13,1.17h1q1.17,0,.14-1.45A38.52,38.52,0,0,1,516.25,134Zm2.81,11.67a1.24,1.24,0,1,0-1.27,1.22A1.1,1.1,0,0,0,519.06,145.66Zm0,6.94a1.1,1.1,0,0,0-1.17-1.31,1.12,1.12,0,0,0-1.31,1.22,1.1,1.1,0,0,0,1.22,1.27A1.08,1.08,0,0,0,519.06,152.59Zm2.67,7.22a1,1,0,0,0-1.08-1.17h-2.91q-1.12,0-1.12,1.41a1.34,1.34,0,0,0,1,1.13,7.13,7.13,0,0,0,3.7-.14A4.57,4.57,0,0,0,521.73,159.81Z" transform="translate(-457 -85)" style="fill:#963b3b"/><path d="M552.07,124.94q0.09-1.55,1.41-1.31a19,19,0,0,1,2.25.42,1.72,1.72,0,0,1,1.64,1.78l-0.09,1.64a1,1,0,0,0,1,1.22H574.2a1.26,1.26,0,0,1,1.45,1.41v30.52q-0.52,5.11-5,5.77a10.68,10.68,0,0,1-4.41-.14,2.16,2.16,0,0,1-1.78-1.69l-0.56-2.91q-0.28-1.41,1.13-1a9.44,9.44,0,0,0,4.36.38,2.33,2.33,0,0,0,.75-1.64V135.25a1,1,0,0,0-1.12-1.17H557.42a1.37,1.37,0,0,0-1.31.42q-0.19.47,1.27,1.08a65.7,65.7,0,0,1,10.55,5.86,1.71,1.71,0,0,1,.38,2.72L567,146a1.44,1.44,0,0,1-2.34.42,60.69,60.69,0,0,0-9.37-5.67,1.77,1.77,0,0,0-2.44.61,26.66,26.66,0,0,1-6.66,6.28,1.85,1.85,0,0,1-2.81-.47L542.51,146q-1.17-1.55.09-2.39a20.22,20.22,0,0,0,7.45-8.39q0.47-1.17-.66-1.17h-7.45a1,1,0,0,0-1.17,1.13v30a1.26,1.26,0,0,1-1.41,1.45h-2.58a1.26,1.26,0,0,1-1.45-1.41V130.14a1.26,1.26,0,0,1,1.41-1.45h13.83a1.32,1.32,0,0,0,1.31-1.41A14.87,14.87,0,0,0,552.07,124.94ZM553,144.39a1.5,1.5,0,0,1,1.78-1.27l2.3,0.28q1.69,0.23,1.36,1.73l-0.66,2.2q-0.47,1.13,1,1.83a61.55,61.55,0,0,1,8.06,4.83q1.69,1.31.61,2.81l-1,1.5q-1.27,1.83-2.67.61a55.05,55.05,0,0,0-7.78-5.16q-1.08-.56-2.25.94a25.9,25.9,0,0,1-7.27,6.14,2,2,0,0,1-2.86-.56,14.87,14.87,0,0,1-1.08-1.5q-1.17-1.55.23-2.34Q550.95,151.8,553,144.39Z" transform="translate(-457 -85)" style="fill:#963b3b"/></g><rect width="3" height="120" style="fill:#e2695b"/><rect x="384" width="120" height="120" style="fill:#fffbf5"/><g id="醃肉"><path d="M861,125c4-12,12-20,22.67-24a51.56,51.56,0,0,1,34.66,0C929,105,937,113,941,125s4,28,0,40-12,20-22.67,24a51.58,51.58,0,0,1-34.66,0C873,185,865,177,861,165S857,137,861,125Z" transform="translate(-457 -85)" style="fill:#e8837c"/><path d="M887.21,106.85c1.79,18.15,21.92,28.53,39.65,23.87l-1-3.87a30.2,30.2,0,0,1-8.91.95,31.17,31.17,0,0,1-8.66-1.59,29,29,0,0,1-6.43-3.07,26.17,26.17,0,0,1-3.31-2.51,23,23,0,0,1-5-6.31,20.84,20.84,0,0,1-1.54-3.74,21.76,21.76,0,0,1-.82-4.13Z" transform="translate(-457 -85)" style="fill:#f7f0df"/><path d="M899.14,98c-2,2.12-3.85,4.29-5.65,6.54-1.63,2-3.18,4.13-4.61,6.31a48,48,0,0,0-5.15,10.05,36,36,0,0,0-1.19,4.05c-0.28,1.21-.49,2.43-0.67,3.65-0.21,1.52-.36,3-0.55,4.56-0.15,1.2-.32,2.4-0.56,3.59a27,27,0,0,1-2.21,6.65,21.83,21.83,0,0,1-4.31,6,23.42,23.42,0,0,1-6.74,4.51,33.86,33.86,0,0,1-9.12,2.54l-0.57-4c12.83-1.85,17.6-8.82,19.1-17,1.54-8.29-.31-17.79,16.36-37Z" transform="translate(-457 -85)" style="fill:#f7f0df"/><path d="M879.55,187.19a34.56,34.56,0,0,0,1.24-6.4,27.3,27.3,0,0,0-.14-6.45,23,23,0,0,0-4.83-11.16,26.41,26.41,0,0,0-4.45-4.37,32.92,32.92,0,0,0-5.56-3.47,43.82,43.82,0,0,0-6.55-2.6l-1.19,3.82c14.62,4.55,21.52,14.57,17.9,28.56" transform="translate(-457 -85)" style="fill:#f7f0df"/><path d="M879.35,179.44a49.8,49.8,0,0,1,18.68.65l1-3.88a53.74,53.74,0,0,0-20.18-.74Z" transform="translate(-457 -85)" style="fill:#f7f0df"/><path d="M944,143.08" transform="translate(-457 -85)" style="fill:#f7f0df"/><path d="M944,147.29" transform="translate(-457 -85)" style="fill:#f7f0df"/><path d="M918.85,188.8q0.08-.44.18-0.88a23.1,23.1,0,0,1,1-3.35,25.41,25.41,0,0,1,1.38-2.92c0.51-.92,1.07-1.82,1.66-2.7,0.86-1.29,1.76-2.54,2.65-3.81,0.67-1,1.32-1.92,1.92-2.92a30.15,30.15,0,0,0,1.75-3.31,35.87,35.87,0,0,0,1.35-3.57c0.48-1.48.89-3,1.34-4.47,0.32-1.07.66-2.13,1.06-3.17a23.5,23.5,0,0,1,1.3-2.86,15.36,15.36,0,0,1,1.7-2.51,14.48,14.48,0,0,1,2.36-2.23,18.16,18.16,0,0,1,3.36-2c0.68-.31,1.38-0.59,2.08-0.84v-4.21c-15.49,4.71-14.58,16.23-18.29,24.38-3.19,7-9.78,11.49-11.09,22.75Z" transform="translate(-457 -85)" style="fill:#f7f0df"/><path d="M938.64,119.27" transform="translate(-457 -85)" style="fill:#f7f0df"/><path d="M940.26,122.93" transform="translate(-457 -85)" style="fill:#f7f0df"/><path d="M897.29,191.87C899.14,176.2,909.37,172,913,162c3.79-10.42.4-27.13,27.26-39.06l-1.61-3.66c-1.91.85-3.8,1.77-5.63,2.79a52.72,52.72,0,0,0-8,5.35,39.6,39.6,0,0,0-5.77,5.79,35.46,35.46,0,0,0-3.89,6,38.55,38.55,0,0,0-2.41,5.89c-0.58,1.81-1,3.66-1.43,5.51-0.45,2.1-.82,4.21-1.27,6.31a27.89,27.89,0,0,1-1,3.74,19.15,19.15,0,0,1-1.46,3.07,31.74,31.74,0,0,1-2,3c-1.05,1.41-2.18,2.76-3.27,4.14-0.93,1.18-1.85,2.37-2.71,3.61a41.28,41.28,0,0,0-2.61,4.25,34.85,34.85,0,0,0-2.19,5.09,36.57,36.57,0,0,0-1.47,6.06q-0.13.81-.22,1.62Z" transform="translate(-457 -85)" style="fill:#f7f0df"/><path d="M861,125c4-12,12-20,22.67-24a51.56,51.56,0,0,1,34.66,0C929,105,937,113,941,125s4,28,0,40-12,20-22.67,24a51.58,51.58,0,0,1-34.66,0C873,185,865,177,861,165S857,137,861,125Z" transform="translate(-457 -85)" style="fill:none"/><polygon points="424 74 422 78 430 76 424 74" style="fill:#edc17c"/><polygon points="470 56 468 60 476 58 470 56" style="fill:#edc17c"/><polygon points="454 88 460 84 462 88 454 88" style="fill:#edc17c"/><polygon points="436 60 442 56 444 60 436 60" style="fill:#edc17c"/><polygon points="452 32 454 36 460 32 452 32" style="fill:#edc17c"/><polygon points="408 48 414 44 416 48 408 48" style="fill:#edc17c"/></g></svg>