<?xml version="1.0" encoding="utf-8"?>
<!-- Generator: Adobe Illustrator 19.2.1, SVG Export Plug-In . SVG Version: 6.00 Build 0)  -->
<svg version="1.1" id="圖層_1" xmlns="http://www.w3.org/2000/svg" xmlns:xlink="http://www.w3.org/1999/xlink" x="0px" y="0px"
	 viewBox="0 0 240 180" style="enable-background:new 0 0 240 180;" xml:space="preserve">
<style type="text/css">
	.st0{fill:none;}
	.st1{fill:#D1A168;}
	.st2{fill:#AA805C;}
</style>
<title>地瓜</title>
<rect class="st0" width="240" height="180"/>
<path class="st1" d="M150,30c-2,3-4,9-7,13s-7,6-10,11s-5,13-6,27s-1,34,2,47s9,19,13,24s6,9,8,11s4,2,6-1s4-9,7-12s7-3,10.5-10
	s6.5-21,7-36s-1.5-31-5-41s-8.5-14-12-19S158,33,156,30S152,27,150,30z"/>
<path class="st1" d="M84,18c-2,3-4,9-7,13s-7,6-10,13s-5,19-6,35s-1,36,2,49s9,19,13,24s6,9,8,11s4,2,6-1s4-9,7-12s7-3,11-10
	s8-21,9-38s-1-37-5-49s-10-16-14-21s-6-11-8-14S86,15,84,18z"/>
<path class="st2" d="M96,126c1.9,1,4.1,1,6,0C100.1,125,97.9,125,96,126z"/>
<path class="st2" d="M96,72c1.9,1,4.1,1,6,0C100.1,71,97.9,71,96,72z"/>
<path class="st2" d="M96,48c1.9,1,4.1,1,6,0C100.1,47,97.9,47,96,48z"/>
<path class="st2" d="M78,42c1.9,1,4.1,1,6,0C82.1,41,79.9,41,78,42z"/>
<path class="st2" d="M84,144c1.9,1,4.1,1,6,0C88.1,143,85.9,143,84,144z"/>
<path class="st2" d="M72,126c1.9,1,4.1,1,6,0C76.1,125,73.9,125,72,126z"/>
<path class="st2" d="M84,108c1.9,1,4.1,1,6,0C88.1,107,85.9,107,84,108z"/>
<path class="st2" d="M102,90c1.9,1,4.1,1,6,0C106.1,89,103.9,89,102,90z"/>
<path class="st2" d="M144,54c1.9,1,4.1,1,6,0C148.1,53,145.9,53,144,54z"/>
<path class="st2" d="M162,132c1.9,1,4.1,1,6,0C166.1,131,163.9,131,162,132z"/>
<path class="st2" d="M138,72c1.9,1,4.1,1,6,0C142.1,71,139.9,71,138,72z"/>
<path class="st2" d="M132,108c1.9,1,4.1,1,6,0C136.1,107,133.9,107,132,108z"/>
<path class="st2" d="M165,108c1.9,1,4.1,1,6,0C169.1,107,166.9,107,165,108z"/>
<path class="st2" d="M66,96c1.9,1,4.1,1,6,0C70.1,95,67.9,95,66,96z"/>
<path class="st2" d="M78,84c1.9,1,4.1,1,6,0C82.1,83,79.9,83,78,84z"/>
<path class="st2" d="M75,60c1.9,1,4.1,1,6,0C79.1,59,76.9,59,75,60z"/>
<path class="st2" d="M147,120c1.9,1,4.1,1,6,0C151.1,119,148.9,119,147,120z"/>
<path class="st2" d="M147,144c1.9,1,4.1,1,6,0C151.1,143,148.9,143,147,144z"/>
<path class="st2" d="M165,69c1.9,1,4.1,1,6,0C169.1,68,166.9,68,165,69z"/>
<path class="st2" d="M162,87c1.9,1,4.1,1,6,0C166.1,86,163.9,86,162,87z"/>
<path class="st2" d="M144,96c1.9,1,4.1,1,6,0C148.1,95,145.9,95,144,96z"/>
</svg>
