<svg id="圖層_1" data-name="圖層 1" xmlns="http://www.w3.org/2000/svg" viewBox="0 0 239.99 180"><title>小雞翅腿</title><rect width="239.99" height="180" style="fill:none"/><path d="M787.25,430.58C784,423,778,413,772,402c-5.08-9.31-10.14-19.36-11.58-36.76C755.69,358.89,751.8,357,747,356a29.54,29.54,0,0,0-18,2,63.31,63.31,0,0,0-7.65,4.07c-15,11.84-21,18.89-25,22.41s-6,3.53-6.4,1.82,0.89-5.11,1.55-9.78,0.72-10.57-3.87-21.1c-1.88-2.66-3.93-4.29-8.6-2.42-5,2-13,8-18,13a32.47,32.47,0,0,0-8.37,12.81,34.43,34.43,0,0,0-2.11,12.43c0,5,.74,11.38,6.11,22.57S672,441,680,450s14,11,20,11,12-2,19-10,15-22,20-31,7-13,9-16,4-5,6-5,4,2,9,9,13,19,18,27,7,12,9,13a2.23,2.23,0,0,0,.52.17A36.32,36.32,0,0,0,787.25,430.58Z" transform="translate(-601 -316)" style="fill:#f0dfda"/><path d="M691.46,376.52c-0.66,4.66-1.92,8.07-1.55,9.78s2.37,1.71,6.4-1.82,10.08-10.57,25-22.41c-4.65,2.82-9.12,6-12.35,7.93-5,3-7,3-9,2s-4-3-6-6-4-7-6-10c-0.13-.2-0.27-0.38-0.4-0.58C692.18,366,692.12,371.86,691.46,376.52Z" transform="translate(-601 -316)" style="fill:#e2b8b3"/><path d="M789,421c-3-8-7-16-12-26s-11-22-16-29c-0.2-.28-0.38-0.5-0.58-0.76,1.44,17.4,6.5,27.45,11.58,36.76,6,11,12,21,15.25,28.58a36.32,36.32,0,0,1,3.27,17.58c1.81,0.43,3.48-1.61,3.48-6.16C794,437,792,429,789,421Z" transform="translate(-601 -316)" style="fill:#e2b8b3"/><path d="M662.52,424.85C667.81,434,674.39,443.69,680,450c8,9,14,11,20,11s12-2,19-10,15-22,20-31,7-13,9-16,4-5,6-5c1,0,1.91.45,3.18,1.69-3.29-3.69-5.78-6.36-8-7.7s-4.24-1.34-8.39,4.55-10.46,17.67-15.61,26.56S716,439,705.85,441.84s-26.43,2.53-43.26-17" transform="translate(-601 -316)" style="fill:#e2b8b3"/></svg>