<svg id="圖層_1" data-name="圖層 1" xmlns="http://www.w3.org/2000/svg" viewBox="0 0 239.99 180"><title>帶皮大塊五花</title><rect width="239.99" height="180" style="fill:none"/><path d="M708.4,358.22c0-9,0-15.06-.3-19.22-8.12-.56-13.21-1.35-17.55-1.78a119.33,119.33,0,0,0-12.6-.53c-3.15,0-5.25,0-6.3,1.57S670.6,343,670.6,406s0,66.15,1.05,67.72,3.15,1.58,5.25,1.05,4.2-1.58,13.65-2.1c4.6-.26,11-0.38,17.59-0.39,0.25-4.14.26-10,.26-18.51V358.22Z" transform="translate(-601 -316)" style="fill:#e58b89"/><path d="M736.75,358.22c0-8.48,0-14.37-.26-18.52-5.2,0-10.69,0-15.76-.14,0.27,4.15.27,10.08,0.27,18.66v95.55c0,8.57,0,14.5-.27,18.64,2.69,0.06,5.27.15,7.62,0.25,3,0.14,5.7.31,8.08,0.51,0.32-4.17.32-10.32,0.32-19.4V358.22Z" transform="translate(-601 -316)" style="fill:#dfb1ad"/><path d="M721,358.22c0-8.58,0-14.51-.27-18.66-2.49-.06-4.88-0.14-7.07-0.24-2-.09-3.83-0.2-5.56-0.32,0.3,4.16.3,10.26,0.3,19.22v95.55c0,8.47,0,14.37-.26,18.51,4.21,0,8.52,0,12.59.14,0.27-4.15.27-10.08,0.27-18.64V358.22Z" transform="translate(-601 -316)" style="fill:#fff3f1"/><path d="M765.1,358.22c0-10.24,0-16.74-.46-20.88-2,.55-4.42,1.49-13.19,2-4,.22-9.3.35-15,0.38,0.26,4.14.26,10,.26,18.52v95.55c0,9.09,0,15.24-.32,19.4,6.69,0.54,11.15,1.21,15,1.6a119.27,119.27,0,0,0,12.6.53h0.53c0.52-4.1.52-10.76,0.52-21.52V358.22Z" transform="translate(-601 -316)" style="fill:#fef7f5"/><path d="M770.35,338.27c-1-1.57-3.15-1.57-5.25-1l-0.46.12c0.45,4.14.46,10.63,0.46,20.88v95.55c0,10.76,0,17.43-.52,21.52,2.85,0,4.78-.09,5.77-1.57S771.4,469,771.4,406,771.4,339.85,770.35,338.27Z" transform="translate(-601 -316)" style="fill:#eed6c5"/></svg>