<?xml version="1.0" encoding="utf-8"?>
<!-- Generator: Adobe Illustrator 19.2.1, SVG Export Plug-In . SVG Version: 6.00 Build 0)  -->
<svg version="1.1" id="圖層_1" xmlns="http://www.w3.org/2000/svg" xmlns:xlink="http://www.w3.org/1999/xlink" x="0px" y="0px"
	 viewBox="0 0 240 180" style="enable-background:new 0 0 240 180;" xml:space="preserve">
<style type="text/css">
	.st0{fill:none;}
	.st1{fill:#48A429;}
	.st2{fill:#EBFDBE;}
	.st3{fill:#9FCF48;stroke:#EBFDBE;stroke-width:0.5;stroke-miterlimit:10;}
</style>
<title>檸檬</title>
<rect class="st0" width="240" height="180"/>
<ellipse transform="matrix(0.7071 -0.7071 0.7071 0.7071 -28.517 111.1987)" class="st1" cx="120" cy="90" rx="66" ry="66"/>
<ellipse transform="matrix(0.7071 -0.7071 0.7071 0.7071 -28.4669 111.22)" class="st2" cx="120" cy="90" rx="60.4" ry="60.4"/>
<path class="st3" d="M117.7,97l-12.4,38.3c-1,3.2,0.7,6.5,3.8,7.6c0.2,0.1,0.5,0.1,0.7,0.2c6.7,1.3,13.6,1.3,20.3,0
	c3.3-0.6,5.4-3.8,4.8-7c0-0.2-0.1-0.5-0.2-0.7L122.3,97c-0.4-1.3-1.8-2-3-1.6C118.5,95.7,117.9,96.3,117.7,97z"/>
<path class="st3" d="M114,94.3L81.5,118c-2.7,1.9-3.3,5.7-1.4,8.4c0.2,0.2,0.3,0.4,0.5,0.6c4.6,5,10.2,9,16.4,11.9
	c3,1.4,6.6,0.1,8-2.9c0.1-0.2,0.2-0.5,0.3-0.7l12.4-38.3c0.5-1.2-0.2-2.6-1.4-3.1C115.5,93.7,114.7,93.8,114,94.3z"/>
<path class="st3" d="M112.6,90H72.4c-3.3,0-6,2.6-6,6c0,0.3,0,0.5,0,0.8c0.8,6.8,3,13.3,6.3,19.3c1.6,2.9,5.2,4,8.1,2.4
	c0.2-0.1,0.4-0.3,0.6-0.4L114,94.4c1.1-0.7,1.4-2.2,0.6-3.3C114.1,90.4,113.4,90,112.6,90z"/>
<path class="st3" d="M122.3,97l12.4,38.3c1,3.2,4.4,4.9,7.6,3.9c0.2-0.1,0.5-0.2,0.7-0.3c6.2-2.9,11.8-6.9,16.4-11.9
	c2.3-2.4,2.2-6.2-0.2-8.5c-0.2-0.2-0.4-0.4-0.6-0.5L126,94.3c-1.1-0.8-2.6-0.6-3.4,0.5C122.2,95.5,122,96.3,122.3,97z"/>
<path class="st3" d="M126,94.3l32.5,23.7c2.7,1.9,6.4,1.3,8.4-1.4c0.1-0.2,0.3-0.4,0.4-0.6c3.3-6,5.4-12.5,6.3-19.3
	c0.4-3.3-1.9-6.3-5.2-6.7c-0.3,0-0.5,0-0.8,0h-40.2c-1.3,0-2.4,1.1-2.4,2.4C124.9,93.1,125.3,93.9,126,94.3z"/>
<path class="st3" d="M126,85.7L158.5,62c2.7-1.9,6.4-1.3,8.4,1.4c0.1,0.2,0.3,0.4,0.4,0.6c3.3,6,5.4,12.5,6.3,19.3
	c0.4,3.3-1.9,6.3-5.2,6.7c-0.3,0-0.5,0-0.8,0h-40.2c-1.3,0-2.4-1.1-2.4-2.4C124.9,86.9,125.3,86.1,126,85.7z"/>
<path class="st3" d="M122.3,83l12.4-38.3c1-3.2,4.4-4.9,7.6-3.9c0.2,0.1,0.5,0.2,0.7,0.3c6.2,2.9,11.8,6.9,16.4,11.9
	c2.3,2.4,2.2,6.2-0.2,8.5c-0.2,0.2-0.4,0.4-0.6,0.5L126,85.7c-1.1,0.8-2.6,0.6-3.4-0.5C122.2,84.5,122,83.7,122.3,83z"/>
<path class="st3" d="M112.6,90H72.4c-3.3,0-6-2.6-6-6c0-0.3,0-0.5,0-0.8c0.8-6.8,3-13.3,6.3-19.3c1.6-2.9,5.2-4,8.1-2.4
	c0.2,0.1,0.4,0.3,0.6,0.4L114,85.6c1.1,0.7,1.4,2.2,0.6,3.3C114.1,89.6,113.4,90,112.6,90z"/>
<path class="st3" d="M114,85.7L81.5,62c-2.7-1.9-3.3-5.7-1.4-8.4c0.2-0.2,0.3-0.4,0.5-0.6c4.6-5,10.2-9,16.4-11.9
	c3-1.4,6.6-0.1,8,2.9c0.1,0.2,0.2,0.5,0.3,0.7l12.4,38.3c0.5,1.2-0.2,2.6-1.4,3.1C115.5,86.3,114.7,86.2,114,85.7z"/>
<path class="st3" d="M117.7,83l-12.4-38.3c-1-3.2,0.7-6.5,3.8-7.6c0.2-0.1,0.5-0.1,0.7-0.2c6.7-1.3,13.6-1.3,20.3,0
	c3.3,0.6,5.4,3.8,4.8,7c0,0.2-0.1,0.5-0.2,0.7L122.3,83c-0.4,1.3-1.8,2-3,1.6C118.5,84.3,117.9,83.7,117.7,83z"/>
</svg>
