<?xml version="1.0" encoding="utf-8"?>
<!-- Generator: Adobe Illustrator 19.2.1, SVG Export Plug-In . SVG Version: 6.00 Build 0)  -->
<svg version="1.1" id="圖層_1" xmlns="http://www.w3.org/2000/svg" xmlns:xlink="http://www.w3.org/1999/xlink" x="0px" y="0px"
	 viewBox="0 0 240 180" style="enable-background:new 0 0 240 180;" xml:space="preserve">
<style type="text/css">
	.st0{fill:none;}
	.st1{fill:#F4F0E8;}
	.st2{opacity:0.5;}
	.st3{fill:#F8F8F5;}
	.st4{fill:#E4DCD8;}
	.st5{fill:#BE8490;}
</style>
<title>花枝丸</title>
<rect class="st0" width="240" height="180"/>
<path class="st1" d="M88.8,16.6c-1-1.3-1.5-2.4-2.5-3.1c-2.5-1.5-5.5-1.5-8,0c-1,0.7-1.5,1.8-2.4,3.1c-19,3.6-31.5,21.9-27.9,40.9
	c0.9,4.8,2.8,9.3,5.5,13.3c-0.2,1.6-0.6,2.7-0.5,3.9c0.7,2.8,2.9,5,5.7,5.7c1.2,0.2,2.3-0.3,3.9-0.5c15.9,10.9,37.7,6.9,48.7-9.1
	c10.9-15.9,6.9-37.7-9.1-48.7C98.1,19.4,93.6,17.5,88.8,16.6z"/>
<path class="st1" d="M128.7,135.5c-2.7,14.2-13.8,25.3-28,28c-1,1.3-1.5,2.4-2.4,3.1c-2.5,1.5-5.5,1.5-8,0c-1-0.7-1.5-1.8-2.4-3.1
	c-19-3.6-31.5-21.9-27.9-40.9c0.9-4.8,2.8-9.3,5.5-13.3c-0.2-1.6-0.7-2.7-0.5-3.9c0.7-2.8,2.9-5,5.7-5.7c1.2-0.2,2.3,0.3,3.9,0.5
	c16-10.9,37.7-6.8,48.6,9.1c2.7,4,4.6,8.5,5.5,13.3c1.3,1,2.4,1.5,3.1,2.4c1.5,2.5,1.5,5.5,0,8C131.1,134,130,134.5,128.7,135.5z"/>
<path class="st1" d="M126,71.6c3.6-19,21.9-31.5,40.9-27.9c4.8,0.9,9.3,2.8,13.3,5.5c1.6-0.2,2.7-0.7,3.9-0.5c2.8,0.7,5,2.9,5.7,5.7
	c0.2,1.2-0.3,2.3-0.5,3.9c8.1,11.9,8.1,27.6,0,39.5c0.2,1.6,0.7,2.7,0.5,3.9c-0.7,2.8-2.9,5-5.7,5.7c-1.2,0.2-2.3-0.3-3.9-0.5
	c-16,10.9-37.7,6.8-48.6-9.1c-2.7-4-4.6-8.5-5.5-13.3c-1.3-1-2.4-1.5-3.1-2.5c-1.5-2.5-1.5-5.5,0-8C123.6,73,124.7,72.5,126,71.6z"
	/>
<g class="st2">
	<path class="st3" d="M62.6,79.9l0.8,0.5C53,64.1,57.7,42.5,73.9,32c3.8-2.4,8-4.1,12.5-5c1-1.3,1.5-2.4,2.4-3.1
		c2.5-1.5,5.5-1.5,8,0c1,0.7,1.5,1.8,2.5,3.1c4.4,0.8,8.7,2.5,12.5,4.9c-5.2-8.1-13.5-13.7-22.9-15.4c-1-1.3-1.5-2.4-2.5-3.1
		c-2.5-1.5-5.5-1.5-8,0c-1,0.7-1.5,1.8-2.4,3.1c-19,3.6-31.5,21.9-27.9,40.9c0.9,4.8,2.8,9.3,5.5,13.3c-0.2,1.6-0.6,2.7-0.5,3.9
		c0.7,2.8,2.9,5,5.7,5.7C59.9,80.5,61,80.1,62.6,79.9z"/>
	<path class="st3" d="M102.7,95c-6-1.5-12.4-1.4-18.3,0.4c-3.5,1-6.8,2.6-9.8,4.7c-1.6-0.2-2.7-0.7-3.9-0.5c-2.8,0.7-5,2.9-5.7,5.7
		c-0.2,1.2,0.3,2.3,0.5,3.9c-10.9,16-6.8,37.7,9.1,48.7c0.3,0.2,0.6,0.4,0.9,0.6c-7.7-11.8-7.5-27.1,0.5-38.8
		c-0.2-1.6-0.7-2.7-0.5-3.9c0.7-2.8,2.9-5,5.7-5.7c1.2-0.2,2.3,0.3,3.9,0.5c11.6-8,26.9-8.2,38.8-0.5C119,102.5,111.4,97.1,102.7,95
		z"/>
	<path class="st3" d="M189.2,58.2c0.2-1.6,0.7-2.7,0.5-3.9c-0.7-2.8-2.9-5-5.7-5.7c-1.2-0.2-2.3,0.3-3.9,0.5
		c-16-10.9-37.7-6.8-48.6,9.1c-1.6,2.3-2.9,4.9-3.9,7.5c-0.7,5.3-2.5,10.3-5.4,14.8c0.2,0.5,0.4,1,0.7,1.4c0.7,1,1.8,1.5,3.1,2.5
		c1.7,9.5,7.3,17.8,15.4,22.9c-2.4-3.8-4.1-8-4.9-12.5c-1.3-1-2.4-1.5-3.1-2.4c-1.5-2.5-1.5-5.5,0-8c0.7-1,1.8-1.5,3.1-2.4
		c3.6-19,21.9-31.5,40.9-27.9c4.4,0.8,8.7,2.5,12.4,4.9C189.5,58.8,189.4,58.5,189.2,58.2z"/>
</g>
<g class="st2">
	<path class="st4" d="M92.2,84.6c8-2.3,14.9-7.5,19.4-14.5c10.5-16.2,6-37.9-10.2-48.4c-0.1,0-0.1-0.1-0.2-0.1
		c10.4,16.3,5.7,37.9-10.6,48.3c-11.5,7.4-26.2,7.4-37.7,0c0.2,0.3,0.3,0.6,0.5,0.8c-0.2,1.6-0.6,2.7-0.5,3.9c0.7,2.8,2.9,5,5.7,5.7
		c1.2,0.2,2.3-0.3,3.9-0.5C71.2,85.8,82.1,87.6,92.2,84.6z"/>
	<path class="st4" d="M128.7,122.6c-1.7-9.5-7.3-17.8-15.4-23c2.4,3.8,4.1,8,4.9,12.5c1.3,1,2.4,1.5,3.1,2.4c1.5,2.5,1.5,5.5,0,8
		c-0.7,1-1.8,1.5-3.1,2.4c-2.7,14.2-13.8,25.3-28,28c-1,1.3-1.5,2.4-2.4,3.1c-2.5,1.5-5.5,1.5-8,0c-1-0.7-1.5-1.8-2.4-3.1
		c-4.4-0.8-8.6-2.5-12.4-4.9c5.2,8.1,13.5,13.7,22.9,15.4c1,1.3,1.5,2.4,2.4,3.1c2.5,1.5,5.5,1.5,8,0c1-0.7,1.5-1.8,2.4-3.1
		c14.2-2.7,25.3-13.8,28-28c1.3-1,2.4-1.5,3.1-2.4c1.5-2.5,1.5-5.5,0-8C131.1,124,130,123.5,128.7,122.6z"/>
	<path class="st4" d="M189.2,58.2c0.2-1.6,0.7-2.7,0.5-3.9c-0.7-2.8-2.9-5-5.7-5.7c-1.2-0.2-2.3,0.3-3.9,0.5
		c-0.3-0.2-0.6-0.4-0.8-0.5c7.6,11.8,7.4,27.1-0.5,38.7c0.2,1.6,0.7,2.7,0.5,3.9c-0.7,2.8-2.9,5-5.7,5.7c-1.2,0.2-2.3-0.3-3.9-0.5
		c-11.6,8-26.9,8.2-38.8,0.5c10.4,16.3,32.1,21,48.4,10.6c0.3-0.2,0.6-0.4,0.9-0.6c1.6,0.2,2.7,0.7,3.9,0.5c2.8-0.7,5-2.9,5.7-5.7
		c0.2-1.2-0.3-2.3-0.5-3.9C197.4,85.9,197.4,70.2,189.2,58.2z"/>
</g>
<path class="st5" d="M94.3,78l-1.1,0.1c-0.3,0-0.8,0-1.2,0.2s-1,0.2-1.5,0.3c-0.6,0.1-1.2,0.4-1.7,0.7c-0.5,0.3-1.1,0.8-1.8,1.1
	l-0.6,0.3l-0.5,0.2c-0.4,0.1-0.8,0.2-1.2,0.3c-1.6,0.3-3.2,0.3-4.8,0c-0.4-0.1-0.8-0.1-1.2-0.3l-0.6-0.2l-0.5-0.3
	c-0.7-0.4-1.3-0.9-1.8-1.2c-0.5-0.3-1.1-0.5-1.7-0.7c-0.5-0.2-1.1-0.2-1.5-0.3s-0.9-0.1-1.2-0.2L70.3,78l1.1-0.1c0.4,0,0.8,0,1.3,0
	c0.5,0,1.1,0,1.6,0.1c0.7,0.1,1.3,0.3,1.9,0.5c0.7,0.3,1.2,0.7,1.8,1c0.7,0.3,1.3,0.5,2,0.5c1.5,0.2,3,0.2,4.5,0
	c0.4,0,0.7-0.1,1.1-0.2l0.5-0.2l0.4-0.2c0.6-0.3,1.2-0.7,1.9-1c0.6-0.3,1.2-0.5,1.9-0.5c0.5-0.1,1.1-0.1,1.6-0.1c0.4,0,0.8,0,1.2,0
	L94.3,78z"/>
<path class="st5" d="M93,23.4c0,0,0.3,0.2,0.8,0.7c0.3,0.2,0.6,0.5,1,0.8s0.8,0.6,1.3,0.9c0.5,0.3,1.1,0.6,1.7,0.7
	c0.6,0.2,1.3,0.2,2.1,0.5l0.6,0.2l0.5,0.3c0.3,0.2,0.7,0.4,1,0.6c1.3,0.9,2.5,2.1,3.4,3.4c0.2,0.3,0.5,0.7,0.6,1l0.3,0.5l0.2,0.6
	c0.2,0.8,0.3,1.5,0.5,2.1c0.2,0.6,0.4,1.1,0.7,1.7c0.3,0.5,0.6,0.9,0.9,1.3s0.5,0.7,0.8,1c0.4,0.5,0.7,0.8,0.7,0.8s-0.3-0.3-0.8-0.7
	c-0.2-0.2-0.6-0.5-0.9-0.9c-0.4-0.4-0.7-0.8-1-1.3c-0.4-0.5-0.7-1.1-1-1.7c-0.3-0.7-0.4-1.4-0.6-2c-0.3-0.7-0.6-1.3-1.1-1.8
	c-0.9-1.2-2-2.3-3.2-3.2c-0.3-0.2-0.6-0.4-0.9-0.6l-0.5-0.3l-0.4-0.2c-0.6-0.2-1.3-0.3-2-0.6c-0.6-0.2-1.2-0.6-1.7-1
	c-0.4-0.3-0.9-0.7-1.3-1c-0.4-0.3-0.6-0.7-0.9-0.9C93.2,23.7,93,23.4,93,23.4z"/>
<path class="st5" d="M172.3,105l-1.1,0.1c-0.3,0-0.8,0-1.2,0.2s-1,0.2-1.5,0.3c-0.6,0.1-1.2,0.4-1.7,0.7c-0.5,0.3-1.1,0.8-1.8,1.1
	c-0.2,0.1-0.3,0.2-0.6,0.3l-0.5,0.2c-0.4,0.1-0.8,0.2-1.2,0.3c-0.8,0.1-1.6,0.2-2.4,0.2c-0.8,0-1.6-0.1-2.4-0.2
	c-0.4-0.1-0.8-0.1-1.2-0.3l-0.6-0.2l-0.5-0.3c-0.7-0.4-1.3-0.9-1.8-1.2c-0.5-0.3-1.1-0.5-1.7-0.7c-0.5-0.2-1.1-0.2-1.5-0.3
	s-0.9-0.1-1.2-0.2l-1.1-0.1l1.1-0.1c0.4,0,0.8,0,1.3,0c0.5,0,1.1,0,1.6,0.1c0.7,0.1,1.3,0.3,1.9,0.5c0.7,0.3,1.2,0.7,1.8,1
	c0.7,0.3,1.3,0.5,2,0.5c1.5,0.2,3,0.2,4.5,0c0.4,0,0.7-0.1,1.1-0.2l0.5-0.2l0.4-0.2c0.6-0.3,1.2-0.7,1.8-1c0.6-0.3,1.2-0.5,1.9-0.6
	c0.5-0.1,1.1-0.1,1.6-0.1c0.4,0,0.8,0,1.2,0L172.3,105z"/>
<path class="st5" d="M132.8,67.4c0,0,0.2-0.3,0.7-0.8c0.3-0.3,0.5-0.7,0.8-1c0.3-0.4,0.6-0.8,0.9-1.3c0.3-0.5,0.6-1.1,0.7-1.7
	c0.2-0.6,0.2-1.3,0.5-2.1c0.1-0.2,0.1-0.3,0.2-0.6l0.3-0.5c0.2-0.3,0.4-0.7,0.7-1c0.5-0.6,1-1.3,1.6-1.8c0.6-0.6,1.2-1.1,1.8-1.6
	c0.3-0.2,0.7-0.5,1-0.6l0.5-0.3l0.6-0.2c0.8-0.2,1.5-0.3,2.1-0.5c0.6-0.2,1.1-0.4,1.7-0.7c0.5-0.3,0.9-0.6,1.3-0.9s0.7-0.5,1-0.8
	c0.5-0.4,0.8-0.7,0.8-0.7s-0.3,0.3-0.7,0.8c-0.2,0.2-0.5,0.6-0.9,0.9c-0.4,0.4-0.8,0.7-1.3,1c-0.5,0.4-1.1,0.7-1.7,1
	c-0.7,0.3-1.4,0.4-2,0.6c-0.7,0.3-1.3,0.6-1.8,1.1c-1.2,0.9-2.3,2-3.2,3.2c-0.2,0.3-0.4,0.6-0.6,0.9l-0.3,0.5l-0.2,0.5
	c-0.2,0.6-0.3,1.3-0.6,2c-0.2,0.6-0.6,1.2-1,1.7c-0.3,0.4-0.7,0.9-1,1.3c-0.3,0.4-0.7,0.6-0.9,0.9C133.1,67.1,132.8,67.4,132.8,67.4
	z"/>
<path class="st5" d="M104.9,101.4c0,0,0.3,0.2,0.8,0.7c0.3,0.2,0.6,0.5,1,0.8s0.8,0.6,1.3,0.9c0.5,0.3,1.1,0.6,1.7,0.7
	c0.6,0.2,1.3,0.2,2.1,0.5l0.6,0.2l0.5,0.3c0.3,0.2,0.7,0.4,1,0.6c1.3,0.9,2.5,2.1,3.4,3.4c0.2,0.3,0.5,0.7,0.6,1l0.3,0.5l0.2,0.6
	c0.2,0.8,0.3,1.5,0.5,2.1c0.2,0.6,0.4,1.1,0.7,1.7c0.3,0.5,0.6,0.9,0.9,1.3c0.2,0.3,0.5,0.7,0.8,1c0.4,0.5,0.7,0.8,0.7,0.8
	s-0.3-0.3-0.8-0.7c-0.2-0.2-0.6-0.5-0.9-0.9c-0.4-0.4-0.7-0.8-1-1.3c-0.4-0.5-0.7-1.1-1-1.7c-0.3-0.7-0.4-1.4-0.6-2
	c-0.3-0.7-0.6-1.3-1.1-1.8c-0.9-1.2-2-2.3-3.2-3.2c-0.3-0.2-0.6-0.4-0.9-0.6l-0.5-0.3l-0.5-0.2c-0.6-0.2-1.3-0.3-2-0.6
	c-0.6-0.2-1.2-0.6-1.7-1c-0.4-0.3-0.9-0.7-1.3-1c-0.4-0.3-0.6-0.7-0.9-0.9C105.2,101.7,104.9,101.4,104.9,101.4z"/>
<path class="st5" d="M67.3,141c0,0-0.1-0.4-0.1-1.1c0-0.4-0.1-0.8-0.2-1.2c-0.1-0.5-0.2-1-0.3-1.5c-0.1-0.6-0.4-1.2-0.7-1.7
	c-0.3-0.5-0.8-1.1-1.2-1.8c-0.1-0.2-0.2-0.3-0.3-0.6l-0.2-0.5c-0.1-0.4-0.2-0.8-0.3-1.2c-0.3-1.6-0.3-3.2,0-4.8
	c0.1-0.4,0.1-0.8,0.3-1.2l0.2-0.6l0.3-0.5c0.4-0.7,0.9-1.3,1.2-1.8c0.3-0.5,0.5-1.1,0.7-1.7c0.2-0.5,0.2-1.1,0.3-1.5
	s0.1-0.9,0.2-1.2c0.1-0.7,0.1-1.1,0.1-1.1s0,0.4,0.1,1.1c0,0.3,0.1,0.8,0,1.3c0,0.5,0,1.1-0.1,1.6c-0.1,0.7-0.3,1.3-0.6,1.9
	c-0.3,0.7-0.7,1.2-1,1.8c-0.3,0.7-0.5,1.3-0.5,2c-0.2,1.5-0.2,3,0,4.5c0,0.4,0.1,0.7,0.2,1.1l0.2,0.5l0.2,0.4c0.3,0.6,0.7,1.2,1,1.8
	c0.3,0.6,0.5,1.2,0.6,1.9c0.1,0.5,0.1,1.1,0.2,1.6c0,0.5,0,0.9,0,1.2C67.4,140.6,67.3,141,67.3,141z"/>
<path class="st5" d="M121.9,139.6c0,0-0.2,0.3-0.7,0.8c-0.3,0.3-0.5,0.7-0.8,1c-0.3,0.4-0.6,0.8-0.9,1.3c-0.3,0.5-0.6,1.1-0.7,1.7
	c-0.2,0.6-0.2,1.3-0.5,2.1c-0.1,0.2-0.1,0.4-0.2,0.6l-0.3,0.5c-0.2,0.3-0.4,0.7-0.7,1c-0.9,1.3-2.1,2.5-3.4,3.4
	c-0.3,0.2-0.7,0.5-1,0.6l-0.5,0.3l-0.6,0.2c-0.8,0.2-1.5,0.3-2.1,0.5c-0.6,0.2-1.1,0.4-1.7,0.7c-0.5,0.3-0.9,0.6-1.3,0.9
	s-0.7,0.5-1,0.8c-0.5,0.4-0.8,0.7-0.8,0.7s0.3-0.3,0.7-0.8c0.2-0.2,0.5-0.6,0.9-0.9c0.4-0.4,0.8-0.7,1.3-1c0.5-0.4,1.1-0.7,1.7-1
	c0.7-0.3,1.4-0.4,2-0.6c0.7-0.3,1.3-0.6,1.8-1.1c0.6-0.5,1.2-1,1.7-1.5c0.5-0.5,1-1.1,1.5-1.7c0.2-0.3,0.4-0.6,0.6-0.9l0.3-0.5
	l0.2-0.4c0.2-0.6,0.3-1.3,0.6-2c0.2-0.6,0.6-1.2,1-1.7c0.3-0.4,0.7-0.9,1-1.3c0.3-0.3,0.6-0.6,0.9-0.9
	C121.6,139.9,121.9,139.6,121.9,139.6z"/>
</svg>
