<svg id="圖層_1" data-name="圖層 1" xmlns="http://www.w3.org/2000/svg" xmlns:xlink="http://www.w3.org/1999/xlink" viewBox="0 0 239.99 180"><defs><clipPath id="clip-path" transform="translate(-601 -316)"><path d="M781,382.5c-6-9.5-18-18.5-29-23.5s-21-6-31-6-20,1-31,6-23,14-29,23.5-6,19.5,2.5,32c1,1.49,2.15,3,3.38,4.56q0.89,1.12,1.85,2.25a167.75,167.75,0,0,0,13,13.55c0.67,0.63,1.34,1.26,2,1.88,4.64,4.28,9.3,8.23,13.4,11.51,1,0.79,1.94,1.55,2.85,2.25,11,8.5,16,10.5,21,10.5s10-2,21-10.5c0.91-.7,1.87-1.46,2.85-2.25,4.1-3.28,8.76-7.23,13.4-11.51,0.68-.62,1.35-1.25,2-1.88a167.74,167.74,0,0,0,13-13.55q1-1.13,1.85-2.25c1.23-1.54,2.37-3.07,3.38-4.56C787,402,787,392,781,382.5Z" style="fill:none"/></clipPath></defs><title>蛤蠣</title><rect width="239.99" height="180" style="fill:none"/><g style="clip-path:url(#clip-path)"><path d="M721,416c-12,0-24,4-32.25,13.5a41.61,41.61,0,0,0-5,7.24c4.64,4.28,9.3,8.23,13.4,11.51,0.19-.34.4-0.67,0.6-1C703,439,712,436,721,436s18,3,23.25,11.25c0.21,0.33.4,0.66,0.6,1,4.1-3.28,8.76-7.23,13.4-11.51a41.63,41.63,0,0,0-5-7.24C745,420,733,416,721,416Z" transform="translate(-601 -316)" style="fill:#c6a380"/><path d="M721,436c-9,0-18,3-23.25,11.25-0.21.33-.41,0.66-0.6,1,1,0.79,1.94,1.55,2.85,2.25,11,8.5,16,10.5,21,10.5s10-2,21-10.5c0.91-.7,1.87-1.46,2.85-2.25-0.2-.34-0.4-0.67-0.6-1C739,439,730,436,721,436Z" transform="translate(-601 -316)" style="fill:#efe6d6"/><path d="M781,382.5c-6-9.5-18-18.5-29-23.5s-21-6-31-6-20,1-31,6-23,14-29,23.5-6,19.5,2.5,32c1,1.49,2.15,3,3.38,4.56,3.69-8.11,8.84-12.26,14.62-17.54C693,391,707,388,721,388s28,3,39.5,13.5c5.78,5.28,10.93,9.42,14.62,17.54,1.23-1.54,2.37-3.07,3.38-4.56C787,402,787,392,781,382.5Z" transform="translate(-601 -316)" style="fill:#493228"/><path d="M760.5,404.5C749,394,735,391,721,391s-28,3-39.5,13.5a62.59,62.59,0,0,0-12.77,16.81,167.75,167.75,0,0,0,13,13.55c1.9-4.35,4.25-5.41,7-8.61,8.25-9.5,20.25-13.5,32.25-13.5s24,4,32.25,13.5c2.77,3.2,5.13,4.26,7,8.61a167.7,167.7,0,0,0,13-13.55A62.63,62.63,0,0,0,760.5,404.5Z" transform="translate(-601 -316)" style="fill:#8e4b25"/><path d="M783,414.87A82.58,82.58,0,0,0,768.39,394c-12-12.18-27.47-18.09-47.39-18.09s-35.43,5.92-47.39,18.09A82.43,82.43,0,0,0,659,414.87l-0.76-1a83.87,83.87,0,0,1,16.75-26c11.55-11.76,26.59-17.48,46-17.48s34.41,5.72,46,17.48a84,84,0,0,1,16.75,26Z" transform="translate(-601 -316)" style="fill:#b5884d"/><path d="M752.22,452.43A45.36,45.36,0,0,0,744.88,441c-6-6.66-13.84-9.9-23.88-9.9s-17.85,3.24-23.88,9.9a45.29,45.29,0,0,0-7.34,11.45l-0.38-.57a46.49,46.49,0,0,1,8.44-14.25c5.82-6.44,13.4-9.56,23.16-9.56s17.33,3.13,23.16,9.56a46.54,46.54,0,0,1,8.44,14.25Z" transform="translate(-601 -316)" style="fill:#f1e3d3"/><path d="M721,412c-12,0-24,3.7-32.25,12.49a40.59,40.59,0,0,0-7,10.51l2,1.74a38.62,38.62,0,0,1,5-6.7C697,421.25,709,417.55,721,417.55s24,3.7,32.25,12.49a38.57,38.57,0,0,1,5,6.7l2-1.75a40.6,40.6,0,0,0-7-10.51C745,415.7,733,412,721,412Z" transform="translate(-601 -316)" style="fill:#f1e6d6"/><path d="M760.5,399.4c-11.5-10.08-25.5-13-39.5-13s-28,2.88-39.5,13a61.61,61.61,0,0,0-14.62,19.75q0.89,1.07,1.85,2.16a60.43,60.43,0,0,1,12.77-16.14c11.5-10.08,25.5-13,39.5-13s28,2.88,39.5,13a60.51,60.51,0,0,1,12.77,16.14q1-1.08,1.85-2.16A61.67,61.67,0,0,0,760.5,399.4Z" transform="translate(-601 -316)" style="fill:#dec4b1"/></g></svg>