<svg id="圖層_1" data-name="圖層 1" xmlns="http://www.w3.org/2000/svg" viewBox="0 0 240 180"><defs><style>.cls-1{fill:none;}.cls-2{fill:#eac57d;}.cls-3{fill:#e0af5f;}.cls-4{opacity:0.8;}.cls-5{fill:#b49056;}</style></defs><title>豆干</title><rect class="cls-1" width="240" height="180"/><path class="cls-2" d="M87.5,30c-18,0-22,0-24,2s-2,6-2,24v68c0,18,0,22,2,24s6,2,24,2h68c18,0,22,0,24-2s2-6,2-24V56c0-18,0-22-2-24s-6-2-24-2h-68Z"/><path class="cls-2" d="M86,30c-18,0-22,0-24,2s-2,6-2,24v68c0,18,0,22,2,24s6,2,24,2h68c18,0,22,0,24-2s2-6,2-24V56c0-18,0-22-2-24s-6-2-24-2H86Z"/><path class="cls-3" d="M65.75,145.43a7.15,7.15,0,0,1-.22-1,25.78,25.78,0,0,1-.31-2.71c-0.1-1.37-.13-2.75-0.16-4.13C65,133.65,65,129.72,65,125.78V54.19c0-3.94,0-7.87.08-11.8,0-1.38.06-2.76,0.16-4.13a25,25,0,0,1,.27-2.7,7.21,7.21,0,0,1,.26-1l2,0.62a6,6,0,0,0-.16.71,23.6,23.6,0,0,0-.28,2.5c-0.09,1.34-.13,2.69-0.16,4-0.08,3.92-.08,7.84-0.07,11.76v71.63c0,3.92,0,7.84.07,11.76,0,1.34.06,2.68,0.16,4a24.5,24.5,0,0,0,.28,2.5,6,6,0,0,0,.16.71Z"/><polygon class="cls-3" points="142.02 69.48 142.03 69.48 142.03 110.52 100.98 110.52 98.53 112.98 144.48 112.98 144.48 67.02 142.02 69.48"/><path class="cls-3" d="M176.3,36.24a5.38,5.38,0,0,0-.71-0.16,23.17,23.17,0,0,0-2.5-.28c-1.34-.1-2.68-0.13-4-0.16-3.94-.08-7.86-0.08-11.78-0.08H85.69c-3.91,0-7.84,0-11.76.07-1.34,0-2.68.06-4,.16a24.14,24.14,0,0,0-2.5.29,5.39,5.39,0,0,0-.71.16l-0.62-2a8.27,8.27,0,0,1,1-.22,25.47,25.47,0,0,1,2.65-.34c1.38-.12,2.76-0.12,4.14-0.12,3.94-.08,7.88-0.07,11.8-0.08h71.62c3.92,0,7.87,0,11.8.08,1.38,0,2.76.06,4.13,0.16A24.41,24.41,0,0,1,176,34a8.41,8.41,0,0,1,1,.22Z"/><g class="cls-4"><polygon class="cls-5" points="100.97 110.52 100.97 69.48 142.02 69.48 144.48 67.02 98.53 67.02 98.53 112.98 100.98 110.52 100.97 110.52"/><path class="cls-5" d="M177.28,145.43l-2-.62a6,6,0,0,0,.16-0.71,22.81,22.81,0,0,0,.31-2.54c0.1-1.34.13-2.68,0.16-4,0.08-3.92.08-7.84,0.07-11.76V54.19c0-3.92,0-7.84-.07-11.76,0-1.34-.06-2.68-0.16-4a23.91,23.91,0,0,0-.29-2.5,6,6,0,0,0-.16-0.71l2-.62a7.22,7.22,0,0,1,.23,1,26.07,26.07,0,0,1,.31,2.72c0.1,1.37.13,2.75,0.16,4.13,0.08,3.94.08,7.87,0.07,11.8v71.63c0,3.93,0,7.87-.07,11.8,0,1.38-.07,2.76-0.16,4.13a25.25,25.25,0,0,1-.31,2.71A7.4,7.4,0,0,1,177.28,145.43Z"/><path class="cls-5" d="M83.89,146.56c-3.34,0-6.67,0-10-.07-1.38,0-2.76-.07-4.13-0.16A24.41,24.41,0,0,1,67,146a8.44,8.44,0,0,1-1-.22l0.62-2a5.2,5.2,0,0,0,.71.16,22.88,22.88,0,0,0,2.5.29c1.34,0.1,2.68.13,4,.16,3.92,0.08,7.84.08,11.76,0.07h71.63c3.92,0,7.84,0,11.76-.07,1.34,0,2.68-.06,4-0.16a23.92,23.92,0,0,0,2.5-.29,5.22,5.22,0,0,0,.71-0.16l0.63,2a8.61,8.61,0,0,1-1,.22,26.44,26.44,0,0,1-2.72.31c-1.37.1-2.75,0.13-4.12,0.16-3.94.08-7.89,0.07-11.8,0.07H83.89Z"/></g></svg>