<svg id="圖層_1" data-name="圖層 1" xmlns="http://www.w3.org/2000/svg" xmlns:xlink="http://www.w3.org/1999/xlink" viewBox="0 0 239.99 180"><defs><clipPath id="clip-path" transform="translate(-601 -316)"><path d="M661,376c6-18,18-30,34-36a77.36,77.36,0,0,1,52,0c16,6,28,18,34,36s6,42,0,60-18,30-34,36a77.36,77.36,0,0,1-52,0c-16-6-28-18-34-36S655,394,661,376Z" style="fill:none"/></clipPath></defs><title>豬肉片</title><rect width="239.99" height="180" style="fill:none"/><g style="clip-path:url(#clip-path)"><path d="M661,376c6-18,18-30,34-36a77.36,77.36,0,0,1,52,0c16,6,28,18,34,36s6,42,0,60-18,30-34,36a77.36,77.36,0,0,1-52,0c-16-6-28-18-34-36S655,394,661,376Z" transform="translate(-601 -316)" style="fill:#e8837c"/><path d="M700.3,348.77c2.69,27.23,32.89,42.8,59.48,35.8l-1.53-5.8a45.38,45.38,0,0,1-13.37,1.42,46.92,46.92,0,0,1-13-2.39,43.61,43.61,0,0,1-9.65-4.6,39.14,39.14,0,0,1-5-3.76,34.5,34.5,0,0,1-7.48-9.46,31.13,31.13,0,0,1-2.32-5.61,32.47,32.47,0,0,1-1.22-6.19Z" transform="translate(-601 -316)" style="fill:#f7f0df"/><path d="M656.25,417.28c19.25-2.78,26.4-13.23,28.66-25.43,2.46-13.28-.87-28.64,30-61.6l4.38,4.1c-3.32,3.55-6.54,7.2-9.58,11-2.44,3.05-4.77,6.2-6.91,9.47a72,72,0,0,0-7.72,15.08,55,55,0,0,0-1.78,6.07c-0.42,1.81-.74,3.64-1,5.48-0.32,2.27-.54,4.56-0.82,6.84-0.22,1.8-.48,3.6-0.83,5.38a40.75,40.75,0,0,1-3.31,10,32.78,32.78,0,0,1-6.46,9,35.09,35.09,0,0,1-10.1,6.77,50.79,50.79,0,0,1-13.68,3.8Z" transform="translate(-601 -316)" style="fill:#f7f0df"/><path d="M656.61,423.32c25.85,8,35.62,27.51,22.39,54.68l5.39,2.63a72,72,0,0,0,4.25-10.72,52.31,52.31,0,0,0,2-10.22,40.82,40.82,0,0,0-.21-9.68,34.45,34.45,0,0,0-7.24-16.74,39.81,39.81,0,0,0-6.68-6.56,49.6,49.6,0,0,0-8.34-5.21,65.7,65.7,0,0,0-9.82-3.91Z" transform="translate(-601 -316)" style="fill:#f7f0df"/><path d="M688.52,457.66q15.71-2.1,28,1l1.46-5.82c-9.1-2.28-19.21-2.58-30.27-1.11Z" transform="translate(-601 -316)" style="fill:#f7f0df"/><path d="M788,402.43C762.12,409,763.79,427.05,758,439.69c-5.66,12.4-18.48,19.59-16.85,44.53l6-.39a53.72,53.72,0,0,1,0-7.4,40.38,40.38,0,0,1,.88-6,35,35,0,0,1,1.55-5,37.39,37.39,0,0,1,2.06-4.37c0.76-1.39,1.61-2.73,2.48-4.05,1.29-1.93,2.65-3.81,4-5.72,1-1.43,2-2.88,2.88-4.38a44.74,44.74,0,0,0,2.62-5,53.67,53.67,0,0,0,2-5.35c0.72-2.22,1.34-4.47,2-6.7,0.48-1.6,1-3.19,1.59-4.75a34.91,34.91,0,0,1,1.94-4.28,23.26,23.26,0,0,1,2.55-3.77,21.78,21.78,0,0,1,3.54-3.34,27.25,27.25,0,0,1,5-3,41.48,41.48,0,0,1,7.12-2.45Z" transform="translate(-601 -316)" style="fill:#f7f0df"/><path d="M715,484c0-30,18-36,24-52.5s0-43.5,48-61.5l-2.11-5.62A119.55,119.55,0,0,0,769,371.59a79.1,79.1,0,0,0-12,8,59.47,59.47,0,0,0-8.65,8.68,53.13,53.13,0,0,0-5.83,9,57.68,57.68,0,0,0-3.62,8.84c-0.87,2.71-1.55,5.48-2.15,8.27-0.67,3.15-1.23,6.32-1.91,9.47a41.79,41.79,0,0,1-1.53,5.61,28.65,28.65,0,0,1-2.19,4.61,47.71,47.71,0,0,1-3,4.43c-1.58,2.11-3.26,4.15-4.9,6.21-1.4,1.77-2.77,3.56-4.06,5.41a61.75,61.75,0,0,0-3.91,6.38,52.06,52.06,0,0,0-3.29,7.63,55.12,55.12,0,0,0-2.21,9.1A69,69,0,0,0,709,484h6Z" transform="translate(-601 -316)" style="fill:#f7f0df"/></g></svg>