<?xml version="1.0" encoding="utf-8"?>
<!-- Generator: Adobe Illustrator 19.2.1, SVG Export Plug-In . SVG Version: 6.00 Build 0)  -->
<svg version="1.1" id="圖層_1" xmlns="http://www.w3.org/2000/svg" xmlns:xlink="http://www.w3.org/1999/xlink" x="0px" y="0px"
	 viewBox="0 0 240 180" style="enable-background:new 0 0 240 180;" xml:space="preserve">
<style type="text/css">
	.st0{fill:none;}
	.st1{fill:#BF5264;}
	.st2{opacity:0.7;fill:#D3CBD1;enable-background:new    ;}
</style>
<title>豬肝</title>
<rect class="st0" width="240" height="180"/>
<path class="st1" d="M56,75c-1-12-3-18-1-21s8-3,14-3h24.5c12.5,0,31.5,0,47,5.5c14.8,5.4,27.2,15.8,35,29.5c7.5,13,10.5,28,12,36.5
	s1.5,10.5,0.5,12s-3,2.5-14.5,1.5c-14.8-1.4-29.5-3.6-44-6.5c-11.5-2.5-13.5-4.5-15.5-5s-4,0.5-11.5,1c-9.7,0.5-19.3,0.5-29,0
	C65,125,61,124,59,114.5S57,87,56,75z"/>
<path class="st2" d="M67,68c-2-2-3.1-4.4-1.5-6c1.8-1.8,5.5-2,10-2h20c10.5,0,26.5,0,39.5,4.5s23,13.5,29,20s8,10.5,8,13
	c0,1.7-1.9,1.6-7.4-3.8c-9.1-8.8-20.1-15.4-32.1-19.4C117,69.3,96,70,84,70S69,70,67,68z"/>
</svg>
