<?xml version="1.0" encoding="utf-8"?>
<!-- Generator: Adobe Illustrator 19.2.1, SVG Export Plug-In . SVG Version: 6.00 Build 0)  -->
<svg version="1.1" id="圖層_1" xmlns="http://www.w3.org/2000/svg" xmlns:xlink="http://www.w3.org/1999/xlink" x="0px" y="0px"
	 viewBox="0 0 240 180" style="enable-background:new 0 0 240 180;" xml:space="preserve">
<style type="text/css">
	.st0{fill:none;}
	.st1{fill:#F8EDDC;}
	.st2{fill:#E9CFC7;}
	.st3{fill:#B56568;}
	.st4{fill:#EBD7D7;}
</style>
<title>雞內臟</title>
<rect class="st0" width="240" height="180"/>
<path class="st1" d="M94,67c4-2,6-6,10-7s10,1,16,1s12-2,16-1s6,5,10,7c2.8,1.4,6.5,1.8,14.6,0.9c-0.2-4.6-0.6-7.6-0.6-10.4
	c0-4.5,1-8.5-0.5-12.5s-5.5-8-9.5-10.5s-8-3.5-16-4c-9.3-0.5-18.7-0.5-28,0c-8,0.5-12,1.5-16,4S82,41,80.5,45S80,53,80,57.5
	c0,2.8-0.4,5.8-0.6,10.4C87.5,68.8,91.2,68.4,94,67z"/>
<path class="st2" d="M146,58.3c-4-2-6-6-10-7s-10,1-16,1s-12-2-16-1s-6,5-10,7c-2.7,1.4-6.4,1.8-14,1c-0.1,2.3-0.4,5-0.5,8.6
	c8,0.9,11.8,0.5,14.6-0.9c4-2,6-6,10-7s10,1,16,1s12-2,16-1s6,5,10,7c2.8,1.4,6.5,1.8,14.6,0.9c-0.1-3.6-0.4-6.3-0.5-8.6
	C152.4,60.1,148.7,59.7,146,58.3z"/>
<path class="st3" d="M146,67c-4-2-6-6-10-7s-10,1-16,1s-12-2-16-1s-6,5-10,7c-2.8,1.4-6.5,1.8-14.6,0.9c-0.1,2.7-0.1,6,0.1,10.1
	c0.5,11,2.5,28,8,41.5s14.5,23.5,22,28.5s13.5,5,21,0s16.5-15,22-28.5s7.5-30.5,8-41.5c0.2-4.1,0.2-7.3,0.1-10.1
	C152.5,68.8,148.8,68.4,146,67z"/>
<path class="st4" d="M87.9,82.4c0.2-3,5.3-8.2,7.8-3.6c2,3.8-0.1,11.7,1.2,22.3c1,8.4,3.4,16.5,7.3,24c0.7,1.3,0.4,4.5-1.6,5.5
	s-8.9-11.3-11.6-19.8C88.2,102.5,87.2,94.9,87.9,82.4z"/>
</svg>
