<svg id="圖層_1" data-name="圖層 1" xmlns="http://www.w3.org/2000/svg" viewBox="0 0 240 180"><title>青椒</title><rect width="240" height="180" style="fill:none"/><path d="M480,11811c12,0,15-6,21.5-9s16.5-3,25.5,1,17,12,17,33-8,55-18,72-22,17-29.5,14-10.5-9-16.5-9-9,6-16.5,9-19.5,3-29.5-14-18-51-18-72,8-29,17-33,19-4,25.5-1S468,11811,480,11811Z" transform="translate(-360 -11763)" style="fill:#7eb830"/><path d="M480,11826a38.15,38.15,0,0,0,6.45-.52A31,31,0,0,0,492,11824a8.53,8.53,0,0,0,4.53-3.37c1.19-1.71,2.35-4.36,3.48-6.07a10.44,10.44,0,0,1,3.24-3.2,15.68,15.68,0,0,1,1.75-1,13.32,13.32,0,0,1,3.53-1.11,22.53,22.53,0,0,1,5.6-.29,27.48,27.48,0,0,1,6.35,1.21,25.65,25.65,0,0,1,4.5,1.87,18.39,18.39,0,0,1,2.61,1.69,15.07,15.07,0,0,1,2.22,2.14,16.38,16.38,0,0,1,1.94,2.9,22.87,22.87,0,0,1,1.66,4.11,35.81,35.81,0,0,1,1.18,5.73,58.7,58.7,0,0,1,.43,7.86c0,3.24-.24,6.47-0.56,9.69-0.37,3.71-.88,7.41-1.5,11.08q-1.59,9.45-4.1,18.72c-1,3.73-2.13,7.42-3.39,11.07-1.14,3.3-2.39,6.57-3.82,9.76a63,63,0,0,1-3.93,7.57,33.84,33.84,0,0,1-3.73,5,19.9,19.9,0,0,1-3.35,3,13.12,13.12,0,0,1-2.86,1.52,10.15,10.15,0,0,1-4.86.57,11.65,11.65,0,0,1-2.25-.5,14.42,14.42,0,0,1-3.2-1.54c-0.68-.43-1.33-0.91-2-1.39-1-.75-2-1.53-3-2.28a31.66,31.66,0,0,0-3.08-2.08,20.27,20.27,0,0,0-4.2-1.84,17.38,17.38,0,0,0-10.44,0,20.2,20.2,0,0,0-4.2,1.84,31.54,31.54,0,0,0-3.08,2.08c-1,.75-2,1.52-3,2.28-0.64.49-1.29,1-2,1.39a14.42,14.42,0,0,1-3.2,1.54,11.62,11.62,0,0,1-2.25.5,10.07,10.07,0,0,1-4.87-.57,13.15,13.15,0,0,1-2.86-1.52,19.89,19.89,0,0,1-3.35-3,34.15,34.15,0,0,1-3.74-5,63,63,0,0,1-3.92-7.57c-1.42-3.2-2.68-6.46-3.82-9.76-1.26-3.65-2.38-7.35-3.39-11.07q-2.5-9.25-4.1-18.72c-0.62-3.68-1.13-7.37-1.5-11.09-0.33-3.22-.55-6.45-0.56-9.69a58.71,58.71,0,0,1,.43-7.86,35.81,35.81,0,0,1,1.18-5.73,22.81,22.81,0,0,1,1.66-4.11,16.59,16.59,0,0,1,1.94-2.9,15.32,15.32,0,0,1,2.22-2.14A18.65,18.65,0,0,1,435,11812a25.56,25.56,0,0,1,4.5-1.87,27.54,27.54,0,0,1,6.34-1.21,22.38,22.38,0,0,1,5.61.29,15,15,0,0,1,2.18.56,11.29,11.29,0,0,1,1.35.55,15.45,15.45,0,0,1,1.74,1,10.5,10.5,0,0,1,3.24,3.2c1.12,1.72,2.28,4.36,3.48,6.07A8.53,8.53,0,0,0,468,11824a31,31,0,0,0,5.54,1.47A38.15,38.15,0,0,0,480,11826Z" transform="translate(-360 -11763)" style="fill:#558827"/><path d="M480,11814c12,0,21,7.5,22.5,18.75S498,11859,480,11859s-24-15-22.5-26.25S468,11814,480,11814Z" transform="translate(-360 -11763)" style="fill:#dbe5c6"/><path d="M486,11814.67a27.28,27.28,0,0,0-12,0c0-22.45.79-33.67,24-33.67v12C486.53,11793,486,11798.48,486,11814.67Z" transform="translate(-360 -11763)" style="fill:#a3c97a"/><path d="M462.56,11851.58c3.65,4.38,9.33,7.43,17.44,7.43s13.79-3,17.44-7.43c7.65,14.19,4.33,31-11.06,53.62-0.38-.14-0.77-0.28-1.16-0.39a17.38,17.38,0,0,0-10.44,0c-0.39.12-.78,0.25-1.16,0.39C458.23,11882.56,454.91,11865.77,462.56,11851.58Z" transform="translate(-360 -11763)" style="fill:#527229"/></svg>