<svg id="圖層_1" data-name="圖層 1" xmlns="http://www.w3.org/2000/svg" viewBox="0 0 240 180"><title>香腸</title><rect width="240" height="180" style="fill:none"/><path d="M755.5,332.5a1.71,1.71,0,0,0,1.5,0c0,4.5,3,4.5,6.5,6.5s7.5,6,9.5,15,2,23,0,38.5-6,32.5-15,47S735,466,720,472a76.27,76.27,0,0,1-41,4c-10-2-14-6-16-9.5s-2-6.5-6.5-5a2.59,2.59,0,0,0,0-1.5c4.5,0,4.5-3,4.5-8.5s0-13.5,7-18.5,21-7,31-12.5,16-14.5,19-25,3-22.5,5-32.5,6-18,11-22,11-4,15.13-4S755.5,337,755.5,332.5Z" transform="translate(-601 -316)" style="fill:#ce827e"/><path d="M740.09,337.93A16.87,16.87,0,0,0,734,341c-5,4-9,12-11,22s-2,22-5,32.5-9,19.5-19,25S675,428,668,433c-6.09,4.35-6.88,11-7,16.24,0.4,4.86,1.5,6.48,2.3,7.7a6.94,6.94,0,0,0,.5.68,19.14,19.14,0,0,0,3.07,2.81c0.37,0.29.78,0.59,1.27,0.94,0.68,0.48,1.51,1.06,2.19,1.5,0.86,0.56,1.47.9,2,1.19,0.74,0.41,1.27.71,1.82,1a21.18,21.18,0,0,0,2.44,1,29.58,29.58,0,0,0,3.54,1,47.25,47.25,0,0,0,4.79.77c1.93,0.21,3.87.33,5.81,0.37a69.88,69.88,0,0,0,13.43-1,62.82,62.82,0,0,0,14-4.14,65.07,65.07,0,0,0,13.41-7.88,74.53,74.53,0,0,0,11.89-11.26,71.73,71.73,0,0,0,5-6.62,76.33,76.33,0,0,0,6.3-11.63,121.89,121.89,0,0,0,5.5-15.74,125.84,125.84,0,0,0,3.29-14.71,161.8,161.8,0,0,0,1.75-17,120.66,120.66,0,0,0,0-13.2c-0.1-1.78-.25-3.55-0.49-5.32q-0.28-2.12-.7-4.23a28.83,28.83,0,0,0-1.7-5.83,20.44,20.44,0,0,0-2-3.65,16.84,16.84,0,0,0-1.65-2,21.13,21.13,0,0,0-3.62-3,19.34,19.34,0,0,0-4.68-2.22C748.53,338,745.83,337.39,740.09,337.93Z" transform="translate(-601 -316)" style="fill:#ea9c98"/><path d="M744.56,343.18C754.91,343,756,349,755.48,356S753,371,749,375.09s-9.93,4.26-14.44,2.72-7.59-4.8-6-12.16a58,58,0,0,1,1.48-6.41,44.91,44.91,0,0,1,1.57-4.43,34,34,0,0,1,1.8-3.74,24.6,24.6,0,0,1,2-3,15.4,15.4,0,0,1,1.94-2.1,10.41,10.41,0,0,1,1.87-1.32,11.49,11.49,0,0,1,2-.85A17,17,0,0,1,744.56,343.18Z" transform="translate(-601 -316)" style="fill:#fecebf"/></svg>